<svg width="24" height="24" viewBox="0 0 24 24" fill="none" xmlns="http://www.w3.org/2000/svg">
<circle cx="12" cy="12" r="12" fill="#121212"/>
<path d="M20.9974 14.4819C20.9974 14.5 20.9974 14.5155 20.9974 14.5336C20.8707 14.6966 20.7827 14.8802 20.6819 15.0586C19.8284 16.525 18.9801 17.9966 18.1293 19.4655C18.1008 19.4267 18.0724 19.3905 18.0465 19.3492C17.6301 18.6974 17.2164 18.0457 16.8026 17.3966C16.275 16.569 15.7474 15.7388 15.2224 14.9086C15.1862 14.8543 15.1474 14.8155 15.0801 14.8155C15.1034 14.7561 15.0543 14.7198 15.031 14.6759C14.2034 13.2457 13.3758 11.8155 12.5483 10.3854C12.4008 10.1319 12.2534 9.87588 12.1034 9.61985C12.0517 9.65347 12.0388 9.70002 12.0155 9.7414C11.1 11.3086 10.1845 12.8759 9.27412 14.4431C9.20429 14.5647 9.11119 14.6733 9.08015 14.813C9.02584 14.8621 8.98705 14.9164 8.99481 14.9914C8.91981 14.9785 8.91722 15.0509 8.89653 15.0871C8.08705 16.4733 7.27757 17.8595 6.47067 19.2457C6.37757 19.4061 6.28188 19.569 6.18102 19.7397C6.15774 19.7009 6.14223 19.6802 6.12929 19.6595C5.11033 17.9242 4.09654 16.1836 3.07757 14.4483C3.03102 14.3681 3.05171 14.3164 3.08792 14.2517C4.09395 12.5293 5.09998 10.8043 6.10343 9.07933C6.15257 8.99398 6.20429 8.96295 6.30516 8.96295C8.05602 8.96554 9.80688 8.96554 11.5577 8.96554C11.6069 8.96554 11.6586 8.97588 11.7155 8.94743C10.7664 7.30778 9.82239 5.67588 8.86808 4.02847C8.93791 4.02847 8.98188 4.02847 9.02326 4.02847C10.9474 4.02847 12.8689 4.02847 14.7931 4.02588C14.8965 4.02588 14.9534 4.05433 15.0051 4.14484C16.906 7.43709 18.8095 10.7242 20.7129 14.0138C20.8034 14.1716 20.8836 14.3371 20.9974 14.4819Z" fill="#F04834"/>
<path d="M12.0129 19.7474C11.0354 18.2112 10.0552 16.6724 9.07761 15.1362C9.04657 15.0897 9.02071 15.0405 8.99226 14.994C8.9845 14.9164 9.0233 14.8621 9.07761 14.8155C9.12416 14.8155 9.17071 14.8129 9.21985 14.8129C11.1259 14.8129 13.0345 14.8129 14.9405 14.8129C14.9871 14.8129 15.0336 14.8155 15.0828 14.8181C15.15 14.8207 15.1888 14.8569 15.225 14.9112C15.75 15.7414 16.2776 16.569 16.8052 17.3991C17.219 18.0509 17.6354 18.7026 18.0492 19.3517C18.075 19.3905 18.1035 19.4293 18.1319 19.4681C18.1733 19.569 18.2612 19.644 18.2897 19.7526C16.1948 19.7474 14.1052 19.7474 12.0129 19.7474Z" fill="#D5222E"/>
</svg>
