<svg width="24" height="24" viewBox="0 0 24 24" fill="none" xmlns="http://www.w3.org/2000/svg">
<circle cx="12" cy="12" r="12" fill="url(#paint0_linear_263_4151)"/>
<path fill-rule="evenodd" clip-rule="evenodd" d="M5.54699 10.7645C4.76549 11.5455 4.44899 12.674 4.71799 13.7235C4.98599 14.7735 5.79799 15.5855 6.84799 15.8535C7.89749 16.122 9.02549 15.8055 9.80699 15.024L15.024 9.80699C15.761 9.06999 16.939 9.05499 17.6565 9.77199C18.374 10.4895 18.3585 11.6675 17.6215 12.4045L15.9405 14.086L14.9885 13.134L14.3445 16.513L17.7235 15.8685L16.7715 14.917L18.453 13.2355C19.2345 12.4545 19.551 11.326 19.282 10.2765C19.014 9.22649 18.202 8.41449 17.152 8.14649C16.1025 7.87799 14.9745 8.19449 14.193 8.97599L8.97599 14.193C8.23899 14.93 7.06099 14.945 6.34349 14.228C5.62599 13.5105 5.64149 12.3325 6.37849 11.5955L7.91999 10.054L8.87149 11.0055L9.51449 7.62799L6.13699 8.27099L7.08899 9.22249L5.54699 10.7645Z" fill="white"/>
<defs>
<linearGradient id="paint0_linear_263_4151" x1="24" y1="0" x2="0" y2="24" gradientUnits="userSpaceOnUse">
<stop stop-color="#5F6BFB"/>
<stop offset="1" stop-color="#724DE4"/>
</linearGradient>
</defs>
</svg>
