<svg width="24" height="24" fill="none" xmlns="http://www.w3.org/2000/svg">
<path d="M24 12c0-6.627-5.373-12-12-12S0 5.373 0 12s5.373 12 12 12 12-5.373 12-12Z" fill="url(#a)"/>
<path d="M20.16 8.254a2.37 2.37 0 0 1-.178.601 3.452 3.452 0 0 0-.235.785c-.03.16-.045.279-.058.383l-.001.006-.001.007c-.021.166-.036.279-.103.479a2.416 2.416 0 0 1-.369.729c-.179.237-.478.635-.878.682a.357.357 0 0 1-.136-.009c-1.134-.579-2.108-1.006-2.445-1.102-.392-.111-.341-.966-.297-1.72.02-.337.039-.656.023-.929-.055-.952-.224-1.994-1.053-2.502-.495-.303-1.134-.392-1.744-.394.113-.053.24-.127.377-.206l.004-.003c.36-.208.805-.466 1.248-.512.145-.014.288-.03.428-.046.893-.101 1.665-.188 2.479.09.369.127 1.126.55 1.321.941.138.277.37.493.833.923.241.225.4.355.517.45l.005.005c.163.134.195.162.244.262.15.305.095.63.02 1.08ZM16.037 12.168a.088.088 0 0 1 .043.131c-.121.184-.26.436-.426.744-.078.145-.152.282-.214.39-.22.376-.237.694-.252.949-.015.266-.028.388-.187.495-.132.088-.266.117-1.2.26-.162.024-.235.056-.298.084l-.054.022c-.054.02-.107-.026-.104-.083.007-.135.012-.303.013-.514v-.04a5.238 5.238 0 0 0-.01-.451c-.012-.239-.013-.339.05-.443.078-.125.139-.163.239-.227.14-.087.33-.208.614-.597.15-.207.184-.318.205-.415.009-.04.012-.055.128-.143.123-.093.496-.376.974-.295.132.022.3.071.48.133ZM12.324 16.47a.097.097 0 0 1-.078.041c-.098.004-.167-.02-.212-.075-.096-.117-.083-.352-.06-.49l.394-.105c.03.209.045.513-.044.63ZM12.356 15.046a1.589 1.589 0 0 0-.014.19c0 .026 0 .051.002.076 0 .065.003.167-.006.213a.943.943 0 0 1-.367.043c-.002-.04 0-.1.002-.14l.003-.091v-.097c0-.076-.001-.2.017-.237.037-.006.075-.014.116-.023a.853.853 0 0 1 .256-.03 1.234 1.234 0 0 1-.01.097ZM11.626 16.35c-.02.201-.082.452-.271.49-.086.017-.127-.009-.153-.033-.128-.119-.149-.477-.13-.734.085.002.197-.018.329-.043a7.7 7.7 0 0 0 .225-.049c.008.095.013.23 0 .368ZM11.536 15.623l-.428.15c.022-.166.05-.4.061-.555.007-.11.037-.143.046-.15.003-.003.008-.008.024-.008h.008l.009.002.27-.015c.012.127.012.406.01.576ZM10.844 15.49a2.651 2.651 0 0 0-.07.375l-.536-.016c.03-.166.072-.335.118-.47.046-.134.097-.234.143-.262a.234.234 0 0 1 .244.022c.118.1.151.216.101.35ZM10.644 17.131c-.041.057-.088.086-.145.092-.058.007-.103-.007-.14-.04-.168-.156-.154-.665-.148-.91.222-.05.462-.094.576-.1.017.205.022.734-.143.958ZM9.945 15.834c-.027.07-.052.136-.071.195-.062.02-.253.002-.448-.04l.134-.845c.22-.058.475-.077.537-.011.081.086-.082.518-.152.701ZM9.702 17.26c-.104.128-.26.188-.478.185-.15-.002-.204-.06-.231-.102-.12-.191-.003-.642.116-.93l.726.043c.008.05.014.112.017.18.008.204-.018.46-.15.624Z" fill="#fff"/>
<path d="M15.704 11.135c-.654-.185-.597-1.141-.543-2.065.02-.327.038-.636.023-.89-.05-.864-.196-1.806-.892-2.233-.748-.457-1.972-.353-2.728-.257h-.002c-.277.085-.536.139-.736.128-.446-.023-.793-.21-1.098-.375-.239-.13-.446-.24-.642-.24h-.032c-.586.038-.855.18-1.1.4-.06.053-.136.211-.381.918-.124.358-.147.553-.17.744-.02.173-.042.352-.134.618-.064.184-.112.343-.158.496-.12.406-.216.726-.504 1.107-.034.045-.076.11-.124.186-.065.103-.146.23-.252.378-.075.104-.248.494-.239.613.015.189.076.306.146.443.07.135.15.288.165.5l.002.034c.026.334-.022.502-.66 1.071a6.807 6.807 0 0 0-.89.973c-.018.023.004.057.033.055a.45.45 0 0 1 .128.001.68.68 0 0 1 .413.195c.019.02.048.025.073.015a.676.676 0 0 1 .327-.026c.134.013.27.053.36.14.026.026.065.04.101.03a.564.564 0 0 1 .319.016c.08.03.149.078.203.138.038.042.105.05.152.02a.436.436 0 0 1 .098-.048c.138-.047.291-.02.426.028.066.024.135.045.195.085.11.073.176.18.219.299.024.067.114.09.17.044.098-.082.176-.095.254-.06.04.018.068.042.087.074.033.054.1.098.16.081a.968.968 0 0 1 .677.076.46.46 0 0 1 .185.174l.006-.037a.044.044 0 0 1 .03-.036l.045-.014c.107-.033.647-.19.857.032.01.01.025.01.034 0a.289.289 0 0 1 .066-.056.476.476 0 0 1 .528.045c.032.026.083.017.106-.017a.275.275 0 0 1 .251-.12l.297-.015a4.257 4.257 0 0 0 .397-.039l.106-.02c.144-.032.307-.067.441-.005.13.06.113.206.097.335-.006.053-.012.108-.012.16l.002.074c.002.111.004.214-.018.294l.014.062.002.009c.012.056.072.087.121.057a1.02 1.02 0 0 0 .245-.192.495.495 0 0 0 .028-.103c.019-.11.04-.335.041-.79v-.049a5.183 5.183 0 0 0-.009-.424c-.012-.247-.022-.44.1-.639.12-.192.236-.265.347-.335.13-.081.275-.173.521-.51.12-.167.136-.234.147-.287.027-.125.068-.2.255-.341.151-.115.612-.464 1.234-.36.204.035.535.144.861.272h.001a.198.198 0 0 1 .05.02c.29.117.574.247.756.35a.1.1 0 0 0 .126-.028.645.645 0 0 1 .195-.164c.026-.016.046-.028.066-.044l.019-.017c.054-.043.054-.138-.008-.17a11.209 11.209 0 0 0-1.976-.784Zm-6.231.202c-.202.885-1.574 1.858-2.197 1.858h-.012a.29.29 0 0 1-.07-.012l-.021-.006a1.056 1.056 0 0 1-.388-.24.554.554 0 0 1-.178-.33.918.918 0 0 1 .057-.646c.019-.04.035-.08.05-.114l.015-.035a8.17 8.17 0 0 0 .099-.25c.038-.106.042-.146.047-.187.005-.033.01-.072.023-.128.04-.166.06-.307.077-.432.032-.226.06-.42.181-.6a.493.493 0 0 1 .07-.082l.026-.024.028-.022a.589.589 0 0 1 .206-.092c.112-.027.244-.032.395-.012.166.013.32.044.455.082a2.867 2.867 0 0 1 .375.133l.065.028.073.033.02.01a1.257 1.257 0 0 1 .4.273c.262.276.25.597.204.795Zm.635-3.356-.026.16c-.062.363-.203.858-.724.986-.5.123-.62.149-.976.165h-.025c-.26 0-.761-.163-.85-.572-.057-.262.06-.453.25-.768l.103-.17c.252-.426.352-.734.432-.98.077-.241.142-.44.309-.606a.92.92 0 0 1 .383-.23c.116-.037.241-.056.367-.056.243 0 .485.07.658.21.078.061.189.186.253.554.033.19-.023.538-.154 1.307Zm3.715 1.03c-.179.307-.277.477-.432.604-.307.252-.665.316-.96.316-.212 0-.392-.033-.498-.052-.305-.056-.873-.159-1.062-.607a.482.482 0 0 1-.037-.216c0-.07 0-.19-.033-.471l-.002-.02a1.36 1.36 0 0 1 .005-.457l.004-.022c.107-.544.136-.627.16-.674a.218.218 0 0 1 .391.191c-.01.031-.04.147-.123.568l-.005.022a.938.938 0 0 0 0 .323l.003.019c.035.306.035.445.035.52a.78.78 0 0 0 0 .037.425.425 0 0 0 .216.208c.06.03.124-.028.11-.094-.096-.48-.091-1.039.092-1.385.06-.114.171-.302.277-.477v-.002l.001-.001.032-.053.027-.044.124-.204.014-.023a.202.202 0 0 1 .01-.016l.02-.033.008-.013.004-.005a.215.215 0 0 1 .01-.015c.005-.01.01-.016.011-.02l.001-.001.002-.003.001-.002c.036-.053.072-.103.107-.15.048-.065-.007-.149-.081-.119-.178.073-.3.166-.325.185a.217.217 0 0 1-.305-.034.219.219 0 0 1 .035-.307c.112-.088.706-.522 1.418-.318.513.146.782.537.883.685.082.12.332.483.324.99-.006.386-.168.665-.462 1.17Z" fill="#fff"/>
<path d="m9.201 6.359-.127.316c-.11.275-.233.587-.293.7-.103.195-.183.318-.247.417-.073.114-.131.204-.175.33-.077.22-.091.465-.041.733-.136-.015-.36-.11-.385-.228-.019-.088.036-.184.197-.45.033-.052.067-.11.105-.174.277-.467.39-.814.472-1.068.09-.276.131-.392.273-.489A.574.574 0 0 1 9.2 6.36ZM8.93 16.148c-.15.308-.339.593-.456.734-.097-.262-.266-.863-.221-1.347a.937.937 0 0 1 .133-.438c.047-.071.176-.115.322-.115.108 0 .226.023.327.078.055.029.129.087.136.258.012.23-.098.54-.24.83Z" fill="#fff"/>
<path d="M17.207 12.69c.012.01.02.023.013.037-.046.09-.1.154-.163.229-.078.092-.166.196-.248.358-.117.23-.154.44-.174.978-.023.63.002.986.02 1.244.017.25.028.4-.016.644-.09.491-.3.817-.566 1.228-.333.515-.678 1.047-1.248 1.217-.053.017-.055.017-.204.017-.13 0-.345 0-.752.015-.745.027-1.12.041-1.44.102-.335.065-.51.137-.68.205-.152.062-.297.121-.575.178-.165.034-.412.07-1.254.071-.876.002-1.404.002-2.102-.077-.957-.11-1.438-.164-1.757-.335-.753-.401-1.071-1.124-1.597-2.32a.224.224 0 0 1-.003-.007c-.006-.014.012-.029.026-.02a.37.37 0 0 0 .15.055.442.442 0 0 0 .174-.006l.004-.003c.01-.004.02 0 .024.009a.386.386 0 0 0 .176.222c.09.046.19.05.29.049.103-.002.206-.007.308-.02.054-.005.11.021.13.071.094.227.21.391.383.415.01.002.022.003.038.003.039 0 .1-.011.185-.07.066-.045.168-.019.215.046a.738.738 0 0 0 .14.137c.18.184.615.272.98.272.2 0 .379-.026.484-.078.15-.073.15-.185.143-.23a7.194 7.194 0 0 1-.034-.242c-.001-.01.013-.014.017-.005.022.048.049.108.12.12l.026.002c.102 0 .26.033.288.131a.52.52 0 0 0 .06.14c.062.096.186.211.433.216h.02c.283 0 .502-.093.65-.276a.743.743 0 0 0 .027-.037c.053-.074.21-.078.278-.016a.4.4 0 0 0 .33.104.444.444 0 0 0 .319-.195.87.87 0 0 0 .12-.267c.01-.03.05-.038.072-.017.054.05.141.103.267.103a.48.48 0 0 0 .098-.01c.247-.05.37-.254.427-.484.002-.008.013-.01.019-.004a.465.465 0 0 0 .377.164h.032a.34.34 0 0 0 .26-.136c.078-.102.11-.254.116-.406a.116.116 0 0 1 .072-.101c.211-.088.467-.279.543-.408a.312.312 0 0 0 .007-.014.122.122 0 0 1 .084-.067c.163-.031.235-.062.3-.09a.707.707 0 0 1 .214-.06c.947-.145 1.132-.177 1.337-.313.306-.205.322-.486.337-.758.013-.23.028-.492.206-.798.065-.112.14-.251.22-.399.14-.259.334-.62.473-.81a.095.095 0 0 1 .115-.03c.327.14.606.278.666.327Z" fill="#fff"/>
<path d="M8.013 15.507c-.037.327-.06.764-.007 1.334.015.16.036.328.062.497-.045.024-.18.058-.417.055-.343-.007-.676-.093-.776-.202l-.016-.014c-.083-.066-.138-.11-.145-.23-.003-.04.014-.08.051-.137a2.34 2.34 0 0 1 .081-.114 3.15 3.15 0 0 0 .202-.297 6.244 6.244 0 0 1 .425-.65c.06-.083.132-.183.24-.347.08-.12.146-.216.2-.29.092-.125.152-.193.19-.23a3.599 3.599 0 0 1-.03.21c-.019.112-.042.25-.06.415ZM7.856 10.418l-.007.008c-.044.062-.095.132-.156.268-.163.362-.166.568-.169.733-.001.086-.002.155-.026.236a1.861 1.861 0 0 1-.073.184c-.096.22-.222.51-.166.898-.078-.038-.197-.123-.214-.17a1.938 1.938 0 0 0-.013-.062c-.027-.121-.045-.2.032-.378.203-.467.228-.578.244-.706a.687.687 0 0 1 .015-.084c.042-.185.065-.343.083-.47.027-.192.046-.32.11-.415.024-.036.091-.054.187-.054.038 0 .08.003.128.01h.01c.005 0 .01 0 .015.002ZM7.589 15.031a1.256 1.256 0 0 0-.071-.33l-.018-.037c-.007-.014-.016-.027-.024-.04l-.001-.002-.013-.014a.277.277 0 0 0-.038-.032l-.025-.014a.093.093 0 0 0-.015-.006l-.004-.002-.003-.001-.003-.001-.006-.003c-.065-.024-.131-.05-.2-.06h-.004l-.025-.002H7.088c0 .002-.002.002-.002.002h-.001l-.047.013-.02.01-.018.011-.002.001-.001.002-.023.021a.408.408 0 0 0-.016.02l-.002.002-.006.009-.08.121a15.07 15.07 0 0 1-.37.546 27.791 27.791 0 0 0-.115.168l.116.023c.088.016.175.031.264.043.184.025.37.037.555.03.01 0 .018 0 .027.002.044-.064.097-.14.164-.241.037-.057.072-.11.106-.159a.187.187 0 0 1-.028-.08ZM6.936 15.788c-.015.141-.173.507-.42.855-.206.29-.332.361-.357.364-.1-.014-.198-.26-.276-.505-.03-.099-.06-.198-.083-.28a1.977 1.977 0 0 1-.054-.593c.209.116.574.147 1.088.149h.001l.101.01ZM6.571 14.625v.001l-.007.01a80.383 80.383 0 0 1-.403.588c-.025.037-.058.077-.087.12-.073-.017-.146-.034-.219-.054a1.893 1.893 0 0 1-.207-.073.147.147 0 0 0-.04-.05l.001-.001.063-.128c.04-.078.08-.155.123-.23.079-.136.173-.274.306-.362l.02-.013a.392.392 0 0 1 .167-.063c.007-.001.052 0 .073.001h.008l.01.003c.015.005.03.008.046.014l.016.008c.013.008.027.015.04.025-.02-.015.028.035.028.031.04.055.051.1.062.173ZM5.873 14.257a1.61 1.61 0 0 0-.381.5c-.056.103-.106.208-.158.313a.51.51 0 0 1-.017.031 1.635 1.635 0 0 1-.366-.132c.05-.092.108-.181.163-.268.079-.122.163-.242.256-.354.034-.043.071-.09.12-.118.05-.03.11-.022.167-.02.06.005.125.006.182.029a.202.202 0 0 1 .034.02ZM5.614 16.448a.116.116 0 0 0-.021.023l-.016.003a3.099 3.099 0 0 1-.348.015c-.043-.001-.082-.008-.1-.035-.027-.043-.036-.118-.046-.175a2.832 2.832 0 0 1-.021-.85c.145.051.295.092.449.117-.033.255.023.628.056.742l.047.16ZM5.145 14.165a4.373 4.373 0 0 0-.352.5c-.042.072-.09.145-.126.221a.548.548 0 0 1-.146-.065 1.43 1.43 0 0 1-.11-.075c-.008-.008-.033-.027-.048-.04l-.01-.007c.011-.033.033-.07.045-.095a2.432 2.432 0 0 1 .291-.48c.029-.035.055-.08.1-.093a.309.309 0 0 1 .124 0 .39.39 0 0 1 .232.133ZM4.151 14.852c.002-.007.011-.008.015-.002.034.048.081.09.132.13l.068.05a.009.009 0 0 1 .003.009 2.93 2.93 0 0 0-.09.688c0 .01-.015.012-.017.002-.065-.27-.154-.719-.11-.877ZM4.783 15.333a3.257 3.257 0 0 0 0 .897v.002a.193.193 0 0 0-.071-.002h-.015l-.01-.002c-.028-.006-.03-.01-.051-.023a.264.264 0 0 1-.077-.084.652.652 0 0 1-.067-.3c-.008-.2.009-.399.046-.594l.106.044.14.061v.001h-.001Z" fill="#fff"/>
<defs>
<radialGradient id="a" cx="0" cy="0" r="1" gradientUnits="userSpaceOnUse" gradientTransform="rotate(90 -.629 12.629) scale(13.4817)">
<stop offset=".167" stop-color="#073183"/>
<stop offset="1" stop-color="#0054F9"/>
</radialGradient>
</defs>
</svg>
