<svg width="24" height="24" viewBox="0 0 24 24" fill="none" xmlns="http://www.w3.org/2000/svg">
<circle cx="12" cy="12" r="11.5" fill="#1A1A1A" stroke="url(#paint0_linear_930_5941)"/>
<path d="M17.4834 17.4249C17.5003 17.4263 17.5172 17.4278 17.5337 17.4319C17.581 17.445 17.6237 17.4675 17.6278 17.5233C17.6287 17.566 17.5783 17.6093 17.5261 17.6133C17.3011 17.6336 17.0746 17.6277 16.8511 17.5958C16.701 17.5747 16.5559 17.5275 16.4222 17.4563C16.3829 17.4365 16.3049 17.3879 16.2401 17.3476C16.1899 17.3164 16.1476 17.2901 16.1378 17.2861C16.0992 17.2691 16.058 17.259 16.0159 17.2565C15.9504 17.2457 15.5274 17.1815 14.9345 17.0914C14.3576 17.0038 13.6197 16.8918 12.8938 16.7808C10.7819 16.4456 8.39106 16.059 8.22771 16.0014C8.21553 15.9954 8.20269 15.9909 8.18946 15.9879C8.14955 15.9776 8.11304 15.957 8.08359 15.9282C8.05413 15.8994 8.03276 15.8633 8.02161 15.8237C8.00766 15.7741 7.98471 15.7337 7.94826 15.7413C7.76826 15.7791 7.58826 15.8165 7.40826 15.8417C7.25615 15.8611 7.10304 15.8716 6.94971 15.8732C6.88198 15.8732 6.81493 15.8596 6.75261 15.8331C6.66396 15.7962 6.65181 15.7201 6.69681 15.6347C6.78371 15.4923 6.85007 15.3384 6.89391 15.1775C6.90219 15.1465 6.91942 15.1187 6.94343 15.0975C6.96744 15.0763 6.99718 15.0626 7.02891 15.0582C7.22776 14.9853 7.43727 14.9456 7.64901 14.9408C7.69896 14.939 7.58601 14.7761 7.35651 14.727C7.33634 14.7227 7.31775 14.7188 7.30073 14.7153C7.18489 14.6914 7.14172 14.6825 7.16526 14.637C7.26526 14.4042 7.42012 14.199 7.61661 14.0389C7.62018 14.0358 7.62349 14.0323 7.62651 14.0286C7.71484 13.9483 7.81501 13.8821 7.92351 13.8324C7.93836 13.8279 7.95816 13.8216 7.98336 13.8131C8.33033 13.7711 8.68161 13.8416 8.98551 14.0142C9.00711 14.0241 9.01116 13.9994 9.00306 13.9769C8.98033 13.9182 8.94597 13.8647 8.90205 13.8196C8.85813 13.7745 8.80554 13.7388 8.74746 13.7145C8.71281 13.6889 8.72766 13.6713 8.75781 13.6587L8.82036 13.6547C9.15515 13.6485 9.48988 13.6699 9.82116 13.7186C9.85566 13.7223 9.89054 13.7176 9.92283 13.7049C9.95512 13.6922 9.98385 13.6719 10.0066 13.6456C10.5064 13.1417 11.0074 12.6389 11.5096 12.1372C11.8783 11.7695 12.2473 11.4021 12.6166 11.0352C12.662 11.0284 12.7083 11.0315 12.7524 11.0442C12.7965 11.0569 12.8374 11.0789 12.8723 11.1088C12.9071 11.1387 12.9352 11.1757 12.9545 11.2173C12.9738 11.259 12.9839 11.3043 12.9842 11.3502C12.6086 11.7288 12.2324 12.1068 11.8556 12.4842C11.354 12.9864 10.8512 13.4874 10.3472 13.9872C10.34 13.9944 10.3334 14.0014 10.3274 14.0084L9.27576 15.1334C9.26181 15.1487 9.28071 15.1685 9.29871 15.1576C9.65431 14.9323 9.98762 14.6736 10.2941 14.385C10.3233 14.6473 10.3383 14.9109 10.3391 15.1748C10.3401 15.3995 10.3123 15.6235 10.2563 15.8412C10.2296 15.9178 10.1986 15.993 10.1636 16.0662L10.2487 16.0811C10.2565 16.0839 10.2647 16.086 10.273 16.0874C10.3192 16.0946 10.4488 16.1154 10.6394 16.146C11.9358 16.3542 16.057 17.0161 16.028 16.9424C15.9188 16.614 15.9015 16.2619 15.9781 15.9245C15.994 15.8299 16.0151 15.7362 16.0364 15.6423C16.0553 15.5582 16.0744 15.474 16.0897 15.389L16.0935 15.3679C16.1274 15.1818 16.1614 14.9949 16.1774 14.8071C16.2033 14.4243 16.1757 14.0398 16.0955 13.6645C16.0621 13.4912 16.017 13.3202 15.9605 13.1529C15.9043 12.9748 15.8183 12.8074 15.7063 12.6579C15.6973 12.6464 15.6883 12.6349 15.6793 12.6234C15.5848 12.5024 15.4896 12.3805 15.3836 12.2696C15.2869 12.1742 15.1834 12.0859 15.074 12.0054C14.9945 11.9444 14.9124 11.8899 14.83 11.8352C14.8224 11.8301 14.8148 11.8251 14.8072 11.82C14.3289 11.5935 13.8666 11.3348 13.4234 11.0456L13.4072 11.0334C13.2375 10.9224 13.0914 10.7792 12.977 10.6118C12.9737 10.6042 12.9694 10.5971 12.9644 10.5906C12.6736 10.1404 12.4113 9.67238 12.1792 9.1893C12.1202 9.09885 12.0599 9.00795 11.9933 8.9229C11.9128 8.81366 11.8245 8.71034 11.7292 8.61375C11.6191 8.50858 11.4978 8.41383 11.3769 8.31934C11.3649 8.30993 11.3528 8.30052 11.3408 8.2911C11.1913 8.17902 11.0239 8.09292 10.8458 8.0364C10.6783 7.97992 10.5073 7.93482 10.3337 7.9014C9.95851 7.82118 9.57397 7.79361 9.19116 7.8195C9.00349 7.83507 8.81748 7.86892 8.63194 7.90268L8.60931 7.9068C8.52431 7.92214 8.44002 7.94111 8.35572 7.96008C8.26194 7.98118 8.16815 8.00229 8.07336 8.0184C7.73585 8.09481 7.38387 8.07753 7.05546 7.96845C6.98309 7.93967 7.62961 11.9691 7.8453 13.3134C7.85894 13.3984 7.87086 13.4727 7.88076 13.5345C7.78491 13.5773 7.69529 13.6328 7.61436 13.6997C7.51361 13.0558 7.23747 11.2404 7.02217 9.8249C6.87494 8.85695 6.75616 8.07603 6.74136 7.98465C6.73876 7.94256 6.72871 7.90127 6.71166 7.8627C6.70773 7.85287 6.68145 7.81064 6.65018 7.76038C6.6099 7.69564 6.56132 7.61757 6.54156 7.5783C6.47045 7.44444 6.42338 7.29913 6.40251 7.149C6.37017 6.92639 6.36367 6.7008 6.38316 6.4767C6.38901 6.4245 6.43221 6.375 6.47316 6.375C6.53031 6.375 6.55371 6.41685 6.56541 6.465C6.5692 6.47946 6.57075 6.49468 6.57228 6.50978C6.57366 6.52335 6.57503 6.53683 6.57801 6.5496C6.58397 6.71736 6.61118 6.88369 6.65901 7.0446C6.86767 7.46705 7.06861 7.52466 7.12672 7.54132C7.12977 7.54219 7.13242 7.54296 7.13466 7.54365C7.19051 7.55999 7.24753 7.57202 7.30521 7.57965C7.42747 7.58134 7.5497 7.57473 7.67106 7.55985C7.89117 7.52156 8.10742 7.46374 8.31726 7.38705C8.45047 7.3381 8.58343 7.29703 8.71979 7.25491C8.76769 7.24012 8.81601 7.22519 8.86491 7.20975C8.88065 7.20478 8.89639 7.19981 8.91212 7.19483C9.0845 7.14037 9.25696 7.08587 9.43056 7.03515C9.5425 7.00234 9.65605 6.9753 9.77076 6.95415C10.1481 6.87303 10.5352 6.84651 10.9201 6.8754C11.1854 6.89941 11.4462 6.95998 11.695 7.0554C11.8696 7.11884 12.0358 7.20331 12.19 7.30695C12.3495 7.4203 12.5 7.54593 12.64 7.6827C12.766 7.8088 12.8805 7.946 12.982 8.09265C13.0759 8.23217 13.1598 8.37819 13.2331 8.5296C13.2506 8.56362 13.2702 8.60042 13.2904 8.63845C13.3387 8.7292 13.3907 8.8269 13.4275 8.9103C13.5472 9.16954 13.6969 9.4139 13.8734 9.6384C13.9162 9.70275 13.9508 9.70905 14.0062 9.6537C14.0486 9.61147 14.0907 9.56861 14.1328 9.52572C14.1697 9.48816 14.2066 9.45058 14.2438 9.4134C14.5888 9.0699 14.9338 8.727 15.2788 8.3847C15.2871 8.37733 15.2939 8.36838 15.2988 8.35836C15.3037 8.34835 15.3066 8.33747 15.3072 8.32635C15.3079 8.31522 15.3064 8.30408 15.3027 8.29355C15.2991 8.28302 15.2934 8.27332 15.286 8.265C15.274 8.24632 15.2616 8.22769 15.2491 8.20896C15.2221 8.16857 15.1949 8.12773 15.1712 8.085C15.0938 7.96429 15.0435 7.82827 15.0237 7.68627C15.0039 7.54427 15.0151 7.39967 15.0565 7.2624C15.101 7.13085 15.1841 7.01576 15.295 6.9321C15.4454 6.82222 15.6151 6.74161 15.7954 6.6945C16.3187 6.59411 16.8468 6.52022 17.3776 6.4731C17.3975 6.47107 17.4176 6.47349 17.4364 6.48018C17.4553 6.48687 17.4724 6.49767 17.4866 6.5118C17.5008 6.52592 17.5116 6.54302 17.5184 6.56186C17.5251 6.58069 17.5276 6.60079 17.5256 6.6207C17.4779 7.15153 17.4035 7.6796 17.3024 8.2029C17.2553 8.38313 17.1747 8.55288 17.0648 8.7033C16.9811 8.81414 16.866 8.89724 16.7345 8.9418C16.5973 8.983 16.4528 8.99407 16.3109 8.97426C16.169 8.95446 16.0331 8.90424 15.9124 8.82705C15.8743 8.80525 15.8375 8.78084 15.8006 8.75631C15.778 8.74135 15.7554 8.72634 15.7324 8.71185C15.724 8.70449 15.7142 8.69886 15.7037 8.69529C15.6931 8.69171 15.682 8.69026 15.6708 8.69101C15.6597 8.69176 15.6488 8.69471 15.6389 8.69968C15.6289 8.70464 15.62 8.71153 15.6127 8.71995C15.2698 9.06585 14.9267 9.41085 14.5835 9.75495C14.5461 9.79241 14.5082 9.82947 14.4703 9.86655C14.4277 9.90832 14.385 9.95012 14.3428 9.99255C14.2879 10.0479 14.2937 10.0803 14.3581 10.1253C14.5826 10.3018 14.8269 10.4514 15.0862 10.5712C15.1647 10.6059 15.2559 10.6544 15.342 10.7002C15.3857 10.7234 15.4281 10.746 15.4669 10.7656C15.6183 10.839 15.7643 10.9231 15.9038 11.0172C16.0505 11.1187 16.1877 11.2331 16.3138 11.3592C16.4506 11.4992 16.5762 11.6496 16.6895 11.8092C16.7932 11.9633 16.8777 12.1296 16.9411 12.3042C17.0364 12.5528 17.097 12.8134 17.1211 13.0787C17.15 13.4635 17.1235 13.8506 17.0423 14.228C17.0211 14.3426 16.994 14.4562 16.9613 14.5682C16.9144 14.7287 16.863 14.8919 16.8133 15.0494C16.8044 15.0778 16.7955 15.1059 16.7867 15.1338C16.7728 15.1781 16.7591 15.2225 16.7454 15.2669C16.7025 15.406 16.6596 15.545 16.6094 15.6814C16.5327 15.8913 16.4749 16.1075 16.4366 16.3277C16.4217 16.449 16.4151 16.5712 16.4168 16.6935C16.4245 16.7512 16.4365 16.8082 16.4528 16.864C16.4535 16.8663 16.4543 16.8691 16.4552 16.8722C16.472 16.9303 16.53 17.1318 16.9519 17.3397C17.1127 17.3878 17.2791 17.415 17.4469 17.4207C17.4589 17.4228 17.4712 17.4238 17.4834 17.4249Z" fill="white" fill-opacity="0.85"/>
<path d="M17.4834 17.4249C17.5003 17.4263 17.5172 17.4278 17.5337 17.4319C17.581 17.445 17.6237 17.4675 17.6278 17.5233C17.6287 17.566 17.5783 17.6093 17.5261 17.6133C17.3011 17.6336 17.0746 17.6277 16.8511 17.5958C16.701 17.5747 16.5559 17.5275 16.4222 17.4563C16.3829 17.4365 16.3049 17.3879 16.2401 17.3476C16.1899 17.3164 16.1476 17.2901 16.1378 17.2861C16.0992 17.2691 16.058 17.259 16.0159 17.2565C15.9504 17.2457 15.5274 17.1815 14.9345 17.0914C14.3576 17.0038 13.6197 16.8918 12.8938 16.7808C10.7819 16.4456 8.39106 16.059 8.22771 16.0014C8.21553 15.9954 8.20269 15.9909 8.18946 15.9879C8.14955 15.9776 8.11304 15.957 8.08359 15.9282C8.05413 15.8994 8.03276 15.8633 8.02161 15.8237C8.00766 15.7741 7.98471 15.7337 7.94826 15.7413C7.76826 15.7791 7.58826 15.8165 7.40826 15.8417C7.25615 15.8611 7.10304 15.8716 6.94971 15.8732C6.88198 15.8732 6.81493 15.8596 6.75261 15.8331C6.66396 15.7962 6.65181 15.7201 6.69681 15.6347C6.78371 15.4923 6.85007 15.3384 6.89391 15.1775C6.90219 15.1465 6.91942 15.1187 6.94343 15.0975C6.96744 15.0763 6.99718 15.0626 7.02891 15.0582C7.22776 14.9853 7.43727 14.9456 7.64901 14.9408C7.69896 14.939 7.58601 14.7761 7.35651 14.727C7.33634 14.7227 7.31775 14.7188 7.30073 14.7153C7.18489 14.6914 7.14172 14.6825 7.16526 14.637C7.26526 14.4042 7.42012 14.199 7.61661 14.0389C7.62018 14.0358 7.62349 14.0323 7.62651 14.0286C7.71484 13.9483 7.81501 13.8821 7.92351 13.8324C7.93836 13.8279 7.95816 13.8216 7.98336 13.8131C8.33033 13.7711 8.68161 13.8416 8.98551 14.0142C9.00711 14.0241 9.01116 13.9994 9.00306 13.9769C8.98033 13.9182 8.94597 13.8647 8.90205 13.8196C8.85813 13.7745 8.80554 13.7388 8.74746 13.7145C8.71281 13.6889 8.72766 13.6713 8.75781 13.6587L8.82036 13.6547C9.15515 13.6485 9.48988 13.6699 9.82116 13.7186C9.85566 13.7223 9.89054 13.7176 9.92283 13.7049C9.95512 13.6922 9.98385 13.6719 10.0066 13.6456C10.5064 13.1417 11.0074 12.6389 11.5096 12.1372C11.8783 11.7695 12.2473 11.4021 12.6166 11.0352C12.662 11.0284 12.7083 11.0315 12.7524 11.0442C12.7965 11.0569 12.8374 11.0789 12.8723 11.1088C12.9071 11.1387 12.9352 11.1757 12.9545 11.2173C12.9738 11.259 12.9839 11.3043 12.9842 11.3502C12.6086 11.7288 12.2324 12.1068 11.8556 12.4842C11.354 12.9864 10.8512 13.4874 10.3472 13.9872C10.34 13.9944 10.3334 14.0014 10.3274 14.0084L9.27576 15.1334C9.26181 15.1487 9.28071 15.1685 9.29871 15.1576C9.65431 14.9323 9.98762 14.6736 10.2941 14.385C10.3233 14.6473 10.3383 14.9109 10.3391 15.1748C10.3401 15.3995 10.3123 15.6235 10.2563 15.8412C10.2296 15.9178 10.1986 15.993 10.1636 16.0662L10.2487 16.0811C10.2565 16.0839 10.2647 16.086 10.273 16.0874C10.3192 16.0946 10.4488 16.1154 10.6394 16.146C11.9358 16.3542 16.057 17.0161 16.028 16.9424C15.9188 16.614 15.9015 16.2619 15.9781 15.9245C15.994 15.8299 16.0151 15.7362 16.0364 15.6423C16.0553 15.5582 16.0744 15.474 16.0897 15.389L16.0935 15.3679C16.1274 15.1818 16.1614 14.9949 16.1774 14.8071C16.2033 14.4243 16.1757 14.0398 16.0955 13.6645C16.0621 13.4912 16.017 13.3202 15.9605 13.1529C15.9043 12.9748 15.8183 12.8074 15.7063 12.6579C15.6973 12.6464 15.6883 12.6349 15.6793 12.6234C15.5848 12.5024 15.4896 12.3805 15.3836 12.2696C15.2869 12.1742 15.1834 12.0859 15.074 12.0054C14.9945 11.9444 14.9124 11.8899 14.83 11.8352C14.8224 11.8301 14.8148 11.8251 14.8072 11.82C14.3289 11.5935 13.8666 11.3348 13.4234 11.0456L13.4072 11.0334C13.2375 10.9224 13.0914 10.7792 12.977 10.6118C12.9737 10.6042 12.9694 10.5971 12.9644 10.5906C12.6736 10.1404 12.4113 9.67238 12.1792 9.1893C12.1202 9.09885 12.0599 9.00795 11.9933 8.9229C11.9128 8.81366 11.8245 8.71034 11.7292 8.61375C11.6191 8.50858 11.4978 8.41383 11.3769 8.31934C11.3649 8.30993 11.3528 8.30052 11.3408 8.2911C11.1913 8.17902 11.0239 8.09292 10.8458 8.0364C10.6783 7.97992 10.5073 7.93482 10.3337 7.9014C9.95851 7.82118 9.57397 7.79361 9.19116 7.8195C9.00349 7.83507 8.81748 7.86892 8.63194 7.90268L8.60931 7.9068C8.52431 7.92214 8.44002 7.94111 8.35572 7.96008C8.26194 7.98118 8.16815 8.00229 8.07336 8.0184C7.73585 8.09481 7.38387 8.07753 7.05546 7.96845C6.98309 7.93967 7.62961 11.9691 7.8453 13.3134C7.85894 13.3984 7.87086 13.4727 7.88076 13.5345C7.78491 13.5773 7.69529 13.6328 7.61436 13.6997C7.51361 13.0558 7.23747 11.2404 7.02217 9.8249C6.87494 8.85695 6.75616 8.07603 6.74136 7.98465C6.73876 7.94256 6.72871 7.90127 6.71166 7.8627C6.70773 7.85287 6.68145 7.81064 6.65018 7.76038C6.6099 7.69564 6.56132 7.61757 6.54156 7.5783C6.47045 7.44444 6.42338 7.29913 6.40251 7.149C6.37017 6.92639 6.36367 6.7008 6.38316 6.4767C6.38901 6.4245 6.43221 6.375 6.47316 6.375C6.53031 6.375 6.55371 6.41685 6.56541 6.465C6.5692 6.47946 6.57075 6.49468 6.57228 6.50978C6.57366 6.52335 6.57503 6.53683 6.57801 6.5496C6.58397 6.71736 6.61118 6.88369 6.65901 7.0446C6.86767 7.46705 7.06861 7.52466 7.12672 7.54132C7.12977 7.54219 7.13242 7.54296 7.13466 7.54365C7.19051 7.55999 7.24753 7.57202 7.30521 7.57965C7.42747 7.58134 7.5497 7.57473 7.67106 7.55985C7.89117 7.52156 8.10742 7.46374 8.31726 7.38705C8.45047 7.3381 8.58343 7.29703 8.71979 7.25491C8.76769 7.24012 8.81601 7.22519 8.86491 7.20975C8.88065 7.20478 8.89639 7.19981 8.91212 7.19483C9.0845 7.14037 9.25696 7.08587 9.43056 7.03515C9.5425 7.00234 9.65605 6.9753 9.77076 6.95415C10.1481 6.87303 10.5352 6.84651 10.9201 6.8754C11.1854 6.89941 11.4462 6.95998 11.695 7.0554C11.8696 7.11884 12.0358 7.20331 12.19 7.30695C12.3495 7.4203 12.5 7.54593 12.64 7.6827C12.766 7.8088 12.8805 7.946 12.982 8.09265C13.0759 8.23217 13.1598 8.37819 13.2331 8.5296C13.2506 8.56362 13.2702 8.60042 13.2904 8.63845C13.3387 8.7292 13.3907 8.8269 13.4275 8.9103C13.5472 9.16954 13.6969 9.4139 13.8734 9.6384C13.9162 9.70275 13.9508 9.70905 14.0062 9.6537C14.0486 9.61147 14.0907 9.56861 14.1328 9.52572C14.1697 9.48816 14.2066 9.45058 14.2438 9.4134C14.5888 9.0699 14.9338 8.727 15.2788 8.3847C15.2871 8.37733 15.2939 8.36838 15.2988 8.35836C15.3037 8.34835 15.3066 8.33747 15.3072 8.32635C15.3079 8.31522 15.3064 8.30408 15.3027 8.29355C15.2991 8.28302 15.2934 8.27332 15.286 8.265C15.274 8.24632 15.2616 8.22769 15.2491 8.20896C15.2221 8.16857 15.1949 8.12773 15.1712 8.085C15.0938 7.96429 15.0435 7.82827 15.0237 7.68627C15.0039 7.54427 15.0151 7.39967 15.0565 7.2624C15.101 7.13085 15.1841 7.01576 15.295 6.9321C15.4454 6.82222 15.6151 6.74161 15.7954 6.6945C16.3187 6.59411 16.8468 6.52022 17.3776 6.4731C17.3975 6.47107 17.4176 6.47349 17.4364 6.48018C17.4553 6.48687 17.4724 6.49767 17.4866 6.5118C17.5008 6.52592 17.5116 6.54302 17.5184 6.56186C17.5251 6.58069 17.5276 6.60079 17.5256 6.6207C17.4779 7.15153 17.4035 7.6796 17.3024 8.2029C17.2553 8.38313 17.1747 8.55288 17.0648 8.7033C16.9811 8.81414 16.866 8.89724 16.7345 8.9418C16.5973 8.983 16.4528 8.99407 16.3109 8.97426C16.169 8.95446 16.0331 8.90424 15.9124 8.82705C15.8743 8.80525 15.8375 8.78084 15.8006 8.75631C15.778 8.74135 15.7554 8.72634 15.7324 8.71185C15.724 8.70449 15.7142 8.69886 15.7037 8.69529C15.6931 8.69171 15.682 8.69026 15.6708 8.69101C15.6597 8.69176 15.6488 8.69471 15.6389 8.69968C15.6289 8.70464 15.62 8.71153 15.6127 8.71995C15.2698 9.06585 14.9267 9.41085 14.5835 9.75495C14.5461 9.79241 14.5082 9.82947 14.4703 9.86655C14.4277 9.90832 14.385 9.95012 14.3428 9.99255C14.2879 10.0479 14.2937 10.0803 14.3581 10.1253C14.5826 10.3018 14.8269 10.4514 15.0862 10.5712C15.1647 10.6059 15.2559 10.6544 15.342 10.7002C15.3857 10.7234 15.4281 10.746 15.4669 10.7656C15.6183 10.839 15.7643 10.9231 15.9038 11.0172C16.0505 11.1187 16.1877 11.2331 16.3138 11.3592C16.4506 11.4992 16.5762 11.6496 16.6895 11.8092C16.7932 11.9633 16.8777 12.1296 16.9411 12.3042C17.0364 12.5528 17.097 12.8134 17.1211 13.0787C17.15 13.4635 17.1235 13.8506 17.0423 14.228C17.0211 14.3426 16.994 14.4562 16.9613 14.5682C16.9144 14.7287 16.863 14.8919 16.8133 15.0494C16.8044 15.0778 16.7955 15.1059 16.7867 15.1338C16.7728 15.1781 16.7591 15.2225 16.7454 15.2669C16.7025 15.406 16.6596 15.545 16.6094 15.6814C16.5327 15.8913 16.4749 16.1075 16.4366 16.3277C16.4217 16.449 16.4151 16.5712 16.4168 16.6935C16.4245 16.7512 16.4365 16.8082 16.4528 16.864C16.4535 16.8663 16.4543 16.8691 16.4552 16.8722C16.472 16.9303 16.53 17.1318 16.9519 17.3397C17.1127 17.3878 17.2791 17.415 17.4469 17.4207C17.4589 17.4228 17.4712 17.4238 17.4834 17.4249Z" fill="url(#paint1_linear_930_5941)"/>
<path d="M8.12512 17.0472C8.12665 16.8938 8.13717 16.7407 8.15663 16.5886C8.17103 16.486 8.18992 16.3816 8.21062 16.2786C8.35625 16.3025 8.5405 16.3348 8.74473 16.3705C9.07001 16.4275 9.44598 16.4933 9.79732 16.5486C9.62018 16.7112 9.42059 16.8476 9.20467 16.9536C9.18936 16.9615 9.1711 16.9075 9.14976 16.8444C9.09836 16.6925 9.0291 16.4877 8.94007 16.9675C8.93696 16.9997 8.92376 17.0301 8.90234 17.0544C8.88093 17.0786 8.85239 17.0955 8.82082 17.1025C8.65986 17.1463 8.50593 17.2126 8.36362 17.2996C8.27812 17.3442 8.20207 17.3338 8.16517 17.2438C8.13871 17.1816 8.12508 17.1147 8.12512 17.0472Z" fill="white" fill-opacity="0.85"/>
<path d="M8.12512 17.0472C8.12665 16.8938 8.13717 16.7407 8.15663 16.5886C8.17103 16.486 8.18992 16.3816 8.21062 16.2786C8.35625 16.3025 8.5405 16.3348 8.74473 16.3705C9.07001 16.4275 9.44598 16.4933 9.79732 16.5486C9.62018 16.7112 9.42059 16.8476 9.20467 16.9536C9.18936 16.9615 9.1711 16.9075 9.14976 16.8444C9.09836 16.6925 9.0291 16.4877 8.94007 16.9675C8.93696 16.9997 8.92376 17.0301 8.90234 17.0544C8.88093 17.0786 8.85239 17.0955 8.82082 17.1025C8.65986 17.1463 8.50593 17.2126 8.36362 17.2996C8.27812 17.3442 8.20207 17.3338 8.16517 17.2438C8.13871 17.1816 8.12508 17.1147 8.12512 17.0472Z" fill="url(#paint2_linear_930_5941)"/>
<defs>
<linearGradient id="paint0_linear_930_5941" x1="21.0002" y1="3.28705" x2="3.15755" y2="20.8957" gradientUnits="userSpaceOnUse">
<stop stop-color="#FEC511"/>
<stop offset="1" stop-color="#FD8D5C"/>
</linearGradient>
<linearGradient id="paint1_linear_930_5941" x1="17.6278" y1="6.375" x2="7.25767" y2="16.8058" gradientUnits="userSpaceOnUse">
<stop stop-color="#FED200"/>
<stop offset="1" stop-color="#FB7F6C"/>
</linearGradient>
<linearGradient id="paint2_linear_930_5941" x1="17.6278" y1="6.375" x2="7.25767" y2="16.8058" gradientUnits="userSpaceOnUse">
<stop stop-color="#FED200"/>
<stop offset="1" stop-color="#FB7F6C"/>
</linearGradient>
</defs>
</svg>
