<svg width="24" height="24" viewBox="0 0 24 24" fill="none" xmlns="http://www.w3.org/2000/svg">
<path d="M12 24C18.6274 24 24 18.6274 24 12C24 5.37258 18.6274 0 12 0C5.37258 0 0 5.37258 0 12C0 18.6274 5.37258 24 12 24Z" fill="url(#paint0_linear_930_5943)"/>
<path d="M13.584 13.1263V13.1231C12.7071 13.1055 12.0016 12.4066 12.0016 11.5455C12.0016 12.4048 11.2987 13.1027 10.4244 13.1227V13.1263C11.2987 13.1463 12.0016 13.8442 12.0016 14.7035C12.0013 13.8428 12.7071 13.1438 13.584 13.1263Z" fill="white"/>
<path d="M13.2591 5.26801H10.8163C10.5014 5.26801 10.2129 5.44365 10.0686 5.72347L4.50602 16.5045C4.34415 16.8186 4.572 17.1928 4.92567 17.1928H7.73449C8.05242 17.1928 8.34297 17.0139 8.48592 16.7304L9.97999 13.7667C10.1831 13.3637 10.1798 12.8877 9.9709 12.4877L8.89572 10.428C8.60328 9.86794 9.01022 9.19741 9.64239 9.19815L14.4385 9.20323C15.0707 9.20397 15.4762 9.87523 15.1827 10.4345L13.9726 12.742C13.8465 12.9822 13.8442 13.2686 13.9664 13.5109L15.5895 16.7308C15.7325 17.0143 16.023 17.1933 16.341 17.1933H19.1498C19.5034 17.1933 19.7313 16.819 19.5694 16.5049L14.0069 5.72347C13.8625 5.44365 13.5738 5.26801 13.2591 5.26801Z" fill="white"/>
<defs>
<linearGradient id="paint0_linear_930_5943" x1="3.00391" y1="3" x2="20.9961" y2="21.0039" gradientUnits="userSpaceOnUse">
<stop offset="0.140625" stop-color="#1A9FD5"/>
<stop offset="0.71875" stop-color="#5643F2"/>
<stop offset="0.993058" stop-color="#2233E2"/>
</linearGradient>
</defs>
</svg>
