<svg width="24" height="24" viewBox="0 0 24 24" fill="none" xmlns="http://www.w3.org/2000/svg">
<circle cx="12" cy="12" r="12" fill="#00B786"/>
<path d="M18.0582 14.9096H17.9925C17.7772 15.1555 17.5069 15.3471 17.2034 15.4685H17.1705C16.9021 15.5885 16.6095 15.6447 16.3158 15.6329C15.8832 15.6596 15.4515 15.5687 15.0664 15.3699H14.9678C14.5977 15.1737 14.2901 14.8775 14.0801 14.5151V14.4493L13.2582 15.2712C13.2582 15.2712 13.0938 16.0932 13.0281 16.4877H13.061C13.4619 16.936 13.9536 17.2938 14.5034 17.5376C15.0532 17.7813 15.6486 17.9053 16.25 17.9014H16.3815C17.1757 17.9003 17.9565 17.6966 18.65 17.3096C19.0293 17.113 19.3827 16.87 19.7021 16.5863H19.7349L18.0582 14.9096Z" fill="white"/>
<path d="M6.68288 10.8986L7.01164 12.1151L7.0774 12.0164C7.24192 11.7583 7.45845 11.5372 7.71318 11.3674C7.96791 11.1976 8.25525 11.0827 8.55685 11.0301H8.58973C8.80444 10.9758 9.02604 10.9536 9.24726 10.9644C9.58192 10.997 9.90638 11.0977 10.2007 11.2603C10.6074 11.4825 10.9652 11.7844 11.2527 12.1479L11.3185 12.2137L12.0747 11.1288L12.3048 9.97808L12.2062 9.91233C11.7066 9.44959 11.1119 9.10174 10.4637 8.89315C10.1123 8.78009 9.7475 8.71377 9.37877 8.69589H9.34589C8.51726 8.70462 7.70381 8.91928 6.97877 9.32055L6.65 10.7671L6.68288 10.8986Z" fill="white"/>
<path d="M13.8829 14.0548V13.2986C13.8644 12.7623 14.0394 12.2372 14.376 11.8192H14.4089L14.5404 11.6548C14.7631 11.4268 15.0289 11.2454 15.3224 11.1212C15.616 10.997 15.9313 10.9325 16.25 10.9315H16.5788C17.0977 11.0183 17.5787 11.2588 17.9596 11.6219H17.9925L19.6363 9.97808H19.5705C18.7526 9.16692 17.6636 8.68683 16.513 8.63014H16.1842C15.4969 8.63417 14.8164 8.76803 14.1788 9.02466C13.7676 9.21443 13.3901 9.46982 13.061 9.78082H12.9952L12.6664 10.1425L12.4034 11.2931L11.5158 12.4767V13.3315C11.5113 13.7861 11.3796 14.2303 11.1355 14.6138C10.8915 14.9973 10.5448 15.3048 10.1349 15.5014C9.76816 15.6556 9.36952 15.7187 8.97306 15.6854C8.57659 15.6521 8.19406 15.5234 7.85813 15.3102C7.52221 15.097 7.24286 14.8057 7.04393 14.4612C6.845 14.1166 6.7324 13.729 6.71575 13.3315V12.5096L6.28836 10.8329L6.65 9.28767V6.82192L4.25 6L4.31575 11.4247V13.3644C4.31096 13.4318 4.32223 13.4994 4.34863 13.5616H4.38151C4.41533 14.2208 4.59154 14.8648 4.89801 15.4494C5.20448 16.034 5.63394 16.5452 6.15685 16.9479C7.02655 17.6092 8.08899 17.9672 9.18151 17.9671H9.37877C10.4857 17.9761 11.5549 17.5649 12.3705 16.8164L12.6993 16.4548L12.9623 15.1068L13.8829 14.0219V14.0548Z" fill="white"/>
</svg>
