<svg width="24" height="24" viewBox="0 0 24 24" fill="none" xmlns="http://www.w3.org/2000/svg">
<circle cx="12" cy="12" r="12" fill="#D9B432"/>
<path d="M16.215 5.99161C18.0282 5.99161 19.4928 7.42921 19.4928 9.21001C19.4928 9.75721 19.353 10.2708 19.1088 10.7502C18.6906 10.4424 18.2376 10.1682 17.7492 9.99721C17.8884 9.75721 17.9586 9.48361 17.9586 9.21001C17.9586 8.28541 17.1912 7.53241 16.2498 7.53241C15.3078 7.53241 14.541 8.28541 14.541 9.21001C14.541 9.48361 14.6106 9.75721 14.7504 9.99721C14.262 10.1682 13.7736 10.4082 13.3902 10.7502C13.1112 10.2708 13.0062 9.75721 13.0062 9.20941C12.9372 7.42921 14.4018 5.99161 16.215 5.99161Z" fill="white"/>
<path d="M8.22899 18.0084C6.41639 18.0084 4.95179 16.5708 4.95179 14.7906H6.52079C6.52079 15.7146 7.28819 16.4682 8.22959 16.4682C9.17099 16.4682 9.93839 15.7146 9.93839 14.7906H11.5074C11.5074 16.5708 10.0422 18.0084 8.22899 18.0084Z" fill="white"/>
<path fill-rule="evenodd" clip-rule="evenodd" d="M8.22899 13.4892C6.13739 13.4892 4.42859 11.8116 4.42859 9.75721C4.42859 7.70341 6.13739 5.99161 8.22959 5.99161C10.3218 5.99161 12.0654 7.66921 12.0654 9.75721C12.0306 11.8116 10.3212 13.4892 8.22899 13.4892ZM8.19479 11.9832C9.44989 11.9832 10.4608 10.9904 10.461 9.75751C10.4608 8.52464 9.48468 7.53181 8.19479 7.53181C6.93899 7.53181 5.92799 8.52481 5.92799 9.75721C5.92799 10.9902 6.93899 11.9832 8.19479 11.9832Z" fill="white"/>
<path fill-rule="evenodd" clip-rule="evenodd" d="M16.215 18.0084C14.1228 18.0084 12.3792 16.3308 12.3792 14.2764C12.3792 12.1884 14.088 10.5108 16.215 10.5108C18.3072 10.5108 20.016 12.1884 20.016 14.277C20.016 16.3308 18.3072 18.0084 16.215 18.0084ZM16.215 16.4334C17.4702 16.4334 18.4812 15.4752 18.4812 14.2428C18.4812 13.044 17.4702 12.0516 16.215 12.0168C14.9598 12.0168 13.9482 13.0098 13.9482 14.2428C13.9482 15.441 14.9598 16.4334 16.215 16.4334Z" fill="white"/>
</svg>
