<svg width="24" height="24" viewBox="0 0 24 24" fill="none" xmlns="http://www.w3.org/2000/svg">
<circle cx="12" cy="12" r="12" fill="#172852"/>
<path d="M10.3316 16.3337C10.7816 17.9987 12.3962 19.2686 13.2116 19.2162C13.2402 19.2144 16.3043 18.6431 17.9816 15.8412C19.2866 13.6603 18.8425 11.5547 17.0672 11.5088C16.4285 11.5554 9.4746 13.1621 10.3321 16.3342L10.3316 16.3337ZM16.9016 5.64039L16.8998 5.63904L16.9023 5.63746C15.7841 4.68634 14.4199 4.07048 12.9669 3.86085C11.5139 3.65123 10.0313 3.85636 8.6898 4.45261C8.52104 4.52329 8.35664 4.60398 8.1975 4.69426C8.08815 4.75254 7.9788 4.81036 7.8726 4.87426L7.89848 4.88214C7.58447 5.09597 7.30681 5.35881 7.0761 5.66064C4.8387 8.61444 12.3344 10.7625 16.3425 10.769C18.1855 12.0925 18.703 7.04281 16.9016 5.64039Z" fill="#0E3CA5"/>
<path d="M9.14252 5.7C8.1127 7.248 4.68257 8.33857 4.1185 8.16892L4.11467 8.16172C4.13792 8.11492 4.1614 8.0685 4.1851 8.02245C4.77004 6.89579 5.60698 5.91925 6.63085 5.16878C6.8419 5.01398 7.06037 4.8693 7.28627 4.73475C7.63385 4.54277 8.02325 4.43908 8.42027 4.4328C9.9478 4.4625 9.15017 5.68807 9.14252 5.7ZM8.29742 16.6381C8.37145 17.1244 8.29562 19.0456 8.19617 19.207C8.11045 19.2124 7.93202 19.2232 7.4152 18.9331C7.14422 18.7787 6.88233 18.6087 6.63085 18.4242C5.2551 17.418 4.22636 16.0089 3.68717 14.392C3.54998 13.9797 3.44592 13.5572 3.376 13.1284C3.23258 12.2461 3.23258 11.3464 3.376 10.4641C3.44595 10.0353 3.55 9.6128 3.68717 9.20055C3.71462 9.1182 3.74342 9.03607 3.77335 8.95485C4.36532 9.74235 5.05045 10.4545 5.63275 11.2498C6.18737 12.0072 6.95035 13.2415 7.1056 13.5052C8.0695 15.1428 8.22317 16.153 8.29675 16.6386L8.29742 16.6381ZM19.6925 11.7961C19.6938 12.8286 19.4998 13.8521 19.1208 14.8125C18.1533 15.8522 11.6321 13.2931 11.5682 13.2652C10.6761 12.8743 7.96127 11.685 7.71625 9.8175C7.36502 7.12897 12.8168 5.25608 15.213 5.18498C15.5003 5.18835 16.3747 5.1987 16.8845 5.61248C17.7675 6.38245 18.475 7.33285 18.9594 8.39954C19.4438 9.46623 19.6938 10.6244 19.6925 11.7959V11.7961ZM15.2778 19.0801C14.5668 19.4117 13.7843 19.1701 13.9877 18.4777C14.378 17.1484 17.787 15.7854 18.5399 15.7102C18.6328 15.7012 18.6722 15.7645 18.631 15.8367C17.8465 17.2158 16.683 18.341 15.2785 19.0789" fill="#5493F7"/>
<path d="M6.90085 20.3824C6.89069 20.5325 6.93989 20.6806 7.03787 20.7948C7.13584 20.9089 7.27474 20.9801 7.42465 20.9928C14.3321 21.0403 21 20.7228 21 19.6878C21 16.5549 6.90085 20.3824 6.90085 20.3824Z" fill="url(#paint0_linear_927_5120)"/>
<path d="M16.8422 18.5068L18.0797 19.7443C19.8167 19.4614 20.8922 19.3393 20.8922 19.7173C20.8922 20.6724 14.3287 20.9998 7.428 20.9534C7.40965 20.9534 7.39132 20.9523 7.3731 20.9503C7.28286 20.9382 7.19724 20.9031 7.12449 20.8484C7.05174 20.7937 6.99432 20.7211 6.95775 20.6377V20.6362C6.9455 20.6094 6.93512 20.5818 6.9267 20.5536C6.93502 20.5818 6.9454 20.6094 6.95775 20.6362V20.6377C6.99816 20.7291 7.06382 20.807 7.14701 20.8623C7.2302 20.9176 7.32745 20.9479 7.42732 20.9498C8.28727 20.9444 9.14227 20.9068 9.97972 20.8465L8.99287 19.8599C7.734 20.1567 6.90037 20.3826 6.90037 20.3826C6.89012 20.5332 6.93966 20.6817 7.03822 20.796C7.13679 20.9102 7.27644 20.981 7.42687 20.993C14.3323 21.0457 20.9912 20.8288 20.9995 19.688C21 18.5617 19.1775 18.3349 16.8422 18.5068Z" fill="url(#paint1_linear_927_5120)"/>
<path d="M18.0797 19.744L16.8422 18.5065C14.2604 18.6964 11.0539 19.3732 8.99243 19.8595L9.97928 20.8461C13.1426 20.6193 16.059 20.0732 18.0797 19.744Z" fill="url(#paint2_linear_927_5120)"/>
<path d="M7.42799 11.5104C7.35876 11.5104 7.29019 11.524 7.22622 11.5505C7.16224 11.577 7.10412 11.6158 7.05516 11.6647C7.0062 11.7137 6.96737 11.7718 6.94089 11.8358C6.9144 11.8998 6.90079 11.9683 6.90082 12.0376V20.3824C6.9007 20.5217 6.95572 20.6554 7.05387 20.7543C7.15202 20.8531 7.28531 20.9091 7.42462 20.91C14.3319 20.8585 21.0085 18.5723 21 19.6883V10.29C21.0085 9.17266 14.3341 11.4587 7.42799 11.5104Z" fill="url(#paint3_linear_927_5120)"/>
<path d="M9.93359 11.4017V20.8006C13.0478 20.5642 15.9449 19.9994 17.9933 19.6579V10.2585C15.9449 10.6 13.0478 11.165 9.93359 11.4017ZM16.7587 16.07C16.6267 16.2007 16.4946 16.3308 16.3513 16.4716C16.2079 16.6125 16.0538 16.7641 15.8788 16.9378C15.8443 16.9694 15.8187 17.0094 15.8047 17.054C15.7907 17.0986 15.7887 17.146 15.7989 17.1916L15.953 17.6716C15.7505 17.683 15.5566 17.6893 15.3637 17.6941C15.1709 17.6988 14.9799 17.6986 14.7864 17.701C14.5929 17.7035 14.3967 17.708 14.194 17.717C14.1402 17.7195 14.059 17.8246 14.059 17.8869L14.0749 18.5293L14.0889 19.0895L14.1053 19.7317L13.8103 19.7767L13.8382 19.1264C13.8463 18.9327 13.8547 18.7529 13.863 18.5592L13.8909 17.9089C13.8909 17.8471 13.8009 17.7715 13.748 17.7854C13.5455 17.8369 13.3502 17.8905 13.1565 17.9445C12.9628 17.9985 12.7711 18.0525 12.5773 18.1054C12.3836 18.1582 12.1883 18.2093 11.9856 18.2559L12.1404 17.7312C12.1526 17.6891 12.1515 17.6443 12.137 17.603C12.1226 17.5616 12.0956 17.5258 12.0598 17.5006C11.8245 17.3377 11.6283 17.1993 11.4447 17.0701C11.2611 16.941 11.0905 16.8197 10.9069 16.6876C10.7233 16.5556 10.5267 16.4158 10.2911 16.2448C10.4376 16.1636 10.5107 16.1224 10.6574 16.0408C10.8185 15.9681 10.7735 15.8819 10.7159 15.6697C10.6707 15.5109 10.6257 15.352 10.5809 15.193L10.4459 14.716C10.6513 14.7403 10.8059 14.7589 10.9598 14.776C11.1137 14.7931 11.2687 14.8105 11.4744 14.8321C11.5149 14.8346 11.5551 14.8233 11.5882 14.7999C11.6214 14.7766 11.6456 14.7426 11.6569 14.7036L11.7889 14.2284C11.9512 14.3917 12.0727 14.5137 12.1939 14.6352C12.3152 14.7567 12.4372 14.8775 12.5989 15.0386C12.7148 15.1691 12.9493 15.1387 12.8764 14.8136C12.8298 14.5747 12.7911 14.3753 12.7553 14.1897C12.7195 14.0041 12.6856 13.831 12.6496 13.645L12.5285 13.0204C12.715 13.093 12.8086 13.129 12.9954 13.2004C13.0229 13.2179 13.0537 13.2295 13.086 13.2344C13.1182 13.2394 13.1511 13.2376 13.1826 13.2291C13.2141 13.2206 13.2435 13.2057 13.2689 13.1853C13.2943 13.1648 13.3152 13.1393 13.3302 13.1104C13.4589 12.853 13.5552 12.6604 13.651 12.4666C13.7469 12.2729 13.8427 12.0796 13.9694 11.8207L14.6129 12.9173C14.6858 13.0359 14.817 13.0037 14.9475 12.9101C15.1338 12.7846 15.2269 12.7211 15.4119 12.5951C15.3669 12.8478 15.3273 13.0582 15.2915 13.2546L15.1862 13.8297C15.15 14.0263 15.1117 14.2369 15.0656 14.4887C14.9927 14.8359 15.2263 14.7988 15.3412 14.6345C15.503 14.4266 15.6229 14.2698 15.744 14.1127C15.865 13.9557 15.9868 13.7993 16.149 13.5898L16.2806 14.0279C16.2866 14.0456 16.2962 14.0619 16.3089 14.0757C16.3215 14.0894 16.337 14.1003 16.3542 14.1076C16.3714 14.115 16.3899 14.1186 16.4086 14.1182C16.4273 14.1178 16.4457 14.1135 16.4626 14.1055C16.6674 14.0272 16.8211 13.9687 16.9745 13.9096C17.128 13.8504 17.2814 13.7914 17.4853 13.7122C17.4317 13.9172 17.3914 14.0722 17.3503 14.225C17.3091 14.3778 17.2699 14.5328 17.2164 14.738C17.159 14.9653 17.1138 15.0638 17.274 15.0931C17.4198 15.1363 17.4925 15.157 17.638 15.2002L17.1655 15.6686C17.0233 15.8097 16.891 15.94 16.7587 16.07Z" fill="url(#paint4_linear_927_5120)"/>
<defs>
<linearGradient id="paint0_linear_927_5120" x1="6.90085" y1="19.7263" x2="21" y2="19.7263" gradientUnits="userSpaceOnUse">
<stop stop-color="#700000"/>
<stop offset="0.327" stop-color="#730000"/>
<stop offset="0.59" stop-color="#7D0000"/>
<stop offset="0.83" stop-color="#8E0000"/>
<stop offset="1" stop-color="#9F0000"/>
</linearGradient>
<linearGradient id="paint1_linear_927_5120" x1="13.9505" y1="18.4552" x2="13.9505" y2="21" gradientUnits="userSpaceOnUse">
<stop offset="0.35" stop-color="#CF2000"/>
<stop offset="0.645" stop-color="#CD1F00"/>
<stop offset="0.752" stop-color="#C61D00"/>
<stop offset="0.828" stop-color="#BB1900"/>
<stop offset="0.889" stop-color="#AA1300"/>
<stop offset="0.941" stop-color="#940C00"/>
<stop offset="0.987" stop-color="#790300"/>
<stop offset="1" stop-color="#700000"/>
</linearGradient>
<linearGradient id="paint2_linear_927_5120" x1="13.5361" y1="18.4552" x2="13.5361" y2="21" gradientUnits="userSpaceOnUse">
<stop offset="0.35" stop-color="#DFDFDF"/>
<stop offset="0.645" stop-color="#DDDDDD"/>
<stop offset="0.752" stop-color="#D6D6D6"/>
<stop offset="0.828" stop-color="#CBCBCB"/>
<stop offset="0.889" stop-color="#BABABA"/>
<stop offset="0.941" stop-color="#A4A4A4"/>
<stop offset="0.987" stop-color="#898989"/>
<stop offset="1" stop-color="#808080"/>
</linearGradient>
<linearGradient id="paint3_linear_927_5120" x1="6.90082" y1="15.4459" x2="21" y2="15.4459" gradientUnits="userSpaceOnUse">
<stop stop-color="#CF2000"/>
<stop offset="0.021" stop-color="#D12201"/>
<stop offset="0.244" stop-color="#E23309"/>
<stop offset="0.487" stop-color="#EC3D0E"/>
<stop offset="0.791" stop-color="#EF4010"/>
<stop offset="0.841" stop-color="#EC3D0F"/>
<stop offset="0.882" stop-color="#E2330D"/>
<stop offset="0.919" stop-color="#D12208"/>
<stop offset="0.954" stop-color="#B90A03"/>
<stop offset="0.966" stop-color="#AF0000"/>
<stop offset="1" stop-color="#EF4010"/>
</linearGradient>
<linearGradient id="paint4_linear_927_5120" x1="6.90082" y1="15.5296" x2="21" y2="15.5296" gradientUnits="userSpaceOnUse">
<stop stop-color="#DFDFDF"/>
<stop offset="0.021" stop-color="#E1E1E1"/>
<stop offset="0.244" stop-color="#F2F2F2"/>
<stop offset="0.487" stop-color="#FCFCFC"/>
<stop offset="0.791" stop-color="white"/>
<stop offset="0.841" stop-color="#FCFCFC"/>
<stop offset="0.882" stop-color="#F2F2F2"/>
<stop offset="0.919" stop-color="#E1E1E1"/>
<stop offset="0.954" stop-color="#C9C9C9"/>
<stop offset="0.966" stop-color="#BFBFBF"/>
<stop offset="1" stop-color="white"/>
</linearGradient>
</defs>
</svg>
