<svg width="24" height="24" viewBox="0 0 24 24" fill="none" xmlns="http://www.w3.org/2000/svg">
<circle cx="12" cy="12" r="12" fill="#EDF0F2"/>
<path d="M19.6189 21.2616C17.7896 22.7715 15.5474 23.6999 13.1833 23.925C10.0218 24.2344 6.86035 23.2779 4.39306 21.2616C1.93516 19.2454 0.377861 16.3382 0.0588964 13.1685C-0.175636 10.8053 0.293429 8.43266 1.40981 6.34138C2.52618 4.25011 4.24296 2.53395 6.33499 1.41798C8.42702 0.302005 10.8005 -0.176269 13.1646 0.058179C15.5287 0.292627 17.7614 1.21166 19.6002 2.72151L17.1798 5.67555C15.9321 4.65336 14.4029 4.01566 12.7893 3.86561C11.1757 3.70619 9.56216 4.03442 8.1362 4.79403C6.71025 5.55364 5.54696 6.72588 4.7777 8.15132C4.01781 9.57676 3.69884 11.1991 3.85833 12.8028C4.0741 14.9597 5.13419 16.9478 6.81344 18.317C8.49269 19.6955 10.6504 20.3426 12.8081 20.1269C14.4217 19.9675 15.9415 19.3298 17.1892 18.3076L19.6189 21.2616Z" fill="url(#paint0_linear_324_2538)"/>
<path d="M12.0048 22C17.529 22 22 17.5194 22 12.0048C22 6.48061 17.529 2 12.0048 2C6.48061 2 2 6.48061 2 12.0048C2 17.529 6.48061 22 12.0048 22Z" fill="white"/>
<path d="M12.1045 13.8531L15.2097 12.0525L11.5228 10.1582L12.1045 13.8531Z" fill="#AAB8C1"/>
<path d="M9.00867 12.0619L12.1139 13.8625V10.5427L9.00867 12.0619Z" fill="#AAB8C1"/>
<path d="M12.1045 7.00723L8.99927 12.0619L13.0614 10.252L12.1045 7.00723Z" fill="#283947"/>
<path d="M12.1045 7.0072V10.674L15.2097 12.0619L12.1045 7.0072Z" fill="#657786"/>
<path d="M12.1045 16.9291L12.5079 14.6596L9.00867 12.634L12.1045 16.9291Z" fill="#283947"/>
<path d="M12.1045 14.4345V16.9291L15.2097 12.634L12.1045 14.4345Z" fill="#657786"/>
<defs>
<linearGradient id="paint0_linear_324_2538" x1="8.62346" y1="1.32846" x2="12.3822" y2="22.1754" gradientUnits="userSpaceOnUse">
<stop stop-color="#27D3A2"/>
<stop offset="1" stop-color="#9388FD"/>
</linearGradient>
</defs>
</svg>
