<svg width="24" height="24" viewBox="0 0 24 24" fill="none" xmlns="http://www.w3.org/2000/svg">
<g clip-path="url(#clip0_2072_26047)">
<path d="M12 24C18.6274 24 24 18.6274 24 12C24 5.37259 18.6274 0 12 0C5.37259 0 0 5.37259 0 12C0 18.6274 5.37259 24 12 24Z" fill="black"/>
<path d="M12.0057 24C18.6348 24 24 18.6233 24 12.0057C24 5.37674 18.6348 0 12.0057 0C5.37674 0 0 5.37674 0 12.0057C0 18.6348 5.37674 24 12.0057 24Z" fill="#1A1A1A"/>
<path d="M19.6336 21.2775C17.8029 22.7885 15.559 23.7176 13.1932 23.9428C10.0293 24.2525 6.86547 23.2953 4.39634 21.2775C1.9366 19.2598 0.378143 16.3504 0.0589404 13.1783C-0.175767 10.8133 0.293648 8.43895 1.41086 6.34612C2.52807 4.25328 4.24613 2.53584 6.33972 1.41904C8.43332 0.30223 10.8086 -0.176401 13.1744 0.0582224C15.5403 0.292845 17.7747 1.21257 19.6148 2.72354L17.1926 5.67979C15.944 4.65683 14.4137 4.01866 12.7989 3.8685C11.1841 3.70896 9.5693 4.03743 8.14228 4.79761C6.71526 5.55778 5.5511 6.7309 4.78126 8.15741C4.02081 9.58391 3.70161 11.2075 3.86121 12.8123C4.07714 14.9709 5.13802 16.9605 6.81853 18.3307C8.49903 19.7102 10.6583 20.3578 12.8177 20.1419C14.4324 19.9824 15.9534 19.3442 17.202 18.3213L19.6336 21.2775Z" fill="url(#paint0_linear_2072_26047)"/>
<path d="M12.0048 22C17.529 22 22 17.5194 22 12.0048C22 6.48061 17.529 2 12.0048 2C6.48061 2 2 6.48061 2 12.0048C2 17.529 6.48061 22 12.0048 22Z" fill="black"/>
<path d="M5.7637 15.1745L5.65478 14.9668H7.48763L7.5323 15.0308C8.11548 15.8828 8.9301 16.5503 9.88012 16.9546C10.8301 17.3588 11.876 17.483 12.8942 17.3125C15.6435 16.8446 17.5871 14.3395 17.3681 11.5665L14.0941 11.5607L15.0492 14.2638L13.8802 15.8716L11.781 9.91976L18.6881 9.93143L18.7147 10.0344C18.7948 10.2973 18.8574 10.5652 18.9019 10.8363C18.9682 11.2224 19.0006 11.6136 18.999 12.0054C18.999 15.3532 16.583 18.3262 13.169 18.9029C12.7767 18.9654 12.3801 18.9979 11.9829 19C10.6936 19.0013 9.42925 18.6443 8.33106 17.9688C7.23287 17.2933 6.34401 16.3259 5.7637 15.1745ZM6.93864 14.0559H5.30189L5.27267 13.953C5.1984 13.6935 5.14074 13.4296 5.10005 13.1628C4.45494 9.36048 7.02639 5.74279 10.8303 5.10192C12.2979 4.84823 13.8082 5.07106 15.1399 5.73778C16.4717 6.40451 17.555 7.4801 18.2312 8.80705L18.3403 9.01487H16.4965L16.4492 8.95076C15.8672 8.09999 15.0539 7.4336 14.1052 7.03031C13.1566 6.62703 12.1124 6.5037 11.0959 6.67491C8.34648 7.14286 6.39684 9.6479 6.61585 12.4151L9.90189 12.4209L8.94424 9.71779L10.121 8.10997L12.215 14.0619L6.93864 14.0559Z" fill="url(#paint1_linear_2072_26047)"/>
</g>
<defs>
<linearGradient id="paint0_linear_2072_26047" x1="9.8168" y1="0" x2="9.8168" y2="24" gradientUnits="userSpaceOnUse">
<stop stop-color="#27D3A2"/>
<stop offset="0.507885" stop-color="#03D1CF"/>
<stop offset="1" stop-color="#4E09F8"/>
</linearGradient>
<linearGradient id="paint1_linear_2072_26047" x1="16.5494" y1="6.47" x2="7.93916" y2="16.8429" gradientUnits="userSpaceOnUse">
<stop stop-color="#03D1CF"/>
<stop offset="1" stop-color="#4E09F8"/>
</linearGradient>
<clipPath id="clip0_2072_26047">
<rect width="24" height="24" fill="white"/>
</clipPath>
</defs>
</svg>
