<svg width="24" height="24" viewBox="0 0 24 24" fill="none" xmlns="http://www.w3.org/2000/svg">
<circle cx="12" cy="12" r="12" fill="#063C4F"/>
<path d="M7.59998 14.7539V6.23938H8.95099L9.96929 7.23938V11.8572H14.1117V13.7539L13.4974 14.7539H7.59998Z" fill="url(#paint0_linear_3296_7807)"/>
<path d="M9.97753 11.8467L8.66626 12.8467L13.4961 12.8466V12.6302L14.117 11.8467L9.97753 11.8467Z" fill="url(#paint1_linear_3296_7807)"/>
<path d="M6.59998 14.7592V6.23938H8.96929V12.626H13.4977V14.7592H6.59998Z" fill="url(#paint2_linear_3296_7807)"/>
<path opacity="0.6" d="M8.05151 13.5277V6.26282H8.96195L8.96194 12.63H12.5103L12.5103 13.5277H8.05151Z" fill="url(#paint3_radial_3296_7807)" fill-opacity="0.7"/>
<path fill-rule="evenodd" clip-rule="evenodd" d="M12.5103 16.767V10.2628C12.5103 9.15827 13.4058 8.26285 14.5103 8.26283L15.7372 8.26282C17.5251 8.26282 19.0477 9.46162 19.0477 11.3541C19.0477 13.787 17.0361 14.3658 15.2165 14.3658V12.5651H14.7276L15.654 11.5146H16.3833C16.4592 11.3347 16.5042 11.1246 16.5042 10.8792C16.5042 9.6327 15.4256 9.15963 14.5154 9.15963V16.767H12.5103ZM13.883 17.7606L14.5094 16.7684H13.883V17.7606Z" fill="url(#paint4_linear_3296_7807)"/>
<path d="M11.5103 17.7606L11.5103 10.2676C11.5103 9.16301 12.4058 8.26758 13.5103 8.26758H15.2774C15.9251 8.26758 16.4919 8.39542 16.9777 8.6511C17.4635 8.90678 17.8413 9.26616 18.1112 9.72923C18.3811 10.1923 18.516 10.7335 18.516 11.3528C18.516 11.9778 18.3768 12.519 18.0984 12.9764C17.8229 13.4338 17.4351 13.786 16.9351 14.0332C16.4379 14.2804 15.8569 14.4039 15.1922 14.4039H14.7149V12.563C15.5618 12.563 16.0444 12.0867 16.0444 11.3528C16.0444 10.6189 15.6584 10.1596 14.8116 10.1596C14.2969 10.1596 13.8797 10.5768 13.8797 11.0915L13.8797 17.7606H11.5103Z" fill="url(#paint5_linear_3296_7807)"/>
<path d="M18.5438 11.335C18.5438 13.029 17.1799 14.4023 15.4975 14.4023C15.1767 14.4023 14.7209 14.4241 14.7209 14.4241V13.8682C14.7209 13.8682 14.7953 13.868 14.8334 13.868C16.1343 13.868 17.1888 12.812 17.1888 11.5095C17.1888 10.207 16.1343 9.15106 14.8334 9.15106C14.3172 9.15106 11.8763 9.15106 11.8763 9.15106C12.2427 8.59926 12.8609 8.26758 13.5233 8.26758C14.2622 8.26758 15.1717 8.26758 15.4975 8.26758C17.1799 8.26758 18.5438 9.64089 18.5438 11.335Z" fill="url(#paint6_radial_3296_7807)" fill-opacity="0.6"/>
<defs>
<linearGradient id="paint0_linear_3296_7807" x1="12.4702" y1="7.38079" x2="14.2636" y2="14.2585" gradientUnits="userSpaceOnUse">
<stop stop-color="#1F7494"/>
<stop offset="0.382768" stop-color="#0E6585"/>
<stop offset="0.901042" stop-color="#071F28"/>
</linearGradient>
<linearGradient id="paint1_linear_3296_7807" x1="9.37536" y1="11.8467" x2="13.8057" y2="14.2383" gradientUnits="userSpaceOnUse">
<stop stop-color="#1F7494"/>
<stop offset="0.382768" stop-color="#0E6585"/>
<stop offset="0.901042" stop-color="#071F28"/>
</linearGradient>
<linearGradient id="paint2_linear_3296_7807" x1="7.59998" y1="15.795" x2="14.3173" y2="12.0594" gradientUnits="userSpaceOnUse">
<stop offset="0.104167" stop-color="#3A78B1"/>
<stop offset="0.520341" stop-color="#4FC1C0"/>
<stop offset="1" stop-color="#8CF2FD"/>
</linearGradient>
<radialGradient id="paint3_radial_3296_7807" cx="0" cy="0" r="1" gradientUnits="userSpaceOnUse" gradientTransform="translate(19.8262 3.06765) rotate(139.49) scale(19.9477 79.3583)">
<stop stop-color="white"/>
<stop offset="0.312622" stop-color="white"/>
<stop offset="1" stop-color="white" stop-opacity="0"/>
</radialGradient>
<linearGradient id="paint4_linear_3296_7807" x1="16.6918" y1="8.26282" x2="18.7887" y2="17.2998" gradientUnits="userSpaceOnUse">
<stop stop-color="#1F7494"/>
<stop offset="0.382768" stop-color="#0E6585"/>
<stop offset="0.901042" stop-color="#071F28"/>
</linearGradient>
<linearGradient id="paint5_linear_3296_7807" x1="10.171" y1="19.404" x2="21.7078" y2="13.473" gradientUnits="userSpaceOnUse">
<stop offset="0.104167" stop-color="#3A78B1"/>
<stop offset="0.520341" stop-color="#4FC1C0"/>
<stop offset="1" stop-color="#8CF2FD"/>
</linearGradient>
<radialGradient id="paint6_radial_3296_7807" cx="0" cy="0" r="1" gradientUnits="userSpaceOnUse" gradientTransform="translate(18.6959 6.29635) rotate(129.023) scale(8.88222 8.70219)">
<stop offset="0.216485" stop-color="white" stop-opacity="0.7"/>
<stop offset="0.891347" stop-color="white" stop-opacity="0"/>
<stop offset="1" stop-color="white" stop-opacity="0"/>
</radialGradient>
</defs>
</svg>
