<svg width="24" height="24" viewBox="0 0 24 24" fill="none" xmlns="http://www.w3.org/2000/svg">
<circle cx="12" cy="12" r="12" fill="#0D4064"/>
<path d="M16.5229 7.04431C16.4562 7.04431 16.4198 7.04431 16.3855 7.04431C14.3595 7.04431 12.3336 7.04431 10.3056 7.04229C10.2025 7.04229 10.1721 7.06858 10.1762 7.17169C10.1843 7.40017 10.1762 7.62864 10.1802 7.85914C10.1823 7.93395 10.156 7.95821 10.0812 7.95619C9.73541 7.95214 9.38764 7.95214 9.0419 7.95619C8.96304 7.95619 8.94687 7.92788 8.94687 7.85509C8.94889 7.36984 8.94687 6.88661 8.94889 6.40135C8.95091 6.07785 9.22387 5.80692 9.54939 5.80692C12.4165 5.80692 15.2855 5.80692 18.1526 5.80692C18.3972 5.80692 18.6318 5.97271 18.7187 6.20321C18.8057 6.42966 18.743 6.7107 18.5671 6.87043C17.7967 7.56596 17.0244 8.25947 16.254 8.95298C16.0862 9.10462 15.9204 9.26031 15.7506 9.40993C15.6212 9.52113 15.4695 9.57168 15.2977 9.57168C12.7117 9.56966 10.1277 9.57168 7.54164 9.57168C7.50727 9.57168 7.47492 9.5737 7.44055 9.57168C7.39202 9.56966 7.37382 9.5919 7.37585 9.6384C7.37787 9.65862 7.37585 9.67884 7.37585 9.69906C7.37585 12.0586 7.37585 14.4182 7.37585 16.7777C7.37585 16.9071 7.37585 16.9091 7.50727 16.9091C10.0043 16.9091 12.5034 16.9091 15.0004 16.9091C15.051 16.9091 15.0975 16.9091 15.14 16.8707C15.5767 16.4764 16.0134 16.0822 16.4522 15.6899C16.4663 15.6778 16.4845 15.6677 16.5088 15.6535C16.4502 15.6232 16.4057 15.6333 16.3632 15.6333C14.1209 15.6333 11.8786 15.6333 9.63836 15.6333C9.39977 15.6333 9.19354 15.5646 9.05403 15.3604C8.98933 15.2653 8.94889 15.1602 8.94889 15.0409C8.95091 13.3749 8.95091 11.7088 8.94687 10.0428C8.94687 9.96393 8.97517 9.94775 9.04594 9.94978C9.38158 9.9518 9.71923 9.95382 10.0549 9.94978C10.1519 9.94775 10.1802 9.97404 10.1802 10.0731C10.1762 11.444 10.1782 12.8128 10.1782 14.1836C10.1782 14.4242 10.1459 14.3919 10.3865 14.3919C12.9523 14.3919 15.516 14.3919 18.0818 14.3919C18.3447 14.3919 18.5529 14.4829 18.6823 14.7194C18.8178 14.9661 18.7673 15.2754 18.559 15.4655C18.0192 15.9548 17.4753 16.4421 16.9334 16.9294C16.5411 17.2832 16.1489 17.637 15.7566 17.9888C15.6475 18.0879 15.5201 18.1546 15.3664 18.1506C15.3401 18.1506 15.3118 18.1506 15.2855 18.1506C12.4549 18.1506 9.6242 18.1506 6.79354 18.1526C6.52665 18.1526 6.3285 18.0475 6.20314 17.8129C6.15259 17.7159 6.13238 17.6087 6.13238 17.5015C6.13035 14.6669 6.13035 11.8322 6.13238 8.99949C6.13238 8.60117 6.41746 8.33833 6.79556 8.34035C9.51907 8.34641 12.2426 8.34237 14.9661 8.34439C15.053 8.34439 15.1177 8.32013 15.1824 8.26149C15.6192 7.85509 16.0579 7.46082 16.5229 7.04431Z" fill="#EB1B48"/>
</svg>
