<svg width="24" height="24" viewBox="0 0 24 24" fill="none" xmlns="http://www.w3.org/2000/svg">
<circle cx="12.0002" cy="12" r="12" fill="#172852"/>
<path d="M10.3318 16.3337C10.7818 17.9987 12.3964 19.2686 13.2118 19.2162C13.2404 19.2144 16.3044 18.6431 17.9818 15.8412C19.2868 13.6603 18.8427 11.5547 17.0674 11.5088C16.4286 11.5554 9.47478 13.1621 10.3323 16.3342L10.3318 16.3337ZM16.9018 5.64039L16.9 5.63881L16.9025 5.63746C15.7843 4.68634 14.4201 4.07048 12.9671 3.86085C11.5141 3.65123 10.0315 3.85636 8.68998 4.45261C8.52118 4.5232 8.35678 4.60389 8.19768 4.69426C8.08833 4.75254 7.97898 4.81036 7.87278 4.87426L7.89866 4.88214C7.58465 5.09597 7.30699 5.35881 7.07628 5.66064C4.83888 8.61444 12.3345 10.7625 16.3427 10.7688C18.1857 12.0925 18.7032 7.04281 16.9018 5.64039Z" fill="#0E3CA5"/>
<path d="M9.14269 5.7C8.11286 7.248 4.68274 8.33857 4.11866 8.16892L4.11484 8.1615C4.13809 8.11485 4.16156 8.0685 4.18526 8.02245C4.77021 6.89579 5.60715 5.91925 6.63101 5.16878C6.84206 5.01398 7.06054 4.8693 7.28644 4.73475C7.63401 4.54277 8.02342 4.43908 8.42044 4.4328C9.94796 4.4625 9.15034 5.68807 9.14269 5.7ZM8.29759 16.6379C8.37161 17.1244 8.29579 19.0454 8.19634 19.207C8.11061 19.2124 7.93219 19.2232 7.41536 18.9331C6.35154 18.3283 5.43661 17.493 4.73767 16.4886C4.03873 15.4841 3.57352 14.3359 3.37616 13.1281C3.23275 12.2459 3.23275 11.3462 3.37616 10.4639C3.44609 10.0351 3.55015 9.61257 3.68734 9.20032C3.71479 9.11797 3.74359 9.03585 3.77351 8.95462C4.36549 9.74212 5.05061 10.4542 5.63291 11.2496C6.18754 12.007 6.95051 13.2413 7.10576 13.505C8.06966 15.1426 8.22334 16.1528 8.29691 16.6381L8.29759 16.6379ZM19.6927 11.7961C19.694 12.8286 19.5 13.8521 19.121 14.8125C18.1535 15.8522 11.6323 13.2931 11.5684 13.2652C10.6763 12.8743 7.96144 11.685 7.71641 9.8175C7.36519 7.12897 12.8169 5.25608 15.2132 5.18498C15.5005 5.18835 16.3749 5.19848 16.8847 5.61248C17.7677 6.38245 18.4752 7.33285 18.9596 8.39954C19.444 9.46623 19.694 10.6244 19.6927 11.7959V11.7961ZM15.278 19.0801C14.567 19.4117 13.7844 19.1701 13.9878 18.4777C14.3782 17.1484 17.7872 15.7854 18.54 15.7102C18.633 15.7012 18.6723 15.7645 18.6312 15.8365C17.8468 17.2157 16.6833 18.341 15.2787 19.0789" fill="#5493F7"/>
<path d="M6.90079 20.3826C6.89081 20.5327 6.94012 20.6807 7.03811 20.7948C7.1361 20.9089 7.27495 20.98 7.42481 20.9928C14.3323 21.04 21.0002 20.7228 21.0002 19.6878C21.0002 16.5549 6.90079 20.3826 6.90079 20.3826Z" fill="url(#paint0_linear_927_5151)"/>
<path d="M6.90078 20.3826C6.89066 20.5331 6.94027 20.6816 7.03887 20.7958C7.13746 20.91 7.2771 20.9808 7.42751 20.9928C14.333 21.0452 20.9919 20.8283 21.0002 19.6878C21.0002 16.5549 6.90078 20.3826 6.90078 20.3826ZM7.42773 20.953C7.40931 20.9529 7.39091 20.9519 7.37261 20.9498C7.26731 20.935 7.16872 20.8895 7.08919 20.819C7.00965 20.7484 6.95272 20.6559 6.92553 20.5531C6.95506 20.6645 7.01989 20.7634 7.1103 20.8348C7.20071 20.9063 7.31185 20.9466 7.42706 20.9496C14.3278 20.9062 20.892 18.7815 20.892 19.717C20.892 20.6719 14.3283 21 7.42773 20.953Z" fill="url(#paint1_linear_927_5151)"/>
<path d="M7.42819 11.5102C7.35894 11.5102 7.29036 11.5238 7.22638 11.5503C7.16239 11.5768 7.10425 11.6156 7.05527 11.6645C7.0063 11.7135 6.96744 11.7716 6.94094 11.8356C6.91443 11.8996 6.90079 11.9681 6.90079 12.0374V20.3826C6.90073 20.5219 6.95581 20.6556 7.054 20.7544C7.15219 20.8533 7.2855 20.9092 7.42481 20.91C14.3319 20.8583 21.0085 18.5721 21.0002 19.6881V10.29C21.0085 9.17268 14.3343 11.4585 7.42819 11.5102Z" fill="url(#paint2_linear_927_5151)"/>
<path d="M9.57738 13.5059C9.5137 13.3153 9.46488 13.1722 9.41808 13.0289C9.37128 12.8856 9.3229 12.7423 9.25923 12.5515C9.19578 12.7499 9.14808 12.8989 9.10038 13.0465C9.05268 13.1941 9.00498 13.3437 8.94153 13.5415C8.73588 13.5516 8.58153 13.5577 8.42808 13.564C8.27463 13.5703 8.12028 13.575 7.91463 13.5811C8.0809 13.6969 8.20555 13.7836 8.3302 13.8686C8.45485 13.9537 8.57883 14.0401 8.7451 14.1532C8.68165 14.3508 8.63395 14.4991 8.58648 14.6482C8.539 14.7974 8.4913 14.9439 8.42898 15.1414C8.59503 15.0145 8.71923 14.9191 8.8441 14.8231C8.96898 14.727 9.09385 14.63 9.26013 14.5C9.42663 14.6109 9.55128 14.693 9.67593 14.7745C9.80058 14.8559 9.9259 14.9374 10.0922 15.0445L9.93333 14.5697L9.77448 14.0943C9.94075 13.962 10.0654 13.8614 10.1898 13.7613C10.3143 13.6612 10.4389 13.5588 10.6052 13.4238C10.3998 13.4427 10.2452 13.4557 10.092 13.4688C9.93873 13.4818 9.7828 13.4922 9.57738 13.5059Z" fill="url(#paint3_linear_927_5151)"/>
<path d="M11.7574 15.1858L11.5583 15.4808C11.4294 15.4524 11.3646 15.4385 11.2352 15.4097L11.435 15.6628C11.3551 15.7807 11.3153 15.8394 11.2352 15.9566C11.3646 15.9017 11.4294 15.8741 11.5583 15.8187L11.7574 16.0705V15.733C11.8863 15.6767 11.9507 15.6486 12.0792 15.5919L11.7574 15.5244V15.1858Z" fill="url(#paint4_linear_927_5151)"/>
<path d="M11.7579 11.8956C11.6782 12.014 11.6382 12.0732 11.5585 12.1908C11.4294 12.1627 11.365 12.1485 11.2356 12.1197C11.3155 12.2212 11.3558 12.2714 11.4354 12.3729C11.3558 12.4908 11.3155 12.549 11.2356 12.6667C11.3648 12.6116 11.4296 12.5844 11.5587 12.5286C11.6382 12.6296 11.6782 12.6802 11.7576 12.7806V12.4431C11.8866 12.387 11.9509 12.3585 12.0794 12.3018C11.9509 12.275 11.8866 12.2617 11.7576 12.2343L11.7579 11.8956Z" fill="url(#paint5_linear_927_5151)"/>
<path d="M12.6619 14.4284L12.5494 14.1195L12.4491 14.4586C12.312 14.4777 12.2436 14.4876 12.1073 14.5061L12.3872 14.6678L12.2871 15.0069L12.5627 14.7675L12.8437 14.9277L12.7312 14.619C12.8408 14.5229 12.8957 14.4748 13.0053 14.378C12.8678 14.3987 12.7989 14.4086 12.6619 14.4284Z" fill="url(#paint6_linear_927_5151)"/>
<path d="M12.4146 13.305L12.4207 13.6456C12.4992 13.5239 12.5384 13.4627 12.6171 13.3417C12.7483 13.3642 12.8142 13.3768 12.9456 13.3995L12.7389 13.1533L12.9362 12.8482L12.6111 13.0008L12.405 12.7533L12.4108 13.0939C12.2814 13.1545 12.2166 13.1839 12.0877 13.2442C12.2182 13.2685 12.2835 13.2802 12.4146 13.305Z" fill="url(#paint7_linear_927_5151)"/>
<defs>
<linearGradient id="paint0_linear_927_5151" x1="6.90079" y1="19.7263" x2="21.0002" y2="19.7263" gradientUnits="userSpaceOnUse">
<stop stop-color="#700000"/>
<stop offset="0.327" stop-color="#730000"/>
<stop offset="0.59" stop-color="#7D0000"/>
<stop offset="0.83" stop-color="#8E0000"/>
<stop offset="1" stop-color="#9F0000"/>
</linearGradient>
<linearGradient id="paint1_linear_927_5151" x1="13.9505" y1="18.4552" x2="13.9505" y2="21" gradientUnits="userSpaceOnUse">
<stop offset="0.35" stop-color="#CF2000"/>
<stop offset="0.645" stop-color="#CD1F00"/>
<stop offset="0.752" stop-color="#C61D00"/>
<stop offset="0.828" stop-color="#BB1900"/>
<stop offset="0.889" stop-color="#AA1300"/>
<stop offset="0.941" stop-color="#940C00"/>
<stop offset="0.987" stop-color="#790300"/>
<stop offset="1" stop-color="#700000"/>
</linearGradient>
<linearGradient id="paint2_linear_927_5151" x1="6.90079" y1="15.4457" x2="21.0002" y2="15.4457" gradientUnits="userSpaceOnUse">
<stop stop-color="#CF2000"/>
<stop offset="0.021" stop-color="#D12201"/>
<stop offset="0.244" stop-color="#E23309"/>
<stop offset="0.487" stop-color="#EC3D0E"/>
<stop offset="0.791" stop-color="#EF4010"/>
<stop offset="0.841" stop-color="#EC3D0F"/>
<stop offset="0.882" stop-color="#E2330D"/>
<stop offset="0.919" stop-color="#D12208"/>
<stop offset="0.954" stop-color="#B90A03"/>
<stop offset="0.966" stop-color="#AF0000"/>
<stop offset="1" stop-color="#EF4010"/>
</linearGradient>
<linearGradient id="paint3_linear_927_5151" x1="6.901" y1="13.8466" x2="21.0002" y2="13.8466" gradientUnits="userSpaceOnUse">
<stop stop-color="#FBBF00"/>
<stop offset="0.021" stop-color="#FBC102"/>
<stop offset="0.244" stop-color="#FDD213"/>
<stop offset="0.487" stop-color="#FFDC1D"/>
<stop offset="0.791" stop-color="#FFDF20"/>
<stop offset="0.841" stop-color="#FDDC1E"/>
<stop offset="0.882" stop-color="#F8D219"/>
<stop offset="0.919" stop-color="#EEC111"/>
<stop offset="0.954" stop-color="#E1A905"/>
<stop offset="0.966" stop-color="#DB9F00"/>
<stop offset="1" stop-color="#FFDF20"/>
</linearGradient>
<linearGradient id="paint4_linear_927_5151" x1="6.90076" y1="15.6281" x2="21.0005" y2="15.6281" gradientUnits="userSpaceOnUse">
<stop stop-color="#FBBF00"/>
<stop offset="0.021" stop-color="#FBC102"/>
<stop offset="0.244" stop-color="#FDD213"/>
<stop offset="0.487" stop-color="#FFDC1D"/>
<stop offset="0.791" stop-color="#FFDF20"/>
<stop offset="0.841" stop-color="#FDDC1E"/>
<stop offset="0.882" stop-color="#F8D219"/>
<stop offset="0.919" stop-color="#EEC111"/>
<stop offset="0.954" stop-color="#E1A905"/>
<stop offset="0.966" stop-color="#DB9F00"/>
<stop offset="1" stop-color="#FFDF20"/>
</linearGradient>
<linearGradient id="paint5_linear_927_5151" x1="6.90078" y1="12.3382" x2="21.0006" y2="12.3382" gradientUnits="userSpaceOnUse">
<stop stop-color="#FBBF00"/>
<stop offset="0.021" stop-color="#FBC102"/>
<stop offset="0.244" stop-color="#FDD213"/>
<stop offset="0.487" stop-color="#FFDC1D"/>
<stop offset="0.791" stop-color="#FFDF20"/>
<stop offset="0.841" stop-color="#FDDC1E"/>
<stop offset="0.882" stop-color="#F8D219"/>
<stop offset="0.919" stop-color="#EEC111"/>
<stop offset="0.954" stop-color="#E1A905"/>
<stop offset="0.966" stop-color="#DB9F00"/>
<stop offset="1" stop-color="#FFDF20"/>
</linearGradient>
<linearGradient id="paint6_linear_927_5151" x1="6.90103" y1="14.5632" x2="21.0001" y2="14.5632" gradientUnits="userSpaceOnUse">
<stop stop-color="#FBBF00"/>
<stop offset="0.021" stop-color="#FBC102"/>
<stop offset="0.244" stop-color="#FDD213"/>
<stop offset="0.487" stop-color="#FFDC1D"/>
<stop offset="0.791" stop-color="#FFDF20"/>
<stop offset="0.841" stop-color="#FDDC1E"/>
<stop offset="0.882" stop-color="#F8D219"/>
<stop offset="0.919" stop-color="#EEC111"/>
<stop offset="0.954" stop-color="#E1A905"/>
<stop offset="0.966" stop-color="#DB9F00"/>
<stop offset="1" stop-color="#FFDF20"/>
</linearGradient>
<linearGradient id="paint7_linear_927_5151" x1="6.9001" y1="13.199" x2="21.0013" y2="13.199" gradientUnits="userSpaceOnUse">
<stop stop-color="#FBBF00"/>
<stop offset="0.021" stop-color="#FBC102"/>
<stop offset="0.244" stop-color="#FDD213"/>
<stop offset="0.487" stop-color="#FFDC1D"/>
<stop offset="0.791" stop-color="#FFDF20"/>
<stop offset="0.841" stop-color="#FDDC1E"/>
<stop offset="0.882" stop-color="#F8D219"/>
<stop offset="0.919" stop-color="#EEC111"/>
<stop offset="0.954" stop-color="#E1A905"/>
<stop offset="0.966" stop-color="#DB9F00"/>
<stop offset="1" stop-color="#FFDF20"/>
</linearGradient>
</defs>
</svg>
