<svg width="24" height="24" viewBox="0 0 24 24" fill="none" xmlns="http://www.w3.org/2000/svg">
<circle cx="12" cy="12" r="12" fill="#121212"/>
<path d="M13.1239 10.824L12.2647 10.8457L12.256 11.6832L13.1282 11.6138L13.1239 10.824Z" fill="#50FFA7"/>
<path d="M12.2647 10.8457L11.5574 10.9455L11.5357 11.8394L12.2561 11.6832L12.2647 10.8457Z" fill="#4DFFAA"/>
<path d="M14.0785 10.8891L13.1239 10.8284L13.1282 11.6138L14.0916 11.6225L14.0785 10.8891Z" fill="#53FFA4"/>
<path d="M11.5574 10.9455L11.041 11.1321L11.0063 12.0694L11.5357 11.8394L11.5574 10.9455Z" fill="#49FFAD"/>
<path d="M15.0463 11.0236L14.0743 10.8891L14.0916 11.6225L15.068 11.7049L15.0463 11.0236Z" fill="#56FFA0"/>
<path d="M13.1326 9.99952L12.269 9.96046L12.2647 10.8457L13.1239 10.8284L13.1326 9.99952Z" fill="#80FF77"/>
<path d="M12.2691 9.96046L11.5574 10.0082V10.9455L12.2647 10.8457L12.2691 9.96046Z" fill="#80FF77"/>
<path d="M14.0872 10.121L13.1325 9.99952L13.1239 10.824L14.0742 10.8891L14.0872 10.121Z" fill="#80FF77"/>
<path d="M11.5573 10.0082L11.041 10.1427V11.1321L11.5573 10.9455V10.0082Z" fill="#80FF77"/>
<path d="M15.9533 11.2189L15.0463 11.0236L15.068 11.7049L15.9793 11.8481L15.9533 11.2189Z" fill="#5AFF9D"/>
<path d="M15.0593 10.3163L14.0873 10.121L14.0743 10.8891L15.0463 11.0236L15.0593 10.3163Z" fill="#80FF77"/>
<path d="M13.15 9.15767L12.2734 9.05786L12.2691 9.96046L13.1326 9.99952L13.15 9.15767Z" fill="#B4FF43"/>
<path d="M14.1176 9.34427L13.15 9.15767L13.1326 9.99952L14.0873 10.121L14.1176 9.34427Z" fill="#ADFF49"/>
<path d="M12.2734 9.05786L11.5443 9.04484L11.5574 10.0082L12.269 9.96046L12.2734 9.05786Z" fill="#B7FF40"/>
<path d="M11.041 10.1427L10.7329 10.3597V11.3968L11.041 11.1321V10.1427Z" fill="#80FF77"/>
<path d="M15.9663 10.5723L15.0593 10.3163L15.0463 11.0236L15.9533 11.2189L15.9663 10.5723Z" fill="#80FF77"/>
<path d="M15.1027 9.60029L14.1177 9.34426L14.0873 10.121L15.0593 10.3163L15.1027 9.60029Z" fill="#AAFF4D"/>
<path d="M11.5444 9.04484L11.0106 9.12729L11.041 10.1427L11.5574 10.0082L11.5444 9.04484Z" fill="#BAFF3C"/>
<path d="M13.1804 8.32016L12.2734 8.15526V9.05786L13.15 9.15766L13.1804 8.32016Z" fill="#E4FF13"/>
<path d="M14.174 8.57183L13.1803 8.32014L13.1499 9.15765L14.1176 9.34425L14.174 8.57183Z" fill="#DBFF1C"/>
<path d="M12.2734 8.15526L11.514 8.08583L11.5444 9.04484L12.2734 9.05786V8.15526Z" fill="#EBFF0C"/>
<path d="M16.0139 9.91707L15.0983 9.60029L15.0593 10.3163L15.9662 10.5723L16.0139 9.91707Z" fill="#A7FF50"/>
<path d="M15.1722 8.89296L14.1741 8.57184L14.1177 9.34426L15.0984 9.60029L15.1722 8.89296Z" fill="#D4FF23"/>
<path d="M3.08245 12.1649L3.1649 12.7854L3.08245 11.6528L3 11.028L3.08245 12.1649Z" fill="#53FFA4"/>
<path d="M15.2763 4.96577L13.7532 4.32787L13.6837 4.28882L15.1375 4.91804L15.2763 4.96577Z" fill="#FF3F00"/>
<path d="M11.0106 9.12729L10.6808 9.30087L10.7329 10.3597L11.041 10.1427L11.0106 9.12729Z" fill="#BEFF39"/>
<path d="M16.7256 10.8761L15.9662 10.5723L15.9532 11.2189L16.7126 11.4663L16.7256 10.8761Z" fill="#80FF77"/>
<path d="M13.2194 7.51302L12.2734 7.28737V8.15526L13.1804 8.32016L13.2194 7.51302Z" fill="#FFD700"/>
<path d="M11.514 8.08583L10.9456 8.11621L11.0063 9.12729L11.5444 9.04484L11.514 8.08583Z" fill="#F1FC06"/>
<path d="M13.6838 4.28882L12.23 3.76375L12.2387 3.88091L13.61 4.38863L13.6838 4.28882Z" fill="#FF1E00"/>
<path d="M14.2478 7.8298L13.2194 7.51302L13.1803 8.32015L14.1741 8.57184L14.2478 7.8298Z" fill="#FFE200"/>
<path d="M12.2735 7.28736L11.4706 7.15718L11.514 8.08583L12.2735 8.15526V7.28736Z" fill="#FFCC00"/>
<path d="M16.105 9.27483L15.1721 8.89296L15.0983 9.60029L16.0139 9.91707L16.105 9.27483Z" fill="#CEFF29"/>
<path d="M15.1374 4.91804L13.6837 4.28882L13.6143 4.38863L14.9942 4.99615L15.1374 4.91804Z" fill="#FF3800"/>
<path d="M15.2763 8.21601L14.2478 7.8298L14.1741 8.57184L15.1721 8.89296L15.2763 8.21601Z" fill="#FBF100"/>
<path d="M13.2715 6.75796L12.2734 6.46722V7.28737L13.2194 7.51302L13.2715 6.75796Z" fill="#FFA700"/>
<path d="M16.782 10.2772L16.0139 9.91707L15.9662 10.5723L16.7256 10.8761L16.782 10.2772Z" fill="#A4FF53"/>
<path d="M16.6953 5.68178L15.2763 4.96577L15.1375 4.91804L16.5044 5.62537L16.6953 5.68178Z" fill="#FF5500"/>
<path d="M13.6143 4.38862L12.2386 3.88091L12.2473 4.14561L13.5405 4.62295L13.6143 4.38862Z" fill="#FF1E00"/>
<path d="M14.3433 7.13549L13.2715 6.75796L13.2194 7.51302L14.2478 7.8298L14.3433 7.13549Z" fill="#FFB600"/>
<path d="M11.4706 7.15719L10.85 7.13115L10.9455 8.11186L11.514 8.08583L11.4706 7.15719Z" fill="#FFC100"/>
<path d="M12.2733 6.46721L11.4098 6.28062L11.4705 7.15718L12.2733 7.28737V6.46721Z" fill="#FF9800"/>
<path d="M10.9456 8.11186L10.5811 8.23771L10.6809 9.30087L11.0107 9.12729L10.9456 8.11186Z" fill="#F8F500"/>
<path d="M3.34711 13.9007L3.49465 14.4995L3.3124 13.3973L3.16486 12.7855L3.34711 13.9007Z" fill="#13FCE4"/>
<path d="M14.9942 4.99615L13.6099 4.38863L13.5361 4.62296L14.851 5.20444L14.9942 4.99615Z" fill="#FF3800"/>
<path d="M13.3279 6.07231L12.2691 5.72516L12.2734 6.4672L13.2715 6.75795L13.3279 6.07231Z" fill="#FF7E00"/>
<path d="M15.4065 7.58679L14.3434 7.13549L14.2479 7.8298L15.2763 8.21601L15.4065 7.58679Z" fill="#FFC400"/>
<path d="M13.5405 4.62295L12.2474 4.14561L12.2561 4.54918L13.4667 4.99181L13.5405 4.62295Z" fill="#FF2900"/>
<path d="M14.4518 6.51061L13.3322 6.07233L13.2715 6.75796L14.3433 7.13549L14.4518 6.51061Z" fill="#FF9100"/>
<path d="M16.2266 8.66297L15.2763 8.216L15.1721 8.89296L16.1051 9.27483L16.2266 8.66297Z" fill="#F1FC06"/>
<path d="M16.5043 5.62537L15.1374 4.91804L14.9942 4.99615L16.3047 5.68612L16.5043 5.62537Z" fill="#FF4E00"/>
<path d="M13.393 5.47782L12.2647 5.07859L12.269 5.72517L13.3279 6.07232L13.393 5.47782Z" fill="#FF5900"/>
<path d="M3 11.028L3.08245 11.6528L3.10415 10.5419L3.0217 9.90839L3 11.028Z" fill="#97FF60"/>
<path d="M13.4667 4.9918L12.256 4.54918L12.2647 5.07859L13.3973 5.47782L13.4667 4.9918Z" fill="#FF3B00"/>
<path d="M14.8511 5.20444L13.5362 4.62296L13.4668 4.99181L14.7122 5.5299L14.8511 5.20444Z" fill="#FF4300"/>
<path d="M12.2691 5.72516L11.3361 5.4865L11.4099 6.28061L12.2734 6.4672L12.2691 5.72516Z" fill="#FF6C00"/>
<path d="M14.5776 5.96818L13.3973 5.47782L13.3322 6.07232L14.4518 6.51061L14.5776 5.96818Z" fill="#FF6F00"/>
<path d="M16.8775 9.69576L16.1051 9.27483L16.0139 9.91707L16.782 10.2772L16.8775 9.69576Z" fill="#C7FF30"/>
<path d="M14.7122 5.5299L13.4668 4.99181L13.3973 5.47782L14.5777 5.96818L14.7122 5.5299Z" fill="#FF5500"/>
<path d="M15.5583 7.02266L14.4517 6.5106L14.3433 7.13548L15.4064 7.58679L15.5583 7.02266Z" fill="#FFA300"/>
<path d="M11.4098 6.28062L10.7242 6.20251L10.8501 7.13115L11.4706 7.15718L11.4098 6.28062Z" fill="#FF8900"/>
<path d="M16.3048 5.68611L14.9942 4.99614L14.851 5.20443L16.1095 5.85969L16.3048 5.68611Z" fill="#FF5200"/>
<path d="M16.3785 8.09451L15.4064 7.58679L15.2762 8.21601L16.2266 8.66297L16.3785 8.09451Z" fill="#FFD700"/>
<path d="M17.3244 10.6678L16.782 10.2772L16.7256 10.8761L17.2637 11.2059L17.3244 10.6678Z" fill="#A0FF56"/>
<path d="M17.9321 6.44985L16.6953 5.68177L16.5044 5.62536L17.7021 6.38042L17.9321 6.44985Z" fill="#FF6F00"/>
<path d="M15.7275 6.53665L14.5776 5.97252L14.4518 6.51061L15.5583 7.02266L15.7275 6.53665Z" fill="#FF8200"/>
<path d="M10.85 7.13115L10.4378 7.20926L10.581 8.23771L10.9455 8.11186L10.85 7.13115Z" fill="#FFB900"/>
<path d="M16.1094 5.85969L14.851 5.20443L14.7121 5.52989L15.9142 6.14609L16.1094 5.85969Z" fill="#FF5900"/>
<path d="M15.9141 6.14609L14.7121 5.52989L14.5776 5.97251L15.7275 6.53664L15.9141 6.14609Z" fill="#FF6C00"/>
<path d="M11.3361 5.48649L10.5767 5.36065L10.7242 6.2025L11.4099 6.28061L11.3361 5.48649Z" fill="#FF5D00"/>
<path d="M17.012 9.14465L16.2266 8.66297L16.1051 9.27483L16.8775 9.69576L17.012 9.14465Z" fill="#E7FF0F"/>
<path d="M10.581 8.2377L10.4248 8.45467L10.5593 9.55689L10.6808 9.30086L10.581 8.2377Z" fill="#FBF100"/>
<path d="M16.5607 7.59113L15.5583 7.02266L15.4064 7.58679L16.3785 8.0945L16.5607 7.59113Z" fill="#FFB600"/>
<path d="M17.6977 6.38042L16.5044 5.62536L16.3047 5.68611L17.4634 6.41948L17.6977 6.38042Z" fill="#FF6800"/>
<path d="M3.77238 15.5627L3.93294 16.0964L3.6639 15.0506L3.49466 14.4995L3.77238 15.5627Z" fill="#00B4FF"/>
<path d="M3.16488 12.7854L3.31242 13.3973L3.22997 12.2821L3.08243 11.6528L3.16488 12.7854Z" fill="#53FFA4"/>
<path d="M19.3597 15.0289L19.824 14.7555L20.067 14.5429L19.5983 14.838L19.3597 15.0289Z" fill="#00D4FF"/>
<path d="M17.4243 10.1427L16.8776 9.69576L16.7821 10.2772L17.3202 10.6678L17.4243 10.1427Z" fill="#C1FF36"/>
<path d="M16.7647 7.15718L15.7276 6.53664L15.5583 7.02266L16.5607 7.59113L16.7647 7.15718Z" fill="#FF9800"/>
<path d="M10.7242 6.20251L10.2469 6.24156L10.4378 7.20926L10.85 7.13115L10.7242 6.20251Z" fill="#FF7E00"/>
<path d="M17.4634 6.41948L16.3047 5.68612L16.1095 5.8597L17.2247 6.56702L17.4634 6.41948Z" fill="#FF6C00"/>
<path d="M17.1812 8.63693L16.3784 8.09451L16.2266 8.66297L17.012 9.14465L17.1812 8.63693Z" fill="#FFE600"/>
<path d="M19.1471 7.41321L18.1447 6.62343L17.932 6.44985L18.9041 7.23963L19.1471 7.41321Z" fill="#FF9400"/>
<path d="M16.9903 6.81437L15.9141 6.1461L15.7275 6.53665L16.7647 7.15719L16.9903 6.81437Z" fill="#FF8200"/>
<path d="M17.2247 6.56702L16.1095 5.8597L15.9142 6.1461L16.9904 6.81437L17.2247 6.56702Z" fill="#FF7300"/>
<path d="M20.77 13.1413L20.8742 12.6987L20.9566 12.217L20.8525 12.703L20.77 13.1413Z" fill="#50FFA7"/>
<path d="M19.5984 14.838L20.067 14.5429L20.2927 14.2652L19.8153 14.5906L19.5984 14.838Z" fill="#00E4F8"/>
<path d="M3.0217 9.90839L3.10415 10.5419L3.23433 9.47011L3.15188 8.83655L3.0217 9.90839Z" fill="#D7FF1F"/>
<path d="M10.5766 5.36065H10.0212L10.2468 6.24156L10.7242 6.20684L10.5766 5.36065Z" fill="#FF4E00"/>
<path d="M17.3852 8.18563L16.5607 7.59113L16.3784 8.0945L17.1812 8.63693L17.3852 8.18563Z" fill="#FFC400"/>
<path d="M10.4378 7.20926L10.2339 7.39152L10.4248 8.45468L10.581 8.23771L10.4378 7.20926Z" fill="#FFAE00"/>
<path d="M18.904 7.23963L17.932 6.44986L17.702 6.38042L18.648 7.15718L18.904 7.23963Z" fill="#FF8600"/>
<path d="M17.5631 9.64368L17.012 9.14465L16.8775 9.69575L17.4242 10.1427L17.5631 9.64368Z" fill="#DEFF19"/>
<path d="M19.8153 14.5906L20.2927 14.2652L20.488 13.9311L20.0019 14.2912L19.8153 14.5906Z" fill="#0FF8E7"/>
<path d="M20.8524 12.703L20.9565 12.217L20.9999 11.7223L20.8915 12.2473L20.8524 12.703Z" fill="#6AFF8D"/>
<path d="M17.6109 7.8081L16.7647 7.15718L16.5608 7.59112L17.3853 8.18563L17.6109 7.8081Z" fill="#FFAB00"/>
<path d="M18.648 7.15718L17.6976 6.38042L17.4633 6.41948L18.3833 7.17888L18.648 7.15718Z" fill="#FF8200"/>
<path d="M3.49473 14.4995L3.66396 15.0506L3.48605 13.9701L3.31247 13.3973L3.49473 14.4995Z" fill="#16FFE1"/>
<path d="M3.54239 7.17888L3.38184 7.83414L3.71597 6.93154L3.85917 6.2893L3.54239 7.17888Z" fill="#FF8D00"/>
<path d="M17.8583 7.50434L16.9904 6.81437L16.7648 7.15719L17.611 7.8081L17.8583 7.50434Z" fill="#FF9800"/>
<path d="M18.3833 7.17888L17.4633 6.41948L17.2246 6.56702L18.1186 7.29605L18.3833 7.17888Z" fill="#FF8200"/>
<path d="M17.6804 10.5897L17.4243 10.1427L17.3245 10.6678L17.5806 11.067L17.6804 10.5897Z" fill="#BAFF3C"/>
<path d="M17.741 9.19238L17.1813 8.63693L17.012 9.14465L17.5631 9.64368L17.741 9.19238Z" fill="#FBF100"/>
<path d="M20.0019 14.2912L20.4879 13.931L20.6485 13.5535L20.1581 13.9484L20.0019 14.2912Z" fill="#26FFD1"/>
<path d="M18.1186 7.29604L17.2247 6.56702L16.9903 6.81436L17.8582 7.50868L18.1186 7.29604Z" fill="#FF8900"/>
<path d="M3.08243 11.6529L3.22997 12.2821L3.25601 11.1798L3.10413 10.5419L3.08243 11.6529Z" fill="#97FF60"/>
<path d="M10.2468 6.24156L9.97778 6.3891L10.2338 7.39151L10.4378 7.20926L10.2468 6.24156Z" fill="#FF7300"/>
<path d="M18.3138 15.4195L19.1036 15.1548L19.3596 15.0289L18.5569 15.311L18.3138 15.4195Z" fill="#00D0FF"/>
<path d="M20.8916 12.2473L21.0001 11.7223L20.9957 11.2276L20.8872 11.7917L20.8916 12.2473Z" fill="#87FF70"/>
<path d="M17.9537 8.79315L17.3852 8.18563L17.1812 8.63693L17.741 9.19238L17.9537 8.79315Z" fill="#FFD700"/>
<path d="M19.8067 8.18997L19.1427 7.41321L18.9041 7.23963L19.555 8.01639L19.8067 8.18997Z" fill="#FFA700"/>
<path d="M20.1581 13.9484L20.6485 13.5535L20.77 13.1413L20.2753 13.5665L20.1581 13.9484Z" fill="#3CFFBA"/>
<path d="M18.5569 15.311L19.3597 15.0289L19.5983 14.838L18.7825 15.1461L18.5569 15.311Z" fill="#00DCFE"/>
<path d="M17.8192 10.1427L17.5631 9.64368L17.4243 10.1427L17.6803 10.5897L17.8192 10.1427Z" fill="#D4FF23"/>
<path d="M10.0212 5.36065L9.67838 5.47347L9.9778 6.3891L10.2468 6.24156L10.0212 5.36065Z" fill="#FF3F00"/>
<path d="M20.7136 9.86933L20.4141 9.17068L20.2449 8.77579L20.54 9.49614L20.7136 9.86933Z" fill="#F4F802"/>
<path d="M18.1924 8.45901L17.6109 7.8081L17.3853 8.18563L17.9537 8.79315L18.1924 8.45901Z" fill="#FFC100"/>
<path d="M3.15189 8.83656L3.23434 9.47012L3.46433 8.47205L3.38188 7.83415L3.15189 8.83656Z" fill="#FFD000"/>
<path d="M19.555 8.01639L18.9041 7.23963L18.648 7.15718L19.2816 7.9296L19.555 8.01639Z" fill="#FF9C00"/>
<path d="M20.8872 11.7917L20.9957 11.2276L20.9436 10.7459L20.8351 11.3447L20.8872 11.7917Z" fill="#A0FF56"/>
<path d="M10.2339 7.39152L10.2122 7.6649L10.4509 8.7541L10.4248 8.45468L10.2339 7.39152Z" fill="#FFAB00"/>
<path d="M18.7826 15.1461L19.5984 14.838L19.8154 14.5906L18.9909 14.9204L18.7826 15.1461Z" fill="#06ECF1"/>
<path d="M3.93292 16.0964L4.08046 16.5477L3.81576 15.5366L3.66388 15.0506L3.93292 16.0964Z" fill="#00BCFF"/>
<path d="M18.4528 8.19865L17.8583 7.50434L17.611 7.8081L18.1924 8.45902L18.4528 8.19865Z" fill="#FFAE00"/>
<path d="M19.2816 7.9296L18.648 7.15718L18.3833 7.17888L19.0038 7.93394L19.2816 7.9296Z" fill="#FF9800"/>
<path d="M3.3124 13.3973L3.48598 13.9701L3.40353 12.8809L3.22995 12.2821L3.3124 13.3973Z" fill="#56FFA0"/>
<path d="M20.2753 13.5665L20.77 13.1413L20.8525 12.703L20.3534 13.163L20.2753 13.5665Z" fill="#53FFA4"/>
<path d="M18.0015 9.73915L17.7411 9.19238L17.5632 9.64369L17.8236 10.1427L18.0015 9.73915Z" fill="#EEFF09"/>
<path d="M18.7261 8.02072L18.1186 7.29604L17.8582 7.50434L18.4527 8.19864L18.7261 8.02072Z" fill="#FF9F00"/>
<path d="M19.0038 7.93394L18.3833 7.17888L18.1186 7.29604L18.7261 8.02073L19.0038 7.93394Z" fill="#FF9800"/>
<path d="M20.5401 9.49614L20.245 8.7758L20.041 8.446L20.3318 9.1837L20.5401 9.49614Z" fill="#FFDE00"/>
<path d="M3.85921 6.2893L3.716 6.93154L4.14127 6.15478L4.26711 5.52122L3.85921 6.2893Z" fill="#FF4E00"/>
<path d="M18.9908 14.9204L19.8153 14.5906L20.0019 14.2912L19.1688 14.6471L18.9908 14.9204Z" fill="#19FFDE"/>
<path d="M20.8351 11.3447L20.9435 10.7459L20.8524 10.2903L20.7396 10.9151L20.8351 11.3447Z" fill="#BEFF39"/>
<path d="M18.2141 9.38332L17.9538 8.79315L17.7411 9.19238L18.0015 9.73915L18.2141 9.38332Z" fill="#FFE600"/>
<path d="M9.97783 6.3891L9.89972 6.63645L10.2122 7.6649L10.2339 7.39151L9.97783 6.3891Z" fill="#FF6C00"/>
<path d="M3.10413 10.5419L3.25601 11.1798L3.38185 10.1254L3.23431 9.47011L3.10413 10.5419Z" fill="#D7FF1F"/>
<path d="M20.3534 13.163L20.8524 12.703L20.8915 12.2473L20.3881 12.7377L20.3534 13.163Z" fill="#6DFF8A"/>
<path d="M20.3317 9.18369L20.0409 8.446L19.8066 8.18997L20.093 8.93635L20.3317 9.18369Z" fill="#FFCC00"/>
<path d="M17.7498 10.6244L17.8236 10.1427L17.6804 10.5897L17.611 11.028L17.7498 10.6244Z" fill="#CEFF29"/>
<path d="M17.2377 15.7102L18.3139 15.4195L18.5569 15.311L17.4677 15.6191L17.2377 15.7102Z" fill="#00D8FF"/>
<path d="M19.1688 14.6471L20.002 14.2912L20.1582 13.9484L19.3163 14.326L19.1688 14.6471Z" fill="#29FFCE"/>
<path d="M18.4571 9.09257L18.1924 8.45901L17.9537 8.79315L18.2141 9.38332L18.4571 9.09257Z" fill="#FFD000"/>
<path d="M20.7397 10.9151L20.8482 10.2903L20.7137 9.86934L20.6052 10.5203L20.7397 10.9151Z" fill="#D4FF23"/>
<path d="M20.0931 8.93636L19.8066 8.18996L19.555 8.01638L19.837 8.76278L20.0931 8.93636Z" fill="#FFB900"/>
<path d="M3.66397 15.0506L3.81585 15.5366L3.64661 14.4865L3.48605 13.9701L3.66397 15.0506Z" fill="#19FFDE"/>
<path d="M9.67837 5.47348L9.52649 5.70347L9.89968 6.63645L9.97779 6.3891L9.67837 5.47348Z" fill="#FF3400"/>
<path d="M18.7175 8.87126L18.4528 8.19864L18.1924 8.45901L18.4571 9.09257L18.7175 8.87126Z" fill="#FFC100"/>
<path d="M17.4677 15.6191L18.5569 15.3153L18.7825 15.1461L17.6847 15.4672L17.4677 15.6191Z" fill="#00E4F8"/>
<path d="M20.3882 12.7377L20.8915 12.2474L20.8872 11.7917L20.3838 12.3124L20.3882 12.7377Z" fill="#87FF70"/>
<path d="M17.9276 10.2599L18.0014 9.73915L17.8235 10.1427L17.7497 10.6244L17.9276 10.2599Z" fill="#E4FF13"/>
<path d="M19.8371 8.76276L19.555 8.01638L19.2816 7.9296L19.5594 8.6673L19.8371 8.76276Z" fill="#FFB200"/>
<path d="M18.9952 8.72373L18.7218 8.02074L18.4528 8.19865L18.7175 8.87127L18.9952 8.72373Z" fill="#FFB200"/>
<path d="M3.38184 7.83414L3.46429 8.47203L3.79842 7.57811L3.71597 6.93153L3.38184 7.83414Z" fill="#FF8D00"/>
<path d="M19.3163 14.3259L20.1581 13.9484L20.2753 13.5665L19.4291 13.9701L19.3163 14.3259Z" fill="#40FFB7"/>
<path d="M19.5593 8.66731L19.2815 7.9296H19.0038L19.2772 8.65429L19.5593 8.66731Z" fill="#FFAB00"/>
<path d="M19.2772 8.65428L19.0038 7.9296L18.7217 8.02072L18.9951 8.72371L19.2772 8.65428Z" fill="#FFAE00"/>
<path d="M3.22995 12.2821L3.40353 12.8809L3.42956 11.8047L3.25599 11.1798L3.22995 12.2821Z" fill="#97FF60"/>
<path d="M20.6052 10.5202L20.7136 9.86933L20.5401 9.49614L20.4316 10.1688L20.6052 10.5202Z" fill="#EBFF0C"/>
<path d="M17.6846 15.4672L18.7825 15.1461L18.9908 14.9204L17.8799 15.2589L17.6846 15.4672Z" fill="#0CF4EB"/>
<path d="M18.136 9.9431L18.2141 9.38332L18.0014 9.73915L17.9277 10.2599L18.136 9.9431Z" fill="#F8F500"/>
<path d="M20.3838 12.3124L20.8871 11.7917L20.8351 11.3447L20.3317 11.8915L20.3838 12.3124Z" fill="#A0FF56"/>
<path d="M20.4315 10.1688L20.54 9.50048L20.3317 9.1837L20.2276 9.86933L20.4315 10.1688Z" fill="#FEED00"/>
<path d="M19.4291 13.9701L20.2753 13.5665L20.3534 13.163L19.5029 13.5926L19.4291 13.9701Z" fill="#56FFA0"/>
<path d="M4.08047 16.5477L4.19764 16.9079L3.94161 15.9315L3.81577 15.5366L4.08047 16.5477Z" fill="#00C4FF"/>
<path d="M17.8799 15.2589L18.9908 14.9204L19.1687 14.6471L18.0492 14.9986L17.8799 15.2589Z" fill="#1CFFDB"/>
<path d="M18.3746 9.68708L18.457 9.09258L18.214 9.38332L18.1359 9.94311L18.3746 9.68708Z" fill="#FFDE00"/>
<path d="M3.23431 9.47009L3.38185 10.1253L3.61185 9.1403L3.4643 8.47202L3.23431 9.47009Z" fill="#FFD300"/>
<path d="M15.9576 16.0313L17.2377 15.7102L17.4677 15.6191L16.1746 15.9489L15.9576 16.0313Z" fill="#00DCFE"/>
<path d="M20.2276 9.86934L20.3318 9.1837L20.0931 8.93636L19.9933 9.63067L20.2276 9.86934Z" fill="#FFDB00"/>
<path d="M20.3317 11.8915L20.835 11.3447L20.7396 10.9195L20.2405 11.4879L20.3317 11.8915Z" fill="#B7FF40"/>
<path d="M3.48598 13.9701L3.64654 14.4865L3.56843 13.4277L3.40353 12.8809L3.48598 13.9701Z" fill="#56FFA0"/>
<path d="M18.6306 9.49614L18.7174 8.87126L18.457 9.09257L18.3746 9.68708L18.6306 9.49614Z" fill="#FFD000"/>
<path d="M19.5028 13.5926L20.3534 13.163L20.3881 12.7377L19.5376 13.1934L19.5028 13.5926Z" fill="#6DFF8A"/>
<path d="M19.9889 9.63067L20.0931 8.93636L19.8371 8.76278L19.7329 9.45709L19.9889 9.63067Z" fill="#FFCC00"/>
<path d="M18.0491 14.9986L19.1687 14.6471L19.3162 14.3259L18.1923 14.6991L18.0491 14.9986Z" fill="#2CFFCA"/>
<path d="M18.9041 9.37464L18.9952 8.72372L18.7175 8.87127L18.6307 9.49615L18.9041 9.37464Z" fill="#FFC400"/>
<path d="M16.1746 15.9489L17.4677 15.6191L17.6847 15.4672L16.3785 15.8057L16.1746 15.9489Z" fill="#02E8F4"/>
<path d="M19.7329 9.45709L19.837 8.76278L19.5593 8.66731L19.4638 9.35728L19.7329 9.45709Z" fill="#FFC400"/>
<path d="M19.1818 9.3269L19.2772 8.65429L18.9952 8.72372L18.9041 9.37464L19.1818 9.3269Z" fill="#FFC100"/>
<path d="M20.2407 11.4879L20.7397 10.9151L20.6052 10.5202L20.1061 11.1148L20.2407 11.4879Z" fill="#CEFF29"/>
<path d="M19.4638 9.35728L19.5593 8.67165L19.2772 8.65429L19.1818 9.3269L19.4638 9.35728Z" fill="#FFBD00"/>
<path d="M9.52649 5.70347L9.53517 6.0376L9.96911 6.97926L9.89968 6.63644L9.52649 5.70347Z" fill="#FF2D00"/>
<path d="M3.716 6.93153L3.79845 7.57811L4.22372 6.80135L4.14127 6.15477L3.716 6.93153Z" fill="#FF4E00"/>
<path d="M3.25601 11.1798L3.42959 11.8047L3.55543 10.7719L3.38186 10.1254L3.25601 11.1798Z" fill="#D4FF23"/>
<path d="M19.5376 13.1934L20.3881 12.7377L20.3838 12.3124L19.5289 12.7898L19.5376 13.1934Z" fill="#87FF70"/>
<path d="M18.1924 14.6991L19.3163 14.326L19.4292 13.9701L18.2966 14.3607L18.1924 14.6991Z" fill="#43FFB4"/>
<path d="M16.3784 15.8057L17.6846 15.4672L17.8799 15.2589L16.565 15.6104L16.3784 15.8057Z" fill="#0FF8E7"/>
<path d="M3.81578 15.5366L3.94163 15.9315L3.77673 14.9248L3.64655 14.4865L3.81578 15.5366Z" fill="#1CFFDB"/>
<path d="M20.106 11.1148L20.6051 10.5202L20.4315 10.1688L19.9368 10.7763L20.106 11.1148Z" fill="#E4FF13"/>
<path d="M17.9407 10.2252L18.3746 9.68708L18.136 9.94311L17.7107 10.4552L17.9407 10.2252Z" fill="#FEED00"/>
<path d="M7.01396 20.9132L6.92717 20.8525L6.4021 20.54L6.45851 20.5878L7.01396 20.9132Z" fill="#0000F1"/>
<path d="M19.529 12.7898L20.3838 12.3124L20.3318 11.8915L19.4769 12.3862L19.529 12.7898Z" fill="#9DFF5A"/>
<path d="M19.9369 10.7763L20.4316 10.1688L20.2276 9.86934L19.7373 10.4899L19.9369 10.7763Z" fill="#F4F802"/>
<path d="M16.5651 15.6104L17.88 15.2589L18.0492 14.9986L16.7257 15.3587L16.5651 15.6104Z" fill="#1FFFD7"/>
<path d="M18.2965 14.3607L19.4291 13.9701L19.5029 13.5926L18.366 13.9961L18.2965 14.3607Z" fill="#56FFA0"/>
<path d="M18.188 10.0603L18.6306 9.49614L18.3746 9.68708L17.9406 10.2295L18.188 10.0603Z" fill="#FFDE00"/>
<path d="M7.5781 21.0955L7.46094 21.0217L6.92719 20.8525L7.01397 20.9132L7.5781 21.0955Z" fill="#0000E8"/>
<path d="M3.40353 12.8809L3.56843 13.4277L3.59447 12.3862L3.42957 11.8047L3.40353 12.8809Z" fill="#94FF63"/>
<path d="M14.9074 16.2179L16.2787 15.8838L16.0661 15.9966L14.6948 16.3351L14.9074 16.2179Z" fill="#00E4F8"/>
<path d="M3.46436 8.47203L3.6119 9.14031L3.94169 8.25506L3.79849 7.57811L3.46436 8.47203Z" fill="#FF9100"/>
<path d="M19.7372 10.4899L20.2275 9.86933L19.9932 9.63066L19.5072 10.2512L19.7372 10.4899Z" fill="#FFE600"/>
<path d="M4.19774 16.9079L4.27585 17.1596L4.03284 16.231L3.94171 15.9315L4.19774 16.9079Z" fill="#00CCFF"/>
<path d="M18.4528 9.96046L18.9041 9.37463L18.6307 9.49614L18.188 10.0603L18.4528 9.96046Z" fill="#FFD300"/>
<path d="M19.4769 12.3862L20.3318 11.8915L20.2407 11.4879L19.3901 12L19.4769 12.3862Z" fill="#B4FF43"/>
<path d="M19.5073 10.2512L19.9933 9.63066L19.7329 9.45708L19.2599 10.0776L19.5073 10.2512Z" fill="#FFDB00"/>
<path d="M18.7262 9.93009L19.1818 9.3269L18.9041 9.37464L18.4528 9.96046L18.7262 9.93009Z" fill="#FFD000"/>
<path d="M16.7256 15.3587L18.0491 14.9986L18.1923 14.6991L16.8558 15.068L16.7256 15.3587Z" fill="#30FFC7"/>
<path d="M19.2599 10.0776L19.7329 9.45709L19.4639 9.35294L18.9952 9.96914L19.2599 10.0776Z" fill="#FFD000"/>
<path d="M18.9952 9.96914L19.4638 9.35728L19.1817 9.3269L18.7261 9.93009L18.9952 9.96914Z" fill="#FFCC00"/>
<path d="M18.366 13.9961L19.5029 13.5926L19.5376 13.1934L18.3964 13.6099L18.366 13.9961Z" fill="#6DFF8A"/>
<path d="M15.1027 16.0487L16.4739 15.7146L16.2787 15.8838L14.9074 16.2179L15.1027 16.0487Z" fill="#0CF4EB"/>
<path d="M8.1422 21.1302L7.99032 21.0521L7.46091 21.0217L7.57807 21.0955L8.1422 21.1302Z" fill="#0000ED"/>
<path d="M3.64659 14.4865L3.77677 14.9248L3.703 13.9094L3.56848 13.4277L3.64659 14.4865Z" fill="#56FFA0"/>
<path d="M19.3901 12L20.2407 11.4879L20.1061 11.1148L19.2599 11.6398L19.3901 12Z" fill="#CAFF2C"/>
<path d="M6.40215 20.54L6.34574 20.3751L5.87274 19.9629L5.89878 20.1017L6.40215 20.54Z" fill="#000CFF"/>
<path d="M5.89874 20.1017L5.8727 19.9629L5.43442 19.4378L5.43008 19.5463L5.89874 20.1017Z" fill="#0028FF"/>
<path d="M3.38184 10.1254L3.55541 10.7719L3.78107 9.80858L3.61183 9.1403L3.38184 10.1254Z" fill="#FFD700"/>
<path d="M6.92722 20.8525L6.83609 20.6659L6.34573 20.3751L6.40215 20.54L6.92722 20.8525Z" fill="#0000FF"/>
<path d="M16.8558 15.068L18.188 14.6991L18.2965 14.3607L16.9556 14.7382L16.8558 15.068Z" fill="#43FFB4"/>
<path d="M18.3964 13.6099L19.5376 13.1933L19.529 12.7898L18.3877 13.2194L18.3964 13.6099Z" fill="#83FF73"/>
<path d="M15.2762 15.8187L16.6475 15.4889L16.4739 15.7146L15.1027 16.0487L15.2762 15.8187Z" fill="#19FFDE"/>
<path d="M5.43012 19.5463L5.43446 19.4378L5.03523 18.8173L5.00485 18.8824L5.43012 19.5463Z" fill="#004CFF"/>
<path d="M13.5231 16.5911L14.9074 16.2179L14.6948 16.3351L13.3018 16.7083L13.5231 16.5911Z" fill="#00E0FB"/>
<path d="M19.2599 11.6398L20.1061 11.1148L19.9368 10.7763L19.095 11.3144L19.2599 11.6398Z" fill="#DEFF19"/>
<path d="M9.53522 6.03761L9.65672 6.45853L10.1384 7.39585L9.96916 6.97926L9.53522 6.03761Z" fill="#FF2900"/>
<path d="M3.94163 15.9315L4.03276 16.231L3.87654 15.2719L3.77673 14.9248L3.94163 15.9315Z" fill="#1FFFD7"/>
<path d="M7.46094 21.0217L7.3351 20.8264L6.83606 20.6659L6.92719 20.8525L7.46094 21.0217Z" fill="#0000FF"/>
<path d="M8.68901 21.0087L8.50675 20.9392L7.99036 21.0521L8.14224 21.1302L8.68901 21.0087Z" fill="#0000FF"/>
<path d="M19.095 11.3144L19.9368 10.7763L19.7372 10.4899L18.9041 11.028L19.095 11.3144Z" fill="#EEFF09"/>
<path d="M17.6716 10.4725L18.4527 9.96046L18.188 10.0603L17.4199 10.555L17.6716 10.4725Z" fill="#FFDE00"/>
<path d="M18.3877 13.2194L19.5289 12.7898L19.4769 12.3862L18.3399 12.8288L18.3877 13.2194Z" fill="#9AFF5D"/>
<path d="M5.00477 18.8824L5.03515 18.8173L4.69233 18.1099L4.64026 18.1273L5.00477 18.8824Z" fill="#0074FF"/>
<path d="M16.9557 14.7382L18.2965 14.3607L18.366 13.9961L17.0207 14.378L16.9557 14.7382Z" fill="#5AFF9D"/>
<path d="M9.70009 17.3896L10.9672 16.947L10.7285 16.7387L9.44406 17.1639L9.70009 17.3896Z" fill="#00C4FF"/>
<path d="M9.44408 17.1639L10.7286 16.7387L10.5072 16.474L9.20541 16.8775L9.44408 17.1639Z" fill="#00D0FF"/>
<path d="M3.4296 11.8047L3.59449 12.3862L3.716 11.3838L3.55544 10.7719L3.4296 11.8047Z" fill="#D1FF26"/>
<path d="M15.4238 15.5453L16.795 15.2199L16.6475 15.4889L15.2762 15.8187L15.4238 15.5453Z" fill="#29FFCE"/>
<path d="M13.7227 16.4132L15.1027 16.0487L14.9074 16.2179L13.5231 16.5911L13.7227 16.4132Z" fill="#09F0EE"/>
<path d="M9.20543 16.8775L10.5073 16.474L10.3076 16.1572L8.9928 16.5347L9.20543 16.8775Z" fill="#00E0FB"/>
<path d="M18.904 11.028L19.7372 10.4899L19.5072 10.2512L18.6827 10.798L18.904 11.028Z" fill="#FBF100"/>
<path d="M3.79843 7.57811L3.94163 8.25506L4.36256 7.49566L4.2237 6.80569L3.79843 7.57811Z" fill="#FF5200"/>
<path d="M17.9321 10.4552L18.7262 9.93008L18.4528 9.96046L17.6717 10.4725L17.9321 10.4552Z" fill="#FFDB00"/>
<path d="M4.27576 17.1596L4.33651 17.3028L4.10652 16.4262L4.03275 16.231L4.27576 17.1596Z" fill="#00D4FF"/>
<path d="M6.34574 20.3751L6.33272 20.0974L5.89444 19.7155L5.87274 19.9629L6.34574 20.3751Z" fill="#0028FF"/>
<path d="M5.87273 19.9629L5.89443 19.7155L5.48652 19.2295L5.43445 19.4378L5.87273 19.9629Z" fill="#0040FF"/>
<path d="M18.6827 10.7936L19.5072 10.2512L19.2598 10.0776L18.444 10.6201L18.6827 10.7936Z" fill="#FFE600"/>
<path d="M18.1924 10.5072L18.9952 9.96914L18.7262 9.93008L17.932 10.4552L18.1924 10.5072Z" fill="#FFD700"/>
<path d="M7.99034 21.0521L7.83412 20.8525L7.33508 20.8264L7.46093 21.0217L7.99034 21.0521Z" fill="#0000FF"/>
<path d="M18.4441 10.6201L19.2599 10.0776L18.9952 9.96914L18.1924 10.5029L18.4441 10.6201Z" fill="#FFDB00"/>
<path d="M8.98838 16.5347L10.3076 16.1572L10.1383 15.8013L8.80612 16.1485L8.98838 16.5347Z" fill="#0FF8E7"/>
<path d="M6.83602 20.6659L6.79262 20.3664L6.33264 20.0974L6.34566 20.3751L6.83602 20.6659Z" fill="#0018FF"/>
<path d="M9.85197 20.2232L9.66971 20.323L9.20105 20.7396L9.35727 20.6572L9.85197 20.2232Z" fill="#0018FF"/>
<path d="M18.3356 12.8288L19.4768 12.3862L19.3901 12L18.2488 12.4513L18.3356 12.8288Z" fill="#B1FF46"/>
<path d="M5.43442 19.4378L5.48649 19.2295L5.11764 18.6524L5.03519 18.8173L5.43442 19.4378Z" fill="#0060FF"/>
<path d="M17.0208 14.378L18.366 13.9961L18.3964 13.6099L17.0468 14.0005L17.0208 14.378Z" fill="#6DFF8A"/>
<path d="M3.56848 13.4277L3.703 13.9094L3.7247 12.907L3.59018 12.3862L3.56848 13.4277Z" fill="#94FF63"/>
<path d="M12.2083 16.999L13.5231 16.5911L13.3018 16.7083L11.9739 17.1249L12.2083 16.999Z" fill="#00D8FF"/>
<path d="M8.61522 17.8582L9.70008 17.3896L9.44406 17.1639L8.33316 17.6109L8.61522 17.8582Z" fill="#00B4FF"/>
<path d="M15.5409 15.2285L16.9079 14.9074L16.795 15.2199L15.4238 15.5453L15.5409 15.2285Z" fill="#3CFFBA"/>
<path d="M13.905 16.1745L15.2763 15.8187L15.1027 16.0487L13.7228 16.4132L13.905 16.1745Z" fill="#16FFE1"/>
<path d="M8.33315 17.6109L9.44405 17.1639L9.20538 16.8775L8.07278 17.2985L8.33315 17.6109Z" fill="#00C0FF"/>
<path d="M4.63594 18.1273L4.69235 18.1099L4.41029 17.3375L4.33652 17.3028L4.63594 18.1273Z" fill="#00A8FF"/>
<path d="M8.91029 18.0275L9.97345 17.5458L9.70006 17.3896L8.6152 17.8582L8.91029 18.0275Z" fill="#00A8FF"/>
<path d="M8.80615 16.1485L10.1384 15.8014L9.99949 15.4065L8.65427 15.7276L8.80615 16.1485Z" fill="#23FFD4"/>
<path d="M7.33509 20.8264L7.25698 20.514L6.79266 20.3664L6.83606 20.6615L7.33509 20.8264Z" fill="#0010FF"/>
<path d="M8.0728 17.2985L9.20539 16.8775L8.98842 16.5347L7.83847 16.9296L8.0728 17.2985Z" fill="#00D4FF"/>
<path d="M9.20105 20.7396L8.99276 20.6832L8.50674 20.9392L8.689 21.0087L9.20105 20.7396Z" fill="#0008FF"/>
<path d="M18.2488 12.4513L19.3901 12L19.2599 11.6398L18.1273 12.0955L18.2488 12.4513Z" fill="#C4FF33"/>
<path d="M9.20979 18.123L10.2469 17.6326L9.97353 17.5458L8.91037 18.0275L9.20979 18.123Z" fill="#00A8FF"/>
<path d="M6.33272 20.0974L6.42385 19.7329L6.02028 19.3814L5.89444 19.7155L6.33272 20.0974Z" fill="#0040FF"/>
<path d="M5.0352 18.8173L5.11765 18.6524L4.80087 17.9928L4.69238 18.1099L5.0352 18.8173Z" fill="#0088FF"/>
<path d="M3.7768 14.9248L3.87661 15.2719L3.80718 14.3042L3.70303 13.9094L3.7768 14.9248Z" fill="#5AFF9D"/>
<path d="M5.89436 19.7155L6.0202 19.3814L5.64267 18.9301L5.48645 19.2295L5.89436 19.7155Z" fill="#0058FF"/>
<path d="M3.61188 9.1403L3.78112 9.80857L4.10657 8.94503L3.94167 8.25506L3.61188 9.1403Z" fill="#FF9400"/>
<path d="M7.83845 16.9296L8.99274 16.5347L8.80615 16.1485L7.63449 16.5087L7.83845 16.9296Z" fill="#06ECF1"/>
<path d="M7.73871 18.3443L8.61528 17.8582L8.33321 17.6109L7.4306 18.0752L7.73871 18.3443Z" fill="#00A0FF"/>
<path d="M12.4209 16.8124L13.7228 16.4132L13.5232 16.5911L12.2083 17.0034L12.4209 16.8124Z" fill="#02E8F4"/>
<path d="M7.43057 18.0752L8.33317 17.6109L8.07281 17.2985L7.14417 17.7324L7.43057 18.0752Z" fill="#00B0FF"/>
<path d="M6.79262 20.3664L6.8447 19.9802L6.42377 19.7329L6.33264 20.0974L6.79262 20.3664Z" fill="#0034FF"/>
<path d="M17.0468 14.0005L18.3963 13.6099L18.3877 13.2194L17.0381 13.6099L17.0468 14.0005Z" fill="#83FF73"/>
<path d="M8.50673 20.9392L8.31579 20.744L7.83411 20.8525L7.99033 21.0521L8.50673 20.9392Z" fill="#0008FF"/>
<path d="M8.65426 15.7276L9.99948 15.4065L9.89968 14.9899L8.54578 15.2763L8.65426 15.7276Z" fill="#39FFBE"/>
<path d="M10.1384 7.39585L10.2555 7.93394L10.6721 8.97107L10.5376 8.43298L10.1384 7.39585Z" fill="#FF6000"/>
<path d="M8.05983 18.5309L8.91036 18.0275L8.61528 17.8582L7.73871 18.3443L8.05983 18.5309Z" fill="#0094FF"/>
<path d="M14.0525 15.8925L15.4238 15.5453L15.2763 15.8187L13.905 16.1789L14.0525 15.8925Z" fill="#29FFCE"/>
<path d="M15.6191 14.8771L16.9904 14.5603L16.9079 14.9074L15.541 15.2285L15.6191 14.8771Z" fill="#53FFA4"/>
<path d="M5.48646 19.2295L5.64268 18.9301L5.30421 18.3963L5.11761 18.6524L5.48646 19.2295Z" fill="#0074FF"/>
<path d="M9.50486 18.136L10.5203 17.6456L10.2469 17.6326L9.20978 18.1229L9.50486 18.136Z" fill="#00A8FF"/>
<path d="M18.1273 12.0955L19.2599 11.6398L19.095 11.3144L17.9711 11.7743L18.1273 12.0955Z" fill="#D7FF1F"/>
<path d="M7.14418 17.7324L8.07281 17.2985L7.83849 16.9296L6.88815 17.3245L7.14418 17.7324Z" fill="#00C4FF"/>
<path d="M16.6129 10.8978L17.6717 10.4725L17.42 10.555L16.3742 10.9672L16.6129 10.8978Z" fill="#FFE600"/>
<path d="M4.03284 16.231L4.10661 16.4262L3.95907 15.5193L3.87662 15.2719L4.03284 16.231Z" fill="#26FFD1"/>
<path d="M7.83417 20.8525L7.72134 20.54L7.25702 20.5183L7.33513 20.8264L7.83417 20.8525Z" fill="#0014FF"/>
<path d="M6.42383 19.7329L6.6625 19.3033L6.29365 18.9778L6.02026 19.3814L6.42383 19.7329Z" fill="#005CFF"/>
<path d="M7.09208 18.8346L7.73865 18.3443L7.43055 18.0752L6.7536 18.5395L7.09208 18.8346Z" fill="#008CFF"/>
<path d="M6.02023 19.3814L6.29362 18.9778L5.94646 18.5699L5.6427 18.9301L6.02023 19.3814Z" fill="#0070FF"/>
<path d="M7.63453 16.5087L8.80618 16.1485L8.6543 15.7276L7.46964 16.0444L7.63453 16.5087Z" fill="#1CFFDB"/>
<path d="M6.75367 18.5395L7.43062 18.0752L7.14422 17.7324L6.43689 18.162L6.75367 18.5395Z" fill="#009CFF"/>
<path d="M8.38961 18.635L9.20975 18.1229L8.91033 18.0275L8.05981 18.5309L8.38961 18.635Z" fill="#0094FF"/>
<path d="M7.25698 20.5183L7.27434 20.1191L6.84474 19.9802L6.79266 20.3664L7.25698 20.5183Z" fill="#002CFF"/>
<path d="M10.9933 10.082L11.0627 10.7285L11.2753 11.8742L11.2103 11.2319L10.9933 10.082Z" fill="#FFE600"/>
<path d="M11.0366 17.446L12.2083 17.0034L11.9739 17.1249L10.7849 17.5805L11.0366 17.446Z" fill="#00CCFF"/>
<path d="M6.66246 19.3033L7.09207 18.8303L6.75359 18.5352L6.29361 18.9778L6.66246 19.3033Z" fill="#0074FF"/>
<path d="M7.44354 19.0386L8.05974 18.5309L7.73862 18.3443L7.09204 18.8303L7.44354 19.0386Z" fill="#0080FF"/>
<path d="M6.84472 19.9802L7.04868 19.5289L6.66247 19.3033L6.4238 19.7329L6.84472 19.9802Z" fill="#004CFF"/>
<path d="M4.33656 17.3028L4.41033 17.3375L4.1977 16.5174L4.10657 16.4262L4.33656 17.3028Z" fill="#00E0FB"/>
<path d="M17.9711 11.7743L19.095 11.3144L18.9041 11.028L17.7845 11.4879L17.9711 11.7743Z" fill="#E7FF0F"/>
<path d="M6.29363 18.9778L6.75361 18.5352L6.44117 18.162L5.94647 18.5699L6.29363 18.9778Z" fill="#0084FF"/>
<path d="M16.8602 10.8934L17.9321 10.4552L17.6717 10.4725L16.6129 10.8978L16.8602 10.8934Z" fill="#FFE200"/>
<path d="M6.88815 17.3245L7.83849 16.9296L7.63454 16.5087L6.66684 16.8645L6.88815 17.3245Z" fill="#00E0FB"/>
<path d="M6.43688 18.162L7.14421 17.7324L6.88818 17.3245L6.15482 17.715L6.43688 18.162Z" fill="#00B4FF"/>
<path d="M5.64274 18.9301L5.9465 18.5699L5.63406 18.0796L5.30426 18.3963L5.64274 18.9301Z" fill="#008CFF"/>
<path d="M4.69237 18.1099L4.80086 17.9928L4.53615 17.2768L4.41031 17.3375L4.69237 18.1099Z" fill="#00B4FF"/>
<path d="M7.04869 19.5289L7.44358 19.0386L7.09208 18.8303L6.66248 19.3033L7.04869 19.5289Z" fill="#0068FF"/>
<path d="M17.0381 13.6099L18.3876 13.2194L18.3399 12.8288L16.9903 13.2194L17.0381 13.6099Z" fill="#9AFF5D"/>
<path d="M5.11765 18.6524L5.30424 18.3963L5.00916 17.7932L4.80087 17.9928L5.11765 18.6524Z" fill="#009CFF"/>
<path d="M12.6075 16.5607L13.905 16.1789L13.7228 16.4132L12.4209 16.8124L12.6075 16.5607Z" fill="#13FCE4"/>
<path d="M3.55542 10.7719L3.71598 11.3838L3.93729 10.4552L3.78107 9.80858L3.55542 10.7719Z" fill="#FFDB00"/>
<path d="M8.54584 15.2763L9.89975 14.9899L9.83466 14.5603L8.47641 14.812L8.54584 15.2763Z" fill="#53FFA4"/>
<path d="M17.7844 11.4879L18.904 11.028L18.6827 10.798L17.5761 11.2536L17.7844 11.4879Z" fill="#F4F802"/>
<path d="M5.94654 18.5699L6.43689 18.162L6.15483 17.715L5.63409 18.0796L5.94654 18.5699Z" fill="#00A0FF"/>
<path d="M17.1075 10.9542L18.1923 10.5072L17.932 10.4552L16.8601 10.8934L17.1075 10.9542Z" fill="#FFE200"/>
<path d="M7.80375 19.1557L8.38957 18.635L8.05977 18.5309L7.44357 19.0386L7.80375 19.1557Z" fill="#007CFF"/>
<path d="M8.71508 18.6524L9.50486 18.136L9.20978 18.1229L8.38962 18.635L8.71508 18.6524Z" fill="#0094FF"/>
<path d="M10.286 19.6461L10.0864 19.7763L9.66977 20.3231L9.85203 20.2232L10.286 19.6461Z" fill="#0044FF"/>
<path d="M15.6668 14.4995L17.038 14.1914L16.9903 14.5603L15.619 14.8771L15.6668 14.4995Z" fill="#66FF90"/>
<path d="M7.27436 20.1191L7.4436 19.6548L7.04871 19.5289L6.84476 19.9802L7.27436 20.1191Z" fill="#0048FF"/>
<path d="M17.5762 11.2536L18.6828 10.798L18.4441 10.6201L17.3462 11.0757L17.5762 11.2536Z" fill="#FEED00"/>
<path d="M14.1741 15.5627L15.541 15.2285L15.4239 15.5453L14.0526 15.8925L14.1741 15.5627Z" fill="#3CFFBA"/>
<path d="M17.3462 11.0757L18.4441 10.6201L18.1924 10.5072L17.1075 10.9542L17.3462 11.0757Z" fill="#FFE200"/>
<path d="M7.46965 16.0444L8.65432 15.7276L8.54583 15.2763L7.34814 15.5583L7.46965 16.0444Z" fill="#36FFC1"/>
<path d="M7.44353 19.6548L7.80371 19.1557L7.44353 19.0386L7.04865 19.5289L7.44353 19.6548Z" fill="#0064FF"/>
<path d="M6.15478 17.715L6.88815 17.3245L6.66684 16.8645L5.91177 17.2073L6.15478 17.715Z" fill="#00D0FF"/>
<path d="M9.65668 6.45853L9.75648 7.00096L10.2555 7.93394L10.1384 7.39585L9.65668 6.45853Z" fill="#FF2900"/>
<path d="M7.72134 20.54L7.69964 20.1408L7.27438 20.1191L7.25702 20.514L7.72134 20.54Z" fill="#0030FF"/>
<path d="M6.66678 16.8645L7.63447 16.5087L7.46957 16.0444L6.48453 16.3568L6.66678 16.8645Z" fill="#13FCE4"/>
<path d="M5.30421 18.3963L5.634 18.0796L5.36496 17.5241L5.00912 17.7932L5.30421 18.3963Z" fill="#00ACFF"/>
<path d="M9.66975 20.323L9.43542 20.2927L8.9928 20.6832L9.20109 20.7396L9.66975 20.323Z" fill="#002CFF"/>
<path d="M11.2667 17.242L12.421 16.8124L12.2083 17.0034L11.0367 17.446L11.2667 17.242Z" fill="#00DCFE"/>
<path d="M8.31579 20.7483L8.16824 20.4402L7.72128 20.54L7.83411 20.8525L8.31579 20.7483Z" fill="#0020FF"/>
<path d="M5.63403 18.0796L6.15477 17.715L5.91176 17.2073L5.36499 17.5241L5.63403 18.0796Z" fill="#00C0FF"/>
<path d="M8.99277 20.6832L8.77146 20.5053L8.31583 20.744L8.50676 20.9392L8.99277 20.6832Z" fill="#0020FF"/>
<path d="M16.9903 13.2194L18.3356 12.8288L18.2488 12.4513L16.9035 12.8418L16.9903 13.2194Z" fill="#B1FF46"/>
<path d="M3.59454 12.3862L3.72473 12.9069L3.84623 11.9436L3.71605 11.3838L3.59454 12.3862Z" fill="#CEFF29"/>
<path d="M8.15964 19.1731L8.71509 18.6524L8.38963 18.635L7.8038 19.1557L8.15964 19.1731Z" fill="#007CFF"/>
<path d="M4.80084 17.9928L5.00913 17.7932L4.76612 17.1292L4.53613 17.2768L4.80084 17.9928Z" fill="#00C4FF"/>
<path d="M9.03187 18.5786L9.79561 18.0709L9.50487 18.136L8.71509 18.6524L9.03187 18.5786Z" fill="#009CFF"/>
<path d="M8.47638 14.812L9.83462 14.5603L9.81293 14.1263L8.45035 14.3476L8.47638 14.812Z" fill="#6DFF8A"/>
<path d="M7.69962 20.1408L7.83414 19.6765L7.44359 19.6548L7.27435 20.1191L7.69962 20.1408Z" fill="#004CFF"/>
<path d="M12.768 16.257L14.0525 15.8925L13.905 16.1789L12.6075 16.5608L12.768 16.257Z" fill="#23FFD4"/>
<path d="M7.83413 19.6765L8.15959 19.1731L7.80375 19.1557L7.44357 19.6548L7.83413 19.6765Z" fill="#0064FF"/>
<path d="M5.91175 17.2073L6.66681 16.8645L6.48455 16.3568L5.70779 16.6519L5.91175 17.2073Z" fill="#09F0EE"/>
<path d="M15.6711 14.109L17.0468 13.8052L17.0381 14.1914L15.6668 14.4995L15.6711 14.109Z" fill="#7DFF7A"/>
<path d="M4.41032 17.3375L4.53617 17.2768L4.34089 16.513L4.19769 16.5174L4.41032 17.3375Z" fill="#02E8F4"/>
<path d="M3.70303 13.9093L3.80718 14.2999L3.82888 13.3496L3.72907 12.9069L3.70303 13.9093Z" fill="#94FF63"/>
<path d="M14.2565 15.1938L15.6191 14.8771L15.541 15.2285L14.1741 15.5627L14.2565 15.1938Z" fill="#50FFA7"/>
<path d="M7.3481 15.5583L8.54578 15.2763L8.47635 14.812L7.26999 15.0506L7.3481 15.5583Z" fill="#50FFA7"/>
<path d="M6.4846 16.3568L7.46965 16.0444L7.34814 15.5583L6.34573 15.823L6.4846 16.3568Z" fill="#30FFC7"/>
<path d="M16.9036 12.8419L18.2488 12.4513L18.1273 12.0955L16.7864 12.486L16.9036 12.8419Z" fill="#C4FF33"/>
<path d="M4.10659 16.4262L4.19771 16.5174L4.05885 15.6668L3.95905 15.5193L4.10659 16.4262Z" fill="#2CFFCA"/>
<path d="M5.00921 17.7932L5.36505 17.5241L5.14374 16.9166L4.7662 17.1292L5.00921 17.7932Z" fill="#00D4FF"/>
<path d="M3.87659 15.2719L3.95904 15.5193L3.89395 14.6037L3.80716 14.3042L3.87659 15.2719Z" fill="#5AFF9D"/>
<path d="M5.36499 17.5241L5.91176 17.2073L5.7078 16.6519L5.14368 16.9166L5.36499 17.5241Z" fill="#00E4F8"/>
<path d="M15.3456 11.2363L16.6128 10.8978L16.3741 10.9672L15.12 11.2927L15.3456 11.2363Z" fill="#FFEA00"/>
<path d="M11.4662 16.973L12.6075 16.5608L12.4209 16.8124L11.2666 17.242L11.4662 16.973Z" fill="#09F0EE"/>
<path d="M8.16824 20.4402L8.11183 20.0497L7.69958 20.1408L7.72128 20.54L8.16824 20.4402Z" fill="#003CFF"/>
<path d="M8.50673 19.095L9.0318 18.5786L8.71503 18.6524L8.15958 19.1731L8.50673 19.095Z" fill="#0088FF"/>
<path d="M10.6721 8.97107L10.7415 9.62199L11.0626 10.7285L10.9932 10.082L10.6721 8.97107Z" fill="#FF9F00"/>
<path d="M3.94171 8.25506L4.10661 8.94503L4.51886 8.20299L4.36264 7.49566L3.94171 8.25506Z" fill="#FF5900"/>
<path d="M16.7863 12.486L18.1272 12.0955L17.971 11.7744L16.6388 12.1606L16.7863 12.486Z" fill="#D7FF1F"/>
<path d="M9.32691 18.4224L10.0646 17.9233L9.79557 18.0709L9.03183 18.5786L9.32691 18.4224Z" fill="#00ACFF"/>
<path d="M15.5801 11.2406L16.8602 10.8934L16.6128 10.8978L15.3501 11.2363L15.5801 11.2406Z" fill="#FFE600"/>
<path d="M8.21164 19.5897L8.50673 19.095L8.15957 19.1731L7.83411 19.6765L8.21164 19.5897Z" fill="#0070FF"/>
<path d="M8.11183 20.0497L8.21163 19.5897L7.83411 19.6765L7.69958 20.1408L8.11183 20.0497Z" fill="#0054FF"/>
<path d="M8.45035 14.3476L9.81293 14.1263L9.83462 13.7054L8.46771 13.8876L8.45035 14.3476Z" fill="#87FF70"/>
<path d="M15.6407 13.7141L17.0164 13.4147L17.0467 13.8052L15.6711 14.109L15.6407 13.7141Z" fill="#94FF63"/>
<path d="M5.70781 16.6519L6.48457 16.3568L6.34571 15.823L5.56027 16.0661L5.70781 16.6519Z" fill="#26FFD1"/>
<path d="M12.8896 15.9098L14.1741 15.5627L14.0526 15.8925L12.7681 16.257L12.8896 15.9098Z" fill="#39FFBE"/>
<path d="M8.77149 20.5053L8.58924 20.2189L8.1683 20.4402L8.31585 20.744L8.77149 20.5053Z" fill="#0038FF"/>
<path d="M4.53613 17.2768L4.76612 17.1292L4.58386 16.4262L4.34085 16.513L4.53613 17.2768Z" fill="#0CF4EB"/>
<path d="M14.2999 14.8033L15.6668 14.4995L15.6234 14.8771L14.2565 15.1982L14.2999 14.8033Z" fill="#66FF90"/>
<path d="M11.0843 17.8062L10.9368 18.1229L10.6504 18.9431L10.7893 18.6567L11.0843 17.8062Z" fill="#00B0FF"/>
<path d="M16.6389 12.1606L17.9711 11.7743L17.7845 11.4879L16.461 11.8698L16.6389 12.1606Z" fill="#E4FF13"/>
<path d="M7.27006 15.0506L8.47643 14.812L8.45039 14.3476L7.23969 14.5429L7.27006 15.0506Z" fill="#6AFF8D"/>
<path d="M15.8143 11.31L17.1075 10.9542L16.8602 10.8934L15.58 11.2406L15.8143 11.31Z" fill="#FFE600"/>
<path d="M6.34573 15.823L7.34814 15.5583L7.27003 15.0506L6.25894 15.2676L6.34573 15.823Z" fill="#49FFAD"/>
<path d="M9.43539 20.2927L9.1837 20.1408L8.77145 20.5053L8.99277 20.6876L9.43539 20.2927Z" fill="#0040FF"/>
<path d="M5.14369 16.9166L5.70782 16.6519L5.56028 16.0661L4.97879 16.27L5.14369 16.9166Z" fill="#1FFFD7"/>
<path d="M4.76615 17.1292L5.14368 16.9166L4.97878 16.27L4.58389 16.4262L4.76615 17.1292Z" fill="#16FFE1"/>
<path d="M16.461 11.8698L17.7845 11.4879L17.5762 11.2536L16.2614 11.6311L16.461 11.8698Z" fill="#F1FC06"/>
<path d="M16.0443 11.4402L17.3462 11.0757L17.1075 10.9542L15.8143 11.31L16.0443 11.4402Z" fill="#FFE600"/>
<path d="M10.6504 18.9431L10.4334 19.1037L10.0863 19.7763L10.2859 19.6461L10.6504 18.9431Z" fill="#007CFF"/>
<path d="M16.2613 11.6311L17.5762 11.2536L17.3462 11.0757L16.0444 11.4402L16.2613 11.6311Z" fill="#FEED00"/>
<path d="M11.6355 16.6475L12.7681 16.257L12.6075 16.5607L11.4663 16.973L11.6355 16.6475Z" fill="#1CFFDB"/>
<path d="M10.0863 19.7763H9.82591L9.43536 20.2927L9.66969 20.323L10.0863 19.7763Z" fill="#0054FF"/>
<path d="M8.8322 18.9171L9.32691 18.418L9.03182 18.5786L8.50674 19.095L8.8322 18.9171Z" fill="#0098FF"/>
<path d="M3.7811 9.80859L3.93732 10.4552L4.24976 9.61765L4.10656 8.94504L3.7811 9.80859Z" fill="#FF9C00"/>
<path d="M4.19767 16.5174L4.34087 16.513L4.21069 15.7232L4.05881 15.6668L4.19767 16.5174Z" fill="#30FFC7"/>
<path d="M15.5714 13.3235L16.9514 13.0328L17.0164 13.4146L15.6408 13.7141L15.5714 13.3235Z" fill="#AAFF4D"/>
<path d="M8.58916 20.2189L8.50237 19.8414L8.11182 20.0497L8.16823 20.4402L8.58916 20.2189Z" fill="#0050FF"/>
<path d="M10.5333 17.4113L11.4662 16.973L11.2666 17.242L10.312 17.702L10.5333 17.4113Z" fill="#00E4F8"/>
<path d="M8.46768 13.8877L9.83461 13.7054L9.89536 13.3018L8.53277 13.4537L8.46768 13.8877Z" fill="#A0FF56"/>
<path d="M12.9763 15.5193L14.2565 15.1982L14.174 15.5627L12.8896 15.9098L12.9763 15.5193Z" fill="#50FFA7"/>
<path d="M8.56754 19.4031L8.83225 18.9171L8.50679 19.095L8.2117 19.5897L8.56754 19.4031Z" fill="#0080FF"/>
<path d="M5.56032 16.0661L6.34576 15.823L6.25897 15.2676L5.46051 15.4585L5.56032 16.0661Z" fill="#46FFB1"/>
<path d="M14.3042 14.3997L15.6711 14.109L15.6668 14.4995L14.2999 14.8033L14.3042 14.3997Z" fill="#7DFF7A"/>
<path d="M8.50237 19.8414L8.56746 19.3987L8.21162 19.5897L8.11182 20.0497L8.50237 19.8414Z" fill="#0068FF"/>
<path d="M3.95904 15.5193L4.05885 15.6668L3.9981 14.812L3.89395 14.6037L3.95904 15.5193Z" fill="#5DFF9A"/>
<path d="M10.2556 7.93394L10.325 8.5892L10.7416 9.62199L10.6722 8.97107L10.2556 7.93394Z" fill="#FF6000"/>
<path d="M3.716 11.3838L3.84619 11.9436L4.05882 11.0497L3.93731 10.4552L3.716 11.3838Z" fill="#FFE200"/>
<path d="M7.23969 14.5429L8.4504 14.3476L8.46775 13.8877L7.25704 14.0439L7.23969 14.5429Z" fill="#87FF70"/>
<path d="M6.25887 15.2676L7.26996 15.0506L7.23958 14.5429L6.22415 14.7121L6.25887 15.2676Z" fill="#6AFF8D"/>
<path d="M15.4672 12.9503L16.8514 12.6639L16.9513 13.0328L15.5713 13.3235L15.4672 12.9503Z" fill="#BEFF39"/>
<path d="M4.34088 16.513L4.58388 16.4262L4.46672 15.6972L4.21069 15.7232L4.34088 16.513Z" fill="#36FFC1"/>
<path d="M3.80716 14.2999L3.89395 14.6037L3.91565 13.7054L3.82886 13.3495L3.80716 14.2999Z" fill="#90FF66"/>
<path d="M3.72897 12.9069L3.82878 13.3496L3.94161 12.4339L3.84614 11.9436L3.72897 12.9069Z" fill="#CAFF2C"/>
<path d="M4.97882 16.27L5.5603 16.0661L5.46049 15.4585L4.87033 15.6061L4.97882 16.27Z" fill="#40FFB7"/>
<path d="M13.8269 11.5227L15.2329 11.258L15.4629 11.2319L14.0612 11.4966L13.8269 11.5227Z" fill="#FFE600"/>
<path d="M9.18368 20.1408L8.97104 19.8761L8.58917 20.2189L8.77143 20.5053L9.18368 20.1408Z" fill="#0054FF"/>
<path d="M11.7657 16.27L12.8896 15.9098L12.7681 16.257L11.6355 16.6475L11.7657 16.27Z" fill="#33FFC4"/>
<path d="M4.58384 16.4262L4.97873 16.27L4.87024 15.6061L4.46667 15.7015L4.58384 16.4262Z" fill="#3CFFBA"/>
<path d="M9.12727 18.6524L9.59593 18.1794L9.32688 18.418L8.83218 18.9171L9.12727 18.6524Z" fill="#00ACFF"/>
<path d="M11.0627 10.7285L11.1277 11.3795L11.3404 12.5164L11.2753 11.8742L11.0627 10.7285Z" fill="#FFEA00"/>
<path d="M15.3327 12.5989L16.717 12.3168L16.8515 12.6639L15.4673 12.9503L15.3327 12.5989Z" fill="#D1FF26"/>
<path d="M14.2696 13.9875L15.6409 13.7141L15.6712 14.109L14.3043 14.3997L14.2696 13.9875Z" fill="#94FF63"/>
<path d="M10.7156 17.0554L11.6355 16.6475L11.4663 16.973L10.5333 17.4113L10.7156 17.0554Z" fill="#16FFE1"/>
<path d="M13.0197 15.107L14.2999 14.8033L14.2565 15.1982L12.9763 15.5236L13.0197 15.107Z" fill="#66FF90"/>
<path d="M14.0612 11.4966L15.4629 11.2319L15.6972 11.2666L14.2955 11.5313L14.0612 11.4966Z" fill="#FFE200"/>
<path d="M8.53278 13.4537L9.89537 13.3018L9.99517 12.9243L8.63692 13.0501L8.53278 13.4537Z" fill="#B7FF40"/>
<path d="M5.46041 15.4585L6.25887 15.2676L6.22416 14.7122L5.42136 14.8467L5.46041 15.4585Z" fill="#66FF90"/>
<path d="M8.89293 19.1123L9.12726 18.6524L8.83218 18.9171L8.56747 19.3987L8.89293 19.1123Z" fill="#0098FF"/>
<path d="M9.82595 19.7763L9.54823 19.6548L9.18372 20.1408L9.4354 20.2927L9.82595 19.7763Z" fill="#0068FF"/>
<path d="M15.1634 12.2864L16.552 12.0087L16.7169 12.3168L15.3326 12.5988L15.1634 12.2864Z" fill="#E1FF16"/>
<path d="M8.97103 19.8761L8.85821 19.5246L8.50238 19.8414L8.58917 20.2189L8.97103 19.8761Z" fill="#006CFF"/>
<path d="M9.75656 7.00096L9.82599 7.66056L10.325 8.5892L10.2556 7.93394L9.75656 7.00096Z" fill="#FF2900"/>
<path d="M4.05883 15.6668L4.21071 15.7232L4.1543 14.9291L3.99808 14.812L4.05883 15.6668Z" fill="#60FF97"/>
<path d="M14.2955 11.5357L15.6971 11.2666L15.9315 11.3708L14.5298 11.6355L14.2955 11.5357Z" fill="#FFE600"/>
<path d="M7.25702 14.0439L8.46772 13.8877L8.53282 13.4537L7.32645 13.5665L7.25702 14.0439Z" fill="#A4FF53"/>
<path d="M8.85821 19.5289L8.89292 19.1123L8.56747 19.4031L8.50238 19.8414L8.85821 19.5289Z" fill="#0080FF"/>
<path d="M6.22415 14.7122L7.23958 14.5429L7.25694 14.0439L6.24151 14.1654L6.22415 14.7122Z" fill="#87FF70"/>
<path d="M14.9725 12.0174L16.3611 11.744L16.5521 12.0087L15.1634 12.2864L14.9725 12.0174Z" fill="#EEFF09"/>
<path d="M14.5299 11.6355L15.9316 11.3664L16.1529 11.527L14.7599 11.796L14.5299 11.6355Z" fill="#FFEA00"/>
<path d="M14.7599 11.796L16.1528 11.527L16.3611 11.744L14.9725 12.0174L14.7599 11.796Z" fill="#FBF100"/>
<path d="M11.2883 16.8558L11.1321 17.2117L10.9368 18.123L11.0843 17.8062L11.2883 16.8558Z" fill="#0CF4EB"/>
<path d="M14.1958 13.5796L15.5714 13.3235L15.6408 13.7141L14.2695 13.9875L14.1958 13.5796Z" fill="#AAFF4D"/>
<path d="M11.8568 15.8534L12.9764 15.5193L12.8896 15.9098L11.7657 16.27L11.8568 15.8534Z" fill="#4DFFAA"/>
<path d="M10.4334 19.1037L10.1514 19.1384L9.8259 19.7763H10.0863L10.4334 19.1037Z" fill="#0088FF"/>
<path d="M4.87033 15.6061L5.46049 15.4585L5.42144 14.8467L4.82693 14.9335L4.87033 15.6061Z" fill="#66FF90"/>
<path d="M10.9368 18.1229L10.7025 18.3226L10.4334 19.1037L10.6504 18.9431L10.9368 18.1229Z" fill="#00B8FF"/>
<path d="M13.0241 14.6731L14.3042 14.3997L14.2999 14.8033L13.0197 15.107L13.0241 14.6731Z" fill="#7DFF7A"/>
<path d="M4.21071 15.7232L4.46674 15.6972L4.41466 14.9682L4.1543 14.9291L4.21071 15.7232Z" fill="#60FF97"/>
<path d="M4.46675 15.6972L4.87031 15.6061L4.82692 14.9335L4.41467 14.9682L4.46675 15.6972Z" fill="#63FF94"/>
<path d="M3.89395 14.6037L3.9981 14.812L4.01546 13.9701L3.91565 13.7054L3.89395 14.6037Z" fill="#90FF66"/>
<path d="M10.8543 16.6432L11.7656 16.27L11.6354 16.6475L10.7155 17.0554L10.8543 16.6432Z" fill="#2CFFCA"/>
<path d="M8.6369 13.0501L9.99515 12.9243L10.1297 12.5902L8.78444 12.69L8.6369 13.0501Z" fill="#D1FF26"/>
<path d="M4.10657 8.94504L4.24977 9.61766L4.65334 8.89731L4.51881 8.203L4.10657 8.94504Z" fill="#FF6000"/>
<path d="M14.0873 13.189L15.4672 12.9503L15.5714 13.3235L14.1958 13.5796L14.0873 13.189Z" fill="#C1FF36"/>
<path d="M9.54824 19.6548L9.30958 19.4248L8.9711 19.8761L9.18373 20.1408L9.54824 19.6548Z" fill="#007CFF"/>
<path d="M5.42136 14.8467L6.22415 14.7122L6.24151 14.1654L5.43871 14.2435L5.42136 14.8467Z" fill="#8AFF6D"/>
<path d="M7.32645 13.5665L8.53281 13.4537L8.63696 13.0501L7.43927 13.1283L7.32645 13.5665Z" fill="#BEFF39"/>
<path d="M9.17932 18.7261L9.38761 18.3009L9.12724 18.6524L8.89291 19.1123L9.17932 18.7261Z" fill="#00B4FF"/>
<path d="M10.7415 9.62199L10.811 10.2903L11.1278 11.3795L11.0627 10.7242L10.7415 9.62199Z" fill="#FFA300"/>
<path d="M3.82886 13.3496L3.91565 13.7054L4.02413 12.8418L3.94168 12.4339L3.82886 13.3496Z" fill="#C7FF30"/>
<path d="M6.24161 14.1654L7.25704 14.0439L7.32647 13.5665L6.31538 13.6403L6.24161 14.1654Z" fill="#A7FF50"/>
<path d="M3.93735 10.4552L4.05885 11.0497L4.36261 10.2469L4.24979 9.61765L3.93735 10.4552Z" fill="#FFA300"/>
<path d="M11.9045 15.4065L13.0198 15.107L12.9764 15.5236L11.8568 15.8534L11.9045 15.4065Z" fill="#63FF94"/>
<path d="M12.9851 14.2391L14.2696 13.9874L14.3043 14.3997L13.0241 14.6731L12.9851 14.2391Z" fill="#97FF60"/>
<path d="M3.84619 11.9436L3.94166 12.4339L4.14561 11.5834L4.05882 11.0497L3.84619 11.9436Z" fill="#FFEA00"/>
<path d="M13.9441 12.8288L15.3327 12.5988L15.4672 12.9503L14.0873 13.189L13.9441 12.8288Z" fill="#D4FF23"/>
<path d="M9.30955 19.4248L9.16635 19.108L8.85825 19.5246L8.97107 19.8761L9.30955 19.4248Z" fill="#0090FF"/>
<path d="M9.16635 19.108L9.17503 18.7261L8.89296 19.1123L8.85825 19.5289L9.16635 19.108Z" fill="#00A0FF"/>
<path d="M12.6206 11.6789L14.0613 11.4966L14.2956 11.5357L12.8636 11.7179L12.6206 11.6789Z" fill="#FFDE00"/>
<path d="M3.99808 14.812L4.1543 14.9291L4.17599 14.148L4.01543 13.9701L3.99808 14.812Z" fill="#8DFF6A"/>
<path d="M4.82693 14.9335L5.42144 14.8467L5.4388 14.2435L4.84429 14.2739L4.82693 14.9335Z" fill="#8AFF6D"/>
<path d="M10.1514 19.1384L9.85629 19.0603L9.54819 19.6548L9.82591 19.7763L10.1514 19.1384Z" fill="#0098FF"/>
<path d="M10.9542 16.1876L11.8568 15.8534L11.7657 16.27L10.8544 16.6432L10.9542 16.1876Z" fill="#46FFB1"/>
<path d="M13.7662 12.5034L15.1635 12.2864L15.3327 12.5988L13.9441 12.8288L13.7662 12.5034Z" fill="#E4FF13"/>
<path d="M12.8635 11.7179L14.2956 11.5357L14.5342 11.6355L13.1109 11.8221L12.8635 11.7179Z" fill="#FFDE00"/>
<path d="M13.5665 12.2213L14.9725 12.0174L15.1635 12.2864L13.7661 12.5034L13.5665 12.2213Z" fill="#F1FC06"/>
<path d="M13.1109 11.8221L14.5342 11.6355L14.7599 11.8004L13.3452 11.9913L13.1109 11.8221Z" fill="#FFE600"/>
<path d="M4.1543 14.9291L4.41466 14.9682L4.43636 14.2478L4.17599 14.148L4.1543 14.9291Z" fill="#8DFF6A"/>
<path d="M4.41467 14.9682L4.82692 14.9335L4.84428 14.2739L4.43637 14.2478L4.41467 14.9682Z" fill="#8DFF6A"/>
<path d="M12.9069 13.8052L14.1957 13.5796L14.2695 13.9875L12.985 14.2392L12.9069 13.8052Z" fill="#ADFF49"/>
<path d="M13.3452 11.9913L14.7599 11.796L14.9725 12.0174L13.5665 12.2213L13.3452 11.9913Z" fill="#FEED00"/>
<path d="M7.43921 13.1283L8.63689 13.0502L8.78444 12.69L7.59543 12.7334L7.43921 13.1283Z" fill="#D7FF1F"/>
<path d="M11.9046 14.9378L13.0241 14.6731L13.0198 15.107L11.9046 15.4065V14.9378Z" fill="#7DFF7A"/>
<path d="M5.43881 14.2435L6.24161 14.1654L6.31538 13.6403L5.51692 13.6707L5.43881 14.2435Z" fill="#AAFF4D"/>
<path d="M10.7025 18.3226L10.4074 18.405L10.1514 19.1384L10.4334 19.1037L10.7025 18.3226Z" fill="#00C4FF"/>
<path d="M6.31531 13.6403L7.3264 13.5665L7.43922 13.1283L6.43681 13.1586L6.31531 13.6403Z" fill="#C4FF33"/>
<path d="M9.41366 18.2575L9.60459 17.8756L9.38762 18.3009L9.17499 18.7261L9.41366 18.2575Z" fill="#00D8FF"/>
<path d="M11.3924 15.8361L11.2319 16.231L11.1321 17.2117L11.2883 16.8558L11.3924 15.8361Z" fill="#46FFB1"/>
<path d="M3.91565 13.7054L4.01546 13.9701L4.1196 13.163L4.02414 12.8419L3.91565 13.7054Z" fill="#C1FF36"/>
<path d="M10.325 8.5892L10.4031 9.27049L10.811 10.2903L10.7415 9.62199L10.325 8.5892Z" fill="#FF6400"/>
<path d="M9.85628 19.0603L9.59157 18.8737L9.30951 19.4248L9.54818 19.6548L9.85628 19.0603Z" fill="#00A8FF"/>
<path d="M11.1321 17.2117L10.8848 17.4547L10.7025 18.3226L10.9368 18.123L11.1321 17.2117Z" fill="#0FF8E7"/>
<path d="M12.7898 13.393L14.0873 13.189L14.1958 13.5796L12.907 13.8052L12.7898 13.393Z" fill="#C4FF33"/>
<path d="M11.0019 15.7015L11.9045 15.4065L11.8568 15.8534L10.9542 16.1876L11.0019 15.7015Z" fill="#63FF94"/>
<path d="M11.1277 11.3795L11.1494 12.0174L11.3577 13.1239L11.3404 12.5164L11.1277 11.3795Z" fill="#FFEA00"/>
<path d="M9.42675 18.6003L9.41373 18.2575L9.1794 18.7261L9.16638 19.108L9.42675 18.6003Z" fill="#00C8FF"/>
<path d="M9.59165 18.8737L9.42675 18.6003L9.16638 19.108L9.30958 19.4248L9.59165 18.8737Z" fill="#00B8FF"/>
<path d="M4.84427 14.2739L5.43877 14.2435L5.51688 13.6707L4.92672 13.6446L4.84427 14.2739Z" fill="#ADFF49"/>
<path d="M11.8612 14.4691L12.9851 14.2392L13.0241 14.6731L11.9046 14.9378L11.8612 14.4691Z" fill="#97FF60"/>
<path d="M3.94171 12.434L4.02416 12.8419L4.2151 12.0391L4.14567 11.5834L3.94171 12.434Z" fill="#FBF100"/>
<path d="M12.6336 13.0067L13.9441 12.8288L14.0873 13.189L12.7898 13.393L12.6336 13.0067Z" fill="#D7FF1F"/>
<path d="M7.59546 12.7334L8.78446 12.6856L8.96672 12.3775L7.79073 12.3949L7.59546 12.7334Z" fill="#EEFF09"/>
<path d="M4.01541 13.9701L4.17597 14.148L4.2671 13.4016L4.11956 13.163L4.01541 13.9701Z" fill="#BEFF39"/>
<path d="M11.2276 11.783L12.6206 11.6789L12.8636 11.7179L11.488 11.8221L11.2276 11.783Z" fill="#FFD700"/>
<path d="M4.24973 9.61765L4.36255 10.2469L4.74876 9.5569L4.65329 8.8973L4.24973 9.61765Z" fill="#FF6C00"/>
<path d="M5.51688 13.6707L6.31534 13.6403L6.43684 13.1586L5.64706 13.1369L5.51688 13.6707Z" fill="#CAFF2C"/>
<path d="M4.43637 14.2479L4.84428 14.2739L4.92673 13.6447L4.52316 13.5579L4.43637 14.2479Z" fill="#B4FF43"/>
<path d="M4.05881 11.0497L4.1456 11.5834L4.43634 10.8197L4.36257 10.2469L4.05881 11.0497Z" fill="#FFAE00"/>
<path d="M6.43689 13.1586L7.43931 13.1283L7.59553 12.7334L6.60613 12.7247L6.43689 13.1586Z" fill="#DEFF19"/>
<path d="M9.8259 7.66057L9.90835 8.35054L10.403 9.27049L10.3249 8.5892L9.8259 7.66057Z" fill="#FF2D00"/>
<path d="M12.447 12.6596L13.7662 12.5034L13.9441 12.8288L12.6336 13.0067L12.447 12.6596Z" fill="#EBFF0C"/>
<path d="M10.4074 18.405L10.0907 18.3703L9.85632 19.0603L10.1514 19.1384L10.4074 18.405Z" fill="#00CCFF"/>
<path d="M4.17599 14.148L4.43636 14.2478L4.52315 13.5579L4.26712 13.4016L4.17599 14.148Z" fill="#B7FF40"/>
<path d="M11.488 11.8221L12.8636 11.7179L13.1109 11.8221L11.7483 11.9349L11.488 11.8221Z" fill="#FFD700"/>
<path d="M11.0019 15.1895L11.9045 14.9378V15.4065L11.0019 15.7015V15.1895Z" fill="#7DFF7A"/>
<path d="M11.7744 14.0005L12.907 13.8052L12.9851 14.2391L11.8612 14.4691L11.7744 14.0005Z" fill="#B1FF46"/>
<path d="M12.2343 12.3602L13.5665 12.2213L13.7661 12.5034L12.4469 12.6596L12.2343 12.3602Z" fill="#F8F500"/>
<path d="M11.7484 11.9349L13.1109 11.8221L13.3453 11.9913L11.9957 12.1172L11.7484 11.9349Z" fill="#FFDB00"/>
<path d="M11.9956 12.1172L13.3452 11.9913L13.5665 12.2213L12.2343 12.3602L11.9956 12.1172Z" fill="#FFE600"/>
<path d="M7.79071 12.3949L8.96671 12.3775L9.17934 12.1302L8.02504 12.1258L7.79071 12.3949Z" fill="#FFEA00"/>
<path d="M10.0906 18.3703L9.8129 18.2314L9.59158 18.8737L9.85629 19.0603L10.0906 18.3703Z" fill="#00D8FF"/>
<path d="M10.8891 17.4547L10.581 17.5849L10.4075 18.405L10.7026 18.3226L10.8891 17.4547Z" fill="#16FFE1"/>
<path d="M9.6263 18.0101L9.60026 17.7194L9.41367 18.2575L9.42668 18.6003L9.6263 18.0101Z" fill="#0CF4EB"/>
<path d="M4.9267 13.6446L5.51686 13.6707L5.64704 13.1369L5.0699 13.0632L4.9267 13.6446Z" fill="#D1FF26"/>
<path d="M4.02414 12.8419L4.11961 13.163L4.29753 12.4166L4.21508 12.0391L4.02414 12.8419Z" fill="#F4F802"/>
<path d="M11.6442 13.5535L12.7898 13.393L12.907 13.8052L11.7744 14.0005L11.6442 13.5535Z" fill="#C7FF30"/>
<path d="M10.811 10.2903L10.8414 10.9455L11.1495 12.0174L11.1278 11.3795L10.811 10.2903Z" fill="#FFA700"/>
<path d="M9.81294 18.2314L9.62634 18.0101L9.42673 18.6003L9.59163 18.8737L9.81294 18.2314Z" fill="#02E8F4"/>
<path d="M11.3969 14.7686L11.232 15.2068V16.231L11.3925 15.8361L11.3969 14.7686Z" fill="#80FF77"/>
<path d="M6.60611 12.7247L7.5955 12.7334L7.79078 12.3949L6.81874 12.3559L6.60611 12.7247Z" fill="#F8F500"/>
<path d="M10.9542 14.6774L11.8611 14.4691L11.9045 14.9378L11.0019 15.1895L10.9542 14.6774Z" fill="#9AFF5D"/>
<path d="M11.2319 16.231L10.9802 16.5217L10.8891 17.4547L11.1321 17.2117L11.2319 16.231Z" fill="#49FFAD"/>
<path d="M5.64706 13.1369L6.43684 13.1586L6.60608 12.7247L5.83366 12.6596L5.64706 13.1369Z" fill="#E7FF0F"/>
<path d="M4.52316 13.5579L4.92673 13.6446L5.06993 13.0588L4.67938 12.9199L4.52316 13.5579Z" fill="#DBFF1C"/>
<path d="M11.4792 13.1369L12.6336 13.0068L12.7898 13.393L11.6441 13.5535L11.4792 13.1369Z" fill="#DEFF19"/>
<path d="M8.02502 12.1258L9.17932 12.1302L9.42233 11.9523L8.28539 11.9306L8.02502 12.1258Z" fill="#FFD700"/>
<path d="M4.11954 13.163L4.26708 13.4016L4.43632 12.7073L4.29745 12.4166L4.11954 13.163Z" fill="#EBFF0C"/>
<path d="M4.1456 11.5834L4.21503 12.0391L4.48841 11.323L4.43634 10.8197L4.1456 11.5834Z" fill="#FFB900"/>
<path d="M9.95609 11.8134L11.2275 11.783L11.4879 11.8221L10.2381 11.8611L9.95609 11.8134Z" fill="#FFCC00"/>
<path d="M4.26715 13.4016L4.52318 13.5579L4.6794 12.92L4.43639 12.7073L4.26715 13.4016Z" fill="#E1FF16"/>
<path d="M11.2754 12.7637L12.447 12.6596L12.6336 13.0067L11.4793 13.1369L11.2754 12.7637Z" fill="#F1FC06"/>
<path d="M10.581 17.5849L10.2512 17.6022L10.0906 18.3703L10.4074 18.405L10.581 17.5849Z" fill="#1CFFDB"/>
<path d="M10.8588 14.1654L11.7744 14.0005L11.8612 14.4691L10.9542 14.6774L10.8588 14.1654Z" fill="#B7FF40"/>
<path d="M10.2382 11.8611L11.4879 11.8221L11.7483 11.9349L10.5159 11.9826L10.2382 11.8611Z" fill="#FFCC00"/>
<path d="M4.36255 10.2469L4.43632 10.8197L4.80517 10.1644L4.74876 9.55689L4.36255 10.2469Z" fill="#FF7A00"/>
<path d="M11.0453 12.4383L12.2343 12.3602L12.4469 12.6596L11.2753 12.7638L11.0453 12.4383Z" fill="#FFEA00"/>
<path d="M6.8187 12.3558L7.79073 12.3949L8.02506 12.1258L7.07472 12.0564L6.8187 12.3558Z" fill="#FFDB00"/>
<path d="M10.516 11.9826L11.7484 11.9349L11.9957 12.1172L10.7893 12.1779L10.516 11.9826Z" fill="#FFD000"/>
<path d="M5.06995 13.0632L5.64709 13.1369L5.83369 12.6596L5.26956 12.5381L5.06995 13.0632Z" fill="#F4F802"/>
<path d="M10.7893 12.1779L11.9957 12.1172L12.2343 12.3602L11.0453 12.4383L10.7893 12.1779Z" fill="#FFDB00"/>
<path d="M10.4031 9.27049L10.4378 9.95178L10.8414 10.9455L10.811 10.2903L10.4031 9.27049Z" fill="#FF6C00"/>
<path d="M11.1495 12.0174L11.093 12.6075L11.2927 13.6837L11.3578 13.1283L11.1495 12.0174Z" fill="#FBF100"/>
<path d="M9.76521 17.3549L9.72616 17.1162L9.60031 17.7194L9.62635 18.0101L9.76521 17.3549Z" fill="#30FFC7"/>
<path d="M5.83362 12.6596L6.60604 12.7247L6.81867 12.3558L6.06795 12.256L5.83362 12.6596Z" fill="#FFE600"/>
<path d="M10.2512 17.6022L9.96047 17.5198L9.81293 18.2314L10.0907 18.3703L10.2512 17.6022Z" fill="#23FFD4"/>
<path d="M9.96051 17.5198L9.76524 17.3549L9.62637 18.0101L9.81297 18.2314L9.96051 17.5198Z" fill="#29FFCE"/>
<path d="M10.7155 13.6794L11.6441 13.5535L11.7743 14.0005L10.8587 14.1654L10.7155 13.6794Z" fill="#D1FF26"/>
<path d="M4.21506 12.039L4.29751 12.4166L4.55353 11.744L4.48844 11.323L4.21506 12.039Z" fill="#FFC400"/>
<path d="M10.9803 16.5217L10.6678 16.704L10.5811 17.5849L10.8848 17.4547L10.9803 16.5217Z" fill="#4DFFAA"/>
<path d="M4.67941 12.92L5.06996 13.0632L5.26958 12.5381L4.89638 12.3471L4.67941 12.92Z" fill="#FEED00"/>
<path d="M11.2927 13.6837L11.1364 14.161L11.2319 15.2068L11.3968 14.7685L11.2927 13.6837Z" fill="#BEFF39"/>
<path d="M7.07471 12.0564L8.02505 12.1258L8.28542 11.9306L7.35677 11.8438L7.07471 12.0564Z" fill="#FFC800"/>
<path d="M11.2319 15.2068L10.9845 15.5453L10.9802 16.5217L11.2319 16.231V15.2068Z" fill="#80FF77"/>
<path d="M10.5289 13.2237L11.4793 13.1369L11.6485 13.5535L10.7155 13.6794L10.5289 13.2237Z" fill="#E7FF0F"/>
<path d="M4.29749 12.4166L4.43635 12.7073L4.67501 12.0868L4.55351 11.744L4.29749 12.4166Z" fill="#FFD300"/>
<path d="M9.90842 8.35053L9.95181 9.05352L10.4378 9.95179L10.4031 9.27049L9.90842 8.35053Z" fill="#FF3400"/>
<path d="M4.43637 12.7073L4.67938 12.92L4.89635 12.3472L4.67504 12.0868L4.43637 12.7073Z" fill="#FFDE00"/>
<path d="M5.26947 12.5381L5.8336 12.6596L6.06793 12.256L5.5255 12.0911L5.26947 12.5381Z" fill="#FFD700"/>
<path d="M6.06802 12.256L6.81875 12.3559L7.07477 12.0564L6.34141 11.9262L6.06802 12.256Z" fill="#FFCC00"/>
<path d="M4.43637 10.8197L4.48844 11.323L4.8356 10.7068L4.80522 10.1644L4.43637 10.8197Z" fill="#FF8600"/>
<path d="M10.3076 12.8158L11.2753 12.7638L11.4792 13.1369L10.5289 13.2237L10.3076 12.8158Z" fill="#FBF100"/>
<path d="M9.83462 16.6475L9.78689 16.474L9.72614 17.1162L9.76519 17.3549L9.83462 16.6475Z" fill="#56FFA0"/>
<path d="M10.6678 16.7039L10.3337 16.7777L10.2512 17.6022L10.581 17.5849L10.6678 16.7039Z" fill="#4DFFAA"/>
<path d="M10.8414 10.9455L10.7893 11.5704L11.0931 12.6075L11.1495 12.0174L10.8414 10.9455Z" fill="#FFAE00"/>
<path d="M7.35678 11.8394L8.28543 11.9306L8.56749 11.8134L7.66922 11.7136L7.35678 11.8394Z" fill="#FFB900"/>
<path d="M10.0516 12.46L11.0453 12.4383L11.2753 12.7637L10.3076 12.8158L10.0516 12.46Z" fill="#FFDB00"/>
<path d="M10.0342 16.756L9.8346 16.6475L9.76517 17.3549L9.96044 17.5198L10.0342 16.756Z" fill="#53FFA4"/>
<path d="M10.3336 16.7777L10.0342 16.756L9.96045 17.5198L10.2512 17.6022L10.3336 16.7777Z" fill="#50FFA7"/>
<path d="M4.89639 12.3472L5.26958 12.5381L5.52561 12.0911L5.17846 11.8611L4.89639 12.3472Z" fill="#FFC800"/>
<path d="M4.48837 11.323L4.55346 11.744L4.87892 11.1668L4.83553 10.7068L4.48837 11.323Z" fill="#FF9800"/>
<path d="M6.34573 11.9262L7.07476 12.0564L7.35682 11.8438L6.65817 11.6876L6.34573 11.9262Z" fill="#FFB600"/>
<path d="M10.9846 15.5453L10.6678 15.784V16.7039L10.9803 16.5217L10.9846 15.5453Z" fill="#80FF77"/>
<path d="M7.66925 11.7136L8.56751 11.8134L8.86693 11.7787L7.99905 11.6745L7.66925 11.7136Z" fill="#FFAE00"/>
<path d="M5.5256 12.0911L6.06804 12.256L6.34142 11.9262L5.82937 11.731L5.5256 12.0911Z" fill="#FFB900"/>
<path d="M11.093 12.6075L10.9412 13.1283L11.1364 14.161L11.2927 13.6837L11.093 12.6075Z" fill="#F8F500"/>
<path d="M4.67505 12.0868L4.89636 12.3471L5.17842 11.8611L4.97447 11.553L4.67505 12.0868Z" fill="#FFB600"/>
<path d="M4.55347 11.744L4.67497 12.0868L4.97439 11.553L4.87892 11.1668L4.55347 11.744Z" fill="#FFA700"/>
<path d="M11.1364 14.161L10.8891 14.5559L10.9845 15.5453L11.2319 15.2068L11.1364 14.161Z" fill="#BAFF3C"/>
<path d="M9.83023 15.9142L9.7825 15.8013L9.78684 16.474L9.83457 16.6475L9.83023 15.9142Z" fill="#80FF77"/>
<path d="M10.4378 9.95178L10.3987 10.6027L10.7893 11.5704L10.8414 10.9499L10.4378 9.95178Z" fill="#FF7300"/>
<path d="M6.65811 11.6876L7.35676 11.8438L7.66919 11.7136L6.99659 11.5487L6.65811 11.6876Z" fill="#FFA300"/>
<path d="M10.6678 15.784L10.3336 15.9185V16.7777L10.6678 16.704V15.784Z" fill="#80FF77"/>
<path d="M5.17407 11.8568L5.52557 12.0911L5.82933 11.731L5.50821 11.4662L5.17407 11.8568Z" fill="#FFA700"/>
<path d="M10.0342 15.9576L9.83026 15.9142L9.8346 16.6475L10.0342 16.756V15.9576Z" fill="#80FF77"/>
<path d="M10.3337 15.9185L10.0343 15.9576V16.756L10.3337 16.7777V15.9185Z" fill="#80FF77"/>
<path d="M5.82935 11.731L6.34574 11.9262L6.65818 11.6876L6.17216 11.4706L5.82935 11.731Z" fill="#FF9F00"/>
<path d="M9.95181 9.05352L9.93011 9.73481L10.3988 10.6027L10.4378 9.95178L9.95181 9.05352Z" fill="#FF3F00"/>
<path d="M4.83554 10.7068L4.87893 11.1668L5.26514 10.7068L5.25212 10.2078L4.83554 10.7068Z" fill="#FF6F00"/>
<path d="M10.7893 11.5704L10.6504 12.1345L10.9411 13.1283L11.093 12.6075L10.7893 11.5704Z" fill="#FFB600"/>
<path d="M6.99664 11.5487L7.66926 11.7136L7.99471 11.6745L7.35682 11.5053L6.99664 11.5487Z" fill="#FF9800"/>
<path d="M4.97446 11.553L5.17407 11.8568L5.50821 11.4662L5.33463 11.1234L4.97446 11.553Z" fill="#FF9400"/>
<path d="M10.8892 14.5559L10.5811 14.8467L10.6678 15.784L10.9846 15.5453L10.8892 14.5559Z" fill="#B7FF40"/>
<path d="M9.75646 15.1678L9.71741 15.1157L9.7825 15.8014L9.83023 15.9142L9.75646 15.1678Z" fill="#A7FF50"/>
<path d="M4.87894 11.1668L4.9744 11.553L5.33458 11.1234L5.26515 10.7068L4.87894 11.1668Z" fill="#FF8200"/>
<path d="M10.9412 13.1283L10.7025 13.5709L10.8891 14.5516L11.1365 14.161L10.9412 13.1283Z" fill="#F1FC06"/>
<path d="M7.35678 11.5053L7.99467 11.6745L8.33315 11.731L7.72563 11.5661L7.35678 11.5053Z" fill="#FF9400"/>
<path d="M6.17215 11.4706L6.65817 11.6876L6.99664 11.5487L6.54534 11.3144L6.17215 11.4706Z" fill="#FF8D00"/>
<path d="M5.50815 11.4663L5.82927 11.731L6.17208 11.4706L5.88134 11.1798L5.50815 11.4663Z" fill="#FF8D00"/>
<path d="M9.95618 15.1461L9.75656 15.1678L9.83033 15.9142L10.0343 15.9576L9.95618 15.1461Z" fill="#ADFF49"/>
<path d="M10.581 14.8467L10.2512 15.0419L10.3337 15.9185L10.6678 15.784L10.581 14.8467Z" fill="#B4FF43"/>
<path d="M10.2512 15.0463L9.95609 15.1461L10.0342 15.9576L10.3336 15.9185L10.2512 15.0463Z" fill="#B1FF46"/>
<path d="M10.3988 10.6027L10.2773 11.2059L10.6505 12.1345L10.7893 11.5704L10.3988 10.6027Z" fill="#FF7E00"/>
<path d="M9.61326 14.4301L9.58722 14.4431L9.7174 15.1157L9.75646 15.1678L9.61326 14.4301Z" fill="#CEFF29"/>
<path d="M5.33456 11.1234L5.50814 11.4662L5.88133 11.1798L5.74247 10.811L5.33456 11.1234Z" fill="#FF7700"/>
<path d="M6.54535 11.3144L6.99665 11.5487L7.35682 11.5053L6.94024 11.2666L6.54535 11.3144Z" fill="#FF8200"/>
<path d="M5.25214 10.2078L5.26515 10.7068L5.70344 10.3684L5.7208 9.8433L5.25214 10.2078Z" fill="#FF4A00"/>
<path d="M10.7025 13.5709L10.4031 13.9224L10.581 14.8467L10.8891 14.5559L10.7025 13.5709Z" fill="#EBFF0C"/>
<path d="M5.26523 10.7068L5.33466 11.1234L5.74257 10.811L5.70351 10.3684L5.26523 10.7068Z" fill="#FF6000"/>
<path d="M5.88138 11.1798L6.17212 11.4706L6.54531 11.3144L6.28929 11.0063L5.88138 11.1798Z" fill="#FF7700"/>
<path d="M10.6505 12.1345L10.4248 12.6249L10.7025 13.5709L10.9412 13.1283L10.6505 12.1345Z" fill="#FFC100"/>
<path d="M9.79988 14.3433L9.61328 14.4301L9.75648 15.1678L9.9561 15.1461L9.79988 14.3433Z" fill="#D7FF1F"/>
<path d="M9.93014 9.73481L9.82166 10.3727L10.2773 11.2059L10.3988 10.6027L9.93014 9.73481Z" fill="#FF4A00"/>
<path d="M6.94019 11.2666L7.35677 11.5053L7.72562 11.5661L7.34375 11.3361L6.94019 11.2666Z" fill="#FF7A00"/>
<path d="M9.40498 13.7184L9.3963 13.7922L9.58724 14.4431L9.61327 14.4301L9.40498 13.7184Z" fill="#F4F802"/>
<path d="M10.4031 13.9223L10.082 14.1784L10.2469 15.0463L10.581 14.8466L10.4031 13.9223Z" fill="#E4FF13"/>
<path d="M10.082 14.1784L9.79996 14.3433L9.95618 15.1461L10.2469 15.0463L10.082 14.1784Z" fill="#DEFF19"/>
<path d="M5.74258 10.811L5.88145 11.1798L6.28935 11.0063L6.18521 10.6244L5.74258 10.811Z" fill="#FF6000"/>
<path d="M7.34381 11.3361L7.72568 11.5661L8.09453 11.7266L7.74738 11.5096L7.34381 11.3361Z" fill="#FF7E00"/>
<path d="M6.28925 11.0063L6.54527 11.3144L6.94016 11.2666L6.71885 10.9585L6.28925 11.0063Z" fill="#FF6C00"/>
<path d="M5.72079 9.8433L5.70343 10.3684L6.18077 10.1644L6.2285 9.62633L5.72079 9.8433Z" fill="#FF3000"/>
<path d="M10.2772 11.2059L10.0689 11.744L10.4247 12.6249L10.6504 12.1345L10.2772 11.2059Z" fill="#FF8900"/>
<path d="M10.4248 12.6249L10.1384 13.0284L10.4031 13.9224L10.7025 13.5709L10.4248 12.6249Z" fill="#FFC800"/>
<path d="M5.70343 10.3684L5.74249 10.811L6.18511 10.6244L6.18077 10.1644L5.70343 10.3684Z" fill="#FF4A00"/>
<path d="M9.13596 13.0588L9.14897 13.189L9.39632 13.7922L9.405 13.7184L9.13596 13.0588Z" fill="#FFD300"/>
<path d="M9.56993 13.5752L9.40503 13.7184L9.61332 14.4301L9.79992 14.3433L9.56993 13.5752Z" fill="#FEED00"/>
<path d="M6.71893 10.9585L6.94024 11.2666L7.34381 11.3361L7.16156 11.028L6.71893 10.9585Z" fill="#FF6400"/>
<path d="M10.1384 13.0285L9.83899 13.3452L10.082 14.1784L10.4031 13.9224L10.1384 13.0285Z" fill="#FFD300"/>
<path d="M6.18512 10.6244L6.28927 11.0063L6.71887 10.9585L6.65378 10.568L6.18512 10.6244Z" fill="#FF5200"/>
<path d="M9.83893 13.3452L9.56989 13.5752L9.79988 14.3476L10.0819 14.1784L9.83893 13.3452Z" fill="#FFE200"/>
<path d="M8.81049 12.4643L8.84954 12.6466L9.14896 13.189L9.13594 13.0588L8.81049 12.4643Z" fill="#FFB200"/>
<path d="M9.82158 10.3727L9.63498 10.9455L10.0689 11.744L10.2772 11.2059L9.82158 10.3727Z" fill="#FF5900"/>
<path d="M7.1615 11.028L7.34375 11.3361L7.74732 11.5096L7.60412 11.2232L7.1615 11.028Z" fill="#FF6400"/>
<path d="M6.22852 9.62633L6.18079 10.1644L6.6885 10.1037L6.77095 9.56123L6.22852 9.62633Z" fill="#FF2200"/>
<path d="M9.27916 12.8549L9.13596 13.0588L9.405 13.7184L9.5699 13.5752L9.27916 12.8549Z" fill="#FFC400"/>
<path d="M6.18079 10.1644L6.18513 10.6244L6.65378 10.568L6.6885 10.1037L6.18079 10.1644Z" fill="#FF3800"/>
<path d="M10.069 11.744L9.79996 12.1996L10.1384 13.0284L10.4248 12.6249L10.069 11.744Z" fill="#FF9400"/>
<path d="M8.44165 11.9479L8.51108 12.1736L8.84955 12.6466L8.8105 12.4643L8.44165 11.9479Z" fill="#FF9400"/>
<path d="M7.60416 11.2232L7.74736 11.5096L8.14226 11.7917L8.03377 11.5313L7.60416 11.2232Z" fill="#FF6C00"/>
<path d="M8.03375 11.5313L8.14224 11.7917L8.5111 12.1736L8.44167 11.9479L8.03375 11.5313Z" fill="#FF7E00"/>
<path d="M6.65384 10.568L6.71893 10.9585L7.16155 11.028L7.13552 10.6461L6.65384 10.568Z" fill="#FF4A00"/>
<path d="M9.52221 12.5685L9.27921 12.8549L9.57429 13.5752L9.83899 13.3452L9.52221 12.5685Z" fill="#FFB200"/>
<path d="M9.80422 12.1996L9.52216 12.5685L9.83894 13.3452L10.1427 13.0284L9.80422 12.1996Z" fill="#FFA300"/>
<path d="M8.92331 12.204L8.81049 12.4643L9.13594 13.0588L9.27914 12.8549L8.92331 12.204Z" fill="#FF9F00"/>
<path d="M9.63497 10.9455L9.3963 11.4489L9.79987 12.1996L10.0689 11.744L9.63497 10.9455Z" fill="#FF6800"/>
<path d="M6.68855 10.1037L6.65384 10.568L7.13552 10.6461L7.20929 10.1861L6.68855 10.1037Z" fill="#FF3000"/>
<path d="M7.13544 10.6461L7.16147 11.028L7.6041 11.2232L7.61711 10.8587L7.13544 10.6461Z" fill="#FF4A00"/>
<path d="M6.77099 9.56123L6.68854 10.1037L7.20927 10.1861L7.32644 9.64802L6.77099 9.56123Z" fill="#FF1A00"/>
<path d="M8.5241 11.6485L8.44165 11.9479L8.8105 12.4643L8.92766 12.2039L8.5241 11.6485Z" fill="#FF7E00"/>
<path d="M7.61718 10.8587L7.60416 11.2232L8.03377 11.5313L8.0815 11.1929L7.61718 10.8587Z" fill="#FF5500"/>
<path d="M9.14031 11.8698L8.92334 12.204L9.27917 12.8549L9.52218 12.5685L9.14031 11.8698Z" fill="#FF8D00"/>
<path d="M8.08149 11.1929L8.03375 11.5313L8.44167 11.9479L8.52412 11.6485L8.08149 11.1929Z" fill="#FF6800"/>
<path d="M9.39635 11.4489L9.14032 11.8698L9.52219 12.5685L9.80425 12.1996L9.39635 11.4489Z" fill="#FF7A00"/>
<path d="M7.20921 10.1861L7.13544 10.6461L7.61711 10.8587L7.7256 10.4118L7.20921 10.1861Z" fill="#FF3400"/>
<path d="M7.32642 9.64803L7.20926 10.1861L7.72565 10.4118L7.88187 9.89103L7.32642 9.64803Z" fill="#FF1A00"/>
<path d="M12.23 3.76375L10.85 3.36452L10.9542 3.4947L12.2387 3.88091L12.23 3.76375Z" fill="#ED0400"/>
<path d="M12.2386 3.8809L10.9542 3.49469L11.0583 3.78543L12.2473 4.14561L12.2386 3.8809Z" fill="#F10800"/>
<path d="M12.2474 4.14561L11.0584 3.78544L11.1582 4.21938L12.2561 4.54918L12.2474 4.14561Z" fill="#FF1300"/>
<path d="M12.256 4.54918L11.1581 4.21938L11.2493 4.79219L12.2647 5.0786L12.256 4.54918Z" fill="#FF2900"/>
<path d="M12.2647 5.07859L11.2493 4.79219L11.3361 5.4865L12.2691 5.72517L12.2647 5.07859Z" fill="#FF4700"/>
<path d="M11.2493 4.79219L10.4031 4.62729L10.5767 5.36065L11.3361 5.4865L11.2493 4.79219Z" fill="#FF3400"/>
<path d="M10.403 4.62729L9.7608 4.58823L10.0212 5.36065H10.5766L10.403 4.62729Z" fill="#FF2200"/>
<path d="M9.76081 4.58823L9.33121 4.67936L9.67402 5.47348L10.0212 5.36065L9.76081 4.58823Z" fill="#FF1300"/>
<path d="M4.26708 5.52121L4.14124 6.15477L4.64461 5.52555L4.7531 4.90501L4.26708 5.52121Z" fill="#FF1600"/>
<path d="M4.14124 6.15478L4.22369 6.80569L4.72706 6.17647L4.64461 5.52556L4.14124 6.15478Z" fill="#FF1A00"/>
<path d="M4.22375 6.80569L4.36262 7.49566L4.86165 6.87946L4.72713 6.17647L4.22375 6.80569Z" fill="#FF1E00"/>
<path d="M4.36255 7.49566L4.51877 8.20299L5.00912 7.5998L4.86158 6.87946L4.36255 7.49566Z" fill="#FF2500"/>
<path d="M4.5188 8.20299L4.65332 8.8973L5.13066 8.31582L5.00916 7.59981L4.5188 8.20299Z" fill="#FF3000"/>
<path d="M4.65335 8.8973L4.74882 9.55689L5.2088 9.00144L5.13069 8.31581L4.65335 8.8973Z" fill="#FF3B00"/>
<path d="M4.74875 9.5569L4.80516 10.1644L5.24344 9.63935L5.20873 9.00145L4.74875 9.5569Z" fill="#FF4A00"/>
<path d="M4.80524 10.1644L4.83561 10.7068L5.2522 10.2078L5.24352 9.63934L4.80524 10.1644Z" fill="#FF5D00"/>
<path d="M5.20877 9.00144L5.24349 9.63934L5.73818 9.24879L5.7295 8.59354L5.20877 9.00144Z" fill="#FF2500"/>
<path d="M5.24353 9.63934L5.25221 10.2078L5.72087 9.8433L5.73823 9.24879L5.24353 9.63934Z" fill="#FF3800"/>
<path d="M5.73824 9.2488L5.72089 9.8433L6.2286 9.62633L6.28067 9.01881L5.73824 9.2488Z" fill="#FF1A00"/>
<path d="M9.39196 8.98409L9.30518 9.65236L9.82157 10.3727L9.93005 9.73481L9.39196 8.98409Z" fill="#FF1E00"/>
<path d="M9.30524 9.65236L9.14468 10.2599L9.63504 10.9455L9.82164 10.3727L9.30524 9.65236Z" fill="#FF3000"/>
<path d="M10.85 3.36452L9.61328 3.10415L9.81724 3.24735L10.9542 3.4947L10.85 3.36452Z" fill="#D10000"/>
<path d="M10.9542 3.49469L9.81729 3.24734L10.0212 3.55544L11.0584 3.78543L10.9542 3.49469Z" fill="#D60000"/>
<path d="M9.61335 3.10415L8.5632 3L8.8713 3.14754L9.8173 3.24735L9.61335 3.10415Z" fill="#BB0000"/>
<path d="M11.0583 3.78544L10.0212 3.55545L10.2165 4.01977L11.1581 4.21938L11.0583 3.78544Z" fill="#E40000"/>
<path d="M11.1581 4.21938L10.2165 4.01977L10.4031 4.62729L11.2492 4.79219L11.1581 4.21938Z" fill="#FF1300"/>
<path d="M9.81721 3.24734L8.87122 3.14754L9.17932 3.46866L10.0212 3.55544L9.81721 3.24734Z" fill="#BF0000"/>
<path d="M8.56318 3L7.73001 3.05207L8.14226 3.19961L8.87128 3.14754L8.56318 3Z" fill="#A40000"/>
<path d="M10.0212 3.55545L9.17932 3.46866L9.47874 3.95468L10.2164 4.01977L10.0212 3.55545Z" fill="#CD0000"/>
<path d="M10.2165 4.01977L9.47876 3.95468L9.76082 4.58824L10.4031 4.62729L10.2165 4.01977Z" fill="#E80000"/>
<path d="M7.33072 3.08679L6.63641 3.30377L7.12677 3.26037L7.72995 3.05208L7.33072 3.08679Z" fill="#9F0000"/>
<path d="M8.87127 3.14754L8.14224 3.19961L8.55449 3.52507L9.17937 3.46866L8.87127 3.14754Z" fill="#A80000"/>
<path d="M9.17935 3.46866L8.55447 3.52507L8.9537 4.02411L9.47878 3.95468L9.17935 3.46866Z" fill="#B60000"/>
<path d="M6.17214 3.53375L5.62537 3.9243L6.1678 3.67261L6.63646 3.30376L6.17214 3.53375Z" fill="#B20000"/>
<path d="M9.47884 3.95468L8.95377 4.02411L9.3313 4.67937L9.7609 4.58824L9.47884 3.95468Z" fill="#D60000"/>
<path d="M7.73002 3.05208L7.12683 3.25603L7.63455 3.39923L8.14227 3.19962L7.73002 3.05208Z" fill="#960000"/>
<path d="M8.14221 3.19962L7.63449 3.39923L8.14221 3.72469L8.55446 3.52507L8.14221 3.19962Z" fill="#960000"/>
<path d="M5.13064 4.35391L4.75311 4.90502L5.30422 4.44937L5.62534 3.9243L5.13064 4.35391Z" fill="#D10000"/>
<path d="M6.63645 3.30376L6.16779 3.67261L6.74059 3.61186L7.1268 3.26037L6.63645 3.30376Z" fill="#960000"/>
<path d="M8.55449 3.52507L8.14224 3.72468L8.6326 4.22806L8.95372 4.02411L8.55449 3.52507Z" fill="#A80000"/>
<path d="M8.95369 4.02411L8.63257 4.22806L9.10123 4.89634L9.33122 4.67937L8.95369 4.02411Z" fill="#C80000"/>
<path d="M9.33128 4.67937L9.10129 4.89634L9.52655 5.70347L9.67843 5.47348L9.33128 4.67937Z" fill="#F10800"/>
<path d="M7.12684 3.26037L6.74063 3.61186L7.33079 3.74205L7.63456 3.39923L7.12684 3.26037Z" fill="#890000"/>
<path d="M5.62538 3.9243L5.30426 4.44937L5.90744 4.18032L6.16781 3.67261L5.62538 3.9243Z" fill="#A80000"/>
<path d="M7.63448 3.39923L7.33072 3.74205L7.92522 4.05883L8.14219 3.72469L7.63448 3.39923Z" fill="#890000"/>
<path d="M8.14223 3.72469L7.92526 4.05882L8.49807 4.55786L8.63259 4.22806L8.14223 3.72469Z" fill="#9B0000"/>
<path d="M6.16781 3.67261L5.90744 4.18033L6.54534 4.09788L6.74061 3.61186L6.16781 3.67261Z" fill="#8D0000"/>
<path d="M9.10128 4.89634L9.04053 5.2218L9.53522 6.03761L9.52654 5.70347L9.10128 4.89634Z" fill="#E80000"/>
<path d="M8.63263 4.22806L8.49811 4.55786L9.04054 5.22179L9.10129 4.89633L8.63263 4.22806Z" fill="#BB0000"/>
<path d="M4.75311 4.90501L4.64462 5.52555L5.22177 5.06123L5.30422 4.44937L4.75311 4.90501Z" fill="#D10000"/>
<path d="M6.74062 3.61186L6.54535 4.09788L7.20494 4.20636L7.33079 3.74205L6.74062 3.61186Z" fill="#800000"/>
<path d="M5.30428 4.44937L5.22183 5.06124L5.85105 4.77483L5.90747 4.18033L5.30428 4.44937Z" fill="#A40000"/>
<path d="M7.33074 3.74205L7.2049 4.20637L7.86449 4.51013L7.92524 4.05883L7.33074 3.74205Z" fill="#840000"/>
<path d="M7.92095 4.05882L7.86453 4.51012L8.50243 4.99614L8.49809 4.55786L7.92095 4.05882Z" fill="#920000"/>
<path d="M9.04053 5.22179L9.10562 5.6514L9.65673 6.45853L9.53522 6.03761L9.04053 5.22179Z" fill="#DF0000"/>
<path d="M8.49811 4.55786L8.50245 4.99615L9.10563 5.6514L9.04054 5.2218L8.49811 4.55786Z" fill="#B20000"/>
<path d="M5.90746 4.18033L5.85104 4.77917L6.51932 4.6837L6.54535 4.09788L5.90746 4.18033Z" fill="#890000"/>
<path d="M4.64899 5.52555L4.7271 6.17647L5.2999 5.71649L5.22179 5.06123L4.64899 5.52555Z" fill="#D10000"/>
<path d="M6.54535 4.09788L6.51932 4.6837L7.20495 4.78351V4.20636L6.54535 4.09788Z" fill="#800000"/>
<path d="M5.22183 5.06124L5.29994 5.71649L5.92916 5.43443L5.85105 4.77917L5.22183 5.06124Z" fill="#A80000"/>
<path d="M7.2049 4.20636V4.78351L7.88619 5.07425L7.86449 4.51012L7.2049 4.20636Z" fill="#800000"/>
<path d="M9.10562 5.6514L9.18373 6.20251L9.75654 7.00096L9.65673 6.45853L9.10562 5.6514Z" fill="#DF0000"/>
<path d="M7.86453 4.51012L7.88623 5.07425L8.5545 5.55159L8.50243 4.99614L7.86453 4.51012Z" fill="#920000"/>
<path d="M8.50238 4.99614L8.55445 5.55159L9.18367 6.2025L9.10556 5.6514L8.50238 4.99614Z" fill="#B20000"/>
<path d="M5.85104 4.77917L5.92915 5.43443L6.59309 5.3433L6.51932 4.6837L5.85104 4.77917Z" fill="#8D0000"/>
<path d="M4.72705 6.17647L4.86157 6.87946L5.43004 6.42382L5.29985 5.71649L4.72705 6.17647Z" fill="#D60000"/>
<path d="M6.51932 4.6837L6.59309 5.3433L7.27872 5.44311L7.20061 4.78351L6.51932 4.6837Z" fill="#800000"/>
<path d="M5.2999 5.7165L5.43008 6.42382L6.05496 6.15044L5.92911 5.43443L5.2999 5.7165Z" fill="#AD0000"/>
<path d="M7.2049 4.78351L7.27867 5.4431L7.9643 5.73819L7.88619 5.07425L7.2049 4.78351Z" fill="#800000"/>
<path d="M9.18372 6.20251L9.25315 6.85777L9.82595 7.66057L9.75652 7.00097L9.18372 6.20251Z" fill="#DF0000"/>
<path d="M7.88623 5.07425L7.96434 5.73818L8.62827 6.21118L8.5545 5.55159L7.88623 5.07425Z" fill="#920000"/>
<path d="M8.55447 5.55159L8.62824 6.21119L9.25312 6.85777L9.18369 6.20251L8.55447 5.55159Z" fill="#B20000"/>
<path d="M5.92911 5.43442L6.05495 6.15043L6.71021 6.0593L6.59304 5.34329L5.92911 5.43442Z" fill="#920000"/>
<path d="M4.8616 6.87946L5.00914 7.59981L5.56459 7.15719L5.43007 6.42382L4.8616 6.87946Z" fill="#DF0000"/>
<path d="M6.59302 5.34329L6.71018 6.0593L7.38713 6.15911L7.27865 5.4431L6.59302 5.34329Z" fill="#840000"/>
<path d="M5.43008 6.42382L5.56461 7.15719L6.17646 6.89248L6.05496 6.15044L5.43008 6.42382Z" fill="#BB0000"/>
<path d="M7.27872 5.4431L7.3872 6.16344L8.06415 6.44985L7.96434 5.73818L7.27872 5.4431Z" fill="#890000"/>
<path d="M9.25317 6.85777L9.3443 7.56075L9.90843 8.35053L9.82598 7.66056L9.25317 6.85777Z" fill="#E40000"/>
<path d="M7.96429 5.73819L8.0641 6.44986L8.7237 6.92286L8.62823 6.21119L7.96429 5.73819Z" fill="#9B0000"/>
<path d="M8.6283 6.21119L8.72376 6.92286L9.3443 7.56076L9.25318 6.85777L8.6283 6.21119Z" fill="#BB0000"/>
<path d="M5.00912 7.5998L5.13063 8.31581L5.67306 7.89055L5.56457 7.15718L5.00912 7.5998Z" fill="#F10800"/>
<path d="M6.05493 6.15043L6.17644 6.88814L6.82301 6.80569L6.71019 6.0593L6.05493 6.15043Z" fill="#9F0000"/>
<path d="M6.71024 6.0593L6.82306 6.80569L7.48266 6.90549L7.38719 6.15911L6.71024 6.0593Z" fill="#920000"/>
<path d="M5.56464 7.15718L5.67312 7.89054L6.26328 7.63018L6.17649 6.89248L5.56464 7.15718Z" fill="#C80000"/>
<path d="M7.38721 6.16345L7.48267 6.9055L8.1466 7.1919L8.06415 6.44986L7.38721 6.16345Z" fill="#960000"/>
<path d="M5.13068 8.31581L5.20879 9.00144L5.72952 8.59353L5.67311 7.89054L5.13068 8.31581Z" fill="#FF1300"/>
<path d="M9.3443 7.56074L9.40071 8.27675L9.95182 9.05352L9.90843 8.35052L9.3443 7.56074Z" fill="#F10800"/>
<path d="M8.06418 6.44985L8.14663 7.19189L8.7932 7.65187L8.72377 6.92285L8.06418 6.44985Z" fill="#A40000"/>
<path d="M8.72369 6.92285L8.79313 7.65188L9.40065 8.27676L9.34423 7.56075L8.72369 6.92285Z" fill="#C40000"/>
<path d="M6.17651 6.89248L6.2633 7.63019L6.88818 7.55208L6.81875 6.80569L6.17651 6.89248Z" fill="#AD0000"/>
<path d="M5.67313 7.89055L5.72954 8.59354L6.29801 8.34619L6.26329 7.63019L5.67313 7.89055Z" fill="#DA0000"/>
<path d="M6.8187 6.80569L6.88813 7.54774L7.5347 7.64755L7.48262 6.9055L6.8187 6.80569Z" fill="#A40000"/>
<path d="M7.4826 6.90549L7.53468 7.64753L8.17691 7.92526L8.14653 7.1919L7.4826 6.90549Z" fill="#A40000"/>
<path d="M9.40065 8.27675L9.39197 8.98408L9.93006 9.73481L9.95176 9.05351L9.40065 8.27675Z" fill="#FF1300"/>
<path d="M6.26331 7.63019L6.29802 8.34619L6.9012 8.27242L6.88819 7.54774L6.26331 7.63019Z" fill="#C40000"/>
<path d="M8.14658 7.1919L8.17695 7.92527L8.80185 8.37658L8.79317 7.65189L8.14658 7.1919Z" fill="#B60000"/>
<path d="M8.79315 7.65187L8.80183 8.37656L9.39199 8.98409L9.40067 8.27675L8.79315 7.65187Z" fill="#D10000"/>
<path d="M5.72949 8.59353L5.73817 9.24879L6.2806 9.0188L6.29796 8.34618L5.72949 8.59353Z" fill="#F10800"/>
<path d="M6.88815 7.54774L6.90117 8.27242L7.52171 8.36788L7.53473 7.64754L6.88815 7.54774Z" fill="#B60000"/>
<path d="M6.298 8.34619L6.28064 9.01881L6.85345 8.94504L6.90118 8.27242L6.298 8.34619Z" fill="#DA0000"/>
<path d="M7.53475 7.64754L7.52173 8.36789L8.13793 8.6326L8.17698 7.92526L7.53475 7.64754Z" fill="#BB0000"/>
<path d="M8.17693 7.92525L8.13788 8.63259L8.74107 9.06653L8.80182 8.37656L8.17693 7.92525Z" fill="#C80000"/>
<path d="M8.80178 8.37657L8.74103 9.06655L9.30516 9.65237L9.39194 8.9841L8.80178 8.37657Z" fill="#E40000"/>
<path d="M6.90113 8.27242L6.85339 8.94504L7.44356 9.0405L7.52167 8.36789L6.90113 8.27242Z" fill="#CD0000"/>
<path d="M6.28059 9.01881L6.22852 9.62633L6.77095 9.56124L6.8534 8.94504L6.28059 9.01881Z" fill="#F10800"/>
<path d="M7.52168 8.36788L7.44357 9.0405L8.03374 9.29219L8.13788 8.63259L7.52168 8.36788Z" fill="#D10000"/>
<path d="M6.85342 8.94504L6.77097 9.56124L7.32641 9.64803L7.44358 9.04051L6.85342 8.94504Z" fill="#E80000"/>
<path d="M8.1379 8.63259L8.03375 9.29653L8.60656 9.70443L8.74109 9.06654L8.1379 8.63259Z" fill="#DF0000"/>
<path d="M8.74112 9.06654L8.6066 9.70443L9.14469 10.2599L9.30525 9.64802L8.74112 9.06654Z" fill="#FA0F00"/>
<path d="M7.44361 9.0405L7.32645 9.64803L7.88189 9.89103L8.03377 9.29219L7.44361 9.0405Z" fill="#ED0400"/>
<path d="M9.1447 10.2599L8.93207 10.8023L9.39639 11.4489L9.63506 10.9455L9.1447 10.2599Z" fill="#FF4300"/>
<path d="M8.03375 9.29219L7.88187 9.89103L8.4243 10.2772L8.60655 9.70444L8.03375 9.29219Z" fill="#FA0F00"/>
<path d="M8.60657 9.70444L8.42432 10.2772L8.93203 10.8023L9.14466 10.2599L8.60657 9.70444Z" fill="#FF2200"/>
<path d="M8.70633 11.2666L8.52408 11.6485L8.92331 12.204L9.14028 11.8698L8.70633 11.2666Z" fill="#FF6800"/>
<path d="M8.93201 10.8023L8.70636 11.2666L9.1403 11.8698L9.39633 11.4489L8.93201 10.8023Z" fill="#FF5500"/>
<path d="M7.72564 10.4118L7.61716 10.8587L8.08147 11.1929L8.22901 10.7763L7.72564 10.4118Z" fill="#FF3B00"/>
<path d="M8.22905 10.7763L8.08151 11.1929L8.52413 11.6485L8.70639 11.2666L8.22905 10.7763Z" fill="#FF4E00"/>
<path d="M7.88187 9.89103L7.72565 10.4118L8.22902 10.7763L8.4243 10.2772L7.88187 9.89103Z" fill="#FF2500"/>
<path d="M8.41997 10.2772L8.22903 10.7763L8.70637 11.2666L8.93202 10.8023L8.41997 10.2772Z" fill="#FF3800"/>
</svg>
