<svg width="24" height="24" viewBox="0 0 24 24" fill="none" xmlns="http://www.w3.org/2000/svg">
<circle cx="12" cy="12" r="12" fill="url(#paint0_linear_325_2857)"/>
<path d="M12 3L4 7.53202V16.5961L12 21.1281L19.7241 16.7537L19.8424 16.6749L19.9212 16.6355L20 16.5961V7.53202L12 3ZM12.0788 3.39409L19.2906 7.49261H9.67488L12.0788 3.39409ZM4.51232 7.61084L11.6059 3.59113L6.87685 11.7094L4.51232 7.61084ZM14.7586 7.80788H19.6453V16.0443L14.7586 7.80788ZM9.59606 7.80788H14.0887L9.59606 10.33V7.80788ZM4.31527 7.92611L9.16256 16.3202H4.31527V7.92611ZM12.3153 9.18719L14.4828 7.96552L16.6897 11.67L12.3153 9.18719ZM7.07389 11.9852L9.28079 8.20197V13.2463L7.07389 11.9852ZM12.0394 9.38424L13.931 10.4483H11.4089L12.0394 9.38424ZM9.67488 10.6453L11.6059 9.58128L10.3054 11.7882L9.67488 10.6453ZM13.1429 10.7635H14.4039V12.931L13.1429 10.7635ZM10.4631 12.1034L11.2118 10.803H12.7488L13.4581 12.064L12.67 13.3645H11.133L10.4631 12.1034ZM14.7192 10.8818L16.9261 12.1034L14.7192 15.8473V10.8818ZM9.59606 11.197L10.8571 13.3645H9.59606V11.197ZM13.6946 12.3399L14.3251 13.4433L12.3941 14.5074L13.6946 12.3399ZM17.1232 12.3793L19.5665 16.4778L12.3547 20.5764L17.1232 12.3793ZM7.31034 12.4581L11.6847 14.9409L9.43842 16.202L7.31034 12.4581ZM10.0296 13.6404H12.5517L11.9212 14.7044L10.0296 13.6404ZM14.4039 13.798V16.3596H9.87192L14.4039 13.798ZM4.70936 16.6355H14.2857L11.8818 20.734L4.70936 16.6355Z" fill="white"/>
<defs>
<linearGradient id="paint0_linear_325_2857" x1="11.9942" y1="24.2655" x2="11.9942" y2="0.091565" gradientUnits="userSpaceOnUse">
<stop stop-color="#0B2B85"/>
<stop offset="1" stop-color="#5C25A7"/>
</linearGradient>
</defs>
</svg>
