<svg width="24" height="24" viewBox="0 0 24 24" fill="none" xmlns="http://www.w3.org/2000/svg">
<circle cx="12" cy="12" r="12" fill="#012F61"/>
<path d="M9.57486 2.71231V9.78805C9.57486 10.0182 9.8048 10.2291 10.0347 10.2291C10.2647 10.2291 10.4946 10.0373 10.4946 9.78805V3.07664C10.9162 2.99994 11.4144 2.96159 11.8743 2.96159C16.4156 2.96159 20.1139 6.35564 20.5355 10.8811C20.5546 11.1112 20.7654 11.3029 20.9953 11.2646C21.2253 11.2454 21.3977 11.0345 21.3786 10.7852C21.1678 8.40741 20.0756 6.22141 18.3127 4.61069C16.5689 2.99994 14.2695 2.09869 11.8743 2.09869C11.2228 2.09869 10.5713 2.15622 9.93893 2.29045C9.72816 2.3288 9.57486 2.52055 9.57486 2.71231Z" fill="white"/>
<path d="M12.1042 20.7948C12.1042 20.8139 12.1042 20.8139 12.1042 20.8331C12.1234 21.0632 12.3341 21.255 12.5641 21.2358C14.8252 21.0824 16.9713 20.1045 18.6001 18.4937C20.2289 16.883 21.2253 14.7545 21.4169 12.4918C21.436 12.2617 21.2636 12.0508 21.0145 12.0316C20.7845 12.0124 20.5738 12.185 20.5546 12.4343C20.1905 16.6529 16.7414 20.0661 12.5066 20.3729C12.2767 20.3729 12.1042 20.5647 12.1042 20.7948Z" fill="white"/>
<path d="M11.4335 4.41893V11.4372C11.4335 11.6673 11.6252 11.8782 11.8551 11.8782C12.0851 11.8782 12.2767 11.6864 12.2767 11.4372V4.85998C15.7833 5.09009 18.6576 8.06227 18.6576 11.6672C18.6576 13.2972 18.0827 14.8696 17.0288 16.0968C16.8755 16.2694 16.8947 16.557 17.0863 16.7104C17.2588 16.8638 17.5462 16.8446 17.6995 16.672C18.8875 15.2914 19.539 13.5081 19.539 11.6864C19.539 9.63466 18.7342 7.69793 17.2971 6.24061C15.8599 4.78327 13.9246 3.97791 11.8743 3.97791C11.6252 3.97791 11.4335 4.16966 11.4335 4.41893Z" fill="#99D7FD"/>
<path d="M12.1042 16.9788C12.1042 16.998 12.1042 17.0172 12.1042 17.0364C12.1425 17.2665 12.3533 17.4391 12.5833 17.4199C15.4767 17.0556 17.642 14.6011 17.642 11.6864C17.642 10.4784 17.2779 9.34703 16.5881 8.36907C15.9174 7.4103 14.9785 6.7008 13.9054 6.27894C13.7713 6.22141 13.618 6.24059 13.503 6.33648C13.3881 6.41316 13.3114 6.54739 13.3114 6.7008V12.8178C13.3114 13.0479 13.503 13.2588 13.733 13.2588C13.9629 13.2588 14.1545 13.0671 14.1545 12.8178V7.33359C15.7258 8.17732 16.7605 9.84557 16.7605 11.6673C16.7605 14.1409 14.921 16.2502 12.4683 16.5378C12.2575 16.5762 12.1042 16.7679 12.1042 16.9788Z" fill="white"/>
<path d="M10.0156 11.2838C10.5765 11.2838 11.0312 10.8288 11.0312 10.2675C11.0312 9.70618 10.5765 9.25116 10.0156 9.25116C9.45469 9.25116 9 9.70618 9 10.2675C9 10.8288 9.45469 11.2838 10.0156 11.2838Z" fill="white"/>
<path d="M12.1042 21.7919C12.6651 21.7919 13.1198 21.3368 13.1198 20.7756C13.1198 20.2143 12.6651 19.7593 12.1042 19.7593C11.5433 19.7593 11.0887 20.2143 11.0887 20.7756C11.0887 21.3368 11.5433 21.7919 12.1042 21.7919Z" fill="white"/>
</svg>
