<svg width="24" height="24" viewBox="0 0 24 24" fill="none" xmlns="http://www.w3.org/2000/svg">
<circle cx="12" cy="12" r="12" fill="#191535"/>
<path d="M5.08048 5.21817C5.35947 4.97538 5.86893 4.92688 6.14485 5.20131C8.05704 7.10318 10.0252 9.07285 11.9258 10.9766L10.7339 12.0919C10.7339 12.0919 6.8961 8.2599 4.98235 6.33803C4.65931 6.01352 4.759 5.49794 5.08048 5.21817Z" fill="#D9D9D9"/>
<path d="M4.83203 5.57422C5.35198 5.65355 11.125 11.7051 11.125 11.7051L10.7339 12.0918C10.7339 12.0918 6.89609 8.25981 4.98234 6.33794C4.72898 6.08351 4.77343 5.74609 4.83203 5.57422Z" fill="url(#paint0_linear_778_6298)"/>
<path d="M15.5663 10.3649C16.6309 11.4202 17.6872 12.4743 18.735 13.5271C19.2539 14.0484 19.4639 15.3412 19.5295 16.0635C19.7635 18.6479 18.1616 20.0281 15.5278 19.6724C14.7361 19.5651 13.8033 19.3963 13.2117 18.8109L10.1094 15.707C10.1094 15.707 9.96093 15.5742 10.0078 15.371C10.0547 15.1679 10.2148 15.0351 10.2148 15.0351C10.2148 15.0351 11.2313 14.0826 11.5003 13.5904C11.8036 13.0363 11.0681 12.4321 10.7339 12.0918L11.918 10.9648C12.2284 11.2797 12.5315 11.7113 13.0078 11.7578C13.355 11.7916 13.5633 11.6108 13.8359 11.4296L14.9258 10.3649C15.1182 10.156 15.374 10.1842 15.5663 10.3649Z" fill="url(#paint1_linear_778_6298)"/>
<path d="M15.5259 13.1831C15.5406 13.1922 15.5445 13.2047 15.5377 13.2206C15.5342 13.2287 15.5259 13.234 15.5128 13.2365C15.4053 13.2728 15.3231 13.3203 15.2663 13.379C14.5925 14.0768 13.9056 14.7611 13.2056 15.4317C13.1263 15.5079 13.0686 15.6109 13.0327 15.7406C12.9038 15.6047 12.9942 15.4326 13.0983 15.3126C13.8097 14.5795 14.5172 13.8644 15.2663 13.1701C15.3477 13.1223 15.4342 13.1266 15.5259 13.1831Z" fill="url(#paint2_linear_778_6298)"/>
<path fill-rule="evenodd" clip-rule="evenodd" d="M15.5372 10.5759C15.5275 10.5012 15.5372 10.4309 15.5662 10.365C15.3605 10.1395 15.1191 10.1606 14.9128 10.3673C14.6222 10.6598 14.3305 10.9505 14.0377 11.2392C13.854 11.42 13.6546 11.5452 13.4417 11.6788C13.4106 11.6982 13.3793 11.7179 13.3477 11.7379C12.7706 11.855 12.4549 11.524 12.1053 11.1574C12.0432 11.0923 11.98 11.026 11.9141 10.9609L11.4023 11.4648L14.1922 14.2084C14.532 13.8755 14.9005 13.5188 15.2335 13.211C15.331 13.1219 15.4531 13.125 15.5352 13.211C15.6128 13.2924 15.9336 13.6172 15.9336 13.6172C15.9336 13.6172 16.813 14.4685 17.1816 14.9039C17.3103 15.056 17.4083 15.197 17.4614 15.4027C17.6142 15.9458 17.6464 16.4612 17.558 16.949C17.4896 17.324 16.883 17.7104 17.5819 17.8439C18.3094 17.9826 19.0205 17.5856 19.2319 16.8633C19.4593 15.9716 19.2507 14.3639 18.5489 13.6664C17.5742 12.6977 16.6027 11.7259 15.6342 10.7512C15.577 10.6934 15.5447 10.635 15.5372 10.5759Z" fill="url(#paint3_linear_778_6298)"/>
<g filter="url(#filter0_f_778_6298)">
<path d="M14.5645 11.4398L14.0166 11.9629C13.8447 12.0939 13.6584 12.192 13.4578 12.2573C13.4409 12.2626 13.4286 12.2575 13.4208 12.2419L13.357 12.1101C13.348 12.0917 13.3525 12.0775 13.3706 12.0675C13.5825 11.9512 13.7931 11.8342 14.0025 11.7164C14.101 11.6607 14.445 11.4469 14.5645 11.4398Z" fill="#EAC65E"/>
</g>
<path d="M15.5128 13.2366C15.5391 13.2427 15.5559 13.2459 15.5761 13.2656C16.1142 13.7986 16.6936 14.3274 17.1816 14.9039C17.3714 15.2808 17.4323 15.7003 17.4455 16.1128C17.4492 16.237 17.4291 16.3866 17.4272 16.5225C17.4178 17.1525 17.0053 17.5664 16.3847 17.603C15.8297 17.6353 14.9522 17.6541 14.5177 17.2261C14.0202 16.7364 13.5252 16.2413 13.0327 15.7406C13.0686 15.6109 13.1262 15.508 13.2056 15.4317C13.9056 14.7611 14.5925 14.0769 15.2662 13.3791C15.3231 13.3203 15.4053 13.2728 15.5128 13.2366Z" fill="#191535"/>
<path d="M11.1713 11.6777C11.6644 12.2412 12.1777 12.8281 12.6689 13.3903C12.8464 13.5931 12.9589 13.745 13.0064 13.8459C13.2052 14.2687 13.0725 14.7581 12.8067 15.1359C12.7285 15.3051 11.1641 16.7656 11.1641 16.7656L10.1094 15.707C10.1094 15.707 9.96094 15.5742 10.0078 15.3711C10.0547 15.168 10.2148 15.0352 10.2148 15.0352C10.2148 15.0352 11.2313 14.0826 11.5003 13.5905C11.8036 13.0364 11.0681 12.4322 10.7339 12.0919C10.8242 12.0039 11.0961 11.7415 11.1713 11.6777Z" fill="url(#paint4_linear_778_6298)"/>
<path d="M15.5663 10.365C16.6309 11.4203 17.6872 12.4744 18.735 13.5272C19.2539 14.0484 19.4639 15.3412 19.5295 16.0636C19.5495 16.2845 19.5411 16.7611 19.5042 17.4933C19.4484 18.5976 18.495 19.5984 17.3827 19.6673C16.763 19.7058 16.1283 19.7536 15.5278 19.6725C14.7361 19.5651 13.8033 19.3964 13.2117 18.8109C12.1864 17.7956 11.1639 16.775 10.1442 15.7491C10.3142 15.7016 10.4436 15.7222 10.5324 15.8109C11.462 16.7416 12.3922 17.672 13.3228 18.6023C13.905 19.1841 14.7703 19.3697 15.5616 19.463C16.5274 19.5774 17.6331 19.4398 18.414 18.8109C19.5041 17.933 19.4152 15.9401 19.0763 14.7455C18.99 14.4417 18.7767 13.8928 18.5489 13.6664C17.5742 12.6976 16.6027 11.7259 15.6342 10.7512C15.577 10.6934 15.5447 10.635 15.5372 10.5759C15.5275 10.5012 15.5372 10.4309 15.5663 10.365Z" fill="#FAD45D"/>
<g filter="url(#filter1_f_778_6298)">
<path d="M11.8191 14.1647C11.6358 14.7272 11.2134 15.0994 10.8558 15.5301C10.8452 15.543 10.8327 15.545 10.8183 15.5362C10.7208 15.4759 10.6517 15.3928 10.6111 15.2869C10.608 15.2787 10.6072 15.2698 10.6089 15.2611C10.6105 15.2524 10.6145 15.2443 10.6205 15.2376L10.9659 14.8458C11.19 14.5705 11.3861 14.2864 11.5542 13.9936C11.5902 13.9311 11.6589 13.8712 11.7605 13.8141C11.7736 13.8066 11.7875 13.8051 11.8022 13.8098C11.9531 13.8576 11.8608 14.0672 11.8191 14.1647Z" fill="url(#paint5_linear_778_6298)"/>
</g>
<defs>
<filter id="filter0_f_778_6298" x="13.2525" y="11.3398" width="1.41204" height="1.01958" filterUnits="userSpaceOnUse" color-interpolation-filters="sRGB">
<feFlood flood-opacity="0" result="BackgroundImageFix"/>
<feBlend mode="normal" in="SourceGraphic" in2="BackgroundImageFix" result="shape"/>
<feGaussianBlur stdDeviation="0.05" result="effect1_foregroundBlur_778_6298"/>
</filter>
<filter id="filter1_f_778_6298" x="10.508" y="13.7071" width="1.47739" height="1.9345" filterUnits="userSpaceOnUse" color-interpolation-filters="sRGB">
<feFlood flood-opacity="0" result="BackgroundImageFix"/>
<feBlend mode="normal" in="SourceGraphic" in2="BackgroundImageFix" result="shape"/>
<feGaussianBlur stdDeviation="0.05" result="effect1_foregroundBlur_778_6298"/>
</filter>
<linearGradient id="paint0_linear_778_6298" x1="7.86574" y1="9.20239" x2="8.22523" y2="8.83301" gradientUnits="userSpaceOnUse">
<stop stop-color="#9E8C51"/>
<stop offset="1" stop-color="#9E8C51" stop-opacity="0"/>
</linearGradient>
<linearGradient id="paint1_linear_778_6298" x1="18.0093" y1="12.7723" x2="12.3456" y2="18.5252" gradientUnits="userSpaceOnUse">
<stop stop-color="#EBC760"/>
<stop offset="1" stop-color="#DDAD0D"/>
</linearGradient>
<linearGradient id="paint2_linear_778_6298" x1="15.4298" y1="13.1831" x2="13.0746" y2="15.5538" gradientUnits="userSpaceOnUse">
<stop stop-color="#D6A200"/>
<stop offset="1" stop-color="#AD7708"/>
</linearGradient>
<linearGradient id="paint3_linear_778_6298" x1="17.6736" y1="12.4289" x2="15.0537" y2="15.2568" gradientUnits="userSpaceOnUse">
<stop stop-color="#A97309"/>
<stop offset="1" stop-color="#BD8805"/>
<stop offset="1" stop-color="#BE8A05"/>
</linearGradient>
<linearGradient id="paint4_linear_778_6298" x1="13.1021" y1="13.0385" x2="9.99866" y2="15.9871" gradientUnits="userSpaceOnUse">
<stop offset="0.664816" stop-color="#B68107"/>
<stop offset="1" stop-color="#B68107" stop-opacity="0.3"/>
</linearGradient>
<linearGradient id="paint5_linear_778_6298" x1="11.9928" y1="13.8071" x2="10.608" y2="15.5416" gradientUnits="userSpaceOnUse">
<stop stop-color="#EAC65E"/>
<stop offset="1" stop-color="#EAC65E" stop-opacity="0.5"/>
</linearGradient>
</defs>
</svg>
