<svg width="24" height="24" viewBox="0 0 24 24" fill="none" xmlns="http://www.w3.org/2000/svg">
<circle cx="12.0002" cy="12" r="12" fill="#ED6E55"/>
<path d="M5.00036 13.0365C5.00322 12.6718 5.01466 12.3078 5.02611 11.9438C5.03826 11.5655 5.05757 11.1872 5.08403 10.8096C5.10978 10.4485 5.14053 10.0881 5.18201 9.72909C5.26282 9.03614 5.37295 8.34819 5.5546 7.67312C5.66687 7.2562 5.80561 6.8493 5.99655 6.46099C6.12599 6.19711 6.27689 5.94681 6.46568 5.72012C6.48928 5.69151 6.50216 5.66005 6.51217 5.62501C6.62158 5.25958 6.75317 4.90273 6.92623 4.56162C7.08785 4.24339 7.28094 3.94733 7.53053 3.6906C7.80729 3.40527 8.13696 3.21004 8.52243 3.10992C8.74412 3.05271 8.96939 3.02125 9.19823 3.00695C9.39418 2.99479 9.5887 2.99979 9.78322 3.01267C10.09 3.03341 10.3932 3.07989 10.6936 3.14425C11.5997 3.34019 12.4543 3.67487 13.2788 4.09322C14.3673 4.64601 15.367 5.32966 16.2874 6.13131C16.7565 6.54036 17.1971 6.97802 17.604 7.45C17.6526 7.50649 17.7091 7.55369 17.7627 7.60447C18.3821 8.18086 18.9434 8.80802 19.4183 9.50955C19.7923 10.0623 20.102 10.648 20.3115 11.2838C20.4288 11.6392 20.511 12.0032 20.5504 12.3765C20.5883 12.7405 20.5804 13.103 20.5368 13.4663C20.4567 14.1385 20.2321 14.7614 19.9103 15.3514C19.4998 16.1037 18.9599 16.753 18.3306 17.3301C17.491 18.0996 16.5391 18.6974 15.5108 19.1794C15.0581 19.3918 14.5975 19.5835 14.1234 19.7437C13.8395 19.8395 13.552 19.9253 13.2624 20.0011C13.183 20.0219 13.1122 20.0605 13.0385 20.0934C12.49 20.3386 11.9243 20.5332 11.3444 20.6898C10.9882 20.7863 10.6278 20.8614 10.2624 20.915C9.98203 20.9558 9.70026 20.983 9.41706 20.9944C9.21468 21.0023 9.0123 21.0023 8.81063 20.9916C8.24996 20.9615 7.70645 20.8571 7.19727 20.609C6.78893 20.4102 6.46568 20.1155 6.20895 19.7437C5.96222 19.3861 5.78416 18.9949 5.64041 18.5866C5.48094 18.1318 5.37009 17.6648 5.28213 17.1914C5.21633 16.8353 5.16627 16.477 5.12837 16.1173C5.09476 15.8005 5.0683 15.4823 5.04971 15.1633C5.02468 14.7328 5.01109 14.3023 5.00465 13.8711C5.00179 13.6473 5.00322 13.4234 5.00108 13.1996C4.99965 13.1459 5.00036 13.0916 5.00036 13.0365ZM15.7003 18.6181C15.7139 18.6231 15.7246 18.6195 15.7332 18.6081C15.7446 18.6066 15.7546 18.6038 15.7618 18.5938C15.7832 18.5837 15.8054 18.5744 15.8261 18.5637C16.0736 18.435 16.3146 18.297 16.5513 18.1497C17.3551 17.6505 18.0867 17.0641 18.7082 16.3468C19.1251 15.8656 19.4776 15.3414 19.7387 14.7585C20.019 14.1321 20.1678 13.4806 20.1356 12.7905C20.1198 12.4609 20.0748 12.1369 19.9954 11.818C19.8252 11.1343 19.5277 10.5064 19.1473 9.91646C19.1408 9.90645 19.1387 9.89 19.1201 9.89214C19.1186 9.89572 19.1172 9.89858 19.1179 9.90072C19.1222 9.91646 19.1265 9.9329 19.1322 9.94864C19.3132 10.4628 19.4347 10.9891 19.4662 11.5355C19.4848 11.8552 19.4698 12.1734 19.4269 12.4895C19.3833 12.8063 19.3003 13.1138 19.1909 13.4141C19.0057 13.9226 18.7525 14.396 18.4486 14.8422C18.4257 14.8758 18.4085 14.9109 18.3971 14.9509C18.2626 15.4079 18.071 15.8398 17.8321 16.251C17.3809 17.0276 16.7966 17.6913 16.1172 18.2741C15.9964 18.3778 15.8719 18.4779 15.7496 18.5794C15.7418 18.5859 15.7339 18.5916 15.726 18.598C15.716 18.6016 15.7053 18.6052 15.7024 18.6181C15.6989 18.6202 15.6845 18.6181 15.6974 18.6274C15.6996 18.6302 15.7031 18.6231 15.7003 18.6181ZM14.1706 5.09653C14.1692 5.10225 14.1706 5.10654 14.1756 5.10654C14.1777 5.10654 14.1806 5.10297 14.1828 5.10082C14.1792 5.09939 14.1756 5.09796 14.1706 5.09653C14.1677 5.08295 14.1563 5.0808 14.1456 5.07794C14.1248 5.05363 14.0955 5.04218 14.0698 5.02574C13.5849 4.73182 13.0864 4.46437 12.5694 4.23195C11.9851 3.96879 11.3851 3.74924 10.7608 3.60193C10.3875 3.51397 10.0092 3.45604 9.62589 3.44102C9.36844 3.43101 9.11242 3.45032 8.85854 3.49609C8.40657 3.57833 8.03828 3.80002 7.74864 4.15615C7.54268 4.41002 7.38464 4.69106 7.25305 4.98783C7.23589 5.02645 7.213 5.06364 7.20657 5.10726C7.20442 5.11084 7.1987 5.11584 7.19942 5.11727C7.20442 5.12585 7.21014 5.12156 7.21586 5.11727C7.33958 5.06292 7.46259 5.00643 7.59274 4.9671C7.91956 4.86912 8.25425 4.83551 8.59394 4.84195C8.63756 4.84266 8.66903 4.83194 8.70121 4.80047C8.80634 4.69678 8.92147 4.60453 9.04662 4.52515C9.38774 4.30847 9.76677 4.20835 10.1637 4.1683C10.4226 4.14256 10.6814 4.14542 10.941 4.16401C11.2807 4.18904 11.6154 4.24411 11.9479 4.3192C12.5544 4.45721 13.1401 4.65959 13.7122 4.90273C13.8545 4.96352 13.9954 5.02574 14.137 5.08795C14.147 5.09653 14.157 5.10225 14.1706 5.09653ZM17.373 16.0887C17.358 16.0915 17.3494 16.1044 17.3394 16.1137C16.9725 16.4691 16.5749 16.7874 16.1544 17.077C15.5129 17.5182 14.83 17.8851 14.1198 18.2011C13.1658 18.6259 12.1811 18.9463 11.1434 19.0943C10.8509 19.1358 10.557 19.163 10.2624 19.1723C10.0671 19.1787 9.87189 19.1759 9.67666 19.1637C9.45068 19.1494 9.22684 19.1244 9.00443 19.0815C8.94007 19.0693 8.87785 19.0393 8.80991 19.0479C8.8142 19.0386 8.80991 19.0371 8.80204 19.04C8.80491 19.0421 8.80848 19.0443 8.81134 19.0471C8.8521 19.1043 8.91146 19.1408 8.96009 19.1894C9.14174 19.3711 9.36128 19.4934 9.59513 19.5921C10.0171 19.7694 10.4626 19.8388 10.916 19.8602C11.2686 19.8767 11.6204 19.8588 11.9708 19.8166C12.254 19.783 12.5358 19.7351 12.814 19.6722C12.9134 19.65 13.0149 19.6357 13.1093 19.5928C13.582 19.3782 14.0419 19.1394 14.4853 18.8691C15.2011 18.4314 15.8626 17.9251 16.444 17.3165C16.7823 16.9626 17.0848 16.5807 17.343 16.1645C17.3573 16.1416 17.3837 16.1223 17.3809 16.0801C17.378 16.083 17.3759 16.0858 17.373 16.0887C17.3751 16.0894 17.3766 16.0908 17.3787 16.0908C17.3801 16.0908 17.383 16.0887 17.383 16.088C17.3823 16.0851 17.3816 16.083 17.373 16.0887ZM10.0907 18.7232C10.2152 18.7203 10.3653 18.7189 10.5148 18.7082C10.7737 18.6896 11.0311 18.6581 11.2872 18.6145C11.787 18.5294 12.2776 18.4028 12.7589 18.2441C13.4197 18.0252 14.0583 17.7528 14.6762 17.4338C15.4149 17.0527 16.1101 16.6043 16.743 16.0629C17.2028 15.6696 17.619 15.2363 17.9794 14.7493C17.9995 14.7221 18.013 14.6935 18.0216 14.6606C18.1353 14.2258 18.1682 13.7846 18.1339 13.3362C18.106 12.9808 18.0381 12.6339 17.9351 12.2935C17.757 11.7035 17.4853 11.1572 17.1527 10.6394C16.69 9.92003 16.1322 9.28071 15.5115 8.69503C14.7291 7.95631 13.8745 7.31341 12.9441 6.77135C12.2683 6.37803 11.5675 6.0362 10.8302 5.77304C10.2123 5.55278 9.58155 5.38401 8.92433 5.33252C8.87999 5.32895 8.85425 5.33967 8.82779 5.37257C8.72552 5.50201 8.63327 5.63717 8.55103 5.78019C8.35365 6.12488 8.21134 6.49317 8.09549 6.87218C7.86593 7.62378 7.74221 8.39611 7.6521 9.17488C7.62135 9.44448 7.59775 9.71479 7.5763 9.98511C7.54769 10.3391 7.52838 10.6931 7.51193 11.0471C7.49835 11.3488 7.48833 11.6513 7.48404 11.9538C7.47475 12.6611 7.47045 13.3684 7.50478 14.0756C7.5198 14.3774 7.53696 14.6792 7.56271 14.981C7.5906 15.3178 7.6285 15.6532 7.67713 15.9878C7.74221 16.4384 7.82874 16.8839 7.95174 17.3223C8.04972 17.6712 8.17058 18.0116 8.33148 18.337C8.35151 18.3771 8.37654 18.4064 8.41873 18.4243C8.51313 18.4636 8.60753 18.5022 8.7055 18.5337C9.14817 18.6767 9.603 18.726 10.0907 18.7232ZM9.3384 4.92133C9.34484 4.93706 9.35699 4.93635 9.36844 4.93849C9.76176 4.99713 10.1472 5.09081 10.5277 5.20666C11.2078 5.41333 11.86 5.68937 12.4915 6.01403C13.5148 6.54036 14.4602 7.18183 15.3306 7.93342C16.0235 8.53127 16.6543 9.18775 17.1949 9.9279C17.644 10.5422 18.0166 11.1987 18.2691 11.9188C18.4521 12.4408 18.5644 12.9765 18.5766 13.5314C18.578 13.585 18.5823 13.638 18.5852 13.6966C18.613 13.678 18.6173 13.6537 18.6259 13.6329C18.7289 13.3948 18.8161 13.1502 18.8827 12.8992C18.9442 12.6668 18.9942 12.4315 19.0121 12.1913C19.0271 11.9917 19.0335 11.7922 19.0207 11.592C19.0078 11.3946 18.9878 11.1987 18.9527 11.0042C18.8562 10.4714 18.676 9.96652 18.4343 9.48238C18.1804 8.97321 17.8679 8.50195 17.5132 8.05714C17.4509 7.97919 17.3944 7.89409 17.3201 7.82758C16.9818 7.52652 16.6328 7.23832 16.2702 6.96729C15.505 6.3952 14.6905 5.90534 13.8252 5.49986C13.1558 5.18592 12.4657 4.93134 11.742 4.77115C11.4352 4.70322 11.1241 4.65602 10.8102 4.63957C10.5677 4.6267 10.3246 4.63099 10.0836 4.66746C9.84472 4.70322 9.61301 4.764 9.39776 4.87699C9.37773 4.89129 9.35127 4.89701 9.3384 4.92133ZM6.1689 7.28981C6.14459 7.3034 6.14244 7.32342 6.13743 7.34059C6.09882 7.46073 6.05877 7.58015 6.02373 7.70101C5.87927 8.1973 5.78344 8.70432 5.70764 9.21492C5.64184 9.65758 5.59464 10.1024 5.55674 10.5479C5.53314 10.8254 5.51383 11.1028 5.50024 11.381C5.48165 11.7543 5.46949 12.1276 5.45591 12.5016C5.44875 12.7011 5.44875 12.9014 5.44518 13.1016C5.43946 13.3898 5.44232 13.678 5.44732 13.9662C5.45662 14.4468 5.47092 14.9273 5.50883 15.4072C5.52384 15.6017 5.53672 15.7962 5.55746 15.9907C5.59607 16.3576 5.6447 16.723 5.7105 17.0856C5.79131 17.5282 5.89357 17.9659 6.04089 18.3914C6.17176 18.7704 6.33481 19.1351 6.56294 19.4669C6.78321 19.7866 7.05782 20.044 7.40895 20.2164C7.71503 20.3665 8.03971 20.4552 8.37582 20.5046C8.67046 20.5482 8.96724 20.5618 9.26546 20.5546C9.46569 20.5496 9.66522 20.5382 9.86403 20.516C10.1286 20.4867 10.3918 20.4459 10.6528 20.3909C10.7637 20.3673 10.8745 20.3472 10.9832 20.3108C10.8187 20.3086 10.6564 20.2965 10.4934 20.2793C10.223 20.2514 9.957 20.1992 9.69811 20.1177C9.32195 19.9997 8.97511 19.8259 8.67547 19.5656C8.42803 19.3503 8.23637 19.0915 8.07189 18.8097C8.04185 18.7589 8.00609 18.7203 7.9546 18.6903C7.65639 18.5172 7.40609 18.2898 7.19727 18.0152C6.94626 17.6841 6.76104 17.3173 6.61372 16.9311C6.33696 16.2088 6.18678 15.4565 6.0838 14.6935C6.0459 14.4153 6.01801 14.1364 5.99298 13.8568C5.96366 13.525 5.94292 13.1924 5.92933 12.8592C5.91789 12.5717 5.90787 12.2835 5.90859 11.9953C5.9093 11.5355 5.90787 11.0764 5.92003 10.6166C5.93147 10.2075 5.95007 9.79846 5.97081 9.38941C5.97867 9.23709 5.9894 9.08548 6.00156 8.93388C6.0223 8.68287 6.04447 8.43115 6.0695 8.18014C6.0888 7.98348 6.1124 7.78754 6.13529 7.59159C6.14387 7.49148 6.15603 7.39279 6.1689 7.28981ZM7.62063 17.8035C7.63065 17.7728 7.61348 17.7499 7.60562 17.7263C7.5484 17.5518 7.49835 17.3759 7.45258 17.1985C7.26592 16.4727 7.16438 15.7333 7.09858 14.9888C7.07355 14.7021 7.05496 14.4146 7.04209 14.1271C7.02778 13.7939 7.02063 13.4606 7.0142 13.1274C7.0099 12.8849 7.01348 12.6418 7.01777 12.3986C7.02492 11.951 7.03064 11.5033 7.05067 11.0564C7.05782 10.9069 7.06068 10.7567 7.07069 10.6066C7.09072 10.3048 7.10645 10.003 7.13648 9.70263C7.15722 9.48953 7.17439 9.27571 7.19942 9.06332C7.24089 8.70933 7.28952 8.35534 7.35246 8.00422C7.43327 7.55441 7.53267 7.10889 7.66712 6.67195C7.79155 6.26862 7.94459 5.87673 8.15413 5.50844C8.1906 5.4448 8.2285 5.38258 8.26569 5.32037C8.24996 5.30535 8.23565 5.31035 8.22278 5.3125C8.0912 5.33109 7.95889 5.3504 7.83017 5.38401C7.57701 5.4498 7.33529 5.53991 7.13863 5.72226C7.0807 5.7759 7.02635 5.83239 6.96771 5.8846C6.92838 5.91964 6.90835 5.96112 6.89548 6.01117C6.71312 6.71056 6.60514 7.42211 6.52647 8.13938C6.49858 8.39253 6.47498 8.64568 6.4571 8.89955C6.4335 9.23423 6.41419 9.56962 6.39918 9.9043C6.38559 10.2161 6.37558 10.5279 6.372 10.8397C6.36556 11.4204 6.35698 12.0018 6.37701 12.5824C6.38773 12.8892 6.40204 13.196 6.42063 13.5028C6.43851 13.7974 6.46568 14.0913 6.49858 14.3845C6.54006 14.7485 6.59441 15.1104 6.66664 15.4701C6.75675 15.9163 6.87117 16.3554 7.03708 16.7802C7.1701 17.1206 7.33386 17.4453 7.55627 17.7378C7.57487 17.7613 7.58988 17.7892 7.62063 17.8035ZM14.2106 5.11799C14.2092 5.11656 14.2078 5.11441 14.2064 5.11441C14.2049 5.11441 14.2035 5.11656 14.2013 5.11727C14.2028 5.1187 14.2042 5.12085 14.2056 5.12085C14.2078 5.12085 14.2092 5.1187 14.2106 5.11799Z" fill="white"/>
</svg>
