<svg width="24" height="24" viewBox="0 0 24 24" fill="none" xmlns="http://www.w3.org/2000/svg">
<circle cx="12.0002" cy="12" r="12" fill="#121212"/>
<path d="M4.07104 4.00293C9.36993 4.00293 14.6688 4.00293 19.9677 4.00293C19.9677 4.58743 19.9707 5.17193 19.9707 5.75644C19.9707 7.50994 19.9707 9.2605 19.9766 11.014C19.9795 12.0354 19.9707 13.0539 19.7936 14.0664C19.6548 14.8457 19.4423 15.6044 19.0644 16.304C18.5537 17.2546 17.8806 18.0812 17.0865 18.8074C15.9234 19.876 14.6039 20.6613 13.0629 21.048C12.6644 21.1483 12.26 21.2517 11.8437 21.2044C11.1146 21.1188 10.4179 20.9151 9.74484 20.6229C8.36034 20.0207 7.18248 19.135 6.1906 18.0044C5.58838 17.3136 5.06292 16.5786 4.71753 15.7284C4.25702 14.6037 4.10351 13.4199 4.07694 12.2184C4.05628 11.3122 4.06809 10.4029 4.06809 9.49371C4.06809 7.66345 4.07104 5.83319 4.07104 4.00293Z" fill="#0E3A5D"/>
<path d="M6.26438 10.8664C6.47692 11.0229 6.68652 11.1793 6.89906 11.3358C9.38467 13.1896 11.8703 15.0465 14.3559 16.9033C14.4356 16.9623 14.4828 16.9623 14.5537 16.8974C14.7101 16.7557 14.8695 16.6169 15.0319 16.4812C15.1234 16.4044 15.1205 16.3631 15.0201 16.2893C14.0872 15.5985 13.1603 14.8989 12.2304 14.2022C10.2821 12.7468 8.3367 11.2915 6.38836 9.83909C6.27914 9.75938 6.23486 9.67672 6.23486 9.53798C6.24076 8.50182 6.24076 7.46565 6.23486 6.42949C6.23486 6.31141 6.26142 6.27008 6.38836 6.27008C10.1315 6.27303 13.8777 6.27303 17.6208 6.27303C17.7064 6.27303 17.7655 6.27008 17.7655 6.39111C17.7625 8.2627 17.7625 10.1313 17.7625 12.0029C17.7625 12.0177 17.7596 12.0324 17.7537 12.0708C17.5884 11.9498 17.4319 11.8347 17.2784 11.7195C15.3182 10.2494 13.3551 8.78226 11.395 7.3092C11.3035 7.2413 11.212 7.21178 11.0998 7.21473C10.6983 7.22063 10.2968 7.21768 9.89537 7.21768C9.88061 7.27082 9.92489 7.28263 9.94851 7.30034C12.4813 9.19259 15.0112 11.0848 17.547 12.9741C17.6681 13.0627 17.7212 13.1542 17.7005 13.3018C17.609 13.9601 17.4732 14.6066 17.1692 15.2029C16.6998 16.121 16.0385 16.8856 15.2326 17.5232C14.4592 18.1343 13.6031 18.58 12.6349 18.8133C12.0533 18.952 11.5072 18.8693 10.9611 18.6981C9.79205 18.3321 8.81198 17.6708 7.9795 16.7793C7.43338 16.1948 6.97286 15.5513 6.68061 14.8014C6.44445 14.1874 6.32932 13.5498 6.27618 12.8974C6.226 12.2716 6.22305 11.6428 6.23781 11.014C6.24076 10.9638 6.22895 10.9195 6.26438 10.8664Z" fill="#00AAE5"/>
</svg>
