<svg width="24" height="24" viewBox="0 0 24 24" fill="none" xmlns="http://www.w3.org/2000/svg">
<circle cx="12" cy="12" r="12" fill="#095093"/>
<path d="M18.333 10.9378C18.1723 11.4258 18.0115 11.8851 17.8737 12.3445C17.8278 12.4995 17.7244 12.488 17.6096 12.488C17.1158 12.488 16.6163 12.488 16.1225 12.488C14.044 12.488 11.9656 12.4938 9.88709 12.4823C9.65169 12.4823 9.60001 12.5282 9.66317 12.7694C9.92154 13.7799 10.5187 14.4804 11.5522 14.6928C12.6603 14.9167 13.6766 14.7043 14.4402 13.7799C14.5378 13.6593 14.5952 13.6593 14.7101 13.734C15.1407 14.0153 15.5713 14.2966 16.0077 14.5608C16.1742 14.6641 16.1742 14.7502 16.0708 14.8995C15.4967 15.7378 14.6814 16.2086 13.7168 16.4497C12.1665 16.8344 10.6909 16.6909 9.38183 15.7033C8.39427 14.9569 7.80862 13.9636 7.62489 12.7407C7.59618 12.5397 7.52154 12.4765 7.31484 12.4823C6.85551 12.4995 6.40193 12.4823 5.94259 12.4938C5.78757 12.4995 5.72441 12.4593 5.73015 12.2928C5.74164 11.9024 5.74164 11.5119 5.73015 11.1215C5.72441 10.9493 5.79331 10.9206 5.94259 10.9206C6.43063 10.932 6.91293 10.9148 7.40097 10.932C7.60193 10.9378 7.67657 10.8689 7.73398 10.6851C8.23925 8.97988 9.37035 7.9062 11.0871 7.48132C13.4814 6.88419 15.7837 8.29663 16.3349 10.6909C16.3809 10.8976 16.4555 10.955 16.668 10.9493C17.2077 10.932 17.7474 10.9378 18.333 10.9378ZM9.70336 10.9263C11.1732 10.9263 12.6201 10.9206 14.067 10.932C14.2737 10.932 14.2737 10.8517 14.2335 10.6909C14.0153 9.78945 13.355 9.22103 12.2871 9.08898C11.1101 8.93969 9.99619 9.62295 9.70336 10.9263Z" fill="#F7C644"/>
<path d="M7.3972 18.73L7.76953 19.8759H8.97439L7.99964 20.5841L8.37196 21.73L7.3972 21.0218L6.42244 21.73L6.79477 20.5841L5.82001 19.8759H7.02488L7.3972 18.73Z" fill="#F7C644"/>
<path d="M12.0972 19.99L12.4695 21.1359H13.6744L12.6996 21.8441L13.072 22.99L12.0972 22.2818L11.1225 22.99L11.4948 21.8441L10.52 21.1359H11.7249L12.0972 19.99Z" fill="#F7C644"/>
<path d="M16.8572 18.71L17.2295 19.8559H18.4344L17.4596 20.5641L17.8319 21.71L16.8572 21.0018L15.8824 21.71L16.2547 20.5641L15.28 19.8559H16.4848L16.8572 18.71Z" fill="#F7C644"/>
<path d="M2.68718 10.53L3.0595 11.6759H4.26437L3.28961 12.3841L3.66194 13.53L2.68718 12.8218L1.71242 13.53L2.08474 12.3841L1.10999 11.6759H2.31485L2.68718 10.53Z" fill="#F7C644"/>
<path d="M21.5972 10.61L21.9695 11.7559H23.1744L22.1996 12.4641L22.572 13.61L21.5972 12.9018L20.6225 13.61L20.9948 12.4641L20.02 11.7559H21.2249L21.5972 10.61Z" fill="#F7C644"/>
<path d="M7.30717 2.34003L7.6795 3.48592H8.88437L7.90961 4.19413L8.28193 5.34003L7.30717 4.63182L6.33241 5.34003L6.70474 4.19413L5.72998 3.48592H6.93485L7.30717 2.34003Z" fill="#F7C644"/>
<path d="M16.7772 2.33002L17.1495 3.47592H18.3544L17.3796 4.18412L17.752 5.33002L16.7772 4.62181L15.8024 5.33002L16.1748 4.18412L15.2 3.47592H16.4049L16.7772 2.33002Z" fill="#F7C644"/>
<path d="M12 1L12.3723 2.1459H13.5772L12.6024 2.8541L12.9747 4L12 3.2918L11.0252 4L11.3976 2.8541L10.4228 2.1459H11.6277L12 1Z" fill="#F7C644"/>
<path d="M20.3272 15.24L20.6995 16.3859H21.9044L20.9296 17.0941L21.302 18.24L20.3272 17.5318L19.3524 18.24L19.7248 17.0941L18.75 16.3859H19.9549L20.3272 15.24Z" fill="#F7C644"/>
<path d="M3.86717 15.3L4.2395 16.4459H5.44437L4.46961 17.1541L4.84193 18.3L3.86717 17.5918L2.89241 18.3L3.26474 17.1541L2.28998 16.4459H3.49485L3.86717 15.3Z" fill="#F7C644"/>
<path d="M3.87718 5.84003L4.24951 6.98592H5.45437L4.47962 7.69413L4.85194 8.84003L3.87718 8.13182L2.90242 8.84003L3.27475 7.69413L2.29999 6.98592H3.50486L3.87718 5.84003Z" fill="#F7C644"/>
<path d="M20.2572 5.78998L20.6295 6.93588H21.8344L20.8596 7.64408L21.2319 8.78998L20.2572 8.08177L19.2824 8.78998L19.6548 7.64408L18.68 6.93588H19.8849L20.2572 5.78998Z" fill="#F7C644"/>
</svg>
