<svg width="24" height="24" viewBox="0 0 24 24" fill="none" xmlns="http://www.w3.org/2000/svg">
<circle cx="12.0002" cy="12" r="12" fill="#172852"/>
<path d="M10.3318 16.3335C10.7818 17.9985 12.3964 19.2686 13.2118 19.2162C13.2404 19.2142 16.3044 18.6431 17.9818 15.8412C19.2868 13.6603 18.8427 11.555 17.0674 11.5091C16.4286 11.5556 9.47478 13.1624 10.3323 16.3342L10.3318 16.3335ZM16.9018 5.64038L16.9 5.63881L16.9025 5.63746C15.7842 4.68639 14.42 4.07056 12.9671 3.86089C11.5141 3.65123 10.0315 3.85627 8.68998 4.45238C8.52117 4.52304 8.35677 4.60381 8.19768 4.69426C8.08833 4.75231 7.97898 4.81036 7.87278 4.87426L7.89866 4.88213C7.58465 5.09597 7.30699 5.35881 7.07628 5.66063C4.83888 8.61443 12.3345 10.7625 16.3427 10.7688C18.1857 12.0925 18.7032 7.04281 16.9018 5.64038Z" fill="#0E3CA5"/>
<path d="M9.14267 5.69998C8.11285 7.24798 4.68272 8.33856 4.11865 8.16868L4.11482 8.16148C4.13807 8.11483 4.16155 8.06848 4.18525 8.02243C4.77012 6.89567 5.60708 5.91904 6.631 5.16853C6.84205 5.01403 7.06052 4.86943 7.28642 4.73473C7.63406 4.54287 8.02341 4.43912 8.42042 4.43256C9.94795 4.46181 9.15032 5.68806 9.142 5.70043L9.14267 5.69998ZM8.29757 16.6379C8.3716 17.1244 8.29577 19.0454 8.19632 19.207C8.1106 19.2124 7.93217 19.2232 7.41535 18.9331C6.35153 18.3283 5.43659 17.493 4.73765 16.4885C4.03872 15.4841 3.57351 14.3358 3.37615 13.1281C3.23273 12.2458 3.23273 11.3462 3.37615 10.4639C3.44608 10.0351 3.55013 9.61255 3.68732 9.2003C3.71477 9.11781 3.7435 9.03583 3.7735 8.95438C4.36547 9.74188 5.0506 10.454 5.6329 11.2494C6.18752 12.0067 6.9505 13.2411 7.10575 13.5048C8.06965 15.1423 8.22332 16.1526 8.2969 16.6379H8.29757ZM19.6927 11.7961C19.694 12.8286 19.5 13.8521 19.121 14.8125C18.1535 15.852 11.6323 13.2931 11.5684 13.2652C10.6763 12.8743 7.96142 11.685 7.7164 9.81748C7.36517 7.12896 12.8169 5.25606 15.2132 5.18496C15.5005 5.18833 16.3748 5.19846 16.8847 5.61246C17.7676 6.38244 18.4752 7.33283 18.9596 8.39952C19.444 9.46621 19.694 10.6244 19.6927 11.7959V11.7961ZM15.278 19.0801C14.567 19.4117 13.7844 19.1701 13.9878 18.4777C14.3782 17.1484 17.7872 15.7852 18.54 15.7102C18.6329 15.7012 18.6723 15.7645 18.6311 15.8365C17.8468 17.2157 16.6833 18.341 15.2786 19.0789" fill="#5493F7"/>
<path d="M6.90079 20.3824C6.89075 20.5325 6.94003 20.6806 7.03803 20.7947C7.13602 20.9089 7.27491 20.98 7.42481 20.9928C14.3323 21.0401 21.0002 20.7228 21.0002 19.6878C21.0002 16.5549 6.90079 20.3824 6.90079 20.3824Z" fill="url(#paint0_linear_927_5210)"/>
<path d="M12.8536 20.5561L11.5882 19.29C10.3052 19.55 9.02844 19.8399 7.75894 20.1594L8.52394 20.9244C10.0202 20.8708 11.4856 20.73 12.8536 20.5561Z" fill="url(#paint1_linear_927_5210)"/>
<path d="M19.5343 19.5326L18.4622 18.4604C16.9243 18.4624 15.3896 18.6003 13.876 18.8724L15.2199 20.2161C17.0208 19.9317 18.5274 19.6475 19.5343 19.5326Z" fill="url(#paint2_linear_927_5210)"/>
<path d="M6.92552 20.5532L6.90054 20.3824C6.90133 20.4433 6.9101 20.5038 6.92664 20.5624L6.92552 20.5541V20.5532Z" fill="url(#paint3_linear_927_5210)"/>
<path d="M20.892 19.7175C20.892 20.6724 14.3283 21 7.42774 20.9534C7.40932 20.9534 7.39092 20.9523 7.37262 20.9503C7.28242 20.9382 7.19685 20.9032 7.12414 20.8485C7.05143 20.7938 6.99403 20.7213 6.95749 20.638V20.6364C6.94509 20.6097 6.93478 20.5821 6.92667 20.5538L6.92779 20.5621C6.95202 20.6791 7.01425 20.7848 7.10479 20.8628C7.19534 20.9408 7.30911 20.9866 7.42842 20.9932C14.3339 21.0457 20.9928 20.8288 21.0011 19.6882L20.892 19.7175Z" fill="url(#paint4_linear_927_5210)"/>
<path d="M15.2199 20.2161L13.876 18.8724C13.0995 18.9982 12.3235 19.1424 11.5882 19.2907L12.8536 20.5561C13.6827 20.4508 14.4763 20.3335 15.2199 20.2161Z" fill="url(#paint5_linear_927_5210)"/>
<path d="M6.95659 20.6359V20.6375C6.99707 20.7288 7.06275 20.8067 7.14592 20.8619C7.2291 20.9172 7.32632 20.9476 7.42617 20.9496C7.79197 20.947 8.15771 20.9389 8.52327 20.9253L7.75827 20.1603C7.21827 20.2953 6.90012 20.3826 6.90012 20.3826L6.92509 20.5534C6.93342 20.5817 6.94396 20.6093 6.95659 20.6359Z" fill="url(#paint6_linear_927_5210)"/>
<path d="M13.4078 18.9512C12.9445 19.0304 12.4853 19.115 12.0353 19.2023L13.3277 20.4935C13.8155 20.4281 14.2884 20.3602 14.7465 20.2897L13.4078 18.9512Z" fill="url(#paint7_linear_927_5210)"/>
<path d="M6.90079 20.3824L6.92576 20.5532C6.93388 20.5815 6.94418 20.6091 6.95659 20.6357V20.6373C6.96131 20.647 6.96694 20.656 6.97211 20.6654L7.19981 20.8931C7.26975 20.9295 7.34733 20.9488 7.42616 20.9494C7.61696 20.9483 7.80739 20.9455 7.99744 20.9408L7.32671 20.2699C7.05604 20.3403 6.90079 20.3824 6.90079 20.3824Z" fill="url(#paint8_linear_927_5210)"/>
<path d="M18.4622 18.4604L19.5343 19.5326C20.3958 19.4342 20.892 19.4601 20.892 19.7171L21.0002 19.688C21.0002 18.84 19.9674 18.5025 18.4622 18.4604Z" fill="url(#paint9_linear_927_5210)"/>
<path d="M7.42819 11.5102C7.35894 11.5102 7.29036 11.5238 7.22638 11.5503C7.16239 11.5767 7.10425 11.6156 7.05527 11.6645C7.0063 11.7135 6.96744 11.7716 6.94094 11.8356C6.91443 11.8996 6.90079 11.9681 6.90079 12.0374V20.3824C6.90073 20.5217 6.9558 20.6554 7.05398 20.7543C7.15217 20.8531 7.28548 20.9091 7.42481 20.91C14.3319 20.8583 21.0085 18.5721 21.0002 19.688V10.2887C21.0085 9.17245 14.3343 11.4585 7.42819 11.5102Z" fill="url(#paint10_linear_927_5210)"/>
<path d="M21.0002 19.688V18.6463C21.0002 18.5192 20.972 18.3938 20.9175 18.2791C20.863 18.1643 20.7837 18.0632 20.6852 17.983C20.5024 17.8295 20.2976 17.7044 20.0777 17.6117C19.8642 17.5136 19.6563 17.4317 19.4718 17.3507C19.2873 17.2697 19.1365 17.1874 18.9752 17.1032C18.6159 16.9154 18.2547 16.7314 17.8916 16.5511C18.1404 16.5083 18.3641 16.4719 18.574 16.4386C18.7839 16.4053 18.9772 16.3769 19.1664 16.3504C19.3557 16.3238 19.5741 16.2937 19.8237 16.2714C20.0729 16.244 20.3243 16.2424 20.5738 16.2667C20.8033 16.297 20.9993 16.3679 20.9993 16.5639V13.4308C20.9993 13.2346 20.8033 13.1641 20.5738 13.134C20.3243 13.1095 20.0729 13.1111 19.8237 13.1387C19.5739 13.1612 19.3554 13.1909 19.1662 13.2175C18.977 13.244 18.7837 13.273 18.5738 13.3057C18.3639 13.3383 18.1404 13.3752 17.8916 13.4182C18.1404 13.2091 18.3641 13.0226 18.5738 12.8496C18.7835 12.6766 18.9772 12.5182 19.1664 12.3652C19.3765 12.2003 19.5962 12.0483 19.8246 11.91C20.1865 11.6654 20.5827 11.4758 21.0002 11.3475V10.2877C21.0027 9.96149 20.4336 9.92617 19.4556 10.0402L19.4511 10.0447C19.1993 10.2196 19.0188 10.3822 18.8283 10.5375C18.6377 10.6927 18.4568 10.843 18.2829 10.9875C18.1089 11.1319 17.9415 11.2726 17.7775 11.4107C17.6135 11.5489 17.4533 11.6848 17.2926 11.8207C17.132 11.9566 16.9711 12.0907 16.8064 12.2299C16.6417 12.3692 16.4743 12.5085 16.2997 12.6552C16.1251 12.8019 15.944 12.9535 15.753 13.1144C15.5619 13.2753 15.363 13.4425 15.1482 13.6204V10.7434C14.4057 10.8653 13.6182 10.9875 12.7944 11.0971V13.9705C12.3568 13.7365 11.9214 13.4983 11.4883 13.2559C11.2921 13.1464 11.1033 13.0393 10.917 12.934C10.5397 12.7201 10.1643 12.5028 9.79092 12.2821C9.59472 12.1663 9.39019 12.045 9.17442 11.9122C8.95864 11.7795 8.72937 11.6391 8.48389 11.4847C8.13304 11.4982 7.78114 11.5066 7.42819 11.5097C7.35894 11.5097 7.29037 11.5233 7.22638 11.5498C7.16239 11.5763 7.10425 11.6151 7.05528 11.664C7.0063 11.713 6.96745 11.7711 6.94094 11.8351C6.91443 11.8991 6.90079 11.9676 6.90079 12.0369V12.5692C7.32563 12.8514 7.75399 13.1283 8.18577 13.3997C8.79536 13.7871 9.41204 14.1632 10.0355 14.5279C9.60796 14.5617 9.17987 14.5881 8.75142 14.6071C8.56084 14.6156 8.37612 14.6228 8.18554 14.6296C7.75746 14.6448 7.32914 14.6525 6.90079 14.6527V17.785C7.15167 17.785 7.37734 17.7823 7.58794 17.778C7.79854 17.7737 7.99474 17.7681 8.18532 17.7618C8.37589 17.7555 8.56062 17.7483 8.75119 17.7393C8.94177 17.7303 9.13752 17.7211 9.34834 17.708C9.55917 17.695 9.78462 17.6797 10.0353 17.6596C9.67428 17.9286 9.31051 18.1938 8.94402 18.4552C8.78134 18.5711 8.62519 18.6825 8.46769 18.793C8.31019 18.9034 8.15449 19.0123 7.99182 19.1253C7.82914 19.2382 7.66084 19.3543 7.48084 19.4765C7.30084 19.5987 7.10937 19.7287 6.90012 19.8671V20.3824C6.90005 20.5218 6.95522 20.6556 7.05355 20.7545C7.15188 20.8534 7.28537 20.9093 7.42482 20.91C7.77852 20.9073 8.13102 20.899 8.48232 20.8852C8.69787 20.7334 8.89969 20.59 9.09184 20.4521C9.61252 20.0786 10.1279 19.6978 10.6378 19.3098C10.7994 19.1872 10.9614 19.0648 11.1267 18.9388C11.2921 18.8128 11.4602 18.6825 11.6364 18.5475C11.8125 18.4125 11.9932 18.2705 12.1847 18.12C12.3762 17.9695 12.578 17.8102 12.7938 17.6389V20.4964C13.6161 20.3869 14.4048 20.2649 15.1466 20.143V17.2906C15.3925 17.4146 15.6191 17.5282 15.834 17.6349L16.4475 17.94L17.0163 18.221L17.5683 18.493C17.9634 18.6869 18.3564 18.8847 18.7475 19.0866C18.9624 19.1975 19.1601 19.3168 19.4439 19.443C20.4291 19.3262 21.0027 19.3606 21.0002 19.688Z" fill="url(#paint11_linear_927_5210)"/>
<path d="M21.0002 14.0572C21.0002 13.8581 20.79 13.7816 20.5288 13.7548C20.2456 13.7351 19.9612 13.7431 19.6796 13.7789C19.4067 13.8077 19.2017 13.8383 19.0019 13.8673C18.8021 13.8963 18.6075 13.9267 18.4154 13.9573C18.2232 13.9879 18.0329 14.0196 17.8436 14.0525C17.6544 14.0853 17.4647 14.12 17.2724 14.1528C17.08 14.1857 16.8847 14.2203 16.6842 14.255L16.0655 14.3614C15.8524 14.3978 15.6337 14.4363 15.4031 14.4739C15.1724 14.5115 14.9306 14.5504 14.6763 14.59V10.8192C14.2211 10.8919 13.7502 10.9634 13.2662 11.0316V14.8022C12.755 14.8717 12.2429 14.9353 11.7302 14.9927C11.4966 15.0184 11.2707 15.042 11.0504 15.0632C10.8302 15.0843 10.6153 15.1046 10.4027 15.1235C10.19 15.1424 9.97854 15.1599 9.76547 15.1748C9.55239 15.1896 9.33797 15.2036 9.11724 15.2157C8.89652 15.2279 8.67197 15.2382 8.43842 15.2463C8.20487 15.2544 7.96164 15.2632 7.70627 15.2688C7.45089 15.2744 7.18359 15.278 6.90054 15.278V17.1581C7.18359 17.1581 7.45134 17.1545 7.70627 17.1487C7.96119 17.1428 8.20442 17.1347 8.43819 17.1262C8.67197 17.1176 8.89719 17.1073 9.11724 17.0956C9.33729 17.0839 9.55262 17.0699 9.76569 17.0544C9.97877 17.0389 10.1898 17.0225 10.4027 17.0031C10.6155 16.9838 10.8302 16.9646 11.0504 16.943C11.2707 16.9214 11.4962 16.898 11.7299 16.8726C11.9637 16.8472 12.2051 16.8184 12.4601 16.7867C12.715 16.7549 12.9827 16.721 13.2656 16.6823V20.4314C13.7495 20.3639 14.2207 20.2915 14.6759 20.219V16.4708C14.9306 16.4314 15.1722 16.3929 15.4026 16.3547C15.633 16.3164 15.8526 16.2779 16.0655 16.2422L16.6842 16.136C16.8847 16.1015 17.08 16.0685 17.2721 16.034C17.4643 15.9996 17.6546 15.9665 17.8436 15.9335C18.0326 15.9004 18.2232 15.8693 18.4156 15.8381C18.608 15.8068 18.8024 15.7775 19.0019 15.7481C19.2015 15.7186 19.4069 15.6884 19.6796 15.6599C19.9613 15.6242 20.2458 15.6161 20.529 15.6356C20.7902 15.6626 21.0002 15.7386 21.0002 15.938V14.0572Z" fill="url(#paint12_linear_927_5210)"/>
<path d="M19.2965 10.5092C19.0776 10.6779 18.8892 10.8388 18.6989 10.9949C18.5085 11.1511 18.3256 11.303 18.1465 11.453C17.9674 11.6031 17.7917 11.7507 17.616 11.899C17.4402 12.0473 17.2652 12.1962 17.0852 12.3472L16.531 12.8127L15.933 13.3147C15.7239 13.4902 15.5055 13.6747 15.2715 13.8695C15.4812 13.8353 15.6369 13.8092 15.7941 13.7816C15.9514 13.7539 16.1091 13.7273 16.3191 13.6916C16.554 13.4945 16.7742 13.3091 16.9833 13.1342C17.1923 12.9594 17.3901 12.7907 17.5802 12.63C17.7703 12.4694 17.9535 12.315 18.1328 12.1658C18.3121 12.0167 18.4878 11.8702 18.6633 11.7257C18.8388 11.5813 19.0098 11.4303 19.1937 11.2924C20.4024 10.382 21.0002 10.2675 21.0002 10.2974V10.2887C21.002 10.0466 20.6892 9.96466 20.1281 9.98513H20.1263C19.8321 10.1303 19.554 10.3059 19.2965 10.5092Z" fill="url(#paint13_linear_927_5210)"/>
<path d="M8.17676 13.0433C8.3612 13.1602 8.54615 13.2762 8.73161 13.3914C9.11314 13.6285 9.49747 13.861 9.88451 14.0889C10.0947 14.2127 10.3181 14.3429 10.5622 14.4827C10.7728 14.4631 10.9314 14.4487 11.0896 14.4329C11.2478 14.4172 11.4064 14.4012 11.6172 14.3787C11.1928 14.1421 10.7702 13.9023 10.3494 13.6594C9.98395 13.4479 9.62056 13.2329 9.25924 13.0145C8.89353 12.7931 8.53028 12.5677 8.16956 12.3382C7.97786 12.2171 7.77874 12.0907 7.56859 11.9557C7.41469 11.8567 7.25224 11.7509 7.08506 11.6407C7.02748 11.6897 6.98119 11.7506 6.94938 11.8192C6.91757 11.8878 6.90099 11.9624 6.90079 12.038V12.2201C7.14514 12.3823 7.36901 12.5283 7.57939 12.6635C7.78976 12.7988 7.98709 12.9239 8.17676 13.0433Z" fill="url(#paint14_linear_927_5210)"/>
<path d="M20.6787 18.3273C20.4902 18.1713 20.2796 18.0443 20.0536 17.9506C19.8345 17.8512 19.623 17.7681 19.4403 17.6865C19.2576 17.6048 19.1095 17.5231 18.9527 17.4408C18.7959 17.3584 18.6377 17.277 18.4714 17.1933C18.3051 17.1096 18.1339 17.0223 17.9519 16.9314C17.7699 16.8405 17.5766 16.7455 17.3689 16.6431C17.1594 16.68 17.0019 16.7077 16.8444 16.7347L16.3195 16.8247C16.5283 16.9282 16.7245 17.0261 16.9135 17.1188C17.1025 17.2115 17.28 17.2988 17.4524 17.3847C17.6247 17.4707 17.7899 17.551 17.9521 17.6322C18.1143 17.7135 18.2723 17.7929 18.4291 17.8725C18.5859 17.9522 18.7412 18.0318 18.8978 18.1137C19.0544 18.1956 19.2002 18.28 19.3824 18.3646C19.5647 18.4492 19.7874 18.5334 20.0163 18.6346C20.2514 18.7304 20.4713 18.8602 20.6688 19.0198C20.7673 19.0978 20.8477 19.1961 20.9045 19.3082C20.9614 19.4202 20.9932 19.5432 20.9979 19.6687C20.9979 19.675 20.9997 19.6809 20.9997 19.6874V18.9975C20.9999 18.8689 20.9711 18.7419 20.9155 18.6258C20.8599 18.5098 20.779 18.4078 20.6787 18.3273Z" fill="url(#paint15_linear_927_5210)"/>
<path d="M9.22301 20.0073C9.58925 19.7436 9.95272 19.4762 10.3134 19.2049C10.6783 18.9308 11.0417 18.6547 11.4037 18.3767C11.8279 18.0498 12.2499 17.7199 12.6696 17.3871C12.4587 17.4135 12.3006 17.4321 12.1431 17.4519C11.9856 17.4717 11.8281 17.4891 11.6168 17.5116C11.3812 17.694 11.1598 17.8628 10.9494 18.0228C10.7391 18.1827 10.5408 18.3324 10.3494 18.4766C10.1579 18.6208 9.97518 18.7578 9.79338 18.8908C9.61158 19.0238 9.43518 19.1527 9.25923 19.2807C9.08328 19.4088 8.90531 19.5354 8.72463 19.6632C8.54396 19.791 8.36036 19.92 8.16866 20.0538C7.81298 20.3017 7.45514 20.5464 7.09518 20.788C7.18772 20.8652 7.30409 20.9081 7.42458 20.9093C7.60263 20.9079 7.78038 20.905 7.95783 20.9005C8.38243 20.6069 8.80417 20.3091 9.22301 20.0073Z" fill="url(#paint16_linear_927_5210)"/>
<defs>
<linearGradient id="paint0_linear_927_5210" x1="6.90079" y1="19.7263" x2="21.0002" y2="19.7263" gradientUnits="userSpaceOnUse">
<stop stop-color="#000040"/>
<stop offset="0.325" stop-color="#000043"/>
<stop offset="0.585" stop-color="#00004D"/>
<stop offset="0.823" stop-color="#00005E"/>
<stop offset="1" stop-color="#000070"/>
</linearGradient>
<linearGradient id="paint1_linear_927_5210" x1="10.3062" y1="18.4591" x2="10.3062" y2="20.9928" gradientUnits="userSpaceOnUse">
<stop offset="0.35" stop-color="#00209F"/>
<stop offset="0.645" stop-color="#001F9D"/>
<stop offset="0.752" stop-color="#001D96"/>
<stop offset="0.828" stop-color="#00198B"/>
<stop offset="0.889" stop-color="#00137A"/>
<stop offset="0.941" stop-color="#000C64"/>
<stop offset="0.987" stop-color="#000349"/>
<stop offset="1" stop-color="#000040"/>
</linearGradient>
<linearGradient id="paint2_linear_927_5210" x1="16.7052" y1="18.4591" x2="16.7052" y2="20.9928" gradientUnits="userSpaceOnUse">
<stop offset="0.35" stop-color="#00209F"/>
<stop offset="0.645" stop-color="#001F9D"/>
<stop offset="0.752" stop-color="#001D96"/>
<stop offset="0.828" stop-color="#00198B"/>
<stop offset="0.889" stop-color="#00137A"/>
<stop offset="0.941" stop-color="#000C64"/>
<stop offset="0.987" stop-color="#000349"/>
<stop offset="1" stop-color="#000040"/>
</linearGradient>
<linearGradient id="paint3_linear_927_5210" x1="6.91382" y1="18.4539" x2="6.91382" y2="21.0002" gradientUnits="userSpaceOnUse">
<stop offset="0.35" stop-color="#DFDFDF"/>
<stop offset="0.645" stop-color="#DDDDDD"/>
<stop offset="0.752" stop-color="#D6D6D6"/>
<stop offset="0.828" stop-color="#CBCBCB"/>
<stop offset="0.889" stop-color="#BABABA"/>
<stop offset="0.941" stop-color="#A4A4A4"/>
<stop offset="0.987" stop-color="#898989"/>
<stop offset="1" stop-color="#808080"/>
</linearGradient>
<linearGradient id="paint4_linear_927_5210" x1="13.9629" y1="18.4591" x2="13.9629" y2="20.9928" gradientUnits="userSpaceOnUse">
<stop offset="0.35" stop-color="#00209F"/>
<stop offset="0.645" stop-color="#001F9D"/>
<stop offset="0.752" stop-color="#001D96"/>
<stop offset="0.828" stop-color="#00198B"/>
<stop offset="0.889" stop-color="#00137A"/>
<stop offset="0.941" stop-color="#000C64"/>
<stop offset="0.987" stop-color="#000349"/>
<stop offset="1" stop-color="#000040"/>
</linearGradient>
<linearGradient id="paint5_linear_927_5210" x1="13.4039" y1="18.4552" x2="13.4039" y2="21" gradientUnits="userSpaceOnUse">
<stop offset="0.35" stop-color="#DFDFDF"/>
<stop offset="0.645" stop-color="#DDDDDD"/>
<stop offset="0.752" stop-color="#D6D6D6"/>
<stop offset="0.828" stop-color="#CBCBCB"/>
<stop offset="0.889" stop-color="#BABABA"/>
<stop offset="0.941" stop-color="#A4A4A4"/>
<stop offset="0.987" stop-color="#898989"/>
<stop offset="1" stop-color="#808080"/>
</linearGradient>
<linearGradient id="paint6_linear_927_5210" x1="7.71259" y1="18.4555" x2="7.71259" y2="21" gradientUnits="userSpaceOnUse">
<stop offset="0.35" stop-color="#DFDFDF"/>
<stop offset="0.645" stop-color="#DDDDDD"/>
<stop offset="0.752" stop-color="#D6D6D6"/>
<stop offset="0.828" stop-color="#CBCBCB"/>
<stop offset="0.889" stop-color="#BABABA"/>
<stop offset="0.941" stop-color="#A4A4A4"/>
<stop offset="0.987" stop-color="#898989"/>
<stop offset="1" stop-color="#808080"/>
</linearGradient>
<linearGradient id="paint7_linear_927_5210" x1="13.3911" y1="18.4553" x2="13.3911" y2="21" gradientUnits="userSpaceOnUse">
<stop offset="0.35" stop-color="#BF1010"/>
<stop offset="0.645" stop-color="#BD1010"/>
<stop offset="0.752" stop-color="#B60F0F"/>
<stop offset="0.828" stop-color="#AB0D0D"/>
<stop offset="0.889" stop-color="#9A0A0A"/>
<stop offset="0.941" stop-color="#840606"/>
<stop offset="0.987" stop-color="#690202"/>
<stop offset="1" stop-color="#600000"/>
</linearGradient>
<linearGradient id="paint8_linear_927_5210" x1="7.44956" y1="18.4553" x2="7.44956" y2="21" gradientUnits="userSpaceOnUse">
<stop offset="0.35" stop-color="#BF1010"/>
<stop offset="0.645" stop-color="#BD1010"/>
<stop offset="0.752" stop-color="#B60F0F"/>
<stop offset="0.828" stop-color="#AB0D0D"/>
<stop offset="0.889" stop-color="#9A0A0A"/>
<stop offset="0.941" stop-color="#840606"/>
<stop offset="0.987" stop-color="#690202"/>
<stop offset="1" stop-color="#600000"/>
</linearGradient>
<linearGradient id="paint9_linear_927_5210" x1="19.7312" y1="18.4553" x2="19.7312" y2="21.0002" gradientUnits="userSpaceOnUse">
<stop offset="0.35" stop-color="#DFDFDF"/>
<stop offset="0.645" stop-color="#DDDDDD"/>
<stop offset="0.752" stop-color="#D6D6D6"/>
<stop offset="0.828" stop-color="#CBCBCB"/>
<stop offset="0.889" stop-color="#BABABA"/>
<stop offset="0.941" stop-color="#A4A4A4"/>
<stop offset="0.987" stop-color="#898989"/>
<stop offset="1" stop-color="#808080"/>
</linearGradient>
<linearGradient id="paint10_linear_927_5210" x1="6.90079" y1="15.4457" x2="21.0002" y2="15.4457" gradientUnits="userSpaceOnUse">
<stop stop-color="#00209F"/>
<stop offset="0.021" stop-color="#0222A1"/>
<stop offset="0.244" stop-color="#1333B2"/>
<stop offset="0.487" stop-color="#1D3DBC"/>
<stop offset="0.791" stop-color="#2040BF"/>
<stop offset="0.841" stop-color="#1E3DBC"/>
<stop offset="0.882" stop-color="#1933B2"/>
<stop offset="0.919" stop-color="#1122A1"/>
<stop offset="0.954" stop-color="#050A89"/>
<stop offset="0.966" stop-color="#00007F"/>
<stop offset="1" stop-color="#2040BF"/>
</linearGradient>
<linearGradient id="paint11_linear_927_5210" x1="6.90079" y1="15.4456" x2="21.0002" y2="15.4456" gradientUnits="userSpaceOnUse">
<stop stop-color="#DFDFDF"/>
<stop offset="0.021" stop-color="#E1E1E1"/>
<stop offset="0.244" stop-color="#F2F2F2"/>
<stop offset="0.487" stop-color="#FCFCFC"/>
<stop offset="0.791" stop-color="white"/>
<stop offset="0.841" stop-color="#FCFCFC"/>
<stop offset="0.882" stop-color="#F2F2F2"/>
<stop offset="0.919" stop-color="#E1E1E1"/>
<stop offset="0.954" stop-color="#C9C9C9"/>
<stop offset="0.966" stop-color="#BFBFBF"/>
<stop offset="1" stop-color="white"/>
</linearGradient>
<linearGradient id="paint12_linear_927_5210" x1="6.90077" y1="15.6259" x2="21.0002" y2="15.6259" gradientUnits="userSpaceOnUse">
<stop stop-color="#BF1010"/>
<stop offset="0.021" stop-color="#C11212"/>
<stop offset="0.244" stop-color="#D22323"/>
<stop offset="0.487" stop-color="#DC2D2D"/>
<stop offset="0.791" stop-color="#DF3030"/>
<stop offset="0.841" stop-color="#DC2E2E"/>
<stop offset="0.882" stop-color="#D22626"/>
<stop offset="0.919" stop-color="#C11919"/>
<stop offset="0.954" stop-color="#A90808"/>
<stop offset="0.966" stop-color="#9F0000"/>
<stop offset="1" stop-color="#DF3030"/>
</linearGradient>
<linearGradient id="paint13_linear_927_5210" x1="6.90124" y1="11.9258" x2="21.0002" y2="11.9258" gradientUnits="userSpaceOnUse">
<stop stop-color="#BF1010"/>
<stop offset="0.021" stop-color="#C11212"/>
<stop offset="0.244" stop-color="#D22323"/>
<stop offset="0.487" stop-color="#DC2D2D"/>
<stop offset="0.791" stop-color="#DF3030"/>
<stop offset="0.841" stop-color="#DC2E2E"/>
<stop offset="0.882" stop-color="#D22626"/>
<stop offset="0.919" stop-color="#C11919"/>
<stop offset="0.954" stop-color="#A90808"/>
<stop offset="0.966" stop-color="#9F0000"/>
<stop offset="1" stop-color="#DF3030"/>
</linearGradient>
<linearGradient id="paint14_linear_927_5210" x1="6.90079" y1="13.0613" x2="21.0004" y2="13.0613" gradientUnits="userSpaceOnUse">
<stop stop-color="#BF1010"/>
<stop offset="0.021" stop-color="#C11212"/>
<stop offset="0.244" stop-color="#D22323"/>
<stop offset="0.487" stop-color="#DC2D2D"/>
<stop offset="0.791" stop-color="#DF3030"/>
<stop offset="0.841" stop-color="#DC2E2E"/>
<stop offset="0.882" stop-color="#D22626"/>
<stop offset="0.919" stop-color="#C11919"/>
<stop offset="0.954" stop-color="#A90808"/>
<stop offset="0.966" stop-color="#9F0000"/>
<stop offset="1" stop-color="#DF3030"/>
</linearGradient>
<linearGradient id="paint15_linear_927_5210" x1="6.90102" y1="18.1648" x2="21.0002" y2="18.1648" gradientUnits="userSpaceOnUse">
<stop stop-color="#BF1010"/>
<stop offset="0.021" stop-color="#C11212"/>
<stop offset="0.244" stop-color="#D22323"/>
<stop offset="0.487" stop-color="#DC2D2D"/>
<stop offset="0.791" stop-color="#DF3030"/>
<stop offset="0.841" stop-color="#DC2E2E"/>
<stop offset="0.882" stop-color="#D22626"/>
<stop offset="0.919" stop-color="#C11919"/>
<stop offset="0.954" stop-color="#A90808"/>
<stop offset="0.966" stop-color="#9F0000"/>
<stop offset="1" stop-color="#DF3030"/>
</linearGradient>
<linearGradient id="paint16_linear_927_5210" x1="6.90101" y1="19.1482" x2="21.0002" y2="19.1482" gradientUnits="userSpaceOnUse">
<stop stop-color="#BF1010"/>
<stop offset="0.021" stop-color="#C11212"/>
<stop offset="0.244" stop-color="#D22323"/>
<stop offset="0.487" stop-color="#DC2D2D"/>
<stop offset="0.791" stop-color="#DF3030"/>
<stop offset="0.841" stop-color="#DC2E2E"/>
<stop offset="0.882" stop-color="#D22626"/>
<stop offset="0.919" stop-color="#C11919"/>
<stop offset="0.954" stop-color="#A90808"/>
<stop offset="0.966" stop-color="#9F0000"/>
<stop offset="1" stop-color="#DF3030"/>
</linearGradient>
</defs>
</svg>
