<svg width="24" height="24" viewBox="0 0 24 24" fill="none" xmlns="http://www.w3.org/2000/svg">
<circle cx="12" cy="12" r="12" fill="#002FA7"/>
<path d="M22.5718 6.31726C20.6132 6.33717 18.4828 6.54494 16.1476 6.94003C11.9702 7.6468 8.61338 8.70676 5.8891 10.1828C4.8634 10.7356 1.74564 12.4225 2.10486 14.5255C2.24757 15.3862 2.92534 16.0813 4.11559 16.5946C5.12434 17.0276 6.30405 17.2497 7.10759 17.3808C10.089 17.8597 13.5028 17.7743 17.5378 17.1131L17.6176 17.1018C17.6285 17.099 17.6396 17.0976 17.6506 17.0962C17.6623 17.0947 17.6741 17.0932 17.6858 17.0901H17.7091L18.0167 17.0389C18.0224 17.0389 18.0284 17.0389 18.0397 17.0276C18.051 17.0248 18.0624 17.0233 18.0738 17.0219C18.0852 17.0205 18.0966 17.0191 18.1079 17.0163L18.1877 17.0046C20.0912 16.6709 21.8203 16.2621 23.3951 15.7722C23.4161 15.7087 23.4366 15.645 23.4566 15.5811C21.8554 16.0865 20.093 16.5061 18.1478 16.8465L18.0683 16.8578C18.0569 16.8606 18.0455 16.862 18.0341 16.8634C18.0226 16.8648 18.0111 16.8662 17.9998 16.8691H17.9942L17.6805 16.9259H17.6692L17.6579 16.9308C17.6464 16.9336 17.635 16.935 17.6236 16.9365C17.6122 16.9379 17.6009 16.9393 17.5894 16.9421L17.5095 16.9534C13.4918 17.6146 10.0951 17.7001 7.13169 17.2215L7.11451 17.2187C5.97999 17.0333 2.6047 16.4817 2.27016 14.5085L2.26942 14.504C2.1888 14.0091 1.94628 12.5205 5.96704 10.3451C8.68115 8.88035 12.0143 7.82566 16.1743 7.11927C18.54 6.71756 20.6922 6.51129 22.6672 6.49811C22.6359 6.43753 22.6041 6.37724 22.5718 6.31726Z" fill="white"/>
<path d="M23.001 7.19883C21.624 7.18591 20.2659 7.28326 19.2371 7.38625C17.8921 7.52293 16.8096 7.68823 16.285 7.77936C15.7665 7.86332 14.7005 8.05724 13.3729 8.38182C11.2755 8.89505 9.4975 9.48208 8.09526 10.1316C6.59662 10.8211 5.55925 11.5734 5.01213 12.36C4.61902 12.924 4.47067 13.5167 4.57346 14.1154C4.59643 14.2534 4.63262 14.3888 4.68153 14.5198C4.96657 15.2835 5.69029 15.8648 6.82443 16.2466C8.00978 16.6458 9.65715 16.8337 11.7085 16.8054C12.8363 16.7881 14.0672 16.7026 15.361 16.5603H15.3723C15.4281 16.5493 15.489 16.5433 15.5451 16.5377L15.5493 16.5373L15.7601 16.5147H15.7827C15.8569 16.5044 15.931 16.4953 16.0041 16.4864C16.094 16.4754 16.1824 16.4645 16.2673 16.4519H16.2843C16.3452 16.4451 16.4042 16.4364 16.4612 16.428C16.5001 16.4223 16.538 16.4167 16.575 16.4119C16.6359 16.4052 16.6949 16.3965 16.7519 16.3881C16.7908 16.3824 16.8287 16.3768 16.8657 16.372L16.8883 16.3664C16.9859 16.3505 17.08 16.3359 17.1698 16.322C17.2738 16.3059 17.3722 16.2906 17.464 16.2753C17.5167 16.2687 17.5676 16.2602 17.6166 16.2519C17.6522 16.2459 17.6868 16.2401 17.7204 16.2353C17.7896 16.2254 17.8656 16.2107 17.9377 16.1967C17.9472 16.1949 17.9566 16.1931 17.9659 16.1913C18.0684 16.1714 18.1792 16.1507 18.2969 16.1288C18.3755 16.1141 18.4572 16.0988 18.5416 16.0828L18.6497 16.0603C18.6877 16.054 18.7257 16.0459 18.7626 16.0379C18.7923 16.0316 18.8213 16.0254 18.8493 16.0203C18.8815 16.0146 18.9121 16.0087 18.9427 16.0028C18.9719 15.9972 19.001 15.9916 19.0315 15.9861L19.14 15.9635C19.2484 15.9405 19.3576 15.9179 19.4706 15.895L19.9092 15.7982C19.9535 15.7913 19.9972 15.7817 20.0403 15.7696C21.3115 15.4789 22.5025 15.1539 23.5854 14.7951C23.6172 14.7845 23.6488 14.7739 23.6803 14.7634C23.6949 14.7014 23.709 14.6392 23.7226 14.5769C23.6621 14.5975 23.601 14.618 23.5395 14.6384C22.4622 14.992 21.2768 15.3222 20.0117 15.6073C19.9889 15.6129 19.9675 15.6173 19.9461 15.6216C19.9248 15.6259 19.9034 15.6302 19.8806 15.6359L19.4416 15.7327C19.3275 15.7556 19.2194 15.7782 19.111 15.8012L19.0029 15.8238C18.9707 15.8303 18.9369 15.8368 18.9034 15.8432C18.8772 15.8482 18.8512 15.8531 18.8263 15.8581C18.7718 15.8731 18.713 15.8836 18.6575 15.8935C18.6491 15.895 18.6407 15.8965 18.6324 15.898L18.5239 15.9209C18.4573 15.9336 18.3924 15.9462 18.3293 15.9584C18.193 15.9849 18.0655 16.0097 17.9486 16.029C17.766 16.0633 17.6236 16.0862 17.4414 16.1145C17.2704 16.1374 17.0822 16.1657 16.8713 16.2L16.8487 16.2056C16.8079 16.2108 16.7649 16.217 16.7213 16.2233C16.6671 16.2311 16.6118 16.2391 16.558 16.2455C16.5109 16.2512 16.4638 16.2581 16.4168 16.265C16.3669 16.2723 16.3171 16.2796 16.2673 16.2854H16.25C16.0964 16.3084 15.9367 16.331 15.7771 16.3483H15.7485L15.5432 16.3766C15.4849 16.3876 15.4259 16.3952 15.3666 16.3995H15.3554C14.0672 16.5479 12.8431 16.6273 11.7134 16.6446C9.67899 16.6729 8.05384 16.4906 6.88656 16.0975C5.79798 15.7327 5.11418 15.1855 4.84608 14.4675C4.79981 14.3456 4.76551 14.2195 4.74366 14.0909C4.65254 13.5382 4.78922 12.9854 5.15371 12.4609C5.68351 11.6973 6.69829 10.9675 8.16868 10.2898C9.5423 9.65152 11.3602 9.05282 13.4177 8.55127C14.7326 8.23384 15.7985 8.03503 16.317 7.9488C16.8355 7.86257 17.9128 7.69237 19.2578 7.56134C20.299 7.4564 21.6816 7.36012 23.0773 7.3774C23.0523 7.31763 23.0269 7.25811 23.001 7.19883Z" fill="white"/>
<path d="M23.0047 7.20738C21.6245 7.19387 20.2623 7.29154 19.2311 7.3945C17.8861 7.53118 16.8035 7.69573 16.279 7.78761C15.7605 7.87308 14.6949 8.067 13.3669 8.39196C11.2695 8.90481 9.49149 9.49184 8.08962 10.1414C6.58986 10.8327 5.55249 11.5858 5.00537 12.3712C4.61226 12.9361 4.46391 13.5284 4.5667 14.1267C4.58405 14.2302 4.60923 14.3323 4.64201 14.4321C4.65255 14.4659 4.66423 14.4987 4.6759 14.5315L4.70037 14.5936C5.00161 15.3263 5.71704 15.8866 6.8188 16.2583C8.00453 16.657 9.65152 16.8453 11.7029 16.8167H11.7364L11.7594 16.7881C12.055 16.4752 12.3732 16.1517 12.6917 15.8757C12.6943 15.8734 12.697 15.8712 12.6996 15.869C12.7035 15.8657 12.7073 15.8625 12.7109 15.8592L12.8879 15.7055H12.6138C11.0922 15.7202 9.86502 15.5839 8.96847 15.2913L8.96056 15.2891L8.97111 15.2849C9.75846 14.9683 10.411 14.7924 11.0123 14.7246H11.0157C11.3137 14.8178 11.6578 14.8885 12.0448 14.9361C12.2373 14.9606 12.4308 14.978 12.6247 14.9882C12.4219 14.9761 12.2285 14.9587 12.0448 14.9361C11.8698 14.9139 11.6955 14.8858 11.5222 14.8519C11.4559 14.8383 11.3915 14.824 11.3283 14.809C11.3113 14.8051 11.2945 14.8009 11.2777 14.7967C11.2683 14.7944 11.259 14.7921 11.2496 14.7898C11.1743 14.7691 11.1008 14.748 11.03 14.7258L11.0131 14.722H11.0074C10.8998 14.6874 10.797 14.6489 10.7009 14.609C10.1143 14.7062 9.46814 14.9027 8.70527 15.2243L8.51963 15.3041L8.50759 15.3094H8.5057L8.70527 15.3847C9.59993 15.721 10.8595 15.8919 12.444 15.8863C12.1762 16.1257 11.9198 16.3935 11.6747 16.6499C9.65717 16.6785 8.05009 16.4902 6.88733 16.1028C5.83828 15.7511 5.16503 15.2303 4.87773 14.5499C4.86681 14.5247 4.85664 14.4983 4.84685 14.4727C4.83706 14.4471 4.82652 14.417 4.81748 14.3884C4.78581 14.2931 4.76139 14.1955 4.74443 14.0966C4.65331 13.5438 4.78999 12.991 5.15486 12.4669C5.68465 11.7029 6.69868 10.9735 8.16945 10.2954C9.54307 9.65525 11.361 9.05881 13.4184 8.55726C14.7363 8.23795 15.8008 8.03839 16.3178 7.95479C16.8348 7.8712 17.9136 7.69837 19.2586 7.56733C20.2981 7.46258 21.6822 7.36613 23.0799 7.3835C23.0553 7.32455 23.0302 7.26584 23.0047 7.20738Z" fill="white"/>
<path d="M23.6787 14.7701C23.6932 14.7086 23.7073 14.6469 23.7209 14.5851C23.6723 14.6015 23.6233 14.6179 23.5741 14.6343C23.2548 14.469 22.9129 14.298 22.571 14.15C23.0471 13.9821 23.4871 13.8096 23.8898 13.6328C23.8993 13.5629 23.9082 13.4929 23.9165 13.4227C23.4329 13.6398 22.8918 13.85 22.2954 14.0525L22.0732 14.1278H22.0755L22.2898 14.2122C22.2961 14.2143 22.3022 14.2168 22.3082 14.2197C22.7229 14.3862 23.1282 14.5754 23.5222 14.7864L23.5564 14.8033H23.5794C23.6126 14.7923 23.6457 14.7812 23.6787 14.7701Z" fill="white"/>
<path d="M23.9897 12.502C23.7951 12.5313 23.6146 12.5694 23.4469 12.6164C23.0662 12.8845 22.5808 13.1409 22.0032 13.3808L21.9234 13.4094C21.7645 13.4723 21.6048 13.5348 21.4339 13.5916C21.4061 13.6012 21.3788 13.6108 21.3515 13.6204C21.3164 13.6327 21.2814 13.6451 21.2456 13.6571L21.1869 13.6771L21.0442 13.723L21.0728 13.5747C21.0761 13.5623 21.0783 13.5497 21.0796 13.537C21.1379 13.2434 21.1643 12.9443 21.1582 12.645C21.1533 12.4538 21.1343 12.2633 21.1014 12.0749C21.0953 12.035 21.0874 11.9966 21.0797 11.9589C21.0731 11.9269 21.0667 11.8955 21.0615 11.864C20.8339 10.8506 20.2233 9.96441 19.3573 9.39092C19.0925 9.21457 18.8074 9.07094 18.5082 8.96317C17.8832 8.73577 17.212 8.66531 16.5535 8.75796L16.4507 8.77528L16.3649 8.78959L16.3483 8.79222C15.6969 8.92125 15.0867 9.20685 14.5703 9.62438C14.3984 9.76455 14.2386 9.91884 14.0924 10.0856C14.0333 10.1523 13.9757 10.2212 13.9204 10.2912C13.5215 10.8086 13.2552 11.4156 13.1447 12.0595C13.083 12.4016 13.0674 12.7505 13.0984 13.0968C13.1018 13.1368 13.1059 13.1763 13.1104 13.2162C13.1154 13.2819 13.1249 13.3424 13.1351 13.4077C13.1364 13.4161 13.1377 13.4245 13.139 13.4331C13.2227 13.9258 13.3982 14.3984 13.6564 14.8263C13.6633 14.8388 13.6708 14.8509 13.678 14.8628L13.6813 14.8681L13.76 14.9916V14.9935L13.612 14.9991H13.4802C13.4335 15.0018 13.3861 15.0018 13.3375 15.0018H13.3281L13.5337 14.992H13.5634L13.5382 14.9509C13.5244 14.9277 13.5106 14.9041 13.4971 14.881C13.4874 14.8644 13.4778 14.8481 13.4685 14.8323C13.3358 14.6007 13.2262 14.3565 13.1413 14.1033C13.0776 13.9141 13.0273 13.7205 12.9907 13.5242C12.9865 13.5028 12.9832 13.4851 12.9805 13.4651C12.9786 13.456 12.9772 13.4468 12.9764 13.4376C12.976 13.4357 12.976 13.4338 12.9764 13.432L12.973 13.409V13.4041C12.972 13.3992 12.9712 13.3943 12.9705 13.3893C12.9697 13.3848 12.969 13.3802 12.9681 13.3755C12.9613 13.3303 12.9545 13.2847 12.9478 13.2369C12.9453 13.2222 12.9438 13.2074 12.9432 13.1925C12.9357 13.1247 12.9308 13.0562 12.9271 12.9884C12.9175 12.8193 12.9181 12.6498 12.9289 12.4808C12.9312 12.4432 12.9342 12.4055 12.9376 12.3679C12.9399 12.3396 12.9425 12.311 12.9459 12.2831C12.9568 12.2007 12.9692 12.1178 12.9835 12.0354C12.9895 12 12.9967 11.9625 13.0038 11.9249C13.006 11.9137 13.0081 11.9036 13.0105 11.8927C13.0118 11.8864 13.0133 11.8797 13.0148 11.8723L13.016 11.8665C13.0197 11.8487 13.0231 11.832 13.0272 11.8147C13.0287 11.8125 13.0294 11.8098 13.0291 11.8072C13.0294 11.8042 13.0302 11.8013 13.0314 11.7985C13.037 11.7741 13.0427 11.7495 13.0491 11.7259C13.051 11.7168 13.0535 11.7079 13.0566 11.6991C13.0583 11.6941 13.0596 11.6889 13.0603 11.6837C13.0663 11.6597 13.073 11.6357 13.0797 11.6122C13.0806 11.6088 13.0816 11.6054 13.0826 11.602C13.0849 11.5937 13.0873 11.5854 13.0896 11.5772C13.0973 11.5501 13.1049 11.5231 13.1138 11.4965C13.1183 11.4832 13.1227 11.4698 13.1272 11.4563C13.1343 11.4348 13.1414 11.4132 13.1488 11.3919V11.3889C13.1926 11.2591 13.2429 11.1317 13.2995 11.007C13.3037 10.9983 13.3077 10.9902 13.3117 10.9821C13.3197 10.9659 13.3275 10.9499 13.3371 10.9295C13.3514 10.899 13.3661 10.8685 13.3823 10.8391C13.4011 10.8014 13.4211 10.7638 13.4414 10.7261C13.5446 10.5404 13.6614 10.3626 13.7908 10.1941L13.8074 10.1734C14 9.9224 14.2224 9.69581 14.4697 9.49861C15.0069 9.06143 15.6427 8.76218 16.322 8.62692C16.3275 8.62441 16.3336 8.62337 16.3396 8.62391C16.4053 8.60992 16.4717 8.59949 16.5385 8.59265C17.2233 8.49601 17.9214 8.5684 18.5718 8.80352C18.8855 8.91724 19.184 9.06899 19.4608 9.25537C19.8122 9.48965 20.1268 9.77493 20.3942 10.1018C20.415 10.1275 20.4367 10.1551 20.4562 10.1801L20.4654 10.1918C20.4873 10.2197 20.5046 10.2434 20.5294 10.2773C20.5543 10.3112 20.5784 10.3458 20.6021 10.3801C20.6795 10.4916 20.7513 10.607 20.8171 10.7258C21.011 11.0738 21.153 11.4483 21.2388 11.8373C21.2445 11.8629 21.2498 11.8874 21.2543 11.9126C21.2578 11.9304 21.2616 11.9479 21.2654 11.9656C21.2721 11.9967 21.2789 12.0279 21.2844 12.0606C21.2931 12.1118 21.3006 12.1615 21.3074 12.2112C21.3122 12.2487 21.3172 12.2866 21.3205 12.3242C21.3239 12.3618 21.3269 12.4017 21.33 12.4371C21.3319 12.4602 21.3332 12.4848 21.3345 12.5092C21.3352 12.5223 21.3359 12.5352 21.3367 12.5478C21.337 12.5526 21.3373 12.5574 21.3376 12.5621C21.3396 12.5934 21.3416 12.6243 21.3416 12.657C21.3468 12.8872 21.3342 13.1175 21.304 13.3457C21.2995 13.3853 21.2938 13.4252 21.287 13.4651C21.2857 13.4712 21.2847 13.4773 21.284 13.4836L21.3868 13.4493C21.5521 13.3924 21.717 13.3295 21.871 13.267L21.9509 13.2384C22.5266 13.0038 23.0052 12.7489 23.3757 12.4853L23.3926 12.474L23.41 12.4684C23.5911 12.4161 23.7854 12.3742 23.9952 12.3425C23.9937 12.3957 23.9919 12.4489 23.9897 12.502Z" fill="white"/>
<path d="M11.0417 14.5597L11.0587 14.5657C11.2334 14.6215 11.4113 14.6669 11.5915 14.7017C11.4575 14.6957 11.3226 14.6986 11.1889 14.7088C11.1633 14.7116 11.1391 14.7131 11.1149 14.7145C11.0907 14.7159 11.0666 14.7173 11.041 14.7201L11.0248 14.5605L11.0417 14.5597Z" fill="white"/>
<path d="M12.979 14.8282H12.9843L12.9903 14.8357V14.8372L12.979 14.8395V14.8282Z" fill="white"/>
<path d="M12.9414 15.0059H12.9335L12.8412 14.9999H12.8687C12.8853 15.0015 12.9021 15.0021 12.9188 15.0018C12.9264 15.0021 12.9341 15.0025 12.9419 15.0029C12.9973 15.0056 13.0558 15.0085 13.1142 15.0085H13.0389C13.0236 15.0084 13.0086 15.0078 12.9936 15.0072C12.976 15.0066 12.9586 15.0059 12.9414 15.0059Z" fill="white"/>
<path d="M23.0047 7.20738C21.6245 7.19387 20.2623 7.29154 19.2311 7.3945C17.8861 7.53118 16.8035 7.69573 16.279 7.78761C15.7605 7.87308 14.6949 8.067 13.3669 8.39196C11.2695 8.90481 9.49149 9.49184 8.08962 10.1414C6.58986 10.8327 5.55249 11.5858 5.00537 12.3712C4.61226 12.9361 4.46391 13.5284 4.5667 14.1267C4.58405 14.2302 4.60923 14.3323 4.64201 14.4321C4.65255 14.4659 4.66423 14.4987 4.6759 14.5315L4.70037 14.5936C5.00161 15.3263 5.71704 15.8866 6.8188 16.2583C8.00453 16.657 9.65152 16.8453 11.7029 16.8167H11.7364L11.7594 16.7881C12.055 16.4752 12.3732 16.1517 12.6917 15.8757C12.6943 15.8734 12.697 15.8712 12.6996 15.869C12.7035 15.8657 12.7073 15.8625 12.7109 15.8592L12.8879 15.7055H12.6138C11.0922 15.7202 9.86502 15.5839 8.96847 15.2913L8.96056 15.2891L8.97111 15.2849C9.75846 14.9683 10.411 14.7924 11.0123 14.7246H11.0157C11.3137 14.8178 11.6578 14.8885 12.0448 14.9361C12.2373 14.9606 12.4308 14.978 12.6247 14.9882C12.4219 14.9761 12.2285 14.9587 12.0448 14.9361C11.8698 14.9139 11.6955 14.8858 11.5222 14.8519C11.4559 14.8383 11.3915 14.824 11.3283 14.809C11.3113 14.8051 11.2945 14.8009 11.2777 14.7967C11.2683 14.7944 11.259 14.7921 11.2496 14.7898C11.1743 14.7691 11.1008 14.748 11.03 14.7258L11.0131 14.722H11.0074C10.8998 14.6874 10.797 14.6489 10.7009 14.609C10.1143 14.7062 9.46814 14.9027 8.70527 15.2243L8.51963 15.3041L8.50759 15.3094H8.5057L8.70527 15.3847C9.59993 15.721 10.8595 15.8919 12.444 15.8863C12.1762 16.1257 11.9198 16.3935 11.6747 16.6499C9.65717 16.6785 8.05009 16.4902 6.88733 16.1028C5.83828 15.7511 5.16503 15.2303 4.87773 14.5499C4.86681 14.5247 4.85664 14.4983 4.84685 14.4727C4.83706 14.4471 4.82652 14.417 4.81748 14.3884C4.78581 14.2931 4.76139 14.1955 4.74443 14.0966C4.65331 13.5438 4.78999 12.991 5.15486 12.4669C5.68465 11.7029 6.69868 10.9735 8.16945 10.2954C9.54307 9.65525 11.361 9.05881 13.4184 8.55726C14.7363 8.23795 15.8008 8.03839 16.3178 7.95479C16.8348 7.8712 17.9136 7.69837 19.2586 7.56733C20.2981 7.46258 21.6822 7.36613 23.0799 7.3835C23.0553 7.32455 23.0302 7.26584 23.0047 7.20738Z" fill="white"/>
<path d="M23.6787 14.7701C23.6932 14.7086 23.7073 14.6469 23.7209 14.5851C23.6723 14.6015 23.6233 14.6179 23.5741 14.6343C23.2548 14.469 22.9129 14.298 22.571 14.15C23.0471 13.9821 23.4871 13.8096 23.8898 13.6328C23.8993 13.5629 23.9082 13.4929 23.9165 13.4227C23.4329 13.6398 22.8918 13.85 22.2954 14.0525L22.0732 14.1278H22.0755L22.2898 14.2122C22.2961 14.2143 22.3022 14.2168 22.3082 14.2197C22.7229 14.3862 23.1282 14.5754 23.5222 14.7864L23.5564 14.8033H23.5794C23.6126 14.7923 23.6457 14.7812 23.6787 14.7701Z" fill="white"/>
<path d="M23.9897 12.502C23.7951 12.5313 23.6146 12.5694 23.4469 12.6164C23.0662 12.8845 22.5808 13.1409 22.0032 13.3808L21.9234 13.4094C21.7645 13.4723 21.6048 13.5348 21.4339 13.5916C21.4061 13.6012 21.3788 13.6108 21.3515 13.6204C21.3164 13.6327 21.2814 13.6451 21.2456 13.6571L21.1869 13.6771L21.0442 13.723L21.0728 13.5747C21.0761 13.5623 21.0783 13.5497 21.0796 13.537C21.1379 13.2434 21.1643 12.9443 21.1582 12.645C21.1533 12.4538 21.1343 12.2633 21.1014 12.0749C21.0953 12.035 21.0874 11.9966 21.0797 11.9589C21.0731 11.9269 21.0667 11.8955 21.0615 11.864C20.8339 10.8506 20.2233 9.96441 19.3573 9.39092C19.0925 9.21457 18.8074 9.07094 18.5082 8.96317C17.8832 8.73577 17.212 8.66531 16.5535 8.75796L16.4507 8.77528L16.3649 8.78959L16.3483 8.79222C15.6969 8.92125 15.0867 9.20685 14.5703 9.62438C14.3984 9.76455 14.2386 9.91884 14.0924 10.0856C14.0333 10.1523 13.9757 10.2212 13.9204 10.2912C13.5215 10.8086 13.2552 11.4156 13.1447 12.0595C13.083 12.4016 13.0674 12.7505 13.0984 13.0968C13.1018 13.1368 13.1059 13.1763 13.1104 13.2162C13.1154 13.2819 13.1249 13.3424 13.1351 13.4077C13.1364 13.4161 13.1377 13.4245 13.139 13.4331C13.2227 13.9258 13.3982 14.3984 13.6564 14.8263C13.6633 14.8388 13.6708 14.8509 13.678 14.8628L13.6813 14.8681L13.76 14.9916V14.9935L13.612 14.9991H13.4802C13.4335 15.0018 13.3861 15.0018 13.3375 15.0018H13.3281L13.5337 14.992H13.5634L13.5382 14.9509C13.5244 14.9277 13.5106 14.9041 13.4971 14.881C13.4874 14.8644 13.4778 14.8481 13.4685 14.8323C13.3358 14.6007 13.2262 14.3565 13.1413 14.1033C13.0776 13.9141 13.0273 13.7205 12.9907 13.5242C12.9865 13.5028 12.9832 13.4851 12.9805 13.4651C12.9786 13.456 12.9772 13.4468 12.9764 13.4376C12.976 13.4357 12.976 13.4338 12.9764 13.432L12.973 13.409V13.4041C12.972 13.3992 12.9712 13.3943 12.9705 13.3893C12.9697 13.3848 12.969 13.3802 12.9681 13.3755C12.9613 13.3303 12.9545 13.2847 12.9478 13.2369C12.9453 13.2222 12.9438 13.2074 12.9432 13.1925C12.9357 13.1247 12.9308 13.0562 12.9271 12.9884C12.9175 12.8193 12.9181 12.6498 12.9289 12.4808C12.9312 12.4432 12.9342 12.4055 12.9376 12.3679C12.9399 12.3396 12.9425 12.311 12.9459 12.2831C12.9568 12.2007 12.9692 12.1178 12.9835 12.0354C12.9895 12 12.9967 11.9625 13.0038 11.9249C13.006 11.9137 13.0081 11.9036 13.0105 11.8927C13.0118 11.8864 13.0133 11.8797 13.0148 11.8723L13.016 11.8665C13.0197 11.8487 13.0231 11.832 13.0272 11.8147C13.0287 11.8125 13.0294 11.8098 13.0291 11.8072C13.0294 11.8042 13.0302 11.8013 13.0314 11.7985C13.037 11.7741 13.0427 11.7495 13.0491 11.7259C13.051 11.7168 13.0535 11.7079 13.0566 11.6991C13.0583 11.6941 13.0596 11.6889 13.0603 11.6837C13.0663 11.6597 13.073 11.6357 13.0797 11.6122C13.0806 11.6088 13.0816 11.6054 13.0826 11.602C13.0849 11.5937 13.0873 11.5854 13.0896 11.5772C13.0973 11.5501 13.1049 11.5231 13.1138 11.4965C13.1183 11.4832 13.1227 11.4698 13.1272 11.4563C13.1343 11.4348 13.1414 11.4132 13.1488 11.3919V11.3889C13.1926 11.2591 13.2429 11.1317 13.2995 11.007C13.3037 10.9983 13.3077 10.9902 13.3117 10.9821C13.3197 10.9659 13.3275 10.9499 13.3371 10.9295C13.3514 10.899 13.3661 10.8685 13.3823 10.8391C13.4011 10.8014 13.4211 10.7638 13.4414 10.7261C13.5446 10.5404 13.6614 10.3626 13.7908 10.1941L13.8074 10.1734C14 9.9224 14.2224 9.69581 14.4697 9.49861C15.0069 9.06143 15.6427 8.76218 16.322 8.62692C16.3275 8.62441 16.3336 8.62337 16.3396 8.62391C16.4053 8.60992 16.4717 8.59949 16.5385 8.59265C17.2233 8.49601 17.9214 8.5684 18.5718 8.80352C18.8855 8.91724 19.184 9.06899 19.4608 9.25537C19.8122 9.48965 20.1268 9.77493 20.3942 10.1018C20.415 10.1275 20.4367 10.1551 20.4562 10.1801L20.4654 10.1918C20.4873 10.2197 20.5046 10.2434 20.5294 10.2773C20.5543 10.3112 20.5784 10.3458 20.6021 10.3801C20.6795 10.4916 20.7513 10.607 20.8171 10.7258C21.011 11.0738 21.153 11.4483 21.2388 11.8373C21.2445 11.8629 21.2498 11.8874 21.2543 11.9126C21.2578 11.9304 21.2616 11.9479 21.2654 11.9656C21.2721 11.9967 21.2789 12.0279 21.2844 12.0606C21.2931 12.1118 21.3006 12.1615 21.3074 12.2112C21.3122 12.2487 21.3172 12.2866 21.3205 12.3242C21.3239 12.3618 21.3269 12.4017 21.33 12.4371C21.3319 12.4602 21.3332 12.4848 21.3345 12.5092C21.3352 12.5223 21.3359 12.5352 21.3367 12.5478C21.337 12.5526 21.3373 12.5574 21.3376 12.5621C21.3396 12.5934 21.3416 12.6243 21.3416 12.657C21.3468 12.8872 21.3342 13.1175 21.304 13.3457C21.2995 13.3853 21.2938 13.4252 21.287 13.4651C21.2857 13.4712 21.2847 13.4773 21.284 13.4836L21.3868 13.4493C21.5521 13.3924 21.717 13.3295 21.871 13.267L21.9509 13.2384C22.5266 13.0038 23.0052 12.7489 23.3757 12.4853L23.3926 12.474L23.41 12.4684C23.5911 12.4161 23.7854 12.3742 23.9952 12.3425C23.9937 12.3957 23.9919 12.4489 23.9897 12.502Z" fill="white"/>
<path d="M11.0417 14.5597L11.0587 14.5657C11.2334 14.6215 11.4113 14.6669 11.5915 14.7017C11.4575 14.6957 11.3226 14.6986 11.1889 14.7088C11.1633 14.7116 11.1391 14.7131 11.1149 14.7145C11.0907 14.7159 11.0666 14.7173 11.041 14.7201L11.0248 14.5605L11.0417 14.5597Z" fill="white"/>
<path d="M12.979 14.8282H12.9843L12.9903 14.8357L12.979 14.8395V14.8282Z" fill="white"/>
<path d="M12.9414 15.0059H12.9335L12.8412 14.9999H12.8687C12.8853 15.0015 12.9021 15.0021 12.9188 15.0018C12.9264 15.0021 12.9341 15.0025 12.9419 15.0029C12.9973 15.0056 13.0558 15.0085 13.1142 15.0085H13.0389C13.0236 15.0084 13.0086 15.0078 12.9936 15.0072C12.976 15.0066 12.9586 15.0059 12.9414 15.0059Z" fill="white"/>
<path d="M23.4053 8.25875C23.322 8.24972 23.2374 8.24139 23.1513 8.23378H23.14C21.6127 8.09709 19.9142 8.20064 18.7574 8.3136C17.7328 8.41038 16.9233 8.53576 16.5358 8.59865L16.5644 8.76357C17.223 8.67092 17.8941 8.74139 18.5191 8.96879C18.8183 9.07656 19.1034 9.22019 19.3682 9.39654C20.2342 9.97002 20.8448 10.8562 21.0724 11.8697C21.0775 11.9005 21.0838 11.931 21.0902 11.9622C21.0981 12.0002 21.1061 12.0391 21.1123 12.0805C21.1447 12.2689 21.1635 12.4595 21.1684 12.6506C21.1745 12.9625 21.1458 13.274 21.0829 13.5795L21.0543 13.7275L21.1865 13.6936C21.2627 13.6681 21.3344 13.6426 21.4053 13.6174L21.4312 13.6082C21.6018 13.5509 21.7611 13.4884 21.9207 13.4255L22.0006 13.3973C22.5819 13.1578 23.0662 12.9014 23.448 12.6333C23.6149 12.5853 23.795 12.5466 23.9891 12.517C23.9917 12.4547 23.9939 12.3923 23.9956 12.3298C23.7846 12.361 23.5892 12.4029 23.4069 12.4559L23.39 12.4616L23.3731 12.4733C23.0025 12.7368 22.5236 12.9925 21.9482 13.2263L21.8684 13.2546C21.7144 13.3175 21.5491 13.38 21.3838 13.4372L21.2814 13.4711C21.3257 13.1981 21.3447 12.9215 21.3382 12.645C21.3334 12.4468 21.3145 12.2493 21.2817 12.0538C21.2731 12.0159 21.2658 11.9783 21.2585 11.9405C21.2515 11.9044 21.2445 11.8681 21.2362 11.8313C21.1502 11.4424 21.0082 11.0681 20.8145 10.7201C20.4862 10.1289 20.0215 9.6248 19.4589 9.24969C19.182 9.0633 18.8833 8.91156 18.5695 8.79784C18.2944 8.69892 18.0099 8.62827 17.7204 8.58697C18.0341 8.54706 18.3873 8.50715 18.7736 8.46648C19.9307 8.35276 21.6233 8.24997 23.1392 8.38703H23.1505C23.2547 8.3969 23.3568 8.40776 23.4568 8.41959C23.44 8.36581 23.4228 8.3122 23.4053 8.25875Z" fill="white"/>
<path d="M12.9045 14.8285L12.9342 14.824L12.979 14.8338L12.9651 14.8364L12.9432 14.8391L12.9244 14.8432H12.9188C12.813 14.8398 12.7128 14.8349 12.6077 14.8289C12.5027 14.8229 12.4003 14.8153 12.3012 14.8056C12.0632 14.7846 11.8264 14.7513 11.5918 14.7058C11.4579 14.6998 11.3237 14.7019 11.1901 14.7122C11.1645 14.715 11.1403 14.7164 11.1161 14.7178C11.0919 14.7192 11.0677 14.7206 11.0421 14.7235L11.0259 14.5638C10.9202 14.5756 10.8124 14.5909 10.7024 14.6098C10.7985 14.6497 10.9013 14.6881 11.0089 14.7227H11.0146L11.0315 14.7265C11.1023 14.7487 11.1758 14.7698 11.2511 14.7905C11.1727 14.7705 11.0978 14.7495 11.0251 14.7265H11.0172C10.4117 14.795 9.7641 14.9735 8.98089 15.2879L8.96997 15.2921C8.90408 15.3188 8.83668 15.3466 8.76852 15.3753L8.73991 15.3866L8.70564 15.3753L8.69202 15.3699C8.63323 15.3466 8.57551 15.3237 8.52 15.3C8.51558 15.2985 8.51129 15.2966 8.5072 15.2943C7.77144 14.9791 7.30528 14.5344 7.12078 13.9696C7.11287 13.9459 7.10534 13.9218 7.09856 13.8981C7.0899 13.865 7.08199 13.8345 7.07409 13.8009C7.06618 13.7674 7.05865 13.7339 7.053 13.6985C6.96188 13.174 7.10421 12.6608 7.47473 12.1713L7.49732 12.1427C7.95896 11.5443 8.77982 10.9799 9.92526 10.4558C11.0538 9.9429 12.4673 9.48126 14.1369 9.08213C14.9314 8.89235 15.6005 8.76018 16.0399 8.67923C16.1555 8.65814 16.2549 8.64044 16.337 8.62614V8.62915L16.3649 8.78959L16.3645 8.79144C15.4691 8.96441 14.6591 9.43671 14.0676 10.1308C14.0228 10.1831 13.9787 10.2362 13.9362 10.2904C13.5378 10.8075 13.2716 11.4139 13.1609 12.0572C13.1001 12.3959 13.0842 12.7411 13.1134 13.084C13.1172 13.1273 13.1217 13.1706 13.1266 13.2139C13.1312 13.2745 13.1398 13.3305 13.149 13.39L13.1552 13.4308C13.2385 13.9254 13.4138 14.4 13.6718 14.83C13.6801 14.8443 13.6888 14.8583 13.6974 14.8718L13.7705 14.9953L13.6221 15.001H13.4798C13.4331 15.0036 13.3857 15.0036 13.3372 15.0036H13.3277L13.5333 14.9938H13.563L13.5378 14.9528L13.5232 14.9282C13.5044 14.8967 13.4858 14.8656 13.4681 14.8342C13.4285 14.7666 13.3916 14.6979 13.3574 14.6278C13.3458 14.6061 13.335 14.5839 13.324 14.5613L13.3198 14.5525C13.3116 14.5356 13.3039 14.5184 13.2961 14.501L13.284 14.4742C13.2565 14.4128 13.2309 14.3507 13.2064 14.2886C13.194 14.2573 13.1823 14.2257 13.171 14.1944C13.1597 14.1632 13.1469 14.127 13.1383 14.1007C13.1296 14.0743 13.121 14.048 13.1131 14.0212C13.0822 13.9233 13.0539 13.8205 13.028 13.7117L13.0091 13.6285C13.0079 13.6237 13.007 13.6188 13.0065 13.6138C12.9956 13.5649 12.9865 13.514 12.9786 13.4632C12.9751 13.4406 12.9717 13.4176 12.9685 13.3943C12.966 13.3895 12.965 13.3842 12.9655 13.3788L12.9575 13.3257C12.9531 13.2963 12.9486 13.2663 12.9444 13.2354C12.942 13.223 12.9406 13.2104 12.9402 13.1977C12.9331 13.1296 12.9278 13.0618 12.9237 12.994C12.9141 12.8249 12.9147 12.6554 12.9255 12.4864C12.9278 12.4488 12.9308 12.4111 12.9342 12.3735C12.9365 12.3452 12.9391 12.3166 12.9425 12.2888C12.9534 12.2037 12.9651 12.1189 12.9801 12.035C12.985 12.006 12.9903 11.977 12.9967 11.948C12.9979 11.944 12.9988 11.94 12.9996 11.936L13.0005 11.9303C13.0026 11.9191 13.0047 11.9092 13.0071 11.8983L13.0114 11.8779L13.0126 11.8722C13.0163 11.8544 13.0197 11.8377 13.0238 11.8203C13.0253 11.8181 13.026 11.8155 13.0257 11.8128L13.0261 11.8101C13.0265 11.8081 13.0272 11.8061 13.028 11.8041C13.0336 11.7797 13.0393 11.7552 13.0457 11.7315C13.0476 11.7224 13.0501 11.7135 13.0532 11.7047C13.0549 11.6997 13.0562 11.6946 13.057 11.6893L13.0592 11.6815C13.0618 11.6725 13.0644 11.6638 13.0667 11.655C13.0705 11.6387 13.0747 11.6229 13.0792 11.6076L13.0862 11.5828C13.0939 11.5557 13.1015 11.5287 13.1104 11.5022L13.1238 11.462C13.1309 11.4405 13.138 11.4188 13.1454 11.3975C13.2635 11.0491 13.4273 10.718 13.6327 10.4128C13.6816 10.339 13.7336 10.2664 13.7882 10.1959L13.7907 10.1925C13.7933 10.189 13.7958 10.1856 13.7984 10.1828C13.9923 9.92889 14.2166 9.69975 14.4663 9.50046C14.6949 9.31244 14.9434 9.15006 15.2074 9.01623C15.1923 9.01887 15.1776 9.02188 15.1629 9.02527C14.861 9.08778 14.5281 9.16459 14.1644 9.25119C13.3465 9.44737 12.5754 9.66238 11.872 9.89132C11.2287 10.0962 10.5975 10.3372 9.98136 10.6131C8.84157 11.1301 8.0433 11.6885 7.59898 12.2699L7.57602 12.2985C7.25144 12.7372 7.12605 13.1989 7.20588 13.6661L7.21444 13.71C7.21815 13.7294 7.22194 13.7493 7.22621 13.7693C7.23186 13.7957 7.23675 13.8175 7.24541 13.8484C7.25407 13.8793 7.26386 13.9094 7.27403 13.9391C7.46343 14.484 7.94955 14.9076 8.72183 15.1994C9.4704 14.8895 10.103 14.6952 10.6798 14.597C10.7932 14.577 10.9043 14.5612 11.0138 14.5491H11.0308L11.0481 14.5548C11.2472 14.6185 11.4504 14.6688 11.6562 14.7054C11.8324 14.7383 12.02 14.7645 12.2188 14.7841C12.3385 14.7966 12.4623 14.8067 12.59 14.8142C12.6902 14.8206 12.7934 14.8251 12.8981 14.8285H12.9045Z" fill="white"/>
<path d="M12.9816 14.8338H12.9896L13.0061 14.8372H13.0438C13.0833 14.8377 13.1227 14.8387 13.1617 14.8397C13.2135 14.8411 13.2647 14.8425 13.3145 14.8425H13.4651L13.4685 14.8481H13.4626L13.4685 14.8538H13.3213C13.2775 14.8538 13.2329 14.8526 13.1877 14.8513C13.1415 14.8501 13.0947 14.8489 13.0479 14.8489H12.985V14.8466L12.9737 14.8489V14.8376H12.9816V14.8338Z" fill="white"/>
<path d="M13.0366 15.0157L12.9414 15.0123L12.8521 15.007H12.8664C12.8831 15.0086 12.8998 15.0092 12.9165 15.0089L12.9397 15.01C12.9951 15.0128 13.0535 15.0157 13.1119 15.0157H13.0366Z" fill="white"/>
<path d="M23.8161 9.89543C23.3479 9.63026 22.6511 9.44742 21.7355 9.33936C20.9649 9.25875 20.1903 9.22455 19.4156 9.23694L19.1422 9.24259L19.3682 9.39654C20.2342 9.97002 20.8448 10.8562 21.0724 11.8697C21.0775 11.9005 21.0838 11.931 21.0902 11.9622C21.0981 12.0002 21.1061 12.0391 21.1123 12.0805C21.1447 12.2689 21.1635 12.4595 21.1684 12.6506C21.1745 12.9625 21.1458 13.274 21.0829 13.5795L21.0543 13.7275L21.2 13.6813C21.2855 13.653 21.3653 13.6244 21.4452 13.5958C21.6157 13.5389 21.7754 13.4764 21.9347 13.4135L22.0145 13.3849C22.5906 13.1458 23.0801 12.895 23.4567 12.6269L23.4736 12.6156C23.6784 12.4707 23.8535 12.3213 23.9988 12.1679C23.9996 12.112 24 12.056 24 12C24 11.9668 23.9999 11.9337 23.9996 11.9005C23.8461 12.0926 23.6425 12.28 23.39 12.4616L23.3731 12.4733C23.0025 12.7368 22.5236 12.9925 21.9482 13.2263L21.8684 13.2546C21.7144 13.3175 21.5491 13.38 21.3838 13.4372L21.2814 13.4711C21.3257 13.1981 21.3447 12.9215 21.3382 12.645C21.3334 12.4468 21.3145 12.2493 21.2817 12.0538C21.2731 12.0159 21.2658 11.9783 21.2585 11.9405C21.2515 11.9044 21.2445 11.8681 21.2362 11.8313C21.1502 11.4424 21.0082 11.0681 20.8145 10.7201C20.5306 10.2061 20.1431 9.7569 19.6754 9.40187C20.3547 9.40008 21.0335 9.43603 21.7088 9.50956C22.6433 9.62365 23.3388 9.81154 23.7831 10.0796C23.8077 10.0944 23.8314 10.1094 23.8543 10.1246C23.8423 10.048 23.8295 9.97159 23.8161 9.89543Z" fill="white"/>
<path fill-rule="evenodd" clip-rule="evenodd" d="M13.0031 14.8323L12.9976 14.8335H13.0065L13.0047 14.8339H13.0415L13.0404 14.8327C13.08 14.8332 13.1194 14.8342 13.1584 14.8353C13.2101 14.8366 13.2613 14.838 13.3111 14.838H13.4571C13.418 14.771 13.3814 14.7027 13.3473 14.6332C13.3356 14.6115 13.3248 14.5892 13.3139 14.5667L13.3096 14.5578C13.3014 14.5409 13.2937 14.5237 13.2859 14.5063L13.2738 14.4795C13.2464 14.4182 13.2208 14.356 13.1963 14.2939C13.1839 14.2626 13.1722 14.231 13.1609 14.1998C13.1496 14.1685 13.1368 14.1324 13.1281 14.106C13.1195 14.0797 13.1108 14.0532 13.1029 14.0265C13.072 13.9286 13.0438 13.8259 13.0178 13.717L12.999 13.6338C12.9977 13.629 12.9968 13.6241 12.9963 13.6191C12.9854 13.5702 12.9764 13.5193 12.9685 13.4685C12.9665 13.4615 12.9651 13.4543 12.9643 13.4471C12.964 13.4452 12.964 13.4433 12.9643 13.4414L12.9609 13.4184V13.4135C12.9606 13.4089 12.9606 13.4042 12.9609 13.3996C12.9602 13.3941 12.9602 13.3885 12.9609 13.383C12.8442 13.4654 12.735 13.5579 12.6345 13.6594C12.4534 13.8473 12.3607 14.0243 12.3781 14.1836C12.3814 14.2062 12.3852 14.2333 12.3875 14.2498C12.3889 14.2603 12.3906 14.2707 12.3923 14.2807L12.395 14.2977C12.415 14.3743 12.4498 14.4463 12.4974 14.5097C12.5814 14.6184 12.6865 14.709 12.8066 14.7759C12.8231 14.786 12.8397 14.7958 12.8566 14.8049H12.8623L12.8853 14.8222C12.889 14.8237 12.8925 14.8256 12.8958 14.8278L12.9078 14.8327L12.9455 14.8271L12.9756 14.8282L12.9591 14.8312L12.9372 14.8339L12.9184 14.838H12.9127C12.8069 14.8346 12.703 14.8301 12.6017 14.8237C12.4967 14.8177 12.3942 14.8101 12.2952 14.8003C12.0578 14.7794 11.8216 14.7461 11.5877 14.7006C11.4538 14.6946 11.3196 14.6967 11.1859 14.707C11.1603 14.7098 11.1362 14.7112 11.112 14.7126C11.0878 14.714 11.0635 14.7154 11.0379 14.7183L11.0218 14.5586C10.9161 14.5704 10.8083 14.5857 10.6983 14.6045L10.6851 14.5985L10.6772 14.5951C10.1602 14.37 9.81042 14.0525 9.63081 13.647L9.62176 13.6255C9.61752 13.6156 9.6133 13.6057 9.60934 13.5958C9.59242 13.5549 9.57772 13.5132 9.56529 13.4708C9.54602 13.409 9.53031 13.3461 9.51822 13.2825C9.46023 12.9632 9.56303 12.633 9.81945 12.308C10.1557 11.8806 10.7713 11.4533 11.6374 11.0372C11.9469 10.8861 12.2858 10.7378 12.6541 10.5925C13.0055 10.4542 13.382 10.3184 13.7837 10.1851L13.7972 10.1806L13.8036 10.1787L13.8439 10.1651L14.0868 10.0823L14.103 10.077L14.0653 10.1282L13.9396 10.2935C13.5412 10.8105 13.275 11.417 13.1643 12.0602C13.1019 12.4092 13.0869 12.7648 13.1195 13.1175L13.1323 13.2208C13.1373 13.2826 13.1461 13.34 13.1554 13.4013L13.1609 13.4373C13.1952 13.6462 13.2467 13.852 13.3149 14.0525C13.4056 14.3244 13.5258 14.5855 13.6734 14.8312C13.6824 14.847 13.6922 14.8632 13.7023 14.879L13.7697 14.9969L13.7603 15.0007L13.612 15.0063H13.4696C13.423 15.0089 13.3755 15.0089 13.3269 15.0089H13.3175L13.4836 15.001L13.4798 15.001C13.4331 15.0036 13.3857 15.0036 13.3372 15.0036H13.3277L13.5333 14.9938L13.5496 14.9939L13.5276 14.9581L13.4865 14.8882L13.462 14.8463H13.3258C13.2821 14.8463 13.2374 14.8451 13.1922 14.8439C13.1461 14.8426 13.0992 14.8414 13.0524 14.8414L12.9896 14.841L12.9903 14.8395L12.9903 14.8357L12.979 14.8395L12.979 14.8338L12.9865 14.8339V14.8323H13.0031ZM12.5947 14.8183C12.4807 14.8119 12.3705 14.8036 12.2632 14.7928C12.0315 14.771 11.8151 14.7406 11.6141 14.7017C11.4229 14.6663 11.2343 14.6186 11.0492 14.559L11.0319 14.5533H11.027L11.0138 14.5491C10.4193 14.3514 10.0171 14.0506 9.81418 13.6515C9.79423 13.6137 9.7765 13.5747 9.76109 13.5348C9.75318 13.5148 9.74528 13.4945 9.73774 13.4734C9.71294 13.4024 9.69405 13.3295 9.68126 13.2554C9.63005 12.982 9.72118 12.7026 9.94936 12.4176C10.1086 12.2154 10.3368 12.0121 10.6301 11.8072C10.9721 11.5752 11.3312 11.3697 11.7044 11.1923C12.326 10.8942 12.9655 10.6349 13.6191 10.4159L13.6316 10.4114C13.5615 10.5157 13.496 10.6226 13.4361 10.7326C13.4158 10.7702 13.3958 10.8079 13.377 10.8455C13.3608 10.8749 13.3461 10.9054 13.3318 10.9359C13.3223 10.9563 13.3144 10.9723 13.3064 10.9886L13.2942 11.0135C13.2376 11.1381 13.1874 11.2656 13.1436 11.3953V11.3975C13.1362 11.4188 13.1291 11.4403 13.122 11.4617L13.1085 11.5022C13.0996 11.5287 13.092 11.5557 13.0844 11.5828L13.0773 11.6076L13.0744 11.6178C13.0678 11.6413 13.061 11.6654 13.0551 11.6894C13.0543 11.6946 13.0531 11.6998 13.0513 11.7048C13.0482 11.7135 13.0457 11.7225 13.0438 11.7315C13.0374 11.7552 13.0317 11.7797 13.0261 11.8042C13.0249 11.807 13.0242 11.8099 13.0238 11.8129C13.0241 11.8155 13.0234 11.8182 13.0219 11.8204C13.0179 11.8377 13.0144 11.8545 13.0107 11.8723L13.0095 11.878L13.0046 11.9013C13.0013 11.9164 12.9978 11.9329 12.9948 11.948L12.9909 11.9682C12.9868 11.9889 12.9819 12.0136 12.9783 12.035C12.9632 12.119 12.9515 12.2037 12.9406 12.2888C12.9372 12.3167 12.9346 12.3453 12.9323 12.3735C12.9289 12.4112 12.9259 12.4488 12.9237 12.4865C12.9135 12.6555 12.9135 12.825 12.9237 12.994C12.9278 13.0618 12.9331 13.1296 12.9402 13.1977L12.9368 13.1997C12.7903 13.2982 12.6531 13.4102 12.5272 13.534C12.3152 13.746 12.212 13.958 12.2184 14.1602V14.1896C12.2195 14.2378 12.2271 14.2857 12.241 14.3319C12.2441 14.3435 12.2478 14.3551 12.2516 14.3667L12.2553 14.3782C12.2913 14.4815 12.3473 14.5765 12.4202 14.658C12.4707 14.7152 12.5268 14.7672 12.5878 14.8131C12.5898 14.8152 12.5922 14.8169 12.5947 14.8183Z" fill="white"/>
<path d="M12.9414 15.0059L12.9436 15.0052L13.0389 15.0085H13.1142C13.0558 15.0085 12.9973 15.0056 12.9419 15.0029L12.9188 15.0018C12.9021 15.0021 12.8853 15.0015 12.8687 14.9999L12.8544 14.9999L12.9414 15.0059Z" fill="white"/>
<path d="M21.0543 13.7275L21.0829 13.5795C21.1458 13.274 21.1745 12.9625 21.1684 12.6506C21.1635 12.4595 21.1447 12.2689 21.1123 12.0805C21.101 12.0052 21.0837 11.9382 21.0724 11.8697L21.0438 11.733L21.1805 11.7673C21.364 11.8106 21.543 11.8716 21.7148 11.9495C22.0228 12.0922 22.2043 12.2745 22.2562 12.4853C22.2619 12.514 22.2675 12.5422 22.2732 12.5765C22.3131 12.8559 22.2107 13.1292 21.9599 13.3913L21.9486 13.403L21.9313 13.4086C21.772 13.4711 21.6123 13.534 21.4418 13.5909C21.3619 13.6195 21.2821 13.6481 21.1966 13.6763L21.0543 13.7275ZM21.2654 11.9656L21.2817 12.0538C21.3145 12.2493 21.3334 12.4468 21.3382 12.645C21.3447 12.9215 21.3257 13.1981 21.2814 13.4711L21.3838 13.4372C21.5434 13.38 21.6974 13.3243 21.8511 13.2603C22.0506 13.0381 22.1361 12.8159 22.1079 12.5994C22.1019 12.5765 22.1019 12.5539 22.0962 12.5241C22.0563 12.3645 21.9027 12.2229 21.6444 12.1024C21.5216 12.048 21.3948 12.0014 21.2654 11.9656Z" fill="white"/>
<path d="M23.3442 8.07733C23.2659 8.12473 23.1884 8.17271 23.1117 8.22139L23.0948 8.23269C22.5021 8.60923 22.0292 8.9805 21.6587 9.36231C21.6439 9.37686 21.6293 9.393 21.6146 9.40915C21.6008 9.42435 21.5871 9.43956 21.5732 9.45343C21.223 9.83654 20.9189 10.2592 20.6668 10.713L20.8152 10.7984C21.0648 10.3602 21.3575 9.94782 21.6888 9.56753L21.7743 9.48205C22.1331 9.11154 22.5891 8.75231 23.1705 8.38782L23.1874 8.37615C23.2577 8.33136 23.3286 8.28719 23.4003 8.24354C23.382 8.18795 23.3633 8.13255 23.3442 8.07733Z" fill="white"/>
<path d="M23.8188 9.91071C23.8092 9.91592 23.7997 9.92114 23.7903 9.92637C23.7813 9.93307 23.7717 9.93887 23.7616 9.94369L23.7503 9.94934C22.9637 10.3824 22.2856 11.0262 21.6018 11.9781C21.4704 12.1604 21.3337 12.3656 21.1797 12.6051L21.3224 12.6962C21.4764 12.4624 21.6131 12.2575 21.7385 12.0806C22.4053 11.146 23.0718 10.519 23.8298 10.0973L23.8415 10.0917C23.8438 10.0917 23.846 10.0907 23.8487 10.0893C23.8392 10.0296 23.8292 9.97008 23.8188 9.91071Z" fill="white"/>
<path d="M23.9698 11.1426C23.3196 11.4264 22.7233 11.876 22.1192 12.5309C21.8797 12.793 21.6289 13.0889 21.3382 13.4655L21.4764 13.5683C21.7667 13.1978 22.0119 12.9014 22.2389 12.6514C22.813 12.0315 23.3758 11.6002 23.9813 11.3248C23.9779 11.2639 23.9741 11.2032 23.9698 11.1426Z" fill="white"/>
<path d="M23.697 14.6913L23.6076 14.6452L23.5278 14.7935L23.6571 14.86C23.6708 14.8039 23.6841 14.7477 23.697 14.6913Z" fill="white"/>
<path d="M22.0292 13.3687L21.9207 13.2377C22.3421 12.8938 22.8259 12.6345 23.3456 12.474C23.3629 12.4692 23.38 12.4635 23.3968 12.4567L23.4367 12.622C23.431 12.6249 23.4239 12.6263 23.4167 12.6277C23.4096 12.6291 23.4024 12.6305 23.3968 12.6333C22.8984 12.7894 22.4342 13.039 22.0292 13.3687Z" fill="white"/>
<path d="M18.6211 8.91234L18.4614 8.84984C18.5101 8.72993 18.5659 8.61001 18.6303 8.47144L18.6874 8.34828C18.8414 8.03463 19.0123 7.72134 19.172 7.43065L19.2288 7.33351C19.2752 7.24792 19.3227 7.16206 19.3701 7.07619C19.4689 6.89762 19.5677 6.71897 19.6562 6.54277L19.8102 6.61808C19.712 6.81558 19.6009 7.01794 19.4915 7.21725C19.4549 7.28391 19.4185 7.35028 19.3828 7.41597L19.3256 7.51312L19.2747 7.60601C19.1303 7.86901 18.9791 8.14461 18.8414 8.42472L18.8227 8.46367C18.7418 8.63261 18.6739 8.7741 18.6211 8.91234Z" fill="white"/>
<path d="M14.107 9.2481C14.2353 9.37633 14.354 9.49502 14.4607 9.61874L14.5846 9.50464C14.4663 9.37361 14.3394 9.24257 14.2028 9.10589C13.9633 8.87205 13.7182 8.64989 13.4448 8.40477L13.3695 8.34188C13.1304 8.13102 12.9026 7.92618 12.6917 7.72097L12.572 7.84071C12.7338 7.99945 12.902 8.14999 13.0766 8.30633C13.1356 8.35913 13.1953 8.41261 13.2558 8.46727L13.3311 8.53015L13.4054 8.5966C13.6498 8.81495 13.8717 9.0131 14.0841 9.22525L14.107 9.2481Z" fill="white"/>
<path d="M23.9956 12.3267C23.7774 12.3587 23.576 12.4016 23.3885 12.4556L23.3716 12.4616L23.3542 12.4729C22.9841 12.7365 22.5051 12.9914 21.9294 13.226L21.8499 13.2543C21.6959 13.3171 21.5306 13.3796 21.3653 13.4369L21.29 13.464H21.2878C21.2339 13.4828 21.1812 13.5016 21.1274 13.5212L21.0829 13.5355C21.0804 13.5364 21.0778 13.5372 21.0752 13.5381C21.0753 13.5375 21.0753 13.5369 21.0754 13.5363C20.9215 13.5871 20.7563 13.638 20.5796 13.6924C20.5548 13.7 20.5298 13.7077 20.5046 13.7155C20.1397 13.824 19.7466 13.9264 19.3132 14.0292C18.8858 14.1316 18.4298 14.2287 17.9625 14.3142C17.7517 14.3541 17.5634 14.3883 17.3977 14.4166C17.3007 14.4306 17.1912 14.4486 17.0716 14.4682C16.9943 14.4809 16.9128 14.4943 16.8276 14.5078C16.3381 14.5876 15.8987 14.6505 15.4826 14.696C15.3347 14.7131 15.1892 14.7289 15.0463 14.7432C14.7626 14.7715 14.4889 14.7938 14.225 14.8082C14.0431 14.8188 13.8563 14.8244 13.6775 14.829H13.6568L13.6078 14.8308C13.5611 14.8339 13.516 14.835 13.4704 14.8361H13.4687C13.4687 14.836 13.4688 14.8362 13.4687 14.8361L13.4651 14.8357L13.3179 14.8361C13.2681 14.8361 13.217 14.8348 13.1652 14.8334C13.1262 14.8324 13.0868 14.8313 13.0472 14.8308H12.979L12.979 14.8338L12.9455 14.8271L12.9078 14.8327H12.9037C12.799 14.8293 12.697 14.8248 12.5972 14.8184C12.4823 14.812 12.3713 14.8037 12.2632 14.7928C12.0315 14.771 11.8151 14.7406 11.6141 14.7017C11.4229 14.6663 11.2343 14.6186 11.0492 14.559L11.0319 14.5533L11.015 14.5533C10.9084 14.5654 10.8 14.5801 10.6896 14.5989C10.1037 14.6972 9.45872 14.893 8.69622 15.2145L8.5072 15.2943L8.49553 15.3L8.50871 15.3053L8.69698 15.3742C9.63833 15.7274 10.9709 15.8983 12.6635 15.8757H12.6955C13.188 15.8697 13.7185 15.8475 14.2649 15.808L14.362 15.8023C14.3794 15.7994 14.3987 15.798 14.4184 15.7966C14.4373 15.7952 14.4566 15.7938 14.475 15.791L14.5206 15.7854L14.5239 15.7851C14.7509 15.7679 14.9735 15.751 15.1874 15.7281C15.2626 15.7217 15.336 15.7133 15.4075 15.7052C15.4606 15.6991 15.5128 15.6932 15.564 15.6882L15.8091 15.66C15.8653 15.6539 15.9214 15.6465 15.9767 15.6391C16.0281 15.6323 16.0789 15.6255 16.1284 15.6201L16.1566 15.614C16.4985 15.5744 16.8291 15.5288 17.1485 15.4774C17.3194 15.4548 17.4617 15.4318 17.5815 15.4092C17.6145 15.403 17.6496 15.3967 17.6861 15.3902C17.7823 15.3731 17.8885 15.3542 17.9919 15.3294C18.3282 15.2665 18.6588 15.1983 18.9894 15.1242C19.0017 15.1217 19.0141 15.1191 19.0265 15.1166C19.1275 15.0962 19.2303 15.0753 19.3369 15.0489L19.5704 14.992C19.6336 14.9753 19.6968 14.9606 19.761 14.9456C19.807 14.9348 19.8535 14.924 19.901 14.9122C20.0629 14.8762 20.2272 14.833 20.3966 14.7884C20.4419 14.7765 20.4875 14.7645 20.5336 14.7525L20.6646 14.7183C20.6913 14.7124 20.7163 14.7051 20.7414 14.6977C20.7648 14.6908 20.7882 14.684 20.813 14.6783L20.8299 14.6727C21.3465 14.527 21.8466 14.3752 22.3131 14.2186C22.3202 14.2156 22.3274 14.2133 22.3346 14.2111H22.3402C22.9081 14.019 23.4258 13.8199 23.8923 13.6143C23.9006 13.5525 23.9085 13.4906 23.9159 13.4285C23.4366 13.6425 22.9007 13.8499 22.3097 14.0506H22.3037L22.0778 14.126C21.6718 14.2589 21.2464 14.3865 20.8047 14.5066L20.7873 14.5123C20.7624 14.518 20.7388 14.5249 20.7153 14.5318C20.6904 14.5391 20.6656 14.5464 20.6394 14.5522L20.4797 14.5921C20.2745 14.6493 20.0693 14.7006 19.8772 14.7461C19.8263 14.759 19.7761 14.7707 19.7263 14.7823C19.6658 14.7963 19.606 14.8102 19.5466 14.8259L19.3128 14.8828C19.2397 14.8968 19.1688 14.9128 19.0987 14.9286C19.054 14.9387 19.0097 14.9487 18.9653 14.9581C18.6347 15.0266 18.3041 15.0948 17.9735 15.1577C17.914 15.1682 17.8569 15.178 17.8021 15.1875C17.7103 15.2032 17.6251 15.2179 17.5461 15.233C17.4199 15.2571 17.2825 15.2789 17.1187 15.3015C17.0661 15.3092 17.0128 15.317 16.959 15.3249C16.6925 15.364 16.4127 15.405 16.1329 15.4382L16.1043 15.4438C16.0019 15.4612 15.8935 15.4725 15.7851 15.4838L15.5402 15.5124C15.4205 15.5293 15.2951 15.541 15.1697 15.5523C15.0663 15.5604 14.9614 15.5699 14.8559 15.5794C14.7406 15.5898 14.6245 15.6003 14.5085 15.6092L14.4686 15.6148C14.4483 15.6179 14.4291 15.6194 14.4103 15.6209C14.3921 15.6223 14.3741 15.6237 14.3556 15.6265L14.2589 15.6321C13.7641 15.6675 13.2874 15.689 12.8363 15.6976L12.6631 15.7007H12.6232C11.1046 15.7153 9.88045 15.5798 8.98315 15.2883L8.97486 15.2861H8.96997C9.75732 14.969 10.4031 14.7935 11.0157 14.7246L11.0104 14.7235C10.9028 14.6889 10.8 14.6505 10.7039 14.6106C10.8139 14.5917 10.9217 14.5764 11.0274 14.5646L11.0436 14.7243C11.0692 14.7215 11.0934 14.72 11.1176 14.7186C11.1418 14.7172 11.166 14.7158 11.1916 14.713C11.3252 14.7028 11.4594 14.7006 11.5933 14.7066C11.8274 14.7521 12.0637 14.7846 12.3012 14.8056C12.4003 14.8153 12.5027 14.8229 12.6077 14.8289C12.7128 14.8349 12.813 14.8398 12.9188 14.8432H12.9244L12.9432 14.8391L12.9651 14.8364L12.979 14.8338L12.979 14.8365L12.9896 14.8338L12.9903 14.8357L13.0543 14.8365C13.1012 14.8365 13.1479 14.8377 13.1941 14.839C13.2393 14.8402 13.2839 14.8414 13.3277 14.8414H13.4685L13.4651 14.8357L13.4687 14.8361C13.4863 14.8674 13.5048 14.8984 13.5235 14.9297C13.5284 14.9379 13.5333 14.9461 13.5382 14.9543L13.5634 14.9954H13.6116C13.6591 14.9954 13.7063 14.9954 13.7538 14.9937L13.7547 14.995L13.7705 14.9953C13.8771 14.9927 13.9817 14.9879 14.086 14.9826L14.2442 14.9739C14.6433 14.9513 15.0707 14.9114 15.5146 14.861C15.9307 14.8154 16.3694 14.7525 16.8653 14.6727C16.9572 14.6606 17.045 14.6481 17.1289 14.635L17.2723 14.6113L17.3243 14.6019L17.4373 14.5827C17.6026 14.5541 17.7961 14.5198 18.007 14.4803C18.4803 14.3948 18.9359 14.2977 19.3693 14.1952C19.5625 14.1501 19.7458 14.1041 19.9243 14.0567L19.9341 14.0544C20.1563 13.9957 20.3671 13.9358 20.5716 13.8759C20.7554 13.8243 20.9271 13.7686 21.0906 13.7155C21.125 13.7043 21.1591 13.6933 21.1929 13.6824L21.2437 13.6647C21.2958 13.6473 21.3461 13.6295 21.3962 13.6117C21.4101 13.6068 21.4241 13.6018 21.438 13.5969C21.609 13.5397 21.7686 13.4772 21.9275 13.4143L22.0073 13.3861C22.5887 13.1466 23.0733 12.8901 23.4551 12.622C23.6204 12.5757 23.7981 12.5381 23.9894 12.509C23.9894 12.5085 23.9894 12.5079 23.9895 12.5074C23.9895 12.5057 23.9896 12.5037 23.9897 12.502C23.9921 12.4436 23.9941 12.3853 23.9956 12.3267Z" fill="white"/>
<path d="M13.0129 12.1092C12.6326 11.7779 12.2157 11.4911 11.7703 11.2544L11.6336 11.1859C11.1547 10.9521 10.5963 10.7698 9.9294 10.6158C9.34802 10.4791 8.7384 10.388 8.1171 10.2912L8.01468 10.2739C7.49581 10.1941 7.00593 10.1203 6.53262 10.0292L6.56688 9.86386C7.03982 9.95499 7.53007 10.0292 8.04292 10.1086L8.14572 10.1259C8.77266 10.2227 9.38228 10.3142 9.96931 10.4509C10.6531 10.6045 11.2175 10.7984 11.7074 11.0319L11.8445 11.1004C12.3032 11.3415 12.7316 11.6362 13.121 11.9781L13.0129 12.1092Z" fill="white"/>
<path d="M13.1725 14.138C12.9447 13.9614 12.7339 13.8017 12.5287 13.6594C11.5997 13.0095 10.7732 12.622 9.92412 12.4511L9.86727 12.4398C9.21736 12.3144 8.45938 12.2688 7.54175 12.3031H7.5361C6.70959 12.3313 5.84919 12.4161 5.09122 12.4914H5.07427C4.28768 12.5712 3.54664 12.6454 2.8572 12.6736L2.85155 12.5027C3.53535 12.4744 4.27638 12.4002 5.05695 12.3204H5.07427C5.83225 12.2451 6.6934 12.1608 7.5248 12.1321H7.53045C8.45938 12.0979 9.23468 12.1434 9.89551 12.2745L9.95274 12.2858C10.8244 12.4624 11.6735 12.8559 12.6198 13.5227C12.825 13.6707 13.0415 13.8239 13.2693 14.0069L13.1725 14.138Z" fill="white"/>
<path d="M13.3774 14.8448H13.3262C13.2377 14.8448 13.1454 14.841 13.0528 14.8399L13.0441 14.8338C12.8483 14.7103 12.6699 14.6041 12.5004 14.5096C12.4251 14.4675 12.3498 14.4272 12.2783 14.3888L12.2583 14.3786C11.3783 13.9117 10.6015 13.6809 9.81079 13.6511C9.77313 13.6511 9.73736 13.6489 9.70084 13.6485H9.63118C8.95867 13.6485 8.18865 13.7453 7.2729 13.9384C7.24428 13.9441 7.21604 13.9497 7.18742 13.9561C7.16483 13.9614 7.14148 13.9659 7.11852 13.9708C6.34924 14.1384 5.57244 14.353 4.87583 14.5462L4.78245 14.5718L4.69848 14.594C3.8893 14.8222 3.12567 15.033 2.41325 15.181L2.37899 15.0157C3.08199 14.8681 3.84224 14.6591 4.64201 14.4321L4.65292 14.4287L4.7384 14.4061L4.81709 14.3842C5.51558 14.1907 6.30105 13.9745 7.07409 13.8009L7.14864 13.7848L7.22621 13.7693C8.13254 13.575 8.89956 13.4764 9.56679 13.4719H9.73623C10.5465 13.4892 11.3388 13.7076 12.2214 14.1594C12.2651 14.1817 12.3091 14.2054 12.3536 14.2287C12.366 14.2355 12.3784 14.2415 12.3912 14.2491C12.6804 14.4034 12.9971 14.5951 13.3702 14.8384L13.3774 14.8448Z" fill="white"/>
<path d="M12.9621 14.8323L12.941 14.8342L12.9214 14.8391H12.9157C12.8099 14.8357 12.706 14.8312 12.6047 14.8248C12.5034 14.8184 12.3973 14.8112 12.2982 14.8015L12.2632 14.7928C12.2481 14.7887 12.2342 14.7875 12.2188 14.7841C12.0336 14.743 11.8455 14.7167 11.6562 14.7054C11.643 14.7054 11.6295 14.7028 11.6163 14.7024H11.5941C11.4602 14.6965 11.326 14.6986 11.1923 14.7088C11.1411 14.7145 11.0955 14.7145 11.0443 14.7201L11.0248 14.5605L11.0248 14.5492C11.0759 14.5428 11.1273 14.539 11.1788 14.5379C11.5976 14.5089 12.0183 14.5499 12.4236 14.6591C12.5506 14.692 12.6794 14.7312 12.8099 14.7766C12.8265 14.7822 12.8435 14.7879 12.86 14.7943H12.8713L12.8886 14.8056L12.9342 14.824L12.9466 14.8278C12.9514 14.8295 12.9571 14.8313 12.9621 14.8323Z" fill="white"/>
<path d="M5.32505 16.9764L5.26217 16.8223C5.75167 16.6171 6.26527 16.3664 6.80599 16.0986L6.8459 16.0813C7.44837 15.785 8.07116 15.4789 8.69811 15.2153L8.76061 15.3689C8.13932 15.6325 7.51803 15.9337 6.92008 16.2297L6.88016 16.2523C6.3338 16.5204 5.82058 16.7711 5.32505 16.9764Z" fill="white"/>
<path d="M17.7204 16.2353C17.6406 16.2466 17.5551 16.264 17.464 16.2753C17.293 16.3039 17.0991 16.3321 16.8883 16.3664L16.8371 16.372C16.7516 16.3837 16.6661 16.395 16.5735 16.4063C16.4808 16.4176 16.3852 16.4349 16.2828 16.4462H16.2658C16.1118 16.4692 15.9465 16.4861 15.7812 16.5091H15.7654L15.5545 16.5317C14.2774 16.6844 12.9934 16.7724 11.7074 16.7952L11.5082 16.8009L11.6449 16.6529C11.9462 16.3336 12.2775 15.9973 12.6081 15.7116L12.6307 15.6886H12.6593C13.2241 15.6829 13.8334 15.6543 14.4667 15.6031L14.5123 15.5975C14.7382 15.5801 14.9641 15.5575 15.1735 15.5406C15.3045 15.5289 15.4371 15.512 15.561 15.5007L15.7888 15.4721C15.8972 15.4608 15.9996 15.4491 16.0968 15.4322L16.1307 15.4265C16.4729 15.3866 16.8032 15.3354 17.1168 15.2898C17.282 15.2667 17.4245 15.2439 17.5442 15.2213C17.6696 15.1983 17.8119 15.1757 17.9716 15.146C18.3022 15.0835 18.6328 15.0149 18.9634 14.9464C19.0763 14.9238 19.1912 14.8952 19.3109 14.8711L19.5674 14.8082C19.6701 14.7856 19.7726 14.7627 19.875 14.7329C20.069 14.6875 20.2686 14.6363 20.4737 14.5793L20.633 14.5394C21.2143 14.3797 21.7731 14.2144 22.2897 14.0378L22.324 14.0322L22.3466 14.0378C22.7691 14.2065 23.1972 14.423 23.5975 14.6282L23.7797 14.7194L23.5862 14.7822C22.3535 15.185 21.1015 15.5257 19.8347 15.8031L19.4932 15.8784C19.3678 15.9066 19.2484 15.9296 19.1343 15.9537L19.0259 15.9766C18.9634 15.9879 18.9061 15.9992 18.8436 16.0109C18.7811 16.0226 18.7126 16.0391 18.6497 16.0508L18.5417 16.0734C18.3308 16.1133 18.1369 16.1487 17.9659 16.1819C17.886 16.2077 17.8038 16.2256 17.7204 16.2353ZM15.7485 16.3483L15.7714 16.3483C15.9311 16.331 16.0904 16.3084 16.2444 16.2854H16.2617C16.3585 16.2741 16.4552 16.2572 16.5464 16.2455C16.6375 16.2338 16.729 16.2229 16.8099 16.2116L16.8555 16.2056C17.0664 16.1717 17.2543 16.1431 17.4252 16.1201C17.5099 16.1023 17.5955 16.089 17.6816 16.0802C17.7615 16.0689 17.8469 16.0519 17.9324 16.0346C18.1034 16.0064 18.2973 15.9665 18.5081 15.9266L18.6166 15.9036C18.6791 15.8923 18.7416 15.881 18.8101 15.8637C18.867 15.8524 18.9299 15.8411 18.9867 15.8294L19.0952 15.8068C19.2081 15.7838 19.3286 15.7556 19.454 15.7315L19.7903 15.6562C21.0615 15.3715 22.2525 15.0537 23.3298 14.7047C22.9992 14.5337 22.652 14.3684 22.3093 14.2317C21.7965 14.4027 21.2437 14.5736 20.668 14.7273L20.5369 14.7615C20.3204 14.8184 20.1096 14.8745 19.9044 14.9212C19.8019 14.9438 19.6991 14.9724 19.5967 14.9965L19.3331 15.059C19.2134 15.0876 19.0993 15.1102 18.9852 15.1343C18.6546 15.2096 18.3184 15.2766 17.9881 15.3395C17.8285 15.3678 17.6869 15.3964 17.5604 15.4148C17.4409 15.4374 17.2966 15.4601 17.1274 15.483C16.8083 15.5332 16.4778 15.5788 16.1359 15.6197L16.1017 15.6257C15.9989 15.637 15.8965 15.6483 15.788 15.6656L15.5602 15.6939C15.4348 15.7051 15.3038 15.7225 15.1671 15.7338C14.9502 15.7567 14.728 15.7737 14.5002 15.791L14.4547 15.7966C13.8277 15.8422 13.229 15.872 12.6706 15.8821C12.4029 16.1156 12.1348 16.3837 11.8844 16.6458C13.0069 16.6228 14.2265 16.5328 15.509 16.3822L15.7485 16.3483Z" fill="white"/>
<path d="M10.9216 17.6432L10.8086 17.5178C11.0138 17.3352 11.2529 17.0788 11.5037 16.8111L11.6464 16.657L11.7718 16.7768L11.6291 16.9248C11.3715 17.1985 11.134 17.4549 10.9216 17.6432Z" fill="white"/>
<path d="M21.2442 13.5074L21.1689 13.6609L22.2898 14.2103L22.365 14.0568L21.2442 13.5074Z" fill="white"/>
<path d="M13.5438 14.9999L13.5378 15.0055C13.4821 15.0601 13.0995 15.4322 12.8344 15.6961C12.8318 15.6992 12.8291 15.7021 12.8261 15.7048L12.7346 15.7963L12.61 15.7104L12.633 15.6875C12.633 15.6875 13.1929 15.0869 13.3281 15.0097L13.5337 14.9999H13.5438Z" fill="white"/>
<path d="M13.612 14.9991L13.5337 14.9999L13.3281 15.0097L13.1164 15.0085C13.0498 15.0085 12.9831 15.0048 12.921 15.0018C12.9043 15.0021 12.8876 15.0015 12.8709 14.9999H12.7696L12.732 14.998H12.6992C12.6898 14.9988 12.6804 14.9988 12.671 14.998H12.6254C12.2552 14.9784 11.8868 14.9329 11.5229 14.8617C11.4566 14.8481 11.3923 14.8338 11.329 14.8188C11.3026 14.8127 11.2767 14.806 11.2503 14.7996C11.175 14.7789 11.1016 14.7578 11.0308 14.7356L11.0138 14.7318H11.0082C10.9005 14.6971 10.7977 14.6587 10.7017 14.6188C10.8116 14.6 10.9194 14.5847 11.0251 14.5729L11.0413 14.7325C11.0925 14.7269 11.1381 14.7269 11.1893 14.7212C11.323 14.711 11.4571 14.7089 11.5911 14.7148C11.825 14.7603 12.0612 14.7936 12.2986 14.8146C12.3976 14.8244 12.5 14.832 12.6051 14.838C12.7102 14.844 12.8103 14.8489 12.9161 14.8523H12.9218L12.9406 14.8481L12.9624 14.8455L12.979 14.8425V14.8523L12.9903 14.85V14.8523H13.0543C13.1469 14.8523 13.2392 14.8572 13.3277 14.8572H13.4685L13.4651 14.8515H13.4685C13.4907 14.8892 13.5144 14.9302 13.5382 14.9701L13.5634 15.0112L13.612 14.9991Z" fill="white"/>
<path d="M21.3006 13.345C21.2949 13.3853 21.2885 13.4256 21.2814 13.4655C21.272 13.5174 21.2618 13.5694 21.2505 13.6206L21.2426 13.6564L21.2403 13.6647V13.6681L21.1948 13.6835C20.9719 13.7588 20.7542 13.8236 20.5708 13.8782C20.3709 13.9377 20.1566 13.9957 19.9307 14.0544L19.9209 14.0567C19.7466 14.1018 19.5628 14.1466 19.3685 14.193C18.879 14.3108 18.4253 14.3997 18.0081 14.4784C17.8322 14.5119 17.6504 14.5458 17.4373 14.5827L17.322 14.6019L17.2701 14.6113L17.1266 14.635C17.0445 14.6478 16.9557 14.6606 16.863 14.6727C16.3803 14.7506 15.9375 14.812 15.5109 14.8609C15.0718 14.9106 14.6448 14.9487 14.2359 14.9739L14.086 14.9826C13.9817 14.9879 13.8756 14.9924 13.769 14.995H13.7573C13.7084 14.995 13.6605 14.9954 13.6116 14.9954L13.563 14.9938L13.5378 14.9528C13.5141 14.9129 13.4904 14.8737 13.4681 14.8342C13.4285 14.7649 13.3916 14.6961 13.3574 14.6278C13.3443 14.6022 13.3318 14.5762 13.3198 14.5525C13.3077 14.5288 13.2957 14.5017 13.2817 14.4754C13.2531 14.4132 13.2275 14.3515 13.2042 14.2897C13.1918 14.2585 13.1805 14.2272 13.1688 14.1956C13.1571 14.164 13.1454 14.1278 13.1349 14.0936C13.1266 14.0702 13.1187 14.0465 13.1108 14.0224C13.0799 13.9245 13.0517 13.8217 13.0257 13.7129C13.0197 13.6858 13.0133 13.6579 13.0069 13.6297C13.0056 13.6248 13.0047 13.6199 13.0042 13.615C12.9978 13.5864 12.9918 13.5581 12.9865 13.5284C12.9813 13.5043 12.9767 13.4805 12.9722 13.4561L12.9609 13.3808L12.9376 13.2301L12.9342 13.1978C12.8906 12.8061 12.9033 12.4102 12.9719 12.0222C13.0732 11.4475 13.2937 10.9003 13.6191 10.4159C13.6707 10.3379 13.7257 10.2622 13.7825 10.1873C13.9812 9.93209 14.2066 9.69893 14.455 9.49184C14.9193 9.11344 15.4582 8.83731 16.0365 8.68152C16.1254 8.6578 16.215 8.63671 16.3054 8.61902L16.5136 8.584C17.2368 8.47812 17.975 8.56299 18.6553 8.83021C19.3356 9.09743 19.9342 9.53772 20.392 10.1075C20.4161 10.1372 20.4398 10.1674 20.4631 10.1975C20.4865 10.2276 20.5064 10.2547 20.5272 10.283C20.5479 10.3112 20.5761 10.3515 20.5998 10.3857C20.6706 10.4899 20.7368 10.597 20.7983 10.7069C20.9903 11.0537 21.133 11.4255 21.2223 11.8117C21.2339 11.8467 21.2441 11.8806 21.252 11.9149C21.2641 11.9608 21.2745 12.0069 21.2817 12.0538C21.2821 12.0567 21.2814 12.06 21.281 12.0629C21.2897 12.1129 21.2972 12.1626 21.304 12.2135C21.3089 12.2511 21.3134 12.2888 21.3171 12.3264C21.3209 12.3641 21.3239 12.4018 21.3266 12.4394C21.3292 12.4771 21.3318 12.5125 21.3333 12.5501C21.3348 12.5878 21.3371 12.6168 21.3382 12.6506V12.6593C21.3458 12.8885 21.3332 13.118 21.3006 13.345Z" fill="white"/>
</svg>
