<svg width="24" height="24" viewBox="0 0 24 24" fill="none" xmlns="http://www.w3.org/2000/svg">
<circle cx="12.0002" cy="12" r="12" fill="#172852"/>
<path d="M10.3318 16.3335C10.7818 17.9985 12.3962 19.2686 13.2118 19.216C13.2404 19.2142 16.3044 18.6429 17.9818 15.841C19.2868 13.66 18.8427 11.5547 17.0672 11.5088C16.4286 11.5554 9.47478 13.1621 10.3323 16.3339L10.3318 16.3335ZM16.9016 5.64037L16.8998 5.63902L16.9025 5.63745C15.7842 4.68637 14.42 4.07054 12.9671 3.86092C11.5141 3.65129 10.0315 3.8564 8.68998 4.4526C8.52124 4.52331 8.35684 4.604 8.19768 4.69425C8.08833 4.75252 7.97876 4.81035 7.87278 4.87425L7.89866 4.88212C7.58465 5.09596 7.30699 5.3588 7.07628 5.66062C4.83888 8.61442 12.3345 10.7625 16.3427 10.7688C18.1854 12.0925 18.7029 7.0428 16.9016 5.64037Z" fill="#0E3CA5"/>
<path d="M9.14267 5.7C8.11285 7.248 4.68272 8.33858 4.11865 8.16893L4.11482 8.16173C4.13807 8.11493 4.16155 8.0685 4.18525 8.02245C4.77019 6.8958 5.60714 5.91925 6.631 5.16878C6.84205 5.01398 7.06052 4.8693 7.28642 4.73475C7.634 4.54277 8.0234 4.43908 8.42042 4.4328C9.94795 4.4625 9.15032 5.68808 9.14267 5.7ZM8.29757 16.6379C8.3716 17.1242 8.29577 19.0454 8.19632 19.207C8.1106 19.2122 7.93217 19.2232 7.41512 18.9332C5.65556 17.9303 4.32812 16.3132 3.68732 14.392C3.55013 13.9797 3.44608 13.5572 3.37615 13.1284C3.23273 12.2461 3.23273 11.3464 3.37615 10.4642C3.44608 10.0353 3.55013 9.6128 3.68732 9.20055C3.71477 9.1182 3.74357 9.03608 3.7735 8.95485C4.36547 9.74235 5.0506 10.4545 5.6329 11.2499C6.18752 12.0072 6.9505 13.2416 7.10575 13.5053C8.06965 15.1428 8.2231 16.1528 8.2969 16.6384L8.29757 16.6379ZM19.6925 11.7962C19.6937 12.8286 19.4998 13.852 19.121 14.8125C18.1535 15.852 11.6323 13.2931 11.5684 13.2652C10.6763 12.8744 7.96142 11.685 7.7164 9.8175C7.36517 7.12898 12.8169 5.25608 15.2132 5.18498C15.5005 5.18835 16.3748 5.1987 16.8847 5.61248C17.7676 6.38253 18.4751 7.33297 18.9595 8.3997C19.4438 9.46642 19.6938 10.6246 19.6925 11.7962ZM15.278 19.0799C14.567 19.4117 13.7844 19.1699 13.9876 18.4778C14.378 17.1482 17.7872 15.7852 18.5398 15.7103C18.6327 15.701 18.6723 15.7645 18.6311 15.8365C17.8467 17.2156 16.6832 18.3408 15.2786 19.0787" fill="#5493F7"/>
<path d="M6.90079 20.3824C6.89075 20.5325 6.94 20.6805 7.03795 20.7947C7.1359 20.9088 7.27473 20.98 7.42459 20.9928C14.3321 21.0401 21.0002 20.7228 21.0002 19.6878C21.0002 16.5549 6.90079 20.3824 6.90079 20.3824Z" fill="url(#paint0_linear_927_5222)"/>
<path d="M6.90077 20.3824C6.89052 20.533 6.94005 20.6815 7.03862 20.7958C7.13718 20.9101 7.27683 20.9809 7.42727 20.9928C14.333 21.0453 20.9918 20.8284 21.0002 19.6878C21.0002 16.5549 6.90077 20.3824 6.90077 20.3824ZM7.42749 20.953C7.40915 20.953 7.39082 20.9519 7.37259 20.9499C7.26726 20.9351 7.16862 20.8896 7.08904 20.8191C7.00946 20.7485 6.9525 20.656 6.92529 20.5532C6.95482 20.6646 7.01965 20.7634 7.11006 20.8349C7.20047 20.9064 7.31161 20.9466 7.42682 20.9496C14.3278 20.9062 20.8919 18.7815 20.8919 19.7171C20.8919 20.672 14.3282 21 7.42749 20.953Z" fill="url(#paint1_linear_927_5222)"/>
<path d="M7.42796 11.51C7.35871 11.51 7.29014 11.5236 7.22617 11.5501C7.1622 11.5766 7.10407 11.6155 7.05511 11.6645C7.00616 11.7134 6.96733 11.7716 6.94085 11.8356C6.91437 11.8996 6.90076 11.9681 6.90079 12.0374V20.3824C6.90061 20.5217 6.95561 20.6555 7.05377 20.7543C7.15194 20.8532 7.28526 20.9092 7.42459 20.91C14.3319 20.8583 21.0085 18.572 21.0002 19.688V10.2887C21.0085 9.17245 14.3343 11.4585 7.42796 11.51Z" fill="url(#paint2_linear_927_5222)"/>
<path d="M12.8811 17.4799L12.8464 17.3165L12.6889 17.3219L12.8257 17.216L12.7913 17.0524L12.911 17.1496L13.048 17.0436L12.9841 17.2092L13.1038 17.3075L12.9463 17.3129L12.8824 17.4799H12.8811ZM13.8227 15.7449C13.9894 16.3223 13.5648 16.9475 13.1866 17.1399L13.1724 17.103C13.5759 16.8884 13.9392 16.2833 13.7831 15.755C13.7958 15.9297 13.742 16.1028 13.6325 16.2395C13.523 16.3762 13.3659 16.4666 13.1927 16.4924C13.1582 16.4973 13.1233 16.4988 13.0885 16.4966C13.0479 16.4939 13.0071 16.4954 12.9668 16.5011C12.785 16.5386 12.6201 16.6336 12.4966 16.7722C12.3731 16.9107 12.2975 17.0853 12.281 17.2702C12.2825 17.3926 12.2396 17.5114 12.1603 17.6047C12.0811 17.698 11.9707 17.7595 11.8497 17.7778C11.821 17.7818 11.792 17.7832 11.763 17.7818C11.8848 17.878 12.0252 17.9481 12.1752 17.9876C12.3253 18.0272 12.482 18.0353 12.6354 18.0116C12.8957 17.9717 13.1402 17.8614 13.3423 17.6925C13.6274 17.4672 13.8293 17.1533 13.9162 16.8005C14.0031 16.4477 13.97 16.076 13.8222 15.744" fill="white"/>
<path d="M12.1899 15.6765L12.1554 15.5145L11.9979 15.5199L12.1361 15.4124L12.1017 15.2501L12.2202 15.3476L12.3584 15.24L12.2945 15.407L12.4142 15.5042L12.2547 15.5096L12.1908 15.6765H12.1899ZM11.5261 14.484C11.4077 14.7566 11.3794 15.0599 11.4453 15.3496C11.5113 15.6394 11.6681 15.9006 11.8929 16.095C12.0133 16.1865 12.151 16.2528 12.2977 16.2899C12.4444 16.327 12.597 16.3342 12.7465 16.311C13.123 16.2501 13.4626 16.0492 13.6974 15.7485C13.5532 15.88 13.373 15.9653 13.1799 15.9933C13.0275 16.0169 12.8717 16.0016 12.7269 15.9488C12.5821 15.8961 12.4529 15.8076 12.3514 15.6916L12.3813 15.6601C12.4784 15.7718 12.6022 15.857 12.7411 15.9078C12.8801 15.9586 13.0296 15.9733 13.1758 15.9506C13.364 15.9232 13.5397 15.8401 13.6803 15.7121C13.6118 15.7533 13.536 15.7809 13.4571 15.7933C13.3887 15.7985 13.3201 15.7901 13.255 15.7685C13.19 15.747 13.1299 15.7127 13.0782 15.6678C13.0265 15.6228 12.9842 15.568 12.9539 15.5066C12.9235 15.4452 12.9056 15.3784 12.9013 15.31C12.8941 15.2285 12.8705 15.1493 12.8319 15.0771C12.7933 15.0049 12.7406 14.9413 12.6768 14.89C12.613 14.8388 12.5396 14.8009 12.4608 14.7787C12.382 14.7565 12.2996 14.7505 12.2184 14.761C12.1676 14.768 12.118 14.7821 12.0711 14.8028C12.0281 14.8224 11.9827 14.8359 11.9361 14.8429C11.8852 14.8485 11.8337 14.8436 11.7848 14.8283C11.7359 14.813 11.6908 14.7877 11.6522 14.754C11.6136 14.7203 11.5825 14.679 11.5607 14.6326C11.539 14.5862 11.5271 14.5359 11.5259 14.4847" fill="white"/>
<path d="M13.6524 14.1713L13.6179 14.009L13.4604 14.0144L13.5975 13.9073L13.5642 13.7449L13.6827 13.8421L13.8209 13.7348L13.757 13.9017L13.8756 13.9989L13.7181 14.0043L13.6542 14.1713H13.6524ZM14.2752 12.8125C13.9916 12.8642 13.7272 12.9912 13.5095 13.18C13.2918 13.3689 13.1289 13.6128 13.0377 13.8862C12.7749 14.6235 13.0602 15.3746 13.6737 15.6187C13.2114 15.3057 13.2476 14.5745 13.4787 14.1886L13.5097 14.2061C13.2703 14.6242 13.2773 15.3003 13.7028 15.5863C13.4103 15.2519 13.6382 14.7763 13.9156 14.5963C14.0885 14.4818 14.2136 14.3082 14.2674 14.108C14.3213 13.9078 14.3002 13.6948 14.2081 13.5091C14.1727 13.4508 14.1494 13.3861 14.1393 13.3187C14.1293 13.2512 14.1329 13.1825 14.1498 13.1165C14.1666 13.0504 14.1966 12.9885 14.2377 12.9341C14.2789 12.8798 14.3305 12.8342 14.3895 12.8001C14.3508 12.8019 14.3122 12.8055 14.2738 12.8109" fill="white"/>
<path d="M15.2472 15.0436L15.2127 14.8816L15.0552 14.887L15.1923 14.781L15.1578 14.6174L15.2775 14.7146L15.4143 14.6073L15.3507 14.7743L15.4704 14.8726L15.3129 14.878L15.249 15.0436H15.2472ZM15.1016 14.1287C14.761 14.1948 14.45 14.3668 14.2131 14.6202C13.9762 14.8736 13.8254 15.1955 13.7824 15.5397C13.8525 15.3246 13.9808 15.1331 14.1531 14.9864C14.3254 14.8398 14.5349 14.7437 14.7585 14.7088C14.841 14.6961 14.925 14.697 15.0073 14.7113L14.9976 14.7527C14.917 14.7404 14.835 14.7404 14.7544 14.7527C14.539 14.7866 14.3373 14.8795 14.1715 15.0212C14.0057 15.1628 13.8824 15.3476 13.8153 15.555C13.8578 15.4632 13.9221 15.3832 14.0025 15.3218C14.0829 15.2604 14.177 15.2195 14.2767 15.2027C14.3577 15.1906 14.4403 15.1972 14.5182 15.2219C14.5962 15.2466 14.6675 15.2888 14.7267 15.3453C14.791 15.4086 14.8694 15.4558 14.9555 15.4828C15.0415 15.5099 15.1328 15.5161 15.2217 15.501C15.325 15.4861 15.4241 15.45 15.5127 15.395C15.6014 15.3399 15.6777 15.2672 15.737 15.1813C15.7721 15.1212 15.8197 15.0694 15.8766 15.0294C15.9336 14.9893 15.9984 14.962 16.0668 14.9493C16.1266 14.9416 16.1874 14.9477 16.2444 14.9672C16.3014 14.9868 16.3532 15.0191 16.3958 15.0618C16.3466 14.784 16.1965 14.5342 15.9743 14.3604C15.7521 14.1866 15.4735 14.1011 15.192 14.1202C15.161 14.1222 15.1301 14.1254 15.0993 14.1296" fill="white"/>
<path d="M14.7697 17.0888L14.7364 16.9252L14.5769 16.9309L14.715 16.8247L14.6804 16.6613L14.8003 16.7583L14.9371 16.6523L14.8732 16.8193L14.9931 16.9165L14.8336 16.9219L14.7697 17.0888ZM14.0927 15.5654C14.0179 15.5759 13.9442 15.5929 13.8724 15.6162C14.4529 15.5462 14.8201 16.1042 14.8253 16.5346L14.7882 16.5425C14.7735 16.0824 14.3978 15.5928 13.8657 15.6585C14.3082 15.7129 14.3649 16.2098 14.2167 16.518C14.0142 16.9426 14.2167 17.4164 14.5472 17.5033C14.848 17.5827 14.8847 17.8934 14.774 18.1382C15.0197 17.9443 15.2066 17.6859 15.3139 17.3919C15.4212 17.0979 15.4446 16.7798 15.3815 16.4732C15.3246 16.1851 15.1589 15.93 14.9188 15.761C14.6787 15.5919 14.3827 15.5218 14.0922 15.5654" fill="white"/>
<defs>
<linearGradient id="paint0_linear_927_5222" x1="6.90079" y1="19.7263" x2="21.0002" y2="19.7263" gradientUnits="userSpaceOnUse">
<stop stop-color="#700000"/>
<stop offset="0.327" stop-color="#730000"/>
<stop offset="0.59" stop-color="#7D0000"/>
<stop offset="0.83" stop-color="#8E0000"/>
<stop offset="1" stop-color="#9F0000"/>
</linearGradient>
<linearGradient id="paint1_linear_927_5222" x1="13.9505" y1="18.4553" x2="13.9505" y2="21" gradientUnits="userSpaceOnUse">
<stop offset="0.35" stop-color="#CF2000"/>
<stop offset="0.645" stop-color="#CD1F00"/>
<stop offset="0.752" stop-color="#C61D00"/>
<stop offset="0.828" stop-color="#BB1900"/>
<stop offset="0.889" stop-color="#AA1300"/>
<stop offset="0.941" stop-color="#940C00"/>
<stop offset="0.987" stop-color="#790300"/>
<stop offset="1" stop-color="#700000"/>
</linearGradient>
<linearGradient id="paint2_linear_927_5222" x1="6.90079" y1="15.4457" x2="21.0002" y2="15.4457" gradientUnits="userSpaceOnUse">
<stop stop-color="#CF2000"/>
<stop offset="0.021" stop-color="#D12201"/>
<stop offset="0.244" stop-color="#E23309"/>
<stop offset="0.487" stop-color="#EC3D0E"/>
<stop offset="0.791" stop-color="#EF4010"/>
<stop offset="0.841" stop-color="#EC3D0F"/>
<stop offset="0.882" stop-color="#E2330D"/>
<stop offset="0.919" stop-color="#D12208"/>
<stop offset="0.954" stop-color="#B90A03"/>
<stop offset="0.966" stop-color="#AF0000"/>
<stop offset="1" stop-color="#EF4010"/>
</linearGradient>
</defs>
</svg>
