<svg width="24" height="24" fill="none" xmlns="http://www.w3.org/2000/svg"><circle cx="12" cy="12" r="12" fill="#121212"/><path opacity=".4" fill-rule="evenodd" clip-rule="evenodd" d="M17.647 18.305c-1.432 1.43-3.544 2.099-5.515 1.536a4.81 4.81 0 0 1-2.092-1.229c-1.44-1.443-1.695-3.34-1.53-5.291.126-1.477-.258-2.298-1.245-3.326l-.392-.403a7.19 7.19 0 0 0 1.146-.938 7.08 7.08 0 0 0 .94-1.143l.402.393c.665.641 1.246 1.025 1.974 1.185.088.035.145.103.174.216.12.464-.357 1.452-.722 1.926.696-.58.903-1.294 1.3-1.798.132-.167.341-.257.597-.276 1.951-.148 3.848.099 5.288 1.542a4.808 4.808 0 0 1 1.224 2.095c.558 1.972-.115 4.082-1.55 5.511Z" fill="url(#a)"/><path opacity=".4" fill-rule="evenodd" clip-rule="evenodd" d="M5.03 8.558c.24.274.038.077.295.333.948.946 3.88-1.98 2.936-2.93-.255-.257-.059-.055-.332-.295L6.476 7.11 5.03 8.558Z" fill="url(#b)"/><path opacity=".15" fill-rule="evenodd" clip-rule="evenodd" d="M5.274 8.941c-.288-.287-.161-.178-.341-.386L6.426 7.06l1.5-1.491c.208.18.099.054.385.342C9.323 6.93 6.29 9.956 5.273 8.94h.001Z" fill="#fff"/><path fill-rule="evenodd" clip-rule="evenodd" d="M16.047 16.702c-1.246 1.243-1.726 2.782-1.073 3.437.653.654 2.193.177 3.44-1.066 1.246-1.243 1.726-2.782 1.073-3.436-.653-.655-2.193-.178-3.44 1.065Z" fill="url(#c)"/><path fill-rule="evenodd" clip-rule="evenodd" d="M14.87 20.057c.59.591 2.082.057 3.334-1.192 1.252-1.25 1.79-2.742 1.2-3.333-.33 1.46-2.326 3.852-4.535 4.525Z" fill="#EFBC3F" style="mix-blend-mode:multiply"/><path fill-rule="evenodd" clip-rule="evenodd" d="M12.985 10.763c-2.858.762-4.892 2.443-4.543 3.753.35 1.31 2.95 1.755 5.809.993 2.859-.763 4.892-2.443 4.542-3.753-.35-1.31-2.949-1.755-5.808-.993Z" fill="url(#d)"/><path fill-rule="evenodd" clip-rule="evenodd" d="M14.247 15.506c2.859-.762 4.893-2.443 4.543-3.753a1.17 1.17 0 0 0-.144-.326c.272.416.478.87.613 1.349.566 1.996-.116 4.13-1.565 5.576-1.45 1.446-3.585 2.122-5.58 1.552a4.87 4.87 0 0 1-2.12-1.245C8.769 17.431 8.39 15.88 8.4 14.244c.002.091.015.182.038.27.35 1.31 2.95 1.755 5.809.993v-.001Z" fill="url(#e)"/><g opacity=".6"><mask id="g" style="mask-type:alpha" maskUnits="userSpaceOnUse" x="8" y="11" width="12" height="10"><path fill-rule="evenodd" clip-rule="evenodd" d="M14.247 15.506c2.859-.762 4.893-2.443 4.543-3.753a1.17 1.17 0 0 0-.144-.326c.272.416.478.87.613 1.349.566 1.996-.116 4.13-1.565 5.576-1.45 1.446-3.585 2.122-5.58 1.552a4.87 4.87 0 0 1-2.12-1.245C8.769 17.431 8.39 15.88 8.4 14.244c.002.092.015.182.038.27.35 1.31 2.95 1.755 5.809.993v-.001Z" fill="url(#f)"/></mask><g mask="url(#g)"><path opacity=".4" d="m12.698 13.08.115-3.184V9.89s-.735-.24-1.138-.218c-.402.021-.668.097-.883.361-.06.072-.11.256-.157.43-.045.166-.086.324-.128.372-.048.055-.209.085-.38.16a.822.822 0 0 0-.37.29c-.224.336-.382.716-.27.986a.516.516 0 0 0 .043.082c.101.156.268.252.339.441.025.07.036.146.033.22v.002c-.012.318-.154.572-.14.82a.51.51 0 0 0 .047.187c.102.22.213.368.301.584.041.098.073.2.096.304.035.154.033.314.022.464-.018.25-.064.473-.011.594.083.19 1.726.614 1.776.627l-.472-.317 1.177-3.198Zm-1.898.888-.052-.007c.005-.25.2-.764.156-.903a.501.501 0 0 0-.04-.083l.11.03c.107.032.18.067.191.099.054.152-.114.896-.365.864Zm.44 1.403h-.094c.044-.155.108-.31.115-.468a.519.519 0 0 0-.13-.359c.143.003.25.017.281.048.13.126-.172.78-.172.78Z" fill="#FFAB00"/><path opacity=".4" d="M10.974 13.004a.117.117 0 0 1-.084.017c-.084-.01-.207-.068-.472-.05-.168.012-.358.029-.516.042a.565.565 0 0 0-.033-.22c-.07-.19-.238-.285-.339-.441l.843-.105s.694.693.6.757ZM11.74 10.591s-.077.318-.14.529c-.063.21-.64.173-.64.173a3.053 3.053 0 0 0-.34-.19c-.112-.053-.324-.088-.493-.107.172-.077.333-.106.381-.162.042-.047.083-.205.128-.37.124.043.25.079.38.107.238.052.483.058.724.02Z" fill="#EF8506"/><path opacity=".4" d="M17.499 16.259c-.235.324-.623.15-.917.346-.242.162-.176.72-.422.868-.325.199-.666.299-.91.228a.725.725 0 0 1-.181-.085c-.237-.15-.455-.43-.635-.623-.008-.006-.106.027-.247.062-.279.068-.725.143-.966-.07-.168-.15-.306-.52-.552-.554-.19-.027-.455.18-.682.15-.13-.02-.307-.149-.466-.3a2.532 2.532 0 0 1-.343-.4c-.107-.166-.082-.335-.032-.51.042-.15.08-.728-.013-.825-.13-.163-.316-.296-.376-.502a.27.27 0 0 1-.008-.081l.016.002c-.323-.334.014-.69.1-.99-.089-.147-.275-.33-.39-.504-.168-.253-.133-.41-.033-.678.1-.267.12-.457.396-.592.24-.119.49-.018.665-.182.174-.164.17-.632.36-.82.206-.205.641-.374.935-.307l.014.004c.354.088.434.393.73.618.33.25.622-.059.948-.052.373.008.532.515.833.675.193.101.327.044.51.008.116-.023.34-.073.454-.05.226.05.7.514.724.791.016.182-.044.323-.076.488-.028.15 0 .3-.083.443.195.222.55.577.541.887-.007.285-.267.634-.148.915.139.328.572.406.561.793-.004.21-.188.681-.307.847Z" fill="#FFE182"/><path opacity=".51" d="M15.858 11.183c.298-.039.616-.033.77.227a.966.966 0 0 1 .249.29.48.48 0 0 1 .055.43c-.015.199-.093.403-.121.592a.21.21 0 0 1-.015.05l.001.1c.066.087.133.172.201.257.101.124.271.26.304.425a.478.478 0 0 1 .008.048c.055.216-.012.465-.121.675a.824.824 0 0 0 .043.468v.002c.033.04.07.078.111.11.15.113.358.24.404.437.062.275-.072.625-.253.855-.081.193-.304.264-.517.267a1.763 1.763 0 0 1-.193.053c-.134.028-.27.048-.338.182-.114.223-.124.48-.269.692-.245.358-.737.341-1.126.261.061.042.128.075.198.097.245.072.586-.029.912-.227.245-.149.18-.706.422-.868.294-.196.682-.022.916-.347.12-.165.304-.637.31-.847.01-.387-.423-.465-.562-.793-.12-.28.141-.63.148-.914.008-.31-.346-.666-.541-.888.083-.143.055-.293.083-.442.032-.166.092-.306.076-.488-.024-.277-.498-.742-.724-.79-.113-.024-.338.026-.454.049-.184.036-.318.093-.51-.009-.3-.159-.459-.666-.833-.674-.325-.007-.618.3-.947.052-.302-.229-.379-.538-.745-.623-.213-.048-.498.026-.719.149.252-.094.55-.18.798-.054.134.037.25.109.3.236a.525.525 0 0 1 .059.082c0 .002.002.002.003.003.148.158.334.333.569.316.222-.014.45-.126.674-.078.225.049.418.217.547.417a.748.748 0 0 0 .304.214c.181.054.34.03.523.006Z" fill="#FF9F24"/><path opacity=".4" d="M15.216 17.551c.182.062.704-.043.847-.184.143-.142.3-.676.248-.83-.053-.156-.443-.599-.6-.647-.156-.05-.73.087-.846.183-.116.096-.273.66-.248.831.025.173.417.585.599.647Z" fill="#FFB600"/><path opacity=".56" d="M15.114 16.98a1.322 1.322 0 0 1-.47-.344.912.912 0 0 0-.027.268c.024.172.417.585.599.647.182.062.704-.043.847-.184.137-.135.286-.629.254-.808-.241.38-.771.6-1.204.42Z" fill="#FFC81C"/><path opacity=".4" d="M15.238 16.418c.363.085.699.348.759.736a.893.893 0 0 1 .004.26.332.332 0 0 0 .062-.047c.143-.141.3-.675.248-.83-.053-.156-.443-.599-.6-.648-.156-.048-.73.088-.847.184-.06.05-.132.229-.183.411a.763.763 0 0 1 .557-.066Z" fill="#FFAB00"/><path opacity=".51" d="M15.662 16.457c.17.15.312.351.231.58-.023.067-.047.135.013.198.026.027.051.063.089.04a.525.525 0 0 0 .175-.21c.135-.252.128-.524-.073-.747-.198-.22-.427-.414-.735-.354a.918.918 0 0 0-.42.176.847.847 0 0 0-.212.291c0 .025.007.048.023.067.006.005.014.008.02.012a.518.518 0 0 1 .215-.213c.248-.105.475-.017.674.16Z" fill="#FF9F24"/><path opacity=".4" d="M15.464 16.088c.152.02.279.103.377.215.091.065.163.153.208.254.068.159.116.395.051.573.007.004.012.008.018.01l.009.004c.016-.025.031-.05.045-.077.135-.25.128-.523-.073-.747-.197-.22-.426-.414-.734-.354a.92.92 0 0 0-.42.176.735.735 0 0 0-.178.226l.002.005c0 .003 0 .005.002.007h.013c.168-.179.438-.34.68-.292Z" fill="#F5921D"/><path opacity=".57" d="M15.264 17.485c.178.04.452.02.6-.085.157-.104-.119-.128-.202-.111a.783.783 0 0 1-.599-.144.562.562 0 0 1-.19-.262c-.031-.084-.042-.247-.116-.305-.136.133-.03.413.066.53.109.133.274.34.441.377Z" fill="#FFDB60"/><path opacity=".4" d="M15.62 17.388c-.042-.067-.21-.041-.282-.057-.062-.013-.236-.126-.28-.105.017.06.058.11.112.139.037.021.11.078.155.07l-.013.003c.084.018.246.03.308-.05ZM14.776 16.97c.005.035.097.121.101.074-.008-.046-.054-.135-.098-.152-.034.018-.033.055-.003.078Z" fill="#FFE182"/><path opacity=".4" d="M13.52 16.966c.181.061.704-.043.846-.184.143-.142.3-.676.248-.831-.053-.155-.443-.598-.6-.647-.156-.049-.73.088-.846.184-.116.096-.273.66-.248.831.025.172.417.585.6.647Z" fill="#FFB600"/><path opacity=".56" d="M13.417 16.395a1.316 1.316 0 0 1-.47-.345.91.91 0 0 0-.027.269c.025.172.417.585.6.647.181.06.704-.043.846-.184.137-.135.286-.629.254-.808-.24.38-.77.598-1.203.42Z" fill="#FFC81C"/><path opacity=".4" d="M13.541 15.833c.363.085.7.348.759.736a.894.894 0 0 1 .004.26.316.316 0 0 0 .062-.047c.144-.14.3-.675.248-.83-.052-.155-.443-.599-.6-.648-.156-.049-.73.088-.846.184-.061.05-.133.228-.184.411a.764.764 0 0 1 .557-.066Z" fill="#FFAB00"/><path opacity=".51" d="M13.966 15.872c.169.15.311.351.23.58-.023.066-.046.135.014.198.026.027.05.063.088.04a.526.526 0 0 0 .176-.21c.134-.25.128-.524-.073-.747-.198-.22-.426-.414-.735-.354a.914.914 0 0 0-.42.176.844.844 0 0 0-.212.292c0 .024.008.048.023.066l.021.013a.517.517 0 0 1 .214-.213c.248-.106.474-.018.674.159Z" fill="#FF9F24"/><path opacity=".4" d="M13.767 15.502c.152.021.279.103.378.216.09.065.162.153.207.254.068.158.116.395.052.573l.018.01.008.004c.016-.025.031-.051.045-.076.135-.252.128-.524-.073-.748-.198-.22-.426-.413-.735-.354a.919.919 0 0 0-.42.176.74.74 0 0 0-.177.226c0 .002 0 .004.002.006v.006h.014c.17-.18.44-.34.681-.293Z" fill="#F5921D"/><path opacity=".57" d="M13.568 16.9c.178.04.451.02.6-.085.156-.105-.12-.129-.203-.111a.785.785 0 0 1-.598-.144.56.56 0 0 1-.191-.262c-.031-.084-.042-.247-.116-.305-.136.133-.03.413.066.53.11.133.274.339.442.376Z" fill="#FFDB60"/><path opacity=".4" d="M13.924 16.803c-.043-.068-.211-.041-.283-.057-.062-.013-.235-.125-.28-.105.018.06.058.109.112.139.037.021.11.078.155.07l-.013.003c.083.018.246.03.309-.05ZM13.08 16.384c.005.036.097.122.1.075-.008-.046-.053-.135-.098-.152-.034.018-.033.055-.003.077Z" fill="#FFE182"/><path opacity=".4" d="M13.184 15.204c.182.062.704-.043.847-.184.143-.141.3-.676.247-.83-.052-.156-.442-.598-.599-.647-.157-.05-.731.088-.847.184-.116.096-.273.659-.248.83.025.172.418.585.6.647Z" fill="#FFB600"/><path opacity=".56" d="M13.081 14.633a1.315 1.315 0 0 1-.47-.344.916.916 0 0 0-.027.268c.025.172.418.585.6.647.182.062.704-.043.847-.184.137-.135.286-.629.253-.807-.24.38-.77.598-1.203.42Z" fill="#FFC81C"/><path opacity=".4" d="M13.205 14.071c.363.085.7.348.76.736a.903.903 0 0 1 .003.26.335.335 0 0 0 .063-.047c.143-.141.3-.676.247-.83-.052-.156-.442-.598-.6-.647-.156-.05-.73.088-.846.184-.06.05-.133.228-.184.41a.764.764 0 0 1 .557-.066Z" fill="#FFAB00"/><path opacity=".51" d="M13.63 14.11c.17.15.311.351.231.58-.024.067-.047.135.013.198.026.027.051.063.089.04a.527.527 0 0 0 .176-.21c.134-.252.128-.524-.074-.747-.197-.22-.426-.414-.734-.354a.919.919 0 0 0-.42.176.851.851 0 0 0-.212.292c0 .024.008.048.023.066l.021.013a.514.514 0 0 1 .214-.213c.247-.106.473-.018.673.16Z" fill="#FF9F24"/><path opacity=".4" d="M13.432 13.74c.152.022.278.104.377.216.09.065.163.153.207.255.069.157.117.394.052.572.006.004.012.008.018.01l.008.004c.017-.025.032-.05.046-.076.134-.252.128-.524-.073-.748-.198-.22-.426-.413-.736-.354a.923.923 0 0 0-.42.176.74.74 0 0 0-.177.226l.002.006v.006h.015c.169-.179.44-.34.68-.292Z" fill="#F5921D"/><path opacity=".57" d="M13.232 15.138c.178.04.452.02.6-.085.156-.104-.119-.128-.203-.11a.783.783 0 0 1-.598-.144.56.56 0 0 1-.19-.263c-.031-.084-.043-.247-.116-.305-.137.133-.03.413.066.53.108.133.273.339.441.377Z" fill="#FFDB60"/><path opacity=".4" d="M13.588 15.042c-.043-.068-.211-.042-.282-.058-.063-.013-.236-.125-.28-.105.017.06.057.11.112.14.037.021.11.078.155.069l-.013.004c.083.018.245.029.308-.05ZM12.743 14.623c.006.035.098.121.102.074-.008-.046-.054-.135-.099-.152-.034.018-.032.055-.003.078Z" fill="#FFE182"/><path opacity=".4" d="M14.915 12.103c.144-.141.3-.676.248-.83-.053-.156-.443-.599-.6-.647-.157-.049-.73.088-.847.184-.116.096-.272.659-.248.83.025.173.418.585.6.647.182.062.704-.043.847-.184Z" fill="#FFB600"/><path opacity=".56" d="M14.915 12.103c.137-.135.286-.629.254-.807-.241.38-.771.598-1.203.42a1.324 1.324 0 0 1-.47-.344.926.926 0 0 0-.027.269c.025.171.418.584.6.646.182.062.703-.043.846-.184Z" fill="#FFC81C"/><path opacity=".4" d="M14.853 12.15a.347.347 0 0 0 .062-.047c.144-.141.3-.676.248-.83-.053-.156-.443-.599-.6-.647-.157-.049-.73.088-.847.184-.061.05-.131.227-.183.41a.757.757 0 0 1 .556-.066c.363.085.7.349.76.736a.902.902 0 0 1 .004.26Z" fill="#FFAB00"/><path opacity=".51" d="M14.758 11.971c.026.027.05.063.089.04a.518.518 0 0 0 .175-.21c.135-.25.128-.524-.073-.747-.198-.22-.426-.414-.735-.354a.922.922 0 0 0-.42.176.852.852 0 0 0-.212.291c0 .024.007.048.023.067l.021.012a.52.52 0 0 1 .214-.213c.248-.105.475-.017.675.16.169.15.31.351.23.58-.024.067-.047.135.013.198Z" fill="#FF9F24"/><path opacity=".4" d="m14.953 11.867.017.01a.062.062 0 0 0 .009.003c.016-.025.031-.05.045-.077.135-.25.128-.524-.073-.746-.198-.22-.426-.414-.735-.355a.916.916 0 0 0-.42.176.738.738 0 0 0-.177.227c0 .002 0 .003.002.005v.007h.014c.169-.18.439-.34.68-.293.153.021.28.104.378.216.09.065.163.152.207.254.069.158.117.394.053.572Z" fill="#F5921D"/><path opacity=".57" d="M14.717 12.137c.156-.105-.12-.13-.203-.112a.784.784 0 0 1-.599-.143.557.557 0 0 1-.19-.263c-.031-.084-.042-.247-.116-.305-.136.133-.03.413.066.531.11.133.274.338.441.376.178.041.452.02.6-.084Z" fill="#FFDB60"/><path opacity=".4" d="M14.472 12.125c-.042-.068-.21-.042-.282-.057-.062-.014-.236-.126-.28-.106.017.06.058.11.112.139.037.022.11.078.155.07l-.013.003c.084.019.246.03.308-.05ZM13.63 11.628c-.034.018-.032.055-.002.078.005.036.097.121.101.075-.009-.046-.054-.136-.098-.153Z" fill="#FFE182"/><path opacity=".4" d="M14.85 15.811c.183.062.705-.043.848-.184.143-.142.3-.676.247-.83-.052-.155-.442-.598-.599-.648-.157-.048-.731.089-.847.184-.116.096-.273.66-.248.831.026.172.418.586.6.647Z" fill="#FFA000"/><path opacity=".56" d="M14.748 15.24a1.317 1.317 0 0 1-.47-.345.918.918 0 0 0-.027.27c.025.171.418.584.6.646.181.062.704-.043.847-.184.137-.135.286-.629.253-.808-.24.381-.77.599-1.203.42Z" fill="#FFB600"/><path opacity=".4" d="M14.872 14.678c.363.085.7.348.759.736a.891.891 0 0 1 .004.26.306.306 0 0 0 .062-.047c.144-.141.3-.676.248-.83-.053-.155-.442-.598-.599-.647-.157-.05-.731.088-.847.183-.06.05-.132.229-.183.411a.763.763 0 0 1 .556-.066Z" fill="#FF990C"/><path opacity=".51" d="M15.297 14.717c.17.15.312.351.231.58-.024.066-.047.135.013.198.026.027.051.063.089.04a.525.525 0 0 0 .175-.21c.135-.251.129-.524-.073-.747-.198-.22-.427-.414-.736-.355a.916.916 0 0 0-.42.176.846.846 0 0 0-.212.293c0 .024.008.047.023.066l.022.012a.516.516 0 0 1 .214-.213c.248-.105.475-.017.675.16Z" fill="#FA8803"/><path opacity=".4" d="M15.099 14.348c.152.02.278.102.377.215.091.065.163.153.207.255.069.158.117.394.052.572.006.004.012.008.018.01a.059.059 0 0 0 .008.004.872.872 0 0 0 .046-.077c.134-.25.128-.524-.073-.747-.198-.22-.426-.414-.735-.354a.917.917 0 0 0-.42.176.735.735 0 0 0-.177.226v.005l.001.007h.014c.17-.18.44-.34.682-.293Z" fill="#FF7C10"/><path opacity=".57" d="M14.9 15.744c.177.042.45.02.6-.084.155-.104-.12-.129-.203-.11a.784.784 0 0 1-.599-.145.56.56 0 0 1-.19-.262c-.031-.084-.042-.247-.116-.305-.136.133-.03.413.066.53.109.133.273.34.441.376Z" fill="#FFDB60"/><path opacity=".49" d="M15.255 15.648c-.043-.067-.21-.041-.282-.057-.063-.013-.236-.125-.28-.105.017.06.057.11.112.14.036.02.11.077.155.069l-.013.004c.083.018.246.029.308-.05Z" fill="#FFE182"/><path opacity=".4" d="M14.41 15.23c.006.035.098.121.102.074-.008-.046-.054-.135-.099-.152-.034.018-.032.055-.002.078ZM15.235 15.557l-.036.004a.188.188 0 0 0 .036-.004Z" fill="#FFE182"/><path opacity=".4" d="M15.347 15.321c-.183-.041-.308.238-.148.24l.035-.005a.197.197 0 0 1-.035.004l-.015.002c.122.112.453-.174.163-.24ZM14.925 15.336c-.124-.094-.266.076-.13.132l-.03-.002c.099.042.318-.011.16-.13Z" fill="#FFE182"/><path opacity=".4" d="M14.874 14.628v.015c.202-.038.165-.245-.036-.22-.184.024-.147.268.036.205ZM15.556 14.748a.3.3 0 0 0-.207-.217c-.08.046.012.19.073.214l-.02-.023c.061.068.198.209.154.026Z" fill="#FF7C10"/><path opacity=".29" d="M15.133 15.282c.23-.013.142-.23.028-.338-.25-.222-.595 0-.28.218l-.015-.016c.072.062.171.154.268.136Z" fill="#FFDB60"/><path opacity=".4" d="M16.526 16.366c.182.062.704-.043.847-.184.143-.14.3-.675.248-.83-.053-.156-.443-.599-.6-.647-.156-.048-.731.088-.847.184-.116.096-.273.659-.247.83.024.173.417.586.599.647Z" fill="#FFA000"/><path opacity=".56" d="M16.424 15.795a1.317 1.317 0 0 1-.47-.344.919.919 0 0 0-.028.269c.025.172.418.585.6.646.182.062.704-.043.847-.184.137-.135.286-.628.253-.807-.24.38-.77.598-1.203.42Z" fill="#FFB600"/><path opacity=".4" d="M16.548 15.233c.363.085.699.349.759.736a.892.892 0 0 1 .004.26.341.341 0 0 0 .062-.047c.143-.141.3-.675.248-.83-.053-.156-.443-.599-.6-.647-.156-.048-.731.088-.847.184-.06.05-.132.228-.183.41a.764.764 0 0 1 .557-.066Z" fill="#FF990C"/><path opacity=".51" d="M16.973 15.273c.169.15.31.35.23.579-.023.067-.047.135.013.198.026.027.051.063.09.04a.518.518 0 0 0 .175-.21c.134-.25.128-.524-.073-.747-.198-.22-.426-.414-.735-.354a.921.921 0 0 0-.42.176.846.846 0 0 0-.212.292c0 .024.008.048.023.066l.021.013a.517.517 0 0 1 .214-.213c.247-.106.474-.018.674.16Z" fill="#FA8803"/><path opacity=".4" d="M16.774 14.903c.152.02.279.103.377.216.091.064.163.152.207.254.069.158.117.395.052.573l.018.01.008.004a.773.773 0 0 0 .046-.077c.135-.251.128-.524-.073-.747-.197-.22-.426-.414-.734-.355a.921.921 0 0 0-.42.176.732.732 0 0 0-.178.227.04.04 0 0 1 0 .005l.003.007h.013c.17-.18.44-.34.68-.293Z" fill="#FF7C10"/><path opacity=".57" d="M16.574 16.3c.178.041.452.02.6-.084.157-.105-.119-.13-.202-.112a.783.783 0 0 1-.599-.143.557.557 0 0 1-.19-.263c-.031-.084-.042-.247-.116-.305-.136.133-.03.413.066.531.109.132.274.339.441.376Z" fill="#FFDB60"/><path opacity=".49" d="M16.93 16.204c-.043-.068-.212-.042-.283-.057-.062-.014-.235-.126-.28-.105.018.059.058.109.112.138.037.022.11.078.156.07l-.014.004c.085.018.247.03.309-.05Z" fill="#FFE182"/><path opacity=".4" d="M16.086 15.786c.006.035.097.121.1.074-.007-.046-.053-.135-.097-.152-.035.017-.033.054-.003.078ZM16.91 16.112l-.036.004a.167.167 0 0 0 .036-.004Z" fill="#FFE182"/><path opacity=".4" d="M17.022 15.877c-.183-.042-.308.237-.148.239l.036-.005a.173.173 0 0 1-.036.005l-.015.001c.122.113.453-.174.163-.24ZM16.6 15.891c-.124-.093-.266.076-.13.132l-.03-.001c.099.041.318-.012.16-.13Z" fill="#FFE182"/><path opacity=".4" d="M16.549 15.184v.014c.201-.037.164-.244-.037-.219-.183.024-.146.268.037.205ZM17.231 15.304a.301.301 0 0 0-.207-.218c-.08.046.012.19.073.214l-.02-.023c.062.068.198.21.154.027Z" fill="#FF7C10"/><path opacity=".29" d="M16.809 15.838c.229-.014.141-.23.027-.338-.25-.223-.596 0-.28.217l-.015-.015c.072.062.171.154.268.136Z" fill="#FFDB60"/><path opacity=".4" d="M14.518 14.047c.182.062.704-.043.847-.184.143-.141.3-.676.247-.83-.052-.156-.443-.599-.6-.648-.156-.048-.73.088-.846.184-.116.096-.273.66-.248.832.025.172.418.584.6.646Z" fill="#FFA000"/><path opacity=".56" d="M14.415 13.476a1.323 1.323 0 0 1-.47-.344.925.925 0 0 0-.027.268c.025.172.418.585.6.647.181.062.704-.043.847-.184.137-.135.286-.629.253-.808-.24.38-.77.6-1.203.42Z" fill="#FFB600"/><path opacity=".4" d="M14.54 12.914c.362.085.699.348.759.736a.9.9 0 0 1 .003.26.359.359 0 0 0 .063-.047c.143-.141.3-.676.247-.83-.052-.156-.443-.599-.6-.648-.156-.048-.73.088-.846.184-.06.05-.132.228-.184.411a.765.765 0 0 1 .557-.066Z" fill="#FF990C"/><path opacity=".51" d="M14.964 12.953c.17.15.311.351.231.58-.024.066-.047.135.014.198.026.027.05.062.088.04a.53.53 0 0 0 .175-.21c.135-.252.128-.524-.073-.747-.197-.22-.426-.414-.734-.355a.922.922 0 0 0-.42.176.85.85 0 0 0-.212.293c0 .024.008.047.023.066l.021.012a.513.513 0 0 1 .214-.213c.247-.105.473-.018.673.16Z" fill="#FA8803"/><path opacity=".4" d="M14.766 12.584c.152.02.278.103.377.215.09.065.162.152.207.254.069.158.117.395.052.572.006.004.012.008.018.01l.008.005c.017-.026.032-.052.046-.077.134-.251.128-.524-.073-.747-.199-.219-.427-.413-.735-.354a.922.922 0 0 0-.42.176.74.74 0 0 0-.178.226c0 .002 0 .004.002.005.001.002 0 .005.002.007h.014c.168-.179.438-.34.68-.292Z" fill="#FF7C10"/><path opacity=".57" d="M14.566 13.98c.178.041.452.02.6-.084.156-.105-.119-.129-.203-.112a.784.784 0 0 1-.598-.143.557.557 0 0 1-.19-.263c-.032-.084-.043-.246-.117-.305-.136.133-.029.414.067.531.108.133.273.339.441.376Z" fill="#FFDB60"/><path opacity=".49" d="M14.922 13.884c-.043-.068-.211-.041-.283-.058-.062-.013-.235-.125-.28-.105.018.06.058.11.112.139.037.022.11.078.156.07l-.013.003c.083.02.245.031.308-.049Z" fill="#FFE182"/><path opacity=".4" d="M14.078 13.465c.005.036.097.122.1.075-.007-.046-.053-.135-.098-.152-.034.018-.032.055-.002.077ZM14.902 13.792l-.035.004a.189.189 0 0 0 .035-.004Z" fill="#FFE182"/><path opacity=".4" d="M15.014 13.557c-.183-.042-.308.238-.148.24l.035-.005a.197.197 0 0 1-.035.004l-.015.002c.122.113.452-.174.163-.24ZM14.592 13.572c-.124-.094-.266.076-.13.132l-.03-.002c.099.042.318-.011.16-.13Z" fill="#FFE182"/><path opacity=".4" d="M14.54 12.864v.015c.202-.038.165-.245-.036-.22-.183.024-.146.268.036.205ZM15.223 12.984a.302.302 0 0 0-.207-.217c-.08.046.012.19.073.214l-.02-.023c.061.068.198.209.154.026Z" fill="#FF7C10"/><path opacity=".29" d="M14.8 13.518c.229-.013.141-.23.027-.338-.249-.223-.596 0-.28.218l-.015-.015c.072.061.172.153.268.135Z" fill="#FFDB60"/><path opacity=".4" d="M15.79 12.885c.183.062.704-.042.847-.184.143-.14.3-.675.248-.83-.052-.156-.442-.598-.6-.647-.156-.049-.73.088-.847.184-.116.096-.272.659-.247.83.025.173.417.586.6.647Z" fill="#FFA000"/><path opacity=".56" d="M15.688 12.314a1.316 1.316 0 0 1-.47-.344.915.915 0 0 0-.027.269c.025.172.418.585.6.646.181.062.704-.042.847-.184.137-.135.286-.628.253-.807-.24.38-.77.599-1.203.42Z" fill="#FFB600"/><path opacity=".4" d="M15.813 11.752c.363.085.7.349.76.736a.9.9 0 0 1 .002.259.325.325 0 0 0 .063-.046c.143-.142.3-.676.247-.831-.052-.155-.442-.598-.6-.647-.156-.048-.73.088-.846.184-.061.05-.133.228-.184.411a.77.77 0 0 1 .558-.066Z" fill="#FF990C"/><path opacity=".51" d="M16.237 11.792c.17.15.311.35.23.579-.024.067-.047.135.013.198.026.028.051.063.089.04a.509.509 0 0 0 .175-.21c.134-.25.128-.523-.073-.746-.198-.22-.426-.414-.735-.355a.92.92 0 0 0-.42.176.844.844 0 0 0-.212.292c0 .024.008.048.023.066l.021.013a.518.518 0 0 1 .214-.213c.249-.105.475-.018.675.16Z" fill="#FA8803"/><path opacity=".4" d="M16.039 11.422c.152.02.278.103.377.216.09.064.162.152.207.254.069.158.117.395.052.573l.018.01a.105.105 0 0 0 .008.004c.017-.026.032-.052.046-.077.134-.252.128-.524-.073-.747-.198-.22-.426-.414-.735-.355a.919.919 0 0 0-.42.176.742.742 0 0 0-.177.227v.005l.002.007.014-.002c.169-.178.44-.339.68-.291Z" fill="#FF7C10"/><path opacity=".57" d="M15.839 12.82c.178.04.451.02.6-.085.156-.105-.119-.129-.202-.112a.782.782 0 0 1-.599-.143.559.559 0 0 1-.19-.263c-.032-.084-.043-.247-.117-.305-.136.133-.03.413.067.531.108.132.273.339.44.376Z" fill="#FFDB60"/><path opacity=".49" d="M16.195 12.723c-.043-.068-.211-.042-.283-.057-.062-.014-.235-.126-.28-.106a.232.232 0 0 0 .113.14c.036.02.11.077.155.069l-.013.004c.083.018.245.03.308-.05Z" fill="#FFE182"/><path opacity=".4" d="M15.35 12.304c.006.036.097.121.101.074-.008-.046-.053-.135-.098-.152-.034.018-.032.055-.003.078ZM16.175 12.63l-.036.005a.181.181 0 0 0 .036-.004Z" fill="#FFE182"/><path opacity=".4" d="M16.288 12.396c-.183-.042-.309.238-.15.239l.037-.005a.173.173 0 0 1-.036.005l-.015.001c.122.113.452-.174.164-.24ZM15.865 12.411c-.124-.093-.266.076-.13.132l-.03-.001c.098.04.317-.013.16-.13Z" fill="#FFE182"/><path opacity=".4" d="M15.813 11.703v.014c.202-.038.165-.244-.036-.219-.183.024-.146.268.036.205ZM16.496 11.823a.3.3 0 0 0-.207-.217c-.08.045.012.19.073.213l-.02-.023c.061.068.198.21.154.027Z" fill="#FF7C10"/><path opacity=".29" d="M16.073 12.357c.23-.014.142-.231.028-.338-.25-.223-.597 0-.281.217l-.014-.015c.071.061.17.154.267.136Z" fill="#FFDB60"/><path opacity=".4" d="M13.466 10.717c-.052-.155-.442-.598-.599-.647-.157-.048-.731.088-.847.184-.116.097-.273.66-.248.831.025.172.417.585.6.647.182.062.704-.043.847-.184.143-.142.3-.676.247-.83Z" fill="#FFA000"/><path opacity=".56" d="M13.472 10.74c-.24.381-.77.599-1.203.42a1.322 1.322 0 0 1-.47-.344.921.921 0 0 0-.027.27c.025.171.418.584.6.646.182.062.704-.043.847-.184.137-.135.286-.629.253-.808Z" fill="#FFB600"/><path opacity=".4" d="M13.466 10.717c-.052-.155-.442-.598-.599-.647-.157-.048-.731.088-.847.184-.06.05-.132.228-.183.411a.757.757 0 0 1 .556-.066c.363.085.699.348.759.736a.903.903 0 0 1 .004.26.348.348 0 0 0 .062-.047c.144-.142.3-.676.248-.83Z" fill="#FF990C"/><path opacity=".51" d="M13.252 10.499c-.198-.22-.426-.414-.735-.355a.92.92 0 0 0-.42.176.848.848 0 0 0-.212.293c0 .024.008.047.023.066l.022.012a.516.516 0 0 1 .214-.213c.248-.105.474-.017.674.16.17.15.311.351.231.58-.024.066-.047.135.013.198.027.027.051.063.089.04a.527.527 0 0 0 .175-.21c.133-.251.127-.524-.074-.747Z" fill="#FA8803"/><path opacity=".57" d="M12.818 11.47a.783.783 0 0 1-.599-.144.557.557 0 0 1-.19-.263c-.031-.083-.043-.246-.116-.304-.136.133-.03.413.066.53.109.132.274.339.442.376.177.042.451.02.6-.084.155-.105-.12-.129-.203-.111Z" fill="#FFDB60"/><path opacity=".49" d="M12.494 11.512c-.062-.014-.235-.126-.28-.106.018.06.058.11.112.14.037.021.11.077.156.069l-.013.004c.083.018.245.03.308-.05-.044-.067-.212-.041-.283-.057Z" fill="#FFE182"/><path opacity=".4" d="m12.756 11.477-.036.005a.181.181 0 0 0 .036-.005Z" fill="#FFE182"/><path opacity=".4" d="M12.868 11.242c-.183-.042-.308.238-.149.24l.036-.005a.18.18 0 0 1-.036.004l-.015.002c.123.112.454-.174.164-.24Z" fill="#FFE182"/><path opacity=".4" d="M16.172 14.64c.182.062.704-.043.847-.184.143-.141.3-.676.248-.83-.053-.156-.443-.599-.6-.648-.157-.048-.731.088-.847.184-.116.096-.272.66-.248.831.025.172.418.585.6.647Z" fill="#FFA000"/><path opacity=".56" d="M16.07 14.069a1.316 1.316 0 0 1-.47-.344.916.916 0 0 0-.028.268c.025.172.418.585.6.647.182.062.704-.043.847-.184.137-.135.286-.629.253-.808-.24.381-.77.6-1.202.42Z" fill="#FFB600"/><path opacity=".4" d="M16.194 13.507c.363.085.699.348.759.736a.898.898 0 0 1 .004.26.331.331 0 0 0 .062-.047c.143-.141.3-.675.248-.83-.053-.155-.443-.599-.6-.647-.157-.049-.73.088-.847.184-.06.05-.132.228-.183.41a.763.763 0 0 1 .557-.066Z" fill="#FF990C"/><path opacity=".51" d="M16.619 13.546c.169.15.31.352.23.58-.024.067-.047.135.013.198.026.027.05.063.089.04a.525.525 0 0 0 .175-.21c.135-.25.128-.524-.073-.747-.198-.22-.426-.414-.735-.354a.916.916 0 0 0-.42.176.848.848 0 0 0-.212.292c0 .024.008.047.023.066l.022.013a.514.514 0 0 1 .214-.213c.247-.106.474-.018.674.159Z" fill="#FA8803"/><path opacity=".4" d="M16.42 13.176a.616.616 0 0 1 .378.216c.09.065.162.153.207.255.068.158.116.394.052.572l.017.01.008.004c.017-.025.032-.051.046-.077.135-.25.128-.524-.073-.747-.198-.22-.426-.413-.735-.354a.914.914 0 0 0-.42.176.738.738 0 0 0-.177.226.033.033 0 0 1 .002.012h.014c.17-.179.44-.34.681-.293Z" fill="#FF7C10"/><path opacity=".57" d="M16.22 14.574c.178.04.452.02.601-.085.156-.104-.12-.129-.203-.111a.783.783 0 0 1-.599-.144.554.554 0 0 1-.19-.262c-.031-.084-.043-.247-.116-.305-.136.133-.03.413.066.53.109.133.274.339.442.377Z" fill="#FFDB60"/><path opacity=".49" d="M16.576 14.477c-.042-.067-.21-.041-.282-.057-.062-.013-.236-.126-.28-.105.018.06.058.109.113.138.036.022.11.079.155.07l-.013.004c.083.019.245.03.307-.05Z" fill="#FFE182"/><path opacity=".4" d="M15.732 14.058c.006.036.097.122.101.075-.008-.046-.054-.135-.098-.152-.034.018-.033.055-.003.077ZM16.557 14.385l-.036.005a.18.18 0 0 0 .036-.005Z" fill="#FFE182"/><path opacity=".4" d="M16.668 14.15c-.183-.042-.308.238-.148.24l.036-.005a.172.172 0 0 1-.036.004l-.015.002c.123.113.453-.174.163-.24ZM16.246 14.165c-.124-.093-.266.076-.13.132l-.03-.001c.1.042.318-.012.16-.131Z" fill="#FFE182"/><path opacity=".4" d="M16.195 13.457v.015c.201-.038.164-.245-.037-.22-.183.024-.146.268.037.205ZM16.877 13.577a.3.3 0 0 0-.207-.217c-.08.046.013.19.073.214l-.02-.023c.062.068.199.209.154.026Z" fill="#FF7C10"/><path opacity=".29" d="M16.455 14.111c.229-.013.141-.23.027-.338-.249-.223-.597 0-.28.217l-.015-.015c.072.063.171.155.268.136Z" fill="#FFDB60"/><path opacity=".4" d="M13.656 13.259c.144-.142.3-.676.248-.831-.052-.155-.443-.598-.6-.647-.156-.049-.73.088-.846.184-.116.096-.273.659-.248.831.025.172.417.585.6.647.181.061.704-.043.846-.184Z" fill="#FFB600"/><path opacity=".56" d="M13.656 13.259c.138-.135.286-.629.254-.808-.24.38-.77.599-1.203.42a1.319 1.319 0 0 1-.47-.344.918.918 0 0 0-.027.269c.025.172.417.585.6.647.181.061.704-.043.846-.184Z" fill="#FFC81C"/><path opacity=".4" d="M13.595 13.305a.342.342 0 0 0 .062-.046c.143-.142.3-.676.247-.831-.052-.155-.443-.598-.6-.647-.156-.049-.73.088-.846.184-.06.05-.133.228-.184.41a.759.759 0 0 1 .557-.065c.363.085.7.348.76.736a.907.907 0 0 1 .004.259Z" fill="#FFAB00"/><path opacity=".51" d="M13.5 13.126c.026.028.05.063.089.04a.527.527 0 0 0 .175-.21c.135-.25.128-.524-.073-.747-.198-.22-.426-.413-.735-.354a.927.927 0 0 0-.42.176.85.85 0 0 0-.212.292c0 .024.008.048.023.066l.022.013a.512.512 0 0 1 .214-.213c.248-.105.475-.017.674.16.17.15.311.351.231.58-.026.066-.049.135.012.197Z" fill="#FF9F24"/><path opacity=".4" d="M13.694 13.022c.006.003.012.008.018.01a.042.042 0 0 0 .008.004c.017-.025.032-.051.046-.077.134-.25.128-.524-.073-.747-.198-.22-.426-.413-.735-.354a.92.92 0 0 0-.42.176.741.741 0 0 0-.177.226c0 .002 0 .004.002.005l.001.007.014-.001c.168-.179.438-.34.68-.293a.615.615 0 0 1 .378.217c.09.064.162.152.207.254.067.158.115.395.051.573Z" fill="#F5921D"/><path opacity=".57" d="M13.459 13.292c.155-.105-.12-.13-.203-.111a.783.783 0 0 1-.599-.144.56.56 0 0 1-.19-.262c-.032-.085-.043-.247-.117-.305-.136.133-.029.413.067.53.109.132.274.339.441.376.178.042.451.02.6-.084Z" fill="#FFDB60"/><path opacity=".4" d="M13.214 13.28c-.043-.068-.211-.041-.282-.057-.063-.013-.236-.126-.28-.105.017.059.057.109.111.139.037.021.11.078.156.07l-.013.003c.083.018.245.03.308-.05ZM12.372 12.784c-.034.018-.032.055-.003.077.006.036.098.122.102.075-.009-.046-.054-.136-.099-.152Z" fill="#FFE182"/><path opacity=".44" d="m13.284 13.132-.014.012c.103-.02.173-.155.074-.238-.064.022-.29.047-.316.112-.062.154.17.173.255.114ZM12.806 12.804c-.042-.136-.345-.16-.22.004.047.124.279.187.22-.004Z" fill="#FFE182"/><path opacity=".4" d="M13.086 12.09c-.105-.076-.284-.071-.379.013.03.092.123.07.2.059l-.077-.003a.756.756 0 0 0 .247-.029s.008-.037.01-.04Z" fill="#F5921D"/><path opacity=".4" d="M11.866 16.374c.182.062.704-.043.847-.184.144-.141.3-.676.248-.83-.052-.156-.443-.599-.6-.647-.156-.049-.73.088-.847.184-.115.096-.272.659-.247.83.024.173.417.586.6.647Z" fill="#FFB600"/><path opacity=".56" d="M11.764 15.803a1.32 1.32 0 0 1-.47-.344.92.92 0 0 0-.027.269c.025.172.417.585.6.646.181.062.703-.043.846-.184.137-.135.286-.629.254-.807-.24.38-.77.6-1.203.42Z" fill="#FFC81C"/><path opacity=".4" d="M11.888 15.241c.363.085.7.349.758.736a.903.903 0 0 1 .004.26.32.32 0 0 0 .063-.047c.143-.141.3-.675.247-.83-.052-.156-.442-.598-.599-.647-.157-.049-.731.088-.847.184-.06.05-.132.228-.183.41a.767.767 0 0 1 .557-.066Z" fill="#FFAB00"/><path opacity=".51" d="M12.314 15.28c.169.15.311.352.23.58-.023.067-.047.135.014.198.026.027.05.063.088.04a.522.522 0 0 0 .176-.21c.134-.25.128-.524-.073-.747-.198-.22-.426-.414-.735-.354a.919.919 0 0 0-.42.176.846.846 0 0 0-.212.292c0 .024.008.047.023.066l.021.013a.517.517 0 0 1 .215-.213c.245-.106.473-.018.673.16Z" fill="#FF9F24"/><path opacity=".4" d="M12.114 14.91a.615.615 0 0 1 .378.216c.09.065.162.153.207.255.068.158.117.395.052.572.006.004.011.008.018.01l.008.005c.017-.026.03-.052.046-.077.134-.252.128-.524-.073-.747-.198-.22-.427-.414-.735-.355a.92.92 0 0 0-.42.176.74.74 0 0 0-.177.226v.006l.002.007h.014c.169-.18.439-.34.68-.293Z" fill="#F5921D"/><path opacity=".57" d="M11.915 16.308c.178.041.451.02.6-.084.156-.105-.12-.13-.203-.112a.783.783 0 0 1-.598-.143.56.56 0 0 1-.19-.263c-.032-.084-.043-.247-.117-.305-.136.133-.03.413.066.531.11.132.274.339.442.376Z" fill="#FFDB60"/><path opacity=".4" d="M12.27 16.212c-.042-.068-.21-.042-.282-.057-.062-.014-.235-.126-.28-.106.018.06.058.11.112.14.037.02.11.077.156.069l-.014.004c.084.018.246.03.309-.05ZM11.426 15.793c.006.035.098.121.101.074-.008-.046-.053-.135-.098-.152-.034.018-.033.055-.003.078Z" fill="#FFE182"/><path opacity=".44" d="M12.4 15.838c-.064.021-.288.046-.315.112-.062.154.17.173.255.113l-.013.013c.103-.021.173-.155.073-.238ZM11.863 15.735c-.042-.135-.345-.16-.22.005.047.124.279.186.22-.005Z" fill="#FFE182"/><path opacity=".4" d="M12.143 15.022c-.105-.076-.284-.071-.379.012.028.093.123.07.2.06l-.078-.003a.762.762 0 0 0 .248-.029l.009-.04Z" fill="#F5921D"/><path opacity=".4" d="M12.2 11.891c-.052-.155-.442-.598-.6-.646-.156-.049-.73.088-.846.184-.116.095-.273.658-.248.83.025.172.418.585.6.647.182.062.704-.043.847-.184.143-.142.3-.676.247-.83Z" fill="#FFB600"/><path opacity=".56" d="M12.206 11.914c-.24.38-.77.598-1.203.42a1.32 1.32 0 0 1-.47-.344.917.917 0 0 0-.027.269c.025.172.418.585.6.646.182.062.704-.042.847-.184.137-.135.286-.628.253-.807Z" fill="#FFC81C"/><path opacity=".4" d="M12.2 11.891c-.052-.155-.442-.598-.6-.646-.156-.049-.73.088-.846.184-.06.05-.132.227-.184.41a.757.757 0 0 1 .556-.066c.363.085.7.348.76.736a.897.897 0 0 1 .004.26.332.332 0 0 0 .062-.047c.144-.142.3-.676.248-.83Z" fill="#FFAB00"/><path opacity=".51" d="M11.986 11.672c-.198-.22-.426-.414-.735-.354a.924.924 0 0 0-.42.176.848.848 0 0 0-.212.292c0 .024.008.048.023.066l.021.013a.515.515 0 0 1 .214-.213c.249-.105.475-.018.675.16.17.15.311.351.23.58-.023.066-.046.134.014.198.026.027.05.062.088.04a.528.528 0 0 0 .176-.21c.133-.252.127-.524-.074-.748Z" fill="#FF9F24"/><path opacity=".4" d="M11.988 11.675c-.197-.22-.426-.414-.734-.355a.922.922 0 0 0-.42.176.74.74 0 0 0-.178.227l.002.005c0 .002 0 .004.002.007h.014c.168-.18.438-.34.68-.293.152.021.279.103.377.216.091.064.163.152.207.254.069.158.117.395.052.573l.018.01.008.004c.017-.025.032-.051.046-.077.133-.251.128-.524-.074-.747Z" fill="#F5921D"/><path opacity=".57" d="M11.552 12.643a.784.784 0 0 1-.599-.143.559.559 0 0 1-.19-.263c-.031-.084-.043-.247-.116-.305-.137.133-.03.414.066.531.109.132.274.339.441.376.178.041.452.02.601-.084.155-.105-.12-.13-.203-.112Z" fill="#FFDB60"/><path opacity=".4" d="M11.227 12.686c-.061-.014-.235-.126-.28-.106.018.06.058.11.112.14.037.02.11.077.156.069l-.013.004c.083.018.245.029.308-.05-.043-.068-.211-.042-.283-.057ZM10.668 12.246c-.034.018-.032.055-.003.078.006.036.098.121.102.075-.008-.046-.054-.135-.099-.153Z" fill="#FFE182"/><path opacity=".44" d="M11.64 12.369c-.064.021-.29.046-.316.112-.062.154.17.173.255.113l-.013.013c.103-.021.173-.155.074-.238ZM11.102 12.267c-.042-.136-.345-.16-.22.004.048.124.279.186.22-.004Z" fill="#FFE182"/><path opacity=".4" d="M11.382 11.553c-.105-.076-.284-.071-.378.013.028.092.122.069.2.059l-.078-.003a.766.766 0 0 0 .247-.029l.009-.04Z" fill="#F5921D"/><path opacity=".4" d="M12.337 14.482c.143-.141.3-.676.248-.831-.053-.155-.443-.598-.6-.646-.156-.05-.731.087-.847.183-.116.096-.272.66-.248.831.025.172.418.585.6.647.182.061.704-.043.847-.184Z" fill="#FFB600"/><path opacity=".56" d="M12.337 14.482c.137-.135.286-.629.253-.808-.24.38-.77.599-1.203.42a1.32 1.32 0 0 1-.47-.343.919.919 0 0 0-.026.268c.025.172.417.585.6.647.181.061.703-.043.846-.184Z" fill="#FFC81C"/><path opacity=".4" d="M12.275 14.528a.356.356 0 0 0 .062-.046c.144-.141.3-.676.248-.83-.053-.156-.443-.599-.6-.647-.156-.05-.73.087-.847.183-.06.05-.132.228-.183.411a.758.758 0 0 1 .557-.066c.363.085.7.349.76.737a.894.894 0 0 1 .003.258Z" fill="#FFAB00"/><path opacity=".51" d="M12.18 14.35c.026.027.05.062.088.04a.519.519 0 0 0 .176-.21c.134-.251.128-.524-.073-.747-.198-.22-.426-.414-.735-.355a.92.92 0 0 0-.42.176.846.846 0 0 0-.212.292c0 .024.008.048.023.067l.022.012a.514.514 0 0 1 .214-.213c.248-.105.475-.017.674.16.17.15.311.352.23.58-.024.067-.047.135.013.198Z" fill="#FF9F24"/><path opacity=".4" d="m12.375 14.245.018.01.008.004a1.2 1.2 0 0 0 .046-.077c.135-.25.128-.524-.073-.747-.198-.22-.426-.414-.735-.354a.92.92 0 0 0-.42.176.741.741 0 0 0-.177.226l.002.005v.007h.014c.169-.179.439-.34.68-.292.152.02.28.103.378.216.09.064.162.152.207.254.068.158.116.394.052.572Z" fill="#F5921D"/><path opacity=".57" d="M12.139 14.515c.155-.104-.12-.129-.203-.111a.784.784 0 0 1-.599-.144.558.558 0 0 1-.19-.262c-.031-.084-.042-.247-.116-.305-.136.133-.03.413.066.53.11.133.274.339.442.377.177.04.45.02.6-.085Z" fill="#FFDB60"/><path opacity=".4" d="M11.894 14.503c-.042-.067-.21-.041-.282-.057-.062-.013-.236-.126-.28-.105.017.06.057.109.112.139.036.021.11.078.155.07l-.013.003c.083.018.247.03.308-.05ZM11.053 14.006c-.035.018-.033.055-.003.078.005.036.097.121.1.074-.007-.045-.053-.134-.098-.152Z" fill="#FFE182"/><path opacity=".44" d="m11.964 14.355-.014.012c.104-.02.173-.155.074-.238-.064.022-.289.047-.315.112-.062.154.17.174.255.114ZM11.487 14.027c-.042-.136-.345-.16-.22.005.047.123.278.186.22-.005Z" fill="#FFE182"/><path opacity=".4" d="M11.766 13.314c-.104-.077-.284-.072-.378.012.029.093.122.07.2.06l-.078-.004a.752.752 0 0 0 .248-.029l.008-.04Z" fill="#F5921D"/><path opacity=".63" d="m14.85 11.726-.027.024a.289.289 0 0 0 .027-.024ZM14.859 11.717l-.009.009.009-.009Z" fill="#FF7C10"/><path opacity=".25" d="M14.488 11.894c.33-.117-.146-.446-.285-.097.054.108.252.132.373.083l-.088.014ZM13.81 11.45c-.03.064-.003.092.03.142l-.015-.053c.018.068.089.137.167.175a.504.504 0 0 0 .066-.063c-.068-.086-.144-.188-.249-.201Z" fill="#FF7C10"/><path opacity=".42" d="M13.911 14.634c.029-.4-.3.029-.429.063-.273.073-.339-.433-.568-.356-.145.056.021.23.07.258v-.035c.039.428.888.618.927.07Z" fill="#FFE182"/><path opacity=".56" d="M10.109 16.122a.148.148 0 0 0 .022.038l.027.015-.05-.053ZM8.74 11.884l.007-.023-.027.025a.131.131 0 0 1 .02-.002Z" fill="#FFC81C"/><path opacity=".4" d="m11.738 17.074-.093-.012c.034.006.066.01.093.012Z" fill="#FFAB00"/><path opacity=".57" d="M16.945 15.235c.077-.001.13-.023.203-.03.148-.013.197.13.317.184.07.031.127.021.158-.013-.115-.01-.158.013-.308-.147-.104-.11-.302-.049-.445-.104-.11-.043-.178-.013-.293-.087-.024-.015-.052-.14-.065-.166.01.086-.026.13.062.223.13.142.24.142.37.14Z" fill="#FFDB60"/><path opacity=".4" d="m17.393 15.239.006-.006c.046.127.236.06.108-.04-.009-.007-.13-.08-.121-.082-.064.012-.031.1.007.128ZM17.309 15.134c0-.068-.115-.101-.171-.113-.095-.02-.19-.004-.285-.014a.61.61 0 0 1-.156-.031c-.049-.018-.105-.044-.105.034-.002.082.19.13.262.136.075.005.249-.05.295-.019l-.02-.01c.056-.006.13.038.18.017Z" fill="#FFE182"/><path opacity=".4" d="M11.146 15.37c-.192-.002-.63-.007-.918.006a1.571 1.571 0 0 0-.117-.768c.244-.026.714-.07 1.02-.064.08.1.137.212.13.36-.007.157-.07.313-.115.466Z" fill="#EF8506"/><path opacity=".44" d="M10 13.101s.749-.16.7-.057c-.05.104-.212.229-.208.484.004.255.478.826.33.843-.148.018-.541-.615-.464-.933.077-.318.077-.318-.111-.27-.189.05-.247-.067-.247-.067Z" fill="#FFE182"/></g></g><path fill-rule="evenodd" clip-rule="evenodd" d="M7.62 8.254 6.578 9.292c1.426 1.43 3.05 2.124 3.623 1.551.574-.573-.116-2.197-1.542-3.627L7.62 8.254Z" fill="url(#h)" style="mix-blend-mode:screen" opacity=".5"/><path fill-rule="evenodd" clip-rule="evenodd" d="m7.977 7.84-.467.52c.957.9 1.942 1.398 2.2 1.111.258-.286-.309-1.249-1.265-2.15l-.467.52Z" fill="url(#i)" style="mix-blend-mode:screen" opacity=".5"/><path opacity=".5" fill-rule="evenodd" clip-rule="evenodd" d="M15.015 10.537c-.07.115-.37.793-.543 1.277-.134.377-.056.52.649.813.544.225 1.29.6 1.943 1.273.512.528.63 1.015.804 1.488.078.212.882-.63.94-.994.197-1.246-.441-2.532-1.473-3.43-.43-.374-1.347-.925-1.953-.795-.169.037-.277.22-.368.368Zm-2.81-.125c.431-.84 1.336-1.129 1.879-.797.364.222.358.604-.004 1.415-.361.812-1.12 1.312-1.806.855-.364-.242-.5-.633-.069-1.473Z" fill="url(#j)"/><path opacity=".5" fill-rule="evenodd" clip-rule="evenodd" d="M13.773 9.822c-.323-.187-.887.017-1.177.546-.29.53-.22.765-.003.902.406.26.887-.071 1.134-.58.248-.51.263-.743.046-.868Zm3.317 1.343c-.244-.2-.813-.578-1.239-.663-.144-.028-.225-.006-.284.056-.075.08-.413.933-.414 1.046-.002.098.072.186.335.296.792.33 1.515.76 2.138 1.356.264.25.487.541.662.86.06.113.116.142.158.113.09-.062.11-.268.114-.377.03-1.014-.653-2.016-1.47-2.687Z" fill="url(#k)"/><path fill-rule="evenodd" clip-rule="evenodd" d="m8.09 7.809-.237.274c.66.65 1.302 1.056 1.434.904.131-.151-.298-.801-.958-1.453l-.238.275Z" fill="url(#l)" style="mix-blend-mode:screen" opacity=".5"/><path style="mix-blend-mode:screen" fill-rule="evenodd" clip-rule="evenodd" d="M9.788 17.6c1.728 2.327 4.958 2.754 7.326.822-2.306.588-5.011.425-7.326-.822Z" fill="url(#m)"/><mask id="o" style="mask-type:alpha" maskUnits="userSpaceOnUse" x="8" y="9" width="11" height="7"><path fill-rule="evenodd" clip-rule="evenodd" d="M11.458 9.236c-2.859.762-3.365 3.97-3.016 5.28.35 1.31 2.95 1.755 5.809.993 2.859-.763 4.892-2.443 4.542-3.753-.35-1.31-4.476-3.283-7.335-2.52Z" fill="url(#n)"/></mask><g mask="url(#o)"><path d="m12.698 13.08.115-3.184V9.89s-.735-.24-1.138-.218c-.402.021-.668.097-.884.361-.058.072-.11.256-.156.43-.045.166-.086.324-.128.372-.048.055-.21.085-.381.16a.822.822 0 0 0-.368.29c-.225.336-.383.716-.272.986a.516.516 0 0 0 .044.082c.1.156.268.252.338.441.026.07.037.146.033.22v.002c-.01.318-.153.572-.138.82a.51.51 0 0 0 .046.187c.102.22.213.368.301.584.04.098.073.2.096.304.035.154.033.314.022.464-.018.25-.064.473-.011.594.083.19 1.725.614 1.776.627l-.473-.317 1.178-3.198Zm-1.898.888-.052-.007c.005-.25.2-.764.156-.903a.526.526 0 0 0-.04-.083l.11.03c.107.032.18.067.19.099.055.152-.113.896-.364.864Zm.44 1.403h-.095c.045-.155.109-.31.116-.468a.519.519 0 0 0-.13-.359c.143.003.25.017.281.048.13.126-.172.78-.172.78Z" fill="#FFAB00"/><path d="M10.974 13.004a.117.117 0 0 1-.084.017c-.084-.01-.207-.068-.473-.05-.167.012-.357.029-.515.042a.565.565 0 0 0-.033-.22c-.07-.19-.238-.285-.339-.441l.843-.105s.694.693.6.757ZM11.74 10.591s-.077.318-.14.529c-.063.21-.64.173-.64.173a3.053 3.053 0 0 0-.34-.19c-.112-.053-.324-.088-.493-.107.172-.077.333-.106.381-.162.042-.047.083-.205.128-.37.124.043.25.079.38.107.238.052.483.058.724.02Z" fill="#EF8506"/><path d="M17.498 16.259c-.235.324-.622.15-.916.346-.242.162-.176.72-.422.868-.325.199-.666.299-.91.228a.72.72 0 0 1-.181-.085c-.237-.15-.455-.43-.635-.623-.008-.006-.106.027-.247.062-.28.068-.725.143-.966-.07-.168-.15-.306-.52-.552-.554-.19-.027-.455.18-.682.15-.131-.02-.307-.149-.466-.3a2.532 2.532 0 0 1-.343-.4c-.107-.166-.082-.335-.032-.51.042-.15.08-.728-.013-.825-.13-.163-.316-.296-.376-.502a.27.27 0 0 1-.008-.081l.016.002c-.323-.334.014-.69.1-.99-.089-.147-.276-.33-.39-.504-.168-.253-.133-.41-.033-.678.1-.267.12-.457.395-.592.241-.119.492-.018.666-.182.174-.164.17-.632.36-.82.206-.205.641-.374.935-.307l.014.004c.354.088.433.393.73.618.33.25.622-.059.947-.052.374.008.533.515.834.675.193.101.326.044.51.008.116-.023.34-.073.453-.05.227.05.7.514.725.791.016.182-.045.323-.076.488-.029.15 0 .3-.083.443.195.222.549.577.541.887-.007.285-.267.634-.148.915.139.328.572.406.561.793-.004.21-.188.681-.308.847Z" fill="#FFE182"/><path opacity=".51" d="M15.858 11.183c.298-.039.616-.033.77.227a.966.966 0 0 1 .249.29.48.48 0 0 1 .055.43c-.015.199-.093.403-.121.592a.215.215 0 0 1-.015.05l.001.1c.066.087.133.172.201.257.101.124.27.26.304.425a.51.51 0 0 1 .007.048c.055.216-.012.465-.12.675a.823.823 0 0 0 .043.468v.002c.033.04.07.078.111.11.15.113.358.24.403.437.063.275-.071.625-.252.855-.081.193-.305.264-.517.267a1.763 1.763 0 0 1-.193.053c-.134.028-.27.048-.339.182-.113.223-.123.48-.268.692-.245.358-.737.341-1.126.261.061.042.128.075.198.097.245.072.586-.029.912-.227.245-.149.18-.706.421-.868.294-.196.683-.022.917-.347.12-.165.303-.637.31-.847.01-.387-.423-.465-.562-.793-.12-.28.14-.63.148-.914.008-.31-.346-.666-.541-.888.083-.143.055-.293.083-.442.031-.166.092-.306.076-.488-.024-.277-.498-.742-.724-.79-.113-.024-.338.026-.454.049-.184.036-.318.093-.51-.009-.3-.159-.459-.666-.833-.674-.326-.007-.618.3-.947.052-.302-.229-.379-.538-.745-.623-.213-.048-.498.026-.719.149.252-.094.55-.18.798-.054.134.037.249.109.3.236a.526.526 0 0 1 .059.082c0 .002.002.002.003.003.148.158.334.333.568.316.223-.014.45-.126.675-.078.225.049.418.217.546.417a.748.748 0 0 0 .305.214c.181.054.34.03.523.006Z" fill="#FF9F24"/><path d="M15.216 17.551c.182.062.704-.043.847-.184.143-.142.3-.676.248-.83-.053-.156-.443-.599-.6-.647-.156-.049-.73.087-.847.183-.115.096-.272.66-.247.831.025.173.417.585.599.647Z" fill="#FFB600"/><path d="M15.238 16.418c.363.085.699.348.759.736a.896.896 0 0 1 .004.26.332.332 0 0 0 .062-.047c.143-.141.3-.675.248-.83-.053-.156-.443-.599-.6-.648-.156-.048-.73.088-.847.184-.06.05-.132.229-.183.411a.763.763 0 0 1 .557-.066Z" fill="#FFAB00"/><path opacity=".51" d="M15.662 16.457c.17.15.312.351.231.58-.024.067-.047.135.013.198.026.027.051.063.089.04a.525.525 0 0 0 .175-.21c.135-.252.128-.524-.073-.747-.198-.22-.427-.414-.736-.355a.92.92 0 0 0-.42.177.848.848 0 0 0-.212.291c0 .025.008.048.024.067.006.005.014.008.02.012a.517.517 0 0 1 .215-.213c.248-.105.475-.017.674.16Z" fill="#FF9F24"/><path d="M15.464 16.088c.152.02.278.103.377.215.091.065.163.152.208.254.068.158.116.395.051.573.006.004.012.008.018.01l.009.004a1.12 1.12 0 0 0 .045-.077c.135-.25.128-.524-.073-.747-.198-.22-.426-.414-.735-.354a.92.92 0 0 0-.42.176.737.737 0 0 0-.177.226.105.105 0 0 1 .004.012h.013c.168-.179.438-.34.68-.292Z" fill="#F5921D"/><path d="M13.52 16.966c.181.061.703-.043.846-.184.143-.142.3-.676.248-.831-.053-.155-.443-.598-.6-.647-.156-.049-.73.088-.847.184-.115.096-.272.66-.247.831.025.172.417.585.6.647Z" fill="#FFB600"/><path opacity=".56" d="M13.417 16.395a1.314 1.314 0 0 1-.47-.345.91.91 0 0 0-.027.269c.024.172.417.585.6.647.181.06.703-.043.846-.184.137-.135.286-.629.254-.808-.241.38-.771.598-1.203.42Z" fill="#FFC81C"/><path d="M13.541 15.833c.363.085.7.348.758.736a.89.89 0 0 1 .005.26.316.316 0 0 0 .062-.047c.144-.14.3-.675.248-.83-.053-.155-.443-.599-.6-.648-.156-.049-.73.088-.847.184-.06.05-.132.228-.183.411a.764.764 0 0 1 .557-.066Z" fill="#FFAB00"/><path opacity=".51" d="M13.966 15.872c.169.15.311.351.23.58-.024.066-.047.135.013.198.027.027.051.063.09.04a.526.526 0 0 0 .175-.21c.134-.25.128-.524-.073-.747-.198-.22-.426-.414-.735-.354a.913.913 0 0 0-.42.176.845.845 0 0 0-.212.292c0 .024.008.048.023.066l.021.013a.516.516 0 0 1 .214-.213c.247-.106.474-.018.674.159Z" fill="#FF9F24"/><path d="M13.767 15.502c.152.021.279.103.378.216.09.065.162.152.207.254.068.158.116.395.052.573l.018.01.008.004a1.03 1.03 0 0 0 .045-.077c.135-.25.128-.523-.073-.747-.198-.22-.426-.413-.735-.354a.916.916 0 0 0-.42.176.737.737 0 0 0-.177.226c0 .002 0 .004.002.006v.006h.014c.17-.18.44-.34.681-.293Z" fill="#F5921D"/><path opacity=".57" d="M13.568 16.9c.177.04.45.02.6-.085.156-.105-.12-.129-.203-.111a.785.785 0 0 1-.598-.144.56.56 0 0 1-.191-.262c-.031-.084-.043-.247-.116-.305-.136.133-.03.413.066.53.109.133.274.339.442.376Z" fill="#FFDB60"/><path d="M13.183 15.204c.183.062.705-.043.848-.184.143-.141.3-.676.247-.83-.052-.156-.442-.598-.6-.647-.156-.05-.73.088-.846.184-.116.096-.273.659-.248.83.025.172.417.585.6.647Z" fill="#FFB600"/><path opacity=".56" d="M13.081 14.633a1.316 1.316 0 0 1-.47-.344.915.915 0 0 0-.027.268c.025.172.417.585.6.647.182.062.704-.043.847-.184.137-.135.286-.629.253-.807-.24.38-.77.598-1.203.42Z" fill="#FFC81C"/><path d="M13.205 14.071c.363.085.7.348.76.736a.903.903 0 0 1 .003.26.332.332 0 0 0 .063-.047c.143-.141.3-.676.247-.83-.052-.156-.442-.598-.6-.647-.156-.05-.73.088-.846.184-.06.05-.133.228-.184.41a.764.764 0 0 1 .557-.066Z" fill="#FFAB00"/><path opacity=".51" d="M13.63 14.11c.17.15.311.351.231.58-.024.067-.047.135.013.198.026.027.051.063.089.04a.527.527 0 0 0 .175-.21c.135-.252.129-.524-.073-.747-.197-.22-.426-.414-.734-.354a.918.918 0 0 0-.42.176.85.85 0 0 0-.212.292c0 .024.008.048.023.066.006.005.014.009.021.013a.514.514 0 0 1 .214-.213c.247-.106.473-.018.673.16Z" fill="#FF9F24"/><path d="M13.431 13.74c.153.022.28.104.378.216.09.065.162.153.207.255.068.157.117.394.052.572.006.004.012.008.018.01l.008.004c.017-.025.032-.05.046-.076.134-.252.128-.524-.073-.748-.199-.22-.426-.413-.736-.354a.923.923 0 0 0-.42.176.742.742 0 0 0-.177.226l.002.006a.05.05 0 0 0 0 .006h.014c.17-.179.44-.34.681-.292Z" fill="#F5921D"/><path opacity=".57" d="M13.232 15.138c.178.04.452.02.6-.085.156-.104-.119-.128-.203-.11a.783.783 0 0 1-.598-.144.56.56 0 0 1-.19-.263c-.032-.084-.043-.247-.116-.305-.137.133-.03.413.066.53.108.133.273.339.441.377Z" fill="#FFDB60"/><path d="M13.588 15.042c-.043-.068-.211-.042-.282-.058-.063-.013-.236-.125-.28-.105.017.06.057.11.112.14.036.021.11.078.155.069l-.013.004c.083.018.245.029.308-.05ZM12.743 14.623c.006.035.098.121.102.074-.009-.046-.054-.135-.099-.152-.034.018-.032.055-.003.078Z" fill="#FFE182"/><path d="M14.915 12.103c.143-.141.3-.676.248-.83-.053-.156-.443-.599-.6-.647-.157-.049-.73.088-.847.184-.116.096-.273.659-.248.83.025.173.418.585.6.647.182.062.704-.043.847-.184Z" fill="#FFB600"/><path opacity=".56" d="M14.915 12.103c.137-.135.286-.629.253-.807-.24.38-.77.598-1.202.42a1.324 1.324 0 0 1-.47-.344.922.922 0 0 0-.027.269c.025.171.418.584.6.646.182.062.703-.043.846-.184Z" fill="#FFC81C"/><path d="M14.853 12.15a.351.351 0 0 0 .062-.047c.143-.141.3-.676.248-.83-.053-.156-.443-.599-.6-.647-.157-.049-.73.088-.847.184-.061.05-.131.228-.183.41a.757.757 0 0 1 .556-.066c.363.085.7.349.76.736a.902.902 0 0 1 .004.26Z" fill="#FFAB00"/><path opacity=".51" d="M14.758 11.971c.026.027.05.063.088.04a.518.518 0 0 0 .176-.21c.134-.25.128-.524-.073-.747-.198-.22-.426-.414-.735-.354a.922.922 0 0 0-.42.176.852.852 0 0 0-.213.291c0 .024.008.048.024.067l.02.012a.52.52 0 0 1 .215-.213c.248-.105.475-.017.675.16.169.15.31.351.23.58-.024.067-.047.135.013.198Z" fill="#FF9F24"/><path d="m14.952 11.867.018.01a.078.078 0 0 0 .009.003c.016-.025.031-.05.045-.077.135-.25.128-.524-.073-.746-.198-.22-.426-.414-.735-.355a.916.916 0 0 0-.42.176.738.738 0 0 0-.177.227c0 .002 0 .003.002.005a.04.04 0 0 0 0 .007h.014c.169-.18.439-.34.68-.293.152.021.28.104.378.216.09.065.162.152.207.254.069.158.117.394.052.573Z" fill="#F5921D"/><path opacity=".57" d="M14.717 12.137c.156-.105-.12-.13-.203-.112a.783.783 0 0 1-.599-.143.557.557 0 0 1-.19-.263c-.031-.084-.043-.247-.116-.305-.137.133-.03.413.066.531.109.133.274.338.441.376.178.041.452.02.6-.084Z" fill="#FFDB60"/><path d="M14.472 12.125c-.043-.068-.21-.042-.282-.057-.062-.014-.236-.126-.28-.106.017.06.057.11.112.139.036.022.11.078.155.07l-.013.003c.083.019.246.03.308-.05ZM13.63 11.628c-.034.018-.032.055-.002.078.005.036.097.121.101.075-.009-.046-.054-.136-.098-.153Z" fill="#FFE182"/><path d="M14.85 15.811c.183.062.705-.043.848-.184.143-.142.3-.676.247-.83-.052-.155-.442-.598-.6-.648-.156-.048-.73.089-.846.184-.116.096-.274.66-.248.831.026.172.418.586.6.647Z" fill="#FFA000"/><path opacity=".56" d="M14.748 15.24a1.315 1.315 0 0 1-.47-.345.914.914 0 0 0-.027.27c.025.171.418.584.6.646.181.062.704-.043.847-.184.137-.135.286-.629.253-.808-.24.381-.77.599-1.203.42Z" fill="#FFB600"/><path d="M14.872 14.678c.363.085.7.348.758.736a.892.892 0 0 1 .004.26.31.31 0 0 0 .063-.047c.143-.141.3-.676.247-.83-.052-.155-.441-.598-.598-.647-.157-.05-.731.088-.847.183-.06.05-.132.228-.184.411a.763.763 0 0 1 .557-.066Z" fill="#FF990C"/><path opacity=".51" d="M15.297 14.717c.17.15.311.351.231.58-.024.066-.047.135.013.198.026.027.051.063.089.04a.524.524 0 0 0 .175-.21c.135-.251.128-.524-.073-.747-.198-.22-.427-.414-.736-.355a.917.917 0 0 0-.42.176.846.846 0 0 0-.212.293c0 .024.008.047.023.066l.022.012a.516.516 0 0 1 .213-.213c.249-.105.476-.017.675.16Z" fill="#FA8803"/><path d="M15.099 14.348c.152.02.278.102.377.215.091.065.162.153.207.255.069.158.117.394.052.572.006.004.012.008.018.01a.059.059 0 0 0 .008.004.872.872 0 0 0 .046-.077c.134-.25.128-.524-.073-.747-.198-.22-.426-.414-.735-.354a.917.917 0 0 0-.42.176.735.735 0 0 0-.178.226l.001.005v.007h.014c.171-.18.441-.34.683-.293Z" fill="#FF7C10"/><path opacity=".57" d="M14.9 15.744c.177.042.45.02.6-.084.155-.104-.12-.129-.203-.11a.784.784 0 0 1-.599-.145.56.56 0 0 1-.19-.262c-.031-.084-.042-.247-.116-.305-.136.133-.03.413.066.53.109.133.273.34.441.376Z" fill="#FFDB60"/><path opacity=".49" d="M15.255 15.648c-.043-.067-.211-.041-.283-.057-.062-.013-.235-.125-.28-.105.018.06.058.11.112.14.037.02.11.077.156.069l-.013.004c.083.018.246.029.308-.05Z" fill="#FFE182"/><path d="M14.41 15.23c.006.035.098.121.102.074-.008-.046-.054-.135-.099-.152-.034.018-.032.055-.002.077ZM15.235 15.557l-.036.004a.188.188 0 0 0 .036-.004Z" fill="#FFE182"/><path d="M15.347 15.321c-.183-.041-.308.238-.149.24l.036-.005a.197.197 0 0 1-.036.004l-.014.002c.122.112.453-.174.163-.24ZM14.925 15.336c-.124-.094-.266.076-.13.132l-.03-.002c.099.042.318-.011.16-.13Z" fill="#FFE182"/><path d="M14.874 14.628v.015c.202-.038.165-.245-.036-.22-.184.024-.147.268.036.205ZM15.556 14.748a.3.3 0 0 0-.207-.217c-.08.046.012.19.073.214l-.02-.023c.061.068.198.209.154.026Z" fill="#FF7C10"/><path opacity=".29" d="M15.133 15.282c.23-.013.142-.23.028-.338-.25-.222-.596 0-.28.218l-.015-.016c.071.062.171.154.267.136Z" fill="#FFDB60"/><path d="M16.526 16.366c.182.062.704-.043.847-.184.143-.14.3-.675.247-.83-.052-.156-.442-.599-.599-.647-.156-.048-.731.088-.847.184-.116.096-.273.659-.248.83.025.173.418.586.6.647Z" fill="#FFA000"/><path opacity=".56" d="M16.424 15.795a1.317 1.317 0 0 1-.47-.344.919.919 0 0 0-.028.269c.025.172.418.585.6.646.182.062.704-.042.847-.184.137-.135.286-.628.253-.807-.24.38-.77.599-1.203.42Z" fill="#FFB600"/><path d="M16.547 15.233c.363.085.7.349.76.737a.892.892 0 0 1 .004.259.342.342 0 0 0 .062-.047c.143-.141.3-.675.247-.83-.052-.156-.442-.599-.599-.647-.156-.048-.731.088-.847.184-.06.05-.132.228-.183.41a.764.764 0 0 1 .556-.066Z" fill="#FF990C"/><path opacity=".51" d="M16.972 15.273c.17.15.311.35.231.579-.024.067-.047.135.013.198.026.027.051.063.089.04a.52.52 0 0 0 .176-.21c.134-.25.128-.524-.074-.747-.197-.22-.425-.414-.734-.354a.922.922 0 0 0-.42.176.847.847 0 0 0-.212.292c0 .024.008.048.023.066l.021.013a.517.517 0 0 1 .214-.213c.247-.106.474-.018.673.16Z" fill="#FA8803"/><path d="M16.774 14.903c.152.02.278.103.377.216.091.064.163.152.207.254.069.158.117.395.052.573l.018.01a.123.123 0 0 0 .008.004.793.793 0 0 0 .046-.077c.134-.251.128-.524-.073-.747-.198-.22-.426-.414-.735-.355a.921.921 0 0 0-.42.176.73.73 0 0 0-.177.227.04.04 0 0 1 0 .005l.003.007h.013c.17-.18.44-.34.68-.293Z" fill="#FF7C10"/><path opacity=".57" d="M16.574 16.3c.178.041.452.02.6-.084.157-.105-.119-.13-.202-.112a.783.783 0 0 1-.599-.143.558.558 0 0 1-.19-.263c-.031-.084-.042-.247-.116-.305-.136.133-.03.414.066.531.108.132.273.339.441.376Z" fill="#FFDB60"/><path d="M16.086 15.786c.005.035.097.121.1.074-.007-.046-.053-.135-.097-.152-.035.017-.033.054-.003.078ZM17.022 15.877c-.183-.042-.308.237-.148.239l.036-.005a.173.173 0 0 1-.036.005l-.015.001c.122.113.453-.174.163-.24ZM16.6 15.891c-.124-.093-.266.076-.13.132l-.03-.001c.099.041.318-.012.16-.13Z" fill="#FFE182"/><path d="m16.549 15.184-.001.014c.202-.037.165-.244-.036-.219-.183.024-.146.268.037.205ZM17.231 15.304a.3.3 0 0 0-.207-.218c-.08.046.012.19.073.214l-.02-.023c.062.068.198.21.154.027Z" fill="#FF7C10"/><path opacity=".29" d="M16.809 15.838c.229-.014.141-.23.027-.338-.25-.223-.596 0-.28.217l-.015-.015c.072.062.171.154.268.136Z" fill="#FFDB60"/><path d="M14.517 14.047c.182.062.705-.043.848-.184.143-.141.3-.676.247-.83-.052-.156-.443-.599-.6-.648-.156-.048-.73.088-.846.184-.116.096-.273.66-.248.832.025.172.418.584.6.646Z" fill="#FFA000"/><path opacity=".56" d="M14.415 13.476a1.322 1.322 0 0 1-.47-.344.922.922 0 0 0-.027.268c.025.172.417.585.6.647.181.062.703-.043.847-.184.137-.135.285-.629.253-.808-.24.381-.77.6-1.203.42Z" fill="#FFB600"/><path d="M14.54 12.914c.362.085.698.348.758.736a.896.896 0 0 1 .004.26.361.361 0 0 0 .063-.047c.143-.141.3-.676.247-.83-.052-.156-.443-.599-.6-.648-.156-.048-.73.088-.846.184-.06.05-.133.228-.184.411a.765.765 0 0 1 .557-.066Z" fill="#FF990C"/><path opacity=".51" d="M14.964 12.953c.17.15.311.351.231.58-.024.066-.047.135.013.198.026.027.051.062.089.04a.529.529 0 0 0 .175-.21c.135-.252.128-.524-.073-.747-.197-.22-.426-.414-.734-.355a.922.922 0 0 0-.42.176.85.85 0 0 0-.212.293c0 .024.008.047.023.066l.021.012a.512.512 0 0 1 .214-.213c.247-.105.473-.018.673.16Z" fill="#FA8803"/><path d="M14.766 12.584c.152.02.278.103.377.215.09.065.162.152.207.254.068.158.117.395.052.572.006.004.012.008.018.01l.008.005c.017-.026.032-.052.046-.077.134-.251.128-.524-.074-.747-.198-.219-.426-.413-.734-.354a.922.922 0 0 0-.42.176.74.74 0 0 0-.178.226c0 .002 0 .004.002.005.001.002 0 .005.002.007h.013c.169-.179.44-.34.68-.292Z" fill="#FF7C10"/><path opacity=".57" d="M14.566 13.98c.178.041.451.02.6-.084.156-.105-.12-.129-.203-.112a.784.784 0 0 1-.598-.143.558.558 0 0 1-.19-.263c-.032-.084-.043-.246-.117-.305-.136.133-.03.414.067.531.108.133.273.339.44.376Z" fill="#FFDB60"/><path opacity=".49" d="M14.922 13.884c-.043-.068-.211-.041-.283-.058-.062-.013-.235-.125-.28-.105.018.06.058.11.112.139.037.022.11.078.156.07l-.014.003c.084.02.246.031.309-.049Z" fill="#FFE182"/><path d="M14.077 13.465c.006.036.098.122.102.075-.008-.046-.054-.135-.099-.152-.034.018-.032.055-.003.077ZM14.902 13.792l-.036.005a.197.197 0 0 0 .036-.005Z" fill="#FFE182"/><path d="M15.014 13.557c-.183-.042-.308.238-.149.24l.036-.005a.197.197 0 0 1-.036.004l-.014.002c.122.113.452-.174.163-.24ZM14.592 13.572c-.124-.094-.266.076-.13.132l-.03-.002c.099.042.318-.011.16-.13Z" fill="#FFE182"/><path d="M14.54 12.864v.015c.202-.038.165-.245-.036-.22-.183.024-.146.268.036.205ZM15.223 12.984a.302.302 0 0 0-.207-.217c-.08.046.012.19.073.214l-.02-.023c.06.067.198.209.154.026Z" fill="#FF7C10"/><path opacity=".29" d="M14.8 13.518c.229-.013.141-.23.027-.338-.249-.223-.597 0-.28.218l-.015-.015c.072.061.172.154.268.135Z" fill="#FFDB60"/><path d="M15.79 12.885c.182.062.704-.042.847-.184.143-.14.3-.675.248-.83-.052-.156-.443-.598-.6-.647-.156-.049-.73.088-.847.184-.116.096-.272.659-.247.83.025.173.417.586.6.647Z" fill="#FFA000"/><path opacity=".56" d="M15.688 12.314a1.314 1.314 0 0 1-.47-.344.916.916 0 0 0-.027.269c.025.172.417.585.6.646.181.062.703-.042.846-.184.138-.135.286-.628.254-.807-.24.38-.77.599-1.203.42Z" fill="#FFB600"/><path d="M15.813 11.752c.363.085.7.349.76.736a.9.9 0 0 1 .002.259.326.326 0 0 0 .062-.046c.144-.142.3-.676.248-.831-.052-.155-.443-.598-.6-.647-.156-.048-.73.088-.847.184-.06.05-.132.228-.183.41a.771.771 0 0 1 .558-.065Z" fill="#FF990C"/><path opacity=".51" d="M16.237 11.792c.169.15.311.35.23.579-.024.067-.047.135.013.198.026.028.051.063.089.04a.509.509 0 0 0 .175-.21c.134-.25.128-.523-.073-.746-.198-.22-.426-.414-.735-.355a.922.922 0 0 0-.42.176.844.844 0 0 0-.212.292c0 .024.008.048.023.066l.021.013a.518.518 0 0 1 .214-.213c.249-.105.475-.018.675.16Z" fill="#FA8803"/><path d="M16.038 11.422c.152.02.28.103.378.216.09.064.162.152.207.254.069.158.117.395.052.573l.018.01a.086.086 0 0 0 .008.004c.017-.026.032-.051.046-.077.134-.252.128-.524-.073-.747-.198-.22-.427-.414-.735-.355a.918.918 0 0 0-.42.176.74.74 0 0 0-.177.227.05.05 0 0 1 0 .005l.002.007.014-.002c.169-.178.439-.339.68-.291Z" fill="#FF7C10"/><path opacity=".57" d="M15.839 12.819c.178.041.451.02.6-.084.156-.105-.12-.13-.203-.112a.782.782 0 0 1-.598-.143.56.56 0 0 1-.19-.263c-.032-.084-.043-.247-.117-.305-.136.133-.03.413.067.531.108.132.273.339.44.376Z" fill="#FFDB60"/><path opacity=".49" d="M16.195 12.723c-.043-.068-.211-.042-.283-.057-.062-.014-.235-.126-.28-.106a.234.234 0 0 0 .112.14c.037.02.11.077.156.069l-.014.004c.084.018.246.03.309-.05Z" fill="#FFE182"/><path d="M15.35 12.304c.005.035.097.121.101.074-.008-.046-.054-.135-.098-.152-.034.018-.032.055-.003.078ZM16.175 12.631l-.036.004a.174.174 0 0 0 .036-.004Z" fill="#FFE182"/><path d="M16.288 12.396c-.183-.042-.309.238-.15.239l.037-.005a.173.173 0 0 1-.036.005l-.015.001c.122.113.452-.174.164-.24ZM15.865 12.411c-.124-.093-.266.076-.13.132l-.03-.001c.098.04.317-.013.16-.13Z" fill="#FFE182"/><path d="M15.813 11.703v.014c.202-.038.165-.244-.036-.219-.183.024-.146.268.036.205ZM16.496 11.823a.301.301 0 0 0-.207-.217c-.08.045.012.19.073.213l-.02-.023c.061.068.198.21.154.027Z" fill="#FF7C10"/><path opacity=".29" d="M16.073 12.357c.23-.014.142-.231.028-.338-.25-.223-.597 0-.281.217l-.014-.015c.071.061.17.154.267.136Z" fill="#FFDB60"/><path d="M13.466 10.717c-.052-.155-.443-.598-.6-.647-.156-.048-.73.088-.846.184-.116.097-.273.66-.248.831.025.172.417.585.6.647.181.062.704-.043.847-.184.143-.142.3-.676.247-.83Z" fill="#FFA000"/><path opacity=".56" d="M13.472 10.74c-.24.381-.77.599-1.203.42a1.324 1.324 0 0 1-.47-.344.924.924 0 0 0-.027.27c.025.171.417.584.6.646.182.062.704-.043.847-.184.136-.135.286-.629.253-.808Z" fill="#FFB600"/><path d="M13.466 10.717c-.052-.155-.442-.598-.6-.647-.156-.048-.73.088-.846.184-.06.05-.133.228-.184.411a.757.757 0 0 1 .556-.066c.363.085.7.348.76.736a.911.911 0 0 1 .004.26.354.354 0 0 0 .062-.047c.144-.142.3-.676.248-.83Z" fill="#FF990C"/><path opacity=".51" d="M13.252 10.499c-.198-.22-.426-.414-.735-.355a.922.922 0 0 0-.42.176.849.849 0 0 0-.212.293c0 .024.008.047.023.066l.022.012a.516.516 0 0 1 .213-.213c.249-.105.475-.017.675.16.17.15.311.351.231.58-.024.066-.047.135.013.198.026.027.051.063.089.04a.527.527 0 0 0 .175-.21c.133-.251.127-.524-.074-.747Z" fill="#FA8803"/><path opacity=".57" d="M12.818 11.47a.783.783 0 0 1-.599-.144.557.557 0 0 1-.19-.263c-.031-.083-.043-.246-.116-.304-.137.133-.03.413.066.53.109.132.274.339.441.376.178.042.452.02.601-.084.155-.105-.12-.129-.204-.111Z" fill="#FFDB60"/><path opacity=".49" d="M12.494 11.512c-.062-.014-.235-.126-.28-.106.018.06.058.11.112.14.037.021.11.077.156.069l-.013.004c.083.018.245.03.308-.05-.044-.067-.212-.041-.283-.057Z" fill="#FFE182"/><path d="M11.934 11.073c-.034.018-.032.055-.003.077.006.036.097.122.102.075-.009-.046-.054-.135-.099-.152ZM12.756 11.477l-.036.005a.18.18 0 0 0 .036-.005Z" fill="#FFE182"/><path d="M12.868 11.242c-.183-.042-.309.238-.149.24l.036-.005a.173.173 0 0 1-.036.004l-.015.002c.123.112.454-.174.164-.24Z" fill="#FFE182"/><path d="M12.359 10.345c-.183.024-.147.268.036.205v.015c.201-.039.164-.246-.036-.22ZM13.077 10.669a.301.301 0 0 0-.207-.217c-.08.046.012.19.073.214l-.022-.022c.063.066.2.208.156.025Z" fill="#FF7C10"/><path opacity=".29" d="M12.682 10.865c-.25-.223-.597 0-.281.218l-.014-.015c.071.061.17.154.267.135.23-.013.141-.23.028-.338Z" fill="#FFDB60"/><path d="M16.172 14.64c.182.062.704-.043.847-.184.143-.141.3-.676.248-.83-.053-.156-.443-.599-.6-.648-.157-.048-.731.088-.847.184-.116.096-.272.66-.248.831.025.172.418.585.6.647Z" fill="#FFA000"/><path opacity=".56" d="M16.07 14.069a1.316 1.316 0 0 1-.47-.344.92.92 0 0 0-.028.268c.025.172.418.585.6.647.182.062.704-.043.847-.184.137-.135.286-.629.253-.808-.24.381-.77.6-1.203.42Z" fill="#FFB600"/><path d="M16.194 13.507c.363.085.699.348.759.736a.902.902 0 0 1 .004.26.332.332 0 0 0 .062-.047c.143-.141.3-.676.248-.83-.053-.155-.443-.599-.6-.647-.157-.049-.731.088-.847.184-.06.05-.132.228-.183.41a.763.763 0 0 1 .557-.066Z" fill="#FF990C"/><path opacity=".51" d="M16.618 13.546c.17.15.312.352.23.58-.023.066-.046.135.014.198.026.027.05.063.088.04a.525.525 0 0 0 .176-.21c.134-.25.128-.524-.073-.747-.198-.22-.426-.414-.735-.354a.917.917 0 0 0-.42.176.848.848 0 0 0-.212.292c0 .024.008.047.023.066l.022.013a.513.513 0 0 1 .213-.213c.248-.106.475-.018.674.159Z" fill="#FA8803"/><path d="M16.42 13.176a.616.616 0 0 1 .378.216c.09.065.162.153.207.255.068.158.116.394.052.572l.017.01.008.004c.017-.025.032-.051.046-.077.135-.25.128-.524-.073-.747-.198-.22-.426-.413-.735-.354a.914.914 0 0 0-.42.176.738.738 0 0 0-.177.226l.002.006v.006h.014c.17-.179.44-.34.68-.293Z" fill="#FF7C10"/><path opacity=".57" d="M16.22 14.574c.178.04.452.02.6-.085.157-.104-.119-.129-.202-.111a.783.783 0 0 1-.599-.144.555.555 0 0 1-.19-.262c-.032-.084-.043-.247-.116-.305-.137.133-.03.413.066.53.109.133.273.339.441.377Z" fill="#FFDB60"/><path opacity=".49" d="M16.576 14.477c-.043-.067-.21-.041-.282-.057-.062-.013-.236-.126-.28-.105.017.06.058.109.113.138.036.022.11.079.155.07l-.013.004c.083.019.245.03.307-.05Z" fill="#FFE182"/><path d="M15.732 14.058c.005.036.097.122.101.075-.008-.046-.054-.135-.098-.152-.034.018-.033.055-.003.077ZM16.556 14.385l-.035.005a.173.173 0 0 0 .035-.005Z" fill="#FFE182"/><path d="M16.668 14.15c-.183-.042-.308.238-.148.24l.036-.005a.173.173 0 0 1-.036.004l-.015.002c.123.113.453-.174.163-.24ZM16.246 14.165c-.124-.093-.266.076-.13.132l-.03-.001c.1.042.318-.012.16-.131Z" fill="#FFE182"/><path d="M16.195 13.457v.015c.201-.038.164-.245-.037-.22-.183.024-.146.268.037.205ZM16.877 13.577a.3.3 0 0 0-.207-.217c-.08.046.012.19.073.214l-.02-.023c.061.068.198.209.154.026Z" fill="#FF7C10"/><path opacity=".29" d="M16.455 14.111c.229-.013.141-.23.027-.338-.249-.223-.597 0-.28.217l-.015-.015c.072.063.171.155.268.136Z" fill="#FFDB60"/><path d="M13.656 13.259c.144-.142.3-.676.248-.831-.052-.155-.443-.598-.6-.647-.156-.049-.73.088-.846.184-.116.096-.273.659-.248.831.025.172.417.585.6.647.181.061.704-.043.846-.184Z" fill="#FFB600"/><path opacity=".56" d="M13.656 13.259c.137-.135.286-.63.254-.808-.24.38-.77.598-1.203.42a1.32 1.32 0 0 1-.47-.344.915.915 0 0 0-.027.269c.025.172.417.585.6.647.181.061.703-.043.846-.184Z" fill="#FFC81C"/><path d="M13.594 13.305a.347.347 0 0 0 .063-.046c.143-.142.3-.676.247-.831-.052-.155-.443-.598-.6-.647-.156-.049-.73.088-.846.184-.06.05-.133.228-.184.41a.76.76 0 0 1 .557-.065c.363.085.7.348.76.736a.904.904 0 0 1 .003.259Z" fill="#FFAB00"/><path opacity=".51" d="M13.5 13.126c.026.028.05.063.088.04a.527.527 0 0 0 .176-.21c.135-.25.128-.524-.073-.747-.198-.22-.426-.413-.735-.354a.927.927 0 0 0-.42.176.848.848 0 0 0-.212.292c0 .024.008.048.023.066l.022.013a.513.513 0 0 1 .213-.213c.249-.105.475-.017.675.16.17.15.311.351.231.58-.026.066-.049.135.012.197Z" fill="#FF9F24"/><path d="M13.694 13.022c.006.003.011.008.018.01a.044.044 0 0 0 .008.004c.017-.025.032-.051.046-.077.134-.25.128-.524-.073-.747-.198-.22-.426-.413-.735-.354a.92.92 0 0 0-.42.176.741.741 0 0 0-.177.226l.001.005c.002.002.001.005.002.007l.014-.001c.168-.179.438-.34.68-.293a.615.615 0 0 1 .377.217c.091.064.163.152.208.254.067.158.115.395.05.573Z" fill="#F5921D"/><path opacity=".57" d="M13.458 13.292c.156-.105-.12-.129-.203-.111a.784.784 0 0 1-.598-.144.559.559 0 0 1-.19-.262c-.032-.085-.043-.247-.117-.305-.136.133-.029.413.067.53.109.132.274.339.441.376.178.042.451.02.6-.084Z" fill="#FFDB60"/><path d="M13.214 13.28c-.043-.068-.212-.041-.283-.057-.062-.013-.235-.126-.28-.105.018.059.058.109.112.139.037.021.11.078.156.07l-.014.003c.084.018.246.03.309-.05ZM12.372 12.784c-.034.018-.033.055-.003.077.006.036.098.122.102.075-.009-.046-.054-.136-.099-.152Z" fill="#FFE182"/><path opacity=".44" d="m13.283 13.132-.013.012c.103-.02.173-.155.074-.238-.065.022-.29.047-.316.112-.062.154.17.173.255.114ZM12.806 12.804c-.042-.136-.345-.16-.22.004.047.124.279.187.22-.004Z" fill="#FFE182"/><path d="M13.086 12.09c-.105-.076-.284-.071-.379.013.03.092.123.07.2.059l-.078-.003a.756.756 0 0 0 .248-.029l.009-.04Z" fill="#F5921D"/><path d="M11.866 16.374c.182.062.704-.043.847-.184.143-.141.3-.676.248-.83-.052-.156-.443-.598-.6-.647-.156-.049-.73.088-.847.184-.116.096-.272.659-.247.83.024.173.417.586.6.647Z" fill="#FFB600"/><path opacity=".56" d="M11.764 15.803a1.32 1.32 0 0 1-.47-.344.919.919 0 0 0-.027.269c.025.172.417.585.6.647.181.061.703-.044.846-.185.137-.135.286-.629.254-.807-.241.38-.77.6-1.203.42Z" fill="#FFC81C"/><path d="M11.888 15.241c.363.085.699.349.758.736a.896.896 0 0 1 .004.26.318.318 0 0 0 .063-.047c.143-.141.3-.675.247-.83-.052-.156-.442-.598-.6-.647-.156-.049-.73.088-.846.184-.06.05-.132.228-.184.41a.767.767 0 0 1 .558-.066Z" fill="#FFAB00"/><path opacity=".51" d="M12.313 15.28c.17.15.312.352.231.58-.023.067-.047.135.013.198.027.027.051.063.09.04a.52.52 0 0 0 .175-.21c.134-.25.128-.524-.073-.747-.198-.22-.426-.414-.735-.354a.918.918 0 0 0-.42.176.848.848 0 0 0-.212.292c0 .024.008.047.023.066l.021.013a.517.517 0 0 1 .214-.213c.246-.106.473-.018.673.16Z" fill="#FF9F24"/><path d="M12.114 14.91a.615.615 0 0 1 .378.216c.09.065.162.153.207.255.068.158.117.395.052.573l.018.01.008.004.046-.077c.134-.252.128-.524-.074-.747-.197-.22-.426-.414-.734-.355a.92.92 0 0 0-.42.176.741.741 0 0 0-.177.226v.006l.002.007h.014c.168-.18.439-.34.68-.293Z" fill="#F5921D"/><path opacity=".57" d="M11.915 16.308c.178.041.451.02.6-.084.156-.105-.12-.13-.203-.112a.783.783 0 0 1-.598-.143.56.56 0 0 1-.19-.263c-.032-.084-.043-.247-.117-.305-.136.133-.03.413.066.531.109.132.274.339.441.376Z" fill="#FFDB60"/><path d="M11.426 15.793c.006.035.098.121.101.074-.008-.046-.053-.135-.098-.152-.034.018-.033.055-.003.078Z" fill="#FFE182"/><path opacity=".44" d="M12.4 15.838c-.064.021-.289.046-.315.112-.062.154.17.173.255.113l-.013.013c.103-.021.172-.155.073-.238ZM11.863 15.735c-.042-.135-.345-.16-.22.005.047.124.278.186.22-.005Z" fill="#FFE182"/><path d="M12.143 15.022c-.105-.076-.284-.071-.379.012.028.093.123.07.2.06l-.078-.003a.763.763 0 0 0 .248-.029l.009-.04Z" fill="#F5921D"/><path d="M12.2 11.891c-.052-.155-.442-.598-.6-.646-.156-.049-.73.088-.846.184-.116.095-.273.658-.248.83.025.172.417.585.6.647.182.062.704-.043.847-.184.143-.142.3-.676.247-.83Z" fill="#FFB600"/><path opacity=".56" d="M12.206 11.914c-.24.38-.77.598-1.203.42a1.32 1.32 0 0 1-.47-.344.914.914 0 0 0-.027.269c.025.172.417.585.6.646.181.062.704-.042.847-.184.136-.135.286-.628.253-.807Z" fill="#FFC81C"/><path d="M12.2 11.891c-.052-.155-.442-.598-.6-.646-.156-.049-.73.088-.846.184-.06.05-.133.227-.184.41a.757.757 0 0 1 .556-.066c.363.085.7.349.76.736a.9.9 0 0 1 .004.26.332.332 0 0 0 .062-.047c.144-.142.3-.676.248-.83Z" fill="#FFAB00"/><path opacity=".51" d="M11.986 11.672c-.198-.22-.427-.414-.735-.354a.924.924 0 0 0-.42.176.849.849 0 0 0-.212.292c0 .024.008.048.023.066l.021.013a.515.515 0 0 1 .214-.213c.248-.105.475-.018.675.16.169.15.311.351.23.58-.023.066-.046.134.014.198.026.027.05.062.088.04a.528.528 0 0 0 .176-.21c.133-.252.127-.524-.074-.748Z" fill="#FF9F24"/><path d="M11.988 11.675c-.197-.22-.426-.414-.734-.355a.921.921 0 0 0-.42.176.738.738 0 0 0-.178.227l.002.005c0 .002 0 .004.002.007h.013c.169-.18.44-.34.68-.293.153.021.28.103.378.216.091.064.163.152.207.254.069.158.117.395.052.573l.018.01.008.004c.017-.025.032-.051.046-.077.133-.251.128-.524-.074-.747Z" fill="#F5921D"/><path opacity=".57" d="M11.552 12.644a.784.784 0 0 1-.599-.144.558.558 0 0 1-.19-.263c-.032-.084-.043-.247-.117-.305-.136.133-.029.414.067.531.109.132.274.339.441.376.178.041.452.02.6-.084.156-.105-.119-.13-.202-.111Z" fill="#FFDB60"/><path d="M11.227 12.686c-.062-.014-.235-.126-.28-.106.018.06.058.11.112.14.037.021.11.077.156.069l-.013.004c.083.018.245.029.308-.05-.043-.068-.211-.042-.283-.057ZM10.668 12.246c-.034.018-.032.055-.003.078.006.036.098.121.102.075-.009-.046-.054-.135-.099-.153Z" fill="#FFE182"/><path opacity=".44" d="M11.64 12.369c-.065.021-.29.046-.316.112-.062.154.17.173.255.114l-.013.012c.103-.021.173-.155.074-.238ZM11.102 12.267c-.042-.136-.345-.16-.22.004.047.124.279.186.22-.004Z" fill="#FFE182"/><path d="M11.382 11.553c-.105-.076-.284-.071-.379.013.03.092.123.069.2.059l-.077-.003a.765.765 0 0 0 .247-.029l.009-.04Z" fill="#F5921D"/><path d="M12.337 14.482c.143-.141.3-.676.248-.831-.053-.155-.443-.598-.6-.647-.156-.048-.731.088-.847.184-.116.096-.273.66-.248.831.025.172.418.585.6.647.182.061.703-.043.847-.184Z" fill="#FFB600"/><path opacity=".56" d="M12.337 14.482c.137-.135.286-.629.253-.808-.24.38-.77.599-1.203.42a1.32 1.32 0 0 1-.47-.343.919.919 0 0 0-.026.268c.024.172.417.585.6.647.181.061.702-.043.846-.184Z" fill="#FFC81C"/><path d="M12.274 14.528a.356.356 0 0 0 .063-.046c.143-.141.3-.676.248-.831-.053-.155-.443-.598-.6-.647-.156-.048-.731.088-.847.184-.06.05-.132.228-.183.411a.76.76 0 0 1 .557-.066c.363.085.699.349.759.736a.89.89 0 0 1 .003.26Z" fill="#FFAB00"/><path opacity=".51" d="M12.18 14.35c.026.027.05.062.088.04a.52.52 0 0 0 .176-.21c.134-.251.128-.524-.073-.747-.198-.22-.426-.414-.735-.355a.922.922 0 0 0-.42.176.846.846 0 0 0-.212.292c0 .024.008.048.023.067l.022.012a.514.514 0 0 1 .213-.213c.249-.105.476-.017.675.16.169.15.311.352.23.58-.024.067-.048.135.012.198Z" fill="#FF9F24"/><path d="m12.375 14.245.018.01.008.004a1.23 1.23 0 0 0 .046-.077c.135-.25.128-.524-.073-.747-.198-.22-.426-.414-.735-.354a.92.92 0 0 0-.42.176.74.74 0 0 0-.177.226l.002.005v.007h.014c.169-.179.439-.34.68-.292.152.02.28.103.378.216.09.064.162.152.207.254.068.158.116.394.052.572Z" fill="#F5921D"/><path opacity=".57" d="M12.139 14.515c.155-.104-.12-.129-.203-.111a.784.784 0 0 1-.599-.144.556.556 0 0 1-.19-.262c-.031-.084-.043-.247-.116-.305-.136.133-.03.413.066.53.11.133.274.339.442.377.177.04.45.02.6-.085Z" fill="#FFDB60"/><path d="M11.894 14.503c-.043-.067-.21-.041-.282-.057-.063-.013-.236-.126-.28-.105.017.06.057.109.111.139.037.021.111.078.156.07l-.013.003c.083.018.247.03.308-.05ZM11.052 14.006c-.034.018-.032.055-.002.078.005.036.097.121.1.074-.007-.045-.053-.134-.098-.152Z" fill="#FFE182"/><path opacity=".44" d="m11.964 14.355-.014.012c.104-.02.173-.155.074-.238-.064.022-.29.047-.315.112-.062.155.17.174.255.114ZM11.486 14.027c-.042-.136-.344-.16-.22.005.047.123.28.186.22-.005Z" fill="#FFE182"/><path d="M11.766 13.314c-.105-.077-.284-.072-.378.012.028.093.122.07.2.06l-.078-.004a.752.752 0 0 0 .248-.029l.008-.04Z" fill="#F5921D"/><path opacity=".63" d="m14.85 11.726-.027.024a.302.302 0 0 0 .027-.024ZM14.859 11.717l-.01.009.01-.009Z" fill="#FF7C10"/><path opacity=".25" d="M14.488 11.894c.33-.117-.146-.446-.285-.097.054.108.252.132.373.084l-.088.013ZM13.81 11.45c-.03.064-.003.092.03.142l-.015-.053c.017.068.088.137.167.175a.497.497 0 0 0 .066-.063c-.068-.086-.144-.188-.249-.201Z" fill="#FF7C10"/><path opacity=".42" d="M13.911 14.634c.028-.4-.3.029-.429.063-.274.073-.339-.433-.568-.356-.145.056.021.23.07.258v-.035c.039.428.888.618.927.07Z" fill="#FFE182"/><path opacity=".56" d="m8.74 11.884.006-.023-.026.025a.131.131 0 0 1 .02-.002Z" fill="#FFC81C"/><path opacity=".57" d="M16.945 15.235c.077-.001.13-.023.203-.03.148-.013.197.13.317.184.07.03.126.021.157-.013-.114-.01-.157.013-.308-.147-.103-.11-.301-.049-.444-.104-.11-.043-.178-.013-.293-.087-.024-.015-.052-.14-.065-.166.01.086-.026.13.062.223.13.142.24.142.37.14Z" fill="#FFDB60"/><path d="m17.393 15.239.006-.006c.046.127.235.06.107-.04-.008-.007-.129-.08-.12-.082-.064.012-.031.1.007.128ZM17.309 15.134c0-.068-.115-.101-.172-.113-.094-.02-.19-.004-.284-.014a.61.61 0 0 1-.157-.031c-.048-.018-.104-.044-.105.034-.001.082.191.13.263.136.075.005.249-.05.295-.019l-.02-.01c.056-.006.13.038.18.017Z" fill="#FFE182"/><path d="M11.146 15.37c-.192-.002-.63-.007-.918.006a1.571 1.571 0 0 0-.118-.768 9.8 9.8 0 0 1 1.022-.064c.079.1.136.212.13.36-.008.157-.072.313-.117.466Z" fill="#EF8506"/><path opacity=".44" d="M10 13.101s.749-.16.699-.057c-.05.104-.211.229-.207.484.004.255.478.826.33.843-.149.018-.541-.615-.464-.933.077-.318.077-.318-.112-.27-.188.05-.246-.067-.246-.067ZM10.107 11.111c-.076.027-.269.112-.161.125.107.014.318.077.43.055.112-.022.215.028.188-.049-.026-.076-.457-.13-.457-.13ZM11.881 9.771s-.546.003-.56.111c-.014.108.277.108.43.055.152-.054.417-.13.31-.143l-.18-.023Z" fill="#FFE182"/></g><path style="mix-blend-mode:screen" fill-rule="evenodd" clip-rule="evenodd" d="M9.582 15.304c-.328-1.23 1.58-2.805 4.26-3.52 2.124-.566 4.098-.422 4.987.276-.005 1.255-1.942 2.743-4.582 3.447-1.76.47-3.424.48-4.523.114a1.103 1.103 0 0 1-.142-.317Z" fill="url(#p)"/><path style="mix-blend-mode:screen" fill-rule="evenodd" clip-rule="evenodd" d="M10.987 15.194c-.28-1.049 1.348-2.393 3.635-3.004 1.748-.466 3.374-.369 4.17.17-.279 1.184-2.114 2.497-4.545 3.146-.947.253-1.865.373-2.684.373-.3-.176-.501-.406-.576-.685Z" fill="url(#q)"/><path style="mix-blend-mode:screen" fill-rule="evenodd" clip-rule="evenodd" d="M14.247 15.506c2.431-.648 4.266-1.961 4.545-3.146.022-.092.035-.187.037-.283.107.225.196.459.264.698.495 1.752-.102 3.625-1.374 4.894-1.271 1.268-3.146 1.861-4.896 1.361a4.273 4.273 0 0 1-1.86-1.093c-.677-.678-1.06-1.468-1.246-2.32l.008.003c.508.17 1.136.258 1.838.259.819 0 1.738-.12 2.684-.373Z" fill="url(#r)"/><path style="mix-blend-mode:screen" fill-rule="evenodd" clip-rule="evenodd" d="m18.793 12.36.002-.009-.002.01Zm-4.545 3.147c-.947.252-1.866.372-2.684.372h-.004c.185.43.45.821.78 1.151.422.422.943.728 1.516.89 1.426.408 2.954-.076 3.99-1.11 1.037-1.034 1.523-2.56 1.12-3.987a3.55 3.55 0 0 0-.216-.568c0 .025-.002.05-.004.076l.047.03c-.28 1.185-2.114 2.497-4.545 3.147v-.001Z" fill="url(#s)"/><path fill-rule="evenodd" clip-rule="evenodd" d="M13.222 16.112c2.228-.367 4.133-1.578 4.029-1.926-.698.474-1.59.896-2.6 1.205a6.664 6.664 0 0 1-1.57.382c-.158.02-.313.035-.47.044-1.498.168-2.793-.018-3.538-.502-.081-.045-.113-.075-.113-.07-.002.032 1.225 1.37 4.261.867Z" fill="#fff" style="mix-blend-mode:soft-light"/><path fill-rule="evenodd" clip-rule="evenodd" d="m6.861 10.382-.653-.674a2.83 2.83 0 0 0 .26-.116c.087-.045.175-.094.262-.147l.535.55c.987 1.028 1.37 1.85 1.245 3.326-.166 1.95.09 3.848 1.53 5.291a4.811 4.811 0 0 0 2.092 1.229c1.97.563 4.083-.107 5.515-1.536 1.432-1.428 2.107-3.539 1.549-5.511a4.807 4.807 0 0 0-1.224-2.094c-1.44-1.444-3.336-1.691-5.288-1.543-.256.02-.465.109-.597.276-.396.505-.604 1.218-1.3 1.799.363-.475.84-1.463.722-1.926-.029-.113-.087-.182-.175-.216-.727-.16-1.309-.544-1.974-1.185l-.548-.537c.053-.087.102-.174.147-.262.043-.085.082-.171.117-.26l.673.655c.91.876 1.571 1.206 2.889 1.097 2.157-.177 4.182.154 5.73 1.705 2.23 2.235 2.084 5.995-.326 8.4-2.41 2.403-6.17 2.54-8.399.305-1.547-1.551-1.874-3.578-1.691-5.734.112-1.318-.216-1.98-1.09-2.892Z" fill="url(#t)"/><path fill-rule="evenodd" clip-rule="evenodd" d="M7.652 10.468c.498.873.59 1.45.671 1.993.092.613.122 1.217.156 2.35.122-1.167.321-1.955.239-2.527-.047-.322-.397-1.027-1.066-1.816Z" fill="url(#u)"/><path fill-rule="evenodd" clip-rule="evenodd" d="M6.874 10.392c.24.24.93-.356 1.542-1.333.611-.977.913-1.964.673-2.204l-.008-.008c-.194.483-.619 1.093-1.198 1.671-.584.583-1.199 1.008-1.684 1.198l.675.676Z" fill="url(#v)" fill-opacity=".8" style="mix-blend-mode:screen" opacity=".5"/><path fill-rule="evenodd" clip-rule="evenodd" d="M5.388 9.995c-.383-.252-.845-.811-1.07-1.166l1.939-1.94 1.945-1.934c.35.223.915.69 1.164 1.073.283.435-.296 1.578-1.348 2.626-1.05 1.05-2.196 1.625-2.63 1.34ZM5.03 8.558c.24.274.038.077.294.333.949.946 3.882-1.98 2.937-2.93-.255-.257-.059-.055-.332-.295L6.476 7.11 5.03 8.558Z" fill="url(#w)"/><path fill-rule="evenodd" clip-rule="evenodd" d="M5.776 8.833c.242.167.933-.198 1.58-.843.624-.622.987-1.287.862-1.55-.036-.078-.25-.346-.528-.677L5.128 8.318c.24.205.468.391.648.515Z" fill="url(#x)"/><path style="mix-blend-mode:screen" fill-rule="evenodd" clip-rule="evenodd" d="M15.36 19.989c1.724-.304 3.768-2.171 3.975-3.967-.598 1.636-2.367 3.34-3.975 3.967Z" fill="url(#y)"/><path fill-rule="evenodd" clip-rule="evenodd" d="M13.479 20.04c-2.082-.264-3.612-1.424-4.59-3.192.648 2.18 2.439 3.46 4.59 3.191Z" fill="url(#z)"/><path style="mix-blend-mode:screen" fill-rule="evenodd" clip-rule="evenodd" d="M9.118 6.624c-.032-.434-.865-1.11-1.214-1.373l.298-.296c.35.223.915.69 1.164 1.073.261.403-.215 1.411-1.12 2.39.41-.502.913-1.246.872-1.793Z" fill="url(#A)"/><path fill-rule="evenodd" clip-rule="evenodd" d="M5.637 6.267c-1.072 1.07-1.662 2.217-1.318 2.562.344.345 1.492-.242 2.565-1.312C7.956 6.447 8.546 5.3 8.202 4.955c-.345-.344-1.493.243-2.565 1.312Z" fill="url(#B)"/><path fill-rule="evenodd" clip-rule="evenodd" d="M4.975 8.85c.525-.11 1.295-.597 2.019-1.32a7.26 7.26 0 0 0 .665-.759c.181.136.418.093.554-.112a.617.617 0 0 0-.044-.716c.2-.433.236-.784.064-.957a.34.34 0 0 0-.036-.03c.262.365-.364 1.489-1.436 2.558-.633.632-1.283 1.107-1.786 1.337Z" fill="url(#C)"/><path fill-rule="evenodd" clip-rule="evenodd" d="M4.913 8.143c.26.179 1-.212 1.694-.904.668-.667 1.058-1.379.924-1.662-.107-.227-1.25-1.586-1.74-2.058l-2.373 3.44c.505.411.978.827 1.495 1.184Z" fill="url(#D)"/><path style="mix-blend-mode:screen" fill-rule="evenodd" clip-rule="evenodd" d="M4.816 7.846c.234.159.912-.207 1.553-.846.617-.616.981-1.268.863-1.524-.094-.204-1.094-1.403-1.533-1.825L3.537 6.786c.453.367.815.744 1.279 1.06Z" fill="url(#E)"/><path style="mix-blend-mode:screen" fill-rule="evenodd" clip-rule="evenodd" d="M4.707 5.316c.91.912 1.654 1.298 2.026.785.372-.513-.18-1.438-1.088-2.35l-.938 1.565Z" fill="url(#F)"/><path fill-rule="evenodd" clip-rule="evenodd" d="M6.206 5.827c-.198.096-.314.262-.252.494.062.232.242.415.424.425.181.01.3-.323.267-.6-.033-.277-.24-.415-.439-.319Z" fill="url(#G)"/><path fill-rule="evenodd" clip-rule="evenodd" d="M4.412 7.038c-.058.184.108.495.338.564.231.069.47-.097.541-.253.07-.156-.103-.37-.324-.458-.222-.088-.495-.037-.555.147Z" fill="url(#H)"/><path fill-rule="evenodd" clip-rule="evenodd" d="M4.242 4.87c.696-.913 1.355-1.558 1.596-1.317.125.125.119.46-.012.885.167.096.288.397.17.673-.121.283-.421.363-.61.289a5.355 5.355 0 0 1-.244.371c-.7.974-1.436 1.458-1.724 1.188-.24-.241.128-1.177.824-2.09Z" fill="#FFB3B9" style="mix-blend-mode:screen" opacity=".25"/><path fill-rule="evenodd" clip-rule="evenodd" d="M4.192 4.82c-.668.94-1.015 1.897-.774 2.139.24.24.977-.326 1.646-1.266.668-.94 1.016-1.899.774-2.14-.241-.241-.977.326-1.646 1.266Z" fill="url(#I)"/><path style="mix-blend-mode:screen" fill-rule="evenodd" clip-rule="evenodd" d="M4.43 4.596c-.55.773-.834 1.561-.637 1.76.198.198.804-.268 1.354-1.042.55-.773.835-1.56.637-1.76-.198-.197-.804.269-1.354 1.042Z" fill="url(#J)"/><path fill-rule="evenodd" clip-rule="evenodd" d="M4.825 4.248c-.214.27-.328.548-.256.62.072.072.304-.088.518-.358.214-.27.328-.548.255-.62-.073-.073-.304.087-.517.358Z" fill="url(#K)"/><path fill-rule="evenodd" clip-rule="evenodd" d="M4.522 5.434c-.153.194-.226.403-.161.467s.24-.04.394-.233c.153-.194.226-.402.16-.467-.065-.064-.24.04-.393.233Z" fill="url(#L)"/><path fill-rule="evenodd" clip-rule="evenodd" d="M3.66 6.046c-.166.23-.242.474-.169.547.074.073.269-.052.436-.281.167-.229.243-.474.17-.547-.074-.073-.27.052-.436.281Z" fill="url(#M)"/><defs><radialGradient id="p" cx="0" cy="0" r="1" gradientUnits="userSpaceOnUse" gradientTransform="rotate(165.329 6.863 9.06) scale(9.39156)"><stop stop-color="#C3780A"/><stop offset="1"/></radialGradient><radialGradient id="a" cx="0" cy="0" r="1" gradientUnits="userSpaceOnUse" gradientTransform="matrix(6.03401 -1.60914 1.60913 6.034 13.627 11.01)"><stop stop-color="#fff"/><stop offset="1" stop-color="#C38600"/></radialGradient><radialGradient id="d" cx="0" cy="0" r="1" gradientUnits="userSpaceOnUse" gradientTransform="rotate(-14.932 60.635 -48.726) scale(5.9774 5.97741)"><stop offset=".11" stop-color="#FF8110"/><stop offset="1" stop-color="#FFE292"/></radialGradient><radialGradient id="e" cx="0" cy="0" r="1" gradientUnits="userSpaceOnUse" gradientTransform="rotate(165.329 6.94 7.847) scale(10.0054 10.0053)"><stop stop-color="#E24013"/><stop offset=".61" stop-color="#FF8023"/><stop offset=".89" stop-color="#F9ED29"/></radialGradient><radialGradient id="f" cx="0" cy="0" r="1" gradientUnits="userSpaceOnUse" gradientTransform="rotate(165.329 6.94 7.847) scale(10.0054)"><stop stop-color="#E24013"/><stop offset=".61" stop-color="#FF8023"/><stop offset=".89" stop-color="#F9ED29"/></radialGradient><radialGradient id="h" cx="0" cy="0" r="1" gradientUnits="userSpaceOnUse" gradientTransform="matrix(-2.42264 -2.5081 2.31642 -2.23749 10.224 10.855)"><stop stop-color="#fff"/><stop offset="1" stop-color="#fff" stop-opacity="0"/></radialGradient><radialGradient id="i" cx="0" cy="0" r="1" gradientUnits="userSpaceOnUse" gradientTransform="matrix(-1.41048 -1.49986 1.37465 -1.29274 9.647 9.46)"><stop stop-color="#fff"/><stop offset="1" stop-color="#fff" stop-opacity="0"/></radialGradient><radialGradient id="j" cx="0" cy="0" r="1" gradientUnits="userSpaceOnUse" gradientTransform="rotate(-160.717 9.877 4.612) scale(7.35847 6.92646)"><stop stop-color="#fff"/><stop offset="1" stop-color="#fff" stop-opacity="0"/></radialGradient><radialGradient id="k" cx="0" cy="0" r="1" gradientUnits="userSpaceOnUse" gradientTransform="matrix(-8.42707 -3.75797 3.58935 -8.04896 17.283 12.592)"><stop stop-color="#fff"/><stop offset="1" stop-color="#fff" stop-opacity="0"/></radialGradient><radialGradient id="l" cx="0" cy="0" r="1" gradientUnits="userSpaceOnUse" gradientTransform="matrix(-.89843 -1.01718 .91294 -.80637 9.224 8.966)"><stop stop-color="#fff"/><stop offset="1" stop-color="#fff" stop-opacity="0"/></radialGradient><radialGradient id="m" cx="0" cy="0" r="1" gradientUnits="userSpaceOnUse" gradientTransform="matrix(-6.38274 1.67103 -1.67103 -6.38275 13.309 14.983)"><stop stop-color="#FAA345"/><stop offset="1"/></radialGradient><radialGradient id="n" cx="0" cy="0" r="1" gradientUnits="userSpaceOnUse" gradientTransform="rotate(-14.932 60.635 -48.725) scale(5.9774)"><stop offset=".11" stop-color="#FF8110"/><stop offset="1" stop-color="#FFE292"/></radialGradient><radialGradient id="c" cx="0" cy="0" r="1" gradientUnits="userSpaceOnUse" gradientTransform="rotate(-14.932 88.099 -58.768) scale(3.45294)"><stop stop-color="#fff"/><stop offset="1" stop-color="#EAA51D"/></radialGradient><radialGradient id="q" cx="0" cy="0" r="1" gradientUnits="userSpaceOnUse" gradientTransform="matrix(-7.89469 2.06686 -2.06686 -7.89468 17.785 15.916)"><stop stop-color="#E3B560"/><stop offset="1"/></radialGradient><radialGradient id="r" cx="0" cy="0" r="1" gradientUnits="userSpaceOnUse" gradientTransform="rotate(165.329 6.328 7.23) scale(6.67011 6.67007)"><stop stop-color="#FAA345"/><stop offset="1" stop-color="#ED1C24"/></radialGradient><radialGradient id="s" cx="0" cy="0" r="1" gradientUnits="userSpaceOnUse" gradientTransform="rotate(-14.932 60.929 -55.207) scale(4.31405 4.31404)"><stop stop-color="#FFA91F"/><stop offset="1" stop-color="#681B00"/></radialGradient><radialGradient id="t" cx="0" cy="0" r="1" gradientUnits="userSpaceOnUse" gradientTransform="rotate(165.329 5.963 4.942) scale(21.7063)"><stop offset=".1" stop-color="#FFE5AB"/><stop offset=".8" stop-color="#F79020"/></radialGradient><radialGradient id="b" cx="0" cy="0" r="1" gradientUnits="userSpaceOnUse" gradientTransform="rotate(-6.622 2726.785 -7380.255) scale(1031.24 891.651)"><stop stop-color="#fff"/><stop offset="1" stop-color="#C38600"/></radialGradient><radialGradient id="v" cx="0" cy="0" r="1" gradientUnits="userSpaceOnUse" gradientTransform="matrix(-2.12375 -2.12664 1.98084 -1.97814 9.29 10.073)"><stop stop-color="#fff"/><stop offset="1" stop-color="#fff" stop-opacity="0"/></radialGradient><radialGradient id="w" cx="0" cy="0" r="1" gradientUnits="userSpaceOnUse" gradientTransform="matrix(7.39303 -1.97156 1.97155 7.39302 4.724 5.867)"><stop stop-color="#FFFBCA"/><stop offset="1" stop-color="#D38426"/></radialGradient><radialGradient id="A" cx="0" cy="0" r="1" gradientUnits="userSpaceOnUse" gradientTransform="matrix(-2.885 .7553 -.7553 -2.88497 7.204 6.92)"><stop/><stop offset="1" stop-color="#fff"/></radialGradient><radialGradient id="B" cx="0" cy="0" r="1" gradientUnits="userSpaceOnUse" gradientTransform="rotate(-6.622 1386.576 -11604.372) scale(1004.92 830.755)"><stop stop-color="#FFFBCA"/><stop offset="1" stop-color="#D38426"/></radialGradient><radialGradient id="E" cx="0" cy="0" r="1" gradientUnits="userSpaceOnUse" gradientTransform="rotate(165.329 2.643 2.295) scale(3.74839)"><stop stop-color="#DF7372"/><stop offset="1"/></radialGradient><radialGradient id="F" cx="0" cy="0" r="1" gradientUnits="userSpaceOnUse" gradientTransform="matrix(315.02123 -36.57184 46.23717 398.27607 12176 -1447.91)"><stop stop-color="#DF7372"/><stop offset="1"/></radialGradient><radialGradient id="J" cx="0" cy="0" r="1" gradientUnits="userSpaceOnUse" gradientTransform="matrix(529.31498 -61.4499 68.9071 593.54956 13913.3 -1844.65)"><stop stop-color="#DF7372"/><stop offset="1"/></radialGradient><linearGradient id="x" x1="6.522" y1="7.14" x2="7.442" y2="7.941" gradientUnits="userSpaceOnUse"><stop stop-color="#6F0E87"/><stop offset=".07" stop-color="#75138E"/><stop offset=".16" stop-color="#851FA1"/><stop offset=".27" stop-color="#9E34C0"/><stop offset=".37" stop-color="#BA4AE2"/><stop offset=".5" stop-color="#BC4DDF"/><stop offset=".59" stop-color="#C256D7"/><stop offset=".68" stop-color="#CD66C8"/><stop offset=".76" stop-color="#DD7DB3"/><stop offset=".83" stop-color="#F19998"/><stop offset=".87" stop-color="#FFAE85"/></linearGradient><linearGradient id="C" x1="7.427" y1="5.055" x2="6.396" y2="11.774" gradientUnits="userSpaceOnUse"><stop stop-color="#fff"/><stop offset="1" stop-color="#F7931E"/></linearGradient><linearGradient id="D" x1="3.279" y1="6.437" x2="7.467" y2="5.32" gradientUnits="userSpaceOnUse"><stop stop-color="#BF4C8A"/><stop offset=".1" stop-color="#BF4C91"/><stop offset=".25" stop-color="#BE4BA4"/><stop offset=".43" stop-color="#BC4BC3"/><stop offset=".58" stop-color="#BA4AE2"/><stop offset=".69" stop-color="#BC4DDF"/><stop offset=".77" stop-color="#C256D7"/><stop offset=".84" stop-color="#CD66C8"/><stop offset=".9" stop-color="#DD7DB3"/><stop offset=".96" stop-color="#F19998"/><stop offset="1" stop-color="#FFAE85"/></linearGradient><linearGradient id="y" x1="19.468" y1="15.787" x2="15.434" y2="19.899" gradientUnits="userSpaceOnUse"><stop stop-color="#fff"/><stop offset="1"/></linearGradient><linearGradient id="z" x1="9.671" y1="16.114" x2="10.248" y2="22.38" gradientUnits="userSpaceOnUse"><stop stop-color="#fff"/><stop offset="1" stop-color="#F7931E"/></linearGradient><linearGradient id="G" x1="6.276" y1="5.851" x2="6.34" y2="7.214" gradientUnits="userSpaceOnUse"><stop stop-color="#550768"/><stop offset=".08" stop-color="#5A0B6F"/><stop offset=".19" stop-color="#6A1582"/><stop offset=".33" stop-color="#8326A2"/><stop offset=".47" stop-color="#A53ECD"/><stop offset=".58" stop-color="#C050EF"/></linearGradient><linearGradient id="H" x1="4.395" y1="6.743" x2="5.681" y2="7.651" gradientUnits="userSpaceOnUse"><stop stop-color="#550768"/><stop offset=".33" stop-color="#8326A2"/><stop offset=".47" stop-color="#A53ECD"/><stop offset=".58" stop-color="#C050EF"/></linearGradient><linearGradient id="I" x1="5.228" y1="4.323" x2="3.093" y2="7.642" gradientUnits="userSpaceOnUse"><stop stop-color="#761EA5"/><stop offset=".12" stop-color="#7D22AB"/><stop offset=".3" stop-color="#902FBC"/><stop offset=".51" stop-color="#AF43D8"/><stop offset=".58" stop-color="#BA4AE2"/><stop offset=".69" stop-color="#BC4DDF"/><stop offset=".77" stop-color="#C256D7"/><stop offset=".84" stop-color="#CD66C8"/><stop offset=".9" stop-color="#DD7DB3"/><stop offset=".96" stop-color="#F19998"/><stop offset="1" stop-color="#FFAE85"/></linearGradient><linearGradient id="M" x1="3.275" y1="6.646" x2="4.341" y2="6.027" gradientUnits="userSpaceOnUse"><stop stop-color="#550768"/><stop offset=".47" stop-color="#A53ECD"/><stop offset=".58" stop-color="#C050EF"/><stop offset=".9" stop-color="#DE7DBC"/><stop offset=".96" stop-color="#EF96A0"/><stop offset="1" stop-color="#FFAE85"/></linearGradient><linearGradient id="K" x1="5.338" y1="3.775" x2="4.355" y2="4.033" gradientUnits="userSpaceOnUse"><stop stop-color="#550768"/><stop offset=".08" stop-color="#5A0B6F"/><stop offset=".19" stop-color="#6A1582"/><stop offset=".33" stop-color="#8326A2"/><stop offset=".47" stop-color="#A53ECD"/><stop offset=".58" stop-color="#C050EF"/><stop offset=".68" stop-color="#C253EC"/><stop offset=".76" stop-color="#C75BE3"/><stop offset=".83" stop-color="#D169D3"/><stop offset=".9" stop-color="#DE7DBC"/><stop offset=".96" stop-color="#EF96A0"/><stop offset="1" stop-color="#FFAE85"/></linearGradient><linearGradient id="L" x1="3.98" y1="5.355" x2="5.026" y2="5.52" gradientUnits="userSpaceOnUse"><stop offset=".261" stop-color="#550768"/><stop offset=".52" stop-color="#A53ECD"/><stop offset=".686" stop-color="#C050EF"/><stop offset=".9" stop-color="#DE7DBC"/><stop offset=".96" stop-color="#EF96A0"/><stop offset="1" stop-color="#FFAE85"/></linearGradient><linearGradient id="u" x1="7.738" y1="9.691" x2="7.564" y2="17.12" gradientUnits="userSpaceOnUse"><stop stop-color="#fff"/><stop offset="1" stop-color="#F7931E"/></linearGradient></defs></svg>