<svg width="24" height="24" viewBox="0 0 24 24" fill="none" xmlns="http://www.w3.org/2000/svg">
<path d="M2.90982 4.14813C3.05886 3.96081 3.21678 3.78057 3.3747 3.60033C3.38178 3.59139 3.3978 3.58959 3.40488 3.58065C3.4191 3.56283 3.4422 3.55209 3.45636 3.53421L3.47058 3.51639C3.58068 3.41463 3.6978 3.30387 3.83286 3.20739C4.3107 2.84463 4.80661 2.56905 5.32951 2.38773C7.00669 1.79889 8.87365 2.16177 10.3377 3.54393C12.382 5.46015 12.1989 8.54709 10.567 10.5989C8.50489 13.6575 4.96105 17.9249 9.86779 21.7476C10.75 22.435 11.4045 23.0017 14.1835 23.8048C12.366 24.1396 10.6807 24.0354 8.80489 23.5563C7.47805 22.8074 5.39197 21.2039 4.68223 19.038C3.60954 15.7538 6.57079 10.844 8.00191 8.95299C9.96679 6.33597 6.78745 3.50295 4.44672 6.66573C3.2232 8.31399 1.08264 12.9782 1.82652 16.4379C2.26146 18.3999 2.84118 19.83 5.13979 21.7945C4.71354 21.543 4.2996 21.2577 3.89808 20.9385C-1.44258 15.9636 -0.822971 8.27157 2.90982 4.14813Z" fill="url(#paint0_linear_14_310)"/>
<path d="M21.0902 19.8519C20.9412 20.0392 20.7833 20.2195 20.6254 20.3997C20.6183 20.4087 20.6023 20.4105 20.5952 20.4194C20.581 20.4372 20.5579 20.448 20.5437 20.4658L20.5295 20.4837C20.4194 20.5854 20.3023 20.6962 20.1672 20.7927C19.6894 21.1554 19.1935 21.431 18.6706 21.6123C16.9934 22.2012 15.1264 21.8383 13.6624 20.4561C11.6181 18.5399 11.8011 15.453 13.433 13.4012C15.4952 10.3425 19.039 6.07513 14.1323 2.2524C13.25 1.56504 12.5956 0.998344 9.81653 0.195244C11.634 -0.139581 13.3193 -0.0354267 15.1951 0.443704C16.522 1.19262 18.6081 2.79619 19.3178 4.96201C20.3905 8.24629 17.4293 13.1561 15.9982 15.0471C14.0333 17.6641 17.2126 20.4971 19.5533 17.3343C20.7769 15.6861 22.9174 11.0218 22.1735 7.56211C21.7386 5.60017 21.1589 4.17007 18.8603 2.20554C19.2865 2.45706 19.7005 2.74236 20.102 3.06157C25.4426 8.03641 24.823 15.7285 21.0902 19.8519Z" fill="url(#paint1_linear_14_310)"/>
<defs>
<linearGradient id="paint0_linear_14_310" x1="1.70758e-06" y1="12" x2="24" y2="12" gradientUnits="userSpaceOnUse">
<stop stop-color="#0082FA"/>
<stop offset="1" stop-color="#00F2FE"/>
</linearGradient>
<linearGradient id="paint1_linear_14_310" x1="3.991e-05" y1="12" x2="24.0001" y2="12" gradientUnits="userSpaceOnUse">
<stop stop-color="#0082FA"/>
<stop offset="1" stop-color="#00F2FE"/>
</linearGradient>
</defs>
</svg>
