<svg width="24" height="24" viewBox="0 0 24 24" fill="none" xmlns="http://www.w3.org/2000/svg">
<circle cx="12" cy="12" r="12" fill="#172852"/>
<path d="M10.3316 16.3337C10.7816 17.9987 12.3962 19.2686 13.2116 19.2162C13.2402 19.2144 16.3043 18.6431 17.9816 15.8412C19.2866 13.6603 18.8425 11.5547 17.0672 11.5088C16.4285 11.5554 9.4746 13.1621 10.3321 16.3342L10.3316 16.3337ZM16.9016 5.64039L16.8998 5.63904L16.9023 5.63746C15.7841 4.68634 14.4199 4.07048 12.9669 3.86085C11.5139 3.65123 10.0313 3.85636 8.6898 4.45261C8.52104 4.52329 8.35664 4.60398 8.1975 4.69426C8.08815 4.75254 7.9788 4.81036 7.8726 4.87426L7.89848 4.88214C7.58447 5.09597 7.30681 5.35881 7.0761 5.66064C4.8387 8.61444 12.3344 10.7625 16.3425 10.769C18.1855 12.0925 18.703 7.04281 16.9016 5.64039Z" fill="#0E3CA5"/>
<path d="M9.14251 5.7C8.11268 7.248 4.68256 8.33857 4.11848 8.16892L4.11466 8.16172C4.13791 8.11492 4.16138 8.0685 4.18508 8.02245C4.77002 6.89579 5.60697 5.91925 6.63083 5.16878C6.84188 5.01398 7.06036 4.8693 7.28626 4.73475C7.63383 4.54277 8.02323 4.43908 8.42026 4.4328C9.94778 4.4625 9.15016 5.68807 9.14251 5.7ZM8.29741 16.6381C8.37143 17.1244 8.29561 19.0456 8.19616 19.207C8.11043 19.2124 7.93201 19.2232 7.41518 18.9331C7.1442 18.7787 6.88232 18.6087 6.63083 18.4242C5.25509 17.418 4.22635 16.0089 3.68716 14.392C3.54996 13.9797 3.44591 13.5572 3.37598 13.1284C3.23256 12.2461 3.23256 11.3464 3.37598 10.4641C3.44593 10.0353 3.54999 9.6128 3.68716 9.20055C3.71461 9.1182 3.74341 9.03607 3.77333 8.95485C4.36531 9.74235 5.05043 10.4547 5.63273 11.2498C6.18736 12.0072 6.95033 13.2415 7.10558 13.5052C8.06948 15.1428 8.22316 16.153 8.29673 16.6386L8.29741 16.6381ZM19.6925 11.7961C19.6938 12.8286 19.4998 13.8521 19.1208 14.8125C18.1533 15.8522 11.6321 13.2931 11.5682 13.2652C10.6761 12.8743 7.96126 11.685 7.71623 9.8175C7.36501 7.12897 12.8168 5.25608 15.213 5.18498C15.5003 5.18835 16.3747 5.1987 16.8845 5.61248C17.7675 6.38245 18.475 7.33285 18.9594 8.39954C19.4438 9.46623 19.6938 10.6244 19.6925 11.7959V11.7961ZM15.2778 19.0801C14.5668 19.4117 13.7843 19.1701 13.9877 18.4777C14.378 17.1484 17.787 15.7854 18.5399 15.7102C18.6328 15.7012 18.6722 15.7645 18.631 15.8367C17.8465 17.2158 16.683 18.341 15.2785 19.0789" fill="#5493F7"/>
<path d="M6.90083 20.3824C6.89079 20.5325 6.94007 20.6806 7.03807 20.7947C7.13607 20.9089 7.27495 20.98 7.42486 20.9928C14.3324 21.0401 21 20.7228 21 19.6878C21 16.5549 6.90083 20.3824 6.90083 20.3824Z" fill="url(#paint0_linear_927_5248)"/>
<path d="M6.90083 20.3824C6.89058 20.533 6.94011 20.6815 7.03868 20.7958C7.13724 20.9101 7.27689 20.9809 7.42733 20.9928C14.3328 21.0453 20.9917 20.8284 21 19.6878C21 16.5549 6.90083 20.3824 6.90083 20.3824ZM7.42778 20.953C7.40936 20.953 7.39096 20.9519 7.37266 20.9499C7.26736 20.9351 7.16877 20.8896 7.08923 20.819C7.0097 20.7484 6.95277 20.656 6.92558 20.5532C6.95506 20.6646 7.01985 20.7634 7.11022 20.8349C7.2006 20.9063 7.3117 20.9466 7.42688 20.9496C14.3279 20.9062 20.8918 18.7815 20.8918 19.7171C20.8918 20.672 14.3283 21 7.42778 20.953Z" fill="url(#paint1_linear_927_5248)"/>
<path d="M7.42822 11.5102C7.35895 11.5102 7.29036 11.5238 7.22636 11.5503C7.16236 11.5768 7.1042 11.6156 7.05522 11.6646C7.00624 11.7136 6.9674 11.7717 6.9409 11.8357C6.91441 11.8997 6.90079 11.9683 6.90082 12.0376V20.3824C6.9007 20.5217 6.95575 20.6555 7.05395 20.7543C7.15215 20.8532 7.2855 20.9092 7.42484 20.91C14.3319 20.8583 21.0083 18.572 21 19.688V10.29C21.0083 9.17266 14.3341 11.4587 7.42822 11.5102Z" fill="url(#paint2_linear_927_5248)"/>
<path d="M16.4044 13.8153C16.2832 13.629 16.1346 13.4622 15.9636 13.3203C15.7923 13.1784 15.601 13.0624 15.3959 12.9761C15.1804 12.8857 14.9531 12.8264 14.7209 12.7999C14.4708 12.7709 14.2179 12.7762 13.9692 12.8154C13.7493 12.8497 13.5334 12.9062 13.3248 12.984C12.9097 13.1387 12.5287 13.3727 12.2029 13.6729C12.0427 13.8213 11.8967 13.9844 11.7669 14.16C11.6374 14.335 11.5256 14.5224 11.433 14.7194C11.3404 14.9164 11.2691 15.1227 11.2201 15.3348C11.1705 15.5492 11.1454 15.7685 11.1454 15.9886C11.1447 16.2387 11.1786 16.4877 11.2462 16.7284C11.3101 16.9556 11.4061 17.1725 11.5313 17.3726C11.6527 17.5671 11.8015 17.7431 11.9732 17.895C12.1445 18.046 12.3369 18.1711 12.5445 18.2663C12.7586 18.3645 12.9861 18.4308 13.2195 18.4629C13.4683 18.4967 13.7207 18.494 13.9687 18.4551C14.1902 18.4206 14.4073 18.3621 14.6161 18.2807C14.8242 18.1994 15.0235 18.0967 15.2105 17.9745C15.3986 17.8519 15.5743 17.7112 15.735 17.5544C15.8955 17.3973 16.0413 17.2259 16.1706 17.0423C16.2997 16.8598 16.4111 16.6654 16.5034 16.4618C16.5953 16.2595 16.6664 16.0484 16.7155 15.8318C16.7647 15.6154 16.7896 15.3942 16.79 15.1723C16.7911 14.9247 16.7572 14.6783 16.6894 14.4402C16.626 14.2189 16.5299 14.0083 16.4044 13.8153Z" fill="url(#paint3_linear_927_5248)"/>
<defs>
<linearGradient id="paint0_linear_927_5248" x1="6.90083" y1="19.7263" x2="21" y2="19.7263" gradientUnits="userSpaceOnUse">
<stop stop-color="#808080"/>
<stop offset="0.327" stop-color="#838383"/>
<stop offset="0.59" stop-color="#8D8D8D"/>
<stop offset="0.83" stop-color="#9E9E9E"/>
<stop offset="1" stop-color="#AFAFAF"/>
</linearGradient>
<linearGradient id="paint1_linear_927_5248" x1="13.9505" y1="18.4553" x2="13.9505" y2="21" gradientUnits="userSpaceOnUse">
<stop offset="0.35" stop-color="#DFDFDF"/>
<stop offset="0.645" stop-color="#DDDDDD"/>
<stop offset="0.752" stop-color="#D6D6D6"/>
<stop offset="0.828" stop-color="#CBCBCB"/>
<stop offset="0.889" stop-color="#BABABA"/>
<stop offset="0.941" stop-color="#A4A4A4"/>
<stop offset="0.987" stop-color="#898989"/>
<stop offset="1" stop-color="#808080"/>
</linearGradient>
<linearGradient id="paint2_linear_927_5248" x1="6.90082" y1="15.4457" x2="21" y2="15.4457" gradientUnits="userSpaceOnUse">
<stop stop-color="#DFDFDF"/>
<stop offset="0.021" stop-color="#E1E1E1"/>
<stop offset="0.244" stop-color="#F2F2F2"/>
<stop offset="0.487" stop-color="#FCFCFC"/>
<stop offset="0.791" stop-color="white"/>
<stop offset="0.841" stop-color="#FCFCFC"/>
<stop offset="0.882" stop-color="#F2F2F2"/>
<stop offset="0.919" stop-color="#E1E1E1"/>
<stop offset="0.954" stop-color="#C9C9C9"/>
<stop offset="0.966" stop-color="#BFBFBF"/>
<stop offset="1" stop-color="white"/>
</linearGradient>
<linearGradient id="paint3_linear_927_5248" x1="6.90082" y1="15.6338" x2="21" y2="15.6338" gradientUnits="userSpaceOnUse">
<stop stop-color="#CF2000"/>
<stop offset="0.021" stop-color="#D12201"/>
<stop offset="0.244" stop-color="#E23309"/>
<stop offset="0.487" stop-color="#EC3D0E"/>
<stop offset="0.791" stop-color="#EF4010"/>
<stop offset="0.841" stop-color="#EC3D0F"/>
<stop offset="0.882" stop-color="#E2330D"/>
<stop offset="0.919" stop-color="#D12208"/>
<stop offset="0.954" stop-color="#B90A03"/>
<stop offset="0.966" stop-color="#AF0000"/>
<stop offset="1" stop-color="#EF4010"/>
</linearGradient>
</defs>
</svg>
