<svg width="24" height="24" viewBox="0 0 24 24" fill="none" xmlns="http://www.w3.org/2000/svg">
<circle cx="12" cy="12" r="12" fill="url(#paint0_linear_778_6306)"/>
<path d="M17.1895 2.01417C18.3142 2.60604 19.3114 3.36057 20.1811 4.27776C24.1673 8.54807 24.3 15.1106 20.378 19.491C19.2002 20.7995 17.79 21.7867 16.1475 22.4526C13.6209 23.4214 11.063 23.4965 8.47359 22.6781C2.53219 20.6479 -0.750939 14.2096 1.40719 8.21948C2.53406 5.09198 4.94156 2.64557 8.04937 1.45776C11.047 0.35573 14.3531 0.537136 17.1895 2.01417ZM10.3327 1.83932C8.76172 2.10651 7.32437 2.70307 6.02062 3.62901C0.276561 7.73714 0.304686 16.2196 6.01922 20.3564C7.37609 21.3192 8.8775 21.9262 10.5234 22.1774C12.8856 22.4953 15.0933 22.0684 17.1464 20.8968C18.6264 20.0312 19.8239 18.8706 20.7389 17.4149C22.673 14.2982 22.7944 10.4278 21.0947 7.18401C20.1875 5.5037 18.9242 4.16979 17.3048 3.18229C15.2044 1.91948 12.7528 1.44604 10.3327 1.83932Z" fill="#28646E"/>
<path d="M12.3581 2.92404C12.3581 3.01902 12.3204 3.11011 12.2532 3.17728C12.1861 3.24444 12.095 3.28217 12 3.28217C11.905 3.28217 11.8139 3.24444 11.7468 3.17728C11.6796 3.11011 11.6419 3.01902 11.6419 2.92404C11.6419 2.82906 11.6796 2.73797 11.7468 2.67081C11.8139 2.60365 11.905 2.56592 12 2.56592C12.095 2.56592 12.1861 2.60365 12.2532 2.67081C12.3204 2.73797 12.3581 2.82906 12.3581 2.92404Z" fill="#28646E"/>
<path d="M10.013 3.23298C10.013 3.32809 9.97518 3.4193 9.90793 3.48655C9.84069 3.5538 9.74948 3.59158 9.65437 3.59158C9.55927 3.59158 9.46806 3.5538 9.40081 3.48655C9.33356 3.4193 9.29578 3.32809 9.29578 3.23298C9.29578 3.13788 9.33356 3.04667 9.40081 2.97942C9.46806 2.91217 9.55927 2.87439 9.65437 2.87439C9.74948 2.87439 9.84069 2.91217 9.90793 2.97942C9.97518 3.04667 10.013 3.13788 10.013 3.23298Z" fill="#28646E"/>
<path d="M14.7066 3.233C14.7066 3.32798 14.6688 3.41907 14.6017 3.48624C14.5345 3.5534 14.4434 3.59113 14.3485 3.59113C14.2535 3.59113 14.1624 3.5534 14.0952 3.48624C14.0281 3.41907 13.9903 3.32798 13.9903 3.233C13.9903 3.13802 14.0281 3.04693 14.0952 2.97977C14.1624 2.91261 14.2535 2.87488 14.3485 2.87488C14.4434 2.87488 14.5345 2.91261 14.6017 2.97977C14.6688 3.04693 14.7066 3.13802 14.7066 3.233Z" fill="#28646E"/>
<path d="M7.82812 4.13818C7.82812 4.23378 7.79014 4.32547 7.72254 4.39307C7.65494 4.46067 7.56325 4.49865 7.46765 4.49865C7.37204 4.49865 7.28036 4.46067 7.21276 4.39307C7.14516 4.32547 7.10718 4.23378 7.10718 4.13818C7.10718 4.04258 7.14516 3.95089 7.21276 3.88329C7.28036 3.81569 7.37204 3.77771 7.46765 3.77771C7.56325 3.77771 7.65494 3.81569 7.72254 3.88329C7.79014 3.95089 7.82812 4.04258 7.82812 4.13818Z" fill="#28646E"/>
<path d="M16.8956 4.1386C16.8956 4.23383 16.8578 4.32516 16.7904 4.3925C16.7231 4.45984 16.6318 4.49767 16.5366 4.49767C16.4413 4.49767 16.35 4.45984 16.2827 4.3925C16.2153 4.32516 16.1775 4.23383 16.1775 4.1386C16.1775 4.04337 16.2153 3.95205 16.2827 3.88471C16.35 3.81737 16.4413 3.77954 16.5366 3.77954C16.6318 3.77954 16.7231 3.81737 16.7904 3.88471C16.8578 3.95205 16.8956 4.04337 16.8956 4.1386Z" fill="#28646E"/>
<path d="M5.51767 5.22801C5.81626 5.18582 6.00376 5.43144 5.92548 5.71785C5.82111 5.89473 5.68517 5.96441 5.51767 5.92691C5.1272 5.83973 5.13611 5.31191 5.51767 5.22801Z" fill="#28646E"/>
<path d="M18.773 5.57956C18.773 5.67454 18.7353 5.76563 18.6681 5.83279C18.6009 5.89995 18.5098 5.93769 18.4149 5.93769C18.3678 5.93769 18.3213 5.92842 18.2778 5.91042C18.2344 5.89243 18.1949 5.86605 18.1616 5.83279C18.1284 5.79954 18.102 5.76006 18.084 5.71661C18.066 5.67316 18.0567 5.62659 18.0567 5.57956C18.0567 5.53253 18.066 5.48596 18.084 5.44251C18.102 5.39906 18.1284 5.35958 18.1616 5.32633C18.1949 5.29307 18.2344 5.26669 18.2778 5.2487C18.3213 5.2307 18.3678 5.22144 18.4149 5.22144C18.5098 5.22144 18.6009 5.25917 18.6681 5.32633C18.7353 5.39349 18.773 5.48458 18.773 5.57956Z" fill="#28646E"/>
<path d="M6.75844 7.26939C6.60422 7.16767 6.67734 7.05283 6.77672 6.94549C6.92578 6.7833 7.44328 6.21939 7.60031 6.54564C7.75563 6.86783 7.93016 7.27533 8.12391 7.76814C8.15297 7.8422 8.20172 7.93455 8.12531 7.99361C8.08969 8.0208 8.04516 8.02064 7.99172 7.99314C7.56797 7.77314 7.15687 7.53189 6.75844 7.26939Z" fill="#28646E"/>
<path d="M17.2247 8.53641C18.0497 9.02063 17.3953 10.1864 17.0601 10.7573C17.052 10.7717 17.0555 10.7822 17.0705 10.7888C17.3905 10.9303 17.55 11.182 17.5491 11.5439C17.5481 12.0717 17.3006 12.4172 16.9734 12.9164C16.3495 13.8656 15.5484 14.6742 14.633 15.3502C14.0841 15.7552 13.477 16.0608 12.8658 16.3603C12.1242 16.7236 11.8645 17.0766 11.475 17.7755C11.3217 18.0502 11.0714 18.1556 10.8061 17.9231C10.6331 17.7005 10.7053 17.5205 10.8389 17.2838C10.897 17.1863 10.9576 17.0827 11.0208 16.973C11.2711 16.5356 11.6606 16.2028 12.1073 15.9731C12.8198 15.6072 13.5155 15.2122 14.1942 14.7881C15.3244 14.0822 16.1044 13.1658 16.8333 12.0506C16.9247 11.9109 17.1009 11.5805 16.9369 11.4459C16.7081 11.2584 16.4569 11.7023 16.3491 11.8402C15.9219 12.3852 15.512 12.8453 15.1195 13.2206C14.8594 13.4691 14.4797 13.133 14.7989 12.8053C15.613 11.9706 16.2941 11.0383 16.8422 10.0083C16.9467 9.81188 17.1923 9.27375 16.9439 9.12047C16.7845 9.0225 16.6617 9.12516 16.5811 9.27188C15.9673 10.3938 15.2131 11.3959 14.3184 12.2784C14.0255 12.5677 13.657 12.2058 13.9008 11.9442C14.6751 11.1139 15.3312 10.258 15.8691 9.37641C16.0491 9.0811 16.5853 8.02828 16.47 7.67578C16.4137 7.50469 16.2314 7.41422 16.0791 7.52766C16.0278 7.5661 15.9823 7.63828 15.9426 7.74422C15.3933 9.21453 14.5298 10.4678 13.3523 11.5041C13.012 11.8036 12.6797 11.423 12.9755 11.1356C13.7822 10.3509 14.4844 9.54938 15.0197 8.55141C15.1144 8.37516 15.6445 7.42125 15.0684 7.48641C14.9189 7.50328 14.8369 7.57782 14.7745 7.72078C14.5214 8.29985 14.2094 8.80766 13.8384 9.24422C12.9247 10.3211 11.8441 11.2588 10.5966 12.0572C10.0214 12.3211 9.53905 11.9606 9.64452 11.3555C9.78234 10.5645 9.91312 9.77266 10.0369 8.97985C10.0711 8.76094 10.0716 8.535 9.85124 8.42625C9.53484 8.27016 9.38718 8.625 9.3028 8.85141C9.04937 9.53266 8.78577 10.3489 8.51202 11.3002C8.22296 12.3039 8.18312 13.3616 8.39249 14.4731C8.47968 14.9353 7.87499 15.9525 7.60452 16.4709C7.29374 17.0672 6.61546 16.6514 6.86671 16.1597C7.10202 15.6988 7.36218 15.252 7.64718 14.8195C7.71843 14.7108 7.72359 14.617 7.69874 14.4802C7.4878 13.3195 7.54077 12.1898 7.8328 11.0522C8.06484 10.1494 8.42624 9.18516 8.73374 8.46422C9.03327 7.76203 9.77015 7.53703 10.4236 7.97766C10.7625 8.35266 10.7334 8.83453 10.6622 9.31781C10.5722 9.92844 10.4805 10.5389 10.387 11.1492C10.3542 11.3644 10.5201 11.3541 10.6491 11.2655C11.9887 10.3425 13.3378 9.15797 14.1112 7.7325C14.2891 7.40469 14.3828 7.23453 14.3925 7.22203C14.6442 6.89063 15.2887 6.67875 15.5981 7.06406C15.6079 7.07611 15.6219 7.08399 15.6373 7.08608C15.6526 7.08817 15.6681 7.08432 15.6806 7.07531C16.0983 6.77813 16.6345 6.83203 16.9322 7.25485C17.1797 7.60547 17.077 7.9936 16.9725 8.42156C16.9687 8.43719 16.9744 8.44766 16.9894 8.45297L17.2247 8.53641Z" fill="#28646E"/>
<path d="M4.50468 7.4583C4.50468 7.55278 4.46714 7.6434 4.40033 7.71021C4.33352 7.77702 4.24291 7.81455 4.14843 7.81455C4.05394 7.81455 3.96333 7.77702 3.89652 7.71021C3.82971 7.6434 3.79218 7.55278 3.79218 7.4583C3.79218 7.36382 3.82971 7.2732 3.89652 7.20639C3.96333 7.13958 4.05394 7.10205 4.14843 7.10205C4.24291 7.10205 4.33352 7.13958 4.40033 7.20639C4.46714 7.2732 4.50468 7.36382 4.50468 7.4583Z" fill="#28646E"/>
<path d="M20.2111 7.45828C20.2111 7.55289 20.1735 7.64362 20.1066 7.71052C20.0397 7.77742 19.949 7.815 19.8544 7.815C19.7598 7.815 19.669 7.77742 19.6021 7.71052C19.5352 7.64362 19.4977 7.55289 19.4977 7.45828C19.4977 7.36367 19.5352 7.27294 19.6021 7.20604C19.669 7.13915 19.7598 7.10156 19.8544 7.10156C19.949 7.10156 20.0397 7.13915 20.1066 7.20604C20.1735 7.27294 20.2111 7.36367 20.2111 7.45828Z" fill="#28646E"/>
<path d="M11.4586 9.86487C11.2064 10.0763 10.8314 9.80019 10.9594 9.50394C10.9844 9.44675 11.0453 9.37456 11.1422 9.28737C11.6928 8.79206 12.1633 8.22862 12.5536 7.59706C12.6289 7.47487 12.7755 7.36018 12.9933 7.253C13.208 7.148 13.6359 7.07019 13.778 7.29378C13.9336 7.53894 13.7681 7.7944 13.4887 7.78878C13.1189 7.78128 13.0003 8.10659 12.8236 8.36206C12.4292 8.93112 11.9742 9.43206 11.4586 9.86487Z" fill="#28646E"/>
<path d="M6.21516 9.29302C6.14735 9.05552 6.10329 8.7938 6.08298 8.50786C6.07641 8.4188 6.10407 8.35036 6.16594 8.30255C6.23751 8.29848 6.37376 8.30802 6.57469 8.33114C6.94657 8.37333 7.31657 8.42864 7.68469 8.49708C7.79813 8.51817 7.84313 8.6452 7.74423 8.7052C7.36735 8.93458 6.93548 9.16723 6.4486 9.40317C6.36173 9.44505 6.28391 9.40833 6.21516 9.29302Z" fill="#28646E"/>
<path d="M3.59905 9.64546C3.59905 9.74056 3.56127 9.83177 3.49402 9.89902C3.42677 9.96627 3.33557 10.0041 3.24046 10.0041C3.14536 10.0041 3.05415 9.96627 2.9869 9.89902C2.91965 9.83177 2.88187 9.74056 2.88187 9.64546C2.88187 9.59837 2.89114 9.55174 2.90916 9.50823C2.92718 9.46472 2.9536 9.42519 2.9869 9.39189C3.02019 9.3586 3.05973 9.33218 3.10323 9.31416C3.14674 9.29614 3.19337 9.28687 3.24046 9.28687C3.28755 9.28687 3.33418 9.29614 3.37769 9.31416C3.42119 9.33218 3.46073 9.3586 3.49402 9.39189C3.52732 9.42519 3.55374 9.46472 3.57176 9.50823C3.58978 9.55174 3.59905 9.59837 3.59905 9.64546Z" fill="#28646E"/>
<path d="M20.8805 9.30609C21.3103 9.48281 21.1388 10.0983 20.6199 9.97734C20.2144 9.76828 20.4056 9.21234 20.8805 9.30609Z" fill="#28646E"/>
<path d="M3.28782 11.9925C3.28782 12.0395 3.27857 12.086 3.2606 12.1294C3.24262 12.1728 3.21628 12.2122 3.18307 12.2454C3.14986 12.2787 3.11043 12.305 3.06704 12.323C3.02364 12.3409 2.97713 12.3502 2.93017 12.3502C2.8832 12.3502 2.83669 12.3409 2.7933 12.323C2.7499 12.305 2.71048 12.2787 2.67726 12.2454C2.64405 12.2122 2.61771 12.1728 2.59973 12.1294C2.58176 12.086 2.57251 12.0395 2.57251 11.9925C2.57251 11.8977 2.61019 11.8067 2.67726 11.7396C2.74434 11.6726 2.83531 11.6349 2.93017 11.6349C3.02502 11.6349 3.11599 11.6726 3.18307 11.7396C3.25014 11.8067 3.28782 11.8977 3.28782 11.9925Z" fill="#28646E"/>
<path d="M21.4289 11.9921C21.4289 12.0869 21.3912 12.1779 21.3241 12.245C21.2571 12.312 21.1661 12.3497 21.0712 12.3497C20.9764 12.3497 20.8854 12.312 20.8183 12.245C20.7513 12.1779 20.7136 12.0869 20.7136 11.9921C20.7136 11.9451 20.7228 11.8986 20.7408 11.8552C20.7588 11.8118 20.7851 11.7724 20.8183 11.7392C20.8516 11.7059 20.891 11.6796 20.9344 11.6616C20.9778 11.6437 21.0243 11.6344 21.0712 11.6344C21.1182 11.6344 21.1647 11.6437 21.2081 11.6616C21.2515 11.6796 21.2909 11.7059 21.3241 11.7392C21.3574 11.7724 21.3837 11.8118 21.4017 11.8552C21.4197 11.8986 21.4289 11.9451 21.4289 11.9921Z" fill="#28646E"/>
<path d="M3.59999 14.339C3.59999 14.4343 3.56216 14.5256 3.49482 14.5929C3.42749 14.6603 3.33616 14.6981 3.24093 14.6981C3.1457 14.6981 3.05437 14.6603 2.98703 14.5929C2.9197 14.5256 2.88187 14.4343 2.88187 14.339C2.88187 14.2438 2.9197 14.1525 2.98703 14.0851C3.05437 14.0178 3.1457 13.98 3.24093 13.98C3.33616 13.98 3.42749 14.0178 3.49482 14.0851C3.56216 14.1525 3.59999 14.2438 3.59999 14.339Z" fill="#28646E"/>
<path d="M6.10642 15.2663C5.72438 15.5686 5.33907 15.0506 5.6986 14.7694C5.88735 14.6213 6.08235 14.4808 6.2836 14.348C6.55126 14.1671 6.88266 13.9266 7.07485 13.9917C7.36829 14.0916 7.35704 14.4432 7.1072 14.5913C6.7597 14.7978 6.4261 15.0228 6.10642 15.2663Z" fill="#28646E"/>
<path d="M21.1125 14.3362C21.1125 14.4307 21.075 14.5213 21.0082 14.5881C20.9414 14.6549 20.8508 14.6925 20.7563 14.6925C20.6618 14.6925 20.5712 14.6549 20.5044 14.5881C20.4376 14.5213 20.4 14.4307 20.4 14.3362C20.4 14.2417 20.4376 14.1511 20.5044 14.0843C20.5712 14.0175 20.6618 13.98 20.7563 13.98C20.8508 13.98 20.9414 14.0175 21.0082 14.0843C21.075 14.1511 21.1125 14.2417 21.1125 14.3362Z" fill="#28646E"/>
<path d="M17.1675 15.8217C17.3072 15.8456 17.5209 15.862 17.453 16.0692C17.3592 16.3555 17.222 16.6169 17.0414 16.8534C16.9645 16.9078 16.9003 16.912 16.8488 16.8661C16.4656 16.5223 16.1125 16.1619 15.7894 15.7847C15.7676 15.7592 15.7615 15.7218 15.7742 15.6907C15.7806 15.6752 15.7911 15.6617 15.8046 15.6517C15.8466 15.6207 15.9051 15.6301 15.9839 15.6389C16.4005 15.6873 16.795 15.7483 17.1675 15.8217Z" fill="#28646E"/>
<path d="M14.9325 17.8186C14.7933 17.8096 14.7497 17.7201 14.7755 17.5936C14.8648 17.1567 14.9725 16.7243 15.0984 16.2965C15.1172 16.2342 15.1444 16.1568 15.2067 16.1301C15.2583 16.1079 15.298 16.1267 15.3258 16.1864C15.4711 16.4964 15.6286 16.8742 15.7983 17.3198C15.8433 17.4379 15.8744 17.5395 15.8916 17.6245C15.895 17.6407 15.8923 17.6559 15.8836 17.67C15.7753 17.8467 15.12 17.8307 14.9325 17.8186Z" fill="#28646E"/>
<path d="M4.50468 16.5271C4.50468 16.6216 4.46714 16.7122 4.40033 16.7791C4.33352 16.8459 4.24291 16.8834 4.14843 16.8834C4.05394 16.8834 3.96333 16.8459 3.89652 16.7791C3.82971 16.7122 3.79218 16.6216 3.79218 16.5271C3.79218 16.4327 3.82971 16.3421 3.89652 16.2752C3.96333 16.2084 4.05394 16.1709 4.14843 16.1709C4.24291 16.1709 4.33352 16.2084 4.40033 16.2752C4.46714 16.3421 4.50468 16.4327 4.50468 16.5271Z" fill="#28646E"/>
<path d="M20.2111 16.5276C20.2111 16.6221 20.1736 16.7127 20.1068 16.7795C20.0399 16.8464 19.9493 16.8839 19.8548 16.8839C19.7604 16.8839 19.6697 16.8464 19.6029 16.7795C19.5361 16.7127 19.4986 16.6221 19.4986 16.5276C19.4986 16.4332 19.5361 16.3425 19.6029 16.2757C19.6697 16.2089 19.7604 16.1714 19.8548 16.1714C19.9493 16.1714 20.0399 16.2089 20.1068 16.2757C20.1736 16.3425 20.2111 16.4332 20.2111 16.5276Z" fill="#28646E"/>
<path d="M5.94516 18.406C5.94516 18.501 5.90743 18.592 5.84027 18.6592C5.77311 18.7264 5.68202 18.7641 5.58704 18.7641C5.49206 18.7641 5.40097 18.7264 5.3338 18.6592C5.26664 18.592 5.22891 18.501 5.22891 18.406C5.22891 18.311 5.26664 18.2199 5.3338 18.1527C5.40097 18.0856 5.49206 18.0479 5.58704 18.0479C5.68202 18.0479 5.77311 18.0856 5.84027 18.1527C5.90743 18.2199 5.94516 18.311 5.94516 18.406Z" fill="#28646E"/>
<path d="M18.7734 18.406C18.7734 18.5011 18.7357 18.5923 18.6684 18.6595C18.6012 18.7268 18.5099 18.7646 18.4148 18.7646C18.3197 18.7646 18.2285 18.7268 18.1613 18.6595C18.094 18.5923 18.0562 18.5011 18.0562 18.406C18.0562 18.3109 18.094 18.2196 18.1613 18.1524C18.2285 18.0851 18.3197 18.0474 18.4148 18.0474C18.5099 18.0474 18.6012 18.0851 18.6684 18.1524C18.7357 18.2196 18.7734 18.3109 18.7734 18.406Z" fill="#28646E"/>
<path d="M7.82767 19.8468C7.82767 19.9423 7.78974 20.0339 7.72222 20.1014C7.65471 20.1689 7.56314 20.2068 7.46767 20.2068C7.37219 20.2068 7.28062 20.1689 7.21311 20.1014C7.14559 20.0339 7.10767 19.9423 7.10767 19.8468C7.10767 19.7513 7.14559 19.6598 7.21311 19.5923C7.28062 19.5247 7.37219 19.4868 7.46767 19.4868C7.56314 19.4868 7.65471 19.5247 7.72222 19.5923C7.78974 19.6598 7.82767 19.7513 7.82767 19.8468Z" fill="#28646E"/>
<path d="M16.8952 19.8469C16.8952 19.9421 16.8573 20.0334 16.79 20.1008C16.7227 20.1681 16.6313 20.2059 16.5361 20.2059C16.4409 20.2059 16.3495 20.1681 16.2822 20.1008C16.2149 20.0334 16.177 19.9421 16.177 19.8469C16.177 19.7516 16.2149 19.6603 16.2822 19.593C16.3495 19.5256 16.4409 19.4878 16.5361 19.4878C16.6313 19.4878 16.7227 19.5256 16.79 19.593C16.8573 19.6603 16.8952 19.7516 16.8952 19.8469Z" fill="#28646E"/>
<path d="M10.012 20.753C10.012 20.848 9.9743 20.9391 9.90713 21.0063C9.83997 21.0734 9.74888 21.1111 9.6539 21.1111C9.55892 21.1111 9.46783 21.0734 9.40067 21.0063C9.33351 20.9391 9.29578 20.848 9.29578 20.753C9.29578 20.658 9.33351 20.567 9.40067 20.4998C9.46783 20.4326 9.55892 20.3949 9.6539 20.3949C9.74888 20.3949 9.83997 20.4326 9.90713 20.4998C9.9743 20.567 10.012 20.658 10.012 20.753Z" fill="#28646E"/>
<path d="M14.7066 20.7529C14.7066 20.8478 14.6689 20.9387 14.6018 21.0058C14.5347 21.0729 14.4438 21.1106 14.3489 21.1106C14.254 21.1106 14.1631 21.0729 14.096 21.0058C14.0289 20.9387 13.9912 20.8478 13.9912 20.7529C13.9912 20.6581 14.0289 20.5671 14.096 20.5C14.1631 20.4329 14.254 20.3953 14.3489 20.3953C14.4438 20.3953 14.5347 20.4329 14.6018 20.5C14.6689 20.5671 14.7066 20.6581 14.7066 20.7529Z" fill="#28646E"/>
<path d="M12.3586 21.0605C12.3586 21.1555 12.3209 21.2466 12.2537 21.3138C12.1865 21.3809 12.0954 21.4186 12.0005 21.4186C11.9055 21.4186 11.8144 21.3809 11.7472 21.3138C11.6801 21.2466 11.6423 21.1555 11.6423 21.0605C11.6423 21.0135 11.6516 20.9669 11.6696 20.9235C11.6876 20.88 11.714 20.8405 11.7472 20.8073C11.7805 20.774 11.82 20.7477 11.8634 20.7297C11.9069 20.7117 11.9534 20.7024 12.0005 20.7024C12.0475 20.7024 12.0941 20.7117 12.1375 20.7297C12.181 20.7477 12.2204 20.774 12.2537 20.8073C12.2869 20.8405 12.3133 20.88 12.3313 20.9235C12.3493 20.9669 12.3586 21.0135 12.3586 21.0605Z" fill="#28646E"/>
<defs>
<linearGradient id="paint0_linear_778_6306" x1="0" y1="12" x2="24" y2="12" gradientUnits="userSpaceOnUse">
<stop stop-color="#D3F0F0"/>
<stop offset="1" stop-color="#F0E6B6"/>
</linearGradient>
</defs>
</svg>
