<svg width="24" height="24" viewBox="0 0 24 24" fill="none" xmlns="http://www.w3.org/2000/svg">
<circle cx="12" cy="12" r="12" fill="#063C4F"/>
<path d="M12.8298 7.30819C14.1009 7.72339 15.8136 8.58032 16.7976 9.24188C16.1804 8.36443 15.4627 7.51187 14.7449 6.65918C13.7377 5.46273 12.7303 4.26603 12 3C11.2697 4.26603 10.2623 5.46273 9.25514 6.65918L9.19676 6.72853C9.06087 6.88999 8.92507 7.05146 8.79006 7.21313C8.82741 7.55436 8.97392 8.38972 9.26108 9.00131C9.54824 9.61289 10.4154 10.3775 10.8131 10.6834C9.32933 9.4393 9.2166 8.23804 9.90376 7.50606C10.6737 6.68586 12.1752 7.03239 12.8298 7.30819Z" fill="url(#paint0_linear_3072_7759)"/>
<path d="M18.3099 15.9763C18.4866 15.341 18.5815 14.6682 18.5815 13.9717C18.5815 13.5455 18.5356 13.1307 18.4509 12.7255C18.0925 12.0002 17.1811 10.739 15.5112 9.76579C14.5645 9.214 13.5939 8.88898 12.8064 8.62529C11.5792 8.21434 10.7968 7.95236 11.2429 7.21313C11.396 6.95935 12.0242 7.04508 12.8298 7.30819C12.1752 7.03239 10.6737 6.68586 9.90376 7.50606C9.2166 8.23804 9.32933 9.4393 10.8131 10.6834C11.4075 11.1819 12.222 11.6872 13.2934 12.172C16.2896 13.5278 17.8861 15.2731 18.3099 15.9763Z" fill="url(#paint1_linear_3072_7759)"/>
<path d="M10.4268 11.9837C8.7195 10.7785 8.00745 9.06042 7.86484 8.35203C7.0143 9.44146 6.26926 10.5569 5.8314 11.7487C6.28217 12.5384 7.63566 14.3773 9.44345 15.4151C10.1354 15.8123 10.8136 16.0704 11.421 16.3016C11.9029 16.485 12.3403 16.6514 12.7045 16.8569C13.3806 17.2383 13.805 17.7543 13.7955 18.7629C13.7788 20.5526 12.5915 21 12 21C14.339 21 16.3933 19.6967 17.5606 17.733C17.6307 17.4695 17.4822 16.637 16.3273 15.4151C15.5158 14.5566 14.4267 14.0551 13.2495 13.5129C12.3322 13.0905 11.3615 12.6434 10.4268 11.9837Z" fill="url(#paint2_linear_3072_7759)"/>
<path d="M5.41853 13.9717C5.41853 17.8533 8.36554 21 12 21C12.5915 21 13.7788 20.5526 13.7955 18.7629C13.805 17.7543 13.3806 17.2383 12.7045 16.8569C12.8697 16.974 13.0456 17.3717 12.7045 17.733C12.2092 18.2578 10.4268 17.5075 8.98313 16.4822C7.82816 15.662 6.14296 14.0951 5.44473 13.4141C5.42747 13.5979 5.41853 13.7837 5.41853 13.9717Z" fill="url(#paint3_linear_3072_7759)"/>
<path d="M12.8298 7.30819C14.1009 7.72339 15.8136 8.58032 16.7976 9.24188C16.1804 8.36443 15.4627 7.51187 14.7449 6.65918C13.7377 5.46273 12.7303 4.26603 12 3C11.2697 4.26603 10.2623 5.46273 9.25514 6.65918L9.19676 6.72853C9.06087 6.88999 8.92507 7.05146 8.79006 7.21313C8.82741 7.55436 8.97392 8.38972 9.26108 9.00131C9.54824 9.61289 10.4154 10.3775 10.8131 10.6834C9.32933 9.4393 9.2166 8.23804 9.90376 7.50606C10.6737 6.68586 12.1752 7.03239 12.8298 7.30819Z" fill="url(#paint4_linear_3072_7759)"/>
<path d="M18.3099 15.9763C18.4866 15.341 18.5815 14.6682 18.5815 13.9717C18.5815 13.5455 18.5356 13.1307 18.4509 12.7255C18.0925 12.0002 17.1811 10.739 15.5112 9.76579C14.5645 9.214 13.5939 8.88898 12.8064 8.62529C11.5792 8.21434 10.7968 7.95236 11.2429 7.21313C11.396 6.95935 12.0242 7.04508 12.8298 7.30819C12.1752 7.03239 10.6737 6.68586 9.90376 7.50606C9.2166 8.23804 9.32933 9.4393 10.8131 10.6834C11.4075 11.1819 12.222 11.6872 13.2934 12.172C16.2896 13.5278 17.8861 15.2731 18.3099 15.9763Z" fill="url(#paint5_linear_3072_7759)"/>
<path d="M10.4268 11.9837C8.7195 10.7785 8.00745 9.06042 7.86484 8.35203C7.0143 9.44146 6.26926 10.5569 5.8314 11.7487C6.28217 12.5384 7.63566 14.3773 9.44345 15.4151C10.1354 15.8123 10.8136 16.0704 11.421 16.3016C11.9029 16.485 12.3403 16.6514 12.7045 16.8569C13.3806 17.2383 13.805 17.7543 13.7955 18.7629C13.7788 20.5526 12.5915 21 12 21C14.339 21 16.3933 19.6967 17.5606 17.733C17.6307 17.4695 17.4822 16.637 16.3273 15.4151C15.5158 14.5566 14.4267 14.0551 13.2495 13.5129C12.3322 13.0905 11.3615 12.6434 10.4268 11.9837Z" fill="url(#paint6_linear_3072_7759)"/>
<path d="M5.41853 13.9717C5.41853 17.8533 8.36554 21 12 21C12.5915 21 13.7788 20.5526 13.7955 18.7629C13.805 17.7543 13.3806 17.2383 12.7045 16.8569C12.8697 16.974 13.0456 17.3717 12.7045 17.733C12.2092 18.2578 10.5007 17.3946 8.98313 16.4822C7.62624 15.6665 6.14296 14.0951 5.44473 13.4141C5.42747 13.5979 5.41853 13.7837 5.41853 13.9717Z" fill="url(#paint7_linear_3072_7759)"/>
<defs>
<linearGradient id="paint0_linear_3072_7759" x1="12" y1="3" x2="9.79668" y2="13.8584" gradientUnits="userSpaceOnUse">
<stop stop-color="#1F7494"/>
<stop offset="0.382768" stop-color="#0E6585"/>
<stop offset="0.901042" stop-color="#071F28"/>
</linearGradient>
<linearGradient id="paint1_linear_3072_7759" x1="18.5815" y1="12.0001" x2="7.08012" y2="5.69187" gradientUnits="userSpaceOnUse">
<stop stop-color="#1F7494"/>
<stop offset="0.382768" stop-color="#0E6585"/>
<stop offset="0.901042" stop-color="#071F28"/>
</linearGradient>
<linearGradient id="paint2_linear_3072_7759" x1="5.41853" y1="12.0001" x2="19.5085" y2="22.6078" gradientUnits="userSpaceOnUse">
<stop stop-color="#1F7494"/>
<stop offset="0.382768" stop-color="#0E6585"/>
<stop offset="0.901042" stop-color="#071F28"/>
</linearGradient>
<linearGradient id="paint3_linear_3072_7759" x1="5.41853" y1="21.0002" x2="14.6394" y2="17.1726" gradientUnits="userSpaceOnUse">
<stop stop-color="#1F7494"/>
<stop offset="0.382768" stop-color="#0E6585"/>
<stop offset="0.901042" stop-color="#071F28"/>
</linearGradient>
<linearGradient id="paint4_linear_3072_7759" x1="7.87309" y1="16.607" x2="17.7949" y2="13.9538" gradientUnits="userSpaceOnUse">
<stop offset="0.104167" stop-color="#071F28"/>
<stop offset="0.520341" stop-color="#4FC1C0"/>
<stop offset="1" stop-color="#8CF2FD"/>
</linearGradient>
<linearGradient id="paint5_linear_3072_7759" x1="8.69806" y1="7.04753" x2="12.8634" y2="14.9961" gradientUnits="userSpaceOnUse">
<stop offset="0.104167" stop-color="#092D3A"/>
<stop offset="0.648458" stop-color="#3A9CAD"/>
<stop offset="1" stop-color="#5ACACB"/>
</linearGradient>
<linearGradient id="paint6_linear_3072_7759" x1="18.5806" y1="21" x2="14.1726" y2="8.82939" gradientUnits="userSpaceOnUse">
<stop offset="0.104167" stop-color="#071F28"/>
<stop offset="0.546009" stop-color="#3799AA"/>
<stop offset="1" stop-color="#5ACACB"/>
</linearGradient>
<linearGradient id="paint7_linear_3072_7759" x1="14.9201" y1="14.9717" x2="5.8002" y2="14.4403" gradientUnits="userSpaceOnUse">
<stop offset="0.104167" stop-color="#071F28"/>
<stop offset="0.702655" stop-color="#257A88"/>
<stop offset="1" stop-color="#5ACACB"/>
</linearGradient>
</defs>
</svg>
