<svg width="24" height="24" viewBox="0 0 24 24" fill="none" xmlns="http://www.w3.org/2000/svg">
<circle cx="12" cy="12" r="12" fill="#121212"/>
<path fill-rule="evenodd" clip-rule="evenodd" d="M11.827 0C11.8178 0.000548309 11.8087 0.00109507 11.7996 0.00164027C5.35089 0.107252 0.139262 5.29965 0.0027449 11.7408C0.00183106 11.752 0.000916094 11.7633 0 11.7745V12.2081C0.000772927 12.2179 0.00153985 12.2276 0.00230123 12.2374C0.128769 18.7552 5.45189 24 12 24C18.6274 24 24 18.6274 24 12C24 5.43493 18.728 0.101195 12.1867 0.00142298C12.1801 0.000948095 12.1735 0.000473767 12.1669 0H11.827ZM11.5402 1.40979C10.1592 1.46874 8.84663 1.79191 7.65176 2.33003C7.63789 2.3366 7.62402 2.3432 7.61016 2.34984C7.59394 2.35688 7.57774 2.36399 7.56155 2.37117C7.39946 2.44601 7.23958 2.52482 7.08203 2.60748C6.9375 2.6859 6.79369 2.77049 6.65063 2.86125C6.62105 2.87276 6.58972 2.88652 6.55664 2.90253C5.87542 3.311 5.24389 3.79382 4.67325 4.33977C4.62463 4.39433 4.58204 4.44742 4.54547 4.49906C4.38181 4.64456 4.22643 4.79669 4.07934 4.95546C3.92608 5.12766 3.77836 5.30488 3.63644 5.48686C3.61915 5.50997 3.602 5.53321 3.585 5.55656C3.58121 5.5604 3.57744 5.56425 3.57369 5.56813C3.49091 5.6764 3.41018 5.78632 3.33154 5.89782C3.32512 5.90958 3.31882 5.92146 3.31266 5.93344C3.10266 6.22687 2.90953 6.53516 2.73328 6.85828C2.72609 6.87172 2.72703 6.89172 2.73609 6.91828C2.72346 6.93271 2.71067 6.94675 2.69797 6.96071C2.67489 6.98608 2.65207 7.01115 2.6309 7.03767C1.92584 8.36608 1.49504 9.86232 1.41398 11.4509C1.41658 11.4766 1.42041 11.5038 1.42547 11.5327C1.43891 11.6083 1.44297 11.6736 1.43766 11.7286C1.41277 12.0855 1.40994 12.4402 1.42919 12.7927C1.56744 14.6627 2.19087 16.3978 3.17408 17.8726L3.48422 18.3009C3.50764 18.3372 3.53158 18.3732 3.55603 18.4087C3.70315 18.6023 3.85677 18.7906 4.01657 18.9734C4.02145 18.9785 4.02634 18.9835 4.03125 18.9886C4.04125 18.9989 4.04609 18.997 4.04578 18.983C4.04078 18.3305 4.04031 17.6786 4.04437 17.0273C4.04469 16.9958 4.03234 16.945 4.00734 16.875C4.02234 16.8178 4.02984 16.7592 4.02984 16.6992C4.03109 16.3708 4.03141 16.0423 4.03078 15.7139C4.03078 15.6977 4.02281 15.69 4.00688 15.6909L3.98672 15.6923C3.98893 15.6879 3.99109 15.6835 3.9932 15.6792C4.01887 15.6275 4.03695 15.591 4.03781 15.5273C4.06094 13.8314 4.06 12.1377 4.035 10.4461L4.0275 10.027C4.0272 10.0072 4.03095 9.98747 4.03853 9.9691C4.0461 9.95073 4.05734 9.93407 4.07156 9.92016C4.9685 9.04191 5.87405 8.1725 6.77962 7.30307C7.44918 6.66022 8.11874 6.01737 8.78484 5.37094C8.80203 5.35437 8.81078 5.35812 8.81109 5.38219L8.80875 14.9142L8.81625 15.3502C8.81656 15.3736 8.825 15.3772 8.84156 15.3609L9.11578 15.0947C9.15521 15.0576 9.21262 15.006 9.28145 14.9442C9.6537 14.6099 10.3598 13.9756 10.3598 13.7109C10.3592 12.8013 10.3591 11.8908 10.3594 10.9795C10.3594 10.9614 10.3683 10.9509 10.3861 10.9481H10.5898L14.8875 10.943C14.8875 10.943 15.0491 10.9305 15.0487 11.003C15.044 11.6553 15.0448 12.3073 15.0455 12.9593C15.0466 13.8687 15.0476 14.778 15.0338 15.6881C15.0334 15.7032 15.0272 15.7176 15.0164 15.7284L12.9511 17.7192C12.9392 17.7305 12.9397 17.7413 12.9525 17.7516L14.4338 18.9811C14.4456 18.9917 14.4573 18.9914 14.4689 18.9802L15.9178 17.5997C15.9234 17.5944 15.9277 17.5879 15.9306 17.5807C15.9334 17.5735 15.9346 17.5657 15.9342 17.558V12.3516C15.9342 12.3382 15.9332 12.3269 15.9323 12.3172C15.9286 12.2763 15.9277 12.2661 16.0195 12.2672C17.1223 12.2798 18.3136 12.2805 19.4447 12.2812C19.6646 12.2814 19.8821 12.2815 20.0963 12.2817C20.1128 12.2817 20.1211 12.29 20.1211 12.3066L20.123 15.7017L20.1286 16.2389L20.1216 18.773C20.1216 18.792 20.1278 18.7944 20.1403 18.78C20.2415 18.6627 20.3392 18.5435 20.4336 18.4224C20.6846 18.0932 20.9168 17.749 21.1286 17.3912C21.2495 17.1816 21.3618 16.9672 21.4655 16.748C21.643 16.4092 21.7886 16.0773 21.9023 15.7523C21.9457 15.6544 21.9863 15.5553 22.0242 15.455C22.1099 15.2063 22.1866 14.9534 22.2539 14.6967C22.2817 14.577 22.3061 14.4557 22.327 14.333C22.4402 13.9052 22.5111 13.457 22.5398 12.9886C22.5552 12.9008 22.5659 12.8305 22.5719 12.7777C22.5905 12.5209 22.6 12.2616 22.6 12C22.6 11.9889 22.6 11.9777 22.5999 11.9666C22.597 11.59 22.5721 11.2195 22.5253 10.8553C22.4941 10.4469 22.4361 10.0755 22.3514 9.74109C22.3232 9.60103 22.2912 9.45588 22.2551 9.3079C22.0934 8.69014 21.8773 8.09437 21.6123 7.52599C21.5744 7.45434 21.5351 7.38447 21.4945 7.31672C21.4148 7.13582 21.3255 6.95695 21.2284 6.78111C21.1288 6.60553 21.0245 6.43308 20.9154 6.26393C20.7211 5.96856 20.5081 5.68553 20.2856 5.42016C20.2223 5.32647 20.1567 5.23614 20.0889 5.14917C19.947 4.98178 19.8 4.81886 19.6481 4.66064C19.5986 4.61336 19.5481 4.56747 19.4967 4.52297L18.997 4.04016C18.9564 4.00343 18.9156 3.96711 18.8745 3.9312C18.3887 3.51687 17.8649 3.14564 17.3092 2.82344C17.2895 2.81238 17.2698 2.80139 17.25 2.79047L16.8437 2.5689C16.1399 2.2067 15.3903 1.92096 14.6058 1.72268L14.2431 1.63779C13.8727 1.55799 13.4951 1.49755 13.1114 1.45757C12.9305 1.44749 12.7488 1.44632 12.5662 1.45406C12.2241 1.41739 11.8821 1.40263 11.5402 1.40979ZM17.2838 21.1913L19.5155 19.0706C19.5214 19.065 19.5261 19.0582 19.5293 19.0507C19.5326 19.0432 19.5342 19.0352 19.5342 19.027L19.5347 12.8822C19.5347 12.8625 19.5248 12.8528 19.5052 12.8531L18.7978 12.862L16.5422 12.8714C16.5294 12.8714 16.523 12.8778 16.523 12.8906L16.5239 17.8027C16.5239 17.8208 16.5173 17.8361 16.5042 17.8486L14.5148 19.7362C14.4867 19.7694 14.4612 19.7764 14.4384 19.7573L13.3988 18.8939L12.6342 18.2559C12.5861 18.2156 12.5398 18.2177 12.4955 18.262L10.4859 20.2692C10.4821 20.273 10.4791 20.2776 10.4771 20.2826C10.4751 20.2877 10.4741 20.293 10.4743 20.2985C10.4745 20.3039 10.4758 20.3092 10.4781 20.3141C10.4804 20.319 10.4837 20.3233 10.4878 20.3269L13.0422 22.5494C14.5753 22.3998 16.0126 21.9236 17.2838 21.1913ZM12.1208 22.5993C12.1445 22.5921 12.1461 22.5732 12.1256 22.5427C12.1237 22.5398 12.1109 22.5278 12.0872 22.5066C11.3853 21.88 10.6825 21.2666 9.97875 20.6663C9.955 20.6459 9.93203 20.6467 9.90984 20.6686L8.54578 21.9872C8.54239 21.9904 8.5399 21.9945 8.53854 21.999C8.53719 22.0035 8.53703 22.0083 8.53807 22.0128C8.53895 22.0167 8.54069 22.0204 8.54313 22.0235C9.6266 22.3971 10.7896 22.6 12 22.6C12.0403 22.6 12.0806 22.5998 12.1208 22.5993ZM6.36045 20.9769L7.90219 21.6258C7.94 21.6498 7.97844 21.6641 8.0175 21.6684C8.03281 21.67 8.04609 21.6653 8.05734 21.6544L12.3328 17.5148L14.4206 15.4884C14.4371 15.4724 14.4502 15.4532 14.4591 15.4321C14.4681 15.4109 14.4727 15.3881 14.4727 15.3652L14.4722 11.543C14.4722 11.5369 14.4698 11.531 14.4655 11.5267C14.4612 11.5224 14.4553 11.52 14.4492 11.52H10.9842C10.9452 11.52 10.9269 11.5395 10.9294 11.5786C10.9836 12.4194 10.9314 13.2819 10.9355 14.1234C10.9356 14.1308 10.9342 14.1382 10.9314 14.145C10.9286 14.1519 10.9244 14.1581 10.9191 14.1633L9.59578 15.4416L4.96817 19.932C5.40195 20.3168 5.86752 20.6666 6.36045 20.9769ZM7.72922 7.20375L8.18719 6.76359C8.21875 6.73359 8.23438 6.74031 8.23406 6.78375L8.22187 15.8419C8.22187 15.8594 8.21547 15.8742 8.20266 15.8864L7.72922 16.3402L4.65609 19.3097C4.64141 19.3238 4.63406 19.3206 4.63406 19.3003L4.64062 10.2309C4.64062 10.2144 4.64656 10.2003 4.65844 10.1888L7.72922 7.20375Z" fill="white"/>
<path d="M7.56 8.40145L7.57125 8.12254C7.57187 8.10661 7.58015 8.09848 7.59609 8.09817L7.79531 8.09583L8.04328 8.09911C8.05922 8.09942 8.06719 8.10754 8.06719 8.12348L8.07703 9.16504C8.07734 9.18317 8.06828 9.19239 8.04984 9.1927L7.59422 9.2002C7.58047 9.2002 7.57344 9.19332 7.57312 9.17957L7.56 8.40145Z" fill="white"/>
<path d="M7.49391 8.41073L7.48828 9.49495L7.02 9.48558C7.00406 9.48526 6.9961 9.47714 6.9961 9.4612L6.99469 8.42714C6.99469 8.4137 7.00141 8.40698 7.01485 8.40698L7.49391 8.41073Z" fill="white"/>
<path d="M8.80874 14.9143L9.11578 15.0947L8.84156 15.361C8.82499 15.3772 8.81656 15.3736 8.81624 15.3502L8.80874 14.9143Z" fill="url(#paint0_linear_930_6279)"/>
<path d="M14.648 16.1016L14.5537 16.7986C14.5516 16.8168 14.5595 16.826 14.5776 16.8263L15.9239 16.8633L15.9197 17.3293L14.4661 17.2988C14.4547 17.2985 14.4436 17.302 14.4344 17.3087C14.4252 17.3154 14.4184 17.3249 14.415 17.3358L14.0264 18.6282L13.6486 18.3296L13.8994 17.311C13.901 17.3044 13.8999 17.2975 13.8965 17.2916C13.8931 17.2857 13.8876 17.2814 13.8811 17.2796L13.5244 17.1821L14.648 16.1016Z" fill="url(#paint1_linear_930_6279)"/>
<path fill-rule="evenodd" clip-rule="evenodd" d="M12.5662 1.4541L11.993 1.5141C11.987 1.51485 11.9814 1.51742 11.9769 1.52145C11.9724 1.52548 11.9693 1.53079 11.9679 1.53666C11.9665 1.54253 11.967 1.54868 11.9692 1.55428C11.9714 1.55989 11.9753 1.56468 11.9803 1.56801C12.6609 2.00395 13.2587 2.53301 13.7737 3.1552C13.7783 3.16071 13.7841 3.16507 13.7907 3.16793C13.7973 3.17078 13.8045 3.17204 13.8117 3.1716L14.6611 3.11535C14.6792 3.11442 14.6856 3.1052 14.6803 3.0877C14.5678 2.7102 14.455 2.33582 14.3419 1.96457C14.3056 1.84551 14.252 1.73176 14.1811 1.62332L14.7239 1.75035L15.1092 3.17348C15.1136 3.18973 15.1237 3.20051 15.1397 3.20582L16.0547 3.52347L16.8366 2.56504L17.25 2.79051L16.4437 3.70457C16.4325 3.71739 16.4333 3.72926 16.4461 3.7402L17.0761 4.28301C17.0808 4.28699 17.0863 4.28989 17.0922 4.2915C17.0981 4.29312 17.1043 4.29343 17.1103 4.29239C17.7389 4.18879 18.3291 4.05473 18.997 4.0402L19.4967 4.52301C18.7697 4.4002 18.1036 4.51504 17.4141 4.66223C17.4116 4.66276 17.4092 4.66387 17.4073 4.66549C17.4053 4.6671 17.4037 4.66917 17.4027 4.67151C17.4017 4.67385 17.4013 4.6764 17.4014 4.67895C17.4016 4.68149 17.4024 4.68396 17.4037 4.68614L17.7909 5.32317C17.7987 5.33598 17.8102 5.34348 17.8251 5.34567C18.3923 5.42464 18.9428 5.56807 19.4768 5.77598L20.6686 6.28364C20.6725 6.28534 20.6768 6.2858 20.6809 6.28496C20.6851 6.28412 20.6889 6.28202 20.6918 6.27895C20.6947 6.27588 20.6966 6.27198 20.6973 6.26778C20.6979 6.26359 20.6972 6.2593 20.6953 6.25551L20.2856 5.4202C20.7623 5.98879 21.1955 6.63848 21.4945 7.31676C21.4408 7.29926 21.4183 7.3491 21.427 7.46629C21.4564 7.86629 21.4787 8.26895 21.4941 8.67426C21.4947 8.68888 21.4999 8.70299 21.5091 8.71457L22.3514 9.74114C22.4361 10.0755 22.4941 10.4469 22.5253 10.8554C22.2153 10.2516 21.8456 9.7141 21.4162 9.24285C21.4129 9.23919 21.4088 9.23637 21.4041 9.23464C21.3995 9.23291 21.3945 9.23232 21.3896 9.23292C21.3847 9.23351 21.38 9.23528 21.3759 9.23807C21.3718 9.24086 21.3684 9.24459 21.3661 9.24895L20.4487 10.9618C20.4443 10.9699 20.4418 10.979 20.4416 10.9883C20.4413 10.9976 20.4433 11.0068 20.4473 11.0152C20.9808 12.1266 21.4359 13.1583 21.7041 14.3733C21.7051 14.3776 21.7073 14.3816 21.7104 14.3847C21.7135 14.3879 21.7174 14.3902 21.7217 14.3913C21.726 14.3924 21.7305 14.3923 21.7347 14.391C21.739 14.3898 21.7428 14.3874 21.7458 14.3841C22.1297 13.9538 22.2881 13.4954 22.5398 12.9886C22.5111 13.4571 22.4401 13.9052 22.327 14.333C22.1736 14.5174 22.0358 14.6966 21.9136 14.8707C21.838 14.9788 21.8066 15.0686 21.8194 15.1402C21.8547 15.3352 21.8823 15.5393 21.9023 15.7524C21.7886 16.0774 21.643 16.4093 21.4655 16.748C21.4716 16.1954 21.5016 15.8321 21.3942 15.4055C21.3931 15.4008 21.3907 15.3965 21.3874 15.393C21.3841 15.3894 21.38 15.3868 21.3754 15.3853C21.3707 15.3838 21.3658 15.3835 21.3609 15.3844C21.3561 15.3853 21.3516 15.3874 21.3478 15.3905C20.9791 15.6971 20.5727 15.9799 20.1286 16.2389L20.123 15.7018C20.4898 15.4899 20.8208 15.2557 21.1158 14.9991C21.3942 14.7563 21.2691 14.4572 21.1964 14.1497C20.9555 13.131 20.5858 12.1616 20.0873 11.2416C20.0856 11.2384 20.0831 11.2356 20.0802 11.2335C20.0772 11.2314 20.0738 11.2299 20.0702 11.2293C20.0666 11.2287 20.0629 11.2289 20.0593 11.2299C20.0558 11.2309 20.0526 11.2326 20.0498 11.235C19.5205 11.6922 18.9259 12.0274 18.2662 12.2405L15.9333 12.645L15.2611 12.7022C15.2375 12.7042 15.2151 12.7139 15.1975 12.7297C15.1799 12.7456 15.168 12.7667 15.1636 12.7899L15.0487 13.2969C15.0278 12.6785 15.0422 11.9191 15.0487 11.0157C15.0487 10.9557 15.0117 10.943 14.8875 10.943C14.9812 9.91645 15.0164 8.89817 14.993 7.88817C14.9928 7.8821 14.9908 7.87622 14.9872 7.87128C14.9836 7.86634 14.9786 7.86259 14.9728 7.86051L14.0794 7.55348C14.0625 7.54754 14.05 7.55254 14.0419 7.56848L12.3023 10.9416H11.7695L13.6781 7.3791C13.6862 7.36348 13.683 7.35067 13.6683 7.34067L12.967 6.86254C12.9545 6.8541 12.9422 6.85426 12.93 6.86301L12.1838 7.40524C11.3229 8.04666 10.4932 8.73873 9.69468 9.48145C9.68801 9.48769 9.68408 9.49631 9.68373 9.50544C9.68337 9.51456 9.68664 9.52346 9.69281 9.5302C10.1881 10.0677 10.7939 10.5575 11.4726 10.9416H10.5898L9.24093 9.93614C9.22907 9.92745 9.21446 9.92333 9.19975 9.92453C9.18504 9.92574 9.17121 9.93218 9.16077 9.9427L8.82046 10.2872L8.82468 9.68301C8.90062 9.59207 8.89921 9.50801 8.82046 9.43082L8.82609 8.5927L9.28734 9.14864C9.29859 9.16239 9.31124 9.16364 9.32531 9.15239L12.6333 6.52926C12.6442 6.52051 12.6462 6.51004 12.6394 6.49785L12.3127 5.91801C12.3067 5.90715 12.2974 5.8985 12.2861 5.89334C12.2749 5.88819 12.2623 5.88682 12.2503 5.88942C11.0703 6.12942 9.92796 6.48879 8.82327 6.96754L8.82093 6.49832L12.1205 5.42207C12.138 5.41645 12.1456 5.40442 12.1434 5.38598L12.0816 4.8741C12.0797 4.85785 12.0708 4.84832 12.0548 4.84551C11.0178 4.64847 9.97225 4.59537 8.91816 4.68621C8.6123 4.71746 8.30757 4.75834 8.00343 4.80332C7.92281 4.81551 7.88952 4.80942 7.87171 4.90317C7.78546 5.35223 7.77765 5.81114 7.84827 6.27989L7.40578 6.6966L7.28531 4.94395C7.28481 4.93759 7.28299 4.93141 7.27998 4.92579C7.27696 4.92017 7.2728 4.91524 7.26778 4.91132C7.26275 4.90739 7.25696 4.90456 7.25078 4.90299C7.2446 4.90143 7.23816 4.90117 7.23187 4.90223C6.21812 5.0816 5.24968 5.4027 4.32656 5.86551C4.03452 6.01176 3.89812 6.15285 3.85546 6.46879C3.73609 7.34942 3.7989 8.2116 4.0439 9.05535C4.046 9.06249 4.0497 9.06904 4.05472 9.07453C4.05974 9.08001 4.06595 9.08427 4.07287 9.08698C4.07979 9.0897 4.08724 9.09079 4.09465 9.09018C4.10206 9.08958 4.10923 9.08728 4.11562 9.08348L6.23015 7.8066L4.07156 9.9202C4.05734 9.93412 4.0461 9.95077 4.03852 9.96914C4.03095 9.98751 4.02719 10.0072 4.02749 10.0271L4.03499 10.4461L3.90046 10.1049C3.89359 10.0871 3.88202 10.0829 3.86577 10.0922C3.7339 10.1679 3.59687 10.2718 3.45468 10.4039C2.77968 11.0311 2.23359 11.7357 1.8164 12.5175C1.76202 12.6188 1.75124 12.7186 1.79062 12.8204C2.23562 13.9632 2.89265 15.0107 3.76171 15.9629C3.77796 15.9804 3.79281 15.9793 3.80624 15.9596L3.98671 15.6924L4.00687 15.691C4.02281 15.69 4.03077 15.6977 4.03077 15.7139C4.0314 16.0424 4.03109 16.3708 4.02984 16.6993C4.02984 16.7593 4.02234 16.8179 4.00734 16.875C3.9814 16.8797 3.96296 16.8924 3.95202 16.913C3.73015 17.3361 3.57421 17.7988 3.48421 18.301L3.13499 17.8186C3.25718 17.3708 3.39359 16.9524 3.54421 16.5633C3.54882 16.5512 3.55033 16.5382 3.54861 16.5253C3.54689 16.5125 3.542 16.5002 3.53437 16.4897C2.78859 15.4814 2.14546 14.5824 1.53656 13.3552C1.52937 13.3405 1.52156 13.3285 1.51312 13.3191C1.49124 13.2947 1.47765 13.2885 1.47234 13.3004C1.41234 12.7813 1.40077 12.2574 1.43765 11.7286L1.53796 11.9747C1.53927 11.9781 1.54148 11.981 1.54436 11.9832C1.54724 11.9853 1.55067 11.9867 1.5543 11.987C1.55792 11.9873 1.56159 11.9867 1.56491 11.9851C1.56823 11.9835 1.57107 11.9811 1.57312 11.978C2.18437 11.0818 2.85421 10.2469 3.68156 9.54004C3.68394 9.53792 3.68568 9.53513 3.68659 9.53199C3.6875 9.52885 3.68754 9.52547 3.68671 9.52223C3.38046 8.53348 3.28859 7.52317 3.41109 6.49129C3.41162 6.48658 3.41081 6.48181 3.40876 6.47753C3.40671 6.47325 3.4035 6.46963 3.39949 6.46709C3.39548 6.46455 3.39084 6.46318 3.38609 6.46315C3.38135 6.46312 3.37669 6.46443 3.37265 6.46692C3.16359 6.5966 2.96546 6.74145 2.77827 6.90145C2.77046 6.90832 2.7614 6.91223 2.75109 6.91317C2.74421 6.91379 2.73921 6.91551 2.73609 6.91832C2.72702 6.89176 2.72609 6.87176 2.73327 6.85832C2.90952 6.5352 3.10265 6.22692 3.31265 5.93348C3.43827 5.83785 3.52906 5.71223 3.58499 5.5566C3.86499 5.17192 4.18515 4.81942 4.54546 4.4991L4.12171 5.42348C4.11968 5.42771 4.119 5.43247 4.11975 5.4371C4.12051 5.44174 4.12266 5.44603 4.12593 5.4494C4.1292 5.45277 4.13343 5.45506 4.13804 5.45596C4.14264 5.45685 4.14742 5.45632 4.15171 5.45442C5.15437 5.01942 6.10218 4.76817 7.24546 4.47567C7.31765 4.45692 7.38562 4.42082 7.45124 4.38707C7.46369 4.38069 7.4736 4.37028 7.47937 4.35754C7.74374 3.75332 7.97906 3.26207 8.41546 2.75489C8.42765 2.74051 8.42468 2.73082 8.40656 2.72582C8.32093 2.70239 8.23359 2.69207 8.14452 2.69489C7.63124 2.70942 7.16062 2.78817 6.65062 2.86129C6.96687 2.66067 7.28671 2.4902 7.61015 2.34989L8.66029 2.30684C8.73179 2.30566 8.78737 2.29548 8.82702 2.27629C9.15609 2.11848 9.61296 1.8766 10.1976 1.55067C10.9867 1.4016 11.7762 1.36942 12.5662 1.4541ZM15.5953 4.88864L16.1259 4.10067L16.14 4.0941C16.1487 4.09004 16.1567 4.09114 16.1639 4.09739L16.5595 4.44004C16.5617 4.44192 16.5633 4.4443 16.5643 4.44697C16.5653 4.44964 16.5657 4.45251 16.5653 4.45534C16.5649 4.45817 16.5639 4.46086 16.5622 4.46318C16.5605 4.4655 16.5583 4.46737 16.5558 4.46864L16.1444 4.67151L15.6197 4.91723C15.6158 4.91887 15.6115 4.91924 15.6075 4.91828C15.6034 4.91732 15.5997 4.91508 15.597 4.91189C15.5943 4.90869 15.5926 4.90472 15.5923 4.90054C15.592 4.89635 15.5931 4.89219 15.5953 4.88864ZM15.652 5.18301L16.1962 5.0152L16.9251 4.83801C16.9483 4.83239 16.9659 4.83989 16.9781 4.86051L17.1478 5.1441C17.1508 5.14893 17.1524 5.15446 17.1524 5.16012C17.1525 5.16578 17.1511 5.17135 17.1482 5.17625C17.1454 5.18115 17.1413 5.18519 17.1363 5.18795C17.1314 5.1907 17.1258 5.19208 17.1202 5.19192L16.7379 5.18076C16.3501 5.1531 16.0423 5.14776 15.7125 5.24301C15.6774 5.25322 15.6488 5.25338 15.635 5.23408C15.6228 5.21693 15.6319 5.18939 15.652 5.18301ZM16.2764 5.53364C16.2883 5.51582 16.3492 5.50614 16.3851 5.51895C16.6589 5.52833 16.892 5.57395 17.1586 5.64145C17.2158 5.65598 17.2842 5.65176 17.3198 5.71551C17.326 5.72633 17.3287 5.73871 17.3278 5.75109C17.3268 5.76348 17.3222 5.77531 17.3144 5.78509C17.3067 5.79487 17.2963 5.80217 17.2844 5.80605C17.2725 5.80994 17.2597 5.81024 17.2477 5.80692L16.2764 5.53364ZM15.7012 5.62223C15.7085 5.62011 15.7162 5.6206 15.7228 5.62364L16.2764 5.86727L17.273 6.31973C17.2772 6.32164 17.281 6.32442 17.2841 6.32789C17.2872 6.33136 17.2895 6.33544 17.291 6.33989C17.2924 6.34433 17.2929 6.34904 17.2925 6.35372C17.2921 6.35839 17.2907 6.36294 17.2884 6.36707L17.1159 6.67504C17.1075 6.69004 17.0967 6.69192 17.0836 6.68067C16.6671 6.31384 16.1897 6.00963 15.7053 5.70775L15.6636 5.68176C15.6591 5.67916 15.6537 5.67824 15.6486 5.67915C15.6434 5.68006 15.6387 5.68276 15.6353 5.68676C15.6319 5.69077 15.63 5.69584 15.63 5.70109C15.6299 5.70634 15.6317 5.71144 15.635 5.71551L16.7667 6.98723C16.7792 7.00129 16.7775 7.01332 16.7616 7.02332L16.4212 7.23567C16.4144 7.24598 16.4023 7.2466 16.3851 7.23754C16.3767 7.23285 16.3698 7.22504 16.3645 7.2141C16.2211 6.90129 16.0631 6.59614 15.8906 6.29864C15.7716 6.09192 15.5977 5.91239 15.4444 5.72114C15.4322 5.70582 15.4355 5.69551 15.4542 5.6902L15.7012 5.62223ZM15.4434 7.95098C15.4444 7.93442 15.453 7.9252 15.4692 7.92332L16.2216 7.82864C16.2381 7.8302 16.2497 7.83848 16.2562 7.85348C16.8314 9.16035 17.3198 10.5104 17.6203 11.9039C17.6227 11.9151 17.6207 11.9268 17.6147 11.9365C17.6086 11.9462 17.599 11.9532 17.588 11.956C17.0323 12.0985 16.4653 12.1552 15.8869 12.1261L15.2962 12.0886C15.2794 12.0877 15.2709 12.0788 15.2709 12.0619C15.2686 11.9204 15.2573 11.7793 15.2625 11.6386C15.3091 10.4086 15.3694 9.17942 15.4434 7.95098ZM12.1341 4.40957C11.1016 4.25645 10.0611 4.20879 9.01265 4.2666L8.01234 4.34489C8.0093 4.34516 8.00624 4.34469 8.00342 4.34351C8.00061 4.34233 7.99812 4.34049 7.99618 4.33813C7.99424 4.33577 7.99291 4.33298 7.99229 4.32999C7.99167 4.327 7.9918 4.32391 7.99265 4.32098C8.13046 3.82973 8.45343 3.43832 8.74312 3.00801C9.03328 2.6902 9.49827 2.82895 9.86765 2.92785C10.7736 3.17035 11.6523 3.48817 12.5039 3.88129C12.5183 3.88785 12.5209 3.8977 12.5119 3.91082L12.1903 4.38473C12.1843 4.39372 12.1758 4.40081 12.1658 4.40521C12.1559 4.4096 12.1449 4.41111 12.1341 4.40957ZM11.0039 1.69879C11.3433 1.60504 11.6592 1.86004 11.9728 2.06348C12.5009 2.40567 12.9695 2.81582 13.3786 3.29395C13.3873 3.30426 13.3856 3.31239 13.3734 3.31832L12.8301 3.58645C12.8175 3.59266 12.8036 3.59578 12.7896 3.59554C12.7756 3.59529 12.7618 3.59169 12.7495 3.58504C11.7216 3.02676 10.6355 2.69395 9.50343 2.43942C9.48499 2.43535 9.48281 2.42692 9.49687 2.4141C9.87093 2.0766 10.4976 1.83942 11.0039 1.69879ZM14.1933 3.6441C14.1808 3.62785 14.1848 3.61942 14.2055 3.61879L14.7112 3.60614C14.7328 3.60551 14.7448 3.61598 14.7473 3.63754L14.8636 4.58207C14.8641 4.5857 14.8634 4.58941 14.8615 4.59254C14.8595 4.59566 14.8565 4.59799 14.853 4.59912C14.8495 4.60025 14.8458 4.6001 14.8424 4.59869C14.839 4.59728 14.8362 4.59472 14.8345 4.59145C14.6632 4.2688 14.4449 3.97868 14.2279 3.69021C14.2164 3.67484 14.2048 3.65947 14.1933 3.6441ZM15.8035 3.88429C15.8031 3.88692 15.8021 3.88943 15.8006 3.8916L15.2634 4.64676C15.2614 4.64944 15.2587 4.65145 15.2555 4.65253C15.2524 4.6536 15.249 4.65368 15.2457 4.65276C15.2425 4.65185 15.2397 4.64997 15.2376 4.64739C15.2355 4.64481 15.2342 4.64165 15.2339 4.63832L15.1627 3.71442C15.1625 3.71182 15.1629 3.70922 15.164 3.70683C15.165 3.70444 15.1666 3.70234 15.1686 3.70069C15.1707 3.69904 15.173 3.6979 15.1756 3.69735C15.1781 3.6968 15.1808 3.69687 15.1833 3.69754L15.7912 3.86629C15.7938 3.86695 15.7962 3.86822 15.7982 3.87C15.8001 3.87177 15.8016 3.874 15.8026 3.87649C15.8035 3.87898 15.8038 3.88165 15.8035 3.88429ZM14.4075 4.64817L13.3828 3.86395L13.38 3.86054L13.3792 3.85619L13.3805 3.85198L13.3837 3.84895L13.6519 3.69989C13.6697 3.68989 13.6858 3.69207 13.7001 3.70645C13.9798 3.98551 14.2206 4.29489 14.4225 4.63457C14.4237 4.63662 14.4242 4.63903 14.4239 4.6414C14.4235 4.64377 14.4224 4.64594 14.4206 4.64755C14.4188 4.64915 14.4165 4.65009 14.4142 4.65021C14.4118 4.65032 14.4094 4.6496 14.4075 4.64817ZM12.9343 4.14946C12.9382 4.14841 12.9424 4.1489 12.9459 4.15082L14.175 4.82676C14.1781 4.82876 14.1805 4.83179 14.1816 4.83534C14.1827 4.83888 14.1826 4.84271 14.1812 4.84616C14.1798 4.84961 14.1773 4.85247 14.174 4.85423C14.1707 4.856 14.1669 4.85656 14.1633 4.85582L12.7467 4.48739C12.7443 4.48674 12.7421 4.48554 12.7402 4.48388C12.7383 4.48221 12.7369 4.48013 12.736 4.4778C12.7351 4.47548 12.7347 4.47297 12.7349 4.47048C12.7352 4.46799 12.736 4.46559 12.7373 4.46348L12.9248 4.15645C12.927 4.153 12.9304 4.1505 12.9343 4.14946ZM12.7045 5.32739C12.6842 5.32864 12.6744 5.3191 12.675 5.29879L12.682 4.93176C12.6823 4.91614 12.69 4.90942 12.705 4.9116C13.1712 4.98192 13.6317 5.07848 14.0864 5.20129C14.0896 5.2022 14.0924 5.20421 14.0943 5.20696C14.0962 5.2097 14.097 5.21301 14.0968 5.21627C14.0965 5.21954 14.095 5.22257 14.0927 5.2248C14.0904 5.22704 14.0873 5.22834 14.0841 5.22848L12.7045 5.32739ZM12.8386 5.78395C13.3458 5.65926 13.8594 5.57035 14.3794 5.51723C14.3824 5.51674 14.3855 5.51735 14.388 5.51895C14.3906 5.52055 14.3926 5.52303 14.3935 5.52593C14.3944 5.52884 14.3942 5.53197 14.393 5.53477C14.3918 5.53756 14.3896 5.53982 14.3869 5.54114L13.1081 6.19739C13.0995 6.2018 13.0897 6.20323 13.0802 6.20145C13.0707 6.19966 13.062 6.19477 13.0556 6.18754C12.9562 6.07629 12.8789 5.9516 12.8236 5.81348C12.8224 5.81057 12.8219 5.80744 12.822 5.80431C12.8222 5.80118 12.823 5.79811 12.8244 5.79532C12.8258 5.79252 12.8278 5.79006 12.8303 5.7881C12.8327 5.78614 12.8356 5.78472 12.8386 5.78395ZM15.1725 5.76754C15.2031 5.75109 15.5288 6.38967 15.9966 7.32239C16.0044 7.33832 15.9994 7.34692 15.9816 7.34817L15.4219 7.38192C15.4142 7.38233 15.4066 7.3798 15.4007 7.37484C15.3947 7.36988 15.3909 7.36286 15.39 7.3552C15.345 6.99926 15.372 6.63707 15.3169 6.28129C15.289 6.10159 15.1419 5.78399 15.1725 5.76754ZM14.5955 5.75676L13.9683 6.87426C13.9643 6.88139 13.9581 6.88701 13.9506 6.89023C13.9431 6.89345 13.9348 6.8941 13.927 6.89207C13.7283 6.84051 13.5714 6.7302 13.4564 6.56114C13.4531 6.55642 13.4507 6.55109 13.4495 6.54543C13.4482 6.53978 13.4481 6.53393 13.4492 6.52822C13.4502 6.5225 13.4524 6.51704 13.4555 6.51215C13.4587 6.50726 13.4628 6.50304 13.4677 6.49973L14.5716 5.73473C14.5747 5.73279 14.5784 5.73193 14.582 5.73228C14.5857 5.73263 14.5892 5.73417 14.5919 5.73667C14.5946 5.73917 14.5964 5.74248 14.5971 5.74611C14.5977 5.74974 14.5971 5.75348 14.5955 5.75676ZM14.3114 7.06879L14.9522 5.94239C14.9644 5.92082 14.9711 5.92239 14.9723 5.94707C14.9766 6.0347 14.9835 6.12658 14.9905 6.22081C15.0164 6.56912 15.0447 6.94948 14.9555 7.26567C14.9517 7.27879 14.943 7.28567 14.9292 7.28629C14.7086 7.29535 14.5069 7.2402 14.3241 7.12082C14.3157 7.11558 14.3098 7.10726 14.3074 7.09758C14.3051 7.0879 14.3065 7.0776 14.3114 7.06879ZM17.933 5.79145C18.4489 5.86489 18.9598 6.00051 19.4658 6.19832C19.9267 6.35989 20.3319 6.55207 20.6812 6.77489C21.0783 7.02801 21.0042 7.76489 20.9766 8.17832C20.9764 8.18093 20.9755 8.18346 20.974 8.1856C20.9725 8.18774 20.9705 8.18941 20.9681 8.1904C20.9657 8.19139 20.9631 8.19166 20.9606 8.19118C20.9581 8.1907 20.9559 8.18949 20.9541 8.1877C20.5261 7.79487 20.0687 7.43786 19.5898 7.10953C19.0558 6.75025 18.497 6.43291 17.9133 6.15754C17.9074 6.15474 17.9025 6.15034 17.8991 6.14485C17.8956 6.13936 17.8939 6.13302 17.8941 6.1266L17.8959 5.82332C17.8962 5.79864 17.9086 5.78801 17.933 5.79145ZM17.8036 6.55364C18.3645 6.82395 18.8992 7.13254 19.4076 7.47942C19.9002 7.81442 20.3953 8.21614 20.8931 8.68457C20.9306 8.7202 20.9464 8.75582 20.9405 8.79145C20.8323 9.41489 20.5672 9.95942 20.145 10.425C20.1334 10.4375 20.1231 10.4364 20.1141 10.4218C19.4931 9.40801 18.78 8.4652 17.9747 7.59332L17.4966 7.06082C17.4914 7.05513 17.4882 7.04794 17.4874 7.04034C17.4867 7.03273 17.4884 7.02512 17.4923 7.01864L17.7619 6.56629C17.766 6.55936 17.7726 6.55422 17.7803 6.55188C17.788 6.54954 17.7963 6.55016 17.8036 6.55364ZM17.1814 7.37482C17.1877 7.37575 17.1935 7.37874 17.198 7.38332L17.6984 7.90747C18.4889 8.74308 19.2844 9.69496 19.762 10.7466C19.7712 10.767 19.7735 10.7898 19.7686 10.8116C19.7637 10.8334 19.7519 10.8531 19.7348 10.8675C19.2878 11.2485 18.7691 11.56 18.2102 11.745L18.1439 11.7647C18.1242 11.7704 18.1111 11.7636 18.1045 11.7446L16.6898 7.69785C16.6801 7.67004 16.6881 7.64879 16.7137 7.6341L17.1628 7.37817C17.1685 7.37506 17.175 7.37389 17.1814 7.37482Z" fill="url(#paint2_linear_930_6279)"/>
<path d="M8.23406 6.78378C8.23438 6.74034 8.21875 6.73362 8.18719 6.76362L4.65844 10.1888C4.64656 10.2003 4.64063 10.2144 4.64063 10.231L4.63406 19.3003C4.63406 19.3207 4.64141 19.3238 4.6561 19.3097L8.20266 15.8864C8.21547 15.8742 8.22188 15.8594 8.22188 15.8419L8.23406 6.78378Z" fill="url(#paint3_linear_930_6279)"/>
<path d="M7.57171 9.32769C7.57208 9.32002 7.57541 9.3128 7.58101 9.30755C7.58661 9.3023 7.59404 9.29943 7.60171 9.29956L8.05218 9.30706C8.05807 9.30719 8.06367 9.30961 8.06779 9.31382C8.07191 9.31802 8.07421 9.32368 8.07421 9.32956V10.3693C8.07422 10.3782 8.07074 10.3867 8.06452 10.3931C8.05831 10.3995 8.04984 10.4032 8.04093 10.4035L7.59187 10.4133C7.58636 10.4133 7.58106 10.4112 7.57712 10.4074C7.57317 10.4037 7.5709 10.3985 7.57078 10.3932C7.56914 10.0365 7.57711 9.69531 7.57171 9.32769Z" fill="white"/>
<path d="M7.51077 9.71579C7.51077 9.83594 7.50937 10.5586 7.50937 10.6884C7.50937 10.7391 7.51077 10.7648 7.48874 10.7616L7.03359 10.7648C7.0164 10.7648 7.0078 10.7563 7.0078 10.7391L7.0078 9.71587C7.0078 9.69837 7.01655 9.68899 7.03405 9.68774C7.18359 9.68767 7.34765 9.68948 7.49062 9.68954C7.50937 9.69235 7.51609 9.7011 7.51077 9.71579Z" fill="white"/>
<path d="M7.61578 11.6695C7.58453 11.663 7.56891 11.653 7.56891 11.6395C7.57072 11.2938 7.56891 10.9531 7.57219 10.6008C7.57344 10.5786 7.58532 10.5672 7.60782 10.5666L8.02922 10.5553C8.05672 10.5547 8.07047 10.5681 8.07047 10.5956L8.07094 11.632C8.07094 11.6536 8.06 11.6645 8.03813 11.6649L7.61578 11.6695Z" fill="white"/>
<path d="M7.57219 11.7783L8.02406 11.7773C8.04937 11.7773 8.06203 11.7898 8.06203 11.8148L8.06766 12.8433C8.06772 12.8479 8.06685 12.8526 8.06512 12.8569C8.06338 12.8612 8.0608 12.8651 8.05753 12.8684C8.05426 12.8718 8.05036 12.8744 8.04606 12.8762C8.04177 12.878 8.03716 12.8789 8.0325 12.8789H7.69359C7.64953 12.8833 7.61594 12.8812 7.59281 12.8728C7.57781 12.8672 7.57031 12.8564 7.57031 12.8405L7.57219 11.7783Z" fill="white"/>
<path d="M16.5422 12.8714C16.5294 12.8714 16.523 12.8778 16.523 12.8907L16.5239 17.8027C16.5239 17.8208 16.5173 17.8361 16.5042 17.8486L14.5148 19.7363C14.4867 19.7694 14.4612 19.7765 14.4384 19.7574L12.6342 18.256C12.5861 18.2156 12.5399 18.2177 12.4955 18.2621L10.486 20.2692C10.4821 20.2731 10.4791 20.2776 10.4771 20.2826C10.4751 20.2877 10.4741 20.2931 10.4743 20.2985C10.4745 20.3039 10.4758 20.3092 10.4781 20.3141C10.4804 20.319 10.4837 20.3233 10.4878 20.3269L13.3528 22.8197L15.5494 22.8155C15.5656 22.8155 15.5797 22.8099 15.5916 22.7986L19.5154 19.0707C19.5214 19.065 19.5261 19.0582 19.5293 19.0507C19.5325 19.0433 19.5342 19.0352 19.5342 19.0271L19.5347 12.8822C19.5347 12.8625 19.5248 12.8528 19.5051 12.8532L16.5422 12.8714Z" fill="url(#paint4_linear_930_6279)"/>
<path d="M18.7502 13.8058C18.7503 13.8114 18.7492 13.8169 18.7471 13.8221C18.7451 13.8273 18.742 13.832 18.738 13.8361C18.7341 13.8401 18.7295 13.8432 18.7243 13.8454C18.7192 13.8476 18.7136 13.8488 18.708 13.8489L18.2862 13.8533C18.2806 13.8533 18.275 13.8523 18.2698 13.8502C18.2646 13.8481 18.2599 13.845 18.2559 13.8411C18.2519 13.8372 18.2487 13.8325 18.2465 13.8274C18.2443 13.8222 18.2431 13.8167 18.2431 13.8111L18.237 13.2289C18.2369 13.2233 18.238 13.2178 18.24 13.2126C18.2421 13.2074 18.2452 13.2026 18.2491 13.1986C18.2531 13.1946 18.2577 13.1914 18.2629 13.1892C18.268 13.187 18.2736 13.1859 18.2792 13.1858L18.701 13.1814C18.7066 13.1813 18.7122 13.1824 18.7174 13.1845C18.7226 13.1866 18.7273 13.1897 18.7313 13.1936C18.7353 13.1975 18.7385 13.2022 18.7407 13.2073C18.7429 13.2125 18.7441 13.218 18.7441 13.2236L18.7502 13.8058Z" fill="white"/>
<path d="M18.7488 14.9894C18.7489 15.0008 18.7445 15.0118 18.7365 15.02C18.7284 15.0281 18.7175 15.0328 18.7061 15.0329L18.2861 15.0365C18.2747 15.0366 18.2636 15.0322 18.2555 15.0242C18.2473 15.0162 18.2427 15.0052 18.2426 14.9938L18.2337 13.972C18.2336 13.9605 18.238 13.9495 18.246 13.9414C18.2541 13.9332 18.265 13.9286 18.2764 13.9285L18.6964 13.9248C18.7078 13.9247 18.7189 13.9292 18.727 13.9372C18.7352 13.9452 18.7398 13.9561 18.7399 13.9676L18.7488 14.9894Z" fill="white"/>
<path d="M19.255 15.2941C19.2551 15.3055 19.2507 15.3165 19.2426 15.3247C19.2346 15.3328 19.2237 15.3375 19.2123 15.3376L18.8337 15.3412C18.8222 15.3413 18.8112 15.3369 18.8031 15.3289C18.7949 15.3209 18.7903 15.3099 18.7902 15.2985L18.7813 14.2767C18.7812 14.2652 18.7856 14.2542 18.7936 14.2461C18.8016 14.2379 18.8126 14.2333 18.824 14.2332L19.2026 14.2295C19.214 14.2294 19.225 14.2338 19.2332 14.2419C19.2414 14.2499 19.246 14.2608 19.2461 14.2722L19.255 15.2941Z" fill="white"/>
<path d="M19.248 14.1407C19.2481 14.1522 19.2436 14.1632 19.2356 14.1713C19.2276 14.1795 19.2167 14.1841 19.2052 14.1842L18.8267 14.1879C18.8152 14.188 18.8042 14.1835 18.796 14.1755C18.7879 14.1675 18.7833 14.1566 18.7832 14.1451L18.7839 13.133C18.7838 13.1215 18.7882 13.1105 18.7963 13.1024C18.8043 13.0942 18.8152 13.0896 18.8266 13.0895L19.2052 13.0858C19.2167 13.0857 19.2277 13.0902 19.2358 13.0982C19.244 13.1062 19.2486 13.1171 19.2487 13.1286L19.248 14.1407Z" fill="white"/>
<path fill-rule="evenodd" clip-rule="evenodd" d="M10.9842 11.52C10.9451 11.52 10.9269 11.5396 10.9294 11.5786C10.9836 12.4195 10.9314 13.2819 10.9355 14.1235C10.9356 14.1308 10.9342 14.1382 10.9314 14.145C10.9286 14.1519 10.9244 14.1581 10.919 14.1633L9.59576 15.4416L7.8103 17.1755L4.66831 20.2229C4.665 20.226 4.66253 20.23 4.66112 20.2343C4.65972 20.2387 4.65942 20.2434 4.66025 20.2479C4.66109 20.2524 4.66304 20.2566 4.66592 20.2602C4.66879 20.2637 4.67252 20.2665 4.67675 20.2683L7.90218 21.6258C7.93999 21.6499 7.97843 21.6641 8.01749 21.6685C8.0328 21.67 8.04608 21.6653 8.05733 21.6544L12.3328 17.5149L14.4206 15.4885C14.4371 15.4724 14.4502 15.4533 14.4591 15.4321C14.468 15.4109 14.4726 15.3882 14.4726 15.3652L14.4722 11.543C14.4722 11.5369 14.4697 11.5311 14.4654 11.5267C14.4611 11.5224 14.4553 11.52 14.4492 11.52H10.9842Z" fill="url(#paint5_linear_930_6279)"/>
<path d="M14.0633 12.7666C14.0633 12.7706 14.0625 12.7745 14.061 12.7782C14.0595 12.7819 14.0572 12.7853 14.0544 12.7881C14.0516 12.791 14.0482 12.7932 14.0445 12.7948C14.0408 12.7963 14.0369 12.7971 14.0329 12.7971L13.7188 12.7976C13.7107 12.7977 13.703 12.7945 13.6973 12.7888C13.6915 12.7831 13.6883 12.7753 13.6883 12.7672L13.6867 11.855C13.6867 11.851 13.6875 11.8471 13.689 11.8434C13.6905 11.8397 13.6928 11.8363 13.6956 11.8335C13.6984 11.8306 13.7018 11.8284 13.7055 11.8269C13.7092 11.8253 13.7131 11.8245 13.7171 11.8245L14.0312 11.824C14.0393 11.824 14.047 11.8272 14.0527 11.8329C14.0585 11.8386 14.0617 11.8463 14.0617 11.8544L14.0633 12.7666Z" fill="white"/>
<path d="M13.4806 13.0717C13.4805 13.0798 13.4773 13.0875 13.4716 13.0932C13.4658 13.0989 13.4581 13.1021 13.45 13.1021L13.1416 13.101C13.1376 13.101 13.1336 13.1002 13.1299 13.0986C13.1262 13.0971 13.1229 13.0948 13.1201 13.092C13.1172 13.0891 13.115 13.0858 13.1135 13.0821C13.112 13.0784 13.1112 13.0744 13.1112 13.0704L13.1144 12.1479C13.1145 12.1398 13.1177 12.1321 13.1234 12.1264C13.1292 12.1207 13.1369 12.1175 13.145 12.1176L13.4534 12.1186C13.4574 12.1186 13.4614 12.1194 13.4651 12.121C13.4688 12.1225 13.4721 12.1248 13.4749 12.1276C13.4778 12.1305 13.48 12.1338 13.4815 12.1375C13.483 12.1412 13.4838 12.1452 13.4838 12.1492L13.4806 13.0717Z" fill="white"/>
<path d="M14.0625 13.9795C14.0625 13.986 14.0599 13.9922 14.0554 13.9968C14.0508 14.0013 14.0446 14.0039 14.0381 14.0039H13.7119C13.7054 14.0039 13.6992 14.0013 13.6946 13.9968C13.6901 13.9922 13.6875 13.986 13.6875 13.9795V13.0673C13.6875 13.0609 13.6901 13.0547 13.6946 13.0501C13.6992 13.0455 13.7054 13.043 13.7119 13.043H14.0381C14.0446 13.043 14.0508 13.0455 14.0554 13.0501C14.0599 13.0547 14.0625 13.0609 14.0625 13.0673V13.9795Z" fill="white"/>
<defs>
<linearGradient id="paint0_linear_930_6279" x1="1.4166" y1="9.26659" x2="20.5509" y2="3.12478" gradientUnits="userSpaceOnUse">
<stop stop-color="#FECF14"/>
<stop offset="1" stop-color="#EC523B"/>
</linearGradient>
<linearGradient id="paint1_linear_930_6279" x1="1.4166" y1="9.26659" x2="20.5509" y2="3.12478" gradientUnits="userSpaceOnUse">
<stop stop-color="#FECF14"/>
<stop offset="1" stop-color="#EC523B"/>
</linearGradient>
<linearGradient id="paint2_linear_930_6279" x1="1.4166" y1="9.26659" x2="20.5509" y2="3.12478" gradientUnits="userSpaceOnUse">
<stop stop-color="#FECF14"/>
<stop offset="1" stop-color="#EC523B"/>
</linearGradient>
<linearGradient id="paint3_linear_930_6279" x1="4.63406" y1="14.6019" x2="8.70075" y2="14.0128" gradientUnits="userSpaceOnUse">
<stop stop-color="#FECF14"/>
<stop offset="1" stop-color="#EC523B"/>
</linearGradient>
<linearGradient id="paint4_linear_930_6279" x1="10.8178" y1="20.2639" x2="19.7997" y2="15.911" gradientUnits="userSpaceOnUse">
<stop stop-color="#FECF14"/>
<stop offset="1" stop-color="#EC523B"/>
</linearGradient>
<linearGradient id="paint5_linear_930_6279" x1="6.29906" y1="21.135" x2="14.5183" y2="16.6786" gradientUnits="userSpaceOnUse">
<stop stop-color="#FECF14"/>
<stop offset="1" stop-color="#EC523B"/>
</linearGradient>
</defs>
</svg>
