<svg width="24" height="24" viewBox="0 0 24 24" fill="none" xmlns="http://www.w3.org/2000/svg">
<path d="M24 12C24 5.37258 18.6274 0 12 0C5.37258 0 0 5.37258 0 12C0 18.6274 5.37258 24 12 24C18.6274 24 24 18.6274 24 12Z" fill="black"/>
<path fill-rule="evenodd" clip-rule="evenodd" d="M13.2384 4.11279L13.8552 0.1424C13.2456 0.048 12.6216 0 12 0H11.9904V8.1H12C12.3416 8.1 12.6792 8.14397 13.0048 8.23041L14.0528 4.28319C13.7848 4.212 13.5128 4.15599 13.2392 4.11279H13.2384ZM10.0472 8.62322L8.03114 5.15039H8.03034C7.79278 5.28881 7.56075 5.43839 7.33917 5.60002L4.93195 2.30161C5.43834 1.93201 5.97755 1.60001 6.53437 1.31441L8.36634 4.89042C8.73834 4.70081 9.12398 4.54001 9.52078 4.41041L8.27437 0.590409C8.87034 0.396011 9.48637 0.247211 10.1063 0.148811L10.7472 4.18161C10.476 4.22481 10.2064 4.28401 9.94078 4.35521L10.984 8.2328C10.6567 8.32078 10.3416 8.45278 10.0472 8.62322ZM1.29997 6.5625L4.93917 8.41528C4.752 8.7833 4.59278 9.16889 4.46558 9.5617L0.579975 8.30489C0.772777 7.70808 1.01518 7.12167 1.29997 6.5625ZM18.8472 8.0272L15.3752 10.0448C15.5464 10.3392 15.6776 10.6544 15.7656 10.9816L19.6432 9.9368C19.7144 10.2024 19.7736 10.472 19.8168 10.7424L23.8496 10.1C23.7512 9.48 23.6024 8.86397 23.4072 8.268L19.588 9.5168C19.4584 9.12 19.2976 8.73441 19.1072 8.36241L22.6824 6.528C22.3968 5.97117 22.0648 5.43277 21.6944 4.92637L18.3968 7.33519C18.5584 7.55677 18.7088 7.7888 18.8464 8.02641L18.8472 8.0272ZM17.4308 1.29664L17.4312 1.29681V1.29601L17.4308 1.29664ZM15.688 0.577608C16.2847 0.770372 16.871 1.01191 17.4308 1.29664L15.5808 4.93683C15.212 4.74961 14.8264 4.59041 14.4336 4.464L15.688 0.577608ZM15.9816 5.07928L13.9424 8.61769C14.2376 8.78808 14.5095 8.99606 14.7519 9.23766L20.4704 3.50007C20.0272 3.05767 19.5448 2.64727 19.0384 2.28008L16.68 5.53209C16.4551 5.36888 16.2224 5.21766 15.9816 5.07928ZM8.61923 10.0553L5.08162 8.01445H5.08083C5.22005 7.77445 5.37122 7.54167 5.53444 7.31686L2.28324 4.95684C2.65124 4.45045 3.06164 3.96885 3.50404 3.52565L9.24005 9.24563C8.99845 9.48806 8.78963 9.76003 8.61923 10.0553ZM4.28481 9.94327L8.2312 10.9937H8.23041C8.14402 11.3193 8.1 11.6577 8.1 12.0001H0C0 11.3769 0.0488002 10.7505 0.144 10.1385L4.1144 10.7569C4.15681 10.4833 4.2136 10.2113 4.28481 9.94327ZM19.0607 15.5847L22.7 17.4375C22.9848 16.8783 23.2272 16.2919 23.42 15.6951L19.5344 14.4383C19.4071 14.8311 19.248 15.2168 19.0607 15.5847ZM13.9528 15.3768L15.9688 18.8496L15.9696 18.8504C16.2072 18.712 16.4392 18.5624 16.6608 18.4008L19.068 21.6992C18.5616 22.0688 18.0224 22.4008 17.4656 22.6864L15.6336 19.1104C15.2616 19.3 14.876 19.4608 14.4792 19.5904L15.7256 23.4104C15.1296 23.6048 14.5136 23.7536 13.8936 23.852L13.2528 19.8184C13.524 19.7752 13.7936 19.716 14.0592 19.6448L13.016 15.7673C13.3432 15.6792 13.6584 15.5472 13.9528 15.3768ZM5.15287 15.9728L8.62486 13.9552C8.45367 13.6608 8.32247 13.3456 8.23448 13.0184L4.35688 14.0632C4.28568 13.7976 4.22648 13.528 4.18328 13.2576L0.149673 13.9C0.248073 14.52 0.396874 15.136 0.592073 15.732L4.41128 14.4832C4.54088 14.88 4.70166 15.2656 4.89206 15.6376L1.31687 17.472C1.60247 18.0288 1.93448 18.5672 2.30488 19.0736L5.6025 16.6648C5.44088 16.4432 5.2905 16.2112 5.15287 15.9736V15.9728ZM6.56906 22.7033L6.56873 22.7032V22.704L6.56906 22.7033ZM6.56906 22.7033C7.12898 22.9881 7.71525 23.2296 8.31197 23.4224L9.56634 19.536C9.17353 19.4095 8.78794 19.2503 8.41917 19.0632L6.56906 22.7033ZM8.01844 18.9208L8.01863 18.9204L8.01923 18.9208H8.01844ZM8.01863 18.9204L10.0576 15.3824C9.76242 15.212 9.49045 15.004 9.24802 14.7624L3.53043 20.5C3.97363 20.9423 4.45603 21.3528 4.96242 21.72L7.32084 18.468C7.54547 18.631 7.77806 18.7821 8.01863 18.9204ZM15.3817 13.9447L18.9193 15.9855V15.9863C18.78 16.2263 18.6289 16.4591 18.4657 16.6839L21.7169 19.044C21.3488 19.5503 20.9385 20.0319 20.496 20.4751L14.7608 14.7543C15.0024 14.5119 15.2113 14.2399 15.3817 13.9447ZM10.9952 15.7696L10.9952 15.7698L10.9944 15.7696H10.9952ZM10.9952 15.7698L9.9472 19.7168C10.2152 19.788 10.4872 19.844 10.7608 19.8872L10.144 23.8576C10.7536 23.952 11.3776 24 11.9992 24H12.0088V15.9H11.9992C11.6579 15.9 11.3205 15.8561 10.9952 15.7698ZM15.7696 13.0064C15.8559 12.681 15.9 12.3429 15.9 12.0008H24C24 12.624 23.9512 13.2504 23.856 13.8624L19.8864 13.2432C19.844 13.5168 19.7872 13.7888 19.716 14.0568L15.7696 13.0064Z" fill="white"/>
</svg>
