<svg width="24" height="24" viewBox="0 0 24 24" fill="none" xmlns="http://www.w3.org/2000/svg">
<g clip-path="url(#clip0_2046_6877)">
<path d="M12 24C18.6274 24 24 18.6274 24 12C24 5.37258 18.6274 0 12 0C5.37258 0 0 5.37258 0 12C0 18.6274 5.37258 24 12 24Z" fill="url(#paint0_radial_2046_6877)"/>
<path opacity="0.95" d="M20.5714 7.99993V15.9999C20.572 16.4277 20.4127 16.8403 20.1247 17.1566C19.8367 17.473 19.4409 17.6702 19.0149 17.7095C18.5889 17.749 18.1636 17.6276 17.8225 17.3694C17.4814 17.1112 17.2492 16.7349 17.1714 16.3142C17.1531 16.2104 17.1436 16.1053 17.1428 15.9999V14.6971C17.1397 14.3352 17.0223 13.9836 16.8072 13.6926C16.5921 13.4015 16.2904 13.186 15.9454 13.077C15.6003 12.9679 15.2296 12.9708 14.8863 13.0852C14.543 13.1997 14.2448 13.4199 14.0343 13.7142L13.1428 14.9656L11.7085 16.9771C11.4349 17.3249 11.0375 17.5535 10.5993 17.615C10.1611 17.6765 9.71608 17.5662 9.35734 17.3071C8.9986 17.048 8.75397 16.6602 8.67454 16.2249C8.59517 15.7896 8.68717 15.3404 8.9314 14.9714L14.6457 6.97136C14.8036 6.76073 15.0079 6.58936 15.2428 6.47044C15.4776 6.35153 15.7367 6.28827 16 6.28564H18.8571C19.3117 6.28564 19.7478 6.46627 20.0693 6.78776C20.3908 7.10924 20.5714 7.5453 20.5714 7.99993Z" fill="#FFFDFA"/>
<path opacity="0.95" d="M15.1429 17.1429C15.9318 17.1429 16.5714 16.5033 16.5714 15.7143C16.5714 14.9254 15.9318 14.2858 15.1429 14.2858C14.3539 14.2858 13.7143 14.9254 13.7143 15.7143C13.7143 16.5033 14.3539 17.1429 15.1429 17.1429Z" fill="#0D0A03"/>
<path opacity="0.95" d="M10.8571 6.28564H5.14281C4.68816 6.28564 4.25212 6.46627 3.93063 6.78776C3.60914 7.10924 3.42853 7.5453 3.42853 7.99993V15.9999C3.42918 16.3628 3.54494 16.716 3.75915 17.0089C3.97336 17.3018 4.27496 17.5191 4.62056 17.6296C4.96615 17.7402 5.3379 17.7382 5.68231 17.624C6.0267 17.5099 6.32601 17.2893 6.5371 16.9942L12.2514 8.99422C12.4338 8.73799 12.5422 8.43644 12.5648 8.12267C12.5873 7.8089 12.523 7.49502 12.3791 7.2153C12.2351 6.93564 12.017 6.70096 11.7485 6.53696C11.4801 6.37302 11.1717 6.28604 10.8571 6.28564ZM6.28567 10.2856C6.05961 10.2856 5.8387 10.2186 5.65073 10.093C5.46279 9.96747 5.31631 9.78896 5.22981 9.58016C5.14331 9.3713 5.12068 9.14153 5.16477 8.91982C5.20887 8.69816 5.31772 8.4945 5.47755 8.33467C5.63738 8.17484 5.84104 8.06599 6.0627 8.02187C6.28441 7.97782 6.51419 8.00044 6.72304 8.0869C6.93184 8.17342 7.11036 8.31993 7.2359 8.50787C7.3615 8.69582 7.42853 8.91673 7.42853 9.14279C7.42853 9.44587 7.30813 9.73656 7.09379 9.9509C6.87944 10.1652 6.58876 10.2856 6.28567 10.2856Z" fill="#0D0A03"/>
</g>
<defs>
<radialGradient id="paint0_radial_2046_6877" cx="0" cy="0" r="1" gradientUnits="userSpaceOnUse" gradientTransform="translate(12 12) scale(12)">
<stop offset="0.473958" stop-color="#FFC640"/>
<stop offset="1" stop-color="#F2AF13"/>
</radialGradient>
<clipPath id="clip0_2046_6877">
<rect width="24" height="24" fill="white"/>
</clipPath>
</defs>
</svg>
