<svg width="24" height="24" viewBox="0 0 24 24" fill="none" xmlns="http://www.w3.org/2000/svg">
<circle cx="12.0002" cy="12" r="12" fill="#172852"/>
<path d="M10.3352 16.3425C10.7852 18.0075 12.4052 19.2675 13.2152 19.2225C13.2377 19.2225 16.3202 18.6375 17.9852 15.8475C19.2902 13.665 18.8402 11.5725 17.0627 11.505C16.4327 11.55 9.48023 13.17 10.3352 16.3425ZM16.9052 5.63249C14.6102 3.69749 11.4152 3.24749 8.69273 4.46249C8.53523 4.52999 8.35523 4.61999 8.19773 4.70999C8.08523 4.77749 7.97273 4.82249 7.86023 4.88999H7.88273C7.56773 5.11499 7.29773 5.36249 7.05023 5.67749C4.84523 8.62499 12.3377 10.7625 16.3427 10.7625C18.1877 12.09 18.7052 7.04999 16.9052 5.63249Z" fill="#0E3CA5"/>
<path d="M9.14271 5.69998C8.10771 7.25248 4.68771 8.33248 4.12521 8.17498L4.19271 8.03998C4.57521 7.29748 5.09271 6.59998 5.67771 6.01498C5.97021 5.72248 6.28521 5.45248 6.64521 5.20498C6.84771 5.04748 7.07271 4.91248 7.29771 4.77748C7.63521 4.57498 8.01771 4.48498 8.42271 4.48498C9.95271 4.46248 9.14271 5.69998 9.14271 5.69998ZM8.28771 16.635C8.35521 17.13 8.28771 19.0425 8.17521 19.2C8.08521 19.2 7.90521 19.2225 7.38771 18.93C7.11771 18.7725 6.84771 18.615 6.60021 18.4125C6.26271 18.165 5.94771 17.895 5.63271 17.58C5.04771 16.995 4.53021 16.2975 4.14771 15.555C3.94521 15.1725 3.78771 14.79 3.65271 14.385C3.54021 13.98 3.45021 13.5525 3.38271 13.125C3.22521 12.2475 3.22521 11.3475 3.38271 10.47C3.45021 10.0425 3.54021 9.61498 3.67521 9.18748C3.69771 9.09748 3.72021 9.02998 3.76521 8.93998C4.35021 9.72748 5.04771 10.4475 5.63271 11.235C6.19521 12 6.96021 13.2375 7.09521 13.485C8.06271 15.1275 8.22021 16.14 8.28771 16.635ZM19.6952 11.7975C19.6952 12.8325 19.4927 13.845 19.1327 14.8125C18.1652 15.8475 11.6402 13.2825 11.5727 13.26C10.6727 12.8775 7.97271 11.685 7.72521 9.81748C7.36521 7.13998 12.8102 5.24998 15.2177 5.18248C15.5102 5.18248 16.3877 5.20498 16.8827 5.60998C18.6827 7.16248 19.6952 9.43498 19.6952 11.7975ZM15.2852 19.0875C14.5652 19.425 13.8002 19.1775 14.0027 18.48C14.3852 17.1525 17.8052 15.78 18.5477 15.7125C18.6377 15.7125 18.6827 15.7575 18.6377 15.8475C17.8502 17.22 16.6802 18.345 15.2852 19.0875Z" fill="#5493F7"/>
<path d="M6.89266 20.37C6.87016 20.685 7.09516 20.955 7.41016 21C14.3402 21.045 21.0002 20.73 21.0002 19.695C21.0002 16.545 6.89266 20.37 6.89266 20.37Z" fill="url(#paint0_linear_927_5650)"/>
<path d="M6.89266 20.37C6.87016 20.685 7.09516 20.955 7.41016 20.9775C14.3402 21.045 21.0002 20.82 21.0002 19.695C21.0002 16.545 6.89266 20.37 6.89266 20.37ZM7.43266 20.955H7.38766C7.16266 20.9325 6.98266 20.775 6.93766 20.55C6.98266 20.775 7.18516 20.955 7.43266 20.955C14.3402 20.91 20.8877 18.795 20.8877 19.7175C20.8877 20.64 14.3177 21 7.43266 20.955Z" fill="url(#paint1_linear_927_5650)"/>
<path d="M7.43266 11.505C7.14016 11.505 6.91516 11.73 6.91516 12.0225V20.37C6.91516 20.6625 7.14016 20.8875 7.43266 20.8875C14.3402 20.865 21.0002 18.57 21.0002 19.695V10.29C21.0002 9.16503 14.3402 11.46 7.43266 11.505Z" fill="url(#paint2_linear_927_5650)"/>
<path d="M13.7327 12.2925L14.4977 12.18C14.7452 12.135 14.9702 12.1125 15.1952 12.0675C15.4202 12.0225 15.6452 12 15.8477 11.9775L16.4777 11.8875L17.0852 11.775L17.6927 11.685L18.3002 11.595L18.9302 11.505C19.1327 11.4825 19.3352 11.46 19.6277 11.415C19.9202 11.37 20.2352 11.37 20.5277 11.37C20.7977 11.3925 21.0452 11.46 21.0452 11.6625V10.9875C21.0452 10.8075 20.8202 10.7175 20.5277 10.7175C20.2352 10.695 19.9202 10.7175 19.6277 10.7625C19.3577 10.785 19.1327 10.83 18.9302 10.8525L18.3002 10.9425L17.6927 11.0325L17.0852 11.1L16.4777 11.19L15.8477 11.28L15.1952 11.3925L14.4977 11.505L13.7327 11.6175" fill="url(#paint3_linear_927_5650)"/>
<path d="M13.7327 13.62L14.4977 13.5075L15.1952 13.395L15.8477 13.2825L16.4777 13.1925L17.0852 13.1025L17.6927 13.0125L18.3002 12.9225L18.9302 12.8325C19.1327 12.81 19.3352 12.7875 19.6277 12.7425C19.9202 12.6975 20.2352 12.6975 20.5277 12.6975C20.7977 12.72 21.0452 12.7875 21.0452 12.99V12.315C21.0452 12.135 20.8202 12.045 20.5277 12.045C20.2352 12.0225 19.9202 12.045 19.6277 12.09C19.3577 12.1125 19.1327 12.1575 18.9302 12.18L18.3002 12.27L17.6927 12.36L17.0852 12.45L16.4777 12.54L15.8477 12.63L15.1952 12.7425L14.4977 12.855L13.7327 12.9675" fill="url(#paint4_linear_927_5650)"/>
<path d="M13.7327 14.97L14.4977 14.8575L15.1952 14.745L15.8477 14.6325C16.0502 14.5875 16.2752 14.565 16.4777 14.5425L17.0852 14.4525L17.6927 14.3625L18.3002 14.2725L18.9302 14.1825C19.1327 14.16 19.3352 14.1375 19.6277 14.0925C19.9202 14.0475 20.2352 14.0475 20.5277 14.0475C20.7977 14.07 21.0452 14.1375 21.0452 14.34V13.665C21.0452 13.485 20.8202 13.395 20.5277 13.395C20.2352 13.3725 19.9202 13.395 19.6277 13.44C19.3577 13.4625 19.1327 13.5075 18.9302 13.53L18.3002 13.62L17.6927 13.71L17.0852 13.8L16.4777 13.89L15.8477 13.98L15.1952 14.0925L14.4977 14.205L13.7327 14.3175" fill="url(#paint5_linear_927_5650)"/>
<path d="M8.4452 18.0975L9.1652 18.075L9.8627 18.03L10.5377 17.985L11.1902 17.94L11.8202 17.8725L12.4502 17.805L13.0577 17.7375L13.6652 17.67L14.2727 17.58L14.8802 17.49L15.4877 17.4L16.1177 17.31L16.7477 17.22L17.4002 17.1075L18.0752 16.995C18.3002 16.95 18.5252 16.9275 18.7727 16.8825C19.0202 16.8375 19.2227 16.815 19.5152 16.7925C19.8302 16.7475 20.1452 16.7475 20.4602 16.7475C20.7527 16.77 21.0002 16.8375 21.0002 17.04V16.365C21.0002 16.1625 20.7752 16.095 20.4602 16.0725C20.1452 16.05 19.8077 16.0725 19.4927 16.1175C19.2002 16.14 18.9752 16.185 18.7502 16.2075C18.5252 16.23 18.3002 16.2525 18.0752 16.2975L17.4002 16.41L16.7477 16.5L16.1177 16.6125L15.4877 16.7025L14.8802 16.7925L14.2727 16.8825L13.6652 16.95L13.0577 17.0175L12.4502 17.13C12.2477 17.1525 12.0452 17.175 11.8202 17.1975L11.1902 17.265L10.5377 17.31C10.3127 17.3325 10.0877 17.355 9.8627 17.355C9.6377 17.355 9.4127 17.3775 9.1652 17.4L8.4452 17.4225C8.1977 17.4225 7.9502 17.445 7.6802 17.445H6.8927V18.12H7.6802L8.4452 18.0975Z" fill="url(#paint6_linear_927_5650)"/>
<path d="M8.4452 16.77C8.6927 16.77 8.9402 16.7475 9.1652 16.7475C9.3902 16.7475 9.6377 16.725 9.8627 16.7025L10.5377 16.6575L11.1902 16.59C11.4152 16.5675 11.6177 16.545 11.8202 16.5225L12.4502 16.455L13.0577 16.3875L13.6652 16.32L14.2727 16.23L14.8802 16.14L15.4877 16.05L16.1177 15.96L16.7477 15.87L17.4002 15.7575L18.0752 15.645C18.3002 15.6 18.5252 15.5775 18.7727 15.5325C19.0202 15.4875 19.2227 15.465 19.5152 15.4425C19.8302 15.3975 20.1452 15.375 20.4602 15.3975C20.7527 15.42 21.0002 15.4875 21.0002 15.69V15.015C21.0002 14.8125 20.7527 14.745 20.4602 14.7225C20.1452 14.7 19.8077 14.7225 19.4927 14.7675C19.2002 14.79 18.9752 14.835 18.7502 14.8575C18.5252 14.88 18.3002 14.925 18.0752 14.97L17.4002 15.0825L16.7477 15.195L16.1177 15.3075L15.4877 15.375L14.8802 15.465L14.2727 15.555L13.6652 15.645L13.0577 15.7125L12.4502 15.78C12.2477 15.8025 12.0452 15.825 11.8202 15.8475L11.1902 15.915L10.5377 15.96C10.3127 15.9825 10.0877 16.005 9.8627 16.005L9.1652 16.05L8.4452 16.0725C8.1977 16.0725 7.9502 16.095 7.6802 16.095H6.8927V16.77H8.4452Z" fill="url(#paint7_linear_927_5650)"/>
<path d="M20.4602 17.3775C20.1452 17.355 19.8077 17.3775 19.4927 17.4225C19.2002 17.4675 18.9752 17.49 18.7502 17.5125C18.5252 17.535 18.3002 17.58 18.0752 17.6025L17.4002 17.715L16.7477 17.85L16.1177 17.94L15.4877 18.03L14.8802 18.12L14.2727 18.21L13.6652 18.3L13.0577 18.3675L12.4502 18.4575C12.2477 18.48 12.0452 18.5025 11.8202 18.525L11.1902 18.5925L10.5377 18.6375C10.3127 18.66 10.0877 18.6825 9.8627 18.6825L9.1652 18.7275L8.4452 18.75C8.1977 18.75 7.9502 18.7725 7.6802 18.7725C7.4102 18.7725 7.1627 18.795 6.8927 18.795V19.47C7.1627 19.47 7.4327 19.47 7.6802 19.4475L8.4452 19.425L9.1652 19.4025L9.8627 19.3575L10.5377 19.3125L11.1902 19.2675L11.8202 19.2L12.4502 19.1325L13.0577 19.065L13.6652 18.9975L14.2727 18.9075L14.8802 18.8175L15.4877 18.7275L16.1177 18.6375L16.7477 18.5475L17.4002 18.435L18.0752 18.3225C18.3002 18.2775 18.5252 18.255 18.7727 18.21C19.0202 18.165 19.2227 18.1425 19.5152 18.12C19.8302 18.075 20.1677 18.0525 20.4827 18.075C20.7752 18.075 21.0002 18.1425 21.0002 18.345V17.67C21.0002 17.4675 20.7752 17.4 20.4602 17.3775Z" fill="url(#paint8_linear_927_5650)"/>
<path d="M21.0002 19.695V19.0425C20.9777 18.8625 20.7527 18.8175 20.4602 18.795C20.1452 18.7725 19.8077 18.795 19.4927 18.84C19.2002 18.885 18.9752 18.9075 18.7502 18.93C18.5252 18.9525 18.3002 18.9975 18.0752 19.0425L17.4002 19.155L16.7477 19.2675L16.1177 19.3575L15.4877 19.4475L14.8802 19.5375L14.2727 19.6275L13.6652 19.7175L13.0577 19.785L12.4502 19.8525C12.2477 19.875 12.0452 19.8975 11.8202 19.92L11.1902 19.9875L10.5377 20.0325C10.3127 20.055 10.0877 20.0775 9.8627 20.0775L9.1652 20.1225L8.4452 20.145C8.1977 20.145 7.9502 20.1675 7.6802 20.1675C7.4102 20.1675 7.1402 20.19 6.8927 20.19V20.3475C6.8927 20.64 7.1177 20.865 7.4102 20.865C14.3402 20.865 21.0002 18.57 21.0002 19.695Z" fill="url(#paint9_linear_927_5650)"/>
<path d="M8.40018 16.815L9.07518 16.7925L9.70518 16.7475L10.3352 16.7025L10.9427 16.6575C11.1452 16.635 11.3702 16.6125 11.5727 16.59L12.2477 16.5225L12.9677 16.4325L13.7552 16.32V10.965C11.6627 11.28 9.57018 11.4825 7.45518 11.505C7.16268 11.505 6.93768 11.73 6.93768 12.0225V16.8375H7.72518L8.40018 16.815Z" fill="url(#paint10_linear_927_5650)"/>
<path d="M8.44516 14.0925C8.44516 13.17 9.18766 12.4275 10.1102 12.4275C10.3127 12.4275 10.4927 12.4725 10.6952 12.54C9.84016 11.955 8.67016 12.18 8.10766 13.035C7.54516 13.89 7.74766 15.06 8.60266 15.6225C9.23266 16.05 10.0202 16.05 10.6502 15.645C9.77266 15.9375 8.82766 15.4875 8.53516 14.61C8.49016 14.4525 8.46766 14.2725 8.44516 14.0925Z" fill="url(#paint11_linear_927_5650)"/>
<path d="M12.2477 14.0925L13.0802 13.7325L12.1802 13.7775L12.7652 13.1025L11.9777 13.53L12.2027 12.675L11.6852 13.395L11.5052 12.5175L11.3477 13.395L10.8302 12.675L11.0552 13.53L10.2677 13.1025L10.8527 13.7775L9.9527 13.7325L10.7852 14.07L9.9527 14.43L10.8527 14.385L10.2677 15.06L11.0552 14.6325L10.8077 15.4875L11.3477 14.79L11.5052 15.645L11.6627 14.79L12.2027 15.4875L11.9777 14.655L12.7652 15.06L12.1802 14.385L13.0802 14.43L12.2477 14.0925Z" fill="url(#paint12_linear_927_5650)"/>
<defs>
<linearGradient id="paint0_linear_927_5650" x1="6.89964" y1="19.7308" x2="21.0002" y2="19.7308" gradientUnits="userSpaceOnUse">
<stop stop-color="#808080"/>
<stop offset="0.33" stop-color="#838383"/>
<stop offset="0.59" stop-color="#8D8D8D"/>
<stop offset="0.83" stop-color="#9E9E9E"/>
<stop offset="1" stop-color="#AFAFAF"/>
</linearGradient>
<linearGradient id="paint1_linear_927_5650" x1="13.95" y1="18.4548" x2="13.95" y2="20.9996" gradientUnits="userSpaceOnUse">
<stop offset="0.35" stop-color="#DFDFDF"/>
<stop offset="0.65" stop-color="#DDDDDD"/>
<stop offset="0.75" stop-color="#D6D6D6"/>
<stop offset="0.83" stop-color="#CBCBCB"/>
<stop offset="0.89" stop-color="#BABABA"/>
<stop offset="0.94" stop-color="#A4A4A4"/>
<stop offset="0.99" stop-color="#898989"/>
<stop offset="1" stop-color="#808080"/>
</linearGradient>
<linearGradient id="paint2_linear_927_5650" x1="6.90166" y1="15.4457" x2="21.0002" y2="15.4457" gradientUnits="userSpaceOnUse">
<stop stop-color="#BF1010"/>
<stop offset="0.02" stop-color="#C11212"/>
<stop offset="0.24" stop-color="#D22323"/>
<stop offset="0.49" stop-color="#DC2D2D"/>
<stop offset="0.79" stop-color="#DF3030"/>
<stop offset="0.84" stop-color="#DC2E2E"/>
<stop offset="0.88" stop-color="#D22626"/>
<stop offset="0.92" stop-color="#C11919"/>
<stop offset="0.95" stop-color="#A90808"/>
<stop offset="0.97" stop-color="#9F0000"/>
<stop offset="1" stop-color="#DF3030"/>
</linearGradient>
<linearGradient id="paint3_linear_927_5650" x1="13.7394" y1="11.4917" x2="21.0047" y2="11.4917" gradientUnits="userSpaceOnUse">
<stop stop-color="#DFDFDF"/>
<stop offset="0.02" stop-color="#E1E1E1"/>
<stop offset="0.24" stop-color="#F2F2F2"/>
<stop offset="0.49" stop-color="#FCFCFC"/>
<stop offset="0.79" stop-color="white"/>
<stop offset="0.84" stop-color="#FCFCFC"/>
<stop offset="0.88" stop-color="#F2F2F2"/>
<stop offset="0.92" stop-color="#E1E1E1"/>
<stop offset="0.95" stop-color="#C9C9C9"/>
<stop offset="0.97" stop-color="#BFBFBF"/>
<stop offset="1" stop-color="white"/>
</linearGradient>
<linearGradient id="paint4_linear_927_5650" x1="13.7394" y1="12.8339" x2="21.0047" y2="12.8339" gradientUnits="userSpaceOnUse">
<stop stop-color="#DFDFDF"/>
<stop offset="0.02" stop-color="#E1E1E1"/>
<stop offset="0.24" stop-color="#F2F2F2"/>
<stop offset="0.49" stop-color="#FCFCFC"/>
<stop offset="0.79" stop-color="white"/>
<stop offset="0.84" stop-color="#FCFCFC"/>
<stop offset="0.88" stop-color="#F2F2F2"/>
<stop offset="0.92" stop-color="#E1E1E1"/>
<stop offset="0.95" stop-color="#C9C9C9"/>
<stop offset="0.97" stop-color="#BFBFBF"/>
<stop offset="1" stop-color="white"/>
</linearGradient>
<linearGradient id="paint5_linear_927_5650" x1="13.7372" y1="14.1647" x2="21.0047" y2="14.1647" gradientUnits="userSpaceOnUse">
<stop stop-color="#DFDFDF"/>
<stop offset="0.02" stop-color="#E1E1E1"/>
<stop offset="0.24" stop-color="#F2F2F2"/>
<stop offset="0.49" stop-color="#FCFCFC"/>
<stop offset="0.79" stop-color="white"/>
<stop offset="0.84" stop-color="#FCFCFC"/>
<stop offset="0.88" stop-color="#F2F2F2"/>
<stop offset="0.92" stop-color="#E1E1E1"/>
<stop offset="0.95" stop-color="#C9C9C9"/>
<stop offset="0.97" stop-color="#BFBFBF"/>
<stop offset="1" stop-color="white"/>
</linearGradient>
<linearGradient id="paint6_linear_927_5650" x1="6.89495" y1="17.0866" x2="21.0047" y2="17.0866" gradientUnits="userSpaceOnUse">
<stop stop-color="#DFDFDF"/>
<stop offset="0.02" stop-color="#E1E1E1"/>
<stop offset="0.24" stop-color="#F2F2F2"/>
<stop offset="0.49" stop-color="#FCFCFC"/>
<stop offset="0.79" stop-color="white"/>
<stop offset="0.84" stop-color="#FCFCFC"/>
<stop offset="0.88" stop-color="#F2F2F2"/>
<stop offset="0.92" stop-color="#E1E1E1"/>
<stop offset="0.95" stop-color="#C9C9C9"/>
<stop offset="0.97" stop-color="#BFBFBF"/>
<stop offset="1" stop-color="white"/>
</linearGradient>
<linearGradient id="paint7_linear_927_5650" x1="6.89945" y1="15.7456" x2="21.0047" y2="15.7456" gradientUnits="userSpaceOnUse">
<stop stop-color="#DFDFDF"/>
<stop offset="0.02" stop-color="#E1E1E1"/>
<stop offset="0.24" stop-color="#F2F2F2"/>
<stop offset="0.49" stop-color="#FCFCFC"/>
<stop offset="0.79" stop-color="white"/>
<stop offset="0.84" stop-color="#FCFCFC"/>
<stop offset="0.88" stop-color="#F2F2F2"/>
<stop offset="0.92" stop-color="#E1E1E1"/>
<stop offset="0.95" stop-color="#C9C9C9"/>
<stop offset="0.97" stop-color="#BFBFBF"/>
<stop offset="1" stop-color="white"/>
</linearGradient>
<linearGradient id="paint8_linear_927_5650" x1="6.8927" y1="18.4298" x2="21.0002" y2="18.4298" gradientUnits="userSpaceOnUse">
<stop stop-color="#DFDFDF"/>
<stop offset="0.02" stop-color="#E1E1E1"/>
<stop offset="0.24" stop-color="#F2F2F2"/>
<stop offset="0.49" stop-color="#FCFCFC"/>
<stop offset="0.79" stop-color="white"/>
<stop offset="0.84" stop-color="#FCFCFC"/>
<stop offset="0.88" stop-color="#F2F2F2"/>
<stop offset="0.92" stop-color="#E1E1E1"/>
<stop offset="0.95" stop-color="#C9C9C9"/>
<stop offset="0.97" stop-color="#BFBFBF"/>
<stop offset="1" stop-color="white"/>
</linearGradient>
<linearGradient id="paint9_linear_927_5650" x1="6.89495" y1="19.8485" x2="21.0002" y2="19.8485" gradientUnits="userSpaceOnUse">
<stop stop-color="#DFDFDF"/>
<stop offset="0.02" stop-color="#E1E1E1"/>
<stop offset="0.24" stop-color="#F2F2F2"/>
<stop offset="0.49" stop-color="#FCFCFC"/>
<stop offset="0.79" stop-color="white"/>
<stop offset="0.84" stop-color="#FCFCFC"/>
<stop offset="0.88" stop-color="#F2F2F2"/>
<stop offset="0.92" stop-color="#E1E1E1"/>
<stop offset="0.95" stop-color="#C9C9C9"/>
<stop offset="0.97" stop-color="#BFBFBF"/>
<stop offset="1" stop-color="white"/>
</linearGradient>
<linearGradient id="paint10_linear_927_5650" x1="6.90168" y1="13.908" x2="21.0002" y2="13.908" gradientUnits="userSpaceOnUse">
<stop stop-color="#010066"/>
<stop offset="0.19" stop-color="#081580"/>
<stop offset="0.4" stop-color="#0E2896"/>
<stop offset="0.61" stop-color="#1233A3"/>
<stop offset="0.79" stop-color="#1337A8"/>
<stop offset="0.83" stop-color="#1234A5"/>
<stop offset="0.86" stop-color="#0F2C9B"/>
<stop offset="0.89" stop-color="#0B1E8A"/>
<stop offset="0.92" stop-color="#040A72"/>
<stop offset="0.93" stop-color="#010066"/>
</linearGradient>
<linearGradient id="paint11_linear_927_5650" x1="7.41691" y1="14.1056" x2="12.3939" y2="14.0516" gradientUnits="userSpaceOnUse">
<stop stop-color="#FFCC00"/>
<stop offset="0.04" stop-color="#FFCC00"/>
<stop offset="0.47" stop-color="#FFCC00"/>
<stop offset="0.6" stop-color="#FFC902"/>
<stop offset="0.71" stop-color="#FFBF09"/>
<stop offset="0.81" stop-color="#FFAE15"/>
<stop offset="0.87" stop-color="#FF9F20"/>
</linearGradient>
<linearGradient id="paint12_linear_927_5650" x1="9.5747" y1="14.1038" x2="14.8577" y2="14.0453" gradientUnits="userSpaceOnUse">
<stop stop-color="#FFCC00"/>
<stop offset="0.04" stop-color="#FFCC00"/>
<stop offset="0.47" stop-color="#FFCC00"/>
<stop offset="0.65" stop-color="#FFC902"/>
<stop offset="0.79" stop-color="#FFBF09"/>
<stop offset="0.92" stop-color="#FFAE15"/>
<stop offset="1" stop-color="#FF9F20"/>
</linearGradient>
</defs>
</svg>
