<svg width="24" height="24" viewBox="0 0 24 24" fill="none" xmlns="http://www.w3.org/2000/svg">
<circle cx="12" cy="12" r="12" fill="#002E33"/>
<path d="M12.0035 23C5.93618 23 1 18.0654 1 12H2.89596C2.89596 17.0205 6.98185 21.1051 12.0039 21.1051L12.0035 23Z" fill="#CBF7EE"/>
<path d="M23 12H21.104C21.1045 6.9793 17.0188 2.89536 11.9965 2.89536V1C18.0638 1 23 5.9344 23 12Z" fill="#CBF7EE"/>
<path d="M15.8576 10.9562C15.5766 9.12886 14.0263 7.7787 12.0925 7.7787C10.1173 7.7787 8.50598 9.11013 8.10359 10.9564H6.38273V12.3345H8.03087C8.25549 14.4653 9.99375 16.0307 12.125 16.0307C13.7627 16.0307 15.0916 15.382 15.6763 14.3121L14.2329 13.3881C13.8602 14.0042 13.0491 14.3931 12.1571 14.3931C10.8761 14.3931 10.0004 13.6151 9.80593 12.3345H17.1366L17.5916 10.9564L15.8576 10.9562ZM11.9952 9.27024C13.0817 9.27024 13.9086 9.96706 14.006 10.9562H9.87062C10.1463 9.91934 10.9087 9.27024 11.9952 9.27024Z" fill="#CBF7EE"/>
</svg>
