<svg width="24" height="24" viewBox="0 0 24 24" fill="none" xmlns="http://www.w3.org/2000/svg">
<circle cx="12" cy="12" r="12" fill="#424242"/>
<path fill-rule="evenodd" clip-rule="evenodd" d="M3.5822 12.0776C3.55635 11.8225 3.5431 11.5636 3.5431 11.3017C3.5431 7.10246 6.94728 3.69828 11.1466 3.69828C12.2998 3.69828 13.3931 3.95503 14.3724 4.41449C17.9973 4.99344 20.7672 8.13444 20.7672 11.9224C20.7672 13.5172 20.2762 14.9974 19.4371 16.2199C18.2266 18.8142 15.5948 20.6121 12.5431 20.6121C12.0146 20.6121 11.4988 20.5582 11.0007 20.4555C6.86872 20.3778 3.5431 17.004 3.5431 12.8534C3.5431 12.5915 3.55635 12.3327 3.5822 12.0776ZM3.69828 11.3017C3.69828 7.18815 7.03298 3.85345 11.1466 3.85345C12.0879 3.85345 12.9884 4.02807 13.8175 4.34668C13.7791 4.34341 13.7407 4.34042 13.7021 4.33773C13.1787 4.22381 12.6351 4.16379 12.0776 4.16379C9.50958 4.16379 7.23893 5.43687 5.86231 7.38633C4.78285 8.4299 4.01158 9.79026 3.69829 11.3176C3.69828 11.3123 3.69828 11.307 3.69828 11.3017ZM15.0001 4.74575C14.9567 4.72015 14.9129 4.69498 14.8689 4.67023C18.1608 5.44121 20.6121 8.39554 20.6121 11.9224C20.6121 13.1564 20.312 14.3203 19.7808 15.3451C20.0183 14.609 20.1466 13.8238 20.1466 13.0086C20.1466 11.834 19.8802 10.7217 19.4046 9.72859C18.7778 7.47074 17.1353 5.63548 15.0001 4.74575ZM14.9307 4.88496C14.5302 4.71875 14.1121 4.58648 13.6799 4.49174C13.5094 4.48007 13.3373 4.47414 13.1638 4.47414C11.8406 4.47414 10.5981 4.81915 9.52115 5.42412C10.0448 5.31008 10.5887 5.25 11.1466 5.25C11.675 5.25 12.1909 5.30391 12.689 5.40654C14.4136 5.439 15.9977 6.04565 17.2582 7.04333C16.6471 6.16789 15.8527 5.42989 14.9307 4.88496ZM17.6702 7.39385C17.2109 6.62876 16.6209 5.95114 15.9309 5.3919C17.2921 6.21637 18.368 7.46444 18.976 8.95333C18.6116 8.37646 18.1717 7.85201 17.6702 7.39385ZM17.5488 7.4931C16.4488 6.49424 15.0488 5.81989 13.5 5.62125C16.0727 6.45787 18.0433 8.62902 18.5948 11.3176C18.5948 11.3123 18.5948 11.307 18.5948 11.3017C18.5948 9.91005 18.2131 8.60752 17.5488 7.4931ZM18.7109 12.0776C18.7368 11.8225 18.75 11.5636 18.75 11.3017C18.75 10.0656 18.455 8.8983 17.9316 7.8665C18.4683 8.42877 18.9179 9.07491 19.2587 9.78327C19.4328 10.4149 19.5259 11.0802 19.5259 11.7672C19.5259 13.5798 18.8784 15.2411 17.8022 16.5326C18.4061 15.4423 18.75 14.1881 18.75 12.8534C18.75 12.5915 18.7368 12.3327 18.7109 12.0776ZM18.5549 12.0776C18.2195 8.83735 15.8069 6.21379 12.6716 5.56143C12.6288 5.56071 12.586 5.56034 12.5431 5.56034C9.99642 5.56034 7.74825 6.83846 6.40507 8.78824C5.96254 9.74091 5.71552 10.8028 5.71552 11.9224C5.71552 14.8985 7.46103 17.467 9.98415 18.6598C10.3629 18.7192 10.7511 18.75 11.1466 18.75C14.9981 18.75 18.1669 15.8266 18.5549 12.0776ZM10.4928 18.8775C10.7083 18.8958 10.9263 18.9052 11.1466 18.9052C14.8197 18.9052 17.8845 16.3006 18.5948 12.8376C18.5948 12.8429 18.5948 12.8482 18.5948 12.8534C18.5948 14.4462 18.0949 15.9221 17.2434 17.133C15.9043 18.4225 14.0835 19.2155 12.0776 19.2155C11.9041 19.2155 11.732 19.2096 11.5615 19.1979C11.1944 19.1174 10.8374 19.0099 10.4928 18.8775ZM9.4414 18.5539C7.12505 17.2509 5.56034 14.7694 5.56034 11.9224C5.56034 11.1073 5.68862 10.322 5.9261 9.58589C5.39491 10.6107 5.09483 11.7746 5.09483 13.0086C5.09483 13.6956 5.18784 14.3609 5.36197 14.9926C6.00269 16.3242 7.02783 17.436 8.29348 18.184C8.66211 18.337 9.04568 18.4612 9.4414 18.5539ZM9.29364 18.6778C9.50505 18.7307 9.71997 18.7748 9.93799 18.8097C10.1254 18.8976 10.3169 18.9781 10.5123 19.0508C10.0918 18.9608 9.68451 18.8354 9.29364 18.6778ZM7.29322 17.6771C6.64792 17.154 6.08998 16.5274 5.6447 15.8225C5.78569 16.1678 5.95185 16.5001 6.14089 16.8172C6.49551 17.1393 6.8813 17.4276 7.29322 17.6771ZM6.43143 17.267C6.97388 17.6964 7.57628 18.0533 8.22402 18.3232C9.2086 18.9032 10.3353 19.2677 11.5393 19.3519C12.0627 19.4658 12.6062 19.5259 13.1638 19.5259C13.7217 19.5259 14.2655 19.4658 14.7892 19.3517C13.7123 19.9567 12.4697 20.3017 11.1466 20.3017C11.1036 20.3017 11.0608 20.3014 11.0181 20.3006C9.12738 19.9072 7.49947 18.797 6.43143 17.267ZM6.01942 16.9165C6.95444 18.474 8.43144 19.6691 10.1896 20.2408C6.52801 19.7712 3.69828 16.6428 3.69828 12.8534C3.69828 12.8482 3.69828 12.8429 3.69829 12.8376C4.02658 14.438 4.85774 15.8551 6.01942 16.9165ZM5.75808 16.4438C4.6496 15.2826 3.9127 13.7636 3.7382 12.0776C3.89441 10.5684 4.50128 9.19291 5.42193 8.08812C4.81799 9.17835 4.47414 10.4326 4.47414 11.7672C4.47414 12.9418 4.74048 14.0542 5.21605 15.0473C5.35124 15.5342 5.53367 16.0015 5.75808 16.4438ZM5.98071 7.48772C5.12923 8.69856 4.62931 10.1745 4.62931 11.7672C4.62931 12.6128 4.7702 13.4254 5.02978 14.1829C4.97045 13.8002 4.93966 13.408 4.93966 13.0086C4.93966 11.4138 5.43067 9.93364 6.26977 8.7111C6.79574 7.58388 7.59004 6.60702 8.57051 5.86267C7.59493 6.22228 6.71536 6.78028 5.98071 7.48772ZM12.5431 20.4569C15.2034 20.4569 17.5379 19.0622 18.8554 16.9642C17.9196 18.0198 16.6945 18.8133 15.3044 19.2204C14.2938 19.8817 13.1161 20.3089 11.8484 20.4249C12.0772 20.4461 12.3089 20.4569 12.5431 20.4569ZM19.9914 13.0086C19.9914 12.1631 19.8505 11.3505 19.5909 10.5929C19.6502 10.9757 19.681 11.3679 19.681 11.7672C19.681 13.9134 18.7919 15.8519 17.3618 17.2344C16.9103 17.8737 16.3626 18.4404 15.7398 18.9132C17.1948 18.3769 18.4362 17.3993 19.3018 16.1428C19.7444 15.1901 19.9914 14.1282 19.9914 13.0086ZM11.1466 5.40517C11.3808 5.40517 11.6125 5.41598 11.8412 5.43714C9.86015 5.61846 8.0989 6.55971 6.85149 7.96686C7.42043 7.06086 8.17901 6.28603 9.07158 5.69803C9.73023 5.50736 10.4265 5.40517 11.1466 5.40517ZM6.48955 6.84261C7.23114 6.26721 8.08208 5.82602 9.00592 5.55549C10.0579 4.86711 11.2908 4.43241 12.6179 4.33826C12.4394 4.32547 12.2593 4.31897 12.0776 4.31897C9.85199 4.31897 7.85438 5.29511 6.48955 6.84261ZM16.7346 17.7781C15.5826 18.6719 14.1666 19.2419 12.6235 19.3514C12.8019 19.3642 12.9821 19.3707 13.1638 19.3707C13.8839 19.3707 14.5801 19.2685 15.2388 19.0778C15.7936 18.7123 16.2967 18.2746 16.7346 17.7781Z" fill="white"/>
<path d="M13.2414 3.93103C13.2414 4.44523 12.8245 4.86207 12.3103 4.86207C11.7961 4.86207 11.3793 4.44523 11.3793 3.93103C11.3793 3.41684 11.7961 3 12.3103 3C12.8245 3 13.2414 3.41684 13.2414 3.93103Z" fill="white"/>
<path d="M4.86207 12C4.86207 12.5142 4.44523 12.931 3.93103 12.931C3.41684 12.931 3 12.5142 3 12C3 11.4858 3.41684 11.069 3.93103 11.069C4.44523 11.069 4.86207 11.4858 4.86207 12Z" fill="white"/>
<path d="M16.5 18.5172C16.5 19.0314 16.0832 19.4483 15.569 19.4483C15.0548 19.4483 14.6379 19.0314 14.6379 18.5172C14.6379 18.003 15.0548 17.5862 15.569 17.5862C16.0832 17.5862 16.5 18.003 16.5 18.5172Z" fill="white"/>
<path d="M20.069 16.1121C20.069 16.4977 19.7563 16.8103 19.3707 16.8103C18.985 16.8103 18.6724 16.4977 18.6724 16.1121C18.6724 15.7264 18.985 15.4138 19.3707 15.4138C19.7563 15.4138 20.069 15.7264 20.069 16.1121Z" fill="white"/>
<path d="M21 10.1379C21 10.395 20.7916 10.6034 20.5345 10.6034C20.2774 10.6034 20.069 10.395 20.069 10.1379C20.069 9.88083 20.2774 9.67241 20.5345 9.67241C20.7916 9.67241 21 9.88083 21 10.1379Z" fill="white"/>
<path d="M19.2931 11.9224C19.2931 12.2224 19.0499 12.4655 18.75 12.4655C18.4501 12.4655 18.2069 12.2224 18.2069 11.9224C18.2069 11.6225 18.4501 11.3793 18.75 11.3793C19.0499 11.3793 19.2931 11.6225 19.2931 11.9224Z" fill="white"/>
<path d="M8.27586 17.1207C8.27586 17.4635 7.99797 17.7414 7.65517 17.7414C7.31237 17.7414 7.03448 17.4635 7.03448 17.1207C7.03448 16.7779 7.31237 16.5 7.65517 16.5C7.99797 16.5 8.27586 16.7779 8.27586 17.1207Z" fill="white"/>
<path d="M5.32759 15.2586C5.32759 15.5157 5.11917 15.7241 4.86207 15.7241C4.60497 15.7241 4.39655 15.5157 4.39655 15.2586C4.39655 15.0015 4.60497 14.7931 4.86207 14.7931C5.11917 14.7931 5.32759 15.0015 5.32759 15.2586Z" fill="white"/>
<path d="M6.10345 18.0517C6.10345 18.3088 5.89503 18.5172 5.63793 18.5172C5.38083 18.5172 5.17241 18.3088 5.17241 18.0517C5.17241 17.7946 5.38083 17.5862 5.63793 17.5862C5.89503 17.5862 6.10345 17.7946 6.10345 18.0517Z" fill="white"/>
<path d="M12.7759 20.1466C12.7759 20.3608 12.6022 20.5345 12.3879 20.5345C12.1737 20.5345 12 20.3608 12 20.1466C12 19.9323 12.1737 19.7586 12.3879 19.7586C12.6022 19.7586 12.7759 19.9323 12.7759 20.1466Z" fill="white"/>
<path d="M8.89655 6.80172C8.89655 7.01597 8.72287 7.18965 8.50862 7.18965C8.29437 7.18965 8.12069 7.01597 8.12069 6.80172C8.12069 6.58748 8.29437 6.41379 8.50862 6.41379C8.72287 6.41379 8.89655 6.58748 8.89655 6.80172Z" fill="white"/>
<path d="M16.0345 6.02586C16.0345 6.41151 15.7219 6.72414 15.3362 6.72414C14.9506 6.72414 14.6379 6.41151 14.6379 6.02586C14.6379 5.64021 14.9506 5.32759 15.3362 5.32759C15.7219 5.32759 16.0345 5.64021 16.0345 6.02586Z" fill="white"/>
<path d="M19.2931 6.80172C19.2931 7.10167 19.0499 7.34483 18.75 7.34483C18.4501 7.34483 18.2069 7.10167 18.2069 6.80172C18.2069 6.50178 18.4501 6.25862 18.75 6.25862C19.0499 6.25862 19.2931 6.50178 19.2931 6.80172Z" fill="white"/>
<path d="M7.03448 5.40517C7.03448 5.70512 6.79133 5.94828 6.49138 5.94828C6.19143 5.94828 5.94828 5.70512 5.94828 5.40517C5.94828 5.10522 6.19143 4.86207 6.49138 4.86207C6.79133 4.86207 7.03448 5.10522 7.03448 5.40517Z" fill="white"/>
</svg>
