<svg width="24" height="24" viewBox="0 0 24 24" fill="none" xmlns="http://www.w3.org/2000/svg">
<circle cx="12" cy="12" r="12" fill="#172852"/>
<path d="M10.3316 16.3337C10.7816 17.9987 12.3962 19.2689 13.2116 19.2162C13.2402 19.2144 16.3043 18.6431 17.9816 15.8412C19.2866 13.6603 18.8425 11.555 17.0672 11.5088C16.4285 11.5556 9.47461 13.1624 10.3321 16.3342L10.3316 16.3337ZM16.9016 5.64061L16.8998 5.63904L16.9023 5.63746C15.7841 4.68634 14.4199 4.07048 12.9669 3.86085C11.5139 3.65123 10.0313 3.85636 8.68981 4.45261C8.52007 4.52317 8.35477 4.60395 8.19481 4.69449C8.08546 4.75254 7.97611 4.81059 7.86991 4.87449L7.89578 4.88236C7.58172 5.09613 7.30405 5.35898 7.07341 5.66086C4.83871 8.61466 12.3344 10.7625 16.3425 10.769C18.1855 12.0927 18.703 7.04281 16.9016 5.64061Z" fill="#0E3CA5"/>
<path d="M9.14249 5.7C8.11267 7.24823 4.68254 8.3388 4.11847 8.16893L4.11464 8.16173C4.13714 8.11515 4.16122 8.06858 4.18507 8.02245C4.77001 6.8958 5.60696 5.91925 6.63082 5.16878C6.84187 5.01428 7.06034 4.8696 7.28624 4.73475C7.6339 4.54297 8.02325 4.4393 8.42024 4.4328C9.94777 4.46205 9.15014 5.6883 9.14182 5.70068L9.14249 5.7ZM8.29739 16.6382C8.37142 17.1244 8.29559 19.0457 8.19614 19.2072C8.11042 19.2124 7.93199 19.2234 7.41517 18.9334C5.76487 17.9917 4.49165 16.5076 3.812 14.7333C3.13235 12.9589 3.08823 11.004 3.68714 9.20078C3.71459 9.11813 3.74332 9.03615 3.77332 8.95485C4.36529 9.74235 5.05042 10.4547 5.63272 11.2499C6.18734 12.007 6.95032 13.2416 7.10557 13.5053C8.06947 15.1426 8.22314 16.1528 8.29672 16.6384L8.29739 16.6382ZM19.6925 11.7975C19.6936 12.8295 19.4996 13.8525 19.1208 14.8125C18.1533 15.852 11.6321 13.2931 11.5682 13.2652C10.6761 12.8746 7.96124 11.685 7.71622 9.8175C7.36499 7.12898 12.8167 5.25608 15.213 5.1852C15.5003 5.18858 16.3747 5.1987 16.8845 5.6127C17.7676 6.38287 18.4752 7.33349 18.9596 8.40041C19.444 9.46734 19.6939 10.6258 19.6925 11.7975ZM15.2778 19.0801C14.567 19.412 13.7842 19.1701 13.9876 18.478C14.378 17.1485 17.787 15.7854 18.5398 15.7125C18.6328 15.7033 18.6721 15.7665 18.631 15.8387C17.8466 17.2179 16.6831 18.3431 15.2785 19.081" fill="#5493F7"/>
<path d="M6.90083 20.3824C6.89079 20.5325 6.94007 20.6806 7.03807 20.7947C7.13607 20.9089 7.27495 20.98 7.42486 20.9928C14.3324 21.0403 21 20.7228 21 19.6878C21 16.5549 6.90083 20.3824 6.90083 20.3824Z" fill="url(#paint0_linear_927_5675)"/>
<path d="M6.90083 20.3824C6.89058 20.533 6.94011 20.6815 7.03868 20.7958C7.13724 20.9101 7.27689 20.9809 7.42733 20.9928C14.3328 21.0453 20.9915 20.8284 21 19.6878C21 16.5549 6.90083 20.3824 6.90083 20.3824ZM7.42778 20.9532C7.40936 20.9531 7.39095 20.952 7.37266 20.9499C7.26736 20.9351 7.16877 20.8896 7.08923 20.819C7.0097 20.7484 6.95277 20.656 6.92558 20.5532C6.95502 20.6646 7.01979 20.7635 7.11017 20.835C7.20054 20.9065 7.31167 20.9468 7.42688 20.9499C14.3279 20.9062 20.8918 18.7815 20.8918 19.7171C20.8918 20.672 14.3283 21 7.42778 20.9532Z" fill="url(#paint1_linear_927_5675)"/>
<path d="M7.42822 11.5104C7.35897 11.5104 7.29039 11.524 7.22641 11.5505C7.16242 11.577 7.10428 11.6158 7.0553 11.6647C7.00633 11.7137 6.96748 11.7718 6.94097 11.8358C6.91446 11.8998 6.90082 11.9683 6.90082 12.0376V18.5664C7.17082 18.5664 7.43414 18.5635 7.69079 18.5576C7.94744 18.5518 8.19914 18.5443 8.44589 18.5351C8.69174 18.5257 8.93294 18.5146 9.16949 18.5018C9.40604 18.4891 9.63854 18.4741 9.86699 18.4568C10.0949 18.44 10.3186 18.4206 10.5388 18.4008C10.7591 18.381 10.9765 18.3601 11.1913 18.3387C11.4062 18.3173 11.6177 18.2951 11.827 18.2712C12.0362 18.2474 12.2428 18.2226 12.4484 18.1976C12.6541 18.1727 12.8588 18.1459 13.0622 18.1191C13.2656 18.0923 13.4672 18.064 13.6697 18.0345C13.8722 18.005 14.0716 17.9735 14.2734 17.9427C14.4752 17.9119 14.6784 17.8797 14.8809 17.848C15.0834 17.8163 15.2879 17.783 15.4927 17.749C15.6974 17.715 15.9033 17.6786 16.1119 17.6428C16.3204 17.607 16.5315 17.571 16.745 17.5341L17.3939 17.4216C17.6128 17.3836 17.8354 17.3438 18.0615 17.3057C18.2876 17.2677 18.5185 17.2301 18.7531 17.1946C18.9878 17.159 19.2016 17.1271 19.4956 17.0904C19.8145 17.0449 20.1367 17.0276 20.4586 17.0389C20.7615 17.0596 21.0011 17.1363 21.0011 17.3471V10.29C21.0083 9.17266 14.3341 11.4587 7.42822 11.5104Z" fill="url(#paint2_linear_927_5675)"/>
<path d="M7.42486 20.91C14.3319 20.8582 21.0083 18.5722 21 19.6882V14.9965C21 14.7857 20.7604 14.7083 20.4578 14.6883C20.1359 14.6769 19.8136 14.694 19.4948 14.7394C19.2007 14.7756 18.9867 14.8082 18.7523 14.844C18.5178 14.8798 18.2874 14.9167 18.0611 14.9547C17.8347 14.9927 17.6124 15.0321 17.3933 15.071C17.1741 15.1099 16.9581 15.1473 16.7444 15.1835C16.5306 15.2197 16.3198 15.2562 16.1112 15.2922C15.9026 15.3282 15.697 15.3642 15.4925 15.3986C15.2879 15.433 15.0843 15.4661 14.8809 15.4974C14.6775 15.5287 14.4759 15.5606 14.2734 15.5919C14.0709 15.6232 13.8716 15.6542 13.6704 15.6839C13.4693 15.7136 13.2654 15.7415 13.0629 15.7685C12.6516 15.8232 12.2397 15.8739 11.8274 15.9206C11.6182 15.9442 11.4065 15.967 11.1918 15.9881C10.9772 16.0093 10.7598 16.0304 10.5393 16.0504C9.84309 16.1143 9.14525 16.1591 8.44658 16.1845C7.93172 16.2048 7.41653 16.2153 6.90128 16.216V20.3808C6.90068 20.5204 6.95547 20.6545 7.05363 20.7537C7.15179 20.8529 7.28529 20.9091 7.42486 20.91Z" fill="url(#paint3_linear_927_5675)"/>
<path d="M8.30594 20.0824C8.92229 19.7072 9.53242 19.3218 10.1361 18.9264C10.3289 18.8004 10.515 18.6739 10.7042 18.5475C10.8934 18.421 11.0815 18.2948 11.2705 18.167C11.4595 18.0392 11.6497 17.9101 11.8411 17.7782C12.0326 17.6464 12.2261 17.5111 12.4239 17.3732C12.6217 17.2353 12.8235 17.0933 13.0314 16.9473C13.2393 16.8013 13.4503 16.6503 13.6681 16.4923C13.8859 16.3344 14.1094 16.1701 14.3431 15.9996C14.5769 15.829 14.8188 15.6529 15.0699 15.4681C14.8188 15.3631 14.5766 15.2616 14.3434 15.1635C13.9041 14.9799 13.4668 14.7915 13.0316 14.5983C12.8244 14.5065 12.6223 14.4165 12.4241 14.3283C12.2259 14.2401 12.0333 14.1503 11.8416 14.0614C11.6499 13.9726 11.4604 13.8837 11.2712 13.7941C11.082 13.7046 10.8937 13.6141 10.7044 13.5241C10.5152 13.4341 10.3262 13.3412 10.1343 13.2465C9.94237 13.1518 9.74842 13.0541 9.54929 12.954C9.35017 12.8539 9.14947 12.7497 8.94179 12.6408C8.73412 12.5319 8.52352 12.4183 8.30504 12.3004C8.08657 12.1825 7.86089 12.0596 7.62689 11.9302C7.44935 11.8318 7.27234 11.7323 7.09589 11.6319C7.03464 11.6808 6.98514 11.7428 6.95106 11.8133C6.91699 11.8839 6.8992 11.9612 6.89902 12.0396V20.3824C6.89919 20.4627 6.91786 20.542 6.95355 20.6139C6.98925 20.6859 7.04104 20.7487 7.10489 20.7975C7.28264 20.6942 7.45724 20.5918 7.62577 20.4915C7.86082 20.3523 8.08754 20.2159 8.30594 20.0824Z" fill="url(#paint4_linear_927_5675)"/>
<path d="M11.1886 15.8355C11.0635 15.8616 10.9382 15.888 10.7715 15.9219C10.7686 15.898 10.7649 15.8741 10.7605 15.8504L11.1378 15.7521C11.2503 15.7226 11.3646 15.6924 11.5153 15.6517L11.3747 15.552C11.1211 15.6405 10.994 15.6846 10.7407 15.7714C10.7207 15.7042 10.6925 15.6398 10.6567 15.5795C10.8817 15.4269 10.9942 15.3504 11.2192 15.197L11.2388 15.017L10.9254 15.2665L10.6122 15.514C10.5982 15.4949 10.5832 15.4765 10.5672 15.4589C10.6981 15.3428 10.796 15.255 10.8943 15.1677C10.9927 15.0804 11.091 14.9927 11.2219 14.8752L11.2402 14.58C11.1216 14.598 11.0622 14.6073 10.9434 14.625L10.6813 14.9763C10.6025 15.0816 10.5238 15.1866 10.4198 15.3266C10.4007 15.3127 10.3809 15.2998 10.3606 15.2877L10.5832 14.9585C10.6507 14.8595 10.717 14.7603 10.8061 14.6282L10.6261 14.6635C10.4911 14.8989 10.4236 15.0159 10.2902 15.2505C10.2258 15.2212 10.1582 15.1995 10.0888 15.1857C10.1548 14.9288 10.1878 14.8001 10.2535 14.5425L10.141 14.4115L10.0747 14.7924C10.0549 14.9065 10.0346 15.021 10.0072 15.1731C9.98278 15.1706 9.95832 15.1687 9.93382 15.1675L9.98039 14.7492L10.0272 14.331L9.83167 14.1255L9.63344 14.3598L9.68002 14.772L9.72637 15.1842C9.70162 15.1889 9.67732 15.1938 9.65324 15.2004L9.59137 14.8287L9.52927 14.4565C9.48427 14.5159 9.46042 14.5465 9.41452 14.6043C9.47775 14.8518 9.50924 14.9772 9.57202 15.2256C9.50178 15.2504 9.43442 15.2827 9.37109 15.3219C9.23902 15.1056 9.1731 14.997 9.04102 14.7796C8.96925 14.7756 8.93347 14.7731 8.86102 14.7688L9.08084 15.0701L9.29999 15.37C9.27951 15.3852 9.25962 15.4012 9.24037 15.418C9.13575 15.2935 9.05722 15.1995 8.97892 15.1054C8.90062 15.0114 8.82142 14.9175 8.71769 14.7915C8.59979 14.7897 8.54107 14.7882 8.42362 14.7855L8.43959 15.0802C8.65693 15.2456 8.87526 15.4097 9.09457 15.5725C9.07901 15.5925 9.06401 15.6129 9.04957 15.6337C8.84188 15.4961 8.63503 15.3572 8.42902 15.217L8.44724 15.397C8.67067 15.5228 8.78249 15.5849 9.00637 15.708C8.97138 15.7729 8.9439 15.8416 8.92447 15.9127C8.71368 15.8682 8.50323 15.8222 8.29312 15.7746L8.15249 15.892C8.30302 15.9145 8.41619 15.9289 8.52892 15.9444C8.64164 15.96 8.75392 15.9746 8.90534 15.9942C8.90084 16.0185 8.89657 16.043 8.89409 16.068C8.72759 16.0574 8.60272 16.0484 8.47807 16.0394C8.35342 16.0304 8.22877 16.0205 8.06227 16.0074C7.97384 16.088 7.92974 16.1285 7.84109 16.2086L8.06227 16.3996C8.34023 16.36 8.61788 16.3183 8.89522 16.2745C8.89814 16.2993 8.90174 16.3229 8.90647 16.347C8.75549 16.3787 8.64232 16.4019 8.52937 16.4248C8.41642 16.4478 8.30437 16.4698 8.15249 16.5004L8.29289 16.6102C8.54624 16.538 8.67247 16.502 8.92604 16.4266C8.94618 16.495 8.97435 16.5608 9.00997 16.6226C8.78497 16.7652 8.67247 16.8359 8.44747 16.9758L8.42812 17.1558C8.55322 17.064 8.64682 16.9945 8.74087 16.9245C8.83492 16.8546 8.92897 16.7848 9.0543 16.691C9.06825 16.7108 9.08309 16.7297 9.09929 16.7479C8.96812 16.8593 8.87024 16.9416 8.77214 17.0244C8.67404 17.1072 8.57572 17.1898 8.44477 17.2985L8.42677 17.5926C8.54534 17.5818 8.60407 17.5762 8.72264 17.5645C8.82749 17.4295 8.90624 17.3277 8.98499 17.2256L9.24914 16.8825C9.26849 16.8969 9.28807 16.9104 9.30854 16.923C9.21854 17.0521 9.15104 17.148 9.08534 17.2449C9.01964 17.3419 8.95169 17.4375 8.86259 17.5656C8.93482 17.5548 8.97082 17.55 9.0426 17.5386C9.1776 17.3084 9.24509 17.193 9.37897 16.9617C9.4434 16.9928 9.5114 17.016 9.58147 17.0305L9.41654 17.6709C9.46154 17.7247 9.48404 17.7505 9.52904 17.8038L9.59519 17.4238C9.61499 17.3095 9.63547 17.1957 9.66269 17.0438C9.68702 17.0472 9.7115 17.0493 9.73604 17.0501L9.68924 17.4679L9.64244 17.8862L9.83797 18.0923C9.91717 17.9985 9.95699 17.9514 10.036 17.8572C10.0173 17.6925 10.0036 17.5685 9.98939 17.4452C9.97522 17.3219 9.96149 17.1977 9.94304 17.0334C9.96779 17.0289 9.99187 17.0231 10.0159 17.0168L10.0783 17.3876L10.1401 17.7586C10.1851 17.699 10.209 17.6686 10.2547 17.6092C10.1917 17.3617 10.1599 17.2382 10.0972 16.9905C10.1676 16.9648 10.235 16.9312 10.2979 16.8903C10.4297 17.1036 10.4956 17.2098 10.6277 17.4225L10.8077 17.4249L10.5881 17.1324L10.3692 16.8399C10.3897 16.8244 10.4095 16.8073 10.4288 16.7902C10.5332 16.9113 10.6115 17.0024 10.69 17.0931C10.7686 17.1837 10.8475 17.2731 10.9513 17.3946C11.0692 17.3903 11.1281 17.3883 11.246 17.3833L11.2296 17.0908L10.9004 16.8622L10.573 16.6316C10.5883 16.6111 10.6032 16.5904 10.618 16.5686C10.742 16.6464 10.8352 16.7036 10.9283 16.7619C11.0215 16.8201 11.1151 16.8768 11.2395 16.9533L11.221 16.7749C10.9972 16.6624 10.8853 16.6071 10.6617 16.4939C10.6963 16.4274 10.7237 16.3574 10.7434 16.2851C10.9963 16.3272 11.1225 16.3476 11.3754 16.3875C11.4316 16.3371 11.46 16.3112 11.516 16.2601C11.3655 16.2498 11.2523 16.2412 11.1391 16.2327C11.026 16.2241 10.913 16.2156 10.7623 16.2027C10.7668 16.1782 10.771 16.1535 10.7735 16.1285C10.94 16.1316 11.066 16.133 11.19 16.1348C11.314 16.1366 11.44 16.1368 11.6065 16.1379C11.6947 16.0506 11.7388 16.0065 11.827 15.9188C11.7388 15.8499 11.6947 15.8155 11.6065 15.746C11.4388 15.7824 11.3137 15.8094 11.1886 15.8355Z" fill="url(#paint5_linear_927_5675)"/>
<path d="M13.7366 15.5469C13.7366 15.3784 13.7366 15.2938 13.7384 15.1255C13.6569 15.2516 13.5752 15.3775 13.4933 15.5033C13.3334 15.4731 13.2533 15.4583 13.0926 15.4265L13.3428 15.7314C13.2431 15.8808 13.193 15.9564 13.0931 16.1047C13.2535 16.0302 13.3338 15.9922 13.4936 15.917C13.5919 16.0399 13.6412 16.1006 13.7393 16.2228C13.7393 16.0545 13.7377 15.9706 13.7368 15.8025C13.8965 15.7276 13.976 15.69 14.1366 15.6135C13.976 15.587 13.8965 15.5739 13.7366 15.5469Z" fill="url(#paint6_linear_927_5675)"/>
<path d="M7.75448 19.425C7.68698 19.2724 7.65278 19.1962 7.58505 19.0425C7.55063 19.2081 7.5333 19.29 7.4991 19.4563C7.3308 19.4761 7.24665 19.4848 7.07835 19.5013C7.22505 19.5838 7.2984 19.625 7.4451 19.7065L7.3551 20.1189C7.4802 20.0039 7.54275 19.9463 7.66808 19.8302C7.81388 19.9123 7.88655 19.9526 8.03235 20.0327L7.8591 19.654C7.98533 19.5384 8.04855 19.481 8.1741 19.3649C8.00648 19.391 7.92233 19.4025 7.75448 19.425Z" fill="url(#paint7_linear_927_5675)"/>
<path d="M7.5 12.9675C7.5342 13.132 7.55153 13.215 7.58595 13.3777L7.75538 12.9884C7.92368 13.0028 8.00783 13.0093 8.17568 13.0224C8.07031 12.9328 7.96531 12.8428 7.86068 12.7524L8.03438 12.3638C7.88835 12.4538 7.81568 12.4975 7.66965 12.5857C7.54433 12.4752 7.48178 12.4201 7.35645 12.3085C7.39268 12.4723 7.41068 12.5539 7.44645 12.7182C7.29975 12.8037 7.22618 12.8464 7.07925 12.931C7.24665 12.9472 7.33103 12.9547 7.5 12.9675Z" fill="url(#paint8_linear_927_5675)"/>
<defs>
<linearGradient id="paint0_linear_927_5675" x1="6.90083" y1="19.7263" x2="21" y2="19.7263" gradientUnits="userSpaceOnUse">
<stop stop-color="#700000"/>
<stop offset="0.327" stop-color="#730000"/>
<stop offset="0.59" stop-color="#7D0000"/>
<stop offset="0.83" stop-color="#8E0000"/>
<stop offset="1" stop-color="#9F0000"/>
</linearGradient>
<linearGradient id="paint1_linear_927_5675" x1="13.9505" y1="18.4553" x2="13.9505" y2="21" gradientUnits="userSpaceOnUse">
<stop offset="0.35" stop-color="#CF2000"/>
<stop offset="0.645" stop-color="#CD1F00"/>
<stop offset="0.752" stop-color="#C61D00"/>
<stop offset="0.828" stop-color="#BB1900"/>
<stop offset="0.889" stop-color="#AA1300"/>
<stop offset="0.941" stop-color="#940C00"/>
<stop offset="0.987" stop-color="#790300"/>
<stop offset="1" stop-color="#700000"/>
</linearGradient>
<linearGradient id="paint2_linear_927_5675" x1="6.90082" y1="14.2743" x2="21" y2="14.2743" gradientUnits="userSpaceOnUse">
<stop stop-color="#0050CF"/>
<stop offset="0.021" stop-color="#0252D1"/>
<stop offset="0.244" stop-color="#1363E2"/>
<stop offset="0.487" stop-color="#1D6DEC"/>
<stop offset="0.791" stop-color="#2070EF"/>
<stop offset="0.841" stop-color="#1E6DEC"/>
<stop offset="0.882" stop-color="#1963E2"/>
<stop offset="0.919" stop-color="#1152D1"/>
<stop offset="0.954" stop-color="#053AB9"/>
<stop offset="0.966" stop-color="#0030AF"/>
<stop offset="1" stop-color="#2070EF"/>
</linearGradient>
<linearGradient id="paint3_linear_927_5675" x1="6.90083" y1="17.7958" x2="21" y2="17.7958" gradientUnits="userSpaceOnUse">
<stop stop-color="#CF2000"/>
<stop offset="0.021" stop-color="#D12201"/>
<stop offset="0.244" stop-color="#E23309"/>
<stop offset="0.487" stop-color="#EC3D0E"/>
<stop offset="0.791" stop-color="#EF4010"/>
<stop offset="0.841" stop-color="#EC3D0F"/>
<stop offset="0.882" stop-color="#E2330D"/>
<stop offset="0.919" stop-color="#D12208"/>
<stop offset="0.954" stop-color="#B90A03"/>
<stop offset="0.966" stop-color="#AF0000"/>
<stop offset="1" stop-color="#EF4010"/>
</linearGradient>
<linearGradient id="paint4_linear_927_5675" x1="6.90082" y1="16.2136" x2="21" y2="16.2136" gradientUnits="userSpaceOnUse">
<stop stop-color="#DFDFDF"/>
<stop offset="0.021" stop-color="#E1E1E1"/>
<stop offset="0.244" stop-color="#F2F2F2"/>
<stop offset="0.487" stop-color="#FCFCFC"/>
<stop offset="0.791" stop-color="white"/>
<stop offset="0.841" stop-color="#FCFCFC"/>
<stop offset="0.882" stop-color="#F2F2F2"/>
<stop offset="0.919" stop-color="#E1E1E1"/>
<stop offset="0.954" stop-color="#C9C9C9"/>
<stop offset="0.966" stop-color="#BFBFBF"/>
<stop offset="1" stop-color="white"/>
</linearGradient>
<linearGradient id="paint5_linear_927_5675" x1="6.90082" y1="16.1087" x2="21.0002" y2="16.1087" gradientUnits="userSpaceOnUse">
<stop stop-color="#FBBF00"/>
<stop offset="0.021" stop-color="#FBC102"/>
<stop offset="0.244" stop-color="#FDD213"/>
<stop offset="0.487" stop-color="#FFDC1D"/>
<stop offset="0.791" stop-color="#FFDF20"/>
<stop offset="0.841" stop-color="#FDDC1E"/>
<stop offset="0.882" stop-color="#F8D219"/>
<stop offset="0.919" stop-color="#EEC111"/>
<stop offset="0.954" stop-color="#E1A905"/>
<stop offset="0.966" stop-color="#DB9F00"/>
<stop offset="1" stop-color="#FFDF20"/>
</linearGradient>
<linearGradient id="paint6_linear_927_5675" x1="6.90038" y1="15.6743" x2="21.0005" y2="15.6743" gradientUnits="userSpaceOnUse">
<stop stop-color="#FBBF00"/>
<stop offset="0.021" stop-color="#FBC102"/>
<stop offset="0.244" stop-color="#FDD213"/>
<stop offset="0.487" stop-color="#FFDC1D"/>
<stop offset="0.791" stop-color="#FFDF20"/>
<stop offset="0.841" stop-color="#FDDC1E"/>
<stop offset="0.882" stop-color="#F8D219"/>
<stop offset="0.919" stop-color="#EEC111"/>
<stop offset="0.954" stop-color="#E1A905"/>
<stop offset="0.966" stop-color="#DB9F00"/>
<stop offset="1" stop-color="#FFDF20"/>
</linearGradient>
<linearGradient id="paint7_linear_927_5675" x1="6.90083" y1="19.5814" x2="21.0007" y2="19.5814" gradientUnits="userSpaceOnUse">
<stop stop-color="#FBBF00"/>
<stop offset="0.021" stop-color="#FBC102"/>
<stop offset="0.244" stop-color="#FDD213"/>
<stop offset="0.487" stop-color="#FFDC1D"/>
<stop offset="0.791" stop-color="#FFDF20"/>
<stop offset="0.841" stop-color="#FDDC1E"/>
<stop offset="0.882" stop-color="#F8D219"/>
<stop offset="0.919" stop-color="#EEC111"/>
<stop offset="0.954" stop-color="#E1A905"/>
<stop offset="0.966" stop-color="#DB9F00"/>
<stop offset="1" stop-color="#FFDF20"/>
</linearGradient>
<linearGradient id="paint8_linear_927_5675" x1="6.90083" y1="12.8437" x2="21.0004" y2="12.8437" gradientUnits="userSpaceOnUse">
<stop stop-color="#FBBF00"/>
<stop offset="0.021" stop-color="#FBC102"/>
<stop offset="0.244" stop-color="#FDD213"/>
<stop offset="0.487" stop-color="#FFDC1D"/>
<stop offset="0.791" stop-color="#FFDF20"/>
<stop offset="0.841" stop-color="#FDDC1E"/>
<stop offset="0.882" stop-color="#F8D219"/>
<stop offset="0.919" stop-color="#EEC111"/>
<stop offset="0.954" stop-color="#E1A905"/>
<stop offset="0.966" stop-color="#DB9F00"/>
<stop offset="1" stop-color="#FFDF20"/>
</linearGradient>
</defs>
</svg>
