<svg width="24" height="24" viewBox="0 0 24 24" fill="none" xmlns="http://www.w3.org/2000/svg">
<circle cx="12" cy="12" r="12" fill="black"/>
<path fill-rule="evenodd" clip-rule="evenodd" d="M17.5162 11.1649C17.538 11.0646 17.5599 10.9632 17.5857 10.8656C17.5864 10.8626 17.6043 10.4762 17.5932 10.2853C17.5903 10.2362 17.5881 10.1861 17.5859 10.1358C17.5795 9.99304 17.5731 9.84891 17.5533 9.72376C17.4577 9.12188 17.2305 8.57485 16.8717 8.08266C16.8536 8.05743 16.8269 8.02457 16.7973 7.9882C16.7522 7.93266 16.7005 7.86894 16.6622 7.81172C16.6532 7.79797 16.6539 7.78454 16.6646 7.77141C16.9453 7.42594 16.7096 6.91922 16.4775 6.61079C15.8187 5.73512 14.9509 5.0195 14.1076 4.32416C14.0743 4.29665 14.041 4.26918 14.0077 4.24172L14.0048 4.24062L14.0017 4.241L13.9994 4.24278L13.9983 4.24548C13.9305 4.7986 14.0205 5.32063 14.2683 5.81157C14.2693 5.81385 14.2696 5.81638 14.2691 5.81883C14.2687 5.82128 14.2675 5.82352 14.2657 5.82526C14.2639 5.82699 14.2616 5.82814 14.2591 5.82854C14.2567 5.82895 14.2542 5.82858 14.2519 5.82751C12.7378 5.00673 11.5092 3.86672 10.41 2.55282C10.4048 2.54642 10.3976 2.5419 10.3896 2.53995C10.3816 2.538 10.3731 2.53872 10.3655 2.54201C10.3579 2.5453 10.3516 2.55097 10.3476 2.55817C10.3435 2.56536 10.3419 2.57369 10.343 2.58188C10.4902 3.73126 10.8117 4.67157 11.5735 5.55657C11.5857 5.57063 11.5825 5.57547 11.5641 5.5711L9.97362 5.16516C9.10269 4.96594 8.23029 4.7447 7.38982 4.4386C6.59576 4.14938 5.83732 3.75001 5.43185 2.97048C5.4299 2.96704 5.42694 2.96429 5.42337 2.9626C5.4198 2.96091 5.41579 2.96036 5.4119 2.96103C5.40801 2.9617 5.40441 2.96354 5.40161 2.96633C5.39881 2.96911 5.39693 2.97268 5.39623 2.97657C5.08545 5.05688 5.56076 7.21876 7.59701 8.24298C7.6242 8.25642 7.62263 8.26407 7.59232 8.26595C6.9956 8.30298 6.28451 7.88954 5.84857 7.50048C5.80638 7.46298 5.78873 7.47235 5.7956 7.5286C5.89216 8.32267 6.1242 9.14438 6.63279 9.79267C6.64154 9.80392 6.63873 9.80923 6.62435 9.8086L5.9817 9.77767C5.97826 9.77753 5.97486 9.77837 5.97188 9.78008C5.9689 9.78179 5.96646 9.78431 5.96484 9.78734C5.96323 9.79038 5.9625 9.79381 5.96275 9.79724C5.96299 9.80066 5.9642 9.80395 5.96623 9.80673L6.68669 10.7714C6.83982 10.8667 6.90841 10.9689 6.89248 11.078C6.92935 11.267 6.94982 11.3975 6.95388 11.4694C6.99466 12.2053 7.18451 12.9436 7.63779 13.4986C7.71484 13.4355 7.87219 13.3244 7.89935 13.223C7.86404 13.2133 7.85091 13.1805 7.85998 13.1245C8.06279 11.8883 8.71841 10.9789 9.82685 10.3964C10.3429 10.1442 11.0536 9.88547 11.7019 9.82782C11.7547 9.82313 11.7592 9.83563 11.7155 9.86532L11.2875 10.1541C11.2848 10.1559 11.2827 10.1586 11.2816 10.1616C11.2804 10.1647 11.2802 10.1681 11.281 10.1712C11.2819 10.1744 11.2836 10.1773 11.2862 10.1794C11.2887 10.1815 11.2918 10.1828 11.295 10.1831C11.3146 10.1846 11.3345 10.1862 11.3548 10.1879C11.6017 10.2078 11.9007 10.232 12.1182 10.1025C12.4682 9.89344 12.7313 9.60266 12.9075 9.23016L12.911 9.22715L12.9156 9.2269L12.9193 9.22953L12.9207 9.23391C12.8372 10.0594 12.578 10.9027 11.9067 11.4398C11.904 11.442 11.9021 11.4451 11.9013 11.4485C11.9005 11.4519 11.9009 11.4555 11.9024 11.4587C11.904 11.4619 11.9065 11.4644 11.9097 11.4659C11.9129 11.4674 11.9165 11.4678 11.9199 11.467C12.1153 11.4248 12.2758 11.3573 12.4485 11.2846C12.4808 11.271 12.5136 11.2573 12.5471 11.2434C13.6978 10.7686 14.8964 10.0772 15.5616 8.97235C15.5794 8.94297 15.5838 8.94485 15.5747 8.97797L15.5499 9.06985C15.5456 9.08648 15.5452 9.10383 15.5489 9.12047C15.5718 9.22648 15.5823 9.33804 15.5926 9.44648C15.6027 9.55384 15.6126 9.65813 15.6338 9.75094C15.8028 10.4913 16.1336 11.1497 16.6261 11.7263C16.8438 11.9806 16.8661 12.3173 16.8875 12.64C16.8931 12.7253 16.8987 12.8096 16.9078 12.8911C16.9128 12.9345 16.9072 12.977 16.891 13.0186L16.9721 13.0153C17.0434 12.6933 17.1495 12.3777 17.2556 12.0621C17.3139 11.8885 17.3723 11.7149 17.4249 11.5402C17.4601 11.4237 17.488 11.2951 17.5162 11.1649Z" fill="url(#paint0_linear_930_5939)"/>
<path d="M6.68674 10.7714C6.83986 10.8667 6.90845 10.9689 6.89252 11.078C6.29283 11.8961 6.12486 12.8105 6.38861 13.8211C6.40642 13.8898 6.43611 13.8953 6.47767 13.8375C6.67205 13.5678 6.89174 13.3225 7.13674 13.1015C7.1394 13.0991 7.14272 13.0975 7.14629 13.0969C7.14986 13.0963 7.15352 13.0967 7.15684 13.0982C7.16016 13.0996 7.16299 13.102 7.165 13.105C7.167 13.108 7.1681 13.1115 7.16814 13.1151L7.17049 14.0986C7.17049 14.1158 7.17564 14.1175 7.18595 14.1037L7.63783 13.4986C7.68283 13.4617 7.72439 13.4217 7.76252 13.3786C7.80564 13.3298 7.8783 13.3017 7.89939 13.223L7.92236 13.2047C7.92874 13.1996 7.93642 13.1965 7.9445 13.1956C7.95259 13.1948 7.96075 13.1962 7.96805 13.1998C7.97536 13.2034 7.9815 13.2089 7.98577 13.2159C7.99004 13.2228 7.99227 13.2308 7.9922 13.2389V16.0519C7.99226 16.0553 7.99139 16.0588 7.98968 16.0618C7.98797 16.0648 7.98549 16.0674 7.98249 16.0691C7.97949 16.0709 7.97607 16.0718 7.97259 16.0718C7.96911 16.0719 7.96569 16.0709 7.96267 16.0692C7.66424 15.9033 7.40767 15.6876 7.19299 15.4223C7.19063 15.4192 7.18736 15.417 7.18364 15.4159C7.17992 15.4148 7.17595 15.4149 7.1723 15.4162C7.16864 15.4175 7.1655 15.4199 7.16332 15.4231C7.16114 15.4264 7.16004 15.4302 7.16017 15.4341V15.9811C7.16013 15.985 7.15905 15.9889 7.15706 15.9922C7.15507 15.9956 7.15222 15.9984 7.14881 16.0004C7.1454 16.0023 7.14153 16.0033 7.13761 16.0033C7.13368 16.0033 7.12982 16.0023 7.12642 16.0003C6.66705 15.7425 6.26674 15.4139 6.18471 14.8612C6.15142 14.6344 6.24799 14.4384 6.17345 14.2115C6.13502 14.0958 6.07267 13.9767 6.04408 13.867C5.75908 12.7734 5.96158 11.6578 6.68674 10.7714Z" fill="url(#paint1_linear_930_5939)"/>
<path fill-rule="evenodd" clip-rule="evenodd" d="M11.8598 13.1494C12.3225 13.3482 12.7269 13.2504 13.1806 13.1406C13.2169 13.1319 13.2535 13.123 13.2905 13.1142C13.5056 13.0631 13.8188 13.0725 14.0353 13.0842C15.0797 13.1405 15.7678 13.1508 16.485 13.1344C16.4997 13.1341 16.5067 13.1266 16.5061 13.1119C16.4802 12.5731 16.3095 12.1017 15.9942 11.6977C15.6298 11.2308 15.3283 10.7769 15.0895 10.3359C15.083 10.3234 15.0747 10.3222 15.0647 10.3322C14.2322 11.1811 13.0027 11.6794 11.8683 12.0159C11.228 12.2084 10.5678 12.3648 9.88783 12.4851C9.87113 12.4879 9.85855 12.463 9.87095 12.4519L11.5116 10.8966C11.5198 10.8887 11.5144 10.8722 11.5031 10.8708C9.98345 10.6734 9.02158 11.6578 8.57861 12.9975C8.56517 13.0378 8.57986 13.0584 8.62267 13.0594C9.55267 13.0759 10.4938 13.0822 11.446 13.0781C11.5941 13.0776 11.7225 13.1091 11.8598 13.1494Z" fill="url(#paint2_linear_930_5939)"/>
<path d="M17.573 13.673L17.5594 12.8705C17.5588 12.8395 17.5692 12.8352 17.5908 12.8573L18.0919 13.3781C18.0981 13.385 18.1025 13.3839 18.105 13.3748C18.338 12.5016 18.1303 11.587 17.6058 10.8619C17.5964 10.8487 17.5897 10.85 17.5856 10.8656C17.5864 10.8626 17.6043 10.4762 17.5931 10.2853C17.594 10.3007 17.6004 10.3153 17.611 10.3266C18.3839 11.1553 18.7247 12.3169 18.4505 13.4259C18.423 13.5366 18.3938 13.6469 18.3628 13.7569C18.3586 13.7713 18.3602 13.7869 18.3671 13.8005C18.8142 14.6981 18.3811 15.3544 17.5852 15.7753C17.5671 15.785 17.5578 15.7795 17.5575 15.7589L17.5524 15.3661C17.3399 15.5624 17.12 15.7284 16.8928 15.8644C16.8902 15.8659 16.8873 15.8668 16.8842 15.8668C16.8812 15.8669 16.8782 15.8661 16.8755 15.8647C16.8729 15.8632 16.8706 15.8611 16.8691 15.8585C16.8675 15.8559 16.8666 15.8529 16.8666 15.8499C16.8651 15.5877 16.867 15.3242 16.8689 15.0603C16.8728 14.5123 16.8768 13.9623 16.8502 13.4175C16.8433 13.2819 16.8569 13.1489 16.891 13.0186L16.9721 13.0153L17.573 13.673Z" fill="url(#paint3_linear_930_5939)"/>
<path fill-rule="evenodd" clip-rule="evenodd" d="M8.50548 13.5755C8.49017 13.5755 8.48126 13.5831 8.47876 13.5984C8.39158 14.2008 8.21767 15.5536 9.22689 15.5414C9.79595 15.5345 10.3649 15.5289 10.9336 15.5245C10.936 15.5245 10.9383 15.5245 10.9406 15.5245C11.0549 15.5236 11.1101 15.5232 11.1694 15.4106C11.4319 14.9125 11.5486 14.3762 11.5195 13.8019L13.2938 13.8033C13.31 13.8033 13.3181 13.8114 13.3181 13.8277C13.3197 14.4389 13.5041 14.987 13.8713 15.472C13.8991 15.5089 13.9288 15.5278 13.9603 15.5288C14.3266 15.5378 14.9321 15.5363 15.7767 15.5241C16.2417 15.517 16.4527 14.8238 16.4756 14.4483C16.4947 14.1327 16.4924 13.8528 16.4686 13.6088C16.4671 13.5925 16.4581 13.5841 16.4419 13.5834C13.8034 13.4731 11.1477 13.6033 8.50548 13.5755Z" fill="url(#paint4_linear_930_5939)"/>
<path d="M12.2016 18.946C11.0503 18.7449 9.89343 18.2611 9.09187 17.3869C8.67937 16.9374 8.30249 16.3758 8.16515 15.7716C8.16109 15.7541 8.16781 15.7445 8.18531 15.743C8.37046 15.7252 8.56218 15.6975 8.59265 15.9272C8.59515 15.9485 8.60702 15.9591 8.62827 15.9591L11.1455 15.9553C11.1645 15.9553 11.1784 15.9469 11.1872 15.93L12.1317 14.1099C12.1411 14.0917 12.1561 14.0828 12.1767 14.0831L12.7547 14.093C12.7769 14.0933 12.7933 14.1033 12.8039 14.123L13.7775 15.9342C13.7869 15.9514 13.8012 15.9599 13.8206 15.9595L16.3383 15.9183C16.3595 15.918 16.3703 15.907 16.3706 15.8855L16.372 15.7566C16.372 15.7407 16.3863 15.7266 16.4025 15.7266H16.6997C16.7175 15.7264 16.7332 15.744 16.7311 15.7617C16.4958 17.6597 14.2092 18.6488 12.5972 18.961C12.4997 18.98 12.3678 18.975 12.2016 18.946ZM11.8111 16.471L12.4167 16.9116C12.428 16.92 12.4394 16.92 12.4509 16.9116C12.6719 16.7227 12.8287 16.6016 12.9389 16.5019C12.9943 16.4517 12.9825 16.3981 12.9187 16.3566C12.9041 16.3469 12.8898 16.3477 12.8761 16.3589L12.4575 16.7002C12.4447 16.7105 12.4314 16.7109 12.4176 16.7016L11.9217 16.3617C11.9148 16.357 11.9064 16.3548 11.8981 16.3555C11.8897 16.3561 11.8818 16.3597 11.8758 16.3655L11.8083 16.4297C11.793 16.4444 11.7939 16.4581 11.8111 16.471ZM11.7576 17.8772C12.1016 17.8767 12.4575 17.8772 12.7889 17.8767C12.8067 17.8745 12.82 17.8656 12.8287 17.85L12.9131 17.6981C12.9275 17.6728 12.92 17.6602 12.8906 17.6602H11.8533C11.8473 17.6602 11.8415 17.6618 11.8365 17.6649C11.8314 17.6679 11.8274 17.6723 11.8247 17.6775L11.7375 17.8425C11.7262 17.8644 11.733 17.876 11.7576 17.8772Z" fill="url(#paint5_linear_930_5939)"/>
<path d="M14.1351 20.693C13.0373 21.5358 11.5636 21.6844 10.4794 20.7202C10.4552 20.6989 10.4409 20.6672 10.4409 20.6349L10.4428 18.8677C10.4428 18.8011 10.4708 18.7856 10.5267 18.8213C11.0389 19.1456 11.5667 19.47 12.1101 19.7944C12.6426 20.1122 13.0387 20.122 13.4433 19.6186C13.6645 19.3439 13.8904 19.0672 14.1211 18.7884C14.1296 18.7781 14.15 18.7853 14.1501 18.7988L14.1539 20.6545C14.1539 20.6705 14.1476 20.6833 14.1351 20.693Z" fill="url(#paint6_linear_930_5939)"/>
<path d="M13.6214 21.4753C13.5991 21.4753 13.5874 21.4412 13.605 21.4275C13.8047 21.2719 14.092 21.202 14.2706 21.1153C14.4853 21.0117 14.513 20.6944 14.5449 20.4825C14.5477 20.4635 14.571 20.451 14.5884 20.4591L15.8077 21.0361C15.8201 21.042 15.8285 21.0549 15.8288 21.0684L15.84 21.4411C15.8406 21.4602 15.8316 21.4697 15.8128 21.4697L13.6214 21.4753Z" fill="#F89C2B"/>
<path d="M8.9578 21.4458L8.7117 20.9944C8.6917 20.9581 8.70139 20.9336 8.74077 20.9208L10.1039 20.4741C10.1258 20.4672 10.1367 20.4752 10.1367 20.498V20.76C10.1367 20.78 10.144 20.7969 10.1587 20.8106L10.785 21.4064C10.8409 21.4595 10.8303 21.4848 10.7531 21.4823C10.1587 21.4823 9.47266 21.4725 8.99952 21.4725C8.98077 21.4713 8.96686 21.4623 8.9578 21.4458Z" fill="#F89C2B"/>
<defs>
<linearGradient id="paint0_linear_930_5939" x1="5.30933" y1="8.01873" x2="17.5967" y2="8.01873" gradientUnits="userSpaceOnUse">
<stop stop-color="#ED5C2D"/>
<stop offset="1" stop-color="#F8AE39"/>
</linearGradient>
<linearGradient id="paint1_linear_930_5939" x1="5.44853" y1="13.4216" x2="7.9922" y2="13.4216" gradientUnits="userSpaceOnUse">
<stop stop-color="#ED5C2D"/>
<stop offset="1" stop-color="#F8AE39"/>
</linearGradient>
<linearGradient id="paint2_linear_930_5939" x1="8.57379" y1="11.7948" x2="16.5061" y2="11.7948" gradientUnits="userSpaceOnUse">
<stop stop-color="#1170AA"/>
<stop offset="1" stop-color="#30A7CF"/>
</linearGradient>
<linearGradient id="paint3_linear_930_5939" x1="16.462" y1="13.0761" x2="18.547" y2="13.0761" gradientUnits="userSpaceOnUse">
<stop stop-color="#ED5C2D"/>
<stop offset="1" stop-color="#F8AE39"/>
</linearGradient>
<linearGradient id="paint4_linear_930_5939" x1="8.40967" y1="14.5399" x2="16.4883" y2="14.5399" gradientUnits="userSpaceOnUse">
<stop stop-color="#ED5C2D"/>
<stop offset="1" stop-color="#F8AE39"/>
</linearGradient>
<linearGradient id="paint5_linear_930_5939" x1="8.164" y1="16.5277" x2="16.7313" y2="16.5277" gradientUnits="userSpaceOnUse">
<stop stop-color="#1170AA"/>
<stop offset="1" stop-color="#30A7CF"/>
</linearGradient>
<linearGradient id="paint6_linear_930_5939" x1="10.4409" y1="20.0847" x2="14.1539" y2="20.0847" gradientUnits="userSpaceOnUse">
<stop stop-color="#1170AA"/>
<stop offset="1" stop-color="#30A7CF"/>
</linearGradient>
</defs>
</svg>
