<svg width="24" height="24" viewBox="0 0 24 24" fill="none" xmlns="http://www.w3.org/2000/svg">
<circle cx="12" cy="12" r="12" fill="#52B16A"/>
<path d="M15.618 9.57602C15.198 9.57602 14.778 9.57602 14.358 9.57602C14.208 9.57602 14.1 9.55802 14.112 9.37202C14.166 8.57402 13.716 8.07602 12.84 7.90802C12.114 7.77002 11.388 7.79402 10.674 7.98002C10.578 8.00402 10.488 8.04602 10.398 8.09402C9.75 8.44202 9.72 9.22802 10.344 9.61802C10.776 9.88202 11.256 10.02 11.742 10.134C12.9 10.41 14.076 10.62 15.162 11.118C16.074 11.532 16.818 12.132 17.142 13.128C17.7 14.832 16.986 16.59 15.384 17.472C14.85 17.766 14.286 17.958 13.692 18.06C13.464 18.096 13.398 18.198 13.404 18.414C13.416 18.804 13.398 19.194 13.416 19.584C13.422 19.794 13.344 19.86 13.14 19.854C12.408 19.842 11.682 19.848 10.95 19.854C10.758 19.854 10.68 19.788 10.686 19.596C10.698 19.194 10.68 18.798 10.692 18.396C10.698 18.186 10.614 18.096 10.404 18.066C9.438 17.916 8.538 17.604 7.806 16.926C6.96 16.14 6.678 15.138 6.72 14.022C6.726 13.872 6.816 13.842 6.936 13.842C7.818 13.842 8.694 13.842 9.576 13.842C9.714 13.842 9.78 13.902 9.768 14.04C9.72 14.832 10.248 15.336 11.034 15.498C11.778 15.654 12.522 15.642 13.26 15.456C13.338 15.438 13.41 15.408 13.488 15.378C13.842 15.234 14.046 14.964 14.082 14.586C14.118 14.196 13.902 13.944 13.59 13.758C13.068 13.452 12.48 13.32 11.892 13.188C10.86 12.954 9.822 12.75 8.844 12.312C7.554 11.742 6.732 10.83 6.672 9.35402C6.612 7.81202 7.272 6.68402 8.616 5.94002C9.162 5.63403 9.744 5.43003 10.368 5.34603C10.62 5.31003 10.698 5.20203 10.692 4.95603C10.674 4.46403 10.692 3.97803 10.68 3.48603C10.674 3.27003 10.734 3.18003 10.962 3.18003C11.67 3.19203 12.384 3.19203 13.092 3.18003C13.344 3.17403 13.422 3.26403 13.41 3.51003C13.392 3.97203 13.422 4.42803 13.398 4.89003C13.38 5.20203 13.47 5.34003 13.8 5.40003C14.646 5.55003 15.432 5.85602 16.08 6.45002C16.932 7.23002 17.202 8.23202 17.172 9.34802C17.166 9.54002 17.058 9.57602 16.896 9.57002C16.476 9.57002 16.044 9.57602 15.618 9.57602Z" fill="#F1EFEA"/>
<path d="M17.016 18.444C17.016 17.664 17.628 17.064 18.408 17.07C19.182 17.076 19.788 17.688 19.788 18.462C19.788 19.23 19.14 19.854 18.354 19.842C17.61 19.836 17.016 19.212 17.016 18.444Z" fill="#F8EA7A"/>
</svg>
