<svg width="24" height="24" viewBox="0 0 24 24" fill="none" xmlns="http://www.w3.org/2000/svg">
<circle cx="12" cy="12" r="12" fill="#172852"/>
<path d="M10.3316 16.3332C10.7816 17.9982 12.3962 19.2681 13.2116 19.2157C13.2402 19.2139 16.3043 18.6426 17.9816 15.8407C19.2866 13.6598 18.8425 11.5542 17.0672 11.5083C16.4285 11.5549 9.47461 13.1616 10.3321 16.3337L10.3316 16.3332ZM16.9016 5.6399L16.8998 5.63855L16.9023 5.63698C15.7841 4.68585 14.4199 4.06999 12.9669 3.86037C11.5139 3.65074 10.0313 3.85587 8.68981 4.45213C8.52012 4.5227 8.35482 4.6034 8.19481 4.69378C8.08546 4.75205 7.97588 4.80988 7.86991 4.87378L7.89578 4.88188C7.58178 5.09563 7.30412 5.35839 7.07341 5.66015C4.83871 8.61395 12.3344 10.7613 16.3425 10.7685C18.1855 12.092 18.7028 7.04233 16.9016 5.6399Z" fill="#0E3CA5"/>
<path d="M9.14249 5.70002C8.11267 7.24757 4.68254 8.33837 4.11847 8.1685L4.11464 8.1613C4.13789 8.1145 4.16137 8.06807 4.18507 8.02202C4.77001 6.89537 5.60695 5.91883 6.63082 5.16835C6.84187 5.01355 7.06034 4.86887 7.28624 4.73432C7.63382 4.54234 8.02322 4.43866 8.42024 4.43237C9.94776 4.46252 9.15014 5.68765 9.14249 5.70002ZM8.29739 16.6377C8.37142 17.1239 8.29559 19.0452 8.19614 19.2068C8.11041 19.2119 7.93199 19.2227 7.41516 18.933C6.35136 18.3281 5.43644 17.4928 4.73751 16.4883C4.03858 15.4838 3.57335 14.3356 3.37597 13.1279C3.23255 12.2457 3.23255 11.346 3.37597 10.4637C3.44592 10.035 3.54998 9.61252 3.68714 9.20035C3.71459 9.11785 3.74332 9.03587 3.77332 8.95442C4.36529 9.74192 5.05042 10.4543 5.63272 11.2494C6.18734 12.0065 6.95032 13.2409 7.10557 13.5048C8.06947 15.1421 8.22314 16.1524 8.29672 16.6379L8.29739 16.6377ZM19.6925 11.7957C19.6938 12.8284 19.4998 13.852 19.1208 14.8125C18.1533 15.852 11.6321 13.2931 11.5682 13.265C10.6761 12.8739 7.96124 11.685 7.71622 9.81617C7.36499 7.12855 12.8167 5.25565 15.213 5.18477C15.5003 5.18792 16.3747 5.19827 16.8845 5.61227C17.7675 6.38225 18.475 7.33265 18.9594 8.39934C19.4438 9.46602 19.6938 10.6242 19.6925 11.7957ZM15.2778 19.0796C14.5668 19.4115 13.7842 19.1696 13.9876 18.4775C14.378 17.148 17.787 15.785 18.5398 15.71C18.6325 15.701 18.6721 15.7643 18.631 15.8365C17.8465 17.2156 16.683 18.3408 15.2785 19.0787" fill="#5493F7"/>
<path d="M6.90059 20.3824C6.89049 20.5325 6.93972 20.6805 7.03768 20.7947C7.13564 20.9088 7.2745 20.98 7.42439 20.9928C14.3319 21.0401 21 20.7228 21 19.6878C21 16.5547 6.90059 20.3824 6.90059 20.3824Z" fill="url(#paint0_linear_927_5723)"/>
<path d="M6.90059 20.3824C6.89034 20.5329 6.93987 20.6815 7.03843 20.7958C7.137 20.91 7.27665 20.9808 7.42709 20.9928C14.3326 21.0452 20.9917 20.8281 21 19.6878C21 16.5547 6.90059 20.3824 6.90059 20.3824ZM7.42731 20.953C7.40889 20.953 7.39049 20.9519 7.37219 20.9498C7.26689 20.9351 7.1683 20.8895 7.08876 20.819C7.00923 20.7484 6.9523 20.6559 6.92511 20.5532C6.95464 20.6646 7.01946 20.7634 7.10988 20.8349C7.20029 20.9063 7.31142 20.9466 7.42664 20.9496C14.3276 20.9062 20.8918 18.7813 20.8918 19.7168C20.8918 20.672 14.3281 21 7.42731 20.953Z" fill="url(#paint1_linear_927_5723)"/>
<path d="M7.42778 11.51C7.35853 11.51 7.28996 11.5236 7.22599 11.5501C7.16201 11.5766 7.10389 11.6155 7.05493 11.6644C7.00598 11.7134 6.96715 11.7716 6.94067 11.8355C6.91419 11.8995 6.90058 11.9681 6.90061 12.0374V20.3824C6.90036 20.5217 6.95535 20.6555 7.05353 20.7544C7.1517 20.8533 7.28506 20.9092 7.4244 20.91C14.3317 20.8583 21.0086 18.5718 21 19.6878V10.2884C21.0086 9.17221 14.3339 11.4582 7.42778 11.51Z" fill="url(#paint2_linear_927_5723)"/>
<path d="M20.4577 11.55C20.1359 11.5389 19.8136 11.5561 19.4947 11.6013C19.2007 11.6371 18.9865 11.6702 18.7522 11.7059C18.518 11.7417 18.2872 11.7791 18.0606 11.8166C17.834 11.8542 17.6122 11.8947 17.393 11.933C17.1739 11.9712 16.9579 12.0095 16.7443 12.0455C16.5308 12.0815 16.3195 12.1188 16.111 12.1544C15.9024 12.1899 15.697 12.2264 15.4929 12.2603C15.2888 12.2943 15.085 12.3278 14.8816 12.3593C14.6782 12.3908 14.475 12.4228 14.2727 12.4538C14.0704 12.4849 13.8711 12.5164 13.6702 12.5461C13.4692 12.5758 13.2667 12.6039 13.0627 12.6305C12.8586 12.657 12.6538 12.6838 12.4477 12.709C12.2416 12.7342 12.0358 12.7592 11.8265 12.783C11.6173 12.8069 11.4055 12.828 11.1907 12.8505C10.9758 12.873 10.7587 12.893 10.5382 12.9128C10.3177 12.9326 10.094 12.9513 9.86609 12.9684C9.63817 12.9855 9.40619 13.0008 9.16972 13.0134C8.93324 13.026 8.69227 13.0375 8.44657 13.0467C8.20087 13.0559 7.94909 13.0643 7.69147 13.0692C7.43384 13.0742 7.17037 13.0782 6.90082 13.0784V19.3465C7.17082 19.3465 7.43339 19.3431 7.69079 19.3375C7.94819 19.3319 8.19952 19.3238 8.44589 19.315C8.69227 19.3062 8.93302 19.2947 9.16972 19.2815C9.40642 19.2682 9.63817 19.2531 9.86609 19.2365C10.094 19.2198 10.3174 19.2 10.5375 19.1795C10.7575 19.1591 10.9751 19.139 11.19 19.1177C11.4049 19.0963 11.6161 19.074 11.8256 19.0502C12.2378 19.0029 12.6496 18.9521 13.0609 18.8978C13.4654 18.8445 13.8691 18.7856 14.272 18.7212C14.4736 18.6897 14.677 18.6587 14.8795 18.6267C15.082 18.5948 15.2863 18.5621 15.4911 18.5279C15.6958 18.4937 15.9019 18.4571 16.1107 18.4213L16.7441 18.3126C16.9579 18.2759 17.1736 18.2384 17.3928 18.2001C17.6119 18.1619 17.8342 18.1223 18.0608 18.084C18.2874 18.0458 18.5173 18.0089 18.752 17.9731C18.9867 17.9373 19.202 17.9056 19.4945 17.8685C19.8134 17.823 20.1356 17.8059 20.4575 17.8172C20.7597 17.8374 20.9993 17.9146 20.9998 18.1252V11.8583C21 11.6474 20.7599 11.5707 20.4577 11.55Z" fill="url(#paint3_linear_927_5723)"/>
<path d="M20.458 13.1171C20.136 13.1058 19.8137 13.123 19.4947 13.1684C19.2007 13.2042 18.9865 13.2359 18.7522 13.2728C18.518 13.3097 18.2872 13.346 18.0608 13.3838C17.8345 13.4216 17.6122 13.4612 17.393 13.4999C17.1739 13.5386 16.9581 13.5759 16.7446 13.6124L16.111 13.7215C15.9022 13.7573 15.6967 13.7933 15.4924 13.8275C15.2881 13.8617 15.0845 13.895 14.8811 13.9267C14.6777 13.9584 14.4748 13.9897 14.2736 14.0207C14.0725 14.0518 13.8718 14.0835 13.6706 14.1132C13.4695 14.1429 13.267 14.1708 13.0631 14.1976C12.6516 14.252 12.2396 14.3028 11.8272 14.3499C11.6179 14.3735 11.4064 14.3949 11.1918 14.4174C10.9771 14.4399 10.7593 14.459 10.5393 14.4795C10.3192 14.5 10.0951 14.5182 9.86722 14.5351C9.6393 14.552 9.40777 14.5673 9.17107 14.5801C8.93437 14.5929 8.6934 14.6039 8.44747 14.6134C8.20155 14.6228 7.95 14.6309 7.6926 14.6359C7.4352 14.6408 7.1715 14.6449 6.90195 14.6449V17.7798C7.17195 17.7798 7.4343 17.7764 7.69192 17.7708C7.94955 17.7652 8.2011 17.7566 8.44702 17.7483C8.69295 17.74 8.93437 17.7278 9.17085 17.7148C9.40732 17.7017 9.63952 17.6864 9.86835 17.6698C10.0972 17.6531 10.3197 17.6338 10.5402 17.614C10.7607 17.5942 10.978 17.5735 11.1927 17.5519C11.4073 17.5303 11.6188 17.5082 11.8281 17.4844C12.0373 17.4605 12.2437 17.4358 12.4495 17.4108C12.6554 17.3858 12.8599 17.3591 13.0636 17.3323C13.2672 17.3055 13.4686 17.2769 13.6711 17.2475C13.8736 17.218 14.0729 17.1867 14.2747 17.1554C14.4766 17.1242 14.6797 17.0936 14.8822 17.0612C15.0847 17.0288 15.2895 16.9964 15.494 16.9622C15.6985 16.928 15.9044 16.892 16.1132 16.8557C16.322 16.8195 16.5328 16.7835 16.7466 16.7471C16.9603 16.7106 17.1763 16.6728 17.3953 16.6346C17.6142 16.5963 17.8365 16.5563 18.0631 16.5182C18.2896 16.4802 18.5198 16.4429 18.7545 16.4071C18.9892 16.3713 19.2045 16.3396 19.497 16.3031C19.8158 16.2575 20.138 16.2403 20.4598 16.2516C20.7619 16.2721 21.0016 16.349 21.002 16.5596V13.4252C21 13.215 20.7601 13.1378 20.458 13.1171Z" fill="url(#paint4_linear_927_5723)"/>
<defs>
<linearGradient id="paint0_linear_927_5723" x1="6.90059" y1="19.7263" x2="21" y2="19.7263" gradientUnits="userSpaceOnUse">
<stop stop-color="#700000"/>
<stop offset="0.327" stop-color="#730000"/>
<stop offset="0.59" stop-color="#7D0000"/>
<stop offset="0.83" stop-color="#8E0000"/>
<stop offset="1" stop-color="#9F0000"/>
</linearGradient>
<linearGradient id="paint1_linear_927_5723" x1="13.9503" y1="18.455" x2="13.9503" y2="21" gradientUnits="userSpaceOnUse">
<stop offset="0.35" stop-color="#CF2000"/>
<stop offset="0.645" stop-color="#CD1F00"/>
<stop offset="0.752" stop-color="#C61D00"/>
<stop offset="0.828" stop-color="#BB1900"/>
<stop offset="0.889" stop-color="#AA1300"/>
<stop offset="0.941" stop-color="#940C00"/>
<stop offset="0.987" stop-color="#790300"/>
<stop offset="1" stop-color="#700000"/>
</linearGradient>
<linearGradient id="paint2_linear_927_5723" x1="6.90061" y1="15.4454" x2="21" y2="15.4454" gradientUnits="userSpaceOnUse">
<stop stop-color="#CF2000"/>
<stop offset="0.021" stop-color="#D12201"/>
<stop offset="0.244" stop-color="#E23309"/>
<stop offset="0.487" stop-color="#EC3D0E"/>
<stop offset="0.791" stop-color="#EF4010"/>
<stop offset="0.841" stop-color="#EC3D0F"/>
<stop offset="0.882" stop-color="#E2330D"/>
<stop offset="0.919" stop-color="#D12208"/>
<stop offset="0.954" stop-color="#B90A03"/>
<stop offset="0.966" stop-color="#AF0000"/>
<stop offset="1" stop-color="#EF4010"/>
</linearGradient>
<linearGradient id="paint3_linear_927_5723" x1="6.90059" y1="15.4454" x2="21" y2="15.4454" gradientUnits="userSpaceOnUse">
<stop stop-color="#DFDFDF"/>
<stop offset="0.021" stop-color="#E1E1E1"/>
<stop offset="0.244" stop-color="#F2F2F2"/>
<stop offset="0.487" stop-color="#FCFCFC"/>
<stop offset="0.791" stop-color="white"/>
<stop offset="0.841" stop-color="#FCFCFC"/>
<stop offset="0.882" stop-color="#F2F2F2"/>
<stop offset="0.919" stop-color="#E1E1E1"/>
<stop offset="0.954" stop-color="#C9C9C9"/>
<stop offset="0.966" stop-color="#BFBFBF"/>
<stop offset="1" stop-color="white"/>
</linearGradient>
<linearGradient id="paint4_linear_927_5723" x1="6.9006" y1="15.4454" x2="21" y2="15.4454" gradientUnits="userSpaceOnUse">
<stop stop-color="#00209F"/>
<stop offset="0.021" stop-color="#0222A1"/>
<stop offset="0.244" stop-color="#1333B2"/>
<stop offset="0.487" stop-color="#1D3DBC"/>
<stop offset="0.791" stop-color="#2040BF"/>
<stop offset="0.841" stop-color="#1E3DBC"/>
<stop offset="0.882" stop-color="#1933B2"/>
<stop offset="0.919" stop-color="#1122A1"/>
<stop offset="0.954" stop-color="#050A89"/>
<stop offset="0.966" stop-color="#00007F"/>
<stop offset="1" stop-color="#2040BF"/>
</linearGradient>
</defs>
</svg>
