<svg width="24" height="24" viewBox="0 0 24 24" fill="none" xmlns="http://www.w3.org/2000/svg">
<circle cx="12" cy="12" r="12" fill="#ECEFF0"/>
<path d="M11.9409 11.0995H9.48135V17.7878H11.9409V11.0995Z" fill="black"/>
<path d="M16.4174 12.4342H13.7841V17.7878H16.4174V12.4342Z" fill="black"/>
<path d="M21 5H18.2776V14.5285H21V5Z" fill="#6BAB17"/>
<path d="M11.7081 12.1048C12.9587 10.6758 15.3363 10.4708 16.1662 12.0589C16.1662 12.0589 17.0368 10.7601 18.3065 11.1166L18.3324 13.767C17.9583 12.7225 16.4393 13.024 16.3952 14.0467L13.8174 13.7466C13.8369 13.179 12.2618 12.6283 11.848 13.9203L11.7081 12.1048Z" fill="black"/>
<path d="M5.13065 14.9616H2.46834V17.7878H5.13065V14.9616Z" fill="black"/>
<path d="M8.67708 12.9547H5.85094V17.7878H8.67708V12.9547Z" fill="black"/>
<path d="M22 17.7878H2V18.4022H22V17.7878Z" fill="url(#paint0_linear_778_6416)"/>
<path d="M19.619 17.7877C20.3702 17.7877 20.9791 17.1918 20.9791 16.4566C20.9791 15.7214 20.3702 15.1254 19.619 15.1254C18.8679 15.1254 18.2589 15.7214 18.2589 16.4566C18.2589 17.1918 18.8679 17.7877 19.619 17.7877Z" fill="#6BAB17"/>
<defs>
<linearGradient id="paint0_linear_778_6416" x1="22" y1="18.4022" x2="2" y2="18.4022" gradientUnits="userSpaceOnUse">
<stop/>
<stop offset="1" stop-opacity="0"/>
</linearGradient>
</defs>
</svg>
