<svg width="24" height="24" viewBox="0 0 24 24" fill="none" xmlns="http://www.w3.org/2000/svg">
<circle cx="12" cy="12" r="12" fill="url(#paint0_linear_325_2880)"/>
<path d="M12.0275 5.5C13.8398 5.52217 15.3251 6.12626 16.5831 7.3012C16.7217 7.42867 16.8381 7.46192 17.0265 7.42867C17.8467 7.26795 18.667 7.1571 19.5038 7.27349C19.6424 7.29011 19.7754 7.32337 19.9084 7.3677C20.8949 7.67252 21.2663 8.54818 20.8007 9.47372C20.5291 10.0113 20.0969 10.4214 19.6479 10.8094C19.3875 11.0311 19.1159 11.2417 18.8332 11.4301C18.6614 11.5465 18.5949 11.6684 18.6005 11.8846C18.6448 14.9272 16.6552 17.5653 13.6957 18.3024C11.4068 18.8732 9.37834 18.3024 7.65473 16.7062C7.40533 16.4735 7.18919 16.4236 6.87328 16.4901C6.10292 16.6453 5.32702 16.7616 4.5345 16.6453C4.11883 16.5843 3.7198 16.4679 3.4039 16.1686C2.9051 15.692 2.86631 14.8995 3.2986 14.2344C3.80293 13.4696 4.51233 12.9265 5.24943 12.4111C5.37079 12.3258 5.63738 12.1361 5.63738 12.1361C5.63738 12.1361 5.63286 11.9636 5.63738 11.8347C5.69281 10.2053 6.26365 8.76987 7.38316 7.57831C8.6634 6.20385 10.254 5.5388 12.0275 5.5ZM5 15C5 15 5.53796 14.9132 5.88124 14.8496C7.93812 14.4685 9.36171 14.046 11.0465 13.4308C11.2952 13.34 11.6214 13.2202 11.6214 13.2202C11.6214 13.2202 11.6102 12.8835 11.6728 12.6882C11.6824 12.6582 11.6839 12.6327 11.695 12.6106C12.0774 11.1807 13.6957 10.6209 14.8928 11.4966C14.9215 11.5171 15.04 11.62 15.04 11.62C15.04 11.62 15.1522 11.5709 15.1976 11.5465C15.6354 11.3248 16.0566 11.0754 16.4834 10.8426C16.6219 10.7706 16.6441 10.6875 16.5998 10.5323C16.0012 8.65902 14.1668 7.29566 12.1937 7.26795C9.334 7.22915 7.0728 9.7342 7.43858 12.5773C7.48846 12.9874 7.5 13 7.5 13C7.5 13 7.00629 13.3532 6.98413 13.3643C6.30798 13.7966 5.5653 14.4292 5 15ZM9.44484 15.8527C10.5644 16.7783 12.6704 17.0831 14.3552 16.1631C15.6299 15.4648 16.8824 13.6802 16.7106 12.7658C16.4224 12.9154 16.1287 13.0539 15.8571 13.2202C15.809 13.2481 15.66 13.33 15.66 13.33C15.66 13.33 15.6424 13.4619 15.6243 13.525C15.2752 14.8829 13.9229 15.4925 12.6648 14.8662C12.61 14.8388 12.51 14.77 12.51 14.77C12.51 14.77 12.3218 14.83 12.2603 14.8496C11.5897 15.0768 10.9246 15.3318 10.2595 15.5701C9.99352 15.6698 9.72749 15.7585 9.44484 15.8527ZM12.6648 13.0817C12.6537 13.6248 13.086 14.0737 13.6236 14.0959C14.1557 14.118 14.6378 13.6414 14.6434 13.1038C14.6434 12.5607 14.2056 12.1229 13.6569 12.1173C13.1027 12.1118 12.6759 12.5274 12.6648 13.0817ZM19.064 8.96939C19.064 8.96939 18.2735 9.02481 17.9077 9.05806C18.013 9.30191 18.0961 9.48481 18.1959 9.71203C18.473 9.47372 18.8201 9.17444 19.064 8.96939Z" fill="white"/>
<defs>
<linearGradient id="paint0_linear_325_2880" x1="-1" y1="19" x2="24" y2="8" gradientUnits="userSpaceOnUse">
<stop stop-color="#0890CC"/>
<stop offset="0.5" stop-color="#4A5FF4"/>
<stop offset="1" stop-color="#6D64F1"/>
</linearGradient>
</defs>
</svg>
