<svg width="24" height="24" viewBox="0 0 24 24" fill="none" xmlns="http://www.w3.org/2000/svg">
<circle cx="12" cy="12" r="12" fill="#8E68E9"/>
<path d="M18.9721 9.7956C18.9372 10.7592 19.0209 11.9322 18.9092 13.1052C18.616 16.1984 16.2699 18.5863 13.1837 18.9285C11.7873 19.0821 10.4118 19.0262 9.09909 18.4956C6.68321 17.518 5.41243 15.6468 5.09124 13.1052C4.92366 11.7716 5.04236 10.431 5.02142 9.09737C5.00745 8.25949 5.0284 7.42161 5.01443 6.58373C5.01443 6.35332 5.08426 6.28349 5.31467 6.29048C6.04782 6.30444 6.78096 6.30444 7.5141 6.29048C7.76546 6.28349 7.82132 6.37426 7.82132 6.61166C7.81434 8.39913 7.82132 10.1936 7.81434 11.9811C7.81434 12.4279 7.84925 12.8608 7.95399 13.2937C8.3031 14.8019 9.23873 15.7306 10.7469 16.0727C11.5848 16.2612 12.4296 16.2542 13.2745 16.0727C14.8735 15.7236 15.9138 14.5785 16.1303 12.9516C16.1791 12.5815 16.2001 12.2115 16.2001 11.8414C16.2001 10.1098 16.2071 8.37819 16.1931 6.64657C16.1931 6.38125 16.249 6.28349 16.5352 6.29048C17.2544 6.31142 17.9736 6.30444 18.6998 6.29048C18.9232 6.28349 19 6.35332 19 6.58373C18.9651 7.58919 18.9721 8.58766 18.9721 9.7956Z" fill="#FEFEFE"/>
<path d="M10.5933 9.32778C10.5933 8.42008 10.6003 7.51936 10.5863 6.61166C10.5793 6.36728 10.6561 6.29048 10.9005 6.29746C11.6337 6.31142 12.3668 6.31142 13.093 6.29746C13.3234 6.29048 13.3862 6.36728 13.3862 6.59072C13.3792 8.39215 13.3932 10.1936 13.3792 11.988C13.3723 13.0633 12.5693 13.6428 11.5359 13.3566C10.9494 13.196 10.6073 12.7002 10.6003 11.9671C10.5863 11.0943 10.5933 10.2076 10.5933 9.32778Z" fill="#FEFEFE"/>
</svg>
