<svg width="24" height="24" viewBox="0 0 24 24" fill="none" xmlns="http://www.w3.org/2000/svg">
<circle cx="12" cy="12" r="12" fill="url(#paint0_radial_2442_6744)"/>
<path d="M8.70909 6.7566L10.9912 6.77439V8.65889L8.91248 8.64268C8.7242 8.69244 8.51702 8.79806 8.35292 8.97216C8.17786 9.15787 8.00238 9.47295 8.00238 10.0184C8.00238 10.4292 8.18293 10.6569 8.42189 10.8162C8.70012 11.0017 9.05411 11.0806 9.25817 11.0866H10.9912V12.971H9.23528L9.22485 12.9708C8.68019 12.9601 7.91788 12.7895 7.26453 12.354C6.56806 11.8897 6 11.1195 6 10.0184C6 9.05175 6.32802 8.28068 6.85498 7.72163C7.36853 7.1768 8.0238 6.88304 8.60958 6.77496L8.70909 6.7566Z" fill="white"/>
<path fill-rule="evenodd" clip-rule="evenodd" d="M12.9936 12.971H10.9912V15.6139H6.22129V17.4983H10.9912V20H12.9936L12.9936 17.4983H14.9438C15.4042 17.4983 16.1324 17.3274 16.7641 16.8754C17.4493 16.3851 18 15.5758 18 14.4023C18 12.167 16.4333 11.2259 15.4048 11.0951L15.338 11.0866H12.9936L12.9936 8.6745L17.2094 8.70736L17.2259 6.82299L12.9936 6.79V4H10.9912L10.9912 6.77439V8.65889V11.0866H12.9936V12.971ZM12.9936 15.6139H14.9438L14.9449 15.6138C14.9555 15.6129 15.0357 15.6062 15.1604 15.5674C15.2885 15.5275 15.4276 15.4644 15.5521 15.3753C15.7699 15.2195 15.9976 14.9519 15.9976 14.4023C15.9976 13.7534 15.7876 13.4127 15.6134 13.2343C15.449 13.0659 15.2705 12.9944 15.1787 12.971H12.9936L12.9936 15.6139Z" fill="white"/>
<defs>
<radialGradient id="paint0_radial_2442_6744" cx="0" cy="0" r="1" gradientUnits="userSpaceOnUse" gradientTransform="translate(22.0973 6.57248) rotate(147.441) scale(20.5023 19.9548)">
<stop stop-color="#92D334"/>
<stop offset="0.486482" stop-color="#07AF52"/>
<stop offset="1" stop-color="#00512C"/>
</radialGradient>
</defs>
</svg>
