<svg width="24" height="24" viewBox="0 0 24 24" fill="none" xmlns="http://www.w3.org/2000/svg">
<g clip-path="url(#clip0_1770_5895)">
<circle cx="12" cy="12" r="12" fill="#00FFB0"/>
<path d="M22.3124 11.9995C22.3124 14.7175 21.2579 17.1962 19.5305 19.0503C19.2305 19.3723 18.7132 19.2907 18.4948 18.9085L18.4518 18.8333C18.2962 18.561 18.3466 18.2198 18.5583 17.9884C20.0116 16.3999 20.8918 14.308 20.8918 11.9997C20.8918 9.2191 19.6143 6.74403 17.6159 5.1132C17.3047 4.85928 16.8483 4.96465 16.6485 5.31306L16.1876 6.117C16.0006 6.44329 15.586 6.55869 15.2573 6.37599L15.2317 6.36177C14.2693 5.81213 13.1691 5.49075 11.9999 5.49075C9.33234 5.49075 7.02758 7.10684 6.0349 9.41005C5.91859 9.67992 5.66056 9.86831 5.36669 9.86831H5.27123C4.81708 9.86831 4.48784 9.43461 4.65858 9.01377C5.82864 6.12981 8.67544 4.07013 11.9999 4.07013C12.9659 4.07013 13.8719 4.25078 14.7174 4.56341C15.0516 4.68701 15.434 4.5653 15.6094 4.25504L16.1503 3.29789C16.3381 2.96568 16.7605 2.84995 17.0913 3.04005L17.7176 3.39988C17.7241 3.40361 17.7281 3.41053 17.7281 3.41802C17.7281 3.425 17.7316 3.43152 17.7374 3.43541C20.5062 5.29191 22.3124 8.42829 22.3124 11.9995ZM19.9295 12.0001C19.9295 10.1728 19.3026 8.47659 18.2592 7.1369C17.9792 6.77735 17.4369 6.84697 17.2109 7.24271L17.1687 7.31651C17.0244 7.56914 17.0576 7.88323 17.2311 8.11675C18.0388 9.20366 18.5322 10.5472 18.5322 12.0009C18.5322 14.4071 17.2262 16.493 15.3005 17.6155L15.2692 17.6341C14.9442 17.8269 14.8358 18.2459 15.0264 18.5721L15.491 19.3673C15.6959 19.7179 15.5543 20.1711 15.1735 20.3123C14.1764 20.6822 13.1107 20.8919 12 20.8919C8.03936 20.8919 4.66486 18.2807 3.52908 14.6936C3.43387 14.3929 3.16158 14.177 2.84616 14.177H2.76984C2.33121 14.177 2.00395 14.5831 2.1326 15.0024C3.42545 19.2165 7.34823 22.3125 11.9999 22.3125C13.6218 22.3125 15.1741 21.9258 16.5457 21.2648C16.5542 21.2607 16.5644 21.2625 16.5711 21.2692C16.5782 21.2763 16.5893 21.2777 16.598 21.2727L17.2187 20.9161C17.5501 20.7257 17.6626 20.3016 17.4692 19.972L16.901 19.0038C16.721 18.6971 16.8068 18.3061 17.079 18.0773C18.8151 16.6177 19.9295 14.4341 19.9295 12.0001ZM11.9999 19.9298C12.375 19.9298 12.7434 19.9023 13.1048 19.8514C13.5529 19.7883 13.7632 19.2863 13.5335 18.8964L13.4768 18.8002C13.3324 18.5551 13.0522 18.4273 12.7696 18.4603C12.5128 18.4902 12.2562 18.5079 11.9999 18.5079C8.42444 18.5079 5.51424 15.6199 5.49201 12.0456V12.0226C5.49201 11.6428 5.18404 11.3349 4.80424 11.3351L3.87262 11.3354C3.47256 11.3356 3.15447 10.9944 3.21769 10.5993C3.8948 6.3682 7.57867 3.10905 11.9999 3.10905C12.6551 3.10905 13.297 3.1775 13.904 3.3144C14.2148 3.38449 14.5427 3.25832 14.7029 2.98291L14.7349 2.92791C14.955 2.54943 14.7698 2.06332 14.3437 1.96263C13.5924 1.78512 12.8024 1.6875 12 1.6875C6.54935 1.6875 2.06081 5.94452 1.7115 11.3246C1.71109 11.331 1.70584 11.3359 1.69951 11.3359C1.69288 11.3359 1.6875 11.3413 1.6875 11.3479V12.0691C1.6875 12.4488 1.9953 12.7566 2.375 12.7566H3.49316C3.84712 12.7566 4.14004 13.0265 4.20174 13.375C4.8589 17.0874 8.08945 19.9297 11.9999 19.9298Z" fill="#003340"/>
<path d="M16.8608 13.3401C16.6869 13.6421 16.5116 13.9465 16.3376 14.2485C16.1678 14.5433 15.8561 14.6473 15.5464 14.5096C15.4223 14.4538 15.3372 14.347 15.2699 14.2314C15.051 13.8586 14.8284 13.4869 14.6095 13.1142C14.0163 12.1126 13.4232 11.1111 12.8301 10.1095C12.7672 10.0028 12.7204 9.89585 12.7316 9.7713C12.7468 9.57879 12.8756 9.41048 13.0598 9.35088C13.2614 9.28862 13.4403 9.33782 13.591 9.48576C13.6401 9.53335 13.6734 9.59734 13.7071 9.65516C14.2227 10.5256 14.7383 11.396 15.254 12.2664C15.3193 12.3745 15.3952 12.4696 15.5103 12.5298C15.7392 12.6527 16.0161 12.6148 16.1964 12.4347C16.3701 12.2604 16.4069 11.9973 16.2818 11.7716C16.151 11.5393 16.0113 11.3114 15.8753 11.0825C15.3753 10.2403 14.8767 9.39572 14.3767 8.55351C14.2903 8.40449 14.1771 8.29105 14.0096 8.23881C13.9477 8.21897 13.885 8.21148 13.8196 8.20879C12.994 8.19755 12.166 8.18493 11.339 8.17609C11.1041 8.17436 10.9205 8.26622 10.8028 8.47612C10.6864 8.68362 10.7153 8.8825 10.8323 9.078C11.7997 10.7084 12.7647 12.3374 13.7321 13.9677C14.1386 14.6568 14.5489 15.3448 14.9568 16.0314C15.0377 16.1677 15.0826 16.3056 15.036 16.464C14.9787 16.6577 14.8185 16.7919 14.6146 16.8081C14.5177 16.8159 14.4215 16.8114 14.3239 16.8092C12.772 16.7803 11.2205 16.7452 9.66959 16.7201C9.37921 16.7151 9.17836 16.5988 9.03017 16.3469C8.22393 14.9791 7.41632 13.6138 6.60493 12.2495C6.46896 12.0206 6.46342 11.8033 6.59834 11.5746C6.94824 10.9782 7.28959 10.38 7.63471 9.78081C7.80175 9.49081 8.09124 9.38672 8.39962 9.50446C8.535 9.55725 8.6229 9.65925 8.69598 9.78143C8.95771 10.2237 9.22183 10.6673 9.48356 11.1096C10.0352 12.0392 10.5832 12.9699 11.1372 13.9009C11.2045 14.0165 11.2482 14.1345 11.2215 14.2693C11.1837 14.4678 11.0632 14.5995 10.8695 14.6535C10.6645 14.7106 10.4901 14.6481 10.3487 14.4895C10.3115 14.4488 10.2861 14.399 10.2554 14.3525C9.74421 13.491 9.23197 12.6257 8.72212 11.7619C8.62899 11.6025 8.50348 11.4883 8.3187 11.4549C8.09253 11.4103 7.89806 11.4767 7.75819 11.6642C7.61832 11.8517 7.61089 12.0583 7.72608 12.2624C7.87831 12.5294 8.03809 12.7944 8.19548 13.0581C8.66286 13.8463 9.13162 14.632 9.59523 15.4212C9.7322 15.6539 9.92211 15.767 10.193 15.7672C10.9957 15.7683 11.8004 15.7771 12.6028 15.7844C12.8031 15.7853 12.9722 15.7298 13.1007 15.5676C13.2357 15.3997 13.2642 15.2117 13.1908 15.0126C13.1729 14.9607 13.1423 14.9143 13.1154 14.8668C11.7932 12.6348 10.4672 10.4038 9.14491 8.17179C9.09765 8.09332 9.0504 8.01484 9.00453 7.93397C8.80541 7.58226 9.01911 7.19463 9.42392 7.18923C9.82257 7.18346 10.2215 7.19382 10.6222 7.19561C11.8536 7.20522 13.0823 7.21963 14.3141 7.22307C14.6072 7.22335 14.8057 7.3382 14.9539 7.59013C15.7621 8.96544 16.5779 10.3387 17.3951 11.7096C17.5335 11.9399 17.5339 12.1606 17.4027 12.3883C17.2219 12.7022 17.0396 13.0186 16.8588 13.3326C16.8584 13.3388 16.8608 13.3401 16.8608 13.3401Z" fill="#003340"/>
</g>
<defs>
<clipPath id="clip0_1770_5895">
<rect width="24" height="24" fill="white"/>
</clipPath>
</defs>
</svg>
