<svg width="24" height="24" viewBox="0 0 24 24" fill="none" xmlns="http://www.w3.org/2000/svg">
<circle cx="12" cy="12" r="12" fill="#F09242"/>
<path d="M12.006 3.42873C9.8701 3.42873 7.81149 4.22806 6.23522 5.66946L5.61706 5.06539C7.3558 3.46241 9.63409 2.57245 11.999 2.57245C14.3639 2.57245 16.6422 3.46241 18.3809 5.06539L17.7769 5.66946C16.2006 4.22806 14.142 3.42873 12.006 3.42873Z" fill="white"/>
<path d="M18.3346 6.22115L18.9387 5.61709V5.60299C20.5416 7.34173 21.4316 9.62003 21.4316 11.9849C21.4316 14.3498 20.5416 16.6281 18.9387 18.3669L18.3346 17.7628C19.776 16.1865 20.5753 14.1279 20.5753 11.992C20.5753 9.85603 19.776 7.79742 18.3346 6.22115Z" fill="white"/>
<path d="M5.66943 17.7688C4.22974 16.1929 3.43146 14.1355 3.43146 12.001C3.43146 9.86648 4.22974 7.80912 5.66943 6.23321L5.06536 5.62915C3.46238 7.36788 2.57242 9.64618 2.57242 12.0111C2.57242 14.376 3.46238 16.6543 5.06536 18.393L5.66943 17.7688Z" fill="white"/>
<path d="M11.998 20.5673C14.1339 20.5673 16.1925 19.768 17.7688 18.3266L18.387 18.9307C16.6482 20.5336 14.3699 21.4236 12.005 21.4236C9.64014 21.4236 7.36184 20.5336 5.62311 18.9307L6.22717 18.3266C7.80344 19.768 9.86205 20.5673 11.998 20.5673Z" fill="white"/>
<path fill-rule="evenodd" clip-rule="evenodd" d="M15.8136 9.98447C15.6928 8.72399 14.6055 8.30114 13.2302 8.17228V6.4366H12.1671V8.14006H11.3174V6.4366H10.2623V8.18436H8.10577V9.32201C8.10577 9.32201 8.89105 9.30792 8.87897 9.32201C9.02056 9.30643 9.16267 9.34643 9.27535 9.43357C9.38804 9.52071 9.46249 9.6482 9.48303 9.78915V14.5733C9.48001 14.623 9.46704 14.6716 9.44491 14.7163C9.42277 14.7609 9.39192 14.8006 9.35416 14.8331C9.31712 14.8662 9.27376 14.8915 9.2267 14.9074C9.17965 14.9233 9.12985 14.9295 9.08032 14.9257C9.09442 14.9378 8.30712 14.9257 8.30712 14.9257L8.10577 16.1963H10.2421V17.9722H11.3053V16.2224H12.155V17.9641H13.2202V16.2083C15.0163 16.0996 16.2687 15.6566 16.4257 13.9753C16.5526 12.6222 15.9163 12.0181 14.8995 11.7745C15.5176 11.4705 15.9002 10.9067 15.8136 9.98447ZM14.3236 13.7659C14.3236 14.9785 12.4162 14.9506 11.5458 14.9379C11.4681 14.9368 11.3986 14.9358 11.3395 14.9358V12.592C11.4133 12.5922 11.5033 12.5902 11.6054 12.588C12.5002 12.5682 14.3236 12.5279 14.3236 13.7659ZM13.8303 10.4637C13.8303 11.5681 12.2519 11.5401 11.5225 11.5271C11.4541 11.5259 11.393 11.5248 11.3415 11.5248V9.3945C11.4017 9.3945 11.4747 9.3926 11.5575 9.39044C12.3011 9.3711 13.8303 9.33133 13.8303 10.4637Z" fill="white"/>
<path fill-rule="evenodd" clip-rule="evenodd" d="M5.88748 21.1453C7.69611 22.3542 9.82257 22.9996 11.998 23C13.4429 23.0003 14.8736 22.7159 16.2086 22.1631C17.5435 21.6103 18.7565 20.7999 19.7782 19.7782C20.7999 18.7565 21.6103 17.5435 22.1631 16.2086C22.7159 14.8736 23.0003 13.4429 23 11.998C22.9996 9.82257 22.3542 7.69611 21.1453 5.88748C19.9365 4.07884 18.2185 2.66926 16.2086 1.83694C14.1987 1.00463 11.9871 0.786964 9.85352 1.21147C7.71991 1.63597 5.76009 2.68357 4.22183 4.22183C2.68357 5.76009 1.63597 7.71991 1.21147 9.85352C0.786964 11.9871 1.00463 14.1987 1.83694 16.2086C2.66926 18.2185 4.07884 19.9365 5.88748 21.1453ZM6.36924 3.56966C8.03498 2.4551 9.99376 1.85937 11.998 1.85778C13.3301 1.85672 14.6494 2.11825 15.8803 2.62742C17.1113 3.13659 18.2298 3.8834 19.172 4.82517C20.1141 5.76693 20.8614 6.88517 21.371 8.11594C21.8807 9.34671 22.1428 10.6659 22.1422 11.998C22.1414 14.0022 21.5465 15.9612 20.4326 17.6274C19.3187 19.2936 17.7358 20.5922 15.8841 21.359C14.0323 22.1258 11.9948 22.3264 10.0291 21.9355C8.06332 21.5446 6.25759 20.5797 4.8401 19.1627C3.42261 17.7458 2.457 15.9405 2.06531 13.9749C1.67362 12.0093 1.87344 9.97171 2.6395 8.11966C3.40557 6.26761 4.7035 4.68423 6.36924 3.56966Z" fill="white"/>
</svg>
