<svg width="24" height="24" viewBox="0 0 24 24" fill="none" xmlns="http://www.w3.org/2000/svg">
<circle cx="12.0002" cy="12" r="12" fill="#191919"/>
<path d="M12.0002 24C18.6276 24 24.0002 18.6274 24.0002 12C24.0002 5.37259 18.6276 0 12.0002 0C5.37277 0 0.000183105 5.37259 0.000183105 12C0.000183105 18.6274 5.37277 24 12.0002 24Z" fill="#3CCD64"/>
<path d="M23.1114 12.128C23.1114 17.5136 19.366 22.0147 14.366 23.1112L14.2934 22.7738C13.5401 22.9381 12.7717 23.021 12.0011 23.021C6.6118 23.021 2.02142 18.9517 1.3237 13.5553C1.26308 13.082 1.23277 12.6053 1.23293 12.128H0.88916C0.88916 5.92164 5.86346 0.888977 12.0003 0.888977V1.234C17.9398 1.234 22.7692 6.12071 22.7692 12.127L23.1114 12.128Z" fill="#191919"/>
<path d="M17.8505 20.4449L17.4813 19.8782C21.6355 17.0015 22.8035 11.2354 20.1126 6.88675L20.6708 6.51892C23.5557 11.1805 22.3042 17.3613 17.8505 20.4449Z" fill="#3CCD64"/>
<path d="M3.48975 17.7778C2.7218 16.596 2.1961 15.2622 1.94547 13.8596C1.69484 12.4569 1.72465 11.0156 2.03305 9.62549C2.34145 8.23539 2.92181 6.92633 3.73792 5.78006C4.55403 4.63375 5.58839 3.67479 6.77643 2.96301L7.11066 3.56685C4.23432 5.29341 2.44748 8.51012 2.44748 11.9618C2.4441 13.8964 3.0004 15.7871 4.04396 17.3879L3.48975 17.7778Z" fill="#3CCD64"/>
<path d="M7.99167 20.148C3.53343 17.9526 1.6961 12.5501 3.8881 8.08273C4.05255 7.74765 4.2376 7.42311 4.44219 7.11102L5.01908 7.49111C4.12716 8.84761 3.6531 10.437 3.6559 12.0614C3.6559 15.256 5.43415 18.1161 8.29651 19.5279L7.99167 20.148Z" fill="#3CCD64"/>
<path d="M20.7467 14.2223L20.0861 14.0472C20.2642 13.359 20.3542 12.6506 20.354 11.9393C20.354 7.36996 16.6729 3.6526 12.1482 3.6526V2.96301C17.057 2.96328 21.0371 6.98204 21.0371 11.9393C21.0373 12.7097 20.9397 13.4769 20.7467 14.2223Z" fill="#3CCD64"/>
<path d="M18.6796 8.70099C17.051 11.211 15.6008 10.4504 13.8687 10.1104C12.1366 9.77046 11.1797 11.6259 11.1797 11.6259C11.1797 11.6259 11.1816 11.6196 11.1827 11.6166C11.1498 11.6774 11.1177 11.7388 11.087 11.8009C11.0314 11.91 10.9813 12.0242 10.9333 12.1412C10.9387 12.014 10.9579 11.8878 10.9905 11.7649C11.022 11.6412 11.063 11.52 11.1131 11.4026C11.1755 11.2564 11.2511 11.1163 11.339 10.9842C11.6085 9.22903 10.1748 8.55379 8.36428 7.49711C6.34782 6.32048 7.25026 5.03699 7.25026 5.03699C7.25026 5.03699 3.84077 8.61922 6.11573 12.0062C8.39072 15.3932 11.2684 16.351 8.26862 21.4495C8.26862 21.4495 10.3066 22.6463 13.5857 22.0609C12.7285 18.3582 12.945 16.963 14.3024 15.7057L14.1544 15.7602C14.1005 15.7785 14.0466 15.7918 13.9927 15.8065L13.9118 15.8281C13.8849 15.8346 13.8579 15.8384 13.8293 15.8436C13.7754 15.8534 13.7194 15.8627 13.6644 15.8709C13.6094 15.8791 13.5528 15.879 13.4975 15.8823C13.4706 15.8823 13.442 15.885 13.4143 15.8856C13.3865 15.8861 13.3584 15.8834 13.3307 15.8812C13.2751 15.8777 13.2199 15.8736 13.1652 15.8668C13.2191 15.8499 13.273 15.836 13.3247 15.8223C13.3517 15.8153 13.3773 15.8092 13.4035 15.803L13.4814 15.7787C13.5328 15.7632 13.5843 15.7485 13.6358 15.734C13.6873 15.7196 13.7369 15.6983 13.7873 15.6817C13.8126 15.6732 13.838 15.6659 13.8628 15.6563L13.9374 15.6274C13.9865 15.6073 14.0372 15.5917 14.0857 15.5702L14.2323 15.5083C14.2816 15.4886 14.3288 15.4641 14.3773 15.4423C14.5698 15.3529 14.7597 15.2558 14.9471 15.1511L15.0819 15.0753C15.7261 14.7482 16.2949 14.3766 16.8181 13.9031C20.0346 10.9972 18.6796 8.70099 18.6796 8.70099Z" fill="white"/>
</svg>
