<svg width="24" height="24" viewBox="0 0 24 24" fill="none" xmlns="http://www.w3.org/2000/svg">
<circle cx="12" cy="12" r="12" fill="#15254D"/>
<path d="M16.9734 6V6.00005C16.9269 6.00014 16.8812 6.01251 16.841 6.03584L16.8408 6.03565C16.8408 6.03565 16.1164 6.45109 15.8089 6.62097C15.5568 6.76016 15.5386 6.92768 15.54 6.98431C15.5386 7.04093 15.5568 7.20846 15.8089 7.34769C16.1164 7.51752 16.8408 7.93301 16.8408 7.93301L16.841 7.93272C16.8812 7.95611 16.9269 7.96842 16.9734 7.96852C17.0437 7.96852 17.1112 7.94061 17.1609 7.89091C17.2106 7.84117 17.2385 7.77376 17.2385 7.70347C17.2384 7.65695 17.2261 7.61124 17.2028 7.57102C17.1795 7.53075 17.146 7.49732 17.1057 7.47408L17.1059 7.47369L16.2134 6.98426L17.106 6.49487L17.1057 6.49444C17.146 6.47125 17.1795 6.43781 17.2029 6.39754C17.2262 6.35727 17.2385 6.31157 17.2385 6.26504C17.2385 6.19475 17.2106 6.12735 17.1609 6.07765C17.1112 6.02795 17.0438 6 16.9735 6H16.9734ZM10.9044 6.14188C10.7847 6.14188 10.6662 6.16545 10.5556 6.21126C10.4451 6.25706 10.3446 6.32417 10.26 6.4088C10.1754 6.49343 10.1082 6.59389 10.0624 6.70444C10.0166 6.815 9.99302 6.9335 9.99302 7.0532C9.99302 7.17286 10.0166 7.2914 10.0624 7.40196C10.1082 7.51252 10.1753 7.61298 10.2599 7.6976C10.3446 7.78223 10.445 7.84935 10.5556 7.89515C10.6662 7.94095 10.7847 7.96452 10.9044 7.96452C11.024 7.96452 11.1425 7.94095 11.2531 7.89515C11.3637 7.84935 11.4642 7.78223 11.5488 7.6976C11.6334 7.61298 11.7005 7.51252 11.7463 7.40196C11.7921 7.29135 11.8157 7.17286 11.8157 7.0532C11.8157 6.81149 11.7197 6.57969 11.5487 6.4088C11.3778 6.23791 11.146 6.14188 10.9044 6.14188ZM20.2693 9.17977C20.1554 9.17996 20.0432 9.20671 19.9415 9.258C19.8398 9.30923 19.7516 9.38357 19.6837 9.47498L19.6824 9.47406L18.2348 11.5095L18.2374 11.5103C18.1445 11.6349 18.0937 11.786 18.0925 11.9414C18.0937 12.0969 18.1445 12.248 18.2374 12.3726L18.2348 12.3735L19.6824 14.4088L19.6837 14.408C19.7516 14.4994 19.8398 14.5737 19.9415 14.6249C20.0432 14.6762 20.1554 14.703 20.2693 14.7031C20.3653 14.7031 20.4603 14.6842 20.5489 14.6475C20.6376 14.6108 20.7181 14.557 20.7859 14.4891C20.8538 14.4213 20.9076 14.3408 20.9444 14.2521C20.9811 14.1635 21 14.0684 21 13.9725C20.9997 13.822 20.9528 13.6751 20.8659 13.5522L20.8668 13.5516L19.7207 11.9415L20.8668 10.3314L20.8659 10.3307C20.9528 10.2078 20.9997 10.061 21 9.91043C21 9.8145 20.9811 9.71948 20.9444 9.63081C20.9077 9.54219 20.8538 9.4616 20.786 9.39376C20.7181 9.32593 20.6376 9.27209 20.549 9.23538C20.4603 9.19867 20.3653 9.17977 20.2693 9.17977ZM9.95332 15.8105C9.75068 15.8105 9.58638 15.9828 9.58638 16.1953C9.58648 16.342 9.66605 16.4759 9.79162 16.5406C11.9172 17.8737 13.7853 17.7528 13.7853 17.7528C13.7853 17.7528 15.6535 17.8737 17.779 16.5406C17.9046 16.4759 17.9842 16.342 17.9843 16.1953C17.9843 15.9828 17.82 15.8105 17.6173 15.8105C17.54 15.8107 17.4646 15.8365 17.402 15.8843L17.3701 15.9055C17.3701 15.9055 15.776 17.0264 13.7853 16.9921C11.7947 17.0264 10.2006 15.9055 10.2006 15.9055L10.1686 15.8843C10.106 15.8365 10.0307 15.8107 9.95332 15.8105Z" fill="white"/>
<path d="M14.9387 9.14795C14.871 9.14843 14.8033 9.15189 14.7358 9.1582C14.6992 9.1618 14.6626 9.16623 14.6261 9.17152C14.5839 9.17677 14.5419 9.18317 14.5 9.19067C14.4662 9.1975 14.4326 9.20506 14.3991 9.21333C14.3553 9.22319 14.3117 9.23436 14.2685 9.24672C14.2377 9.25625 14.2072 9.2664 14.1769 9.27722C14.1322 9.29204 14.0881 9.30816 14.0444 9.32562C14.0163 9.33755 13.9884 9.35002 13.9608 9.36305C13.9164 9.38288 13.8726 9.40404 13.8295 9.42656C13.8043 9.44042 13.7793 9.45475 13.7546 9.46952C13.7107 9.49459 13.6677 9.521 13.6255 9.54881C13.6035 9.56397 13.5818 9.57951 13.5603 9.59538C13.5174 9.62584 13.4756 9.65773 13.4348 9.69098C13.416 9.7069 13.3975 9.72317 13.3793 9.73972C13.338 9.77561 13.298 9.81289 13.2594 9.85158C13.2435 9.86808 13.2279 9.88482 13.2125 9.90176C13.1741 9.94255 13.1372 9.9847 13.1017 10.0281C13.0881 10.0455 13.0748 10.063 13.0618 10.0807C13.0269 10.126 12.9936 10.1725 12.9621 10.2202C12.9512 10.2375 12.9405 10.255 12.93 10.2726C12.8991 10.3222 12.87 10.373 12.8428 10.4247C12.8341 10.4423 12.8255 10.46 12.8172 10.4778C12.7909 10.5311 12.7667 10.5854 12.7445 10.6405C12.738 10.6578 12.7316 10.6752 12.7254 10.6928C12.7043 10.7492 12.6853 10.8064 12.6686 10.8642C12.6638 10.8819 12.6593 10.8997 12.655 10.9175C12.6395 10.9759 12.6263 11.035 12.6153 11.0944C12.6125 11.1121 12.6098 11.1299 12.6073 11.1477C12.5976 11.2079 12.5903 11.2685 12.5854 11.3294C12.5821 11.3681 12.5799 11.4069 12.5786 11.4457H12.5781V11.4611C12.5773 11.4775 12.5767 11.4939 12.5763 11.5104C12.5765 11.5168 12.5768 11.5232 12.577 11.5296H12.5772H12.578V13.9996H12.5783C12.5805 14.1868 12.6564 14.3657 12.7896 14.4973C12.9227 14.629 13.1024 14.7029 13.2897 14.7029C13.4769 14.7028 13.6566 14.6289 13.7897 14.4973C13.9228 14.3657 13.9987 14.1868 14.0009 13.9996H14.0013V13.9913V11.4504C14.0144 11.2465 14.0936 11.0523 14.2268 10.8974C14.3601 10.7425 14.5402 10.6352 14.7399 10.5918C14.7423 10.5911 14.7446 10.5906 14.747 10.59C14.7704 10.5853 14.794 10.5816 14.8178 10.5788C14.8255 10.5775 14.8332 10.5764 14.8409 10.5753C14.86 10.5736 14.8792 10.5725 14.8984 10.572C14.9118 10.571 14.9252 10.5704 14.9386 10.57C14.9387 10.57 14.9387 10.57 14.9387 10.57C14.9541 10.5704 14.9694 10.5711 14.9847 10.5723C15.0018 10.5728 15.0189 10.5738 15.0361 10.5752C15.0451 10.5765 15.0542 10.5778 15.0633 10.5794C15.0858 10.5821 15.1081 10.5856 15.1303 10.59C15.1333 10.5907 15.1363 10.5915 15.1393 10.5922C15.1671 10.5982 15.1947 10.6054 15.2218 10.6139C15.4025 10.6712 15.5616 10.7817 15.6783 10.931C15.7951 11.0802 15.864 11.2613 15.8761 11.4504V13.9913V13.9996H15.8765C15.8786 14.1868 15.9545 14.3657 16.0877 14.4973C16.2208 14.6289 16.4004 14.7028 16.5877 14.7029C16.7749 14.7029 16.9546 14.629 17.0878 14.4973C17.2209 14.3657 17.2968 14.1868 17.299 13.9996H17.2993V11.5296H17.3001H17.3004C17.3007 11.5232 17.3009 11.5168 17.3011 11.5104C17.3007 11.4939 17.3001 11.4775 17.2994 11.4611V11.4457H17.2988C17.2975 11.4069 17.2953 11.3681 17.292 11.3294C17.287 11.268 17.2796 11.2068 17.2699 11.146C17.2675 11.129 17.265 11.1122 17.2622 11.0953C17.2512 11.0354 17.2379 10.9758 17.2223 10.9169C17.218 10.8993 17.2136 10.8818 17.2089 10.8643C17.1921 10.8064 17.1732 10.7492 17.152 10.6928C17.1458 10.6753 17.1395 10.6578 17.1329 10.6405C17.1106 10.5851 17.0862 10.5305 17.0598 10.4769C17.0517 10.4596 17.0434 10.4423 17.0348 10.4251C17.0076 10.3731 16.9784 10.3222 16.9473 10.2724C16.9369 10.2548 16.9262 10.2375 16.9153 10.2202C16.8838 10.1725 16.8506 10.126 16.8157 10.0807C16.8026 10.063 16.7893 10.0454 16.7758 10.0281C16.7403 9.9847 16.7033 9.94255 16.6649 9.90176C16.6495 9.88482 16.6339 9.86808 16.618 9.85158C16.5794 9.81289 16.5394 9.77561 16.4982 9.73972C16.4799 9.72317 16.4614 9.7069 16.4426 9.69098C16.4018 9.65764 16.3598 9.62564 16.3168 9.59514C16.2955 9.57941 16.274 9.56397 16.2522 9.54896C16.2097 9.521 16.1664 9.4944 16.1223 9.46919C16.0978 9.45456 16.0731 9.44042 16.0482 9.42666C16.0049 9.40405 15.9609 9.38278 15.9163 9.36291C15.8888 9.34997 15.861 9.33751 15.833 9.32562C15.7894 9.30816 15.7452 9.29199 15.7006 9.27718C15.6702 9.2664 15.6397 9.25625 15.6089 9.24672C15.5657 9.23436 15.5222 9.22319 15.4783 9.21333C15.4449 9.20506 15.4112 9.1975 15.3774 9.19067C15.3356 9.18317 15.2935 9.17677 15.2513 9.17152C15.2148 9.16623 15.1783 9.1618 15.1416 9.1582C15.0742 9.15189 15.0065 9.14843 14.9387 9.14795C14.9387 9.14795 14.9387 9.14795 14.9387 9.14795ZM3.71164 9.1951C3.5229 9.1951 3.34191 9.27005 3.20845 9.40352C3.07499 9.53698 3 9.71797 3 9.90671C3.0002 9.95949 3.00627 10.0121 3.01812 10.0636L3.01658 10.0638L4.02586 14.1781L4.02773 14.1776C4.06863 14.3283 4.15792 14.4613 4.28186 14.5563C4.40579 14.6512 4.55753 14.7027 4.71365 14.7029C4.86467 14.7027 5.0117 14.6545 5.13347 14.5653C5.25529 14.476 5.3455 14.3503 5.39116 14.2064L5.39207 14.2108L6.14429 12.0639L6.8966 14.2108L6.89747 14.2064C6.94313 14.3503 7.03338 14.476 7.15515 14.5653C7.27697 14.6545 7.42395 14.7027 7.57497 14.7029C7.73109 14.7027 7.88284 14.6512 8.00677 14.5563C8.13075 14.4613 8.22005 14.3283 8.26089 14.1776L8.26282 14.1781L9.27209 10.0638L9.27056 10.0636C9.28239 10.0121 9.28845 9.95949 9.28864 9.90671C9.28864 9.71797 9.21369 9.53698 9.08023 9.40352C8.94677 9.27005 8.76577 9.1951 8.57703 9.1951C8.40797 9.19529 8.24454 9.25572 8.11593 9.36546C7.98733 9.4752 7.90203 9.62714 7.87528 9.79403L7.87365 9.79375L7.45561 11.4929L6.81621 9.66649L6.81385 9.66736C6.81342 9.6663 6.81299 9.66524 6.81255 9.66418C6.80587 9.64609 6.79851 9.62829 6.79037 9.61078C6.78855 9.60659 6.78672 9.60246 6.78484 9.59827C6.77647 9.58119 6.76747 9.5644 6.7578 9.54804C6.75549 9.5439 6.75314 9.53981 6.75073 9.53573C6.74087 9.5198 6.73038 9.50426 6.71931 9.48915C6.71643 9.48502 6.71349 9.48088 6.71051 9.47684C6.69949 9.4624 6.6879 9.44845 6.67577 9.43493C6.67197 9.43051 6.66812 9.42613 6.66423 9.42185C6.6521 9.40895 6.63945 9.39649 6.62636 9.38456C6.62203 9.38042 6.61766 9.37638 6.61323 9.37234C6.60014 9.36098 6.58662 9.35011 6.57277 9.33977C6.56757 9.33568 6.56228 9.33169 6.55699 9.32774C6.54347 9.31826 6.52966 9.30927 6.51556 9.3007C6.50926 9.29676 6.50291 9.29286 6.49651 9.28906C6.4827 9.28131 6.46861 9.27405 6.45432 9.26722C6.44715 9.26361 6.43993 9.26014 6.43267 9.25678C6.41891 9.25081 6.40496 9.24528 6.39086 9.24018C6.38249 9.23691 6.37402 9.23383 6.36555 9.23089C6.35179 9.22656 6.33794 9.22262 6.32398 9.21911C6.31494 9.2166 6.30589 9.21429 6.2968 9.21218C6.28319 9.20929 6.26952 9.20684 6.25576 9.20477C6.24585 9.20304 6.23594 9.20155 6.22598 9.20025C6.21314 9.1989 6.20019 9.19789 6.1873 9.19726C6.17306 9.19611 6.15877 9.19539 6.14448 9.1951C6.14438 9.1951 6.14424 9.1951 6.14414 9.1951C6.12957 9.19539 6.11494 9.19616 6.10041 9.19736C6.088 9.19798 6.07563 9.19895 6.06327 9.2002C6.05254 9.20159 6.04186 9.20318 6.03123 9.20506C6.01824 9.20703 6.0053 9.20934 5.9924 9.21203C5.98283 9.21425 5.97335 9.2167 5.96387 9.2193C5.95016 9.22276 5.93654 9.22661 5.92307 9.23089C5.91461 9.23383 5.90614 9.23691 5.89777 9.24018C5.88367 9.24523 5.86972 9.25076 5.85596 9.25678C5.84869 9.26014 5.84148 9.26361 5.83431 9.26722C5.82007 9.274 5.80602 9.28131 5.79221 9.28901C5.78557 9.29296 5.77903 9.29695 5.77253 9.30109C5.75873 9.30941 5.74516 9.31826 5.73193 9.32755C5.72635 9.33164 5.72081 9.33582 5.71538 9.3401C5.70167 9.35035 5.68834 9.36113 5.6754 9.37234C5.67097 9.37638 5.66659 9.38042 5.66226 9.38456C5.64918 9.39649 5.63657 9.4089 5.62445 9.4218C5.62045 9.42622 5.61651 9.4307 5.61261 9.43527C5.60063 9.4486 5.58918 9.4624 5.57826 9.4766C5.57513 9.48088 5.57205 9.48521 5.56902 9.48954C5.55805 9.5045 5.54771 9.5199 5.53794 9.53568C5.53549 9.53986 5.53304 9.5441 5.53068 9.54833C5.5211 9.56454 5.51216 9.58119 5.50393 9.59813C5.50196 9.60241 5.49998 9.60674 5.49806 9.61112C5.49007 9.62848 5.48271 9.64619 5.47612 9.66413C5.47569 9.66519 5.47521 9.6663 5.47477 9.66736L5.47237 9.66649L4.83302 11.4929L4.41498 9.79375L4.41334 9.79403C4.38659 9.62714 4.30129 9.4752 4.17269 9.36546C4.04409 9.25567 3.88066 9.19529 3.71159 9.1951H3.71164ZM10.9333 9.19515C10.7468 9.19529 10.5677 9.26866 10.4347 9.39957C10.3017 9.53043 10.2255 9.7083 10.2223 9.89488H10.2217V9.90676V13.9913V14.0403H10.2234C10.2359 14.2201 10.3161 14.3885 10.4478 14.5115C10.5796 14.6345 10.7531 14.7029 10.9333 14.7029C11.1135 14.7027 11.2868 14.6342 11.4184 14.5112C11.55 14.3883 11.6301 14.22 11.6425 14.0403H11.6449V13.9913V9.90676V9.89488H11.6446C11.6414 9.70825 11.5651 9.53038 11.4321 9.39947C11.2991 9.26861 11.12 9.19524 10.9333 9.19515Z" fill="#FBC509"/>
</svg>
