<svg width="24" height="24" viewBox="0 0 24 24" fill="none" xmlns="http://www.w3.org/2000/svg">
<circle cx="12" cy="12" r="12" fill="#121212"/>
<path fill-rule="evenodd" clip-rule="evenodd" d="M6.59367 7.36434C6.74871 6.60465 7.33785 6.11628 8.16731 5.9845C9.20607 5.82171 10.0588 5.37984 10.6169 4.43411C10.6789 4.32558 10.8805 4.24806 11.0278 4.23256C11.6479 4.16279 12.1828 3.92248 12.6634 3.52713C12.9813 3.27132 13.0665 2.99225 12.8805 2.62016C12.8241 2.51214 12.7735 2.39842 12.7164 2.2704C12.6793 2.18712 12.6395 2.09777 12.5937 2C13.1208 2.10853 13.5549 2.31008 13.8805 2.65116C14.0042 2.78065 14.1288 2.90942 14.2533 3.03818L14.2534 3.03828L14.2535 3.03838C15.1356 3.95025 16.0173 4.86177 16.6014 6.02326C17.896 8.60465 18.3611 11.3178 17.9348 14.1783C17.8882 14.4651 17.772 14.5271 17.5084 14.5194C17.0433 14.5039 16.5859 14.5039 16.1208 14.5426C15.9813 14.5504 15.772 14.6667 15.7177 14.7907C15.6014 15.0465 15.4619 15.1473 15.1906 15.1163C15.0216 15.0968 14.8472 15.1045 14.6765 15.1121L14.6764 15.1121C14.6435 15.1136 14.6107 15.115 14.5782 15.1163C14.5753 15.1163 14.5724 15.1163 14.5694 15.1163C14.5674 15.1162 14.5654 15.1162 14.5634 15.1162C14.5596 15.1162 14.5556 15.1161 14.5516 15.1161L14.5441 15.116C14.4687 15.115 14.3745 15.1138 14.3611 15.1473C14.2292 15.4531 13.9905 15.4296 13.76 15.4068C13.6926 15.4002 13.6258 15.3936 13.5627 15.3953C12.932 15.4024 12.3013 15.4014 11.6713 15.4005H11.6708C10.915 15.3993 10.1601 15.3982 9.40762 15.4109C9.05103 15.4186 8.95026 15.2946 8.99677 14.9612C9.01615 14.814 9.0239 14.6667 9.03165 14.5194C9.0394 14.3721 9.04716 14.2248 9.06654 14.0775C9.23708 12.7287 9.97351 11.8295 11.2526 11.3566C11.865 11.1318 12.4774 10.8915 13.051 10.5814C13.8495 10.1473 14.2293 9.4186 14.3379 8.54264L14.2371 8.44186C14.1737 8.4951 14.102 8.54419 14.0305 8.5932C13.8832 8.69407 13.7365 8.7946 13.6634 8.93023C13.082 10.031 12.1363 10.5659 10.9813 10.876C9.08979 11.3798 8.15181 12.876 8.42313 14.814C8.43863 14.8992 8.43863 14.9845 8.43863 15.0698C7.88824 15.1938 7.84173 15.1705 7.77196 14.6589C7.57041 13.1395 8.26809 11.0078 10.5549 10.5039C11.5239 10.2868 12.4231 9.91473 12.958 8.99225C12.982 8.95392 13 8.91559 13.0249 8.86263C13.0403 8.82989 13.0584 8.79156 13.082 8.74419C12.02 9.23256 11.0045 9.30233 9.95801 8.96124C9.84948 8.93023 9.69444 9 9.57817 9.06202C9.04328 9.35659 8.48514 9.46512 7.81847 9.27132C7.88594 9.23156 7.9519 9.19275 8.01657 9.15469L8.01664 9.15465L8.01675 9.15458C8.36815 8.94779 8.68135 8.76348 8.98902 8.57364L8.998 8.56793C9.16703 8.46048 9.37363 8.32913 9.20607 8.09302C9.05032 7.87052 8.87329 7.97443 8.69533 8.07888C8.68728 8.08361 8.67924 8.08833 8.67119 8.09302C8.26034 8.33333 7.84948 8.56589 7.43088 8.7907C7.08979 8.97674 6.78747 8.76744 6.80297 8.36434C6.82623 7.72093 7.26809 7.16279 7.98902 6.89922C8.44638 6.73643 8.91925 6.5969 9.38437 6.47287C10.051 6.29457 10.5549 5.89922 10.958 5.36434C11.1363 5.13178 11.3301 4.97674 11.6169 4.89147C12.1906 4.72093 12.7022 4.42636 12.9813 3.71318C12.9117 3.76807 12.8577 3.80742 12.8128 3.84019C12.7625 3.87683 12.7235 3.90525 12.6867 3.93798C12.2526 4.34109 11.7487 4.55039 11.1596 4.5814C11.0355 4.58915 10.8572 4.66667 10.7952 4.76744C10.2603 5.62791 9.46189 6.08527 8.50065 6.23256C7.7022 6.37209 7.02003 6.6124 6.59367 7.36434ZM13.02 4.54264C13.4851 4.32558 13.7332 4.07752 13.7487 3.65891C13.772 3.18605 13.4696 2.65891 12.9735 2.37984C13.4309 3.08527 13.3534 3.76744 13.02 4.54264ZM12.1402 5.65116C11.9689 5.65116 11.8301 5.78999 11.8301 5.96124C11.8301 6.13249 11.9689 6.27132 12.1402 6.27132H12.6828C12.8541 6.27132 12.9929 6.13249 12.9929 5.96124C12.9929 5.78999 12.8541 5.65116 12.6828 5.65116H12.1402Z" fill="white"/>
<path d="M8.47739 17.6434C8.22158 16.6279 8.69444 16 9.7022 15.9922C11.3844 15.9845 13.0588 15.9845 14.741 15.9922C15.4619 15.9922 15.9658 16.3953 16.02 17.0078C16.0356 17.1482 16.0128 17.2921 15.9891 17.4419C15.9775 17.5153 15.9657 17.5901 15.958 17.6667C16.1053 17.6977 16.2526 17.7287 16.3999 17.7674C16.958 17.9225 17.2526 18.3101 17.2603 18.8915C17.2654 19.1159 17.2638 19.3438 17.2621 19.5838C17.2612 19.7085 17.2603 19.8365 17.2603 19.969C17.1977 19.972 17.1384 19.9761 17.0818 19.9801L17.0817 19.9801C16.9912 19.9864 16.9072 19.9922 16.8262 19.9922C16.0569 19.9922 15.2875 19.9918 14.5182 19.9913C12.21 19.9898 9.90184 19.9884 7.59367 20C7.20607 20 7.03553 19.907 7.1053 19.5116C7.11055 19.4959 7.10868 19.4765 7.10693 19.4585C7.1061 19.4499 7.1053 19.4416 7.1053 19.4341C7.11305 18.1163 7.21382 17.9767 8.47739 17.6434Z" fill="white"/>
<path d="M7.77322 17.6806C7.7866 17.6784 7.79914 17.6763 7.81072 17.6744C7.81533 17.5731 7.81446 17.4717 7.81361 17.3722C7.81159 17.1368 7.80966 16.9116 7.88049 16.7209C7.9557 16.5383 8.10537 16.3817 8.25726 16.2228C8.32454 16.1524 8.39226 16.0815 8.45413 16.0078C8.08979 15.9767 7.77972 16.093 7.51615 16.3488C7.12855 16.7209 7.13631 17.1783 7.27584 17.6512C6.07429 17.938 5.9115 18.1395 5.9115 19.3411V19.4961C5.9115 20.031 5.95026 20.062 6.51615 19.9147C6.51615 19.799 6.5153 19.6825 6.51444 19.5653C6.51271 19.3293 6.51097 19.091 6.51615 18.8527C6.53165 18.2868 6.86499 17.8837 7.41538 17.7519C7.54432 17.718 7.67921 17.696 7.77322 17.6806Z" fill="white"/>
</svg>
