<svg width="24" height="24" viewBox="0 0 24 24" fill="none" xmlns="http://www.w3.org/2000/svg">
<circle cx="12" cy="12" r="12" fill="#4BDB4B"/>
<path opacity="0.4" d="M18.9787 14.3482C19.5787 15.4482 19.1787 16.8482 18.1787 17.4482C17.0787 18.0482 15.6787 17.6482 15.0787 16.6482L10.2787 8.44824C9.6787 7.34824 10.0787 5.94824 11.1787 5.34824C12.2787 4.64824 13.5787 5.04824 14.2787 6.14824L18.9787 14.3482Z" fill="black"/>
<path opacity="0.65" d="M9.54823 16.6482C8.94823 17.7482 7.54823 18.1482 6.44823 17.4482C5.34823 16.8482 4.94823 15.4482 5.64823 14.3482L10.3482 6.14824C10.9482 5.04824 12.3482 4.64824 13.4482 5.34824C14.5482 5.94824 14.9482 7.34824 14.2482 8.44824L9.54823 16.6482Z" fill="black"/>
<path d="M14.55 7.3C14.55 8.6 12.25 11.8 12.25 11.8C12.25 11.8 10.05 8.6 10.05 7.3C10.05 6 11.05 5 12.35 5C13.65 5 14.55 6.1 14.55 7.3Z" fill="black"/>
</svg>
