<svg width="24" height="24" viewBox="0 0 24 24" fill="none" xmlns="http://www.w3.org/2000/svg">
<circle cx="12" cy="12" r="12" fill="#0055D5"/>
<path d="M6.52667 7.9376C6.52667 7.9376 5.23573 6.90581 5.14694 9.4541C5.05816 11.4289 5.06056 15.2633 5.97478 17.0749C6.3611 17.7564 6.877 17.5477 7.83681 16.8686C8.67185 16.2519 11.6928 13.4685 12.9718 12.2471C14.2507 11.0258 16.8446 7.52249 17.3845 9.90281C17.5981 10.9034 17.862 11.7528 17.6605 13.9724C17.5981 14.6562 17.3053 15.1745 15.9712 14.2483C14.9634 13.6005 14.006 12.9046 14.006 12.9046C14.006 12.9046 13.8212 12.5735 13.3845 13.111C13.0414 13.5405 12.8686 13.646 13.4181 13.9724C13.97 14.2987 16.7606 16.2231 17.8308 16.5231C18.7139 16.7798 19.2178 16.775 19.2442 15.0402C19.2394 13.6628 19.1602 9.72044 18.6587 8.04078C18.2795 6.9946 17.7229 6.51949 16.5207 7.69525C15.3185 8.87102 11.5273 12.5471 9.45409 14.2123C8.07916 15.2441 7.49128 16.1751 6.97298 14.4547C6.60825 13.1517 6.13555 9.09657 7.62805 9.86921C8.56147 10.3155 9.02698 10.3131 8.66225 10.5939C8.29752 10.8722 7.24893 11.8344 7.24893 11.8344C7.24893 11.8344 6.92499 12.096 7.07616 12.6622C7.22733 13.0582 7.22733 13.2549 8.04077 12.4895C8.85421 11.724 9.45409 11.1458 9.45409 11.1458C9.45409 11.1458 9.58367 10.9418 9.96999 11.3185C10.3563 11.6952 10.4187 11.8008 10.4187 11.8008C10.4187 11.8008 10.5219 12.0816 10.9346 11.5945C11.3497 11.1074 11.6161 10.8098 10.8314 10.3539C10.0492 9.89321 6.52667 7.9376 6.52667 7.9376Z" fill="white"/>
</svg>
