<svg width="24" height="24" viewBox="0 0 24 24" fill="none" xmlns="http://www.w3.org/2000/svg">
<path d="M12 24C18.6274 24 24 18.6274 24 12C24 5.37258 18.6274 0 12 0C5.37258 0 0 5.37258 0 12C0 18.6274 5.37258 24 12 24Z" fill="#C1FF3C"/>
<path fill-rule="evenodd" clip-rule="evenodd" d="M19.5264 11.1648V9.4944H17.856V6.144H16.1856V9.4944H12.8448V17.856H14.5152V11.1648H16.1856V17.856H19.5264V16.1856H17.856V11.1648H19.5264ZM10.3296 15.3504C10.3296 15.8112 9.95521 16.1856 9.49441 16.1856H6.15361V12.8352H9.49441C9.95521 12.8352 10.3296 13.2096 10.3296 13.6704V15.3408V15.3504ZM6.15361 7.8144H8.65921C9.12001 7.8144 9.49441 8.1888 9.49441 8.6496V10.32C9.49441 10.7808 9.12001 11.1552 8.65921 11.1552H6.15361V7.8048V7.8144ZM10.6176 11.7984V11.568C10.9632 11.2608 11.1744 10.8192 11.1744 10.32V8.2944C11.1744 7.104 10.2048 6.1344 9.01441 6.1344H4.48322V17.8464H9.78241C11.0112 17.8464 12.0096 16.848 12.0096 15.6192V13.6704C12.0096 12.8064 11.4432 12.048 10.6176 11.7984Z" fill="black"/>
</svg>
