<svg width="24" height="24" viewBox="0 0 24 24" fill="none" xmlns="http://www.w3.org/2000/svg">
<circle cx="12" cy="12" r="12" fill="white"/>
<path d="M15.0469 19.7326L17.1427 20.5346C17.1414 20.5703 17.133 20.6028 17.1174 20.6321C17.1099 20.6462 17.0985 20.6545 17.0832 20.657C16.281 20.8007 15.4816 20.9592 14.685 21.1323C14.6152 21.1473 14.4952 21.1834 14.4361 21.2134C13.4614 21.709 12.4685 22.2076 11.4572 22.7092C11.4493 22.7131 11.4405 22.7151 11.4317 22.7148C11.4229 22.7146 11.4142 22.7121 11.4066 22.7077C11.3989 22.7033 11.3924 22.6971 11.3878 22.6895C11.3831 22.682 11.3804 22.6735 11.3799 22.6646C11.3775 22.6229 11.3738 22.5662 11.3583 22.524C11.0615 21.7172 10.7059 20.4047 10.5115 19.57L13.5541 19.5066C13.5541 19.5066 15.0297 19.7313 15.0469 19.7326Z" fill="#148065"/>
<path d="M8.79936 19.8052C8.83779 19.7983 8.85779 19.8058 8.85936 19.8277C8.86592 19.9252 8.87186 19.9968 8.87717 20.0424C8.87873 20.0568 8.87779 20.0708 8.87436 20.0846C8.85936 20.1443 8.87076 20.1974 8.90857 20.2439L8.77451 20.3063C8.76154 20.3124 8.7504 20.3218 8.74218 20.3335C8.73397 20.3453 8.72897 20.3589 8.72769 20.3732C8.72641 20.3875 8.72889 20.4018 8.73489 20.4149C8.74088 20.4279 8.75018 20.4391 8.76186 20.4474C8.84529 20.5071 8.94561 20.5469 9.06279 20.5669C9.04373 20.6263 9.04232 20.679 9.05857 20.7249C9.06451 20.7415 9.07607 20.7507 9.09326 20.7525L9.2367 20.769C9.25639 20.7711 9.25764 20.7771 9.24045 20.7868C9.23389 20.7905 9.22623 20.7943 9.21748 20.798C9.19967 20.8058 9.19779 20.8164 9.21186 20.8299L9.36654 20.9794C9.37748 20.9897 9.38404 21.0022 9.38623 21.0169C9.40029 21.1179 9.35936 21.1735 9.26342 21.1838C9.21936 21.1885 9.18279 21.2049 9.17951 21.2504C9.17856 21.2634 9.18201 21.2763 9.18931 21.2872C9.19661 21.2981 9.20735 21.3062 9.21982 21.3104C9.43076 21.3797 9.51607 21.1889 9.69514 21.2222C9.71014 21.225 9.71951 21.234 9.72326 21.249C9.75748 21.3896 9.86389 21.3816 9.92342 21.4852C9.93123 21.4986 9.94295 21.5066 9.95857 21.5091C10.1095 21.5322 10.2337 21.6011 10.3312 21.7158C10.3349 21.7201 10.3395 21.7236 10.3446 21.7261C10.3498 21.7286 10.3554 21.7301 10.3612 21.7304L10.7048 21.7468C10.7154 21.7473 10.7255 21.7512 10.7337 21.7579C10.7419 21.7647 10.7477 21.7739 10.7503 21.7843C10.8572 22.214 10.9323 22.6369 10.9758 23.0532C10.9856 23.1441 11.0367 23.2093 11.0419 23.3082C11.0428 23.3229 11.0475 23.3363 11.0559 23.3485C11.1853 23.5308 11.4708 23.6438 11.752 23.776C11.8786 23.8355 12.097 23.7966 12.0783 24H11.7169C9.92061 23.9475 8.22482 23.5252 6.62951 22.733C6.68623 22.5441 7.36451 22.0819 7.55014 21.9465C7.77936 21.7791 7.92982 21.5958 8.0892 21.3783C8.09112 21.3758 8.09226 21.3728 8.09249 21.3696C8.09271 21.3664 8.09202 21.3633 8.09048 21.3605C8.08894 21.3577 8.08662 21.3554 8.08382 21.3539C8.08101 21.3524 8.07783 21.3518 8.07467 21.3521C7.82467 21.3733 7.57576 21.3611 7.32795 21.3155C7.32143 21.3144 7.31531 21.3116 7.31015 21.3074C7.305 21.3033 7.30097 21.2979 7.29845 21.2918C7.29592 21.2856 7.29499 21.279 7.29572 21.2724C7.29645 21.2658 7.29883 21.2595 7.30264 21.2541C7.42514 21.0766 7.56998 20.9188 7.73717 20.7807C7.74374 20.7755 7.74819 20.7681 7.74969 20.7599C7.75119 20.7517 7.74963 20.7432 7.74531 20.7361C7.74099 20.7289 7.7342 20.7236 7.72622 20.7211C7.71824 20.7186 7.70963 20.7191 7.70201 20.7225C7.25482 20.9125 6.82873 21.0863 6.42373 21.2438C6.41373 21.2475 6.40498 21.248 6.39748 21.2452C6.38936 21.2424 6.3817 21.238 6.37451 21.2321C6.42326 21.1649 6.46764 21.1204 6.50764 21.0985C7.26732 20.6816 8.02451 20.2604 8.7792 19.8347C8.7867 19.8304 8.79201 19.8243 8.79514 19.8165L8.79936 19.8052Z" fill="#2D9E82"/>
<path d="M11.2092 22.6341C11.2141 22.6487 11.2239 22.661 11.2369 22.6688C11.3714 22.7476 11.7764 22.9763 11.8162 23.1155L12.3478 23.9921C12.3006 23.9824 12.2697 23.9851 12.255 24.0001H12.0783C12.097 23.7966 11.8786 23.8355 11.752 23.776C11.4708 23.6438 11.1853 23.5309 11.0559 23.3485C11.0475 23.3363 11.0428 23.3229 11.0419 23.3082C11.0367 23.2093 10.9856 23.1441 10.9758 23.0532C10.9323 22.637 10.8572 22.214 10.7503 21.7843C10.7477 21.774 10.7419 21.7647 10.7337 21.758C10.7255 21.7512 10.7154 21.7473 10.7048 21.7468L10.3612 21.7304C10.3554 21.7301 10.3498 21.7286 10.3446 21.7261C10.3395 21.7236 10.3349 21.7201 10.3312 21.7159C10.2337 21.6012 10.1095 21.5323 9.95857 21.5091C9.94295 21.5066 9.93123 21.4987 9.92341 21.4852C9.86388 21.3816 9.75748 21.3896 9.72326 21.249C9.71951 21.234 9.71013 21.2251 9.69513 21.2223C9.51607 21.189 9.43076 21.3798 9.21982 21.3104C9.20735 21.3062 9.19661 21.2981 9.18931 21.2872C9.18201 21.2764 9.17856 21.2634 9.17951 21.2504C9.18279 21.2049 9.21935 21.1885 9.26341 21.1838C9.35935 21.1735 9.40029 21.1179 9.38623 21.017C9.38404 21.0023 9.37748 20.9898 9.36654 20.9795L9.21185 20.8299C9.19779 20.8165 9.19966 20.8059 9.21748 20.798C9.22623 20.7943 9.23388 20.7905 9.24045 20.7868C9.25763 20.7771 9.25638 20.7712 9.2367 20.769L9.09326 20.7526C9.02262 20.7449 9.03137 20.5852 9.03906 20.5431L8.96893 19.722L10.2701 19.1489C10.5357 20.3464 10.8323 21.4749 11.2092 22.6341Z" fill="#229175"/>
<path d="M6.62952 22.7331C6.10671 22.4706 5.59452 22.1629 5.09296 21.8101L6.29858 21.3076C6.31202 21.302 6.32202 21.2929 6.32858 21.2804C6.33921 21.2604 6.35452 21.2443 6.37452 21.2321C6.38171 21.2381 6.38936 21.2425 6.39749 21.2453C6.40499 21.2481 6.41374 21.2476 6.42374 21.2439C6.82874 21.0864 7.25483 20.9126 7.70202 20.7226C7.70964 20.7192 7.71825 20.7187 7.72623 20.7212C7.7342 20.7236 7.74099 20.729 7.74532 20.7361C7.74964 20.7433 7.7512 20.7517 7.7497 20.76C7.7482 20.7682 7.74375 20.7756 7.73718 20.7807C7.56999 20.9189 7.42514 21.0767 7.30264 21.2542C7.29884 21.2596 7.29646 21.2659 7.29572 21.2725C7.29499 21.279 7.29593 21.2857 7.29846 21.2918C7.30098 21.2979 7.305 21.3033 7.31016 21.3075C7.31532 21.3116 7.32144 21.3144 7.32796 21.3156C7.57577 21.3612 7.82467 21.3734 8.07467 21.3521C8.07784 21.3519 8.08102 21.3525 8.08383 21.354C8.08663 21.3555 8.08895 21.3578 8.09048 21.3605C8.09202 21.3633 8.09272 21.3665 8.09249 21.3697C8.09227 21.3728 8.09113 21.3759 8.08921 21.3784C7.92983 21.5959 7.77936 21.7792 7.55014 21.9465C7.36452 22.082 6.68624 22.5442 6.62952 22.7331Z" fill="#68B0D2"/>
<path d="M18.3764 21.4838C18.4236 21.6425 18.5259 21.8041 18.6834 21.9685C16.7522 23.2469 14.6403 23.9214 12.3478 23.9921L11.8162 23.1155C12.0384 22.89 12.4336 22.3758 12.7336 22.3135C13.4158 22.1719 14.0995 22.0391 14.7848 21.915C15.1706 21.8447 15.6037 21.848 15.9722 21.7955C16.0922 21.7786 16.2595 21.496 16.3753 21.331C16.4615 21.2068 16.5862 21.2419 16.7062 21.2307C16.9053 21.2113 17.1025 21.1816 17.2978 21.1416C17.5336 21.0928 17.812 21.181 18.0267 21.2546C18.1833 21.3083 18.2998 21.3847 18.3764 21.4838Z" fill="#55A1CC"/>
<path d="M17.1427 20.5347C17.228 20.5647 17.3072 20.5914 17.3859 20.6392C17.9544 20.9861 18.5266 21.3309 19.1025 21.6737L18.8081 21.8786L18.3764 21.4839C18.2998 21.3848 18.1833 21.3084 18.0267 21.2547C17.812 21.1811 17.5336 21.0929 17.2978 21.1417C17.1025 21.1817 16.9053 21.2114 16.7063 21.2308C16.5863 21.242 16.4616 21.2069 16.3753 21.3311C16.2595 21.4961 16.0922 21.7787 15.9722 21.7956C15.6038 21.8481 15.1706 21.8448 14.7848 21.9151C14.0995 22.0392 13.4158 22.172 12.7336 22.3136C12.4336 22.3759 12.0384 22.8901 11.8163 23.1156C11.7764 22.9764 11.3714 22.7476 11.2369 22.6689C11.2239 22.661 11.2141 22.6487 11.2092 22.6342C11.0911 22.2709 10.9828 21.8973 10.8047 21.5589C10.75 21.4548 10.7222 21.3436 10.7213 21.2251H11.0494C11.0009 21.2311 10.9797 21.2451 10.9856 21.2673C11.0128 21.3695 11.0431 21.4703 11.0766 21.5697C11.183 21.8856 11.242 22.2081 11.3583 22.524C11.3738 22.5662 11.3775 22.6229 11.3798 22.6647C11.3804 22.6735 11.3831 22.6821 11.3877 22.6896C11.3924 22.6971 11.3989 22.7034 11.4065 22.7078C11.4142 22.7122 11.4228 22.7146 11.4317 22.7149C11.4405 22.7151 11.4493 22.7132 11.4572 22.7092C12.4684 22.2076 13.4614 21.709 14.4361 21.2134C14.4952 21.1834 14.6152 21.1473 14.685 21.1323C15.4816 20.9592 16.2809 20.8008 17.0831 20.657C17.0984 20.6545 17.1098 20.6462 17.1173 20.6322C17.133 20.6028 17.1414 20.5703 17.1427 20.5347Z" fill="#2D9E82"/>
<path d="M18.3764 21.4839L18.8081 21.8786L18.6834 21.9686C18.5259 21.8042 18.4236 21.6426 18.3764 21.4839Z" fill="#68B0D2"/>
<g filter="url(#filter0_i_629_4309)">
<path d="M17.9742 9.54615C18.0061 9.9024 18.052 10.3674 17.9377 10.7087C17.8838 10.8699 17.8102 11.026 17.8069 11.1994C18.4278 11.9129 14.1816 11.6875 13.2497 11.6875C12.3179 11.6875 9.77709 11.2499 8.87172 11.6875C8.24775 11.9891 8.01066 12.7543 7.29469 12.6765C7.02313 12.5587 6.85876 12.3597 6.80157 12.0797C6.78001 11.9747 6.75047 11.9715 6.67219 11.9129C6.52657 11.8038 6.42032 11.6721 6.35344 11.5177C6.34662 11.5021 6.33579 11.4887 6.3221 11.4788C6.30841 11.4689 6.29235 11.4629 6.27563 11.4615C5.43797 11.3846 5.19282 10.4007 5.89407 9.93615C5.9003 9.93195 5.90546 9.92633 5.90913 9.91973C5.91279 9.91314 5.91486 9.90575 5.91516 9.89818C5.91704 9.84725 5.89922 9.801 5.86172 9.75943C5.47782 9.33615 5.28844 8.48256 5.83782 8.10615C5.94047 8.03584 6.08579 7.99225 6.21235 7.94537C6.219 7.94293 6.22456 7.93818 6.228 7.93199C6.23145 7.92579 6.23254 7.91856 6.2311 7.91162C6.09891 7.26006 6.62391 6.83772 7.23469 6.87662C7.25094 6.87787 7.26391 6.87178 7.2736 6.85834C7.35485 6.74428 7.45813 6.65709 7.58344 6.59678C7.60313 6.5874 7.61016 6.57225 7.60454 6.55131C7.4736 6.04662 7.63797 5.6924 8.09766 5.48865L8.10173 5.48519L8.10351 5.48015L8.10254 5.4749L8.09907 5.47084L7.9425 5.37006C8.13157 5.37631 8.60052 5.1624 8.60052 5.1624C9.19606 5.00786 10.5924 4.34488 11.1741 4.50287C11.2744 4.41897 11.3573 4.2985 11.4408 4.22912C11.8167 3.91412 12.2105 4.03084 12.5494 4.32897C12.5561 4.33474 12.5646 4.338 12.5735 4.33817C12.5823 4.33834 12.5908 4.33542 12.5977 4.3299C13.0163 3.98959 13.613 4.13772 13.8234 4.63225C13.8591 4.71662 13.8778 4.83053 13.9008 4.93037C13.9041 4.94577 13.9131 4.95947 13.9261 4.96881L14.1816 5.15631C14.1944 5.16568 14.2083 5.16787 14.2233 5.16287C14.7055 5.00318 15.0764 5.13178 15.3361 5.54865C15.3476 5.56704 15.3658 5.58025 15.3869 5.58549C15.408 5.59074 15.4303 5.58761 15.4491 5.57678C16.0167 5.24584 16.703 5.63068 16.7011 6.29022C16.7011 6.39943 16.6664 6.52412 16.6439 6.64225C16.6409 6.65837 16.6434 6.67505 16.6509 6.68959C16.7956 6.96834 16.8627 7.26553 16.852 7.58115C16.8517 7.59615 16.8588 7.60553 16.8731 7.60928C17.3508 7.73678 17.6602 8.1985 17.4989 8.68693C17.4936 8.7035 17.4958 8.71881 17.5055 8.73287C17.6627 8.96256 17.7853 9.20959 17.8734 9.47397C17.8788 9.48988 17.8903 9.50315 17.9053 9.511L17.9742 9.54615Z" fill="#2D9E82"/>
</g>
<path d="M14.8811 20.0344C14.9005 20.0969 14.893 20.1414 14.8586 20.168C14.5758 20.3839 14.2789 20.5564 13.9823 20.4661L13.9237 20.4277C13.8709 20.393 13.8715 20.3592 13.9256 20.3264C14.2225 20.1458 14.4562 19.9044 14.6269 19.6022C14.6344 19.5888 14.6453 19.5846 14.6597 19.5896C14.7937 19.6358 14.7674 19.9163 14.8811 20.0344Z" fill="#0D1110"/>
<path d="M14.714 19.6641C14.714 19.5898 14.4546 20.2522 13.9823 20.4661C12.9756 20.9219 10.8848 21.0622 9.82217 20.5008C9.80769 20.4933 9.79111 20.4914 9.77576 20.4956C9.74857 20.5031 9.72467 20.5055 9.70404 20.5027C9.69404 20.4645 9.6667 20.4306 9.62201 20.4009C9.50545 20.3234 9.3917 20.243 9.28076 20.1595C9.44295 20.098 9.62311 20.0606 9.82123 20.0475C9.92717 20.0592 9.96607 19.9842 9.95482 19.8877C9.93232 19.6889 9.85156 18.9258 9.85156 18.9258C10.3274 18.8612 14.625 18.4102 14.625 18.4102C14.633 18.7739 14.7766 19.301 14.714 19.6641Z" fill="#2E2F2D"/>
<g filter="url(#filter1_i_629_4309)">
<path d="M13.3059 12.3164L13.32 12.5269C13.3209 12.5425 13.3272 12.5556 13.3387 12.5663C13.4444 12.6641 13.5595 12.7485 13.6842 12.8194C13.7299 12.8456 13.7778 12.8533 13.827 12.8612C13.8499 12.8649 13.8732 12.8686 13.8965 12.8742C14.2193 12.9536 14.4161 12.7142 14.6185 12.468C14.7318 12.3301 14.8469 12.1901 14.9869 12.1027C14.9997 12.0945 15.0126 12.0945 15.0258 12.1027L15.3647 12.3103C15.3786 12.3188 15.3891 12.332 15.3941 12.3475C15.3992 12.363 15.3986 12.3797 15.3923 12.3947C15.292 12.6378 15.1745 12.8786 15.0398 13.117C15.0348 13.1261 15.0369 13.1353 15.0459 13.1447C15.025 13.145 15.013 13.151 15.0098 13.1625C15.008 13.1691 15.0061 13.1742 15.0061 13.1742C14.7263 13.7104 14.5758 14.3023 14.5606 14.9063L14.5542 17.2027C14.578 17.4899 14.5909 17.7674 14.5931 18.0352C14.5947 18.2136 14.5542 18.3324 14.4642 18.3994C13.5135 19.1071 12.2805 19.4991 11.0156 19.1094C10.4028 18.9206 9.52788 18.3985 9.27282 17.7422L9.14062 16.9414L8.9953 15.1767C9.01123 15.1102 9.01311 15.055 9.00092 15.0113C9.02405 14.8116 9.0528 14.4669 9.08717 13.9772C9.1392 13.245 8.88467 12.7106 8.38873 12.1899C8.37217 12.1727 8.35951 12.1692 8.35076 12.1795C8.22264 12.0474 8.08748 11.9219 7.9453 11.8031C7.79483 11.677 7.74795 11.5181 7.70014 11.3391C7.69608 11.3238 7.69748 11.3091 7.70436 11.295C7.75155 11.1975 7.82045 11.1167 7.91108 11.0527C7.96545 10.9958 8.02733 10.9552 8.0967 10.9308C8.11264 10.9255 8.12592 10.9294 8.13655 10.9425C8.24873 11.0828 8.39311 11.1825 8.56967 11.2416C8.67842 11.2653 8.79858 11.2628 8.93014 11.2341L9.10545 11.2383C9.12139 11.2386 9.1353 11.2439 9.14717 11.2542C9.1929 11.2925 9.24121 11.3205 9.28914 11.3482C9.33504 11.3747 9.38061 11.401 9.42326 11.4361C9.53795 11.5302 9.66186 11.6106 9.79498 11.6775C9.89206 11.7259 9.97663 11.7303 10.0724 11.7354C10.1011 11.7369 10.1307 11.7385 10.162 11.7413C10.9203 11.8074 11.0924 11.3819 11.3372 10.7767C11.4926 10.3923 12.4503 10.4648 12.7312 10.5999C13.0894 10.7719 13.1283 11.0227 13.185 11.4024C13.2306 11.7061 13.2709 12.0108 13.3059 12.3164Z" fill="#73CEB7"/>
</g>
<g opacity="0.7" filter="url(#filter2_f_629_4309)">
<ellipse cx="9.82119" cy="12.7021" rx="0.303812" ry="0.833008" transform="rotate(-37.8057 9.82119 12.7021)" fill="white"/>
</g>
<g filter="url(#filter3_f_629_4309)">
<ellipse cx="12.1904" cy="17.424" rx="0.866663" ry="0.259888" transform="rotate(-3.00254 12.1904 17.424)" fill="url(#paint0_linear_629_4309)"/>
</g>
<circle cx="9.89781" cy="2.80089" r="0.261215" fill="#D4D3BE"/>
<path d="M10.0683 3.14344C10.0683 3.14344 9.88766 3.67984 9.8236 3.99703C9.81735 4.02859 9.80016 4.03984 9.77203 4.03078C9.81094 3.75234 9.87109 3.04297 9.87109 3.04297L10 3.02344L10.0683 3.14344Z" fill="#93907A"/>
<path d="M10.0683 3.14343C10.1977 3.375 10.3699 3.70125 10.5849 4.12218C10.6024 4.15593 10.6231 4.17218 10.6472 4.17093C10.707 4.28125 10.7908 4.56704 11.077 4.60781C11.0924 4.61656 11.0997 4.63 11.0991 4.64812C11.0988 4.66468 11.0913 4.67671 11.0766 4.68421L11.0494 4.69828L10.4742 4.75593C9.95204 4.90687 9.3211 5.19562 8.96719 5.62781C8.93594 5.66593 8.90313 5.68515 8.86876 5.68546C8.86044 5.68558 8.85229 5.68315 8.8454 5.67849C8.8385 5.67384 8.83319 5.6672 8.83019 5.65944C8.82718 5.65169 8.82661 5.6432 8.82856 5.63512C8.83051 5.62704 8.83489 5.61974 8.8411 5.61421C8.90235 5.55828 8.9447 5.50125 8.96813 5.44312C9.01438 5.38718 9.00579 5.32984 8.94235 5.27109C8.91046 5.24176 8.57673 4.94671 8.57673 4.94671C8.57673 4.94671 8.35081 4.62572 8.25891 4.47562C8.17969 4.36328 8.01953 4.0625 8.01953 4.0625L8.09766 3.99703C8.09766 3.99703 8.87363 4.36111 8.98923 4.40531C9.22329 4.49156 9.44766 4.60156 9.66235 4.73531C9.66624 4.73768 9.67066 4.73901 9.67522 4.7392C9.67977 4.73938 9.6843 4.7384 9.68841 4.73634C9.69251 4.73429 9.69606 4.73123 9.69871 4.72745C9.70136 4.72366 9.70305 4.71927 9.7036 4.71468L9.77204 4.03078C9.80016 4.03984 9.81735 4.02859 9.8236 3.99703C9.88766 3.67984 9.96923 3.39531 10.0683 3.14343Z" fill="#D4D3BE"/>
<circle cx="7.60199" cy="4.99952" r="0.261112" fill="#93907A"/>
<path d="M7.62982 3.8916L7.76013 4.02566C7.76522 4.03092 7.77161 4.0347 7.77863 4.0366C7.78565 4.03849 7.79303 4.03844 7.79998 4.03645L7.91201 4.00457C7.92982 3.99957 7.93998 4.00629 7.94248 4.02473L7.95092 4.08613C7.9514 4.0899 7.951 4.09373 7.94975 4.09732C7.94849 4.10091 7.94642 4.10415 7.94368 4.10679C7.94095 4.10943 7.93764 4.1114 7.93401 4.11253C7.93038 4.11367 7.92654 4.11394 7.92279 4.11332L7.76857 4.08848C7.69607 4.04223 7.64982 3.9766 7.62982 3.8916Z" fill="#93907A"/>
<path d="M8.23358 4.05795L8.9892 4.4053L8.08451 4.05936C8.08097 4.05803 8.07796 4.05559 8.07593 4.05239C8.07391 4.04919 8.07299 4.04542 8.0733 4.04165C8.07362 4.03788 8.07517 4.03432 8.0777 4.03151C8.08023 4.0287 8.08361 4.02679 8.08733 4.02608C8.13451 4.01702 8.18326 4.02764 8.23358 4.05795Z" fill="#93907A"/>
<path d="M11.1741 4.50283C11.1488 4.49596 11.1278 4.49861 11.1113 4.5108C11.1053 4.56799 11.0939 4.60035 11.077 4.60785L10.7841 4.56613C10.7684 4.56363 10.7569 4.55551 10.7494 4.54176L10.6472 4.17096L11.0991 3.40268C11.1075 3.38861 11.1199 3.38283 11.1361 3.38533L11.3161 3.41533C11.3399 3.41939 11.3472 3.43252 11.3382 3.45471C11.2063 3.77877 11.1444 4.11502 11.1525 4.46346C11.1528 4.47346 11.1563 4.48221 11.1628 4.48971C11.166 4.49314 11.1697 4.49752 11.1741 4.50283Z" fill="#93907A"/>
<path d="M11.332 3.46878L11.1016 3.39847L11.1499 3.2933C11.1583 3.27924 11.1707 3.27346 11.1869 3.27596L11.3669 3.30596C11.3907 3.31002 11.398 3.32314 11.3889 3.34533C11.3669 3.39927 11.332 3.46878 11.332 3.46878Z" fill="#D4D3BE"/>
<path d="M11.1112 4.51082C11.1053 4.56801 11.0939 4.60035 11.077 4.60785L10.784 4.56613C10.7684 4.56363 10.7568 4.55551 10.7493 4.54176C10.7406 4.52645 10.7443 4.50926 10.7606 4.4902C10.8975 4.45317 10.9106 4.29192 11.0386 4.21129C11.0441 4.20783 11.0505 4.20587 11.057 4.2056C11.0636 4.20533 11.0701 4.20676 11.0758 4.20974C11.0816 4.21273 11.0865 4.21717 11.09 4.22263C11.0935 4.22808 11.0955 4.23435 11.0958 4.24082L11.1112 4.51082Z" fill="#148065"/>
<path d="M11.0494 4.69835C11.0581 4.69648 11.0649 4.69773 11.0696 4.7021C11.0836 4.7146 11.0822 4.72523 11.0653 4.73398L10.9421 4.79679C10.9371 4.79942 10.9332 4.80371 10.9312 4.80887C10.9291 4.81403 10.929 4.81973 10.9308 4.82492C10.973 4.94726 11.0011 5.03679 11.0653 5.17273C11.0919 5.22835 11.0922 5.28195 11.0663 5.33351L10.711 5.35929L10.613 5.34148C10.6062 5.34033 10.5997 5.33761 10.5941 5.33355C10.5885 5.32948 10.5839 5.32417 10.5806 5.31804C10.5672 5.29242 10.5642 5.26554 10.5717 5.23742L10.5628 5.13242L10.4864 4.78929C10.4808 4.78148 10.4767 4.77038 10.4742 4.75601L11.0494 4.69835Z" fill="#383C3A"/>
<path d="M10.7142 4.84692C10.5502 4.84223 10.4813 4.99411 10.5628 5.13239L10.5717 5.23739C10.603 5.35665 9.88824 5.65799 9.77532 5.59364C9.74626 5.57707 9.71657 5.54473 9.68626 5.49661L9.62814 5.41692C9.61782 5.40286 9.60392 5.39707 9.58642 5.39957C9.51361 5.4102 9.45189 5.44614 9.40126 5.50739L9.09751 5.67426C9.0933 5.67644 9.08851 5.67722 9.08382 5.67651C9.07913 5.6758 9.07479 5.67362 9.07141 5.6703C9.06803 5.66697 9.06579 5.66266 9.06501 5.65799C9.06422 5.65331 9.06494 5.64851 9.06704 5.64426C9.29767 5.21301 10.0449 4.91582 10.4864 4.78926L10.6955 4.77426C10.7095 4.77332 10.7185 4.77957 10.7222 4.79301C10.726 4.80707 10.7233 4.82504 10.7142 4.84692Z" fill="#D4D3BE"/>
<path d="M10.6875 4.85547C10.8281 4.85558 10.9073 4.9191 10.8906 5.10155C10.8797 5.22093 10.6299 5.24618 10.5628 5.13234C10.4812 4.99405 10.5468 4.85536 10.6875 4.85547Z" fill="#D24037"/>
<path d="M8.57672 4.94675C8.57672 4.94675 8.56484 4.90925 8.56828 4.88675C8.56918 4.88034 8.57207 4.87436 8.57655 4.86967C8.58102 4.86499 8.58686 4.86183 8.59323 4.86063C8.5996 4.85944 8.60619 4.86028 8.61205 4.86303C8.61792 4.86579 8.62278 4.87031 8.62594 4.87597C8.70844 5.02128 8.8139 5.153 8.94234 5.27113C9.00578 5.32988 9.01437 5.38722 8.96812 5.44316C8.8475 5.44879 8.74687 5.37332 8.66625 5.21675C8.66205 5.2085 8.65563 5.20157 8.64771 5.19677C8.63979 5.19197 8.63069 5.18948 8.62143 5.18957C8.61216 5.18967 8.60311 5.19236 8.5953 5.19732C8.58748 5.20229 8.58121 5.20935 8.57718 5.21769C8.56906 5.23425 8.57078 5.2516 8.58234 5.26972C8.5889 5.28066 8.60187 5.29035 8.62125 5.29879C8.71187 5.33847 8.77828 5.40832 8.82047 5.50832C8.82326 5.51487 8.82354 5.52223 8.82126 5.52898C8.81898 5.53573 8.81431 5.54141 8.80812 5.54494C8.80193 5.54847 8.79465 5.5496 8.78768 5.54812C8.78071 5.54664 8.77453 5.54265 8.77031 5.53691C8.71 5.45472 8.61937 5.4091 8.49844 5.40003C8.31687 5.38628 8.13156 5.37628 7.9425 5.37003L7.70062 5.22613C7.70348 5.22244 7.85531 4.98613 7.85531 4.98613C7.85531 4.98613 7.865 5.00535 7.87594 5.0091L8.3639 5.18488C8.37091 5.18747 8.3785 5.18818 8.38597 5.18695C8.39344 5.18572 8.40053 5.18258 8.40656 5.17785L8.51531 5.09254C8.52812 5.08254 8.5425 5.07691 8.55844 5.07566L8.59453 5.07285C8.62015 5.07066 8.62562 5.0591 8.61093 5.03816C8.59062 5.01004 8.57672 4.94675 8.57672 4.94675Z" fill="#93907A"/>
<path d="M11.0662 5.3335C11.1975 5.38037 11.2244 5.41209 11.1469 5.42865C10.6162 5.47365 10.2431 5.77834 9.76921 5.95553C9.75796 5.95709 9.74812 5.95647 9.73968 5.95365C9.73291 5.95168 9.72717 5.94716 9.72367 5.94104C9.72018 5.93491 9.71919 5.92767 9.72093 5.92084C10.0188 5.66966 10.7458 5.35675 11.0662 5.3335Z" fill="#D4D3BE"/>
<path d="M9.40973 5.57217C9.40968 5.33302 9.70703 5.27719 9.70703 5.50577C9.70703 5.73434 9.40978 5.81132 9.40973 5.57217Z" fill="#D24037"/>
<path d="M11.1469 5.42859C11.1941 5.44765 11.2063 5.48546 11.1835 5.54203C10.9738 5.5814 10.7713 5.64703 10.576 5.7389C10.2716 5.73265 10.0085 5.84625 9.78658 6.07968C9.78475 6.08178 9.78231 6.08324 9.7796 6.08386C9.77689 6.08448 9.77406 6.08423 9.77151 6.08313C9.76895 6.08204 9.76681 6.08016 9.76539 6.07777C9.76397 6.07538 9.76335 6.07261 9.76361 6.06984L9.76923 5.95546C10.2431 5.77828 10.6163 5.47359 11.1469 5.42859Z" fill="#383C3A"/>
<path d="M15.0258 12.1026C14.8313 11.9441 14.5009 11.6619 14.2344 11.8398C14.0633 11.9541 13.8992 12.1545 13.7564 12.3848C13.6879 12.4951 13.5776 12.5401 13.4254 12.5198C13.4114 12.518 13.4012 12.5108 13.395 12.4983L13.3059 12.3164L13.32 12.5269C13.3209 12.5425 13.3272 12.5556 13.3387 12.5662C13.4443 12.664 13.5595 12.7484 13.6842 12.8194C13.7299 12.8456 13.7778 12.8533 13.827 12.8611C13.8499 12.8648 13.8731 12.8685 13.8965 12.8742C14.2193 12.9535 14.4161 12.7142 14.6185 12.468C14.7318 12.3301 14.8469 12.1901 14.9868 12.1026C14.9997 12.0945 15.0126 12.0945 15.0258 12.1026Z" fill="url(#paint1_linear_629_4309)"/>
<g filter="url(#filter4_i_629_4309)">
<path d="M18.457 9.72471C18.397 9.66908 18.2361 9.60955 17.9742 9.54611C17.9751 9.55608 17.976 9.56614 17.9769 9.57628C18.0085 9.9283 18.0488 10.3769 17.9376 10.7086C17.9258 10.744 17.913 10.7792 17.9002 10.8143C17.8548 10.9393 17.8094 11.064 17.8069 11.1994C17.8022 11.4849 17.4639 11.46 17.2436 11.4438C17.2209 11.4421 17.1994 11.4405 17.1797 11.4394C17.1398 11.4371 17.1053 11.426 17.0707 11.4148C17.02 11.3984 16.9689 11.3818 16.8998 11.393C16.8929 11.3941 16.8858 11.3936 16.8791 11.3913C16.8724 11.389 16.8663 11.3851 16.8614 11.3799C16.6495 11.1535 17.0287 10.7672 17.1998 10.6289C17.2105 10.6202 17.2156 10.6089 17.2153 10.5952L17.2106 10.4639C17.2103 10.456 17.2083 10.4482 17.2046 10.4412C17.201 10.4341 17.1958 10.428 17.1895 10.4231C17.1548 10.3975 17.1389 10.3622 17.1417 10.3172C17.1428 10.2987 17.137 10.2805 17.1255 10.266C17.114 10.2515 17.0975 10.2419 17.0794 10.2389C16.853 10.2019 16.1508 10.1016 16.2173 10.5572C16.2423 10.7294 16.2306 10.8996 16.1822 11.0677C16.1785 11.0803 16.1778 11.0936 16.1803 11.1066L16.1915 11.1666C16.1959 11.1878 16.1872 11.1986 16.1653 11.1989L15.8719 11.2027C15.849 11.203 15.8348 11.192 15.8292 11.1699C15.8076 11.0817 15.7504 11.0292 15.6582 11.0126L15.6581 11.0114L15.6694 11.0016C15.6747 10.9969 15.674 10.9939 15.6675 10.9927C15.6603 10.9911 15.6534 10.991 15.6469 10.9922C15.6412 10.9935 15.6358 10.9969 15.6305 11.0025C15.5511 11.0881 15.4531 11.1271 15.3365 11.1192C15.3222 11.1183 15.3086 11.1211 15.2958 11.1277C15.2714 11.1402 15.2403 11.1469 15.2025 11.1478C15.1551 11.1491 15.0963 11.1637 15.0338 11.1792C14.8505 11.2246 14.635 11.2779 14.579 11.0283C14.49 10.6322 14.9395 10.4822 15.2344 10.441C15.279 10.4347 15.3219 10.4006 15.3628 10.3388C15.3704 10.3272 15.3815 10.318 15.3947 10.3125C15.5087 10.2653 15.609 10.2775 15.6956 10.3491C15.7115 10.3622 15.7297 10.3675 15.75 10.365C15.8512 10.3531 15.9414 10.313 16.0205 10.2446C16.0256 10.2401 16.0296 10.2344 16.0321 10.228C16.0346 10.2217 16.0354 10.2148 16.0345 10.208C16.0134 10.035 15.659 9.97174 15.5297 9.96142C15.4411 9.9545 15.3596 9.98783 15.2772 10.0215C15.2537 10.0311 15.2301 10.0408 15.2062 10.0496C15.1925 10.0549 15.1808 10.0633 15.1711 10.0749C15.092 10.1733 14.987 10.2169 14.8561 10.2056C14.8472 10.205 14.8385 10.2074 14.8312 10.2122L14.6222 10.3486C14.6062 10.3589 14.5947 10.373 14.5875 10.3908L14.4975 10.6167C14.4899 10.635 14.4759 10.6497 14.4581 10.6582C14.4402 10.6666 14.4199 10.6682 14.401 10.6625C14.3821 10.6569 14.366 10.6444 14.3558 10.6275C14.3455 10.6107 14.3419 10.5906 14.3456 10.5713C14.375 10.4306 14.4209 10.2969 14.4834 10.17C14.4871 10.1627 14.4923 10.1562 14.4987 10.151C14.5051 10.1458 14.5125 10.1421 14.5205 10.14L15.0201 10.0111C15.032 10.008 15.0422 10.0111 15.0506 10.0205C15.07 10.0424 15.0922 10.0455 15.1172 10.0299C15.1194 10.0286 15.1261 10.0202 15.1373 10.0045C15.1401 10.0005 15.1414 9.9958 15.1411 9.99049C15.1401 9.9758 15.1462 9.96486 15.1594 9.95767C15.2169 9.92641 15.2696 9.90337 15.3177 9.88237C15.4757 9.81332 15.5836 9.76617 15.6469 9.52033C15.6488 9.51306 15.6534 9.50675 15.6597 9.50261C15.666 9.49847 15.6736 9.49677 15.6811 9.49783C15.9576 9.53955 16.1362 9.38439 16.2914 9.16502C16.358 9.07033 16.3509 8.97424 16.297 8.88002C16.2892 8.86658 16.278 8.85689 16.2633 8.85096C16.168 8.81252 16.0694 8.79518 15.9675 8.79893C15.9197 8.80067 15.8797 8.79087 15.8424 8.78176C15.7695 8.76394 15.7074 8.74876 15.6197 8.82752C15.5609 8.88002 15.5073 8.93783 15.4589 9.00096C15.4216 9.04915 15.4181 9.1295 15.4145 9.21039C15.4079 9.36163 15.4011 9.51476 15.1739 9.46314C15.002 9.42377 14.839 9.41674 14.685 9.44205C14.6203 9.45236 14.5537 9.44721 14.4942 9.43455C14.0911 9.34857 14.1262 9.76188 14.1494 10.0348C14.1526 10.0729 14.1556 10.1082 14.1572 10.1391C14.1576 10.1467 14.1559 10.1544 14.1523 10.1611C14.1486 10.1679 14.1432 10.1736 14.1365 10.1775L13.9903 10.2642C13.9778 10.2717 13.9644 10.2749 13.95 10.2736C13.8674 10.2667 13.7573 10.2882 13.642 10.3106C13.438 10.3504 13.2179 10.3934 13.1053 10.2877C13.0532 10.2392 13.0504 10.1494 13.0481 10.0746C13.0477 10.0618 13.0473 10.0495 13.0467 10.0378C13.0421 9.94074 13.1133 9.89261 13.1805 9.84724C13.2083 9.82842 13.2355 9.81008 13.2562 9.78893C13.3253 9.7183 13.399 9.65189 13.4775 9.58971C13.4912 9.57877 13.5067 9.57393 13.5239 9.57518C13.5614 9.57736 13.5898 9.5633 13.6092 9.53299C13.618 9.51986 13.6298 9.51111 13.6448 9.50674C13.8358 9.45455 13.9255 9.32768 13.9139 9.12611C13.913 9.11268 13.9195 9.10174 13.9336 9.0933C13.9392 9.08989 13.944 9.08529 13.9477 9.07979C13.9514 9.07429 13.954 9.06803 13.9551 9.06143C13.9728 8.95842 14.0235 8.89141 14.0792 8.81784C14.1003 8.78997 14.1221 8.76115 14.1431 8.72908C14.203 8.637 14.3167 8.56829 14.4116 8.51095C14.4259 8.50232 14.4398 8.49395 14.453 8.4858C14.4738 8.47304 14.4977 8.46613 14.5222 8.4658C14.5467 8.46547 14.5709 8.47173 14.5922 8.48393C14.7144 8.55393 14.843 8.56002 14.978 8.50221C14.9851 8.49921 14.9913 8.49418 14.9956 8.48774C15 8.4813 15.0023 8.47372 15.0024 8.46595C15.0025 8.45818 15.0004 8.45055 14.9962 8.444C14.992 8.43745 14.986 8.43226 14.9789 8.42908C14.9577 8.4193 14.9218 8.40659 14.8775 8.39095C14.6482 8.30996 14.1965 8.15038 14.4272 7.91111C14.4375 7.90049 14.4412 7.88783 14.4384 7.87314C14.4337 7.84722 14.4533 7.80936 14.4758 7.76572C14.5026 7.71388 14.5336 7.65389 14.5331 7.59611C14.5328 7.58049 14.5387 7.56768 14.5509 7.55768C14.56 7.55049 14.5653 7.54127 14.5669 7.53002C14.5674 7.52678 14.5667 7.52346 14.5649 7.52071C14.5631 7.51795 14.5604 7.51597 14.5572 7.51514C14.554 7.51432 14.5507 7.51472 14.5478 7.51626C14.5449 7.51779 14.5426 7.52036 14.5415 7.52346L14.5073 7.60643C14.5014 7.62049 14.4976 7.61986 14.4961 7.60455C14.4945 7.58799 14.4972 7.57252 14.504 7.55814C14.5922 7.37752 14.7298 7.25486 14.917 7.19018C14.9321 7.18503 14.9484 7.18553 14.963 7.19158C15.018 7.21502 15.0744 7.22877 15.1322 7.23283C15.1491 7.23406 15.1653 7.23937 15.1795 7.2483C15.2001 7.26111 15.2187 7.2658 15.2353 7.26236C15.2506 7.25924 15.2586 7.24986 15.2592 7.23424C15.2605 7.19549 15.2467 7.16564 15.218 7.14471C15.2055 7.13564 15.1961 7.12393 15.1898 7.10955C15.0351 6.7383 15.0169 6.56439 15.4392 6.42471C15.4536 6.42002 15.4644 6.41096 15.4715 6.39752C15.5794 6.19096 15.5989 5.99564 15.5301 5.81158C15.483 5.68533 15.4101 5.64158 15.3117 5.68033C15.0051 5.79939 14.9794 6.00564 15.1106 6.29346C15.1162 6.30564 15.1158 6.31768 15.1092 6.32955L14.9747 6.57893C14.9722 6.58328 14.9684 6.58676 14.9639 6.58886C14.9594 6.59096 14.9543 6.59159 14.9494 6.59064C14.8475 6.57033 14.7628 6.59627 14.6953 6.66846C14.683 6.68166 14.6679 6.69196 14.6511 6.6986C14.6344 6.70524 14.6163 6.70805 14.5983 6.70684C14.5803 6.70563 14.5628 6.70042 14.5471 6.69159C14.5313 6.68276 14.5177 6.67053 14.5073 6.6558C14.472 6.6058 14.4208 6.56627 14.3536 6.53721C14.3364 6.52971 14.3226 6.5183 14.3123 6.50299L14.198 6.33143C14.186 6.31349 14.18 6.29222 14.1809 6.27072C14.1819 6.24922 14.1896 6.22861 14.2031 6.21189L14.3362 6.04736C14.3515 6.02847 14.3602 6.00514 14.361 5.98088C14.3619 5.95662 14.3548 5.93274 14.3409 5.91283C14.3035 5.85902 14.3009 5.78845 14.2984 5.72037C14.2942 5.60522 14.2903 5.49721 14.1183 5.48955C14.0489 5.48643 13.979 5.48486 13.9087 5.48486C13.9016 5.48485 13.8947 5.48733 13.8892 5.49187C13.8838 5.4964 13.88 5.50271 13.8787 5.50971C13.8684 5.56221 13.8719 5.62018 13.889 5.68361C13.9048 5.74192 13.9088 5.82197 13.9131 5.9067C13.9212 6.06921 13.9302 6.24892 14.0245 6.32533C14.0367 6.33533 14.0476 6.34658 14.0573 6.35908L14.3184 6.69236C14.3208 6.69546 14.3225 6.69903 14.3234 6.70283C14.3242 6.70662 14.3243 6.71057 14.3236 6.71439C14.3108 6.77689 14.3301 6.81877 14.3817 6.84002C14.3961 6.84596 14.404 6.85658 14.4056 6.87189C14.4099 6.91214 14.4092 6.94374 14.4086 6.97204C14.4072 7.03341 14.4062 7.07924 14.4572 7.16393C14.4665 7.17955 14.4628 7.19049 14.4459 7.19674C14.4219 7.20549 14.409 7.22127 14.4075 7.24408C14.4059 7.27096 14.4048 7.28564 14.4042 7.28814C14.3551 7.50658 14.287 7.72424 14.1998 7.94111C14.1939 7.95597 14.1844 7.96915 14.1722 7.9795C14.16 7.98984 14.1454 7.99704 14.1298 8.00046C14.1142 8.00389 14.0979 8.00343 14.0825 7.99913C14.0671 7.99483 14.053 7.98682 14.0414 7.9758C13.9533 7.89236 13.853 7.82158 13.7301 7.90689C13.6092 7.9908 13.2473 8.17877 13.1353 8.02877C13.124 8.01346 13.125 7.99908 13.1381 7.98564C13.1703 7.95252 13.1965 7.91439 13.2169 7.87127C13.2387 7.82439 13.2306 7.81846 13.1925 7.85346L13.0551 7.98096L13.0509 7.98235C12.9132 8.02712 12.5429 8.14758 12.4186 8.07893C12.2301 7.97486 12.049 7.85861 11.8753 7.73018C11.8234 7.69205 11.7767 7.66814 11.7351 7.65846C11.7248 7.65616 11.7139 7.65748 11.7043 7.6622C11.6948 7.66692 11.6871 7.67475 11.6827 7.68438C11.6782 7.69401 11.6772 7.70484 11.6799 7.71506C11.6825 7.72527 11.6886 7.73426 11.6972 7.74049L12.1683 8.09111C12.1748 8.09611 12.1822 8.09846 12.1903 8.09814C12.195 8.09783 12.1995 8.09768 12.2039 8.09768C12.2173 8.09768 12.2259 8.10393 12.2297 8.11643C12.2434 8.15973 12.2712 8.17407 12.2994 8.18861C12.3146 8.19642 12.3298 8.20429 12.3431 8.21674C12.3964 8.26698 12.4394 8.3198 12.4821 8.37241C12.5558 8.46314 12.629 8.55324 12.7542 8.6283C12.7673 8.63643 12.7811 8.63752 12.7955 8.63158C12.9345 8.57502 13.0748 8.52361 13.2164 8.47736C13.3418 8.43635 13.4261 8.35434 13.5079 8.27476C13.6178 8.16788 13.7231 8.06538 13.9176 8.07236C13.927 8.07268 13.9361 8.0756 13.9439 8.08082C13.9517 8.08603 13.9578 8.09332 13.9617 8.10185C13.9655 8.11039 13.9669 8.11984 13.9657 8.12913C13.9644 8.13841 13.9606 8.14717 13.9547 8.15439C13.9483 8.16214 13.9413 8.1706 13.9338 8.17967C13.8434 8.28912 13.6791 8.48788 13.6744 8.60908C13.674 8.61783 13.6762 8.62649 13.6807 8.63397C13.6853 8.64144 13.6919 8.6474 13.6999 8.65107C13.7078 8.65474 13.7167 8.65596 13.7253 8.65458C13.734 8.65319 13.742 8.64927 13.7484 8.6433C13.755 8.63712 13.7622 8.63038 13.7699 8.62318C13.8598 8.53864 14.0159 8.39184 14.1136 8.37283C14.1273 8.37033 14.1387 8.36361 14.1478 8.35268C14.1947 8.2958 14.2528 8.25877 14.3222 8.24158C14.3392 8.23822 14.3578 8.24125 14.374 8.25002C14.3903 8.2588 14.4029 8.27266 14.4093 8.28871C14.4157 8.30477 14.4154 8.32178 14.4084 8.33623C14.4014 8.35067 14.3883 8.36143 14.3719 8.36627C14.3056 8.38283 14.2442 8.40689 14.1876 8.43846C14.173 8.44658 14.162 8.4583 14.1548 8.47361C14.1289 8.52643 14.0858 8.55846 14.0255 8.56971C14.0121 8.57243 14.0002 8.57972 13.9917 8.59033L13.8417 8.77736C13.8326 8.78888 13.8278 8.80314 13.8281 8.81768C13.8365 9.04861 13.7433 9.21939 13.5483 9.33002C13.5326 9.33908 13.5158 9.34299 13.4976 9.34174C13.4342 9.33741 13.3813 9.35911 13.3288 9.38064C13.279 9.40108 13.2296 9.42136 13.1719 9.41908C13.1264 9.41708 13.0669 9.39326 13.0062 9.36892C12.9674 9.35338 12.9281 9.33762 12.8915 9.32721C12.8625 9.31908 12.8461 9.30158 12.8423 9.27471C12.8142 9.08439 12.6108 8.72768 12.4406 8.59502C12.4281 8.58533 12.4183 8.57346 12.4111 8.55939C12.3689 8.47721 12.2997 8.4483 12.2034 8.47268C12.1881 8.47643 12.174 8.47393 12.1612 8.46518C12.1125 8.43299 12.0584 8.42111 11.999 8.42955C11.9853 8.43143 11.9723 8.42908 11.9601 8.42252L11.8345 8.35221C11.8139 8.34064 11.7965 8.34439 11.7825 8.36346L11.5823 8.63533C11.5479 8.68645 11.5107 8.73206 11.4736 8.77742C11.4151 8.84895 11.3572 8.91987 11.3119 9.0108C11.2187 9.19861 11.058 9.29205 10.8295 9.29111C10.82 9.29112 10.8108 9.28852 10.8028 9.28361C10.7784 9.26893 10.7525 9.25908 10.725 9.25408C10.7103 9.25127 10.7075 9.25596 10.7165 9.26814C10.7834 9.35768 10.9746 9.31905 11.0891 9.29592C11.1023 9.29326 11.1145 9.2908 11.1253 9.28877C11.14 9.28596 11.1528 9.27939 11.1637 9.26908C11.1847 9.24934 11.2058 9.23075 11.2265 9.21251C11.3205 9.12943 11.4063 9.05369 11.4417 8.90955C11.4451 8.89486 11.4517 8.88189 11.4614 8.87064C11.5236 8.79721 11.5875 8.69799 11.6531 8.57299C11.6912 8.50018 11.738 8.48721 11.7933 8.53408C11.8048 8.54408 11.8181 8.55111 11.8331 8.55518C11.9575 8.58799 12.0836 8.61549 12.2114 8.63768C12.2583 8.6458 12.2973 8.66814 12.3286 8.70471C12.4714 8.87164 12.4817 9.00338 12.494 9.15873C12.5003 9.23851 12.507 9.32451 12.5325 9.42471C12.5342 9.43173 12.5336 9.43917 12.5308 9.44592C12.5279 9.45267 12.5229 9.45838 12.5165 9.46221C12.4612 9.49429 12.4123 9.4811 12.3672 9.46895C12.3478 9.4637 12.329 9.45865 12.3108 9.45752C12.221 9.45203 12.1344 9.46584 12.0479 9.47964C11.9868 9.48939 11.9257 9.49914 11.8636 9.50205C11.6817 9.51018 11.5145 9.56471 11.362 9.66564C11.3428 9.67833 11.3206 9.68786 11.2979 9.69762C11.2442 9.72069 11.1877 9.74502 11.16 9.81518C11.1544 9.82955 11.1453 9.84143 11.1328 9.8508C11.0957 9.87888 11.0598 9.90813 11.0241 9.93717C10.8759 10.0579 10.732 10.1751 10.5272 10.1902C10.3905 10.2004 10.3074 10.2357 10.1999 10.2812C10.1843 10.2879 10.1681 10.2947 10.1512 10.3017C10.1162 10.3163 10.0739 10.3375 10.0275 10.3609C9.92005 10.4148 9.7907 10.4798 9.67873 10.4981C9.61279 10.5091 9.55389 10.5505 9.50201 10.6224C9.5117 10.6464 9.53748 10.6685 9.57936 10.6885C9.63707 10.7156 9.75844 10.7084 9.85697 10.7025C9.8945 10.7002 9.92871 10.6982 9.95483 10.6983C10.0635 10.6989 10.1788 10.6503 10.2911 10.6029C10.3514 10.5775 10.4107 10.5525 10.4676 10.5356C10.5985 10.4972 10.7151 10.3981 10.8321 10.2987C10.9216 10.2226 11.0114 10.1463 11.108 10.0969C11.1205 10.0906 11.1284 10.0806 11.1319 10.0669C11.1344 10.0563 11.1395 10.0491 11.1473 10.0453C11.1863 10.0251 11.224 10.0047 11.2611 9.98473C11.4121 9.90326 11.5531 9.82713 11.7337 9.78424C11.7783 9.77357 11.8223 9.76202 11.8661 9.75051C12.065 9.6983 12.2602 9.64705 12.4837 9.68393C12.5337 9.6921 12.5607 9.71207 12.592 9.73523C12.6074 9.74661 12.6238 9.75875 12.6445 9.77064C12.6595 9.77939 12.6705 9.79174 12.6773 9.80767C12.6942 9.84861 12.7211 9.8783 12.758 9.89674C12.7696 9.90255 12.7792 9.91187 12.7856 9.92346C12.8719 10.0803 12.9009 10.2488 12.8728 10.4288C12.8706 10.4428 12.8734 10.4556 12.8812 10.4672C13.0673 10.7438 13.2464 10.8713 13.5947 10.7972C13.7134 10.7721 13.8383 10.6573 13.9448 10.5594C13.9754 10.5313 14.0045 10.5046 14.0315 10.4817C14.1628 10.3706 14.288 10.1635 14.3456 10.0008C14.4334 9.75515 14.6281 9.73491 14.8253 9.7144C14.9251 9.70403 15.0254 9.69359 15.113 9.65392C15.1867 9.62049 15.2717 9.59908 15.368 9.58971C15.3731 9.58919 15.3783 9.58975 15.3832 9.59133C15.3881 9.59292 15.3927 9.5955 15.3966 9.59892C15.4005 9.60234 15.4036 9.60653 15.4059 9.61123C15.4082 9.61594 15.4094 9.62105 15.4097 9.62627C15.4134 9.72002 15.3398 9.76502 15.2522 9.79549C15.1878 9.81799 15.1036 9.85736 14.9995 9.91361C14.9048 9.96486 14.7355 10.0189 14.4914 10.0758C14.4761 10.0796 14.4634 10.0877 14.4534 10.1002C14.319 10.2714 14.2744 10.4635 14.3194 10.6763C14.3272 10.7128 14.3137 10.7747 14.279 10.8619C14.2734 10.8756 14.2655 10.888 14.2551 10.8989C14.1465 11.0161 14.3014 11.1328 14.3954 11.2036C14.4052 11.211 14.4144 11.2179 14.4225 11.2242C14.51 11.2928 14.5749 11.383 14.64 11.4736C14.6794 11.5285 14.719 11.5835 14.7637 11.6339C14.8561 11.7371 14.8312 11.9836 14.8312 11.9836L15.3365 12.3414C15.3505 12.35 15.3609 12.3631 15.366 12.3786C15.3711 12.3941 15.3704 12.4108 15.3642 12.4258C15.2639 12.6689 15.1745 12.8786 15.0398 13.117C15.0348 13.1261 15.0369 13.1353 15.0459 13.1447C15.3884 13.1753 15.6589 13.0599 15.8573 12.7983C15.984 12.6312 15.9897 12.4672 15.9955 12.298C15.9984 12.2142 16.0013 12.1291 16.019 12.0417C15.9244 12.0424 15.8378 12.023 15.7594 11.9836C15.7453 11.9764 15.7397 11.965 15.7425 11.9494C15.7556 11.8747 15.7914 11.8135 15.8498 11.7656C15.8623 11.7553 15.8658 11.7427 15.8601 11.7277L15.8184 11.6161C15.8162 11.61 15.816 11.6034 15.8179 11.5972C15.8197 11.5909 15.8235 11.5854 15.8287 11.5814C15.9684 11.4736 16.2811 11.4928 16.4536 11.5088C16.6173 11.5238 16.7815 11.5261 16.9462 11.5158C16.9619 11.5146 16.9736 11.5208 16.9814 11.5346C17.012 11.588 17.013 11.633 16.9842 11.6696L17.1145 11.6639C17.1295 11.6633 17.1406 11.6694 17.1478 11.6822C17.5786 12.4575 18.4575 11.7952 18.2953 11.0944C18.2935 11.0874 18.2941 11.0799 18.297 11.0732C18.2999 11.0664 18.3049 11.0607 18.3112 11.0569C18.8372 10.7503 18.8934 10.1306 18.457 9.72471Z" fill="#229175"/>
<path d="M10.1639 11.6869C10.1433 11.6838 10.1286 11.6728 10.1199 11.6541C10.0739 11.5589 10.0026 11.5336 9.93252 11.5088C9.90317 11.4984 9.87403 11.488 9.84705 11.4727C9.67361 11.3736 9.52611 11.2663 9.40455 11.1507C9.35674 11.1053 9.30736 11.0749 9.25643 11.0592C9.24872 11.0568 9.24051 11.0565 9.23262 11.0582C9.22473 11.0599 9.21742 11.0637 9.21143 11.0691C9.12674 11.1457 9.03299 11.2007 8.93018 11.2341L9.10549 11.2383C9.12143 11.2386 9.13533 11.2439 9.14721 11.2542C9.19294 11.2926 9.24124 11.3205 9.28918 11.3482C9.33508 11.3747 9.38065 11.401 9.4233 11.4361C9.53799 11.5302 9.6619 11.6107 9.79502 11.6775C9.8921 11.7259 9.97667 11.7303 10.0725 11.7354C10.1011 11.7369 10.1308 11.7385 10.1621 11.7413C10.2032 11.7449 10.1709 11.688 10.1639 11.6869Z" fill="#229175"/>
</g>
<g filter="url(#filter5_i_629_4309)">
<path d="M11.1834 5.54199C11.1537 5.6723 11.1042 5.79137 11.0348 5.89918C11.0251 5.91387 11.0131 5.91637 10.9987 5.90668C10.8766 5.82262 10.7356 5.76668 10.5759 5.73887C10.7712 5.64699 10.9737 5.58137 11.1834 5.54199Z" fill="#148065"/>
<path d="M12.3609 5.60714L12.2236 6.08621L12.223 6.08741L12.2217 6.08761L12.2189 6.08668C12.1914 6.07863 12.1711 6.04974 12.1625 6.00633C12.1539 5.96293 12.1576 5.90855 12.173 5.85511L12.1955 5.77636C12.2108 5.72292 12.2364 5.67479 12.2667 5.64254C12.2971 5.61029 12.3296 5.59655 12.3572 5.60433L12.36 5.60527L12.3609 5.606L12.3609 5.60714Z" fill="#148065"/>
<path d="M11.2326 6.1059L11.3864 6.24653C11.3976 6.25653 11.4025 6.26903 11.4009 6.28403L11.3859 6.42418C11.3853 6.42866 11.3836 6.43292 11.381 6.43659C11.3784 6.44027 11.3749 6.44325 11.3709 6.44528C11.2953 6.4809 11.2189 6.48215 11.1417 6.44903C11.1351 6.44632 11.1293 6.44196 11.1249 6.43638C11.1205 6.4308 11.1175 6.42418 11.1164 6.41715L11.0592 6.08903C11.0576 6.08033 11.0581 6.0714 11.0606 6.06292C11.0631 6.05444 11.0675 6.04665 11.0736 6.04015C11.0796 6.03366 11.0871 6.02864 11.0954 6.02549C11.1037 6.02234 11.1127 6.02114 11.1215 6.02199C11.1565 6.02543 11.1848 6.04324 11.2064 6.07543C11.2139 6.08668 11.2226 6.09684 11.2326 6.1059Z" fill="#148065"/>
<path d="M8.24111 7.80185C8.24673 7.79904 8.25392 7.79794 8.26267 7.79857L8.26783 7.80016L8.27185 7.80383L8.27401 7.80892L8.27392 7.81451L8.22048 8.05732C8.2161 8.07711 8.20467 8.09461 8.18835 8.10652C8.17203 8.11844 8.15195 8.12395 8.13189 8.12201C8.04001 8.11357 7.95205 8.12732 7.86798 8.16326C7.70993 8.23081 7.54108 8.06155 7.43016 7.95037L7.40392 7.92419C7.39871 7.91909 7.39499 7.91268 7.39317 7.90565C7.39135 7.89862 7.3915 7.89126 7.39361 7.88435L7.40009 7.86236C7.44149 7.72197 7.483 7.58117 7.54314 7.44841C7.56501 7.39966 7.56783 7.35763 7.55158 7.32232C7.54297 7.30328 7.54195 7.28167 7.54872 7.26191C7.5555 7.24214 7.56956 7.22571 7.58805 7.21596C7.60653 7.20621 7.62803 7.20388 7.64817 7.20945C7.66831 7.21501 7.68557 7.22806 7.69642 7.24591C7.74298 7.32404 7.81142 7.37591 7.90173 7.40154C7.90942 7.40372 7.91602 7.40871 7.92026 7.41555C7.9245 7.42238 7.92608 7.43058 7.9247 7.43857C7.91844 7.47201 7.90836 7.50331 7.89878 7.53307C7.86822 7.62801 7.84275 7.7071 7.96267 7.78919C7.96915 7.79362 7.97648 7.79662 7.98416 7.798C7.99184 7.79937 7.99969 7.79909 8.0072 7.79716C8.08814 7.77622 8.16611 7.77779 8.24111 7.80185Z" fill="#148065"/>
<path d="M13.0551 7.9809L13.0509 7.98229C12.9132 8.02706 12.5429 8.14752 12.4186 8.07887C12.2301 7.97481 12.0491 7.85856 11.8753 7.73012C11.8234 7.69199 11.7767 7.66809 11.7351 7.6584C11.7248 7.6561 11.7139 7.65742 11.7043 7.66214C11.6948 7.66687 11.6871 7.6747 11.6827 7.68432C11.6782 7.69395 11.6772 7.70478 11.6799 7.715C11.6825 7.72522 11.6886 7.7342 11.6972 7.74043L12.1683 8.09106C12.1748 8.09606 12.1822 8.0984 12.1903 8.09809C12.195 8.09777 12.1995 8.09762 12.2039 8.09762C12.2173 8.09762 12.2259 8.10387 12.2297 8.11637C12.2434 8.15968 12.2712 8.17401 12.2994 8.18856C12.3146 8.19637 12.3299 8.20423 12.3431 8.21668C12.3965 8.26692 12.4394 8.31975 12.4821 8.37236C12.5558 8.46309 12.629 8.55318 12.7542 8.62824C12.7673 8.63637 12.7811 8.63746 12.7955 8.63152C12.9345 8.57496 13.0748 8.52356 13.2164 8.47731C13.3418 8.43629 13.4261 8.35428 13.5079 8.2747C13.6178 8.16783 13.7231 8.06532 13.9176 8.07231C13.927 8.07262 13.9361 8.07555 13.9439 8.08076C13.9517 8.08597 13.9578 8.09326 13.9617 8.1018C13.9655 8.11034 13.9669 8.11978 13.9657 8.12907C13.9645 8.13836 13.9606 8.14711 13.9547 8.15434L13.9338 8.17961C13.8434 8.28906 13.6791 8.48782 13.6744 8.60902C13.674 8.61777 13.6762 8.62643 13.6807 8.63391C13.6853 8.64139 13.692 8.64734 13.6999 8.65101C13.7078 8.65468 13.7167 8.6559 13.7254 8.65452C13.734 8.65314 13.742 8.64921 13.7484 8.64324L13.7699 8.62313C13.8598 8.53858 14.016 8.39178 14.1136 8.37277C14.1273 8.37027 14.1387 8.36356 14.1478 8.35262C14.1947 8.29574 14.2528 8.25871 14.3222 8.24152C14.3393 8.23817 14.3578 8.24119 14.3741 8.24997C14.3903 8.25875 14.4029 8.2726 14.4093 8.28866C14.4157 8.30471 14.4154 8.32173 14.4084 8.33617C14.4014 8.35061 14.3883 8.36137 14.3719 8.36621C14.3056 8.38277 14.2442 8.40684 14.1876 8.4384C14.173 8.44652 14.162 8.45824 14.1548 8.47356C14.1289 8.52637 14.0858 8.5584 14.0255 8.56965C14.0121 8.57237 14.0002 8.57967 13.9917 8.59027L13.8417 8.77731C13.8326 8.78882 13.8278 8.80308 13.8281 8.81762C13.8366 9.04856 13.7433 9.21934 13.5483 9.32996C13.5326 9.33902 13.5158 9.34293 13.4976 9.34168C13.4342 9.33735 13.3813 9.35906 13.3288 9.38059C13.279 9.40102 13.2296 9.42131 13.1719 9.41902C13.1264 9.41702 13.0669 9.3932 13.0062 9.36887C12.9674 9.35332 12.9281 9.33756 12.8916 9.32715C12.8625 9.31902 12.8461 9.30152 12.8423 9.27465C12.8142 9.08434 12.6108 8.72762 12.4406 8.59496C12.4281 8.58527 12.4183 8.5734 12.4111 8.55934C12.3689 8.47715 12.2997 8.44824 12.2034 8.47262C12.1881 8.47637 12.1741 8.47387 12.1612 8.46512C12.1125 8.43293 12.0584 8.42106 11.9991 8.42949C11.9853 8.43137 11.9723 8.42902 11.9601 8.42246L11.8345 8.35215C11.8139 8.34059 11.7966 8.34434 11.7825 8.3634L11.5823 8.63527L11.5223 8.65637C11.5188 8.65758 11.515 8.65783 11.5113 8.65711C11.5076 8.65639 11.5041 8.65471 11.5013 8.65224C11.4984 8.64978 11.4963 8.64661 11.4951 8.64306C11.4938 8.63951 11.4935 8.63569 11.4942 8.63199C11.5429 8.39983 11.4731 8.28752 11.3795 8.13674C11.364 8.11186 11.3479 8.08593 11.3316 8.05824C11.3241 8.04543 11.3133 8.03715 11.2992 8.0334C11.2498 8.02027 11.2186 7.98793 11.2055 7.93637C11.2032 7.92709 11.2032 7.91739 11.2055 7.90811C11.2078 7.89884 11.2123 7.89027 11.2187 7.88315C11.2251 7.87603 11.2331 7.87058 11.2421 7.86727C11.251 7.86397 11.2607 7.86291 11.2701 7.86418C11.3494 7.87463 11.4566 7.74225 11.5105 7.67568L11.5219 7.66168C11.5312 7.64981 11.5358 7.63621 11.5355 7.6209C11.5308 7.48152 11.5901 7.41027 11.7136 7.40715C11.7748 7.40551 11.8213 7.43075 11.868 7.4561C11.9015 7.47427 11.9351 7.49248 11.9742 7.5009C12.2086 7.55184 12.4117 7.56434 12.5836 7.5384C12.8142 7.5034 13.0001 7.49074 13.1414 7.50043C13.1524 7.50105 13.1633 7.49861 13.1728 7.4934L13.2572 7.44652C13.2633 7.44308 13.2703 7.44154 13.2772 7.44213C13.2842 7.44271 13.2907 7.44539 13.2961 7.44981C13.3411 7.48699 13.3476 7.52981 13.3158 7.57824C13.307 7.59106 13.3016 7.60527 13.2994 7.6209C13.2831 7.73586 13.2294 7.78448 13.1722 7.83615C13.1306 7.87382 13.0872 7.91311 13.0551 7.9809Z" fill="#148065"/>
<path d="M6.26534 8.18622L6.26432 8.18425L6.26414 8.18204L6.26483 8.17993L6.26628 8.17825L6.26815 8.17685C6.27962 8.16788 6.29315 8.16178 6.30797 8.15891C6.32278 8.15603 6.33859 8.15643 6.35449 8.16009C6.37038 8.16375 6.38605 8.17059 6.4006 8.18022C6.41514 8.18986 6.42828 8.20209 6.43925 8.21622L6.44909 8.22841C6.46007 8.2425 6.46868 8.25821 6.47444 8.27465C6.48019 8.29109 6.48298 8.30793 6.48263 8.32421C6.48228 8.34049 6.47881 8.35589 6.47241 8.36954C6.46601 8.38318 6.45681 8.3948 6.44534 8.40372L6.443 8.4056L6.44103 8.40662L6.43882 8.4068L6.43671 8.40611L6.43503 8.40466L6.26534 8.18622Z" fill="#148065"/>
<path d="M8.48157 9.19577C8.48689 8.98683 8.49518 8.66146 8.74407 8.81669C8.8025 8.85325 8.85453 8.89622 8.90016 8.94559C8.97246 9.02311 8.94733 9.07021 8.9167 9.1276C8.90603 9.14761 8.89468 9.16886 8.88657 9.19309C8.87124 9.23831 8.85896 9.286 8.84649 9.3344C8.80558 9.49324 8.76271 9.65969 8.60391 9.77106C8.58953 9.78106 8.5736 9.78559 8.5561 9.78466C8.49047 9.78153 8.42797 9.79809 8.3686 9.83434C8.35841 9.84057 8.34674 9.84394 8.3348 9.8441C8.32287 9.84426 8.31111 9.84121 8.30076 9.83527C8.29041 9.82933 8.28184 9.82071 8.27596 9.81032C8.27009 9.79993 8.26711 9.78815 8.26735 9.77622C8.27016 9.61278 8.33141 9.47606 8.4511 9.36606C8.46326 9.35482 8.47134 9.33981 8.47407 9.32341C8.47904 9.2952 8.48021 9.2493 8.48157 9.19577Z" fill="#148065"/>
<path fill-rule="evenodd" clip-rule="evenodd" d="M13.306 12.3164C13.271 12.0108 13.2307 11.7061 13.185 11.4023C13.1283 11.0226 13.0894 10.7719 12.7313 10.5998C12.4519 10.4655 11.4914 10.3953 11.3372 10.7767C10.9609 11.9414 10.3584 11.7178 10.3584 11.7178L10.1639 11.6869C10.1433 11.6837 10.1286 11.6728 10.1199 11.654C10.0739 11.5589 10.0026 11.5336 9.93252 11.5087C9.90317 11.4983 9.87403 11.488 9.84706 11.4726C9.67362 11.3736 9.52612 11.2662 9.40456 11.1506C9.35674 11.1053 9.30737 11.0748 9.25643 11.0592C9.24872 11.0568 9.24052 11.0564 9.23262 11.0581C9.22473 11.0599 9.21743 11.0636 9.21143 11.069C9.12674 11.1456 9.03299 11.2006 8.93018 11.234C8.79862 11.2628 8.67846 11.2653 8.56971 11.2415L8.53362 11.1829C8.52174 11.1639 8.52706 11.1544 8.54956 11.1544C8.58549 11.1544 8.60737 11.1389 8.61518 11.1079C8.61734 11.0996 8.6215 11.0918 8.62729 11.0854C8.63308 11.0789 8.64035 11.074 8.64846 11.0709C8.81065 11.0093 8.94159 10.9064 9.04128 10.762C9.04253 10.7598 9.04362 10.76 9.04456 10.7625L9.04924 10.7765H9.05159C9.09625 10.7131 9.09856 10.656 9.10086 10.5994C9.10268 10.5545 9.10449 10.5098 9.12753 10.4625C9.13471 10.4475 9.13706 10.4317 9.13456 10.4151C9.12393 10.3417 9.13112 10.2694 9.15612 10.1981C9.1575 10.1943 9.15991 10.1909 9.16308 10.1883C9.16625 10.1857 9.17006 10.184 9.17411 10.1834C9.17816 10.1829 9.18229 10.1834 9.18606 10.185C9.18983 10.1866 9.19309 10.1892 9.19549 10.1925L9.50206 10.6223C9.51174 10.6464 9.53753 10.6684 9.5794 10.6884C9.63711 10.7156 9.75848 10.7083 9.85701 10.7024C9.89454 10.7002 9.92875 10.6981 9.95487 10.6983C10.0635 10.6989 10.1789 10.6502 10.2912 10.6029C10.3514 10.5775 10.4107 10.5525 10.4677 10.5356C10.5986 10.4971 10.7151 10.398 10.8321 10.2986C10.9217 10.2225 11.0114 10.1462 11.108 10.0968C11.1205 10.0906 11.1285 10.0806 11.1319 10.0668C11.1344 10.0562 11.1396 10.049 11.1474 10.0453C11.1864 10.0251 11.2241 10.0047 11.2612 9.98468C11.4121 9.90322 11.5532 9.82709 11.7338 9.78419C11.7783 9.77353 11.8223 9.76198 11.8661 9.75048C12.065 9.69827 12.2602 9.64701 12.4838 9.68388C12.5338 9.69205 12.5608 9.71203 12.5921 9.73518C12.6074 9.74656 12.6239 9.75871 12.6446 9.7706C12.6596 9.77935 12.6705 9.79169 12.6774 9.80763C12.6942 9.84857 12.7211 9.87826 12.758 9.89669C12.7696 9.90251 12.7792 9.91182 12.7857 9.92341C12.8719 10.0803 12.901 10.2487 12.8728 10.4287C12.8706 10.4428 12.8735 10.4556 12.8813 10.4672C13.0674 10.7437 13.2464 10.8712 13.5947 10.7972C13.7134 10.772 13.8383 10.6573 13.9449 10.5594C13.9755 10.5312 14.0046 10.5045 14.0316 10.4817C14.1628 10.3706 14.288 10.1634 14.3457 10.0008C14.4334 9.75511 14.6282 9.73486 14.8254 9.71435C14.9251 9.70398 15.0255 9.69355 15.113 9.65388C15.1867 9.62044 15.2717 9.59904 15.368 9.58966C15.3731 9.58915 15.3783 9.5897 15.3832 9.59129C15.3882 9.59287 15.3927 9.59545 15.3966 9.59887C15.4005 9.6023 15.4037 9.60649 15.4059 9.61119C15.4082 9.61589 15.4095 9.62101 15.4097 9.62622C15.4135 9.71997 15.3399 9.76498 15.2522 9.79544C15.1878 9.81794 15.1036 9.85732 14.9996 9.91357C14.9049 9.96482 14.7355 10.0189 14.4914 10.0758C14.4761 10.0795 14.4635 10.0876 14.4535 10.1001C14.3191 10.2714 14.2744 10.4634 14.3194 10.6762C14.3272 10.7128 14.3138 10.7747 14.2791 10.8619C14.2735 10.8756 14.2655 10.8879 14.2552 10.8989C14.1465 11.016 14.3015 11.1328 14.3954 11.2036C14.4053 11.211 14.4144 11.2179 14.4225 11.2242C14.5101 11.2928 14.5749 11.383 14.64 11.4736C14.6795 11.5285 14.719 11.5835 14.7638 11.6339C14.8561 11.737 14.8786 11.8284 14.8458 11.9559C14.8414 11.9737 14.8305 11.9795 14.813 11.9733C14.7611 11.9553 14.7087 11.9255 14.6557 11.8953C14.5207 11.8183 14.3814 11.739 14.2336 11.8467C14.0583 11.9751 13.8992 12.1545 13.7564 12.3848C13.688 12.4951 13.5777 12.5401 13.4255 12.5198C13.4114 12.5179 13.4013 12.5108 13.395 12.4983L13.306 12.3164ZM9.62109 11.0029C9.63212 11.0303 9.64 11.0571 9.64678 11.0802C9.65923 11.1227 9.66801 11.1526 9.68581 11.1501C9.72174 11.1451 9.73378 11.1254 9.7219 11.0911C9.67659 10.9592 9.60878 10.8412 9.51846 10.7372C9.50565 10.7225 9.49299 10.7226 9.48049 10.7376C9.36006 10.8847 9.42846 10.9153 9.54698 10.9683C9.57012 10.9786 9.59517 10.9898 9.62109 11.0029Z" fill="#148065"/>
<path d="M7.91111 11.0526C7.82049 11.1167 7.75158 11.1975 7.70439 11.295C7.69752 11.309 7.69611 11.3237 7.70017 11.339C7.74799 11.5181 7.79486 11.677 7.94533 11.8031C8.08752 11.9218 8.22267 12.0473 8.3508 12.1795C8.30205 12.2739 8.2297 12.3357 8.13377 12.3651C8.1194 12.3694 8.10652 12.3779 8.09674 12.3895C7.89517 12.6351 7.61017 12.7598 7.2947 12.6764L7.39267 12.4514C7.39892 12.4367 7.40783 12.424 7.41939 12.4134C7.46845 12.3696 7.52486 12.3417 7.58861 12.3295C7.60384 12.3267 7.61823 12.3205 7.63073 12.3114C7.64323 12.3024 7.6535 12.2906 7.6608 12.277C7.70642 12.1932 7.69002 12.1364 7.61158 12.1064C7.3922 12.022 7.23939 11.9756 6.99658 12.0412C6.96033 12.0509 6.89814 12.0375 6.81002 12.0009C6.79564 11.995 6.78798 11.9842 6.78705 11.9686L6.77955 11.8509C6.77897 11.8436 6.78006 11.8362 6.78274 11.8294C6.78542 11.8226 6.78962 11.8165 6.79502 11.8115C6.93064 11.6884 7.0722 11.5723 7.2197 11.4632C7.40586 11.326 7.35371 11.0765 7.31072 10.8708C7.30348 10.8362 7.29649 10.8028 7.29095 10.7714C7.2895 10.7638 7.28628 10.7567 7.28156 10.7506C7.27684 10.7445 7.27075 10.7396 7.26377 10.7362C7.2371 10.7235 7.21348 10.71 7.1905 10.6968C7.1432 10.6697 7.09858 10.6442 7.03549 10.6303C6.9183 10.6043 6.82158 10.5445 6.74533 10.4507C6.73345 10.4357 6.73486 10.4223 6.74955 10.4104C6.81929 10.3535 6.89953 10.308 6.98334 10.2606C7.06851 10.2124 7.15738 10.1621 7.24267 10.0954C7.26824 10.0756 7.28747 10.0514 7.30685 10.027C7.33829 9.98736 7.37015 9.94724 7.43017 9.92433C7.44455 9.91902 7.45424 9.90918 7.45924 9.8948C7.47799 9.84168 7.5072 9.81652 7.54689 9.81933C7.57052 9.82088 7.59614 9.8214 7.62265 9.82195C7.77338 9.82503 7.95294 9.82871 7.95892 10.0232C7.95955 10.0398 7.95439 10.0543 7.94345 10.0668C7.91002 10.1043 7.88002 10.1445 7.85345 10.1873C7.82023 10.2408 7.80608 10.2928 7.79263 10.3421C7.76909 10.4286 7.74771 10.5071 7.62986 10.5721C7.36285 10.7195 7.50393 10.8303 7.64886 10.944C7.6828 10.9707 7.71694 10.9975 7.74611 11.025C7.75986 11.0378 7.77439 11.0389 7.7897 11.0282L7.86939 10.9715C7.87437 10.9681 7.88052 10.9667 7.88649 10.9678C7.89246 10.9688 7.89777 10.9722 7.90127 10.9771C7.9122 10.9931 7.91549 11.0182 7.91111 11.0526Z" fill="#148065"/>
<path d="M16.9842 11.6695L16.4766 11.6836C16.4623 11.6839 16.4485 11.689 16.4372 11.6981L16.0191 12.0417C15.9244 12.0423 15.8378 12.0229 15.7594 11.9836C15.7453 11.9764 15.7397 11.965 15.7425 11.9493C15.7556 11.8747 15.7914 11.8134 15.8499 11.7656C15.8624 11.7553 15.8658 11.7426 15.8602 11.7276L15.8185 11.6161C15.8163 11.61 15.8161 11.6034 15.8179 11.5971C15.8198 11.5909 15.8236 11.5854 15.8288 11.5814C15.9685 11.4736 16.2811 11.4928 16.4536 11.5087C16.6174 11.5237 16.7816 11.5261 16.9463 11.5157C16.9619 11.5145 16.9736 11.5208 16.9814 11.5345C17.0121 11.5879 17.013 11.6329 16.9842 11.6695Z" fill="#148065"/>
</g>
<path d="M15.6694 15.0314C15.6622 15.0349 15.6556 15.0441 15.6497 15.0591C15.6472 15.0347 15.6267 15.0116 15.5883 14.9897C15.5818 14.9862 15.5767 14.9807 15.5738 14.974C15.5708 14.9673 15.5701 14.9598 15.5719 14.9527C15.585 14.898 15.5737 14.8524 15.5381 14.8158C15.5259 14.8033 15.5111 14.7969 15.4936 14.7966C15.4065 14.7948 15.0189 14.6291 15.0126 14.5111C15.207 14.4949 15.4051 14.5857 15.607 14.7835C15.6179 14.7944 15.625 14.8075 15.6281 14.8228L15.6694 15.0314Z" fill="#5D5B5C"/>
<path d="M11.1483 15.061L11.1122 15.0793L10.313 15.1356C10.3314 15.1403 10.3161 15.1421 10.267 15.1412C10.2511 14.9399 10.2978 14.7765 10.4072 14.6509C10.5965 14.4338 10.9092 14.4587 11.0555 14.7076C11.1161 14.8113 11.147 14.9292 11.1483 15.061Z" fill="white"/>
<path d="M13.7522 14.9227L12.8461 14.9822C12.9262 14.7718 13.08 14.5308 13.3144 14.5172C13.5469 14.5037 13.7179 14.7066 13.7522 14.9227Z" fill="white"/>
<path d="M15.0126 14.5111C15.0189 14.6291 15.4065 14.7947 15.4936 14.7966C15.5111 14.7969 15.5259 14.8033 15.5381 14.8158C15.5737 14.8524 15.585 14.898 15.5718 14.9527C15.5701 14.9598 15.5708 14.9673 15.5738 14.974C15.5767 14.9807 15.5818 14.9862 15.5883 14.9897C15.6267 15.0116 15.6472 15.0347 15.6497 15.0591C15.7115 15.3052 15.7931 15.5939 15.7467 15.8494C15.7117 16.0403 15.6798 16.2324 15.6511 16.4255C15.6489 16.4402 15.651 16.4551 15.6572 16.4686C15.7987 16.7925 16.2553 16.7494 16.4212 16.5089C16.5112 16.3781 16.492 16.2131 16.4836 16.0589C16.7798 16.3158 16.6054 16.7119 16.3992 16.9552C16.2122 17.176 15.8493 17.3831 15.5451 17.4239C15.4054 17.4117 15.2883 17.3428 15.1936 17.2172C15.1798 17.1991 15.1837 17.1867 15.2053 17.1802C15.2718 17.1599 15.3398 17.1567 15.4092 17.1708C15.4562 16.8906 15.569 16.0845 15.5883 15.9453C15.6126 15.7695 15.6126 15.5352 15.6126 15.315C15.6126 15.044 15.3033 15.2442 15.2287 15.0816C15.2261 15.0762 15.2217 15.0718 15.2164 15.0691C15.211 15.0665 15.2049 15.0657 15.199 15.0669C15.1931 15.068 15.1877 15.0711 15.1838 15.0757C15.1799 15.0802 15.1775 15.0859 15.1772 15.0919L15.1729 15.2044C15.1726 15.2203 15.1664 15.2333 15.1542 15.2433C15.0356 15.3427 14.8772 15.3127 14.8223 15.1758C14.7848 15.082 14.8331 14.9588 14.7928 14.842C14.8353 14.7345 14.9086 14.6242 15.0126 14.5111Z" fill="#2E2F2D"/>
<path d="M8.99533 15.1767C9.01127 15.1101 9.01314 15.055 9.00095 15.0112C8.95321 14.9724 8.93966 14.9107 8.92704 14.8532C8.90856 14.769 8.89207 14.6939 8.77314 14.7131C8.7597 14.7153 8.74939 14.7223 8.7422 14.7342C8.70627 14.7942 8.68533 14.8647 8.67939 14.9456L8.94377 15.225C8.94598 15.2271 8.94731 15.2299 8.94751 15.2329C8.94771 15.2358 8.94676 15.2388 8.94485 15.2412L8.94295 15.2431C9.02488 15.2367 9.4381 15.2047 9.88885 15.1686C9.75058 15.1779 9.61217 15.1868 9.47363 15.1958C9.32763 15.2052 9.18148 15.2146 9.03517 15.2245C9.02917 15.2249 9.02315 15.2239 9.01762 15.2215C9.01208 15.2191 9.00718 15.2155 9.0033 15.2108C8.99943 15.2062 8.99668 15.2007 8.9953 15.1947C8.99392 15.1888 8.99392 15.1826 8.99533 15.1767Z" fill="#383C3A"/>
<path d="M8.81064 15.2437C8.83564 15.2137 8.87486 15.2139 8.92829 15.2442L8.81064 15.2437Z" fill="#383C3A"/>
<path d="M8.81064 15.2437C8.79567 15.2616 8.7883 15.2949 8.78861 15.3436C8.78912 15.4148 8.78942 15.4851 8.78952 15.5544L8.81064 15.2437Z" fill="#383C3A"/>
<path d="M8.76801 15.8713C8.76801 15.8713 8.58389 15.3884 8.54861 15.3108C8.49142 15.1856 8.51674 15.0905 8.56455 14.9728C8.56705 14.9647 8.56345 14.9553 8.55377 14.9447C8.54949 14.94 8.54424 14.9362 8.53835 14.9336C8.53246 14.931 8.52605 14.9297 8.51955 14.9297H8.35455C8.33817 14.9297 8.32231 14.9355 8.30979 14.9462C8.29726 14.9568 8.28888 14.9715 8.28611 14.9878C8.25267 15.1937 8.2458 15.4009 8.26549 15.6094C8.26812 15.6373 8.24541 15.656 8.22567 15.6748C8.10901 15.7859 8.01172 15.8785 7.94111 16.0364C7.90072 16.1268 7.86113 16.2111 7.8235 16.2912C7.60389 16.7586 7.45084 17.0843 7.5933 17.6737L8.33861 17.4689C8.35979 17.463 8.37799 17.4493 8.38969 17.4307C8.40139 17.4121 8.40574 17.3898 8.40189 17.3681C8.34507 17.0581 8.40301 16.7736 8.46293 16.4793C8.47567 16.4168 8.48849 16.3538 8.50033 16.29C8.50154 16.2832 8.50512 16.277 8.51043 16.2725C8.51574 16.2681 8.52246 16.2656 8.52939 16.2656H8.54345C8.55939 16.2659 8.56736 16.2741 8.56736 16.29L8.5608 17.5922C8.6058 17.6472 8.60752 17.7058 8.56595 17.768C8.55718 17.7813 8.55336 17.7972 8.55517 17.813C8.57955 18.0201 8.66736 18.1994 8.81861 18.3506C8.83017 18.3659 8.84033 18.3681 8.84908 18.3572L8.85283 18.3408C8.85595 18.327 8.86408 18.3228 8.8772 18.3281L8.87965 18.3291C8.9589 18.3619 9.22942 18.4737 9.15845 18.5892C9.18002 18.6037 9.19877 18.6276 9.1983 18.6567C9.19549 19.0706 9.21189 19.2637 9.46361 19.5867C9.58142 19.7373 9.70064 19.8909 9.82127 20.0475C9.9272 20.0592 9.96611 19.9842 9.95486 19.8876C9.94798 19.8268 9.86299 18.9745 9.86299 18.9745C9.84299 18.9776 9.83158 18.9692 9.82877 18.9492L9.74908 18.3891C9.58984 18.1523 9.4521 17.9648 9.27283 17.7422C9.1983 16.9258 9.24156 17.213 8.76801 15.8713Z" fill="#383C3A"/>
<path d="M14.5542 17.2026L14.8542 17.2172C14.8724 17.2181 14.8778 17.227 14.8706 17.2439C14.8404 17.3159 14.8367 17.3857 14.8332 17.4543C14.8305 17.5059 14.8278 17.5567 14.8139 17.6072C14.7439 17.8625 14.6722 18.1169 14.5988 18.3703C14.5944 18.3853 14.586 18.3976 14.5735 18.4073C14.5006 18.4639 14.4642 18.4612 14.4642 18.3994L14.4483 18.4003C14.4286 18.4309 14.4306 18.4533 14.4544 18.4673C14.4624 18.4719 14.4691 18.4785 14.4738 18.4865C14.4785 18.4944 14.481 18.5035 14.4812 18.5128C14.4814 18.522 14.4792 18.5312 14.4748 18.5394C14.4705 18.5476 14.4641 18.5546 14.4563 18.5597C14.3672 18.6169 14.2977 18.688 14.2477 18.773C14.7686 18.4328 14.5997 19.0848 14.6516 19.4258C14.7492 20.0681 14.7558 19.2898 14.9752 18.8953C14.9795 18.8874 14.9858 18.8808 14.9933 18.8759C15.0009 18.8711 15.0096 18.8682 15.0185 18.8675C15.0275 18.8668 15.0365 18.8683 15.0447 18.8719C15.0529 18.8756 15.0601 18.8812 15.0656 18.8883C15.1072 18.942 15.1713 18.9528 15.2578 18.9206C15.2878 18.6656 15.3066 18.4266 15.0511 18.3309C15.028 18.3222 15.0283 18.3142 15.052 18.307C15.0644 18.3033 15.0765 18.2998 15.0884 18.2963C15.2905 18.2368 15.4303 18.1956 15.4856 17.9522C15.5247 17.7794 15.5445 17.6033 15.5452 17.4239C15.4055 17.4117 15.2883 17.3428 15.1936 17.2172C15.1799 17.1991 15.1838 17.1867 15.2053 17.1801C15.2076 17.1795 15.2099 17.1788 15.2122 17.1781L14.5542 17.2026Z" fill="#383C3A"/>
<path d="M11.1483 15.0609C11.3634 15.1636 11.5645 15.2573 11.8092 15.2423C12.0411 15.228 12.273 15.2116 12.5048 15.1931C12.5208 15.1919 12.5337 15.185 12.5437 15.1725C12.6394 15.0547 12.7401 14.9912 12.8461 14.9822L15.6126 14.7695V15.315C15.6126 15.315 15.6459 15.7008 15.6075 15.9084C15.5823 16.0439 15.4092 17.1708 15.4092 17.1708L14.5542 17.2026L13.0542 17.3133C13.0323 17.3149 13.0105 17.3092 12.9921 17.2972C12.9738 17.2852 12.96 17.2674 12.953 17.2467L12.5714 16.14C12.5684 16.1315 12.5627 16.1243 12.5552 16.1194C12.5477 16.1145 12.5387 16.1122 12.5297 16.1128L11.8359 16.1691C11.8221 16.1702 11.809 16.1754 11.798 16.1839C11.7871 16.1925 11.779 16.2041 11.7745 16.2173L11.3597 17.4422C11.3573 17.4493 11.3529 17.4555 11.3469 17.4601C11.341 17.4647 11.3339 17.4674 11.3264 17.468L9.45702 17.5823C9.42139 17.5845 9.39686 17.5692 9.38342 17.5364L9.17952 17.0372L8.76801 15.8713L8.81061 15.2437L8.92827 15.2442C8.92827 15.2442 10.8174 15.0982 11.1483 15.0609Z" fill="#383C3A"/>
<g filter="url(#filter6_di_629_4309)">
<path d="M9.11098 15.2437L9.07547 15.8713L9.60888 17.2722C9.62232 17.305 9.64685 17.3203 9.68248 17.3181L11.0781 17.2237C11.0856 17.2231 11.0928 17.2204 11.0987 17.2158C11.1046 17.2112 11.109 17.205 11.1114 17.1979L11.5263 15.973L12.7611 15.8545L13.2133 17.033L15.1875 16.9112L15.3658 15.8154L15.3366 14.7984L15.3355 14.7908L15.6126 14.7695C15.6126 15.1345 15.6075 15.9084 15.6075 15.9084L15.4092 17.1708L14.5542 17.2026L13.0542 17.3133C13.0323 17.3149 13.0105 17.3092 12.9921 17.2972C12.9738 17.2852 12.96 17.2674 12.953 17.2467L12.5714 16.14C12.5684 16.1315 12.5627 16.1243 12.5552 16.1194C12.5477 16.1145 12.5387 16.1122 12.5297 16.1128L11.8359 16.1691C11.8221 16.1702 11.809 16.1754 11.798 16.1839C11.7871 16.1925 11.779 16.2041 11.7745 16.2173L11.3597 17.4422C11.3573 17.4493 11.3529 17.4555 11.3469 17.4601C11.341 17.4647 11.3339 17.4674 11.3264 17.468L9.45702 17.5823C9.42139 17.5845 9.39686 17.5692 9.38342 17.5364L9.17952 17.0372L8.76801 15.8713L8.81061 15.2437L8.92827 15.2442C8.92827 15.2442 9.04257 15.2491 9.11098 15.2437Z" fill="#383C3A"/>
</g>
<path d="M8.6794 14.9457C8.71424 14.9825 8.96094 15.2412 8.96094 15.2412H8.80859L8.76953 15.8946C8.76953 15.8946 8.57786 15.3752 8.54862 15.3108C8.49143 15.1857 8.51675 15.0905 8.56456 14.9729C8.58206 14.9816 8.59784 14.988 8.6119 14.9921C8.62784 14.9971 8.6419 14.9951 8.65409 14.986C8.66753 14.9757 8.67596 14.9622 8.6794 14.9457Z" fill="#5D5B5C"/>
<path d="M13.718 14.9145C13.7551 14.9118 13.7567 14.9608 13.7591 14.9874C13.7779 15.2042 13.5721 15.4149 13.3333 15.4329C13.0966 15.4508 12.8657 15.2728 12.8469 15.058C12.8446 15.0317 12.8371 14.9828 12.8749 14.9802L13.718 14.9145Z" fill="#D24037"/>
<g filter="url(#filter7_i_629_4309)">
<path d="M15.7486 15.1772C15.9572 15.3764 16.3739 15.7631 16.4836 16.0589C16.492 16.2131 16.5112 16.3781 16.4212 16.5089C16.2553 16.7494 15.7987 16.7925 15.6572 16.4686C15.651 16.4551 15.6489 16.4402 15.6511 16.4255C15.6798 16.2324 15.7117 16.0403 15.7467 15.8494C15.7931 15.5939 15.6497 15.0591 15.6497 15.0591C15.6497 15.0591 15.717 15.147 15.7486 15.1772Z" fill="#73CEB7"/>
</g>
<path d="M11.1445 15.0586C11.032 15.5152 10.3148 15.6688 10.264 15.1471L11.1445 15.0586Z" fill="#D24037"/>
<path d="M9.17955 17.0373C9.16674 17.0413 9.15971 17.0463 9.15846 17.0523C9.07315 16.7874 8.91846 16.5704 8.78768 16.2535C8.77924 16.2332 8.77736 16.2163 8.78205 16.2029C8.78674 16.1898 8.79518 16.1802 8.80736 16.1743C8.82424 16.1655 8.83611 16.1699 8.84299 16.1874L9.17955 17.0373Z" fill="#5D5B5C"/>
<path d="M8.56076 17.5922C8.25764 17.52 7.9906 17.5794 7.75967 17.7703C7.65373 17.7925 7.59826 17.7603 7.59326 17.6738L8.33857 17.4689C8.35975 17.463 8.37796 17.4493 8.38965 17.4307C8.40135 17.4121 8.4057 17.3898 8.40186 17.3681C8.33295 16.9922 8.43279 16.6537 8.50029 16.29C8.5015 16.2832 8.50508 16.277 8.51039 16.2725C8.51571 16.2681 8.52242 16.2656 8.52936 16.2656C8.53373 16.2656 8.53842 16.2656 8.54342 16.2656C8.55935 16.2659 8.56732 16.2741 8.56732 16.29L8.56076 17.5922Z" fill="#0D1110"/>
<path d="M14.5542 17.2026L14.8542 17.2172C14.8724 17.2181 14.8778 17.227 14.8706 17.2439C14.8177 17.37 14.8463 17.4895 14.8139 17.6072C14.7439 17.8625 14.6722 18.1169 14.5988 18.3703C14.5944 18.3853 14.586 18.3976 14.5735 18.4073C14.5006 18.4639 14.4642 18.4612 14.4642 18.3994C14.5517 18.335 14.5947 18.2136 14.5931 18.0351C14.591 17.7673 14.578 17.4898 14.5542 17.2026Z" fill="#0D1110"/>
<g filter="url(#filter8_i_629_4309)">
<path d="M8.5608 17.5922C8.6058 17.6472 8.60752 17.7058 8.56596 17.768C8.55718 17.7813 8.55336 17.7972 8.55517 17.813C8.57955 18.0202 8.66736 18.1994 8.81861 18.3506C8.71491 18.5527 8.88671 18.6975 8.85424 18.8667C8.55705 18.7639 8.32892 18.65 8.16986 18.525C7.91439 18.3249 7.88627 18.0525 7.7597 17.7703C7.99064 17.5794 8.25767 17.52 8.5608 17.5922Z" fill="#73CEB7"/>
</g>
<path d="M9.15844 18.5892L8.84906 18.3572L8.85281 18.3408C8.85594 18.3271 8.86406 18.3228 8.87719 18.3281C8.95312 18.3596 9.23015 18.4725 9.15844 18.5892Z" fill="#2E2F2D"/>
<path d="M8.81854 18.3506C8.8301 18.3659 8.84026 18.3681 8.84901 18.3571L9.15838 18.5892C9.17995 18.6037 9.1987 18.6276 9.19823 18.6567C9.19541 19.0706 9.21182 19.2637 9.46354 19.5867C9.58135 19.7373 9.70057 19.8909 9.8212 20.0475C9.41063 20.0747 9.0886 20.2287 8.73047 20.414C8.66636 20.3351 8.79932 19.9883 8.79932 19.8051L8.85416 18.8667C8.88664 18.6975 8.71484 18.5527 8.81854 18.3506Z" fill="#5D5B5C"/>
<g filter="url(#filter9_f_629_4309)">
<path d="M14.0391 18.5673C14.0044 18.6007 13.9713 18.6371 13.9397 18.6765C13.7652 18.8962 13.6125 18.9907 13.3351 19.0821C12.6227 19.2301 11.8143 19.1298 11.0891 19.1524L11.1652 18.9287C11.1652 18.9287 11.3259 18.8471 11.4427 18.8532C11.978 18.8827 12.6789 18.8321 13.175 18.7383C13.4154 18.6929 13.9827 18.5807 14.0391 18.5673Z" fill="#2D9E82"/>
</g>
<path d="M9.87237 18.4604C10.0927 18.7346 10.6702 18.9882 10.9969 19.104L13.4785 18.998C13.5295 18.9333 13.797 18.8482 14.0589 18.7648C14.2709 18.6973 14.4793 18.631 14.5664 18.5776L14.5669 19.2957C14.5669 19.3123 14.5586 19.3204 14.542 19.3201L10.5431 19.3013C10.4328 19.236 10.3242 19.164 10.2174 19.0852C10.1447 19.0318 10.1063 19.0604 10.0575 19.1213C9.98846 19.0901 9.95533 19.0432 9.95815 18.9807C9.95877 18.9663 9.95205 18.9602 9.93799 18.9624L9.86299 18.9746C9.84299 18.9777 9.83158 18.9693 9.82877 18.9493L9.74908 18.3891C9.74908 18.3891 9.40343 17.9152 9.27283 17.7422L9.28361 17.7253C9.28785 17.7185 9.29371 17.7129 9.30065 17.709C9.3076 17.705 9.31542 17.7028 9.32342 17.7026C9.33141 17.7025 9.33932 17.7043 9.34645 17.7079C9.35357 17.7115 9.35968 17.7169 9.36423 17.7234C9.36988 17.7315 9.37786 17.7429 9.38776 17.7569C9.55241 17.991 9.69674 18.2424 9.87237 18.4604Z" fill="#D4D1CE"/>
<path d="M15.2578 18.9206C15.2183 19.1824 14.9921 19.5903 14.9887 19.7817C14.9853 19.9608 14.947 20.0816 14.8739 20.1441C14.5664 19.8246 14.7936 19.2217 14.9751 18.8953C14.9795 18.8875 14.9857 18.8808 14.9933 18.8759C15.0008 18.8711 15.0095 18.8682 15.0185 18.8675C15.0274 18.8668 15.0364 18.8683 15.0446 18.8719C15.0529 18.8756 15.0601 18.8812 15.0656 18.8883C15.1071 18.942 15.1712 18.9528 15.2578 18.9206Z" fill="#5D5B5C"/>
<g filter="url(#filter10_i_629_4309)">
<path fill-rule="evenodd" clip-rule="evenodd" d="M14.3945 18.3516C14.4485 18.3751 14.4151 18.4441 14.4544 18.4673C14.4624 18.4719 14.4691 18.4785 14.4738 18.4865C14.4785 18.4944 14.481 18.5035 14.4812 18.5128C14.4814 18.522 14.4792 18.5312 14.4748 18.5394C14.4705 18.5476 14.4641 18.5546 14.4563 18.5597C14.3672 18.6169 14.2977 18.688 14.2477 18.773C14.2058 18.712 14.1572 18.6987 14.1019 18.7331C14.0903 18.7403 14.0877 18.7502 14.0939 18.7627L14.1305 18.8353C14.1414 18.8566 14.1372 18.8742 14.1178 18.8883L13.7681 19.1447C13.7531 19.1556 13.7406 19.1534 13.7306 19.1381L13.6116 19.0772V19.1269C13.6641 19.1903 13.6756 19.2478 13.6462 19.2994C13.5384 19.3319 13.4326 19.3922 13.3289 19.4803C13.3043 19.5012 13.274 19.5179 13.2437 19.5346C13.2232 19.546 13.2027 19.5573 13.1841 19.5698L13.109 19.4798L13.0584 19.508C13.0462 19.5145 13.0436 19.5239 13.0505 19.5361L13.0931 19.6125L13.0987 19.6222C13.1112 19.6434 13.1309 19.6768 13.1152 19.6861L13.0237 19.8408L12.9764 19.7945L12.6014 19.9331V20.0194L11.9953 20.1966C11.9806 20.2009 11.9714 20.1956 11.9677 20.1806L11.9531 20.123C11.9503 20.1111 11.9428 20.1041 11.9306 20.1019C11.83 20.0834 11.7353 20.0963 11.6466 20.1403C11.6365 20.1452 11.6251 20.147 11.6138 20.1455L11.1052 20.0681C11.0968 20.0668 11.0888 20.0635 11.082 20.0585C11.0752 20.0534 11.0697 20.0467 11.066 20.039C11.0624 20.0314 11.0606 20.0229 11.061 20.0144C11.0614 20.0059 11.0638 19.9976 11.0681 19.9903L11.1075 19.9228C11.1197 19.9022 11.1142 19.8889 11.0911 19.883L11.0625 19.8755C11.0425 19.8702 11.0267 19.8761 11.0152 19.8933L10.988 19.9331C10.9767 19.9494 10.9625 19.9525 10.9453 19.9425L10.508 19.6861C10.4911 19.6764 10.4881 19.6636 10.4991 19.6477L10.5319 19.5998C10.5357 19.5943 10.5376 19.5877 10.5374 19.581C10.5371 19.5742 10.5347 19.5677 10.5305 19.5623C10.4971 19.5198 10.3922 19.4761 10.3922 19.4761L10.4883 19.3359C10.4883 19.3359 10.5414 19.4664 10.6111 19.4883C10.6292 19.4939 10.6428 19.4884 10.6519 19.4719L10.6852 19.4109C10.6924 19.3978 10.7024 19.395 10.7152 19.4025L11.0021 19.5698C11.2461 19.7114 11.2695 19.7208 11.4631 19.7945C11.5245 19.7976 11.6009 19.8014 11.7 19.8103C11.7036 19.8107 11.707 19.8118 11.7101 19.8136C11.7132 19.8154 11.7159 19.8178 11.718 19.8207C11.7201 19.8236 11.7215 19.8269 11.7222 19.8303C11.7229 19.8338 11.7229 19.8374 11.7221 19.8408L11.6986 19.9472C11.6977 19.951 11.6978 19.9549 11.6987 19.9586C11.6996 19.9624 11.7014 19.9659 11.704 19.9689C11.7065 19.9718 11.7097 19.9742 11.7134 19.9757C11.717 19.9772 11.7209 19.9779 11.7249 19.9777L11.8974 19.9655C11.901 19.9652 11.9046 19.9641 11.9077 19.9621C11.9108 19.9601 11.9133 19.9574 11.9151 19.9541C11.9168 19.9509 11.9177 19.9473 11.9176 19.9436C11.9176 19.9399 11.9166 19.9363 11.9147 19.9331C11.8875 19.8844 11.9003 19.8511 11.9531 19.8333C12.1022 19.7827 12.2631 19.7452 12.436 19.7208L12.5775 19.7114C12.5969 19.7102 12.6038 19.7189 12.5982 19.7377L12.9172 19.6125L12.9756 19.5998L12.9769 19.4892C12.9769 19.4733 12.9836 19.4608 12.997 19.4517C13.0552 19.413 13.1 19.3622 13.1316 19.2994C13.1409 19.2809 13.1355 19.2703 13.1152 19.2675C13.0408 19.2569 13.0103 19.2403 13.0237 19.2178C13.1087 19.2106 13.1956 19.1515 13.2844 19.0406C13.3456 19.0056 13.4103 18.9914 13.4784 18.998L13.5928 18.9675C13.6326 18.9332 13.676 18.9014 13.7196 18.8693C13.7995 18.8107 13.88 18.7516 13.9397 18.6764C13.9713 18.637 14.0044 18.6006 14.0391 18.5672C14.0505 18.5589 14.0569 18.5532 14.0584 18.5501L14.0564 18.5475C14.1781 18.4463 14.3945 18.3516 14.3945 18.3516ZM12.9756 19.6861L12.9741 19.7517C12.9356 19.7668 12.8978 19.778 12.8607 19.789C12.8176 19.8018 12.7753 19.8143 12.7336 19.8324C12.7114 19.8419 12.6791 19.8525 12.6482 19.8627C12.621 19.8715 12.5949 19.8801 12.5775 19.8873C12.5486 19.8813 12.546 19.8767 12.529 19.8472L12.5185 19.8292C12.5085 19.8122 12.5526 19.8011 12.614 19.7857C12.6504 19.7766 12.6928 19.766 12.7336 19.7517C12.7911 19.7316 12.8389 19.72 12.8904 19.7076C12.9172 19.7011 12.945 19.6944 12.9756 19.6861ZM13.2181 19.4109C13.2961 19.3438 13.3511 19.2624 13.4077 19.1787C13.4305 19.145 13.4535 19.1109 13.4784 19.0772H13.5399V19.1634C13.5427 19.1784 13.5372 19.1891 13.5235 19.1953L13.2844 19.4517L13.2181 19.4109ZM14.0222 18.8831L13.8388 18.9957C13.8346 18.9983 13.8295 18.9991 13.8246 18.998C13.8198 18.9968 13.8156 18.9938 13.813 18.9896L13.8097 18.9844C13.7998 18.9685 13.7963 18.9495 13.7999 18.9317C13.8035 18.9138 13.906 18.8427 13.921 18.8334L13.9313 18.8269C13.9387 18.8222 13.9471 18.8192 13.9559 18.8179C13.9646 18.8167 13.9737 18.8173 13.9824 18.8196C13.9912 18.822 13.9995 18.8261 14.0069 18.8316C14.0143 18.8372 14.0206 18.8442 14.0255 18.8522L14.0283 18.8573C14.0309 18.8616 14.0317 18.8667 14.0306 18.8715C14.0294 18.8763 14.0264 18.8805 14.0222 18.8831ZM10.7541 19.5094L10.972 19.6411C11.058 19.6937 11.2076 19.7522 11.3283 19.7993C11.3585 19.8111 11.387 19.8222 11.4122 19.8324L11.5697 19.8966C11.5786 19.9003 11.586 19.907 11.5906 19.9155C11.5952 19.9241 11.5967 19.9339 11.5948 19.9434C11.593 19.9529 11.588 19.9615 11.5806 19.9677C11.5732 19.974 11.5639 19.9775 11.5542 19.9777L11.2289 19.9819C11.2253 19.9819 11.2218 19.9809 11.2187 19.979C11.2157 19.9771 11.2132 19.9743 11.2117 19.9711C11.2102 19.9679 11.2096 19.9643 11.2101 19.9608C11.2106 19.9573 11.2121 19.9541 11.2144 19.9514C11.2291 19.9342 11.2483 19.9283 11.272 19.9336C11.2792 19.9352 11.2866 19.9352 11.2936 19.9335C11.3007 19.9318 11.3073 19.9284 11.3128 19.9238C11.3428 19.8985 11.3405 19.8708 11.3058 19.8408C11.3008 19.8368 11.2954 19.8336 11.2899 19.8314C11.1324 19.7745 10.9774 19.7116 10.8249 19.6425C10.8039 19.6328 10.7931 19.6397 10.7925 19.6631C10.7922 19.6856 10.806 19.7038 10.8338 19.7175C10.8685 19.735 10.897 19.7531 10.9195 19.7719C10.9232 19.775 10.9256 19.7792 10.9264 19.7839C10.9272 19.7886 10.9263 19.7934 10.9239 19.7975C10.9214 19.8016 10.9177 19.8047 10.9132 19.8063C10.9087 19.8078 10.9038 19.8078 10.8994 19.8061C10.7997 19.7702 10.7113 19.716 10.6341 19.6435C10.6235 19.6335 10.6228 19.6228 10.6322 19.6116L10.7128 19.516C10.7178 19.5101 10.7246 19.5062 10.7322 19.505C10.7398 19.5038 10.7476 19.5053 10.7541 19.5094ZM12.4092 19.9078L12.2724 19.9631C12.247 19.9734 12.2317 19.9652 12.2264 19.9383L12.2199 19.9045C12.2191 19.9009 12.2176 19.8975 12.2155 19.8946C12.2133 19.8916 12.2105 19.8891 12.2073 19.8873C12.2041 19.8856 12.2005 19.8845 12.1969 19.8842C12.1932 19.884 12.1895 19.8845 12.1861 19.8858L12.0595 19.9322C12.0559 19.9335 12.0526 19.9359 12.0503 19.9391C12.0479 19.9422 12.0466 19.946 12.0464 19.9499C12.0461 19.9538 12.0471 19.9576 12.0491 19.9609C12.0512 19.9642 12.0541 19.9667 12.0577 19.9683C12.1811 20.0245 12.3016 20.0255 12.4191 19.9711C12.4269 19.9678 12.4338 19.9612 12.4384 19.9529C12.443 19.9446 12.4449 19.9352 12.4436 19.9269C12.4423 19.9185 12.4379 19.9117 12.4315 19.9082C12.425 19.9046 12.417 19.9045 12.4092 19.9078ZM14.1445 18.5742L14.2266 18.6484L14.3672 18.5234L14.3281 18.4531L14.1445 18.5742Z" fill="#D6A550"/>
<path d="M10.4883 19.3359C10.507 19.3062 10.5253 19.2947 10.5431 19.3012C10.4328 19.2359 10.3242 19.1639 10.2173 19.0852C10.1447 19.0317 10.1063 19.0603 10.0575 19.1212C10.1047 19.1534 10.1223 19.1889 10.1105 19.2277C10.0989 19.2648 9.98984 19.2275 9.93391 19.2053L9.89453 19.2311L10.3289 19.5506C10.3455 19.5631 10.3578 19.5597 10.3659 19.5403L10.3922 19.4761L10.1859 19.2637C10.1822 19.2591 10.1802 19.2534 10.1801 19.2474C10.1801 19.2415 10.182 19.2358 10.1857 19.2311C10.1893 19.2264 10.1944 19.2231 10.2002 19.2217C10.2059 19.2203 10.212 19.2209 10.2173 19.2234C10.2282 19.2284 10.2412 19.2345 10.2556 19.2413C10.3221 19.2729 10.4197 19.3192 10.4883 19.3359Z" fill="#D6A550"/>
</g>
<g filter="url(#filter11_i_629_4309)">
<path d="M13.0069 19.0981C13.0277 19.4582 12.8975 19.8968 12.4836 19.6758C12.247 19.5494 12.0882 19.6831 11.8974 19.6972C11.7035 19.7112 11.5412 19.5933 11.3569 19.7047C10.9365 19.9587 10.8935 19.1192 11.0663 19.0106C11.2391 18.9019 11.6935 19.1178 11.6935 19.1178C11.7113 19.1241 11.7294 19.1245 11.7478 19.1192C11.8732 19.0833 12 19.0741 12.1285 19.0916C12.1413 19.0931 12.1545 19.0908 12.1664 19.085C12.346 18.9955 12.9769 18.5781 13.0069 19.0981Z" fill="#D24037"/>
<g filter="url(#filter12_i_629_4309)">
<path d="M12.3352 19.3984C12.3352 19.5624 12.1045 19.7011 11.8911 19.7011C11.6777 19.7011 11.5623 19.5624 11.5623 19.3984C11.5623 19.2344 11.7702 19.0742 11.9836 19.0742C12.197 19.0742 12.3352 19.2344 12.3352 19.3984Z" fill="#D24037"/>
</g>
</g>
<path d="M9.28075 20.1595C9.39169 20.243 9.50544 20.3234 9.622 20.4009C9.66669 20.4306 9.69403 20.4645 9.70403 20.5026C9.4856 20.7309 9.32388 20.6348 9.06278 20.5669C8.9456 20.5469 8.84528 20.507 8.76185 20.4473C8.75017 20.439 8.74087 20.4278 8.73488 20.4148C8.72888 20.4018 8.7264 20.3874 8.72768 20.3732C8.72896 20.3589 8.73396 20.3452 8.74217 20.3335C8.75039 20.3217 8.76153 20.3123 8.7745 20.3062L8.90856 20.2439C9.03419 20.1789 9.15825 20.1508 9.28075 20.1595Z" fill="#0D1110"/>
<g filter="url(#filter13_i_629_4309)">
<path d="M11.3784 20.8922C11.37 21.0966 11.2603 21.2075 11.0494 21.225H10.7212C10.4015 21.1791 10.2734 21.0005 10.3369 20.6892C10.574 20.5345 10.8989 20.6522 11.2045 20.7178C11.3067 20.74 11.3647 20.7981 11.3784 20.8922Z" fill="#73CEB7"/>
</g>
<g filter="url(#filter14_i_629_4309)">
<path d="M13.2113 20.7497C13.1947 20.9019 13.0944 21.0108 12.9103 21.0765C12.5741 21.1968 12.2809 21.1276 12.0309 20.8688C12.1016 20.8207 12.1886 20.7883 12.292 20.7718C12.5874 20.7243 12.8838 20.6815 13.1813 20.6433C13.2025 20.6405 13.2125 20.676 13.2113 20.7497Z" fill="#73CEB7"/>
</g>
<circle cx="7.90734" cy="3.85924" r="0.280142" fill="#D4D3BE"/>
<circle cx="11.3289" cy="3.09019" r="0.261215" fill="#93907A"/>
<g filter="url(#filter15_f_629_4309)">
<path d="M10.1484 2.86324L10.0404 2.65356C10.0345 2.64282 10.0258 2.63375 10.0151 2.62731C9.93756 2.58262 9.86256 2.58465 9.79006 2.6334C9.77663 2.64278 9.76585 2.65465 9.75772 2.66903L9.68178 2.80356C9.57256 2.47918 10.1925 2.40668 10.1484 2.86324Z" fill="#93907A"/>
<path d="M11.4478 3.17621C11.3937 3.1809 11.3397 3.19903 11.2856 3.23059C11.2706 3.23934 11.2556 3.23918 11.2406 3.23012L11.1216 3.1584C11.0859 2.89778 11.3709 2.75856 11.528 3.04965C11.5351 3.06309 11.5375 3.07731 11.535 3.09231C11.525 3.15043 11.4959 3.1784 11.4478 3.17621Z" fill="#D4D3BE"/>
<path d="M10.0954 2.95773C10.0926 2.90992 10.0709 2.87648 10.0303 2.85742C10.014 2.84992 9.99994 2.85257 9.98806 2.86538L9.94681 2.91038C9.86468 2.99972 9.77219 2.39125 9.78369 2.92398C9.78395 2.93258 9.75715 3.01443 10.0023 3.01443C10.0023 3.01443 10.0314 3.02781 10.0954 2.95773Z" fill="#93907A"/>
<path d="M11.2263 3.1382C11.2426 3.1743 11.2721 3.19622 11.2922 3.18716C11.3122 3.17811 11.3153 3.1415 11.299 3.1054C11.2827 3.0693 11.2532 3.04738 11.2331 3.05644C11.2131 3.06549 11.21 3.1021 11.2263 3.1382Z" fill="#383C3A"/>
<path d="M11.0953 3.16548C11.1134 3.16517 11.1222 3.16282 11.1216 3.15845L11.2406 3.23017C11.2556 3.23923 11.2706 3.23938 11.2856 3.23063C11.3397 3.19907 11.3937 3.18095 11.4478 3.17626L11.5158 3.21095C11.4895 3.28345 11.4417 3.3297 11.3723 3.3497C11.357 3.35407 11.3427 3.35235 11.3292 3.34454C11.2509 3.29907 11.1108 3.2747 11.0953 3.16548Z" fill="#383C3A"/>
<path d="M7.68465 4.98327C7.67496 4.98452 7.66652 4.98264 7.65934 4.97764C7.65608 4.97534 7.65336 4.97237 7.65136 4.96893C7.64936 4.96549 7.64814 4.96166 7.64779 4.95773C7.64743 4.95379 7.64794 4.94984 7.64929 4.94615C7.65064 4.94246 7.65279 4.93913 7.65559 4.93639L7.70246 4.88905C7.71684 4.87467 7.72996 4.87577 7.74184 4.89233C7.76403 4.92264 7.76434 4.95342 7.74277 4.98467C7.73309 4.99905 7.72027 5.00295 7.70434 4.99639C7.69715 4.99327 7.69059 4.98889 7.68465 4.98327Z" fill="#D4D3BE"/>
<path d="M7.70327 5.16868C7.67202 5.22462 7.61655 5.23368 7.53687 5.19587C7.54874 5.15149 7.58733 5.10868 7.65265 5.06743C7.66515 5.05993 7.67733 5.0604 7.68921 5.06883C7.72858 5.09665 7.73327 5.12993 7.70327 5.16868Z" fill="#2E2F2D"/>
<path d="M7.70309 4.01952C7.71497 3.97514 7.94115 4.05949 8.00778 4.01954C8.08981 4.06638 7.91403 4.1953 7.70309 4.01952Z" fill="#2E2F2D"/>
<path d="M8.11371 3.71693C8.10183 3.76131 7.87565 3.67696 7.80902 3.71691C7.72699 3.67007 7.90277 3.54115 8.11371 3.71693Z" fill="#F4F3D4"/>
<path d="M7.87703 4.0067C7.86735 4.00795 7.85891 4.00608 7.85172 4.00108C7.84846 3.99878 7.84574 3.99581 7.84374 3.99237C7.84175 3.98892 7.84053 3.9851 7.84017 3.98116C7.83981 3.97723 7.84032 3.97328 7.84167 3.96959C7.84302 3.9659 7.84517 3.96257 7.84797 3.95983L7.89485 3.91248C7.90922 3.89811 7.92235 3.8992 7.93422 3.91577C7.95641 3.94608 7.95672 3.97686 7.93516 4.00811C7.92547 4.02248 7.91266 4.02639 7.89672 4.01983C7.88953 4.0167 7.88297 4.01233 7.87703 4.0067Z" fill="#F7F7F7"/>
</g>
<defs>
<filter id="filter0_i_629_4309" x="5.48419" y="4.04211" width="12.5266" height="8.83989" filterUnits="userSpaceOnUse" color-interpolation-filters="sRGB">
<feFlood flood-opacity="0" result="BackgroundImageFix"/>
<feBlend mode="normal" in="SourceGraphic" in2="BackgroundImageFix" result="shape"/>
<feColorMatrix in="SourceAlpha" type="matrix" values="0 0 0 0 0 0 0 0 0 0 0 0 0 0 0 0 0 0 127 0" result="hardAlpha"/>
<feOffset dy="0.2"/>
<feGaussianBlur stdDeviation="0.5"/>
<feComposite in2="hardAlpha" operator="arithmetic" k2="-1" k3="1"/>
<feColorMatrix type="matrix" values="0 0 0 0 0 0 0 0 0 0 0 0 0 0 0 0 0 0 0.25 0"/>
<feBlend mode="normal" in2="shape" result="effect1_innerShadow_629_4309"/>
</filter>
<filter id="filter1_i_629_4309" x="7.69788" y="10.4915" width="7.69965" height="8.97185" filterUnits="userSpaceOnUse" color-interpolation-filters="sRGB">
<feFlood flood-opacity="0" result="BackgroundImageFix"/>
<feBlend mode="normal" in="SourceGraphic" in2="BackgroundImageFix" result="shape"/>
<feColorMatrix in="SourceAlpha" type="matrix" values="0 0 0 0 0 0 0 0 0 0 0 0 0 0 0 0 0 0 127 0" result="hardAlpha"/>
<feOffset dy="0.2"/>
<feGaussianBlur stdDeviation="0.5"/>
<feComposite in2="hardAlpha" operator="arithmetic" k2="-1" k3="1"/>
<feColorMatrix type="matrix" values="0 0 0 0 0 0 0 0 0 0.366667 0 0 0 0 0.276667 0 0 0 0.5 0"/>
<feBlend mode="normal" in2="shape" result="effect1_innerShadow_629_4309"/>
</filter>
<filter id="filter2_f_629_4309" x="8.25684" y="11.0179" width="3.12872" height="3.36841" filterUnits="userSpaceOnUse" color-interpolation-filters="sRGB">
<feFlood flood-opacity="0" result="BackgroundImageFix"/>
<feBlend mode="normal" in="SourceGraphic" in2="BackgroundImageFix" result="shape"/>
<feGaussianBlur stdDeviation="0.5" result="effect1_foregroundBlur_629_4309"/>
</filter>
<filter id="filter3_f_629_4309" x="11.2248" y="17.0604" width="1.93117" height="0.7271" filterUnits="userSpaceOnUse" color-interpolation-filters="sRGB">
<feFlood flood-opacity="0" result="BackgroundImageFix"/>
<feBlend mode="normal" in="SourceGraphic" in2="BackgroundImageFix" result="shape"/>
<feGaussianBlur stdDeviation="0.05" result="effect1_foregroundBlur_629_4309"/>
</filter>
<filter id="filter4_i_629_4309" x="8.93018" y="5.48486" width="9.81879" height="7.66467" filterUnits="userSpaceOnUse" color-interpolation-filters="sRGB">
<feFlood flood-opacity="0" result="BackgroundImageFix"/>
<feBlend mode="normal" in="SourceGraphic" in2="BackgroundImageFix" result="shape"/>
<feColorMatrix in="SourceAlpha" type="matrix" values="0 0 0 0 0 0 0 0 0 0 0 0 0 0 0 0 0 0 127 0" result="hardAlpha"/>
<feOffset/>
<feGaussianBlur stdDeviation="0.1"/>
<feComposite in2="hardAlpha" operator="arithmetic" k2="-1" k3="1"/>
<feColorMatrix type="matrix" values="0 0 0 0 1 0 0 0 0 1 0 0 0 0 1 0 0 0 0.1 0"/>
<feBlend mode="normal" in2="shape" result="effect1_innerShadow_629_4309"/>
</filter>
<filter id="filter5_i_629_4309" x="6.26413" y="5.54199" width="10.741" height="7.16016" filterUnits="userSpaceOnUse" color-interpolation-filters="sRGB">
<feFlood flood-opacity="0" result="BackgroundImageFix"/>
<feBlend mode="normal" in="SourceGraphic" in2="BackgroundImageFix" result="shape"/>
<feColorMatrix in="SourceAlpha" type="matrix" values="0 0 0 0 0 0 0 0 0 0 0 0 0 0 0 0 0 0 127 0" result="hardAlpha"/>
<feOffset/>
<feGaussianBlur stdDeviation="0.1"/>
<feComposite in2="hardAlpha" operator="arithmetic" k2="-1" k3="1"/>
<feColorMatrix type="matrix" values="0 0 0 0 0 0 0 0 0 0 0 0 0 0 0 0 0 0 0.1 0"/>
<feBlend mode="normal" in2="shape" result="effect1_innerShadow_629_4309"/>
</filter>
<filter id="filter6_di_629_4309" x="8.66801" y="14.5695" width="7.04464" height="3.11299" filterUnits="userSpaceOnUse" color-interpolation-filters="sRGB">
<feFlood flood-opacity="0" result="BackgroundImageFix"/>
<feColorMatrix in="SourceAlpha" type="matrix" values="0 0 0 0 0 0 0 0 0 0 0 0 0 0 0 0 0 0 127 0" result="hardAlpha"/>
<feOffset dy="-0.1"/>
<feGaussianBlur stdDeviation="0.05"/>
<feComposite in2="hardAlpha" operator="out"/>
<feColorMatrix type="matrix" values="0 0 0 0 0 0 0 0 0 0 0 0 0 0 0 0 0 0 0.25 0"/>
<feBlend mode="normal" in2="BackgroundImageFix" result="effect1_dropShadow_629_4309"/>
<feBlend mode="normal" in="SourceGraphic" in2="effect1_dropShadow_629_4309" result="shape"/>
<feColorMatrix in="SourceAlpha" type="matrix" values="0 0 0 0 0 0 0 0 0 0 0 0 0 0 0 0 0 0 127 0" result="hardAlpha"/>
<feOffset dy="0.1"/>
<feGaussianBlur stdDeviation="0.1"/>
<feComposite in2="hardAlpha" operator="arithmetic" k2="-1" k3="1"/>
<feColorMatrix type="matrix" values="0 0 0 0 1 0 0 0 0 1 0 0 0 0 1 0 0 0 0.1 0"/>
<feBlend mode="normal" in2="shape" result="effect2_innerShadow_629_4309"/>
</filter>
<filter id="filter7_i_629_4309" x="15.6497" y="14.9591" width="0.841614" height="1.74136" filterUnits="userSpaceOnUse" color-interpolation-filters="sRGB">
<feFlood flood-opacity="0" result="BackgroundImageFix"/>
<feBlend mode="normal" in="SourceGraphic" in2="BackgroundImageFix" result="shape"/>
<feColorMatrix in="SourceAlpha" type="matrix" values="0 0 0 0 0 0 0 0 0 0 0 0 0 0 0 0 0 0 127 0" result="hardAlpha"/>
<feOffset dy="-0.1"/>
<feGaussianBlur stdDeviation="0.1"/>
<feComposite in2="hardAlpha" operator="arithmetic" k2="-1" k3="1"/>
<feColorMatrix type="matrix" values="0 0 0 0 0 0 0 0 0 0 0 0 0 0 0 0 0 0 0.5 0"/>
<feBlend mode="normal" in2="shape" result="effect1_innerShadow_629_4309"/>
</filter>
<filter id="filter8_i_629_4309" x="7.7597" y="17.5625" width="1.09869" height="1.4042" filterUnits="userSpaceOnUse" color-interpolation-filters="sRGB">
<feFlood flood-opacity="0" result="BackgroundImageFix"/>
<feBlend mode="normal" in="SourceGraphic" in2="BackgroundImageFix" result="shape"/>
<feColorMatrix in="SourceAlpha" type="matrix" values="0 0 0 0 0 0 0 0 0 0 0 0 0 0 0 0 0 0 127 0" result="hardAlpha"/>
<feOffset dy="0.1"/>
<feGaussianBlur stdDeviation="0.1"/>
<feComposite in2="hardAlpha" operator="arithmetic" k2="-1" k3="1"/>
<feColorMatrix type="matrix" values="0 0 0 0 0 0 0 0 0 0 0 0 0 0 0 0 0 0 0.5 0"/>
<feBlend mode="normal" in2="shape" result="effect1_innerShadow_629_4309"/>
</filter>
<filter id="filter9_f_629_4309" x="10.7891" y="18.2673" width="3.55001" height="1.19766" filterUnits="userSpaceOnUse" color-interpolation-filters="sRGB">
<feFlood flood-opacity="0" result="BackgroundImageFix"/>
<feBlend mode="normal" in="SourceGraphic" in2="BackgroundImageFix" result="shape"/>
<feGaussianBlur stdDeviation="0.15" result="effect1_foregroundBlur_629_4309"/>
</filter>
<filter id="filter10_i_629_4309" x="9.89453" y="18.3516" width="4.5867" height="1.89644" filterUnits="userSpaceOnUse" color-interpolation-filters="sRGB">
<feFlood flood-opacity="0" result="BackgroundImageFix"/>
<feBlend mode="normal" in="SourceGraphic" in2="BackgroundImageFix" result="shape"/>
<feColorMatrix in="SourceAlpha" type="matrix" values="0 0 0 0 0 0 0 0 0 0 0 0 0 0 0 0 0 0 127 0" result="hardAlpha"/>
<feOffset dy="0.05"/>
<feGaussianBlur stdDeviation="0.05"/>
<feComposite in2="hardAlpha" operator="arithmetic" k2="-1" k3="1"/>
<feColorMatrix type="matrix" values="0 0 0 0 0 0 0 0 0 0 0 0 0 0 0 0 0 0 0.25 0"/>
<feBlend mode="normal" in2="shape" result="effect1_innerShadow_629_4309"/>
</filter>
<filter id="filter11_i_629_4309" x="10.9711" y="18.8418" width="2.0379" height="0.960522" filterUnits="userSpaceOnUse" color-interpolation-filters="sRGB">
<feFlood flood-opacity="0" result="BackgroundImageFix"/>
<feBlend mode="normal" in="SourceGraphic" in2="BackgroundImageFix" result="shape"/>
<feColorMatrix in="SourceAlpha" type="matrix" values="0 0 0 0 0 0 0 0 0 0 0 0 0 0 0 0 0 0 127 0" result="hardAlpha"/>
<feOffset dy="0.05"/>
<feGaussianBlur stdDeviation="0.1"/>
<feComposite in2="hardAlpha" operator="arithmetic" k2="-1" k3="1"/>
<feColorMatrix type="matrix" values="0 0 0 0 0 0 0 0 0 0 0 0 0 0 0 0 0 0 0.25 0"/>
<feBlend mode="normal" in2="shape" result="effect1_innerShadow_629_4309"/>
</filter>
<filter id="filter12_i_629_4309" x="11.5623" y="19.0742" width="0.772888" height="0.626831" filterUnits="userSpaceOnUse" color-interpolation-filters="sRGB">
<feFlood flood-opacity="0" result="BackgroundImageFix"/>
<feBlend mode="normal" in="SourceGraphic" in2="BackgroundImageFix" result="shape"/>
<feColorMatrix in="SourceAlpha" type="matrix" values="0 0 0 0 0 0 0 0 0 0 0 0 0 0 0 0 0 0 127 0" result="hardAlpha"/>
<feOffset/>
<feGaussianBlur stdDeviation="0.15"/>
<feComposite in2="hardAlpha" operator="arithmetic" k2="-1" k3="1"/>
<feColorMatrix type="matrix" values="0 0 0 0 0.745833 0 0 0 0 0.277482 0 0 0 0 0.248611 0 0 0 1 0"/>
<feBlend mode="normal" in2="shape" result="effect1_innerShadow_629_4309"/>
</filter>
<filter id="filter13_i_629_4309" x="10.3211" y="20.6129" width="1.05731" height="0.662061" filterUnits="userSpaceOnUse" color-interpolation-filters="sRGB">
<feFlood flood-opacity="0" result="BackgroundImageFix"/>
<feBlend mode="normal" in="SourceGraphic" in2="BackgroundImageFix" result="shape"/>
<feColorMatrix in="SourceAlpha" type="matrix" values="0 0 0 0 0 0 0 0 0 0 0 0 0 0 0 0 0 0 127 0" result="hardAlpha"/>
<feOffset dy="0.05"/>
<feGaussianBlur stdDeviation="0.1"/>
<feComposite in2="hardAlpha" operator="arithmetic" k2="-1" k3="1"/>
<feColorMatrix type="matrix" values="0 0 0 0 0 0 0 0 0 0 0 0 0 0 0 0 0 0 0.5 0"/>
<feBlend mode="normal" in2="shape" result="effect1_innerShadow_629_4309"/>
</filter>
<filter id="filter14_i_629_4309" x="12.0309" y="20.6432" width="1.18042" height="0.540601" filterUnits="userSpaceOnUse" color-interpolation-filters="sRGB">
<feFlood flood-opacity="0" result="BackgroundImageFix"/>
<feBlend mode="normal" in="SourceGraphic" in2="BackgroundImageFix" result="shape"/>
<feColorMatrix in="SourceAlpha" type="matrix" values="0 0 0 0 0 0 0 0 0 0 0 0 0 0 0 0 0 0 127 0" result="hardAlpha"/>
<feOffset dy="0.05"/>
<feGaussianBlur stdDeviation="0.1"/>
<feComposite in2="hardAlpha" operator="arithmetic" k2="-1" k3="1"/>
<feColorMatrix type="matrix" values="0 0 0 0 0 0 0 0 0 0 0 0 0 0 0 0 0 0 0.25 0"/>
<feBlend mode="normal" in2="shape" result="effect1_innerShadow_629_4309"/>
</filter>
<filter id="filter15_f_629_4309" x="7.43687" y="2.44053" width="4.19908" height="2.87822" filterUnits="userSpaceOnUse" color-interpolation-filters="sRGB">
<feFlood flood-opacity="0" result="BackgroundImageFix"/>
<feBlend mode="normal" in="SourceGraphic" in2="BackgroundImageFix" result="shape"/>
<feGaussianBlur stdDeviation="0.05" result="effect1_foregroundBlur_629_4309"/>
</filter>
<linearGradient id="paint0_linear_629_4309" x1="12.1904" y1="17.1641" x2="12.1904" y2="17.6839" gradientUnits="userSpaceOnUse">
<stop stop-color="#5DC8A6"/>
<stop offset="1" stop-color="#258965"/>
</linearGradient>
<linearGradient id="paint1_linear_629_4309" x1="13.9271" y1="12.0744" x2="14.5138" y2="12.667" gradientUnits="userSpaceOnUse">
<stop stop-color="#185840"/>
<stop offset="1" stop-color="#4BA790"/>
</linearGradient>
</defs>
</svg>
