<svg width="24" height="24" viewBox="0 0 24 24" fill="none" xmlns="http://www.w3.org/2000/svg">
<circle cx="12.0002" cy="12" r="12" fill="#172852"/>
<path d="M10.3318 16.3335C10.7818 17.9985 12.3964 19.2686 13.2118 19.216C13.2404 19.2142 16.3044 18.6429 17.9818 15.841C19.2868 13.66 18.8427 11.5547 17.0674 11.5086C16.4286 11.5554 9.47478 13.1621 10.3323 16.3339L10.3318 16.3335ZM16.9018 5.64037L16.9 5.63879L16.9025 5.63744C15.7843 4.68623 14.4201 4.0703 12.9671 3.86063C11.5141 3.65097 10.0315 3.85609 8.68998 4.45237C8.52117 4.52303 8.35677 4.6038 8.19768 4.69424C8.08833 4.75229 7.97898 4.81034 7.87278 4.87424L7.89866 4.88212C7.58465 5.09595 7.30699 5.35879 7.07628 5.66062C4.83888 8.61442 12.3345 10.7625 16.3427 10.7688C18.1857 12.0925 18.7032 7.04257 16.9018 5.64037Z" fill="#0E3CA5"/>
<path d="M9.14268 5.69998C8.11285 7.24798 4.68273 8.33856 4.11865 8.16868L4.11483 8.16148C4.13808 8.11483 4.16155 8.06841 4.18525 8.02221C4.77019 6.89555 5.60714 5.91901 6.631 5.16853C6.84205 5.01403 7.06053 4.86943 7.28643 4.73473C7.63406 4.54287 8.02342 4.43912 8.42043 4.43256C9.94795 4.46181 9.15033 5.68806 9.142 5.70043L9.14268 5.69998ZM8.29758 16.6379C8.3716 17.1241 8.29578 19.0454 8.19633 19.207C8.1106 19.2121 7.93218 19.2232 7.41535 18.9331C5.76505 17.9915 4.49183 16.5073 3.81219 14.733C3.13254 12.9587 3.08842 11.0037 3.68733 9.20053C3.71478 9.11803 3.7435 9.03606 3.7735 8.95461C4.36548 9.74211 5.0506 10.4545 5.6329 11.2496C6.18753 12.007 6.9505 13.2413 7.10575 13.505C8.06965 15.1426 8.22333 16.1526 8.2969 16.6381L8.29758 16.6379ZM19.6927 11.7961C19.694 12.8286 19.5 13.8521 19.121 14.8125C18.1535 15.852 11.6323 13.2931 11.5684 13.2652C10.6763 12.8743 7.96143 11.685 7.7164 9.81748C7.36518 7.12873 12.8169 5.25606 15.2132 5.18496C15.5005 5.18833 16.3749 5.19846 16.8847 5.61246C17.7676 6.3825 18.4752 7.33293 18.9596 8.39966C19.444 9.46638 19.694 10.6246 19.6927 11.7961ZM15.278 19.0801C14.567 19.4117 13.7844 19.1701 13.9878 18.4777C14.3782 17.1482 17.7872 15.7852 18.54 15.7102C18.633 15.701 18.6723 15.7642 18.6312 15.8365C17.8468 17.2157 16.6833 18.341 15.2787 19.0789" fill="#5493F7"/>
<path d="M6.90079 20.3821C6.89069 20.5322 6.93991 20.6803 7.03788 20.7944C7.13584 20.9086 7.2747 20.9797 7.42459 20.9925C14.3321 21.04 21.0002 20.7225 21.0002 19.6875C21.0002 16.5549 6.90079 20.3821 6.90079 20.3821Z" fill="url(#paint0_linear_927_5128)"/>
<path d="M6.90079 20.3822C6.8906 20.5327 6.94014 20.6813 7.03869 20.7956C7.13724 20.9099 7.27685 20.9807 7.42729 20.9928C14.333 21.0452 20.9919 20.8283 21.0002 19.6878C21.0002 16.5549 6.90079 20.3822 6.90079 20.3822ZM7.42774 20.953C7.40932 20.953 7.39091 20.9519 7.37261 20.9498C7.26732 20.9351 7.16872 20.8896 7.08919 20.819C7.00966 20.7484 6.95273 20.656 6.92554 20.5532C6.95504 20.6646 7.01986 20.7634 7.11029 20.8348C7.20071 20.9063 7.31186 20.9465 7.42706 20.9494C14.3278 20.9062 20.892 18.7815 20.892 19.7171C20.892 20.672 14.3285 21 7.42774 20.953Z" fill="url(#paint1_linear_927_5128)"/>
<path d="M7.42819 11.5102C7.35894 11.5101 7.29036 11.5237 7.22638 11.5502C7.16239 11.5767 7.10425 11.6155 7.05527 11.6645C7.0063 11.7134 6.96744 11.7716 6.94094 11.8355C6.91443 11.8995 6.90079 11.9681 6.90079 12.0373V20.3821C6.90067 20.5215 6.95568 20.6552 7.05383 20.7541C7.15197 20.853 7.28526 20.909 7.42459 20.91C14.3319 20.8582 21.0087 18.572 21.0002 19.688V10.2886C21.0087 9.17241 14.3341 11.4582 7.42819 11.5102Z" fill="url(#paint2_linear_927_5128)"/>
<path d="M15.5687 14.505C15.3567 14.5407 15.1284 14.5781 14.8534 14.6215V12.565L14.2376 12.6609C14.0542 12.689 13.8857 12.7158 13.7039 12.7423C13.5221 12.7689 13.3257 12.7968 13.0896 12.8285V14.8845C12.642 14.944 12.1938 14.9989 11.745 15.0492C11.5315 15.0726 11.3018 15.0972 11.0266 15.1239V16.8864C11.475 16.8435 11.9228 16.7942 12.3699 16.7385C12.6096 16.7095 12.8491 16.6789 13.0885 16.647V18.7035C13.3243 18.6722 13.5207 18.6441 13.7034 18.6175C13.8861 18.591 14.0549 18.5637 14.238 18.5356C14.4212 18.5075 14.6169 18.4773 14.8525 18.4402V16.3839C15.1275 16.3407 15.3558 16.3036 15.568 16.2676C15.7802 16.2316 15.9777 16.1972 16.191 16.1607C16.4043 16.1243 16.6325 16.0849 16.9063 16.0372V14.2748C16.6323 14.322 16.4039 14.3616 16.1908 14.3981C15.9777 14.4345 15.7802 14.4694 15.5687 14.505Z" fill="url(#paint3_linear_927_5128)"/>
<defs>
<linearGradient id="paint0_linear_927_5128" x1="6.90079" y1="19.7262" x2="21.0002" y2="19.7262" gradientUnits="userSpaceOnUse">
<stop stop-color="#700000"/>
<stop offset="0.327" stop-color="#730000"/>
<stop offset="0.59" stop-color="#7D0000"/>
<stop offset="0.83" stop-color="#8E0000"/>
<stop offset="1" stop-color="#9F0000"/>
</linearGradient>
<linearGradient id="paint1_linear_927_5128" x1="13.9505" y1="18.4553" x2="13.9505" y2="21" gradientUnits="userSpaceOnUse">
<stop offset="0.35" stop-color="#CF2000"/>
<stop offset="0.645" stop-color="#CD1F00"/>
<stop offset="0.752" stop-color="#C61D00"/>
<stop offset="0.828" stop-color="#BB1900"/>
<stop offset="0.889" stop-color="#AA1300"/>
<stop offset="0.941" stop-color="#940C00"/>
<stop offset="0.987" stop-color="#790300"/>
<stop offset="1" stop-color="#700000"/>
</linearGradient>
<linearGradient id="paint2_linear_927_5128" x1="6.90079" y1="15.4456" x2="21.0002" y2="15.4456" gradientUnits="userSpaceOnUse">
<stop stop-color="#CF2000"/>
<stop offset="0.021" stop-color="#D12201"/>
<stop offset="0.244" stop-color="#E23309"/>
<stop offset="0.487" stop-color="#EC3D0E"/>
<stop offset="0.791" stop-color="#EF4010"/>
<stop offset="0.841" stop-color="#EC3D0F"/>
<stop offset="0.882" stop-color="#E2330D"/>
<stop offset="0.919" stop-color="#D12208"/>
<stop offset="0.954" stop-color="#B90A03"/>
<stop offset="0.966" stop-color="#AF0000"/>
<stop offset="1" stop-color="#EF4010"/>
</linearGradient>
<linearGradient id="paint3_linear_927_5128" x1="6.90079" y1="15.6342" x2="21.0002" y2="15.6342" gradientUnits="userSpaceOnUse">
<stop stop-color="#DFDFDF"/>
<stop offset="0.021" stop-color="#E1E1E1"/>
<stop offset="0.244" stop-color="#F2F2F2"/>
<stop offset="0.487" stop-color="#FCFCFC"/>
<stop offset="0.791" stop-color="white"/>
<stop offset="0.841" stop-color="#FCFCFC"/>
<stop offset="0.882" stop-color="#F2F2F2"/>
<stop offset="0.919" stop-color="#E1E1E1"/>
<stop offset="0.954" stop-color="#C9C9C9"/>
<stop offset="0.966" stop-color="#BFBFBF"/>
<stop offset="1" stop-color="white"/>
</linearGradient>
</defs>
</svg>
