<svg width="24" height="24" viewBox="0 0 24 24" fill="none" xmlns="http://www.w3.org/2000/svg">
<circle cx="12" cy="12" r="12" fill="#121212"/>
<path d="M12.0017 22.6816C17.9003 22.6816 22.6821 17.9 22.6821 12.0016C22.6821 6.10321 17.9003 1.32161 12.0017 1.32161C6.10304 1.32161 1.32125 6.10321 1.32125 12.0016C1.32125 17.9 6.10304 22.6816 12.0017 22.6816Z" fill="#F6BE41" stroke="white" stroke-width="0.16"/>
<mask id="path-3-outside-1_877_5220" maskUnits="userSpaceOnUse" x="-0.592957" y="0.795166" width="25" height="22" fill="black">
<rect fill="white" x="-0.592957" y="0.795166" width="25" height="22"/>
<path d="M9.57513 3.25633L9.57232 2.5607C9.57261 2.55077 9.58635 2.54442 9.59342 2.5518C9.98467 2.92461 10.3829 3.29023 10.7883 3.64867C10.9804 3.81883 11.7975 4.42539 12.044 4.32836C12.4322 4.17617 12.7837 3.96258 13.0987 3.68758C13.5228 3.31695 13.9265 2.94977 14.31 2.58602C14.3475 2.55039 14.3658 2.55852 14.3648 2.61039L14.3522 3.25398C14.3515 3.28523 14.3601 3.28805 14.3779 3.26242L15.3483 1.87352C15.3989 1.8007 15.4248 1.80867 15.4261 1.89742L15.4556 3.93742C15.4559 3.95461 15.4636 3.95898 15.4786 3.95055C16.012 3.64727 16.4484 3.1832 16.8773 2.77352C16.9058 2.74633 16.9223 2.75211 16.927 2.79086C17.017 3.49258 17.1328 4.14977 17.0639 4.88711C17.0623 4.90336 17.0687 4.91539 17.0831 4.9232C18.0275 5.44195 18.9747 5.95601 19.9247 6.46539C20.4914 6.76914 20.7975 7.24352 21.0234 7.83555C21.029 7.85023 21.0392 7.86117 21.0539 7.86836C21.7445 8.20055 22.364 8.59273 22.9125 9.04492C23.5425 9.5643 23.865 10.1282 23.2879 10.852C23.278 10.8643 23.2733 10.8799 23.2748 10.8955C23.3214 11.4662 23.1328 11.9352 22.709 12.3027C22.6962 12.3137 22.6895 12.3277 22.6889 12.3449C22.6392 13.8763 21.8212 15.1541 20.2064 15.3285C19.7639 15.3759 19.4283 15.3355 18.9169 15.2699C18.8984 15.2677 18.8915 15.2755 18.8962 15.2934C19.0787 15.9999 19.3339 16.679 19.6617 17.3305C19.6678 17.342 19.6556 17.3579 19.6429 17.3549C19.1586 17.2396 18.727 17.0209 18.3483 16.6987C18.3304 16.6837 18.3236 16.6877 18.3276 16.7109C18.4725 17.5007 18.9548 18.082 19.3908 18.7227C19.3955 18.7303 19.3865 18.7416 19.3781 18.7387C18.577 18.4232 17.8059 18.1621 17.1061 17.6385C17.0939 17.6295 17.0815 17.6291 17.069 17.6376C15.1425 18.9349 13.4624 20.3739 12.0047 22.2023C11.9934 22.2163 11.9819 22.2166 11.97 22.2032C10.3947 20.4561 8.72317 18.8583 6.75795 17.5462C6.74853 17.5399 6.73554 17.5401 6.72654 17.5466C6.09935 17.9798 5.36342 18.2441 4.63263 18.5165C4.62348 18.5195 4.61394 18.5073 4.61904 18.4991C5.11076 17.7613 5.60201 17.181 5.71685 16.2576L5.70888 16.2543C5.26232 16.8749 4.66763 17.2795 3.92482 17.4679C3.90855 17.4718 3.89281 17.4511 3.90092 17.4365C4.28029 16.7793 4.55467 16.0802 4.72404 15.3393C4.72776 15.3232 4.71233 15.306 4.69592 15.3079C2.65873 15.5587 1.30404 14.4051 1.24498 12.3421C1.24435 12.3259 1.23795 12.3124 1.22576 12.3018C0.805134 11.9365 0.616696 11.4718 0.660446 10.9077C0.661696 10.8921 0.657946 10.878 0.649196 10.8655C0.226853 10.252 0.381071 9.59805 0.924821 9.12836C1.5206 8.61367 2.18342 8.21195 2.8842 7.85758C2.89807 7.85065 2.90879 7.83875 2.9142 7.8243C3.15748 7.1882 3.45607 6.76211 4.0617 6.43586C4.99263 5.93461 5.92123 5.42961 6.84748 4.92086C6.86185 4.91305 6.86826 4.90086 6.8667 4.8843C6.79685 4.12258 6.92342 3.47852 7.0031 2.7768C7.00654 2.74742 7.01904 2.74273 7.0406 2.76273C7.49013 3.17805 7.92138 3.64211 8.45904 3.95055C8.4731 3.95867 8.48029 3.95445 8.4806 3.93789L8.50638 1.83227C8.5067 1.78727 8.51982 1.7832 8.54576 1.82008L9.55545 3.26289C9.56073 3.27066 9.57557 3.26571 9.57513 3.25633Z"/>
</mask>
<path d="M9.57513 3.25633L9.57232 2.5607C9.57261 2.55077 9.58635 2.54442 9.59342 2.5518C9.98467 2.92461 10.3829 3.29023 10.7883 3.64867C10.9804 3.81883 11.7975 4.42539 12.044 4.32836C12.4322 4.17617 12.7837 3.96258 13.0987 3.68758C13.5228 3.31695 13.9265 2.94977 14.31 2.58602C14.3475 2.55039 14.3658 2.55852 14.3648 2.61039L14.3522 3.25398C14.3515 3.28523 14.3601 3.28805 14.3779 3.26242L15.3483 1.87352C15.3989 1.8007 15.4248 1.80867 15.4261 1.89742L15.4556 3.93742C15.4559 3.95461 15.4636 3.95898 15.4786 3.95055C16.012 3.64727 16.4484 3.1832 16.8773 2.77352C16.9058 2.74633 16.9223 2.75211 16.927 2.79086C17.017 3.49258 17.1328 4.14977 17.0639 4.88711C17.0623 4.90336 17.0687 4.91539 17.0831 4.9232C18.0275 5.44195 18.9747 5.95601 19.9247 6.46539C20.4914 6.76914 20.7975 7.24352 21.0234 7.83555C21.029 7.85023 21.0392 7.86117 21.0539 7.86836C21.7445 8.20055 22.364 8.59273 22.9125 9.04492C23.5425 9.5643 23.865 10.1282 23.2879 10.852C23.278 10.8643 23.2733 10.8799 23.2748 10.8955C23.3214 11.4662 23.1328 11.9352 22.709 12.3027C22.6962 12.3137 22.6895 12.3277 22.6889 12.3449C22.6392 13.8763 21.8212 15.1541 20.2064 15.3285C19.7639 15.3759 19.4283 15.3355 18.9169 15.2699C18.8984 15.2677 18.8915 15.2755 18.8962 15.2934C19.0787 15.9999 19.3339 16.679 19.6617 17.3305C19.6678 17.342 19.6556 17.3579 19.6429 17.3549C19.1586 17.2396 18.727 17.0209 18.3483 16.6987C18.3304 16.6837 18.3236 16.6877 18.3276 16.7109C18.4725 17.5007 18.9548 18.082 19.3908 18.7227C19.3955 18.7303 19.3865 18.7416 19.3781 18.7387C18.577 18.4232 17.8059 18.1621 17.1061 17.6385C17.0939 17.6295 17.0815 17.6291 17.069 17.6376C15.1425 18.9349 13.4624 20.3739 12.0047 22.2023C11.9934 22.2163 11.9819 22.2166 11.97 22.2032C10.3947 20.4561 8.72317 18.8583 6.75795 17.5462C6.74853 17.5399 6.73554 17.5401 6.72654 17.5466C6.09935 17.9798 5.36342 18.2441 4.63263 18.5165C4.62348 18.5195 4.61394 18.5073 4.61904 18.4991C5.11076 17.7613 5.60201 17.181 5.71685 16.2576L5.70888 16.2543C5.26232 16.8749 4.66763 17.2795 3.92482 17.4679C3.90855 17.4718 3.89281 17.4511 3.90092 17.4365C4.28029 16.7793 4.55467 16.0802 4.72404 15.3393C4.72776 15.3232 4.71233 15.306 4.69592 15.3079C2.65873 15.5587 1.30404 14.4051 1.24498 12.3421C1.24435 12.3259 1.23795 12.3124 1.22576 12.3018C0.805134 11.9365 0.616696 11.4718 0.660446 10.9077C0.661696 10.8921 0.657946 10.878 0.649196 10.8655C0.226853 10.252 0.381071 9.59805 0.924821 9.12836C1.5206 8.61367 2.18342 8.21195 2.8842 7.85758C2.89807 7.85065 2.90879 7.83875 2.9142 7.8243C3.15748 7.1882 3.45607 6.76211 4.0617 6.43586C4.99263 5.93461 5.92123 5.42961 6.84748 4.92086C6.86185 4.91305 6.86826 4.90086 6.8667 4.8843C6.79685 4.12258 6.92342 3.47852 7.0031 2.7768C7.00654 2.74742 7.01904 2.74273 7.0406 2.76273C7.49013 3.17805 7.92138 3.64211 8.45904 3.95055C8.4731 3.95867 8.48029 3.95445 8.4806 3.93789L8.50638 1.83227C8.5067 1.78727 8.51982 1.7832 8.54576 1.82008L9.55545 3.26289C9.56073 3.27066 9.57557 3.26571 9.57513 3.25633Z" fill="#333C56"/>
<path d="M9.57513 3.25633L9.49506 3.25665L9.49522 3.26007L9.57513 3.25633ZM9.57232 2.5607L9.49231 2.55837L9.49232 2.56103L9.57232 2.5607ZM9.59342 2.5518L9.53559 2.6072L9.53823 2.60971L9.59342 2.5518ZM10.7883 3.64867L10.8413 3.58877L10.8413 3.58874L10.7883 3.64867ZM12.044 4.32836L12.0148 4.25388L12.0147 4.25392L12.044 4.32836ZM13.0987 3.68758L13.1513 3.74784L13.1514 3.74781L13.0987 3.68758ZM14.31 2.58602L14.365 2.64405L14.3651 2.64402L14.31 2.58602ZM14.3648 2.61039L14.4448 2.61196L14.4448 2.61184L14.3648 2.61039ZM14.3522 3.25398L14.4321 3.25558L14.4321 3.25556L14.3522 3.25398ZM14.3779 3.26242L14.3124 3.21661L14.3123 3.21676L14.3779 3.26242ZM15.3483 1.87352L15.4138 1.91933L15.4139 1.91918L15.3483 1.87352ZM15.4261 1.89742L15.3461 1.89855L15.3461 1.89858L15.4261 1.89742ZM15.4556 3.93742L15.3756 3.93858L15.3756 3.93888L15.4556 3.93742ZM15.4786 3.95055L15.5178 4.02027L15.5181 4.02009L15.4786 3.95055ZM16.8773 2.77352L16.9326 2.83136L16.9326 2.83134L16.8773 2.77352ZM16.927 2.79086L16.8476 2.80047L16.8477 2.80104L16.927 2.79086ZM17.0639 4.88711L17.1435 4.89477L17.1435 4.89455L17.0639 4.88711ZM17.0831 4.9232L17.1216 4.85308L17.1213 4.85291L17.0831 4.9232ZM19.9247 6.46539L19.8869 6.53589L19.8869 6.5359L19.9247 6.46539ZM21.0234 7.83555L20.9487 7.86407L20.9487 7.86416L21.0234 7.83555ZM21.0539 7.86836L21.0187 7.94022L21.0192 7.94045L21.0539 7.86836ZM22.9125 9.04492L22.8616 9.10665L22.8616 9.10665L22.9125 9.04492ZM23.2879 10.852L23.3502 10.9022L23.3505 10.9018L23.2879 10.852ZM23.2748 10.8955L23.3546 10.889L23.3545 10.8879L23.2748 10.8955ZM22.709 12.3027L22.761 12.3636L22.7615 12.3632L22.709 12.3027ZM22.6889 12.3449L22.6089 12.342L22.6089 12.3423L22.6889 12.3449ZM20.2064 15.3285L20.2149 15.4081L20.215 15.4081L20.2064 15.3285ZM18.9169 15.2699L18.927 15.1906L18.9263 15.1905L18.9169 15.2699ZM18.8962 15.2934L18.9737 15.2734L18.9736 15.273L18.8962 15.2934ZM19.6617 17.3305L19.5902 17.3665L19.5911 17.3682L19.6617 17.3305ZM19.6429 17.3549L19.6244 17.4327L19.6246 17.4328L19.6429 17.3549ZM18.3483 16.6987L18.4001 16.6377L18.3998 16.6375L18.3483 16.6987ZM18.3276 16.7109L18.2488 16.7247L18.2489 16.7253L18.3276 16.7109ZM19.3908 18.7227L19.4585 18.68L19.4569 18.6777L19.3908 18.7227ZM19.3781 18.7387L19.3488 18.8132L19.3518 18.8142L19.3781 18.7387ZM17.1061 17.6385L17.154 17.5745L17.1538 17.5743L17.1061 17.6385ZM17.069 17.6376L17.1137 17.7039L17.1138 17.7039L17.069 17.6376ZM12.0047 22.2023L12.0671 22.2522L12.0672 22.2521L12.0047 22.2023ZM11.97 22.2032L12.0299 22.1502L12.0294 22.1496L11.97 22.2032ZM6.75795 17.5462L6.71348 17.6127L6.71352 17.6127L6.75795 17.5462ZM6.72654 17.5466L6.77202 17.6125L6.7737 17.6113L6.72654 17.5466ZM4.63263 18.5165L4.65761 18.5926L4.66057 18.5914L4.63263 18.5165ZM4.61904 18.4991L4.55244 18.4548L4.5512 18.4567L4.61904 18.4991ZM5.71685 16.2576L5.79624 16.2675L5.80378 16.2068L5.74731 16.1836L5.71685 16.2576ZM5.70888 16.2543L5.73934 16.1803L5.68088 16.1563L5.64395 16.2076L5.70888 16.2543ZM3.92482 17.4679L3.94352 17.5457L3.94449 17.5454L3.92482 17.4679ZM3.90092 17.4365L3.83162 17.3965L3.83092 17.3977L3.90092 17.4365ZM4.72404 15.3393L4.64609 15.3213L4.64605 15.3215L4.72404 15.3393ZM4.69592 15.3079L4.68659 15.2284L4.68614 15.2285L4.69592 15.3079ZM1.24498 12.3421L1.32495 12.3398L1.32492 12.339L1.24498 12.3421ZM1.22576 12.3018L1.27833 12.2415L1.27822 12.2414L1.22576 12.3018ZM0.660446 10.9077L0.580701 10.9014L0.580686 10.9015L0.660446 10.9077ZM0.649196 10.8655L0.583296 10.9109L0.583658 10.9114L0.649196 10.8655ZM0.924821 9.12836L0.977116 9.1889L0.97712 9.1889L0.924821 9.12836ZM2.8842 7.85758L2.84845 7.78601L2.84809 7.78619L2.8842 7.85758ZM2.9142 7.8243L2.83947 7.79572L2.83926 7.79629L2.9142 7.8243ZM4.0617 6.43586L4.02377 6.36542L4.02376 6.36543L4.0617 6.43586ZM6.84748 4.92086L6.80928 4.85057L6.80896 4.85074L6.84748 4.92086ZM6.8667 4.8843L6.78703 4.8916L6.78705 4.89181L6.8667 4.8843ZM7.0031 2.7768L6.92364 2.7675L6.92361 2.76777L7.0031 2.7768ZM7.0406 2.76273L6.9862 2.82139L6.98631 2.82149L7.0406 2.76273ZM8.45904 3.95055L8.49906 3.88128L8.49885 3.88115L8.45904 3.95055ZM8.4806 3.93789L8.56059 3.9394L8.5606 3.93887L8.4806 3.93789ZM8.50638 1.83227L8.58638 1.83324L8.58638 1.83282L8.50638 1.83227ZM8.54576 1.82008L8.6113 1.77421L8.61119 1.77405L8.54576 1.82008ZM9.55545 3.26289L9.62163 3.21793L9.62099 3.21702L9.55545 3.26289ZM9.65513 3.256L9.65232 2.56038L9.49232 2.56103L9.49513 3.25665L9.65513 3.256ZM9.53823 2.60971C9.9302 2.98321 10.3292 3.34951 10.7353 3.7086L10.8413 3.58874C10.4367 3.23096 10.0391 2.86601 9.6486 2.49388L9.53823 2.60971ZM10.7352 3.70857C10.8351 3.79695 11.0911 3.99378 11.3536 4.15669C11.4848 4.23813 11.6206 4.31289 11.741 4.36126C11.8012 4.38543 11.86 4.40401 11.9142 4.41293C11.9671 4.42165 12.0234 4.42247 12.0733 4.4028L12.0147 4.25392C12.0031 4.25851 11.9799 4.26159 11.9402 4.25506C11.9017 4.24871 11.8547 4.23449 11.8006 4.21278C11.6926 4.16939 11.5658 4.10007 11.4379 4.02073C11.1823 3.86207 10.9337 3.67055 10.8413 3.58877L10.7352 3.70857ZM12.0732 4.40284C12.47 4.24728 12.8294 4.02887 13.1513 3.74784L13.0461 3.62731C12.738 3.89628 12.3944 4.10506 12.0148 4.25388L12.0732 4.40284ZM13.1514 3.74781C13.5762 3.37652 13.9808 3.0086 14.365 2.64405L14.2549 2.52798C13.8723 2.89093 13.4694 3.25739 13.0461 3.62734L13.1514 3.74781ZM14.3651 2.64402C14.3719 2.6375 14.3733 2.63755 14.3699 2.63925C14.3674 2.64048 14.3462 2.65042 14.3193 2.6385C14.2926 2.62662 14.2858 2.60436 14.2851 2.6019C14.284 2.59832 14.285 2.59943 14.2848 2.60894L14.4448 2.61184C14.4451 2.59541 14.4441 2.57606 14.4388 2.55747C14.4337 2.54001 14.4202 2.50822 14.3843 2.49229C14.3483 2.47629 14.3156 2.48765 14.2991 2.49575C14.2817 2.50433 14.2668 2.51672 14.2549 2.52802L14.3651 2.64402ZM14.2848 2.60882L14.2722 3.25241L14.4321 3.25556L14.4448 2.61196L14.2848 2.60882ZM14.2722 3.25238C14.272 3.26252 14.2723 3.27638 14.2755 3.29032C14.2772 3.29745 14.2873 3.34052 14.3333 3.35556C14.3794 3.37066 14.413 3.34168 14.4186 3.33685C14.4295 3.32747 14.4379 3.3164 14.4436 3.30808L14.3123 3.21676C14.3091 3.22126 14.3098 3.21945 14.314 3.21577C14.3162 3.2139 14.3224 3.20879 14.3325 3.20483C14.3432 3.20058 14.3617 3.19653 14.383 3.2035C14.4043 3.21046 14.4168 3.22462 14.4229 3.23431C14.4287 3.24337 14.4307 3.25111 14.4313 3.25386C14.4326 3.25929 14.432 3.26107 14.4321 3.25558L14.2722 3.25238ZM14.4435 3.30824L15.4138 1.91933L15.2827 1.8277L14.3124 3.21661L14.4435 3.30824ZM15.4139 1.91918C15.4252 1.90304 15.4316 1.89653 15.4333 1.8951C15.4341 1.89446 15.4306 1.89763 15.4233 1.90044C15.4151 1.90354 15.4001 1.90685 15.3822 1.90135C15.3643 1.89587 15.3537 1.88469 15.3488 1.87761C15.3443 1.87118 15.3432 1.86667 15.3435 1.86765C15.3441 1.86983 15.3458 1.87887 15.3461 1.89855L15.5061 1.89629C15.5057 1.8716 15.5037 1.84636 15.4975 1.82436C15.4928 1.80767 15.4776 1.76327 15.4292 1.74841C15.3807 1.73352 15.3431 1.76179 15.3299 1.773C15.3124 1.78778 15.2967 1.80758 15.2826 1.82785L15.4139 1.91918ZM15.3461 1.89858L15.3756 3.93858L15.5356 3.93626L15.5061 1.89626L15.3461 1.89858ZM15.3756 3.93888C15.3758 3.95006 15.3775 3.99767 15.4219 4.02305C15.4662 4.04839 15.5081 4.02575 15.5178 4.02027L15.4394 3.88082C15.4399 3.8805 15.4454 3.87738 15.4546 3.87573C15.4645 3.87395 15.4825 3.87339 15.5013 3.88413C15.5201 3.89488 15.5287 3.91068 15.5323 3.92018C15.5355 3.92898 15.5356 3.93529 15.5356 3.93597L15.3756 3.93888ZM15.5181 4.02009C16.0626 3.71054 16.5085 3.23649 16.9326 2.83136L16.8221 2.71567C16.3884 3.12992 15.9614 3.58399 15.439 3.881L15.5181 4.02009ZM16.9326 2.83134C16.9367 2.82744 16.936 2.82908 16.9308 2.83155C16.9254 2.83409 16.9075 2.84096 16.8847 2.83299C16.8617 2.82496 16.8518 2.80818 16.8491 2.80243C16.8465 2.79697 16.8469 2.79499 16.8476 2.80047L17.0064 2.78125C17.0047 2.76735 17.0014 2.75012 16.9935 2.73353C16.9854 2.71664 16.9687 2.69286 16.9374 2.68193C16.9063 2.67107 16.8786 2.67917 16.8621 2.68706C16.8456 2.69489 16.8322 2.706 16.822 2.71569L16.9326 2.83134ZM16.8477 2.80104C16.9383 3.50746 17.0521 4.15346 16.9842 4.87967L17.1435 4.89455C17.2135 4.14607 17.0958 3.47769 17.0064 2.78068L16.8477 2.80104ZM16.9843 4.87945C16.9823 4.90009 16.985 4.92349 16.9969 4.94592C17.0088 4.96834 17.0267 4.98362 17.0449 4.99349L17.1213 4.85291C17.1251 4.85497 17.1326 4.86033 17.1381 4.87072C17.1437 4.88112 17.1439 4.89038 17.1435 4.89477L16.9843 4.87945ZM17.0446 4.99332C17.9892 5.5122 18.9366 6.02639 19.8869 6.53589L19.9625 6.39489C19.0127 5.88564 18.0658 5.3717 17.1216 4.85308L17.0446 4.99332ZM19.8869 6.5359C20.4302 6.82711 20.7265 7.28179 20.9487 7.86407L21.0982 7.80702C20.8685 7.20524 20.5526 6.71117 19.9625 6.39488L19.8869 6.5359ZM20.9487 7.86416C20.9619 7.89855 20.9866 7.92452 21.0187 7.94022L21.089 7.7965C21.0897 7.79681 21.0917 7.79794 21.0939 7.80033C21.0961 7.80276 21.0975 7.80524 21.0981 7.80693L20.9487 7.86416ZM21.0192 7.94045C21.7045 8.27007 22.3185 8.65886 22.8616 9.10665L22.9634 8.9832C22.4096 8.52661 21.7845 8.13103 21.0886 7.79626L21.0192 7.94045ZM22.8616 9.10665C23.1733 9.36358 23.3958 9.62165 23.4761 9.89439C23.5543 10.1599 23.5019 10.4553 23.2254 10.8021L23.3505 10.9018C23.651 10.5249 23.7259 10.1765 23.6296 9.8492C23.5354 9.52921 23.2817 9.24563 22.9634 8.98319L22.8616 9.10665ZM23.2257 10.8017C23.2027 10.8302 23.1917 10.8666 23.1952 10.9032L23.3545 10.8879C23.355 10.8932 23.3533 10.8983 23.3502 10.9022L23.2257 10.8017ZM23.1951 10.9021C23.2396 11.4479 23.0607 11.8919 22.6566 12.2423L22.7615 12.3632C23.2049 11.9786 23.4031 11.4844 23.3546 10.889L23.1951 10.9021ZM22.6571 12.2419C22.6269 12.2677 22.6104 12.303 22.6089 12.342L22.7688 12.3478C22.7688 12.349 22.7684 12.3521 22.7666 12.356C22.7647 12.3598 22.7624 12.3624 22.761 12.3636L22.6571 12.2419ZM22.6089 12.3423C22.5845 13.0952 22.3714 13.7801 21.9713 14.2966C21.5724 14.8117 20.9842 15.1641 20.1978 15.249L20.215 15.4081C21.0434 15.3186 21.6716 14.9449 22.0978 14.3946C22.5229 13.8457 22.7436 13.1261 22.7688 12.3475L22.6089 12.3423ZM20.1979 15.249C19.7658 15.2952 19.4387 15.2562 18.927 15.1906L18.9067 15.3493C19.4178 15.4149 19.762 15.4565 20.2149 15.4081L20.1979 15.249ZM18.9263 15.1905C18.9109 15.1887 18.8686 15.1863 18.8378 15.2213C18.8067 15.2566 18.8149 15.2985 18.8189 15.3137L18.9736 15.273C18.9738 15.2739 18.9754 15.2797 18.9746 15.2887C18.9738 15.2984 18.97 15.3133 18.9579 15.327C18.9459 15.3406 18.9318 15.3462 18.9225 15.3483C18.914 15.3501 18.9082 15.3495 18.9074 15.3494L18.9263 15.1905ZM18.8188 15.3134C19.0027 16.0254 19.2599 16.7098 19.5902 17.3665L19.7332 17.2946C19.4079 16.6481 19.1548 15.9744 18.9737 15.2734L18.8188 15.3134ZM19.6615 17.2771C19.1894 17.1647 18.7692 16.9517 18.4001 16.6377L18.2964 16.7596C18.6848 17.09 19.1278 17.3145 19.6244 17.4327L19.6615 17.2771ZM18.3998 16.6375C18.3931 16.6318 18.3826 16.6237 18.3694 16.6179C18.3588 16.6132 18.3248 16.6005 18.289 16.6216C18.2538 16.6424 18.2482 16.6778 18.2471 16.6889C18.2456 16.703 18.2473 16.7161 18.2488 16.7247L18.4064 16.697C18.4059 16.6941 18.407 16.6979 18.4062 16.7053C18.4058 16.7095 18.4023 16.7405 18.3704 16.7593C18.3381 16.7784 18.3089 16.7661 18.3045 16.7641C18.2975 16.761 18.2945 16.758 18.2967 16.7599L18.3998 16.6375ZM18.2489 16.7253C18.3977 17.5363 18.8946 18.1357 19.3246 18.7677L19.4569 18.6777C19.015 18.0282 18.5473 17.4651 18.4063 16.6964L18.2489 16.7253ZM19.4074 18.6642C18.6013 18.3468 17.843 18.09 17.154 17.5745L17.0581 17.7026C17.7688 18.2343 18.5528 18.4996 19.3488 18.8131L19.4074 18.6642ZM17.1538 17.5743C17.1376 17.5622 17.1158 17.5522 17.0897 17.5515C17.0635 17.5508 17.0412 17.5598 17.0243 17.5713L17.1138 17.7039C17.1094 17.7069 17.0995 17.7118 17.0856 17.7115C17.0719 17.7111 17.0624 17.7057 17.0583 17.7027L17.1538 17.5743ZM11.9422 22.1523C11.9431 22.1512 11.9571 22.1338 11.9854 22.1331C12.0138 22.1323 12.0288 22.149 12.0299 22.1502L11.91 22.2562C11.923 22.2708 11.9497 22.2941 11.9897 22.293C12.0296 22.2919 12.055 22.2674 12.0671 22.2522L11.9422 22.1523ZM6.68108 17.4808C6.06375 17.9071 5.3382 18.1682 4.6047 18.4415L4.66057 18.5914C5.38863 18.3201 6.13495 18.0524 6.772 17.6125L6.68108 17.4808ZM4.68561 18.5435C5.17155 17.8144 5.67845 17.2146 5.79624 16.2675L5.63746 16.2477C5.52557 17.1475 5.04997 17.7083 4.55247 18.4548L4.68561 18.5435ZM5.64395 16.2076C5.20841 16.8129 4.62976 17.2065 3.90515 17.3903L3.94449 17.5454C4.7055 17.3524 5.31624 16.937 5.77382 16.301L5.64395 16.2076ZM3.9702 17.4765C4.35357 16.8124 4.63088 16.1058 4.80203 15.3571L4.64605 15.3215C4.47845 16.0546 4.20701 16.7462 3.83163 17.3965L3.9702 17.4765ZM4.68614 15.2285C3.68444 15.3518 2.86059 15.129 2.28071 14.6319C1.70088 14.1349 1.35399 13.3542 1.32494 12.3398L1.16501 12.3444C1.19503 13.393 1.55502 14.2206 2.17658 14.7534C2.79811 15.2862 3.6702 15.5148 4.70569 15.3873L4.68614 15.2285ZM1.32492 12.339C1.32345 12.3009 1.30724 12.2667 1.27833 12.2415L1.17319 12.3621C1.17175 12.3608 1.16939 12.3583 1.16749 12.3543C1.1656 12.3503 1.1651 12.3469 1.16504 12.3452L1.32492 12.339ZM1.27822 12.2414C0.877074 11.893 0.698381 11.4532 0.740207 10.9139L0.580686 10.9015C0.535012 11.4904 0.733194 11.98 1.1733 12.3622L1.27822 12.2414ZM0.740192 10.9141C0.742881 10.8805 0.734464 10.8479 0.714735 10.8197L0.583658 10.9114C0.582927 10.9104 0.581925 10.9085 0.581273 10.9061C0.580628 10.9037 0.580657 10.9019 0.580701 10.9014L0.740192 10.9141ZM0.715095 10.8202C0.514641 10.529 0.453831 10.2332 0.503462 9.95714C0.553305 9.67988 0.716074 9.41439 0.977116 9.1889L0.872526 9.06782C0.589819 9.31202 0.403603 9.60833 0.345986 9.92883C0.288155 10.2505 0.361408 10.5885 0.583298 10.9109L0.715095 10.8202ZM0.97712 9.1889C1.5663 8.67991 2.22297 8.2816 2.9203 7.92897L2.84809 7.78619C2.14386 8.14231 1.47491 8.54743 0.872523 9.06782L0.97712 9.1889ZM2.91995 7.92915C2.95182 7.91322 2.97661 7.88582 2.98914 7.8523L2.83926 7.79629C2.84098 7.79169 2.84433 7.78807 2.84845 7.78601L2.91995 7.92915ZM2.98892 7.85287C3.22743 7.22925 3.5154 6.82102 4.09964 6.50629L4.02376 6.36543C3.39675 6.7032 3.08752 7.14716 2.83947 7.79572L2.98892 7.85287ZM4.09962 6.5063C5.03076 6.00494 5.95955 5.49984 6.88599 4.99098L6.80896 4.85074C5.88291 5.35938 4.95451 5.86428 4.02377 6.36542L4.09962 6.5063ZM6.88568 4.99115C6.9041 4.98114 6.92202 4.96564 6.93388 4.94308C6.94568 4.92062 6.94828 4.89727 6.94634 4.87678L6.78705 4.89181C6.78668 4.88789 6.78685 4.87891 6.79225 4.86864C6.7977 4.85826 6.80523 4.85277 6.80928 4.85057L6.88568 4.99115ZM6.94636 4.87699C6.8775 4.12601 7.00208 3.49481 7.08259 2.78582L6.92361 2.76777C6.84475 3.46222 6.7162 4.11915 6.78703 4.8916L6.94636 4.87699ZM7.08256 2.78609C7.08293 2.78298 7.08295 2.78665 7.07984 2.7933C7.07662 2.80017 7.06641 2.81743 7.04315 2.82616C7.01975 2.83493 7.00054 2.82857 6.99333 2.82533C6.98645 2.82224 6.98396 2.81931 6.9862 2.82139L7.09501 2.70408C7.08647 2.69616 7.07433 2.68632 7.05893 2.6794C7.04321 2.67233 7.01661 2.66523 6.98697 2.67634C6.95745 2.68741 6.94212 2.7101 6.93492 2.72549C6.92782 2.74066 6.925 2.75593 6.92364 2.7675L7.08256 2.78609ZM6.98631 2.82149C7.42954 3.23098 7.87124 3.70557 8.41923 4.01994L8.49885 3.88115C7.97153 3.57865 7.55073 3.12511 7.09489 2.70397L6.98631 2.82149ZM8.41902 4.01982C8.42816 4.0251 8.47057 4.04883 8.51547 4.02247C8.53798 4.00926 8.54913 3.98956 8.55433 3.97516C8.55933 3.9613 8.56042 3.94837 8.56059 3.9394L8.40062 3.93638C8.40063 3.93569 8.40071 3.9295 8.40383 3.92084C8.40715 3.91163 8.41557 3.89558 8.43448 3.88448C8.45365 3.87323 8.47224 3.87371 8.48276 3.87564C8.49243 3.87742 8.49824 3.8808 8.49906 3.88128L8.41902 4.01982ZM8.5606 3.93887L8.58638 1.83324L8.42639 1.83129L8.40061 3.93691L8.5606 3.93887ZM8.58638 1.83282C8.58644 1.82407 8.58723 1.8235 8.58618 1.82732C8.58563 1.82934 8.58359 1.83627 8.57786 1.84452C8.57168 1.85344 8.55966 1.86584 8.54012 1.87189C8.52061 1.87793 8.50374 1.87449 8.4937 1.8707C8.48438 1.86717 8.47883 1.86267 8.47725 1.86135C8.47428 1.85885 8.47528 1.85893 8.48033 1.8661L8.61119 1.77405C8.60327 1.76279 8.59291 1.74955 8.58016 1.73884C8.57171 1.73174 8.53802 1.70505 8.49281 1.71905C8.44742 1.73309 8.4348 1.77434 8.43186 1.78506C8.42746 1.80115 8.42648 1.81796 8.42639 1.83171L8.58638 1.83282ZM8.48021 1.86595L9.4899 3.30876L9.62099 3.21702L8.6113 1.77421L8.48021 1.86595ZM12.0294 22.1496C10.4516 20.3998 8.7751 18.7967 6.80237 17.4796L6.71352 17.6127C8.67124 18.9198 10.3378 20.5125 11.9106 22.2568L12.0294 22.1496ZM17.0244 17.5712C15.0927 18.8719 13.4061 20.3162 11.9421 22.1524L12.0672 22.2521C13.5188 20.4315 15.1922 18.9978 17.1137 17.7039L17.0244 17.5712ZM9.65229 2.56303C9.65132 2.59624 9.62908 2.61574 9.61243 2.62303C9.59506 2.63064 9.56149 2.63411 9.53565 2.60714L9.65118 2.49645C9.61827 2.4621 9.57429 2.46506 9.54822 2.47648C9.52287 2.48759 9.49361 2.51523 9.49236 2.55837L9.65229 2.56303ZM9.48927 3.30785C9.51926 3.35198 9.56841 3.35005 9.59273 3.34194C9.61706 3.33383 9.65754 3.30589 9.65505 3.25259L9.49522 3.26007C9.49317 3.21615 9.52644 3.19538 9.54214 3.19015C9.55783 3.18492 9.59692 3.18157 9.62162 3.21794L9.48927 3.30785ZM4.80199 15.3573C4.81088 15.3188 4.79612 15.2847 4.77712 15.2635C4.75813 15.2423 4.72585 15.2238 4.68659 15.2284L4.70524 15.3873C4.6824 15.39 4.66604 15.3792 4.65794 15.3702C4.64983 15.3612 4.64092 15.3437 4.64609 15.3213L4.80199 15.3573ZM5.74731 16.1836L5.73934 16.1803L5.67843 16.3283L5.6864 16.3316L5.74731 16.1836ZM3.90612 17.3901C3.9377 17.3825 3.95934 17.4001 3.96738 17.4107C3.97542 17.4212 3.98664 17.4468 3.97091 17.4752L3.83092 17.3977C3.80709 17.4408 3.82212 17.484 3.84007 17.5076C3.85802 17.5312 3.89567 17.5572 3.94352 17.5457L3.90612 17.3901ZM4.60768 18.4405C4.64536 18.4281 4.67314 18.4495 4.68346 18.4627C4.69378 18.4758 4.7079 18.5079 4.68689 18.5415L4.5512 18.4567C4.52507 18.4986 4.54142 18.5408 4.55753 18.5614C4.57363 18.5819 4.61075 18.6079 4.65759 18.5925L4.60768 18.4405ZM6.80242 17.4797C6.7657 17.4551 6.71609 17.4552 6.67938 17.482L6.7737 17.6113C6.75499 17.6249 6.73136 17.6246 6.71348 17.6127L6.80242 17.4797ZM19.3231 18.7654C19.3014 18.7311 19.3161 18.6982 19.3267 18.6849C19.3373 18.6715 19.366 18.6498 19.4044 18.6631L19.3518 18.8142C19.3987 18.8305 19.436 18.8045 19.452 18.7844C19.468 18.7642 19.4849 18.722 19.4584 18.68L19.3231 18.7654ZM19.5911 17.3682C19.5752 17.3384 19.5867 17.3113 19.5959 17.2994C19.6051 17.2874 19.6283 17.2693 19.6613 17.277L19.6246 17.4328C19.6702 17.4435 19.7058 17.4189 19.7228 17.3969C19.7397 17.3749 19.7543 17.3342 19.7323 17.2929L19.5911 17.3682Z" fill="white" mask="url(#path-3-outside-1_877_5220)"/>
<path d="M6.11175 15.053C6.11702 15.0425 6.13634 15.0469 6.13659 15.0586C6.17784 15.967 6.0494 16.9617 5.55768 17.7497C5.55142 17.7605 5.56419 17.7759 5.5755 17.7713C5.98237 17.6041 6.35956 17.3855 6.70706 17.1155C6.71801 17.107 6.7342 17.1064 6.74597 17.1141C8.69534 18.3844 10.4328 19.8981 11.9585 21.6553C11.9713 21.6703 11.9839 21.67 11.9964 21.6544C13.4265 19.8265 15.1887 18.4639 17.1007 17.1849C17.1128 17.1764 17.1246 17.1772 17.1358 17.1872C17.5202 17.5325 17.9538 17.7986 18.4366 17.9855L18.4474 17.9724C18.0128 17.2744 17.8652 16.4681 17.8582 15.6347C17.8577 15.6214 17.8786 15.6144 17.8863 15.6253C18.2435 16.1231 18.6658 16.5572 19.1533 16.9275C19.2133 16.9728 19.2225 16.9642 19.181 16.9017C18.7719 16.282 18.5361 15.6011 18.4736 14.8589C18.4714 14.8313 18.5012 14.8067 18.5275 14.8144C19.0375 14.9606 19.5614 15.015 20.0992 14.9775C21.6344 14.8702 22.3657 13.5727 22.3305 12.1669C22.3302 12.1491 22.3372 12.1352 22.3516 12.1252C22.8069 11.808 22.9932 11.368 22.9103 10.8052C22.9083 10.7916 22.9114 10.7777 22.9192 10.7663C23.17 10.3983 23.4283 10.1152 23.0664 9.70079C22.4782 9.02766 21.5833 8.50735 20.7789 8.12391C20.7538 8.1118 20.7343 8.08915 20.726 8.06251C20.5244 7.42454 20.2202 7.0247 19.6385 6.71298C18.6588 6.18829 17.6802 5.65751 16.7027 5.12063C16.6849 5.11095 16.6775 5.0961 16.6807 5.0761C16.7607 4.55048 16.7524 4.02641 16.6558 3.50391C16.6521 3.48516 16.6433 3.48235 16.6296 3.49548C16.1639 3.94798 15.6388 4.31688 15.0541 4.6022C15.0388 4.6097 15.0321 4.60501 15.0339 4.58813C15.0986 4.03345 15.1133 3.47688 15.078 2.91845C15.077 2.90812 15.061 2.90386 15.055 2.91235C14.7457 3.3661 14.4255 3.85548 14.005 4.20891C13.9866 4.22423 13.9777 4.21985 13.9783 4.19579L13.9952 3.41063C13.9958 3.38345 13.9858 3.3786 13.9652 3.3961C13.8177 3.52141 13.6738 3.65063 13.5335 3.78376C13.2288 4.07204 12.235 4.84266 11.8019 4.67579C11.0603 4.38985 10.5466 3.92391 9.96815 3.39001C9.95409 3.3772 9.94706 3.38032 9.94706 3.39938L9.95128 4.20845C9.95124 4.2112 9.95039 4.21388 9.94885 4.21615C9.9473 4.21843 9.94512 4.2202 9.94257 4.22125C9.94003 4.2223 9.93723 4.22258 9.93453 4.22205C9.93183 4.22152 9.92934 4.22022 9.92737 4.21829C9.51768 3.82313 9.19612 3.38579 8.87878 2.91048C8.86253 2.8861 8.85347 2.88845 8.85159 2.91751C8.81284 3.4797 8.82753 4.03985 8.89565 4.59798C8.8969 4.60923 8.89253 4.61235 8.88253 4.60735C8.29815 4.31954 7.77268 3.94938 7.30612 3.49688C7.2975 3.48879 7.28089 3.49395 7.27893 3.50532C7.17831 4.02782 7.16909 4.55157 7.25128 5.07657C7.25378 5.09313 7.24768 5.10548 7.233 5.1136C6.23362 5.66266 5.23159 6.20688 4.2269 6.74626C3.67237 7.04391 3.39065 7.48735 3.20362 8.07657C3.19917 8.09045 3.18879 8.10222 3.1755 8.10844C2.47659 8.44641 1.76315 8.85798 1.17909 9.37266C0.732372 9.76641 0.585654 10.2483 1.01315 10.755C1.02221 10.7656 1.02625 10.7799 1.02393 10.7934C0.936122 11.355 1.11753 11.7964 1.56815 12.1177C1.58159 12.127 1.58831 12.1399 1.58831 12.1561C1.61315 14.3175 3.00628 15.3586 5.10815 14.8824C5.13565 14.8764 5.148 14.8874 5.14518 14.9152C5.07518 15.6524 4.833 16.3259 4.41862 16.9359C4.41001 16.9485 4.4296 16.9669 4.44159 16.9575C5.12753 16.4366 5.68425 15.8017 6.11175 15.053Z" fill="#13192B" stroke="#232B41" stroke-width="0.09375"/>
<path d="M16.0003 4.78086C15.8887 4.92336 15.7218 5.22429 15.5822 5.31054C15.565 5.32117 15.5592 5.31664 15.5648 5.29695L15.6342 5.06445C15.6433 5.03445 15.6367 5.03039 15.6145 5.05226C15.1758 5.48914 14.5368 5.79195 13.9429 5.9982C13.9195 6.00633 13.9112 5.99851 13.9181 5.97476L14.189 5.03867C14.1896 5.0362 14.1893 5.03364 14.1882 5.03135C14.1872 5.02906 14.1854 5.02717 14.1832 5.02596C14.181 5.02475 14.1785 5.02428 14.176 5.02463C14.1735 5.02498 14.1711 5.02612 14.1693 5.02789C14.034 5.18164 13.8789 5.31586 13.7039 5.43054C13.6308 5.47883 13.5206 5.52289 13.432 5.5782C13.4291 5.5796 13.4269 5.58204 13.4258 5.58502C13.4246 5.588 13.4246 5.59131 13.4258 5.59427C13.427 5.59724 13.4293 5.59964 13.4321 5.60101C13.435 5.60238 13.4383 5.6026 13.4414 5.60164C13.5842 5.57258 13.7211 5.52601 13.852 5.46195C13.8564 5.45976 13.8589 5.45945 13.8595 5.46101C13.8608 5.46539 13.8622 5.46961 13.8637 5.47367C13.8653 5.47836 13.8639 5.48195 13.8595 5.48445C13.5561 5.65851 13.2298 5.76383 12.8808 5.80039C12.8614 5.80258 12.8573 5.7957 12.8686 5.77976C13.0289 5.55664 13.1273 5.3082 13.1639 5.03445C13.1644 5.03117 13.1638 5.02781 13.1624 5.02483C13.1609 5.02185 13.1586 5.01939 13.1557 5.01776C13.1528 5.01614 13.1495 5.01543 13.1462 5.01573C13.1429 5.01603 13.1397 5.01733 13.1372 5.01945C12.8892 5.21492 12.2058 5.63961 11.8861 5.55898C11.4976 5.46086 11.1387 5.29508 10.8093 5.06164C10.7922 5.04976 10.7834 5.05429 10.7831 5.07523C10.7798 5.27258 10.9261 5.57445 10.9936 5.76992C10.9949 5.77373 10.9952 5.77779 10.9946 5.78176C10.994 5.78573 10.9924 5.78949 10.99 5.79272C10.9876 5.79594 10.9844 5.79854 10.9808 5.80029C10.9772 5.80203 10.9732 5.80287 10.9692 5.80273C10.6751 5.79554 10.4011 5.72023 10.147 5.57679C10.1435 5.57491 10.1409 5.57185 10.1395 5.56815C10.1381 5.56446 10.1381 5.56039 10.1394 5.55668C10.1408 5.55298 10.1434 5.5499 10.1469 5.54799C10.1504 5.54609 10.1544 5.5455 10.1583 5.54633L10.5708 5.63633C10.5738 5.63677 10.5769 5.63615 10.5795 5.63456C10.5821 5.63297 10.5841 5.63052 10.5851 5.62763C10.5861 5.62474 10.586 5.6216 10.585 5.61873C10.5839 5.61587 10.5818 5.61347 10.5792 5.61195C10.2701 5.4532 9.99654 5.24742 9.75841 4.99461C9.7431 4.97836 9.7381 4.98101 9.74341 5.00258L9.93607 5.77695C9.93919 5.7907 9.94669 5.80133 9.95857 5.80883C10.1704 5.94242 10.4423 6.15429 10.5023 6.39758C10.5448 6.56883 10.6183 6.72539 10.7226 6.86726C10.7247 6.87008 10.7258 6.87355 10.7256 6.87705C10.7254 6.88056 10.7239 6.88389 10.7215 6.88646C10.7192 6.88902 10.7159 6.89067 10.7124 6.8911C10.709 6.89153 10.7054 6.89073 10.7025 6.88883C10.3195 6.63992 10.3026 6.13789 9.8531 5.94429C9.39185 5.74601 8.96529 5.48351 8.55279 5.19758C8.52154 5.17601 8.51419 5.18211 8.53075 5.21586L8.6456 5.45117C8.64794 5.45572 8.64859 5.46095 8.64742 5.46594C8.64626 5.47092 8.64336 5.47533 8.63925 5.47837C8.63514 5.48142 8.63007 5.4829 8.62497 5.48255C8.61986 5.4822 8.61505 5.48005 8.61138 5.47648C8.34794 5.23398 8.10904 4.96242 7.89466 4.66179L7.86279 4.59898C7.84904 4.57211 7.85419 4.56789 7.87825 4.58633C8.44169 5.01914 9.04685 5.38383 9.69372 5.68039C9.72497 5.69476 9.73622 5.68523 9.72747 5.65179L9.43638 4.52304C9.43584 4.52046 9.43613 4.51777 9.43719 4.51535C9.43826 4.51294 9.44006 4.51092 9.44233 4.50957C9.44461 4.50823 9.44724 4.50763 9.44987 4.50786C9.4525 4.50809 9.455 4.50914 9.457 4.51086C9.85122 4.87883 10.2829 5.22101 10.7339 5.51726C10.7639 5.53695 10.7703 5.53101 10.7531 5.49945C10.6068 5.23508 10.5362 4.95164 10.5412 4.64914C10.5412 4.63633 10.5465 4.63367 10.5572 4.64117C10.974 4.93367 11.4256 5.15992 11.9118 5.31992C11.9137 5.32054 11.9212 5.32414 11.9343 5.3307C11.9559 5.34164 11.9868 5.33961 12.0272 5.32461C12.465 5.16336 13.0059 4.95054 13.3593 4.64023C13.3622 4.63777 13.3656 4.63618 13.3693 4.63566C13.373 4.63514 13.3768 4.63571 13.3802 4.6373C13.3836 4.63889 13.3864 4.64144 13.3884 4.64462C13.3903 4.64781 13.3913 4.65149 13.3912 4.65523C13.3884 4.95617 13.3179 5.23961 13.1798 5.50554C13.1648 5.53429 13.1709 5.53961 13.1981 5.52148C13.6481 5.22117 14.0718 4.88742 14.4693 4.52023C14.4717 4.51801 14.4747 4.51661 14.4779 4.51625C14.4812 4.51588 14.4844 4.51657 14.4872 4.5182C14.49 4.51984 14.4922 4.52234 14.4935 4.52532C14.4947 4.52831 14.495 4.53162 14.4942 4.53476L14.205 5.64851C14.1943 5.68883 14.2072 5.69883 14.2434 5.67851C14.8622 5.33289 15.4667 4.96383 16.057 4.57133C16.0595 4.56976 16.0624 4.56902 16.0654 4.56921C16.0683 4.56939 16.0711 4.5705 16.0734 4.57236C16.0757 4.57422 16.0773 4.57675 16.0781 4.5796C16.0788 4.58244 16.0787 4.58545 16.0776 4.5882L16.0003 4.78086Z" fill="#858BA4"/>
<path fill-rule="evenodd" clip-rule="evenodd" d="M7.89469 4.66174C8.10907 4.96237 8.34798 5.23393 8.61141 5.47643C8.62608 5.49072 8.655 5.46932 8.64563 5.45112L8.53079 5.21581C8.51423 5.18206 8.52157 5.17596 8.55282 5.19752C8.96532 5.48346 9.39188 5.74596 9.85313 5.94424C10.3027 6.13784 10.3195 6.63987 10.7025 6.88877C10.7143 6.89638 10.731 6.87849 10.7227 6.86721C10.6183 6.72534 10.5449 6.56877 10.5024 6.39752C10.4424 6.15424 10.1705 5.94237 9.9586 5.80877C9.94673 5.80127 9.93923 5.79065 9.9361 5.7769L9.74344 5.00252C9.73813 4.98096 9.74313 4.97831 9.75844 4.99456C9.99657 5.24737 10.2702 5.45315 10.5792 5.6119C10.5898 5.61798 10.5829 5.63806 10.5708 5.63627L10.1583 5.54627C10.1429 5.54297 10.1332 5.56922 10.147 5.57674C10.4011 5.72018 10.6752 5.79549 10.9692 5.80268C10.9853 5.80323 10.9988 5.78509 10.9936 5.76987C10.9261 5.5744 10.7799 5.27252 10.7831 5.07518C10.7834 5.05424 10.7922 5.04971 10.8094 5.06159C11.1388 5.29502 11.4977 5.46081 11.8861 5.55893C12.2058 5.63956 12.8892 5.21487 13.1372 5.0194C13.1397 5.01728 13.1429 5.01598 13.1462 5.01568C13.1495 5.01538 13.1528 5.01609 13.1557 5.01771C13.1586 5.01934 13.1609 5.0218 13.1624 5.02478C13.1639 5.02776 13.1644 5.03111 13.1639 5.0344C13.1273 5.30815 13.0289 5.55659 12.8686 5.77971C12.8574 5.79565 12.8614 5.80252 12.8808 5.80034C13.2299 5.76377 13.5561 5.65846 13.8595 5.4844C13.868 5.47956 13.8636 5.4561 13.852 5.4619C13.7211 5.52596 13.5842 5.57252 13.4414 5.60159C13.4292 5.60544 13.4206 5.58376 13.432 5.57815C13.5206 5.52284 13.6308 5.47877 13.7039 5.43049C13.8789 5.31581 14.0341 5.18159 14.1694 5.02784C14.1712 5.02607 14.1735 5.02493 14.176 5.02458C14.1785 5.02423 14.181 5.0247 14.1832 5.02591C14.1854 5.02712 14.1872 5.02901 14.1883 5.0313C14.1893 5.03359 14.1896 5.03615 14.1891 5.03862L13.9181 5.97471C13.9113 5.99846 13.9195 6.00627 13.943 5.99815C14.5369 5.7919 15.1758 5.48909 15.6145 5.05221C15.6367 5.03034 15.6433 5.0344 15.6342 5.0644L15.5648 5.2969C15.5592 5.31659 15.565 5.32112 15.5822 5.31049C15.7219 5.22424 15.8888 4.92331 16.0003 4.78081C15.8416 5.22924 15.5853 5.60784 15.2316 5.91659C15.2122 5.93346 15.2047 5.9294 15.2091 5.9044L15.2705 5.54159C15.2743 5.52371 15.2434 5.51301 15.2353 5.5294C15.2021 5.5911 15.1456 5.59801 15.0924 5.64612C14.4505 6.22487 13.6824 6.51159 12.788 6.50627C12.7702 6.50596 12.7688 6.51065 12.7838 6.52034C13.0481 6.68627 13.3734 6.78893 13.6847 6.71534C13.6873 6.71457 13.6901 6.71483 13.6926 6.71605C13.695 6.71727 13.6969 6.71937 13.6978 6.72193C13.6988 6.72448 13.6987 6.7273 13.6977 6.72982C13.6966 6.73233 13.6947 6.73436 13.6922 6.73549C13.0913 7.04487 12.4594 7.10159 11.8374 6.83018C11.3522 6.61877 11.0124 6.94737 11.0049 7.42549C11.0046 7.44514 10.982 7.45967 10.9641 7.45174C10.7253 7.34612 10.4733 7.27612 10.208 7.24174L10.043 7.40815C9.66579 7.36846 9.30344 7.42362 8.95594 7.57362C8.94001 7.58049 8.93313 7.59252 8.93532 7.60971C8.98001 7.95315 9.10188 8.26909 9.30094 8.55752L9.04688 8.95081L9.04555 8.95303L9.04517 8.95559L9.04581 8.9581L9.04735 8.96018L9.04957 8.96151L9.05214 8.96189L9.05465 8.96126L9.05673 8.95971C9.18235 8.85565 9.3961 8.57956 9.56766 8.72252C9.5786 8.73159 9.58094 8.74252 9.57469 8.75534L9.22126 9.49221L9.22096 9.49794L9.22421 9.50261L9.22951 9.50405L9.23438 9.50159L9.83485 8.88424C9.8461 8.87237 9.86001 8.86706 9.87657 8.86831L10.8984 8.95127C10.9143 8.95259 10.9262 8.97106 10.9209 8.98643C10.8572 9.17393 10.8375 9.36581 10.8619 9.56206C10.8638 9.57768 10.8713 9.58112 10.8844 9.57237C10.9 9.56206 10.9092 9.54706 10.912 9.52737C10.9324 9.522 10.9515 9.51699 10.9645 9.49877C11.1361 9.2569 11.3649 9.11096 11.6508 9.06096C11.8439 9.02721 11.9981 9.07456 12.0127 9.29299C12.0436 9.76362 11.7094 10.051 11.2678 10.1836L10.9495 10.0449C10.9311 10.0371 10.9239 10.043 10.928 10.0627C10.9942 10.3899 11.0492 10.6263 11.093 10.7719C11.1774 11.0513 11.4427 11.0696 11.5969 11.266C11.7038 11.4019 11.6906 11.685 11.4797 11.7263C10.7864 11.8631 9.50157 12.0141 9.92579 10.7639C9.97829 10.6099 10.0361 10.458 10.0992 10.3083C10.1074 10.2892 10.1031 10.286 10.0866 10.2985L9.84798 10.4808C9.83623 10.4909 9.81607 10.4712 9.82594 10.4592L10.1939 9.97034C10.2105 9.94815 10.2063 9.94284 10.1813 9.9544C9.67126 10.1897 9.1036 10.763 9.19688 11.3789C9.27438 11.8877 9.24719 12.3899 9.11532 12.8855C9.10626 12.7811 9.10548 12.678 9.11298 12.5761C9.17063 11.7928 8.72016 11.0981 9.17016 10.3791L9.16079 10.3702C9.03454 10.453 8.93751 10.5616 8.86969 10.696C8.86347 10.7083 8.84169 10.6999 8.84532 10.6866C8.93126 10.3694 9.08548 10.0894 9.30798 9.84659C9.3157 9.83824 9.30948 9.82286 9.29813 9.82221C9.28157 9.82096 9.26876 9.82815 9.25969 9.84377C9.25313 9.81846 9.23313 9.81112 9.19969 9.82174C8.77548 9.96002 8.32032 10.2244 8.36673 10.748C8.38016 10.9005 8.39454 11.0533 8.40985 11.2064C8.4711 11.8167 8.29157 12.3372 7.87126 12.7678C7.83532 12.805 7.7936 12.8297 7.7461 12.8419C7.80516 12.7261 7.90173 12.6206 7.95376 12.5236C8.14094 12.1739 8.18891 11.8003 8.09766 11.4028C8.0186 11.0585 7.95501 10.8367 7.90688 10.7377C7.69782 10.3097 7.90501 9.92346 8.23594 9.63284C8.26157 9.61034 8.25798 9.60315 8.22516 9.61127C7.98376 9.67034 7.78454 9.84143 7.66782 10.0674C7.65665 10.0877 7.64596 10.0532 7.64954 10.0406C7.77329 9.62877 8.03016 9.33049 8.42016 9.14581C8.43985 9.13643 8.43954 9.12737 8.41923 9.11862C8.01798 8.94659 7.61954 9.00518 7.20798 9.10221C7.18016 9.10877 7.17657 9.10221 7.19719 9.08252C7.6786 8.6269 8.22469 8.29268 8.80548 7.98002C8.8261 7.96877 8.82501 7.96034 8.80219 7.95471C8.43001 7.86284 7.95188 7.90831 7.57079 7.94534C7.54516 7.94784 7.54282 7.94174 7.56376 7.92706L8.13938 7.51924C8.15188 7.51049 8.15798 7.49846 8.15766 7.48315C8.15157 7.11799 8.25469 6.70362 8.52657 6.45799C8.53844 6.44737 8.55219 6.44252 8.56782 6.44346C8.84844 6.45721 9.11063 6.41206 9.35438 6.30799C9.37253 6.30052 9.37626 6.25048 9.3586 6.23956C9.13423 6.10143 8.95501 5.92612 8.82094 5.71362C8.80751 5.69237 8.80079 5.69424 8.80079 5.71924V5.93206C8.80079 5.97518 8.78438 5.98284 8.75157 5.95502C8.33407 5.60221 8.04844 5.17112 7.89469 4.66174ZM10.4939 11.1403C10.7242 11.1885 10.9544 11.2578 11.1844 11.3485C11.1967 11.3533 11.2048 11.367 11.2031 11.3803L11.197 11.4286C11.1949 11.4442 11.1867 11.4558 11.1727 11.4633C10.958 11.5786 10.425 11.7225 10.2309 11.5181C10.0875 11.3672 10.2633 11.0925 10.4939 11.1403Z" fill="#333C56"/>
<path fill-rule="evenodd" clip-rule="evenodd" d="M15.209 5.57812C15.0547 5.85875 14.8384 6.08281 14.5603 6.25031C14.5483 6.25783 14.5524 6.27885 14.5664 6.28125C14.8776 6.32812 15.1836 6.30484 15.4842 6.21141C15.5133 6.20217 15.5453 6.21946 15.5536 6.24891C15.6395 6.55266 15.6836 6.86219 15.6858 7.1775C15.6858 7.195 15.6939 7.20688 15.7101 7.21313C15.7689 7.23563 15.812 7.26359 15.8395 7.29703L16.3181 7.79203C16.3365 7.81141 16.3325 7.82203 16.3059 7.82391C15.8972 7.85437 15.5883 7.84641 15.2095 7.98C15.1951 7.98553 15.1936 8.00924 15.2072 8.01656C15.7397 8.28844 16.2401 8.61312 16.7086 8.99062C16.7751 9.04437 16.8487 9.12656 16.9294 9.23719C16.9397 9.25094 16.9367 9.25484 16.9204 9.24891C16.5197 9.10031 16.1353 9.00516 15.7303 9.2175C15.7086 9.22885 15.7083 9.26534 15.7298 9.27703C16.0851 9.46609 16.3109 9.75984 16.4072 10.1583C16.4199 10.2122 16.3944 10.2956 16.3725 10.2427C16.2969 10.0577 16.1672 9.92859 15.9834 9.85547C15.9633 9.84742 15.9437 9.88046 15.9609 9.89344C16.1859 10.0734 16.3101 10.357 16.2187 10.6425C16.0237 11.2533 15.8564 11.7061 15.9234 12.3052C15.9322 12.3823 15.9954 12.5456 16.1133 12.795C15.5508 12.3389 15.4233 11.5814 15.5437 10.9017C15.5709 10.7486 15.5776 10.6361 15.5639 10.5642C15.4851 10.1503 15.0515 9.90984 14.6629 9.81047C14.6336 9.80297 14.6306 9.80875 14.654 9.82781C15.2067 10.283 15.4542 10.8141 15.2386 11.5345C15.0801 12.0637 14.8997 12.5386 14.9775 13.1095C14.9793 13.121 14.9621 13.1279 14.9554 13.1184C14.6184 12.6464 14.6662 11.8027 14.7562 11.2617C14.7684 11.1872 14.7379 11.0358 14.7033 10.9528C14.5295 10.5341 14.2194 10.2016 13.7728 9.95531C13.7234 9.92812 13.7154 9.93703 13.7489 9.98203L14.122 10.4859C14.1319 10.4993 14.1105 10.5105 14.0972 10.4972C14.0228 10.4256 13.94 10.3664 13.8487 10.3195C13.8369 10.3138 13.8221 10.3296 13.8286 10.3411C14.0633 10.718 14.1276 11.1147 14.0217 11.5312C13.8792 11.3672 13.6897 11.2578 13.4531 11.2031C12.9731 11.0919 12.5864 11.2058 12.2929 11.5448C12.165 11.1942 12.7247 11.1042 12.8231 10.7784C12.8937 10.5444 12.9581 10.3033 13.0162 10.0552C13.0198 10.0404 13.0017 10.0269 12.9886 10.0345C12.4451 10.337 11.8715 10.3867 11.2678 10.1836C11.7094 10.0509 12.0436 9.76359 12.0126 9.29297C11.9981 9.07453 11.8439 9.02719 11.6508 9.06094C11.3648 9.11094 11.1361 9.25687 10.9645 9.49875C10.9413 9.53114 10.8785 9.54037 10.9026 9.48C11.0498 9.12 11.3531 8.85187 11.6044 8.57344C11.7989 8.35781 11.8772 8.20219 11.654 7.97203C11.4806 7.79328 11.2823 7.63906 11.0592 7.50937C11.0489 7.50384 11.0365 7.52024 11.0447 7.52859C11.1979 7.67391 11.5214 8.07797 11.4112 8.30625C11.3578 8.41687 11.2728 8.47375 11.1562 8.47687C10.9129 8.48391 10.6673 8.21531 10.5525 8.02125C10.5434 8.00594 10.5409 7.98953 10.545 7.97203L10.6458 7.54312C10.6549 7.50912 10.6095 7.52764 10.5956 7.53516L10.2422 7.31063C10.2387 7.29125 10.2273 7.26828 10.2079 7.24172C10.4733 7.27609 10.7253 7.34609 10.964 7.45172C10.9816 7.45947 11.0046 7.44469 11.0048 7.42547C11.0123 6.94734 11.3522 6.61875 11.8373 6.83016C12.4594 7.10156 13.0912 7.04484 13.6922 6.73547C13.7021 6.73094 13.6951 6.71226 13.6847 6.71531C13.3734 6.78891 13.0481 6.68625 12.7837 6.52031C12.7687 6.51063 12.7701 6.50594 12.7879 6.50625C13.6823 6.51156 14.4504 6.22484 15.0923 5.64609C15.1373 5.60547 15.1762 5.58281 15.209 5.57812ZM12.2109 8.44922C11.902 8.1075 12.6689 7.63547 12.8803 7.50234C12.9071 7.48561 12.8862 7.52409 12.8789 7.53328C12.8887 7.52946 12.9144 7.54398 12.9051 7.56094C12.8551 7.65531 12.8369 7.75578 12.8503 7.86234C12.8521 7.87737 12.8606 7.89134 12.8733 7.89984C12.9323 7.94016 12.9942 7.94812 13.0603 7.91203C13.7034 7.55672 14.1492 7.335 14.8879 7.56188C14.9038 7.56663 14.9599 7.60677 14.9292 7.61719C14.7501 7.67766 14.3086 7.80984 14.475 8.03203C14.5262 8.10422 14.559 8.18422 14.5734 8.27203C14.7375 9.28406 13.8342 9.70875 13.1175 9.04078C13.1034 9.02766 13.0753 9.01797 13.0331 9.01172C13.0556 9.18047 13.1062 9.39703 13.0608 9.56156C13.0551 9.58156 13.0498 9.58156 13.0448 9.56156C12.9379 9.13922 12.4969 8.76516 12.2109 8.44922Z" fill="#1F2C45"/>
<path d="M7.52154 6.1758L5.94888 6.99986C5.93013 7.00955 5.91966 7.00392 5.91748 6.98299L5.8917 6.73736C5.89135 6.73429 5.89033 6.73132 5.88871 6.72869C5.8871 6.72606 5.88493 6.72383 5.88236 6.72217C5.87979 6.7205 5.8769 6.71944 5.87389 6.71907C5.87088 6.7187 5.86783 6.71902 5.86498 6.72002C5.18951 6.94408 4.62607 7.32236 4.31857 7.96455L4.3542 7.5947C4.14701 7.78095 4.0042 7.96752 3.92576 8.15439L3.78888 8.18861C3.74857 8.19861 3.73373 8.18361 3.74435 8.14361C3.8656 7.68674 4.13341 7.34455 4.54779 7.11705C5.1331 6.79517 5.72138 6.47752 6.31263 6.16408C6.31517 6.16277 6.31806 6.16223 6.32091 6.16255C6.32376 6.16287 6.32644 6.16403 6.32858 6.16587C6.33073 6.1677 6.33223 6.17013 6.3329 6.17283C6.33357 6.17553 6.33337 6.17836 6.33232 6.18095L6.19779 6.54564C6.18841 6.57189 6.19591 6.5783 6.22029 6.56486L7.57591 5.81814C7.59779 5.80627 7.60591 5.81236 7.60029 5.83642L7.52154 6.1758Z" fill="#858BA4"/>
<path d="M19.9102 8.14261C19.823 7.95355 19.6986 7.79402 19.5371 7.66402C19.5261 7.63652 19.5085 7.61418 19.4841 7.59699C19.4672 7.58511 19.4602 7.58949 19.463 7.61011L19.5071 7.9373C19.2019 7.31527 18.6328 6.94074 17.9799 6.72183C17.9627 6.71621 17.9532 6.7223 17.9513 6.74011L17.9269 6.97402C17.9263 6.97863 17.9247 6.98303 17.9221 6.98686C17.9194 6.99069 17.916 6.99383 17.9119 6.99599C17.9078 6.99816 17.9033 6.9993 17.8988 6.99931C17.8942 6.99932 17.8897 6.9982 17.8857 6.99605L16.3144 6.1734L16.2366 5.83496C16.231 5.8109 16.2391 5.8048 16.261 5.81668L17.6232 6.56808C17.6259 6.56968 17.6292 6.57037 17.6324 6.57005C17.6356 6.56974 17.6386 6.56843 17.641 6.56632C17.6434 6.5642 17.6451 6.56139 17.6459 6.55826C17.6466 6.55513 17.6464 6.55185 17.6452 6.54886L17.5088 6.19871C17.5072 6.19489 17.5069 6.1907 17.5078 6.18671C17.5088 6.18271 17.511 6.17909 17.5141 6.17634C17.5172 6.17359 17.5211 6.17183 17.5252 6.1713C17.5294 6.17078 17.5336 6.17151 17.5374 6.1734C18.1161 6.47746 18.6967 6.78621 19.2792 7.09965C19.7021 7.32715 19.9738 7.68011 20.0944 8.15855C20.0988 8.17511 20.0924 8.18433 20.0752 8.18621C20.0127 8.19277 19.9577 8.17824 19.9102 8.14261Z" fill="#858BA4"/>
<path d="M7.52156 6.17578C7.31781 6.75641 7.05218 7.30719 6.72468 7.82812C6.49906 7.76906 6.27953 7.77953 6.06609 7.85953L4.73437 8.00437C4.73118 8.00467 4.72796 8.00426 4.72495 8.00316C4.72193 8.00205 4.71921 8.00029 4.71696 7.998C4.71472 7.99571 4.71301 7.99295 4.71197 7.98992C4.71092 7.98688 4.71057 7.98366 4.71093 7.98047L4.76953 7.52156C4.76999 7.51822 4.76923 7.51487 4.7674 7.51209C4.76556 7.50931 4.76276 7.50729 4.75949 7.50639C4.75623 7.50549 4.75271 7.50576 4.74957 7.50717C4.74643 7.50857 4.74387 7.51102 4.74234 7.51406L4.51265 8.01328C4.50546 8.02891 4.49359 8.03875 4.47703 8.04281C4.3164 8.08156 4.26359 8.05547 4.31859 7.96453C4.62609 7.32234 5.18953 6.94406 5.865 6.72C5.86785 6.71901 5.8709 6.71868 5.87391 6.71905C5.87692 6.71943 5.87981 6.72049 5.88238 6.72215C5.88494 6.72382 5.88712 6.72605 5.88873 6.72868C5.89035 6.73131 5.89137 6.73427 5.89172 6.73734L5.9175 6.98297C5.91968 7.00391 5.93015 7.00953 5.9489 6.99984L7.52156 6.17578Z" fill="#333C56"/>
<path d="M16.3144 6.17346L17.8856 6.99612C17.8897 6.99827 17.8942 6.99939 17.8987 6.99938C17.9033 6.99937 17.9078 6.99823 17.9119 6.99606C17.9159 6.99389 17.9194 6.99076 17.9221 6.98693C17.9247 6.9831 17.9263 6.97869 17.9269 6.97409L17.9513 6.74018C17.9531 6.72237 17.9627 6.71627 17.9799 6.7219C18.6328 6.94081 19.2019 7.31534 19.507 7.93737C19.5317 7.96549 19.5406 8.0019 19.5338 8.04659C19.5316 8.06034 19.5236 8.06627 19.5099 8.0644L19.366 8.04799C19.3578 8.04701 19.3501 8.04394 19.3435 8.03909C19.3369 8.03424 19.3317 8.02778 19.3285 8.02034L19.0866 7.48174C19.0857 7.47942 19.0841 7.47753 19.0819 7.47644C19.0797 7.47535 19.0772 7.47513 19.0749 7.47583C19.0725 7.47652 19.0704 7.47809 19.069 7.48022C19.0676 7.48235 19.067 7.48489 19.0674 7.48737L19.1274 7.98612C19.1277 7.98859 19.1274 7.9911 19.1266 7.99346C19.1258 7.99581 19.1244 7.99795 19.1227 7.99972C19.1209 8.00148 19.1188 8.00282 19.1164 8.00363C19.1141 8.00444 19.1116 8.0047 19.1091 8.0044L17.8083 7.87081C17.5895 7.78487 17.3533 7.76674 17.0995 7.81643C16.7864 7.29956 16.5247 6.7519 16.3144 6.17346Z" fill="#333C56"/>
<path d="M9.36141 6.28128C9.36734 6.29472 9.365 6.30363 9.35438 6.308C9.11063 6.41206 8.84844 6.45722 8.56781 6.44347C8.55219 6.44253 8.53844 6.44738 8.52656 6.458C8.25469 6.70362 8.15156 7.118 8.15766 7.48316C8.15797 7.49847 8.15188 7.5105 8.13938 7.51925L7.56375 7.92706C7.54281 7.94175 7.54516 7.94784 7.57078 7.94534C7.95188 7.90831 8.43 7.86284 8.80219 7.95472C8.825 7.96034 8.82609 7.96878 8.80547 7.98003C8.22469 8.29269 7.67859 8.62691 7.19719 9.08253C7.17656 9.10222 7.18016 9.10878 7.20797 9.10222C7.61953 9.00519 8.01797 8.94659 8.41922 9.11862C8.43953 9.12737 8.43984 9.13644 8.42016 9.14581C8.03016 9.3305 7.77328 9.62878 7.64953 10.0407C7.64766 10.0472 7.64906 10.056 7.65375 10.0669C7.65781 10.0769 7.6625 10.0771 7.66781 10.0674C7.78453 9.84144 7.98375 9.67034 8.22516 9.61128C8.25797 9.60316 8.26156 9.61034 8.23594 9.63284C7.905 9.92347 7.69781 10.3097 7.90688 10.7377C7.955 10.8367 8.01859 11.0585 8.09766 11.4028C8.18891 11.8003 8.14094 12.1739 7.95375 12.5236C7.90172 12.6207 7.80516 12.7261 7.74609 12.8419L7.68375 12.8996C7.67086 12.9113 7.64659 12.8923 7.65563 12.8775C8.16516 11.9766 7.72781 11.4188 7.40156 10.6022C7.18922 10.0697 7.47656 9.55081 7.91391 9.24612C7.92859 9.23581 7.92703 9.22987 7.90922 9.22831C7.42547 9.17909 6.92906 9.41628 6.55266 9.70222C6.54241 9.70981 6.52565 9.69662 6.53063 9.68487C6.85547 8.97331 7.58672 8.44316 8.26453 8.09956C8.26698 8.09828 8.26891 8.0962 8.27002 8.09367C8.27113 8.09115 8.27135 8.08832 8.27064 8.08565C8.26993 8.08298 8.26834 8.08063 8.26612 8.07899C8.26391 8.07734 8.2612 8.0765 8.25844 8.07659L7.02938 8.14737C7.02097 8.14773 7.01575 8.13533 7.02188 8.12956C7.33188 7.8455 7.68813 7.64191 8.09063 7.51878C8.11302 7.51181 8.12735 7.48677 8.12203 7.46394C8.01828 7.00831 8.10375 6.59362 8.37844 6.21987C8.39031 6.20362 8.40594 6.19862 8.42531 6.20487C8.72656 6.30175 9.03859 6.32722 9.36141 6.28128Z" fill="#858BA4"/>
<path d="M15.8395 7.297C16.2392 7.49262 16.5934 7.76887 16.9022 8.12575C16.9191 8.14512 16.9147 8.15372 16.8891 8.15153C16.5591 8.12684 16.2231 8.10793 15.8813 8.09481C15.8306 8.09293 15.7481 8.07793 15.6811 8.08825C15.6608 8.09106 15.6597 8.09715 15.6778 8.10653C16.3603 8.45668 17.0836 8.98356 17.4094 9.70075C17.4144 9.71051 17.3992 9.72219 17.3911 9.71481C17.0095 9.41668 16.5159 9.19497 16.028 9.22684C16.0052 9.2284 16.003 9.2359 16.0214 9.24934C16.4077 9.53481 16.6547 9.91918 16.583 10.4006C16.567 10.5087 16.5103 10.6692 16.4128 10.882C16.2061 11.3334 15.9506 11.7886 16.0683 12.3487C16.1044 12.5193 16.1958 12.7148 16.268 12.8901C16.2773 12.9132 16.2722 12.9172 16.2525 12.9018L16.1133 12.795C15.9955 12.5456 15.9322 12.3823 15.9234 12.3051C15.8564 11.7061 16.0238 11.2532 16.2188 10.6425C16.3102 10.357 16.1859 10.0734 15.9609 9.8934C15.9438 9.88043 15.9634 9.84738 15.9834 9.85543C16.1672 9.92856 16.2969 10.0576 16.3725 10.2426C16.3831 10.2682 16.393 10.2679 16.402 10.2417C16.412 10.2139 16.4138 10.1861 16.4072 10.1582C16.3109 9.75981 16.0852 9.46606 15.7298 9.277C15.7084 9.2653 15.7087 9.22882 15.7303 9.21747C16.1353 9.00512 16.5197 9.10028 16.9205 9.24887C16.9367 9.25481 16.9397 9.2509 16.9294 9.23715C16.8488 9.12653 16.7752 9.04434 16.7086 8.99059C16.2402 8.61309 15.7397 8.2884 15.2072 8.01653C15.1936 8.00921 15.1951 7.98549 15.2095 7.97997C15.5883 7.84637 15.8972 7.85434 16.3059 7.82387C16.3325 7.822 16.3366 7.81137 16.3181 7.792L15.8395 7.297Z" fill="#333C56"/>
<path d="M10.2422 7.31067L10.5956 7.5352L10.5586 7.59567C10.443 7.52254 10.318 7.47442 10.1836 7.45129C10.1892 7.39879 10.2088 7.35192 10.2422 7.31067Z" fill="#333C56"/>
<path d="M10.043 7.40809L9.79596 7.66496C9.78408 7.67715 9.77002 7.68059 9.75377 7.67527C9.51596 7.59684 9.27205 7.56871 9.02205 7.5909C9.01823 7.59134 9.01467 7.59308 9.01196 7.59582C9.00926 7.59856 9.00758 7.60215 9.00719 7.60598C9.00681 7.60982 9.00775 7.61366 9.00986 7.61689C9.01196 7.62011 9.01511 7.62252 9.01877 7.62371C9.17721 7.67152 9.32549 7.74168 9.46361 7.83418C9.47565 7.84225 9.48487 7.8539 9.48999 7.86751C9.49511 7.88111 9.49589 7.896 9.49221 7.91012C9.46033 8.03105 9.44924 8.15418 9.45893 8.27949C9.45986 8.29543 9.45611 8.31012 9.44768 8.32355L9.30096 8.55746C9.1019 8.26902 8.98002 7.95309 8.93533 7.60965C8.93315 7.59246 8.94002 7.58043 8.95596 7.57355C9.30346 7.42355 9.6658 7.3684 10.043 7.40809Z" fill="#1F2C45"/>
<path d="M10.1836 7.45129C10.318 7.47442 10.443 7.52254 10.5586 7.59567L10.3476 7.83286C10.3437 7.83717 10.3385 7.8401 10.3329 7.8412C10.3272 7.8423 10.3214 7.84151 10.3162 7.83895L10.0969 7.72739C10.0797 7.71864 10.0748 7.70536 10.0823 7.68754L10.1836 7.45129Z" fill="#1F2C45"/>
<path d="M14.8945 7.58023C14.4126 7.59242 13.957 7.63086 13.544 7.91633C13.327 8.06586 12.7565 8.76898 12.5034 8.28617C12.3909 8.07148 12.7204 7.70773 12.8789 7.53336C12.8845 7.53117 12.8917 7.5332 12.9004 7.53945C12.9037 7.54178 12.906 7.54526 12.9068 7.54923C12.9077 7.5532 12.9071 7.55739 12.9051 7.56101C12.8551 7.65539 12.8368 7.75586 12.8503 7.86242C12.8512 7.86993 12.8537 7.87717 12.8577 7.88364C12.8616 7.89011 12.8669 7.89567 12.8733 7.89992C12.9323 7.94023 12.9942 7.9482 13.0603 7.91211C13.7034 7.55679 14.1492 7.33508 14.8879 7.56195C14.8911 7.56289 14.8931 7.56476 14.894 7.56758C14.895 7.57133 14.8951 7.57555 14.8945 7.58023Z" fill="#333C56"/>
<path d="M4.35422 7.59473C4.26375 7.78645 4.14656 8.15676 3.92578 8.15441C4.00422 7.96754 4.14703 7.78098 4.35422 7.59473Z" fill="#333C56"/>
<path d="M19.537 7.66406C19.6986 7.79406 19.823 7.95359 19.9102 8.14266C19.7044 8.175 19.5811 7.80609 19.537 7.66406Z" fill="#333C56"/>
<path d="M6.72468 7.82815C6.42561 8.33534 6.10265 8.82769 5.75577 9.30519C5.75418 9.30733 5.7534 9.30997 5.75357 9.31264C5.75375 9.3153 5.75486 9.31782 5.75672 9.31974C5.75858 9.32165 5.76107 9.32285 5.76373 9.3231C5.76639 9.32335 5.76905 9.32265 5.77124 9.32112L6.69233 8.68456C6.74358 8.64925 6.7503 8.65628 6.71249 8.70565C6.34311 9.18503 6.13155 9.72862 6.0778 10.3364L6.09046 10.3449L6.9178 9.94222C6.9403 9.93128 6.94718 9.93753 6.93843 9.96097L6.60983 10.8258C6.59907 10.8538 6.57246 10.8745 6.5428 10.8778L5.82421 10.9552L5.39483 10.9388C5.36108 10.9375 5.35983 10.9435 5.39108 10.9566C6.2114 11.3002 6.91311 11.9517 7.22296 12.8021C7.23202 12.8262 7.25383 12.8341 7.27546 12.8438C7.2796 12.86 7.28563 12.9712 7.24733 12.9366C6.83952 12.5621 6.26765 12.3624 5.70702 12.4697C5.68421 12.4741 5.68405 12.4794 5.70655 12.4857C6.03327 12.5761 6.29671 12.6685 6.59108 12.8377C6.60054 12.8426 6.59442 12.8593 6.58405 12.8569C5.8439 12.6957 5.05827 13.005 4.4939 13.4602C4.46608 13.4824 4.46671 13.5041 4.49577 13.5253L5.0714 13.9472C5.09608 13.9653 5.09327 13.9766 5.06296 13.981L4.46202 14.0686C4.45805 14.0693 4.45432 14.071 4.45121 14.0735C4.4481 14.0761 4.44572 14.0794 4.44433 14.0831C4.44294 14.0868 4.44259 14.0909 4.44331 14.0948C4.44403 14.0986 4.4458 14.1022 4.44843 14.1052L4.75311 14.4539C4.7559 14.4572 4.75777 14.4611 4.75852 14.4653C4.75927 14.4695 4.75888 14.4738 4.75738 14.4778C4.75588 14.4817 4.75334 14.4852 4.75003 14.4878C4.74671 14.4903 4.74276 14.4919 4.73858 14.4924C3.73874 14.5992 2.75999 14.4558 2.36905 13.38C2.35964 13.3549 2.37137 13.3243 2.3953 13.3116C2.39936 13.3094 2.41343 13.3142 2.43749 13.3261C2.41718 13.3496 2.41702 13.3689 2.43702 13.3842C2.76468 13.6346 3.18655 13.7152 3.57608 13.5563C3.98983 13.3872 4.22733 13.0549 4.28858 12.5592L4.53421 12.1378C4.54097 12.1271 4.56147 12.1352 4.55905 12.1477L4.3753 13.0027L4.37601 13.0065L4.3789 13.0091L4.38279 13.0095L4.38608 13.0074C4.74265 12.4717 4.86718 11.8816 4.75968 11.2369C4.75718 11.2213 4.77857 11.2086 4.79108 11.2182C4.98671 11.3722 5.14171 11.5603 5.25608 11.7825C5.25967 11.7912 5.27594 11.7861 5.2739 11.7769C5.21077 11.2947 4.98843 10.9061 4.60686 10.6111C4.58549 10.5945 4.54989 10.6027 4.53749 10.6271C4.29186 11.1141 3.7439 11.2589 3.2353 11.1652C3.21999 11.1627 3.21452 11.1539 3.2189 11.1389L3.3389 10.7232C3.34107 10.7117 3.3224 10.7041 3.31593 10.7138C3.20718 10.9121 3.04921 11.3325 2.82233 11.3977C2.55608 11.4746 2.29921 11.4624 2.05171 11.3611C2.0367 11.3549 2.01985 11.376 2.02921 11.3892C2.07827 11.458 2.14311 11.506 2.22374 11.5332C2.26753 11.5479 2.27009 11.61 2.22655 11.6232C2.22468 11.6003 2.21421 11.5888 2.19515 11.5885C1.97249 11.5857 1.83843 11.4033 1.82249 11.1961C1.82171 11.1804 1.79574 11.175 1.78874 11.1891L1.76858 11.2275C1.76198 11.2406 1.73802 11.236 1.73671 11.2214C1.71983 11.0189 1.74827 10.8172 1.82202 10.6163C1.9889 10.4869 2.14265 10.3349 2.28327 10.1602C2.36765 10.4724 2.3878 10.8249 2.84436 10.6266C3.30655 10.426 3.49124 10.0497 3.39843 9.49784C3.38843 9.43815 3.3589 9.42581 3.30983 9.46081L2.90483 9.74675C2.88546 9.76019 2.88046 9.75597 2.88983 9.73409C3.01952 9.42847 3.17155 9.13362 3.34593 8.84956L3.3614 9.34362C3.36257 9.3636 3.39276 9.37107 3.40311 9.35394L3.58452 9.03706C3.59483 9.01925 3.60733 9.01737 3.62202 9.03144L3.75327 9.15472C3.75815 9.15945 3.76175 9.1653 3.76372 9.1717C3.76569 9.1781 3.76596 9.18484 3.76452 9.19128L3.5714 10.0074C3.56847 10.0204 3.5903 10.0292 3.59718 10.0177L3.99046 9.33237C3.99983 9.31612 4.01343 9.31128 4.03124 9.31784L4.17093 9.36987C4.18561 9.37519 4.19311 9.38565 4.19343 9.40128L4.2103 10.1002C4.20988 10.1121 4.23096 10.1154 4.23421 10.1039L4.47796 9.37644C4.48327 9.3605 4.49421 9.353 4.51077 9.35394L4.88483 9.37597C4.89604 9.37709 4.90087 9.35775 4.89046 9.35347L4.49999 9.16597C4.52372 9.16181 4.54106 9.13781 4.56561 9.13456C4.81561 9.10144 5.05686 9.03878 5.28936 8.94659C5.69296 8.78628 5.50686 8.44034 5.23827 8.28331L6.06608 7.85956C6.27952 7.77956 6.49905 7.76909 6.72468 7.82815Z" fill="#1F2C45"/>
<path d="M17.8083 7.87074L18.6094 8.28324C18.4856 8.44918 18.4162 8.77496 18.6473 8.89215C18.8617 9.00059 19.0864 9.07621 19.3214 9.11902C19.3643 9.11197 19.381 9.15959 19.3486 9.17434L18.9694 9.34965C18.9322 9.36652 18.9339 9.37402 18.9745 9.37215L19.3261 9.35574C19.3467 9.35449 19.3603 9.36387 19.3669 9.38387L19.6102 10.1245C19.6108 10.1266 19.6122 10.1284 19.6141 10.1295C19.6159 10.1307 19.6181 10.1312 19.6203 10.1309C19.6224 10.1306 19.6244 10.1296 19.6259 10.128C19.6274 10.1264 19.6283 10.1243 19.6284 10.1221L19.6509 9.40871C19.6516 9.3884 19.6614 9.37434 19.6805 9.36652L19.8052 9.3159C19.8212 9.30919 19.8412 9.31592 19.8497 9.3309L20.2636 10.0528C20.2645 10.0547 20.2661 10.0562 20.268 10.0569C20.27 10.0577 20.2721 10.0576 20.2741 10.0568C20.2761 10.056 20.2778 10.0545 20.2788 10.0525C20.2797 10.0506 20.28 10.0483 20.2795 10.0462L20.0775 9.19731C20.0734 9.18074 20.0775 9.16652 20.0897 9.15465L20.2172 9.02668C20.2268 9.01689 20.2456 9.01936 20.2528 9.03137L20.4586 9.38949C20.4677 9.40512 20.4723 9.40402 20.4727 9.38621L20.4769 8.81996C20.4773 8.79297 20.5182 8.7789 20.5312 8.79934C20.5003 8.7984 20.5042 8.81121 20.543 8.83777C20.5356 8.85933 20.5265 8.88019 20.5373 8.90246L20.9578 9.72371C20.9649 9.73799 20.9446 9.75573 20.932 9.74621L20.5003 9.44012C20.4862 9.43012 20.4764 9.43324 20.4708 9.44949C20.3255 9.85215 20.4731 10.3293 20.8406 10.5496C21.0562 10.679 21.3666 10.7976 21.4837 10.4611C21.5228 10.3495 21.5408 10.2296 21.5377 10.1015C21.6798 10.315 21.8294 10.479 21.9862 10.5937C22.0847 10.7846 22.1261 10.9925 22.1105 11.2171C22.1097 11.2326 22.0872 11.2412 22.0758 11.2303C22.0607 11.2152 22.0133 11.1542 22.0102 11.2059C21.9973 11.4218 21.8853 11.5475 21.6741 11.5828C21.6516 11.5867 21.6425 11.6051 21.6328 11.6231C21.6028 11.6193 21.5764 11.6079 21.5536 11.5889C21.5398 11.577 21.5416 11.5684 21.5587 11.5631C21.6631 11.5312 21.7484 11.4721 21.8147 11.3859C21.8255 11.3714 21.807 11.3476 21.7903 11.3545C21.5306 11.4656 20.9752 11.5368 20.8069 11.2256C20.7222 11.0687 20.6341 10.9132 20.5425 10.7592C20.5094 10.7036 20.5011 10.707 20.5177 10.7695L20.6137 11.1314C20.6175 11.1448 20.6123 11.1531 20.5983 11.1562C20.0189 11.2771 19.5791 11.0943 19.2787 10.6078C19.2681 10.5909 19.255 10.5886 19.2394 10.6007C18.8609 10.8982 18.6342 11.2875 18.5592 11.7684C18.5558 11.7903 18.5611 11.7926 18.5752 11.7754C18.7416 11.5701 18.8297 11.3845 19.0509 11.2148C19.0621 11.2062 19.0811 11.2179 19.0786 11.2317C18.9886 11.7506 19.0725 12.5821 19.455 12.989C19.4637 12.9984 19.4667 12.9968 19.4639 12.9843L19.2755 12.1472C19.2729 12.1316 19.2979 12.1215 19.3069 12.1345L19.5506 12.5479C19.5784 12.9382 19.7441 13.2368 20.0475 13.4437C20.4295 13.7034 20.8383 13.6879 21.2437 13.4789C21.3078 13.4457 21.3744 13.4176 21.4434 13.3945C21.4452 13.4209 21.4511 13.4573 21.4364 13.4887C20.9859 14.4511 20.0705 14.6175 19.1006 14.4904C19.0772 14.4873 19.0731 14.4768 19.0884 14.459L19.3898 14.1009C19.3993 14.0894 19.3914 14.0689 19.3767 14.0667L18.7631 13.9795C18.7511 13.9779 18.7466 13.9592 18.7566 13.9523L19.3669 13.5084C19.3797 13.499 19.38 13.4893 19.3678 13.4793C18.7809 12.9998 18.0047 12.7003 17.2444 12.8531L17.2406 12.8446C17.5291 12.6725 17.837 12.5515 18.1645 12.4818C18.2383 12.4662 18.2375 12.4554 18.1622 12.4495C17.5519 12.3998 17.0334 12.5518 16.6069 12.9056C16.8497 12.0056 17.5955 11.3137 18.4237 10.972C18.5009 10.9401 18.4978 10.9261 18.4144 10.9298L18.0047 10.9486L17.2903 10.8787C17.2669 10.8764 17.2458 10.8604 17.2373 10.8384L16.8998 9.95856C16.8948 9.94496 16.9115 9.92946 16.9247 9.93559L17.7384 10.3415C17.7562 10.3506 17.7642 10.3451 17.7623 10.3251C17.708 9.76637 17.4877 9.09137 17.0953 8.67699L17.1075 8.66246L18.0825 9.32715L18.0869 9.32821L18.0909 9.32621L18.0927 9.32208L18.0914 9.31777C17.742 8.83215 17.4114 8.33168 17.0995 7.81637C17.3533 7.76668 17.5895 7.78481 17.8083 7.87074Z" fill="#1F2C45"/>
<path d="M9.74121 8.00898L9.76453 8.01798L9.74121 8.00898Z" fill="#C33531" stroke="#6B272F" stroke-width="0.05"/>
<path d="M13.3031 8.65454C13.5187 8.38219 13.8061 8.14641 14.1126 7.99219L14.1869 8.00381C14.1804 7.9869 14.1665 7.97526 14.1516 7.96955C14.1367 7.96382 14.1186 7.9632 14.1023 7.97113L14.1023 7.97113L14.1021 7.97125C13.7924 8.12703 13.5025 8.36499 13.2848 8.63991M13.3031 8.65454L13.2849 8.63969C13.2849 8.63977 13.2848 8.63984 13.2848 8.63991M13.3031 8.65454L13.2847 8.63999C13.2847 8.63996 13.2847 8.63994 13.2848 8.63991M13.3031 8.65454L13.2848 8.63991M13.2848 8.63991C13.2747 8.65237 13.2766 8.66739 13.2812 8.67682C13.2859 8.68639 13.2963 8.69656 13.3115 8.69717L13.3115 8.69718L13.3121 8.69719C13.5833 8.70159 13.8493 8.67896 14.11 8.62928C14.1817 8.61563 14.2278 8.57718 14.2535 8.52412C14.2784 8.4725 14.2831 8.4091 14.2779 8.34554C14.2675 8.21832 14.2165 8.07931 14.187 8.00384C14.187 8.00385 14.187 8.00385 14.187 8.00386L13.2848 8.63991Z" fill="#C33531" stroke="#6B272F" stroke-width="0.046875"/>
<path d="M14.475 8.03198C14.5262 8.10417 14.559 8.18417 14.5734 8.27198C14.7375 9.28401 13.8342 9.7087 13.1175 9.04073C13.1034 9.02761 13.0753 9.01792 13.0331 9.01167C13.0219 9.00136 13.0173 8.99026 13.0195 8.97839C13.0223 8.96214 13.032 8.95339 13.0486 8.95214C13.4745 8.92214 13.8005 8.89479 14.0264 8.87011C14.5359 8.81433 14.4665 8.40604 14.475 8.03198Z" fill="#333C56"/>
<path d="M5.23832 8.28333C5.50691 8.44036 5.693 8.78629 5.28941 8.94661C5.05691 9.03879 4.81566 9.10145 4.56566 9.13457C4.5411 9.13783 4.52377 9.16183 4.50004 9.16598C4.48891 9.16159 4.46154 9.15508 4.47941 9.14067C4.77754 8.89567 5.0305 8.60989 5.23832 8.28333Z" fill="#333C56"/>
<path d="M18.6094 8.28333C18.8041 8.5927 19.0414 8.87129 19.3214 9.11911C19.0864 9.07629 18.8617 9.00067 18.6474 8.89223C18.4163 8.77504 18.4856 8.44926 18.6094 8.28333Z" fill="#333C56"/>
<path d="M3.80894 8.59783C3.79045 8.60982 3.77414 8.6265 3.77247 8.64926C3.7708 8.67208 3.78457 8.69094 3.80118 8.70543L3.81659 8.68777L3.80104 8.70531C4.04904 8.92512 4.27027 8.98677 4.44909 8.91005C4.62604 8.83414 4.74973 8.62719 4.81492 8.33856L4.81495 8.33843C4.81892 8.32039 4.81243 8.30327 4.80235 8.29158C4.79229 8.27991 4.77621 8.27089 4.75763 8.27255L4.75972 8.2959L4.75785 8.27253C4.41364 8.30003 4.09722 8.4085 3.80894 8.59783ZM3.80894 8.59783C3.80896 8.59781 3.80898 8.5978 3.80901 8.59779L3.82175 8.61746L3.80888 8.59787C3.8089 8.59785 3.80892 8.59784 3.80894 8.59783Z" fill="#C33531" stroke="#6B272F" stroke-width="0.046875"/>
<path d="M20.0334 8.67284C20.0472 8.65907 20.0446 8.63293 20.0283 8.62222C19.7364 8.43253 19.4166 8.32363 19.0687 8.2955L19.0707 8.27215C19.0707 8.27215 19.0707 8.27215 19.0707 8.27214L20.0334 8.67284ZM20.0334 8.67284C19.5497 9.15425 19.1719 8.88378 19.042 8.32691L20.0334 8.67284ZM20.0412 8.60264L20.041 8.60257L19.0302 8.28958C19.0213 8.30012 19.0155 8.31565 19.0192 8.33208L19.0192 8.33208L19.0192 8.33223C19.0847 8.61317 19.2142 8.82903 19.3954 8.9106C19.5794 8.99346 19.805 8.93326 20.05 8.68946L20.05 8.68943C20.0627 8.67669 20.067 8.65929 20.0654 8.64401C20.0639 8.62872 20.0562 8.61255 20.0412 8.60264Z" fill="#C33531" stroke="#6B272F" stroke-width="0.046875"/>
<path d="M3.3459 8.84954C3.17153 9.1336 3.0195 9.42845 2.88981 9.73407C2.88043 9.75595 2.88543 9.76016 2.90481 9.74673L3.30981 9.46079C3.35887 9.42579 3.3884 9.43813 3.3984 9.49782C3.49121 10.0497 3.30653 10.4259 2.84434 10.6266C2.38778 10.8249 2.36762 10.4724 2.28325 10.1602C2.3143 10.1179 2.28714 10.0731 2.25512 10.095C2.1895 10.1409 2.11746 10.1699 2.03903 10.1817C2.14028 9.90423 2.30793 9.67985 2.542 9.5086C2.54995 9.50437 2.54198 9.48937 2.53403 9.4936C2.29434 9.58423 2.07137 9.70595 1.86512 9.85876L1.85434 9.84798C2.12809 9.45657 2.64981 9.17063 3.22778 8.84016C3.3234 8.76235 3.36278 8.76548 3.3459 8.84954Z" fill="#333C56"/>
<path d="M20.5312 8.79936C20.9095 8.93436 22.3743 9.60233 22.3959 10.0486C22.409 10.3195 21.945 10.2412 21.795 10.1719C21.6968 9.8928 21.5279 9.67093 21.2883 9.50624C21.2813 9.50089 21.2883 9.48727 21.2967 9.48983C21.5311 9.57452 21.7478 9.69296 21.9468 9.84515C21.9614 9.85787 21.9861 9.83185 21.9726 9.81796C21.6206 9.3914 21.0379 9.06749 20.5429 8.8378C20.5042 8.81124 20.5003 8.79843 20.5312 8.79936Z" fill="#858BA4"/>
<path d="M3.22784 8.84009C2.64987 9.17056 2.12815 9.45649 1.8544 9.8479C1.85342 9.84947 1.85299 9.85136 1.85319 9.85323C1.85339 9.8551 1.85421 9.85684 1.8555 9.85814C1.8568 9.85943 1.85848 9.8602 1.86025 9.8603C1.86202 9.8604 1.86377 9.85982 1.86518 9.85868C2.07143 9.70587 2.2944 9.58415 2.53409 9.49353C2.53608 9.49247 2.53841 9.49225 2.54056 9.4929C2.54272 9.49356 2.54452 9.49505 2.54558 9.49704C2.54663 9.49903 2.54686 9.50136 2.5462 9.50351C2.54554 9.50566 2.54405 9.50747 2.54206 9.50853C2.308 9.67978 2.14034 9.90415 2.03909 10.1817C1.88347 10.2365 1.3655 10.3373 1.45737 9.98524C1.47831 9.90493 1.50925 9.84712 1.55018 9.81181C2.04643 9.38243 2.60565 9.05853 3.22784 8.84009Z" fill="#858BA4"/>
<path d="M20.5429 8.83777C21.0379 9.06746 21.6206 9.39136 21.9726 9.81792C21.9861 9.83181 21.9614 9.85784 21.9468 9.84511C21.7478 9.69293 21.5311 9.57449 21.2967 9.4898C21.2883 9.48724 21.2813 9.50086 21.2883 9.50621C21.5279 9.67089 21.6968 9.89277 21.795 10.1718L21.5376 10.1015C21.5408 10.2296 21.5228 10.3495 21.4837 10.4611C21.3665 10.7976 21.0562 10.679 20.8406 10.5496C20.4731 10.3293 20.3254 9.85214 20.4708 9.44949C20.4764 9.43324 20.4862 9.43011 20.5003 9.44011L20.932 9.74621C20.9446 9.75572 20.9649 9.73799 20.9578 9.72371L20.5373 8.90246C20.5265 8.88019 20.5356 8.85933 20.5429 8.83777Z" fill="#333C56"/>
<path d="M9.11534 12.8855L8.96862 13.1349C8.96225 13.1465 8.94162 13.1389 8.94425 13.1259C9.04925 12.4861 8.81862 12.0136 8.66581 11.4389C8.49565 10.7981 8.75487 10.2319 9.25972 9.84376C9.27379 9.8195 9.33077 9.82195 9.308 9.84657C9.0855 10.0894 8.93128 10.3694 8.84534 10.6866C8.84192 10.6991 8.86385 10.7076 8.86972 10.6959C8.93753 10.5616 9.03456 10.453 9.16081 10.3702L9.17019 10.3791C8.72019 11.0981 9.17065 11.7928 9.113 12.5761C9.1055 12.678 9.10628 12.7811 9.11534 12.8855Z" fill="#858BA4"/>
<path d="M21.9863 10.5938L22.1461 10.6973C22.1588 10.7055 22.1684 10.7179 22.1733 10.7325C22.2394 10.9223 22.2984 11.2195 22.2295 11.4272C22.1494 11.6681 21.8405 11.7005 21.6328 11.6231C21.6423 11.6057 21.6539 11.5863 21.6741 11.5828C21.8853 11.5475 21.9973 11.4219 22.0102 11.2059C22.0117 11.18 22.0217 11.1763 22.0402 11.1947L22.0758 11.2303C22.0872 11.2412 22.1097 11.2327 22.1105 11.2172C22.1261 10.9925 22.0847 10.7847 21.9863 10.5938Z" fill="#333C56"/>
<path d="M1.82205 10.6162C1.7483 10.8171 1.71986 11.0189 1.73673 11.2214C1.73804 11.236 1.762 11.2406 1.76861 11.2275L1.78877 11.189C1.79577 11.1749 1.82174 11.1803 1.82252 11.1961C1.83845 11.4032 1.97252 11.5856 2.19517 11.5884C2.21423 11.5887 2.2247 11.6003 2.22658 11.6231C1.8947 11.7229 1.59095 11.6348 1.5708 11.2382C1.55611 10.9536 1.63986 10.7462 1.82205 10.6162Z" fill="#333C56"/>
<path d="M5.82419 10.9552C6.82263 11.0522 7.26982 11.9241 7.27544 12.8438L7.25341 12.8339C7.23872 12.8277 7.22857 12.817 7.22294 12.802C6.9131 11.9517 6.21138 11.3002 5.39107 10.9566C5.35982 10.9434 5.36107 10.9375 5.39482 10.9388L5.82419 10.9552Z" fill="#333C56"/>
<path d="M16.6069 12.9056C16.6059 12.9265 16.598 12.9374 16.583 12.9384C16.5683 12.9393 16.5609 12.9324 16.5609 12.9178C16.559 11.9667 16.9603 11.092 18.0047 10.9485L18.4144 10.9298C18.4978 10.926 18.5009 10.9401 18.4237 10.972C17.5955 11.3137 16.8497 12.0056 16.6069 12.9056Z" fill="#333C56"/>
<path d="M11.1844 11.3484C11.1906 11.3508 11.1957 11.3553 11.1991 11.3611C11.2025 11.3668 11.2039 11.3736 11.2031 11.3803L11.197 11.4286C11.1948 11.4442 11.1867 11.4557 11.1727 11.4632C10.958 11.5786 10.425 11.7225 10.2309 11.5181C10.0875 11.3672 10.2633 11.0925 10.4939 11.1403C10.7242 11.1884 10.9544 11.2578 11.1844 11.3484Z" fill="#858BA4"/>
<path d="M14.0217 11.5312C13.9814 11.5628 13.9469 11.5925 13.9181 11.6203C13.5792 11.9479 12.9038 11.7998 12.4927 11.7436C12.3805 11.7282 12.3139 11.662 12.293 11.5448C12.5864 11.2057 12.9731 11.0918 13.4531 11.2031C13.6897 11.2578 13.8792 11.3672 14.0217 11.5312Z" fill="#333C56"/>
<path d="M3.66393 11.5229L3.66394 11.5228L3.60281 11.6854L3.62221 11.6902L3.62222 11.6902L3.66393 11.5229Z" fill="white" stroke="#898C96" stroke-width="0.04"/>
<path d="M20.1994 11.6752L20.1577 11.5139M20.1994 11.6752L20.1868 11.4621L20.1849 11.482C20.1605 11.4795 20.1514 11.4902 20.1577 11.5139M20.1994 11.6752C20.2034 11.6896 20.2269 11.6925 20.2336 11.6794L20.2513 11.6887L20.2514 11.6886L20.3305 11.5382L20.3305 11.5382L20.3306 11.5381C20.337 11.5257 20.3422 11.5091 20.334 11.4939C20.3257 11.4786 20.309 11.4739 20.2952 11.4725L20.2952 11.4725L20.295 11.4724L20.1868 11.4621L20.1994 11.6752ZM20.1577 11.5139L20.1383 11.519L20.1383 11.5189L20.1577 11.5139Z" fill="white" stroke="#898C96" stroke-width="0.04"/>
<path d="M20.6807 11.5464L20.6807 11.5465L20.7993 11.56C20.8096 11.5602 20.8208 11.5635 20.8283 11.5733C20.8356 11.5828 20.8361 11.594 20.8352 11.6023C20.8333 11.6187 20.8244 11.6378 20.8155 11.6539L20.8154 11.654L20.8154 11.654L20.7382 11.7911L20.7381 11.7914L20.7207 11.7816C20.7166 11.7895 20.7023 11.7875 20.7005 11.7787L20.6807 11.5464ZM20.6807 11.5464H20.6785C20.6658 11.5464 20.6509 11.5494 20.6414 11.5616C20.6318 11.5738 20.6326 11.589 20.6356 11.6012C20.6356 11.6012 20.6356 11.6013 20.6356 11.6013L20.681 11.7833L20.6807 11.5464Z" fill="white" stroke="#898C96" stroke-width="0.04"/>
<path d="M3.16293 11.63L3.16293 11.63L3.11704 11.7915L3.11699 11.7917L3.09775 11.7862C3.09461 11.7983 3.07478 11.8002 3.06869 11.789L3.16293 11.63ZM3.16293 11.63L3.16296 11.6298M3.16293 11.63L3.16296 11.6298M3.11463 11.5795C3.14119 11.5836 3.15088 11.5986 3.14369 11.6245L3.11463 11.5795ZM3.11463 11.5795L3.11782 11.5597M3.11463 11.5795L3.11765 11.5597C3.13372 11.5622 3.14938 11.5686 3.15862 11.5829C3.16785 11.5972 3.1673 11.6142 3.16296 11.6298M2.99136 11.5865C2.9696 11.6002 2.96222 11.6297 2.97416 11.6522L2.9916 11.5864C2.99152 11.5864 2.99144 11.5865 2.99136 11.5865ZM2.99136 11.5865C3.02987 11.5614 3.07235 11.5524 3.11782 11.5597M2.99136 11.5865L3.11782 11.5597M3.16296 11.6298L3.11782 11.5597" fill="white" stroke="#898C96" stroke-width="0.04"/>
<path d="M21.2012 11.8512L21.2012 11.8512C21.1968 11.8568 21.1917 11.862 21.186 11.8657C21.1801 11.8695 21.1719 11.8727 21.1625 11.8709C21.153 11.8692 21.1466 11.8632 21.1425 11.8575L21.2012 11.8512ZM21.2012 11.8512L21.2014 11.8509M21.2012 11.8512L21.2014 11.8509M21.2014 11.8509C21.2322 11.8111 21.2592 11.7433 21.2776 11.6969C21.2781 11.6955 21.2787 11.6942 21.2792 11.6928L21.2792 11.6928L21.2793 11.6925C21.2849 11.6778 21.282 11.6624 21.2753 11.6509C21.2685 11.6393 21.2564 11.6292 21.2407 11.6272C21.2407 11.6272 21.2407 11.6272 21.2407 11.6272L21.1352 11.6136L21.1352 11.6136C21.1177 11.6113 21.1024 11.6199 21.0931 11.6309C21.0838 11.6419 21.0779 11.6584 21.083 11.6753L21.083 11.6753M21.2014 11.8509L21.083 11.6753M21.083 11.6753L21.0831 11.6754M21.083 11.6753L21.0831 11.6754M21.0831 11.6754L21.1337 11.8385L21.0831 11.6754Z" fill="white" stroke="#898C96" stroke-width="0.04"/>
<path d="M2.52108 11.7024L2.52108 11.7024C2.51428 11.6878 2.51701 11.6721 2.52363 11.6606C2.53024 11.6492 2.54243 11.639 2.55842 11.6375M2.52108 11.7024L2.66906 11.6466M2.52108 11.7024L2.52118 11.7026L2.59005 11.8464L2.52108 11.7024ZM2.55842 11.6375C2.55846 11.6375 2.5585 11.6375 2.55854 11.6375L2.56031 11.6574L2.55834 11.6375L2.55842 11.6375ZM2.55842 11.6375L2.66691 11.6267M2.66691 11.6267L2.66906 11.6466M2.66691 11.6267L2.66709 11.6267L2.66906 11.6466M2.66691 11.6267C2.68317 11.625 2.69728 11.6329 2.70598 11.6431L2.66906 11.6466M2.67579 11.8381L2.71605 11.6841L2.6564 11.8332L2.67575 11.8383L2.67579 11.8381Z" fill="white" stroke="#898C96" stroke-width="0.04"/>
<path d="M2.32734 12.1946C2.18828 12.0902 2.08438 11.9544 2.01562 11.7873C2.05687 11.7669 2.09859 11.7654 2.14078 11.7826C2.15453 11.7882 2.16422 11.7979 2.16984 11.8116L2.32734 12.1946Z" fill="#858BA4"/>
<path d="M21.7585 11.76C21.7269 11.9763 21.6222 12.1278 21.4444 12.2147L21.6305 11.7966C21.6359 11.7842 21.6479 11.7751 21.6614 11.7731L21.7585 11.76Z" fill="#858BA4"/>
<path d="M21.7584 11.76C21.8239 11.7885 21.8554 11.804 21.8512 11.8434C21.8315 12.0502 21.5198 12.3206 21.3417 12.3408C21.3192 12.3433 21.3162 12.3367 21.3328 12.3211L21.4444 12.2147C21.6222 12.1278 21.7269 11.9763 21.7584 11.76Z" fill="white"/>
<path d="M2.01564 11.7872C2.08439 11.9544 2.18829 12.0902 2.32735 12.1946L2.45907 12.324C2.47032 12.3346 2.46845 12.3419 2.45345 12.346C2.26876 12.3947 2.0161 12.0333 1.95423 11.8936C1.94235 11.8668 1.9411 11.8447 1.95048 11.8275C1.96235 11.806 1.98407 11.7925 2.01564 11.7872Z" fill="white"/>
<path d="M9.5627 11.8394C9.55544 11.8177 9.53325 11.8159 9.52157 11.8186C9.50986 11.8213 9.49075 11.8329 9.49396 11.8556L9.51376 11.8528L9.54076 14.6359M9.5627 11.8394C9.56272 11.8394 9.56273 11.8395 9.56275 11.8395L9.54376 11.8458L9.56267 11.8393C9.56268 11.8393 9.56269 11.8393 9.5627 11.8394ZM9.5627 11.8394C9.88407 12.7709 9.89677 13.7074 9.60081 14.6484L9.58173 14.6424L9.60103 14.6476C9.59564 14.6674 9.57632 14.6705 9.56556 14.6684C9.55486 14.6663 9.53838 14.656 9.54076 14.6359M9.54076 14.6359C9.54077 14.6358 9.54079 14.6357 9.5408 14.6356L9.56064 14.6381L9.54074 14.6362C9.54074 14.6361 9.54075 14.636 9.54076 14.6359Z" fill="#333C56" stroke="#232B41" stroke-width="0.04"/>
<path d="M14.3456 14.7345C14.3464 14.7356 14.3471 14.7369 14.3476 14.7384C14.3477 14.7389 14.3479 14.7394 14.348 14.74L14.3461 14.7403L14.366 14.7385C14.283 13.8084 14.2799 12.8775 14.3567 11.9459L14.3367 11.9442M14.3456 14.7345L14.3161 11.941C14.3179 11.93 14.3385 11.9333 14.3367 11.9442M14.3456 14.7345C14.3442 14.7326 14.3423 14.7311 14.3405 14.7303C14.3378 14.729 14.3358 14.7292 14.3349 14.7294C14.334 14.7296 14.332 14.7301 14.33 14.7322C14.3278 14.7344 14.3261 14.7381 14.3262 14.7421C14.3263 14.7427 14.3263 14.7433 14.3264 14.7439M14.3456 14.7345L14.3261 14.7421L14.3264 14.7439M14.3367 11.9442L14.3565 11.9474C14.3581 11.9375 14.3543 11.9289 14.3485 11.9233C14.3432 11.9181 14.3366 11.9155 14.3309 11.9146C14.3251 11.9137 14.3181 11.9141 14.3115 11.9174C14.3045 11.9208 14.2985 11.9273 14.2966 11.9366M14.3367 11.9442C14.2602 12.8733 14.263 13.8017 14.3451 14.7292L14.2966 11.9366M14.2966 11.9366C14.0506 12.8748 14.0547 13.8122 14.3088 14.7483M14.2966 11.9366L14.3088 14.7483M14.3088 14.7483C14.3088 14.7479 14.3087 14.7476 14.3086 14.7472L14.3264 14.7439M14.3088 14.7483C14.3089 14.7485 14.309 14.7486 14.309 14.7488L14.3283 14.7436L14.3264 14.7439" fill="#333C56" stroke="#232B41" stroke-width="0.04"/>
<path d="M19.5506 12.548C20.047 13.1334 20.6967 13.3383 21.4406 13.3233C21.4578 13.323 21.4672 13.3314 21.4687 13.3486C21.4703 13.3648 21.4618 13.3802 21.4434 13.3945C21.3743 13.4177 21.3078 13.4458 21.2437 13.4789C20.8383 13.688 20.4295 13.7034 20.0475 13.4438C19.744 13.2369 19.5784 12.9383 19.5506 12.548Z" fill="#333C56"/>
<path d="M4.28857 12.5592C4.22732 13.0548 3.98982 13.3872 3.57607 13.5562C3.18653 13.7151 2.76466 13.6345 2.437 13.3842C2.417 13.3689 2.41716 13.3495 2.43747 13.3261C2.70341 13.3273 2.94466 13.3023 3.16122 13.2511C3.5881 13.1498 3.96388 12.9192 4.28857 12.5592Z" fill="#333C56"/>
<path d="M21.2142 13.2107L21.2911 12.9492C21.3336 12.8823 21.3585 12.8126 21.3656 12.7401C21.3671 12.7299 21.3849 12.7283 21.3872 12.7383C21.4475 12.9814 21.3899 13.1389 21.2142 13.2107Z" fill="white"/>
<path d="M20.5596 12.7643C20.5577 12.7459 20.5428 12.736 20.5307 12.733C20.5185 12.7301 20.5011 12.7321 20.4906 12.7468L20.4906 12.7468L20.4904 12.747L20.3911 12.8909M20.5596 12.7643C20.5596 12.7643 20.5596 12.7644 20.5596 12.7644L20.5397 12.7664L20.5596 12.7643L20.5596 12.7643ZM20.5596 12.7643L20.5774 12.9316L20.5774 12.9317C20.579 12.947 20.5774 12.9652 20.5638 12.977C20.5502 12.9887 20.5321 12.9878 20.5171 12.9841L20.517 12.9841L20.517 12.9841L20.4168 12.9588M20.4168 12.9588C20.4169 12.9588 20.4169 12.9588 20.417 12.9588L20.4216 12.9394L20.4167 12.9587L20.4168 12.9588ZM20.4168 12.9588C20.4015 12.9551 20.3913 12.9433 20.3867 12.9314C20.3822 12.9194 20.382 12.9038 20.3911 12.8909M20.3911 12.8909C20.3911 12.8909 20.3911 12.8908 20.3911 12.8908L20.4075 12.9023L20.391 12.891L20.3911 12.8909Z" fill="white" stroke="#898C96" stroke-width="0.04"/>
<path d="M2.49796 12.9375C2.49796 13.0278 2.52889 13.1057 2.59077 13.171C2.60421 13.1853 2.58186 13.2033 2.52374 13.2249C2.40718 13.1177 2.37061 12.9699 2.41405 12.7814C2.41811 12.7639 2.42358 12.7633 2.43046 12.7796L2.49796 12.9375Z" fill="white"/>
<path d="M3.22238 12.9406L3.22239 12.9405L3.22239 12.9405L3.23504 12.7845C3.23573 12.7759 3.23709 12.7676 3.23981 12.7606C3.24234 12.7541 3.24788 12.7444 3.25956 12.741C3.27112 12.7377 3.28095 12.7429 3.28654 12.747C3.29259 12.7513 3.29827 12.7576 3.3036 12.7644C3.3036 12.7644 3.3036 12.7644 3.3036 12.7644L3.40053 12.8895L3.40063 12.8896L3.22238 12.9406ZM3.22238 12.9406C3.22089 12.9602 3.22336 12.9822 3.24022 12.9947M3.22238 12.9406L3.24022 12.9947M3.24022 12.9947C3.25704 13.0073 3.27882 13.0034 3.29721 12.9965L3.24022 12.9947Z" fill="white" stroke="#898C96" stroke-width="0.04"/>
<path d="M20.7454 13.0401L20.7454 13.0401C20.7319 13.0361 20.7234 13.0252 20.7199 13.0145C20.7164 13.0039 20.7168 12.9902 20.7252 12.979M20.7454 13.0401L20.7413 12.9909M20.7454 13.0401L20.7455 13.0401L20.8561 13.0725L20.8561 13.0725L20.8563 13.0725C20.8728 13.0772 20.8888 13.0716 20.8997 13.0625C20.9106 13.0535 20.9191 13.0388 20.9172 13.0217M20.7454 13.0401L20.8617 13.0533M20.7252 12.979C20.7252 12.979 20.7253 12.9789 20.7253 12.9789L20.7413 12.9909M20.7252 12.979L20.7251 12.9791L20.7413 12.9909M20.7252 12.979L20.832 12.8338L20.832 12.8337C20.8371 12.8269 20.8426 12.8206 20.8485 12.8161C20.8539 12.812 20.8637 12.8066 20.8753 12.8098C20.887 12.813 20.8926 12.8226 20.8952 12.829C20.898 12.8358 20.8995 12.844 20.9004 12.8525L20.9004 12.8525L20.9172 13.0217M20.7413 12.9909L20.8481 12.8456C20.8666 12.8206 20.8773 12.8236 20.8805 12.8545L20.8973 13.0237M20.9172 13.0217C20.9172 13.0216 20.9172 13.0216 20.9172 13.0215L20.8973 13.0237M20.9172 13.0217L20.9172 13.0218L20.8973 13.0237M20.8973 13.0237C20.8994 13.0418 20.8795 13.0583 20.8617 13.0533M20.8617 13.0533L20.7511 13.0209L20.8617 13.0533ZM20.8617 13.0533L20.8617 13.0533L20.8617 13.0533Z" fill="white" stroke="#898C96" stroke-width="0.04"/>
<path d="M2.88448 13.0373L2.88448 13.0373L2.90087 12.8645L2.90088 12.8643L2.92079 12.8662C2.92189 12.8515 2.9447 12.8453 2.95314 12.8573L2.88448 13.0373ZM2.88448 13.0373L2.88446 13.0374C2.88323 13.0515 2.88475 13.0691 2.89832 13.0801C2.91188 13.0911 2.92939 13.0891 2.94292 13.085M2.88448 13.0373L2.9372 13.0659M3.06692 12.9844C3.07645 12.9978 3.07667 13.014 3.07217 13.0268C3.06768 13.0396 3.05735 13.0521 3.0416 13.0565M3.06692 12.9844L2.9372 13.0659M3.06692 12.9844L2.96951 12.8458C2.96951 12.8458 2.9695 12.8458 2.9695 12.8458L3.06692 12.9844ZM3.0416 13.0565C3.04157 13.0565 3.04154 13.0565 3.04151 13.0565L3.03611 13.0373L3.04166 13.0565L3.0416 13.0565ZM3.0416 13.0565L2.94292 13.085M2.94292 13.085L2.9372 13.0659M2.94292 13.085L2.94275 13.0851L2.9372 13.0659" fill="white" stroke="#898C96" stroke-width="0.04"/>
<path d="M2.49799 12.9375L2.6822 13.1259C2.69314 13.1375 2.69392 13.1497 2.68455 13.1625C2.65986 13.1959 2.60627 13.2167 2.52377 13.2248C2.58189 13.2033 2.60424 13.1853 2.5908 13.1709C2.52892 13.1056 2.49799 13.0278 2.49799 12.9375Z" fill="#858BA4"/>
<path d="M21.2911 12.9492L21.2142 13.2108L21.1181 13.1536C21.099 13.142 21.0976 13.1286 21.1139 13.1133L21.2911 12.9492Z" fill="#858BA4"/>
<path d="M16.4097 14.0601L16.45 15.9365C16.45 15.9366 16.45 15.9367 16.45 15.9367L16.45 15.9369L16.425 15.9375L16.4097 14.0601ZM16.4097 14.0601C16.4097 14.06 16.4097 14.0599 16.4097 14.0598L16.4097 14.0596L16.3881 14.0601L16.3885 14.0558M16.4097 14.0601H16.3597L16.3597 14.0607M16.3885 14.0558L16.3885 14.0555L16.3825 14.055C16.3818 14.0545 16.381 14.054 16.38 14.0536L16.3687 14.0498C16.3656 14.0489 16.3639 14.0501 16.3636 14.0536L16.3631 14.0601L16.363 14.0606L16.3624 14.0689L16.3622 14.0693C16.3604 14.0662 16.3598 14.063 16.3597 14.0607M16.3885 14.0558L16.3828 14.0553C16.384 14.0565 16.3847 14.0581 16.3847 14.0601L16.3875 14.0601C16.3883 14.0579 16.3884 14.0563 16.3885 14.0558ZM16.3597 14.0607L16.3604 14.0944M16.3597 14.0607L16.3604 14.0944M16.3604 14.0944L16.2375 15.6773C16.2362 15.6948 16.2289 15.709 16.2155 15.72L12.014 19.162L16.3604 14.0944ZM6.52404 13.4212L6.52532 13.4214L6.52625 13.4168L6.52917 13.4024L6.53217 13.4051L6.53531 13.4016L6.54519 13.3906L6.5464 13.3944L6.55088 13.393L6.56497 13.3886L6.56406 13.3925L6.56863 13.3936L6.57584 13.3953L6.57531 13.3962L7.54779 13.9492C7.54782 13.9493 7.54786 13.9493 7.54789 13.9493L7.54796 13.9493L7.53561 13.9711L6.52404 13.4212ZM6.52404 13.4212L6.525 13.4293M6.52404 13.4212L6.525 13.4293M6.525 13.4293L6.86296 16.2943C6.86296 16.2943 6.86296 16.2943 6.86296 16.2943L6.525 13.4293ZM11.9284 19.8197L11.9284 19.8199L11.9907 20.7506L11.9907 20.7508L11.9284 19.8197ZM11.9284 19.8197C11.9277 19.8107 11.9303 19.8046 11.937 19.7988M11.9284 19.8197L11.937 19.7988M6.91451 16.3364L6.9002 16.3569C6.88991 16.3497 6.88128 16.3404 6.87487 16.3296L6.91451 16.3364ZM6.91451 16.3364C6.90716 16.3312 6.90097 16.3246 6.89637 16.3168C6.89176 16.3091 6.88884 16.3004 6.88779 16.2914L6.86297 16.2943L6.91451 16.3364ZM6.91451 16.3364L6.9 16.3567M6.91451 16.3364L6.9 16.3567M6.9 16.3567C8.73417 17.664 10.3895 19.1366 11.9198 20.7817M6.9 16.3567L11.9198 20.7817M11.9198 20.7817L11.9381 20.7647L11.9198 20.7817ZM11.937 19.7988C11.937 19.7988 11.937 19.7988 11.937 19.7988L11.937 19.7988ZM11.9319 19.1427L7.73381 15.6983C7.72696 15.6927 7.72344 15.686 7.72272 15.6768L7.72271 15.6766L7.58255 14.0033C7.58255 14.0032 7.58255 14.0032 7.58255 14.0032L11.9319 19.1427Z" fill="#C33531" stroke="#6B272F" stroke-width="0.05"/>
<path d="M13.2529 12.226C12.9726 12.3174 13.1662 12.5808 13.0739 12.7951C13.0267 12.9041 12.9872 13.0196 12.9553 13.1415L12.9169 12.2968C12.9159 12.2811 12.9214 12.2683 12.9333 12.2583C13.0414 12.163 13.1479 12.1522 13.2529 12.226Z" fill="#858BA4"/>
<path d="M10.9097 13.1316C10.8403 12.9766 10.8087 12.8119 10.815 12.6375C10.8169 12.5806 10.7703 12.5399 10.7714 12.4871C10.773 12.3808 10.7365 12.2888 10.6622 12.211C10.7656 12.1697 10.8544 12.1868 10.9284 12.2621C10.9394 12.273 10.9445 12.2861 10.9439 12.3015L10.9097 13.1316Z" fill="#858BA4"/>
<path d="M10.6622 12.211C10.7365 12.2888 10.773 12.3808 10.7714 12.4871C10.7703 12.5399 10.8169 12.5806 10.815 12.6375C10.8087 12.8119 10.8403 12.9766 10.9097 13.1316L10.95 13.4396C10.9537 13.4702 10.947 13.4727 10.9298 13.4471C10.6817 13.084 10.5723 12.6807 10.6017 12.2372C10.6036 12.207 10.6387 12.1932 10.6622 12.211Z" fill="white"/>
<path d="M11.821 12.2344C11.8362 12.2447 11.8421 12.266 11.8346 12.2827L11.7394 12.4908C11.7297 12.5121 11.7197 12.5123 11.7094 12.4913L11.603 12.279C11.5969 12.2671 11.6004 12.2514 11.611 12.2429C11.6781 12.1888 11.7481 12.186 11.821 12.2344Z" fill="white"/>
<path d="M12.2006 12.2302C12.224 12.2449 12.23 12.2646 12.2184 12.2893L12.1233 12.4965C12.1111 12.5227 12.0992 12.5227 12.0876 12.4965L11.9911 12.2804C11.9833 12.2625 11.987 12.248 12.0023 12.2368C12.0664 12.1899 12.1325 12.1877 12.2006 12.2302Z" fill="white"/>
<path d="M11.393 12.2298C11.4242 12.2443 11.4388 12.2863 11.4234 12.3174L11.3287 12.5082C11.3181 12.5301 11.3078 12.5299 11.2978 12.5077L11.2031 12.2916C11.1971 12.2779 11.2013 12.2607 11.213 12.2513C11.267 12.2063 11.327 12.1991 11.393 12.2298Z" fill="white"/>
<path d="M12.6192 12.2551C12.6318 12.2649 12.636 12.2836 12.6291 12.2982L12.5245 12.5157C12.5164 12.5322 12.5086 12.5322 12.5011 12.5157L12.4008 12.2935C12.3944 12.2797 12.3989 12.2622 12.4111 12.2532C12.4808 12.2001 12.5502 12.2007 12.6192 12.2551Z" fill="white"/>
<path d="M13.2529 12.226C13.2823 12.686 13.1763 13.0924 12.9347 13.4452C12.9213 13.4646 12.9161 13.4627 12.9192 13.4396L12.9553 13.1415C12.9872 13.0196 13.0267 12.9041 13.0739 12.7951C13.1662 12.5808 12.9726 12.3174 13.2529 12.226Z" fill="white"/>
<path d="M11.1815 14.543L11.1487 14.9236C10.8515 14.9157 11.0358 14.4399 11.1192 14.311C11.1336 14.2888 11.1428 14.2908 11.1469 14.3171L11.1815 14.543Z" fill="white"/>
<path d="M12.961 14.963C12.9516 14.814 13.021 14.7047 12.9708 14.5782L13.0092 14.3551C13.0127 14.3357 13.0196 14.3343 13.0299 14.3508C13.11 14.4797 13.3196 15.0235 12.961 14.963Z" fill="white"/>
<path d="M11.1815 14.543L11.2823 14.8505C11.2876 14.8668 11.2845 14.8812 11.273 14.8937C11.2355 14.9333 11.194 14.9433 11.1487 14.9236L11.1815 14.543Z" fill="#858BA4"/>
<path d="M12.9708 14.5782C13.021 14.7047 12.9516 14.814 12.961 14.963C12.9235 14.963 12.893 14.9504 12.8695 14.9251C12.8583 14.9132 12.8555 14.8996 12.8611 14.8843L12.9708 14.5782Z" fill="#858BA4"/>
<path d="M11.5153 14.926C11.4875 14.9262 11.4659 14.8954 11.4755 14.8693L11.5692 14.6147C11.5789 14.5885 11.5902 14.5877 11.603 14.6124L11.7239 14.8426C11.7423 14.8781 11.714 14.9261 11.6738 14.926H11.5153Z" fill="white"/>
<path d="M11.9208 14.9218C11.8989 14.9164 11.885 14.8899 11.8932 14.8688L11.9907 14.6157C11.9948 14.6041 12.013 14.6032 12.0183 14.6143L12.1458 14.8679C12.1527 14.8816 12.1458 14.9003 12.1317 14.9063C12.0649 14.9347 11.9946 14.9399 11.9208 14.9218Z" fill="white"/>
<path d="M12.3984 14.9358C12.3871 14.9302 12.3814 14.9158 12.3858 14.904L12.4828 14.6494C12.4922 14.6247 12.503 14.6241 12.5152 14.6476L12.6408 14.889C12.6464 14.8998 12.6428 14.9143 12.6328 14.9213C12.5591 14.9713 12.4809 14.9761 12.3984 14.9358Z" fill="white"/>
<path d="M10.4133 15.3244C10.3674 15.5972 10.3902 15.8692 10.4817 16.1405C10.4829 16.1428 10.483 16.1456 10.4821 16.148C10.4812 16.1505 10.4794 16.1525 10.4771 16.1536C10.4747 16.1547 10.472 16.1549 10.4695 16.154C10.4671 16.1531 10.465 16.1513 10.4639 16.1489C10.3689 15.9977 10.3152 15.8295 10.3027 15.6445C10.3017 15.628 10.2922 15.6208 10.2741 15.623C10.2594 15.6249 10.2525 15.6331 10.2535 15.6478C10.2813 16.05 10.4164 16.4108 10.6589 16.7302C10.6667 16.7405 10.6747 16.7463 10.6828 16.7475C10.6947 16.7494 10.7047 16.745 10.7128 16.7344L10.7494 16.8324C10.7585 16.8564 10.7533 16.8599 10.7339 16.8427C10.6749 16.7902 10.6135 16.7705 10.5619 16.7166C10.0953 16.2291 9.93111 15.6377 10.0692 14.9424C10.0704 14.9368 10.0732 14.9316 10.0773 14.9277C10.0815 14.9238 10.0867 14.9212 10.0924 14.9204C10.098 14.9196 10.1038 14.9205 10.1089 14.9231C10.114 14.9257 10.1181 14.9298 10.1208 14.9349C10.1974 15.0811 10.2949 15.211 10.4133 15.3244Z" fill="#1F2C45"/>
<path d="M12.0211 17.1384C12.2961 16.8853 12.4994 16.5923 12.631 16.2595C12.645 16.2244 12.6436 16.1709 12.6605 16.132C12.6733 16.102 12.6797 16.1033 12.6797 16.1358V16.3823C12.6797 16.4177 12.6892 16.4205 12.7083 16.3908C12.8355 16.1942 12.8839 15.9767 12.8536 15.7383C13.2708 15.572 13.5964 15.3011 13.8305 14.9255C13.832 14.9232 13.8341 14.9214 13.8366 14.9204C13.8391 14.9193 13.8418 14.9189 13.8445 14.9194C13.8472 14.9198 13.8497 14.921 13.8517 14.9229C13.8537 14.9247 13.8551 14.9271 13.8558 14.9297C14.0258 15.7137 13.8096 16.3548 13.2071 16.853C13.2047 16.855 13.2018 16.8562 13.1987 16.8564C13.1956 16.8566 13.1926 16.8557 13.1901 16.8539C13.1876 16.8521 13.1857 16.8495 13.1849 16.8465C13.1841 16.8435 13.1843 16.8403 13.1855 16.8375C13.2852 16.5775 13.2816 16.3181 13.1747 16.0594C13.1578 16.0181 13.1377 16.0166 13.1142 16.0547C12.8091 16.553 12.5958 16.9444 12.0211 17.1384Z" fill="#1F2C45"/>
<path d="M10.4133 15.3244C10.7511 15.6066 11.1309 15.7909 11.5528 15.8775L11.5555 15.877L11.5574 15.875L11.5576 15.8723L11.5561 15.87L10.9978 15.4777C10.9948 15.4753 10.9927 15.4719 10.9919 15.4682C10.9911 15.4644 10.9916 15.4605 10.9934 15.4571C10.9952 15.4537 10.9981 15.451 11.0016 15.4495C11.0052 15.4481 11.0091 15.4479 11.0128 15.4491C11.5041 15.6328 12.1936 15.5995 12.7027 15.5142C12.7627 15.5044 12.84 15.4702 12.9117 15.4556C12.9348 15.4509 12.9377 15.4567 12.9202 15.473C12.7555 15.6242 12.5745 15.7528 12.3773 15.8587L12.3727 15.862L12.3696 15.8668L12.3686 15.8724L12.3698 15.878L12.3731 15.8826L12.3779 15.8857L12.3835 15.8867L12.3891 15.8855L12.8536 15.7383C12.8839 15.9767 12.8355 16.1942 12.7083 16.3908C12.6892 16.4205 12.6797 16.4177 12.6797 16.3823V16.1358C12.6797 16.1033 12.6733 16.102 12.6605 16.132C12.6436 16.1709 12.645 16.2244 12.631 16.2595C12.4994 16.5923 12.2961 16.8853 12.0211 17.1384C11.9917 17.1706 11.9614 17.18 11.9302 17.1666C11.4195 16.9431 11.0422 16.5631 10.7981 16.0266C10.7894 16.0075 10.7805 16.0075 10.7714 16.0266C10.6617 16.255 10.6422 16.491 10.7128 16.7344C10.7047 16.745 10.6947 16.7494 10.6828 16.7475C10.6747 16.7463 10.6667 16.7405 10.6589 16.7302C10.4164 16.4108 10.2813 16.05 10.2535 15.6478C10.2525 15.6331 10.2594 15.6249 10.2741 15.623C10.2922 15.6208 10.3017 15.628 10.3027 15.6445C10.3152 15.8295 10.3689 15.9977 10.4639 16.1489C10.465 16.1513 10.4671 16.1531 10.4695 16.154C10.472 16.1549 10.4747 16.1547 10.4771 16.1536C10.4794 16.1525 10.4812 16.1505 10.4821 16.148C10.483 16.1456 10.4829 16.1428 10.4817 16.1405C10.3902 15.8692 10.3674 15.5972 10.4133 15.3244Z" fill="#333C56"/>
<path d="M10.4266 15.3095C10.31 15.1977 10.214 15.0697 10.1385 14.9256L10.1385 14.9256L10.1385 14.9255C10.1339 14.9168 10.1267 14.9098 10.1179 14.9053C10.1092 14.9008 10.0992 14.8992 10.0895 14.9006C10.0798 14.902 10.0707 14.9064 10.0636 14.9132C10.0564 14.92 10.0516 14.9288 10.0496 14.9384L10.0496 14.9385C9.9103 15.6398 10.0761 16.2379 10.5474 16.7304C10.5751 16.7593 10.6052 16.7788 10.6345 16.7971C10.6368 16.7986 10.6392 16.8 10.6415 16.8015C10.6686 16.8184 10.6948 16.8347 10.7206 16.8576L10.7207 16.8576C10.7258 16.8622 10.7311 16.8664 10.736 16.8691C10.7384 16.8705 10.7418 16.8721 10.7459 16.8729C10.7499 16.8737 10.7568 16.8741 10.7634 16.8696C10.7701 16.8651 10.7725 16.8586 10.7733 16.8544C10.774 16.8503 10.7737 16.8465 10.7733 16.8437L10.4266 15.3095ZM10.4266 15.3095C10.7412 15.5721 11.0922 15.7492 11.4799 15.8409L10.9863 15.494L10.9855 15.4934L10.9855 15.4934C10.9788 15.4882 10.9741 15.4807 10.9723 15.4724C10.9705 15.4641 10.9717 15.4554 10.9757 15.4478C10.9796 15.4402 10.9861 15.4343 10.994 15.4311C11.0019 15.4278 11.0107 15.4274 11.0188 15.43L11.0198 15.4303L11.0198 15.4303C11.506 15.6122 12.1912 15.5797 12.6994 15.4945L12.6994 15.4945C12.7276 15.4898 12.7605 15.4794 12.7966 15.4676L12.7997 15.4667C12.8344 15.4554 12.8716 15.4433 12.9078 15.436C12.9141 15.4347 12.9204 15.4338 12.9261 15.4341C12.9289 15.4342 12.9327 15.4346 12.9366 15.4362C12.9407 15.4378 12.946 15.4412 12.9492 15.4477C12.9523 15.4541 12.9517 15.4603 12.9506 15.4643C12.9495 15.4682 12.9477 15.4715 12.9461 15.4738C12.943 15.4785 12.9385 15.4832 12.9338 15.4876L12.9337 15.4877C12.7812 15.6278 12.6148 15.7485 12.4347 15.85L12.8469 15.7194C13.2599 15.5547 13.5819 15.2866 13.8135 14.9149L13.8138 14.9144L13.8138 14.9144C13.8175 14.9089 13.8226 14.9046 13.8286 14.902C13.8347 14.8994 13.8413 14.8986 13.8478 14.8997C13.8543 14.9007 13.8603 14.9037 13.8652 14.9081C13.87 14.9125 13.8735 14.9183 13.8752 14.9246L13.8754 14.9254L13.8754 14.9254C13.961 15.3203 13.9495 15.6804 13.8401 16.0049C13.7306 16.3295 13.5235 16.6173 13.2198 16.8684L13.2071 16.853M10.4266 15.3095L13.1656 16.8519C13.1677 16.8592 13.1722 16.8657 13.1784 16.8701C13.1846 16.8746 13.1922 16.8768 13.1998 16.8764C13.2074 16.876 13.2147 16.873 13.2204 16.8679L13.2071 16.853M13.2071 16.853C13.2047 16.855 13.2018 16.8562 13.1987 16.8564C13.1956 16.8566 13.1926 16.8557 13.1901 16.8539C13.1876 16.8521 13.1857 16.8495 13.1849 16.8465C13.1841 16.8435 13.1843 16.8403 13.1855 16.8375L12.8728 15.7305C13.2808 15.5637 13.6 15.2953 13.8305 14.9255C13.832 14.9232 13.8341 14.9214 13.8366 14.9204C13.8391 14.9193 13.8418 14.9189 13.8445 14.9194C13.8472 14.9198 13.8497 14.921 13.8517 14.9229C13.8537 14.9247 13.8551 14.9271 13.8558 14.9297C14.0258 15.7137 13.8096 16.3548 13.2071 16.853ZM13.1313 16.0651C13.115 16.0917 13.099 16.1179 13.0832 16.1439C12.8035 16.6029 12.5803 16.969 12.0323 17.1558C12.017 17.1716 12.0004 17.1831 11.9822 17.1887C11.9622 17.1949 11.9419 17.1934 11.9223 17.1849L11.9221 17.1849C11.41 16.9608 11.0308 16.5805 10.7847 16.0452C10.6814 16.2659 10.6639 16.4932 10.7318 16.7281L10.7681 16.8253L13.1313 16.0651ZM13.1313 16.0651C13.1366 16.0565 13.1409 16.0515 13.1441 16.0489C13.1445 16.0484 13.145 16.0481 13.1453 16.0479C13.1456 16.0482 13.1459 16.0485 13.1463 16.049C13.1489 16.052 13.1524 16.0576 13.1562 16.0669L13.1562 16.067C13.2611 16.321 13.2647 16.575 13.1669 16.8301C13.1669 16.8302 13.1669 16.8303 13.1668 16.8303L13.1313 16.0651ZM10.7981 16.0266C10.7894 16.0075 10.7805 16.0075 10.7714 16.0266L10.7778 16.0308L10.7771 16.0297C10.777 16.0296 10.777 16.0296 10.7769 16.0295C10.7769 16.0294 10.7769 16.0294 10.7769 16.0294L10.7773 16.0298L10.7788 16.0308C10.7798 16.0313 10.7813 16.0319 10.783 16.0321C10.7831 16.0321 10.7831 16.0321 10.7832 16.0322C10.7837 16.0322 10.7843 16.0323 10.7849 16.0323C10.7851 16.0323 10.7854 16.0323 10.7856 16.0322L10.7981 16.0266ZM10.7981 16.0266L10.7858 16.0322L10.7981 16.0266ZM10.7517 16.8315C10.7506 16.8307 10.7494 16.8296 10.7479 16.8283L10.7517 16.8315ZM10.0773 14.9277C10.0732 14.9316 10.0704 14.9368 10.0692 14.9424L10.1208 14.9349C10.1181 14.9298 10.114 14.9257 10.1089 14.9231C10.1038 14.9205 10.098 14.9196 10.0924 14.9204C10.0867 14.9212 10.0815 14.9238 10.0773 14.9277Z" stroke="#192339" stroke-width="0.04"/>
</svg>
