<svg width="24" height="24" viewBox="0 0 24 24" fill="none" xmlns="http://www.w3.org/2000/svg">
<circle cx="12.0002" cy="12" r="12" fill="#121212"/>
<path d="M12.0002 2C10.0224 2 8.08896 2.58649 6.44447 3.6853C4.79998 4.78412 3.51825 6.34591 2.76138 8.17317C2.0045 10.0004 1.80647 12.0111 2.19232 13.9509C2.57817 15.8907 3.53058 17.6725 4.9291 19.0711C6.32763 20.4696 8.10946 21.422 10.0493 21.8079C11.9891 22.1937 13.9997 21.9957 15.827 21.2388C17.6543 20.4819 19.2161 19.2002 20.3149 17.5557C21.4137 15.9112 22.0002 13.9778 22.0002 12C22.0005 10.6867 21.7421 9.38616 21.2397 8.17274C20.7373 6.95932 20.0007 5.85679 19.072 4.92813C18.1434 3.99947 17.0409 3.26289 15.8274 2.76047C14.614 2.25805 13.3135 1.99964 12.0002 2ZM5.90017 17.175C3.87517 10.8 3.00017 14.65 3.00017 12C2.99649 10.5384 3.34984 9.09793 4.02952 7.80393C4.7092 6.50992 5.69464 5.4015 6.90017 4.575C7.07517 4.45 7.27517 4.675 7.20017 4.85C6.9055 5.5286 6.75237 6.26019 6.75017 7C6.75004 7.94701 7.00544 8.87652 7.48943 9.69051C7.97343 10.5045 8.66809 11.1728 9.50017 11.625C10.8002 12.325 12.2502 13.175 12.1752 14.65C12.1002 16.2 11.4752 17.775 10.0252 18.625C9.52597 18.9009 8.98579 19.095 8.42517 19.2C7.22517 19.375 6.27517 18.35 5.90017 17.175ZM19.5252 14.7C15.0002 19.65 18.8002 18.475 16.5002 19.8C15.2346 20.5275 13.8114 20.9371 12.3527 20.9937C10.894 21.0503 9.44335 20.7522 8.12517 20.125C8.0952 20.1065 8.07033 20.0808 8.05286 20.0503C8.03539 20.0197 8.02587 19.9852 8.02517 19.95C8.02229 19.9218 8.0253 19.8934 8.034 19.8665C8.0427 19.8395 8.0569 19.8147 8.0757 19.7935C8.09451 19.7724 8.11751 19.7554 8.14324 19.7436C8.16897 19.7318 8.19687 19.7254 8.22517 19.725C8.95678 19.6492 9.664 19.4192 10.3002 19.05C11.1194 18.5745 11.7955 17.8871 12.2574 17.0601C12.7193 16.2331 12.9499 15.2969 12.9252 14.35C12.8752 12.875 12.9002 11.175 14.2252 10.525C15.6002 9.825 17.3002 9.575 18.7252 10.4C19.2128 10.6972 19.6513 11.0683 20.0252 11.5C20.8002 12.45 20.3502 13.775 19.5252 14.7ZM20.5752 11.425C19.7982 10.3535 18.6443 9.61606 17.3456 9.36096C16.0469 9.10585 14.6997 9.35204 13.5752 10.05C12.3252 10.825 10.8502 11.65 9.60017 10.85C8.30017 10 7.25017 8.65 7.25017 7C7.25657 6.42663 7.36668 5.85916 7.57517 5.325C8.00017 4.15 9.37517 3.875 10.5752 4.125C17.1002 5.55 14.2002 2.875 16.5002 4.2C17.7699 4.92713 18.8419 5.95468 19.6221 7.19255C20.4023 8.43041 20.8669 9.84079 20.9752 11.3C20.9767 11.3356 20.9682 11.371 20.9505 11.402C20.9328 11.4329 20.9067 11.4583 20.8752 11.475C20.8276 11.5043 20.771 11.5155 20.7158 11.5063C20.6606 11.4971 20.6107 11.4682 20.5752 11.425Z" fill="url(#paint0_linear_927_5755)"/>
<defs>
<linearGradient id="paint0_linear_927_5755" x1="5.62092" y1="2.9095" x2="18.4209" y2="21.1495" gradientUnits="userSpaceOnUse">
<stop stop-color="#FCECB2"/>
<stop offset="0.26" stop-color="#FF8B89"/>
<stop offset="0.52" stop-color="#FC8ADC"/>
<stop offset="0.76" stop-color="#7954FF"/>
<stop offset="1" stop-color="#70BCFF"/>
</linearGradient>
</defs>
</svg>
