<svg width="24" height="24" viewBox="0 0 24 24" fill="none" xmlns="http://www.w3.org/2000/svg">
<circle cx="12" cy="12" r="12" fill="#2B5EBB"/>
<path fill-rule="evenodd" clip-rule="evenodd" d="M21 11.9659C20.9991 14.0683 19.371 15.7081 17.2902 15.7018C15.2526 15.6955 13.5984 14.0107 13.6092 11.9524C13.62 9.89497 15.2922 8.21737 17.319 8.23087C19.3881 8.24437 21.0009 9.88147 21 11.9659ZM5.78101 19.1281C5.42138 19.1283 5.06527 19.0572 4.73334 18.9188C4.40141 18.7804 4.10026 18.5775 3.84734 18.3218C3.59443 18.0661 3.39479 17.7628 3.26 17.4293C3.12521 17.0959 3.05794 16.7391 3.06211 16.3795C3.06661 14.8441 4.26721 13.603 5.77651 13.6381C6.21031 13.648 6.64591 13.81 7.06891 13.9423C7.67011 14.1304 8.25691 14.3635 8.85631 14.5597C9.22801 14.6821 9.58351 14.5957 9.91201 14.3923C10.389 14.0953 10.794 13.7371 11.0523 13.2115C11.3133 12.6769 11.9073 12.478 12.4356 12.7048C12.9252 12.9154 13.1799 13.4491 13.0386 13.9675C12.8793 14.5498 12.3996 14.863 11.802 14.7586C11.2719 14.6659 10.7463 14.4949 10.2081 14.6902C9.24511 15.0403 8.82211 15.8377 8.50531 16.7476C8.33251 17.2453 8.14891 17.7682 7.83931 18.1786C7.34251 18.841 6.61171 19.1317 5.78101 19.1281ZM5.72341 4.87387C6.95371 4.87387 7.91221 5.59387 8.32981 6.77917C8.49541 7.24717 8.74381 7.68547 8.95621 8.13637C9.48091 9.25237 10.7976 9.36217 11.6328 9.05707C12.3726 8.78707 13.0854 9.26227 13.1025 10.0291C13.1142 10.5601 12.8415 10.9471 12.3429 11.1037C11.9019 11.2405 11.4051 11.0542 11.1351 10.6519C11.0388 10.5079 10.9488 10.3585 10.8417 10.2226C10.1073 9.29557 9.29191 9.05257 8.18671 9.46837C7.80151 9.61237 7.44061 9.82837 7.07881 10.0291C6.75189 10.2153 6.38985 10.3315 6.01564 10.3705C5.64143 10.4094 5.26321 10.3702 4.90496 10.2553C4.5467 10.1404 4.21623 9.95229 3.93448 9.70296C3.65272 9.45363 3.42584 9.14849 3.26821 8.80687C2.40781 6.97987 3.72181 4.87387 5.72341 4.87387ZM14.3004 19.1911C14.2896 20.1982 13.4679 21.0181 12.4869 21.0001C11.5392 20.9821 10.7472 20.1658 10.7229 19.2478C10.6968 18.2092 11.46 17.3641 12.5211 17.3542C13.5363 17.3443 14.3121 18.1813 14.3013 19.1902L14.3004 19.1911ZM10.7346 4.81807C10.7346 3.79927 11.532 2.99107 12.5301 3.00007C13.5003 3.00907 14.3121 3.83977 14.304 4.81627C14.2968 5.84317 13.5282 6.66667 12.5166 6.64777C11.3655 6.62617 10.6878 5.69827 10.7346 4.81807Z" fill="white"/>
</svg>
