<svg width="24" height="24" viewBox="0 0 24 24" fill="none" xmlns="http://www.w3.org/2000/svg">
<g clip-path="url(#clip0_2311_6367)">
<path d="M12 24C18.6274 24 24 18.6274 24 12C24 5.37258 18.6274 0 12 0C5.37258 0 0 5.37258 0 12C0 18.6274 5.37258 24 12 24Z" fill="#252525"/>
<path d="M8.16663 17.9148L7.90268 18.0667L7.90289 17.7626C7.90289 17.7626 7.89919 17.9181 7.96951 17.957C8.03838 17.9951 8.16663 17.9148 8.16663 17.9148Z" fill="#8E3315"/>
<path d="M1.39252 17.6005C2.88026 20.4086 5.42485 22.5115 8.46638 23.447C11.508 24.3826 14.7973 24.0739 17.611 22.5889C20.4246 21.1038 22.532 18.564 23.4696 15.5283C24.4071 12.4925 24.0916 9.20937 22.6039 6.40125C23.9454 10.6215 19.2747 12.104 19.2747 12.104L7.74657 18.1114C7.74657 18.1114 3.74244 20.6842 1.39252 17.6005Z" fill="#473ADE"/>
<path d="M1.37146 17.622C2.8592 20.4302 5.40374 22.5334 8.44532 23.4689C11.4868 24.4045 14.7763 24.0958 17.5899 22.6107C20.4036 21.1257 22.511 18.5859 23.4485 15.5502C24.3861 12.5145 24.0769 9.23135 22.5892 6.42322C23.9307 10.6434 19.2536 12.1259 19.2536 12.1259L7.72551 18.1333C7.72551 18.1333 3.72133 20.7057 1.37146 17.622Z" fill="url(#paint0_linear_2311_6367)"/>
<path d="M19.1242 11.8124L19.5606 12.0241L19.1 12.2086C19.1 12.2086 19.2976 12.1154 19.3212 12.0241C19.3443 11.9347 19.1242 11.8124 19.1242 11.8124Z" fill="#251E73"/>
<path d="M22.6766 17.4761C24.1294 14.6498 24.3978 11.3632 23.4227 8.33926C22.4476 5.31534 20.3089 2.80178 17.477 1.35162C14.6452 -0.0986034 11.3522 -0.366635 8.32247 0.606421C5.29272 1.57948 2.77446 3.71396 1.32166 6.54025C4.01754 3.02423 7.91536 6.00002 7.91536 6.00002L19.4546 11.986C19.4546 11.986 23.8615 13.7867 22.6766 17.4761Z" fill="#D71D6A"/>
<path d="M22.6478 17.4637C24.0963 14.6458 24.3639 11.369 23.3917 8.35406C22.4195 5.33915 20.2871 2.83308 17.4637 1.38724C14.6403 -0.0586641 11.3571 -0.325916 8.33641 0.644279C5.31569 1.61442 2.80493 3.7425 1.35645 6.56041C4.0443 3.05486 7.9305 6.0218 7.9305 6.0218L19.4354 11.99C19.4354 11.99 23.8292 13.7853 22.6478 17.4637Z" fill="url(#paint1_linear_2311_6367)"/>
<path d="M7.90434 6.28313L7.89938 5.96472L8.17814 6.11968C8.17814 6.11968 8.03743 6.03715 7.96601 6.08159C7.89605 6.12515 7.90434 6.28313 7.90434 6.28313Z" fill="#741039"/>
<path d="M12 0.02771C8.81741 0.02771 5.76514 1.28967 3.51469 3.53602C1.26424 5.78238 0 8.82903 0 12.0058C0 15.1827 1.26424 18.2293 3.51469 20.4757C5.76514 22.722 8.81324 23.9779 11.9958 23.9779C7.91122 23.2934 7.91534 18.0176 7.91534 18.0176V5.8878C7.91534 5.8878 7.91534 0.757398 12 0.02771Z" fill="#FF5B25"/>
<path d="M12 -0.00012207C8.81741 -0.00012207 5.76514 1.26183 3.51469 3.50819C1.26424 5.75449 0 8.8012 0 11.978C0 15.1548 1.26424 18.2015 3.51469 20.4479C5.76514 22.6942 8.81324 23.9779 11.9958 23.9779C7.91122 22.6753 7.91534 18.0243 7.91534 18.0243L7.91536 6.00002C7.91536 6.00002 7.76676 0.776085 12 -0.00012207Z" fill="url(#paint2_linear_2311_6367)"/>
<path d="M12 -0.00012207C8.81741 -0.00012207 5.76514 1.26183 3.51469 3.50819C1.26424 5.75449 0 8.8012 0 11.978C0 15.1548 1.26424 18.2015 3.51469 20.4479C5.76514 22.6942 8.81324 23.9779 11.9958 23.9779C7.91122 22.6753 7.91534 18.0243 7.91534 18.0243L7.91536 6.00002C7.91536 6.00002 7.76676 0.776085 12 -0.00012207Z" fill="url(#paint3_linear_2311_6367)" fill-opacity="0.3"/>
<path d="M11.9958 23.9779C7.94271 22.1352 7.92015 18.023 7.92015 18.023C7.92015 18.023 2.89655 20.8514 1.20538 17.2338C1.20538 17.2338 4.06777 24.0019 11.9958 23.9779Z" fill="#473ADE"/>
</g>
<defs>
<linearGradient id="paint0_linear_2311_6367" x1="22.5235" y1="5.75835" x2="-0.476609" y2="23.4457" gradientUnits="userSpaceOnUse">
<stop stop-opacity="0.6"/>
<stop offset="0.655513" stop-opacity="0"/>
</linearGradient>
<linearGradient id="paint1_linear_2311_6367" x1="3.66371" y1="5.62907" x2="29.5467" y2="9.28885" gradientUnits="userSpaceOnUse">
<stop stop-opacity="0.6"/>
<stop offset="0.645833" stop-opacity="0"/>
</linearGradient>
<linearGradient id="paint2_linear_2311_6367" x1="12.8527" y1="22.4924" x2="9.01587" y2="-1.1668" gradientUnits="userSpaceOnUse">
<stop stop-opacity="0.6"/>
<stop offset="0.675464" stop-opacity="0"/>
</linearGradient>
<linearGradient id="paint3_linear_2311_6367" x1="12.8527" y1="22.4924" x2="9.01587" y2="-1.1668" gradientUnits="userSpaceOnUse">
<stop stop-opacity="0.6"/>
<stop offset="0.675464" stop-opacity="0"/>
</linearGradient>
<clipPath id="clip0_2311_6367">
<rect width="24" height="24" fill="white"/>
</clipPath>
</defs>
</svg>
