<svg width="24" height="24" viewBox="0 0 24 24" fill="none" xmlns="http://www.w3.org/2000/svg">
<g clip-path="url(#clip0_2174_6524_fluid)">
<path d="M12 23.7C18.4618 23.7 23.7 18.4617 23.7 12C23.7 5.53826 18.4618 0.299988 12 0.299988C5.53832 0.299988 0.300049 5.53826 0.300049 12C0.300049 18.4617 5.53832 23.7 12 23.7Z" fill="white" stroke="#F6F9FF" stroke-width="0.6"/>
<path d="M20 12.032V12.16C19.92 16.528 16.208 20 11.84 20H7.248C7.248 20 7.248 19.984 7.248 19.952C7.184 19.456 6.976 14.96 15.904 14.768C18.752 14.688 19.856 13.568 20 12.032Z" fill="url(#paint0_linear_2174_6524_fluid)"/>
<path d="M20 12.0001C19.856 13.5681 18.752 14.6881 15.92 14.7361C6.95996 14.9441 7.19996 19.4401 7.26396 19.9201C7.07196 18.6721 7.10396 15.9681 10.544 14.4801C12.032 13.8241 13.28 13.2801 14.256 12.7841C14.624 12.6081 14.928 12.4001 15.248 12.1441C18.352 9.60005 16.368 5.40805 16.288 5.24805C16.784 5.55205 17.248 5.93605 17.648 6.33605C18.368 7.05605 18.928 7.90405 19.328 8.81605C19.344 8.86405 19.344 8.88005 19.36 8.89605C19.44 9.10405 19.504 9.28005 19.584 9.47205C19.6 9.52005 19.632 9.56805 19.632 9.61605C19.872 10.3841 20 11.1841 20 12.0001Z" fill="url(#paint1_linear_2174_6524_fluid)"/>
<path opacity="0.8" d="M20 12.0001C19.856 13.5681 18.752 14.6881 15.92 14.7361C6.95996 14.9441 7.19996 19.4401 7.26396 19.9201C7.07196 18.6721 7.10396 15.9681 10.544 14.4801C12.032 13.8241 13.28 13.2801 14.256 12.7841C14.624 12.6081 14.928 12.4001 15.248 12.1441C18.352 9.60005 16.368 5.40805 16.288 5.24805C16.784 5.55205 17.248 5.93605 17.648 6.33605C18.368 7.05605 18.928 7.90405 19.328 8.81605C19.344 8.86405 19.344 8.88005 19.36 8.89605C19.44 9.10405 19.504 9.28005 19.584 9.47205C19.6 9.52005 19.632 9.56805 19.632 9.61605C19.872 10.3841 20 11.1841 20 12.0001Z" fill="url(#paint2_linear_2174_6524_fluid)"/>
<path opacity="0.7" d="M15.488 13.968C10.512 14.496 8.43201 16.992 8.43201 16.992C9.56801 15.872 11.728 14.848 15.888 14.768C18.72 14.704 19.824 13.584 19.968 12.048V12.032C19.968 11.232 19.84 10.432 19.616 9.64795C19.6 9.59995 19.568 9.56795 19.568 9.50395C19.6 9.48795 20.48 13.424 15.488 13.968Z" fill="url(#paint3_linear_2174_6524_fluid)"/>
<path d="M12.64 10.4001C13.008 10.4961 13.536 10.6561 13.696 11.0561C13.856 11.4561 13.44 11.7921 13.152 12.0001C11.632 13.1041 6.73597 13.9201 4.73597 16.3521C4.43197 16.6881 4.20797 17.0721 4.06396 17.4881V12.8641C4.33597 9.77606 7.66397 8.86406 10.992 6.89606C15.648 4.12805 12.048 4.01605 12.048 4.01605C12.768 4.01605 13.488 4.09605 14.176 4.30405C14.416 4.38405 14.624 4.52805 14.784 4.70405C15.52 5.64805 14.048 6.70406 13.408 7.16806C12.32 7.90406 9.63197 9.48806 12.64 10.4001Z" fill="url(#paint4_linear_2174_6524_fluid)"/>
<path opacity="0.7" d="M5.888 15.168C5.056 13.712 5.28 11.888 6.448 10.656C7.648 9.39202 9.32801 8.48002 11.248 7.16802C13.168 5.85602 13.552 5.15202 13.28 4.52802C13.28 4.52802 13.28 4.52802 13.28 4.54402C13.408 4.96002 12.96 5.66402 10.912 6.88002C7.6 8.86402 4.272 9.76002 4 12.848C4 12.848 4 12.848 4 12.864V17.488C4.16 17.072 4.384 16.688 4.672 16.352C5.04 15.936 5.472 15.552 5.936 15.232C5.92 15.184 5.92 15.184 5.888 15.168Z" fill="url(#paint5_linear_2174_6524_fluid)"/>
<path d="M10.96 6.88C7.63199 8.864 4.31998 9.76001 4.03198 12.848V11.984C4.03198 7.584 7.61599 4 12.016 4C12.016 4.016 15.616 4.112 10.96 6.88Z" fill="url(#paint6_linear_2174_6524_fluid)"/>
<path d="M10.96 6.88C7.63199 8.864 4.31998 9.76001 4.03198 12.848V11.984C4.03198 7.584 7.61599 4 12.016 4C12.016 4.016 15.616 4.112 10.96 6.88Z" fill="url(#paint7_linear_2174_6524_fluid)"/>
</g>
<defs>
<linearGradient id="paint0_linear_2174_6524_fluid" x1="7.15219" y1="20.2553" x2="14.7788" y2="10.7064" gradientUnits="userSpaceOnUse">
<stop stop-color="#1C95F3"/>
<stop offset="1" stop-color="#00F9FF"/>
</linearGradient>
<linearGradient id="paint1_linear_2174_6524_fluid" x1="10.1598" y1="16.6773" x2="24.3988" y2="6.39001" gradientUnits="userSpaceOnUse">
<stop stop-color="#1C95F3"/>
<stop offset="1" stop-color="#00F9FF"/>
</linearGradient>
<linearGradient id="paint2_linear_2174_6524_fluid" x1="10.1598" y1="16.6773" x2="24.3988" y2="6.39001" gradientUnits="userSpaceOnUse">
<stop stop-color="#38AACF"/>
<stop offset="0.438" stop-color="#49A1DC" stop-opacity="0.588"/>
<stop offset="1" stop-color="#6096EF" stop-opacity="0.031"/>
</linearGradient>
<linearGradient id="paint3_linear_2174_6524_fluid" x1="20.4434" y1="11.0008" x2="10.9429" y2="25.1039" gradientUnits="userSpaceOnUse">
<stop stop-color="#38AACF"/>
<stop offset="0.438" stop-color="#49A1DC" stop-opacity="0.588"/>
<stop offset="1" stop-color="#6096EF" stop-opacity="0.031"/>
</linearGradient>
<linearGradient id="paint4_linear_2174_6524_fluid" x1="4.52317" y1="14.223" x2="24.7821" y2="3.96418" gradientUnits="userSpaceOnUse">
<stop stop-color="#2EC6BA"/>
<stop offset="1" stop-color="#2BEE9E"/>
</linearGradient>
<linearGradient id="paint5_linear_2174_6524_fluid" x1="9.07332" y1="7.99752" x2="-0.599473" y2="15.5175" gradientUnits="userSpaceOnUse">
<stop stop-color="#38AACF"/>
<stop offset="0.438" stop-color="#49A1DC" stop-opacity="0.588"/>
<stop offset="1" stop-color="#6096EF" stop-opacity="0.031"/>
</linearGradient>
<linearGradient id="paint6_linear_2174_6524_fluid" x1="3.25688" y1="11.4219" x2="11.3341" y2="3.67778" gradientUnits="userSpaceOnUse">
<stop stop-color="#2EC6BA"/>
<stop offset="1" stop-color="#2BEE9E"/>
</linearGradient>
<linearGradient id="paint7_linear_2174_6524_fluid" x1="1.52928" y1="12.5133" x2="11.2318" y2="3.87732" gradientUnits="userSpaceOnUse">
<stop stop-color="#70F6CF" stop-opacity="0"/>
<stop offset="1" stop-color="#8FFFC3"/>
</linearGradient>
<clipPath id="clip0_2174_6524_fluid">
<rect width="24" height="24" fill="white"/>
</clipPath>
</defs>
</svg>
