<svg width="24" height="24" viewBox="0 0 24 24" fill="none" xmlns="http://www.w3.org/2000/svg">
<circle cx="12.0002" cy="12" r="12" fill="#172852"/>
<path d="M10.3318 16.3337C10.7818 17.9987 12.3964 19.2689 13.2118 19.2162C13.2404 19.2144 16.3044 18.6431 17.9818 15.8412C19.2868 13.6603 18.8427 11.5547 17.0674 11.5088C16.4286 11.5554 9.47478 13.1624 10.3323 16.3342L10.3318 16.3337ZM16.9018 5.64061L16.9 5.63904L16.9025 5.63746C15.7843 4.68634 14.4201 4.07048 12.9671 3.86085C11.5141 3.65123 10.0315 3.85636 8.68998 4.45261C8.52122 4.52329 8.35683 4.60398 8.19768 4.69426C8.08833 4.75254 7.97898 4.81059 7.87278 4.87426L7.89866 4.88236C7.58466 5.09612 7.307 5.35888 7.07628 5.66064C4.83888 8.61466 12.3345 10.7625 16.3427 10.769C18.1857 12.0925 18.7032 7.04281 16.9018 5.64061Z" fill="#0E3CA5"/>
<path d="M9.14269 5.7C8.11287 7.24823 4.68274 8.3388 4.11867 8.16893L4.11484 8.16173C4.13734 8.11515 4.16142 8.06858 4.18527 8.02245C4.77021 6.8958 5.60716 5.91925 6.63102 5.16878C6.84207 5.01398 7.06054 4.8693 7.28644 4.73475C7.63406 4.54288 8.02344 4.4392 8.42044 4.4328C9.94797 4.46205 9.15034 5.6883 9.14202 5.70068L9.14269 5.7ZM8.29759 16.6382C8.37162 17.1244 8.29579 19.0457 8.19634 19.2072C8.11062 19.2124 7.93219 19.2234 7.41537 18.9334C5.76507 17.9917 4.49185 16.5076 3.8122 14.7333C3.13255 12.9589 3.08843 11.004 3.68734 9.20078C3.71479 9.11813 3.74352 9.03615 3.77352 8.95485C4.36549 9.74235 5.05062 10.4547 5.63292 11.2499C6.18754 12.007 6.95052 13.2416 7.10577 13.5053C8.06967 15.1426 8.22334 16.1528 8.29692 16.6384L8.29759 16.6382ZM19.6927 11.7975C19.6938 12.8295 19.4998 13.8525 19.121 14.8125C18.1535 15.852 11.6323 13.2931 11.5684 13.265C10.6763 12.8744 7.96144 11.685 7.71642 9.8175C7.36519 7.12898 12.8169 5.25608 15.2132 5.1852C15.5005 5.18858 16.3749 5.1987 16.8847 5.6127C17.7678 6.38287 18.4754 7.33349 18.9598 8.40041C19.4442 9.46734 19.6941 10.6258 19.6927 11.7975ZM15.278 19.0801C14.5672 19.412 13.7844 19.1701 13.9878 18.478C14.3782 17.1485 17.7872 15.7854 18.54 15.7125C18.633 15.7033 18.6723 15.7665 18.6312 15.8387C17.8468 17.2179 16.6833 18.3431 15.2787 19.081" fill="#5493F7"/>
<path d="M6.90101 20.3822C6.89092 20.5323 6.94017 20.6804 7.03817 20.7946C7.13617 20.9088 7.2751 20.98 7.42504 20.9928C14.3325 21.0401 21.0002 20.7228 21.0002 19.6878C21.0002 16.5549 6.90101 20.3822 6.90101 20.3822Z" fill="url(#paint0_linear_927_5230)"/>
<path d="M6.901 20.3822C6.89081 20.5328 6.94039 20.6813 7.03898 20.7956C7.13758 20.9099 7.27725 20.9808 7.42772 20.9928C14.333 21.0452 20.9918 20.8283 21.0002 19.6878C21.0002 16.5549 6.901 20.3822 6.901 20.3822ZM7.42795 20.953C7.40953 20.953 7.39112 20.9519 7.37282 20.9498C7.26756 20.9351 7.16898 20.8896 7.08945 20.8191C7.00992 20.7486 6.95298 20.6561 6.92575 20.5534C6.95529 20.6647 7.02013 20.7635 7.11056 20.8349C7.20098 20.9063 7.3121 20.9465 7.42727 20.9494C14.328 20.9062 20.8919 18.7815 20.8919 19.7171C20.8919 20.672 14.3285 21 7.42795 20.953Z" fill="url(#paint1_linear_927_5230)"/>
<path d="M7.4284 11.5102C7.28853 11.5102 7.15438 11.5658 7.05547 11.6647C6.95657 11.7636 6.901 11.8977 6.901 12.0376V20.3822C6.90082 20.5215 6.95585 20.6553 7.05405 20.7543C7.15226 20.8532 7.28564 20.9092 7.42503 20.91C14.3321 20.8583 21.0085 18.5718 21.0002 19.6878V10.29C21.0085 9.17266 14.3343 11.4587 7.4284 11.5102Z" fill="url(#paint2_linear_927_5230)"/>
<path d="M7.4284 11.5102C7.28853 11.5102 7.15438 11.5658 7.05547 11.6647C6.95657 11.7636 6.901 11.8977 6.901 12.0376V16.2136C7.171 16.2136 7.43448 16.2105 7.69143 16.2044C7.94838 16.1982 8.20008 16.1907 8.44653 16.1819C8.69253 16.1729 8.93373 16.1618 9.17013 16.1486C9.40653 16.1354 9.63865 16.1204 9.8665 16.1036C10.0944 16.0865 10.3178 16.0678 10.5383 16.0478C10.7588 16.0277 10.9762 16.0073 11.1908 15.9857C11.4055 15.9641 11.6184 15.9407 11.8267 15.9182C12.035 15.8957 12.2423 15.8698 12.4482 15.8444C12.654 15.8189 12.8588 15.7931 13.0624 15.7661C13.266 15.7391 13.4674 15.7107 13.6699 15.6812C13.8724 15.6518 14.0713 15.6203 14.2731 15.5892C14.4749 15.5582 14.6781 15.5269 14.8806 15.4947C15.0831 15.4625 15.2876 15.4301 15.4922 15.3957C15.6967 15.3613 15.9021 15.3253 16.1109 15.2897C16.3197 15.2542 16.5303 15.2175 16.7441 15.1806C16.9578 15.1437 17.174 15.1066 17.393 15.0681C17.6119 15.0296 17.8342 14.99 18.0605 14.952C18.2869 14.914 18.5175 14.8766 18.752 14.8411C18.9864 14.8055 19.202 14.7736 19.4945 14.7367C19.8133 14.6912 20.1354 14.6741 20.4572 14.6854C20.7601 14.7045 21.0002 14.7812 21.0002 14.9925V10.29C21.0085 9.17266 14.3343 11.4587 7.4284 11.5102Z" fill="url(#paint3_linear_927_5230)"/>
<defs>
<linearGradient id="paint0_linear_927_5230" x1="6.90101" y1="19.7263" x2="21.0002" y2="19.7263" gradientUnits="userSpaceOnUse">
<stop stop-color="#808080"/>
<stop offset="0.327" stop-color="#838383"/>
<stop offset="0.59" stop-color="#8D8D8D"/>
<stop offset="0.83" stop-color="#9E9E9E"/>
<stop offset="1" stop-color="#AFAFAF"/>
</linearGradient>
<linearGradient id="paint1_linear_927_5230" x1="13.9507" y1="18.4553" x2="13.9507" y2="21" gradientUnits="userSpaceOnUse">
<stop offset="0.35" stop-color="#DFDFDF"/>
<stop offset="0.645" stop-color="#DDDDDD"/>
<stop offset="0.752" stop-color="#D6D6D6"/>
<stop offset="0.828" stop-color="#CBCBCB"/>
<stop offset="0.889" stop-color="#BABABA"/>
<stop offset="0.941" stop-color="#A4A4A4"/>
<stop offset="0.987" stop-color="#898989"/>
<stop offset="1" stop-color="#808080"/>
</linearGradient>
<linearGradient id="paint2_linear_927_5230" x1="6.901" y1="15.4457" x2="21.0002" y2="15.4457" gradientUnits="userSpaceOnUse">
<stop stop-color="#DFDFDF"/>
<stop offset="0.021" stop-color="#E1E1E1"/>
<stop offset="0.244" stop-color="#F2F2F2"/>
<stop offset="0.487" stop-color="#FCFCFC"/>
<stop offset="0.791" stop-color="white"/>
<stop offset="0.841" stop-color="#FCFCFC"/>
<stop offset="0.882" stop-color="#F2F2F2"/>
<stop offset="0.919" stop-color="#E1E1E1"/>
<stop offset="0.954" stop-color="#C9C9C9"/>
<stop offset="0.966" stop-color="#BFBFBF"/>
<stop offset="1" stop-color="white"/>
</linearGradient>
<linearGradient id="paint3_linear_927_5230" x1="6.901" y1="13.098" x2="21.0002" y2="13.098" gradientUnits="userSpaceOnUse">
<stop stop-color="#CF2000"/>
<stop offset="0.021" stop-color="#D12201"/>
<stop offset="0.244" stop-color="#E23309"/>
<stop offset="0.487" stop-color="#EC3D0E"/>
<stop offset="0.791" stop-color="#EF4010"/>
<stop offset="0.841" stop-color="#EC3D0F"/>
<stop offset="0.882" stop-color="#E2330D"/>
<stop offset="0.919" stop-color="#D12208"/>
<stop offset="0.954" stop-color="#B90A03"/>
<stop offset="0.966" stop-color="#AF0000"/>
<stop offset="1" stop-color="#EF4010"/>
</linearGradient>
</defs>
</svg>
