<svg width="24" height="24" viewBox="0 0 24 24" fill="none" xmlns="http://www.w3.org/2000/svg">
<circle cx="12" cy="12" r="12" fill="#390176"/>
<path d="M12 22.837C17.9852 22.837 22.8371 17.9851 22.8371 12C22.8371 6.01482 17.9852 1.1629 12 1.1629C6.01488 1.1629 1.16296 6.01482 1.16296 12C1.16296 17.9851 6.01488 22.837 12 22.837Z" fill="#390176"/>
<path d="M12 22.4205C17.7551 22.4205 22.4206 17.7551 22.4206 11.9999C22.4206 6.24486 17.7551 1.57941 12 1.57941C6.2449 1.57941 1.57947 6.24486 1.57947 11.9999C1.57947 17.7551 6.2449 22.4205 12 22.4205Z" fill="url(#paint0_radial_778_5814)"/>
<path d="M1.57947 12C1.57947 17.7551 6.24499 22.4205 12 22.4205C17.755 22.4205 22.4206 17.7551 22.4206 12H1.57947Z" fill="url(#paint1_radial_778_5814)"/>
<g style="mix-blend-mode:multiply" opacity="0.6">
<path d="M22.3207 10.5579C22.2735 10.9129 22.2083 11.2703 22.1262 11.6278C21.954 11.237 21.6683 10.907 21.3062 10.6807C20.944 10.4544 20.5221 10.3423 20.0954 10.3589C19.6687 10.3756 19.2568 10.5202 18.9134 10.774C18.5699 11.0278 18.3107 11.379 18.1695 11.782C18.0284 12.1851 18.0116 12.6213 18.1216 13.0339C18.2316 13.4466 18.4632 13.8166 18.7862 14.0959C19.1093 14.3752 19.5089 14.5509 19.9331 14.6001C20.3573 14.6493 20.7865 14.5697 21.1649 14.3718C19.9007 18.2734 15.9565 21.2142 11.9923 21.2142C8.02182 21.2142 4.13665 18.2731 2.81182 14.3492C3.18945 14.5574 3.6214 14.6458 4.05046 14.603C4.47949 14.5601 4.8854 14.3879 5.21441 14.1092C5.54339 13.8305 5.77996 13.4584 5.89273 13.0422C6.00553 12.6261 5.98924 12.1854 5.846 11.7788C5.70279 11.372 5.43938 11.0185 5.09069 10.7648C4.74201 10.5112 4.32449 10.3694 3.89345 10.3583C3.46241 10.3473 3.03818 10.4675 2.67695 10.7029C2.31573 10.9384 2.03455 11.278 1.87066 11.6768C1.7872 11.3212 1.72069 10.9657 1.67167 10.6124C1.61036 11.0725 1.57955 11.536 1.57947 12.0001C1.57947 17.7551 6.24499 22.4206 12 22.4206C17.755 22.4206 22.4206 17.7551 22.4206 12.0001C22.4203 11.5176 22.387 11.0357 22.3207 10.5579Z" fill="#B2A8C1"/>
</g>
<path d="M1.11895 13.3166C0.822184 13.3166 0.537574 13.1987 0.327731 12.9889C0.117889 12.7791 0 12.4944 0 12.1977C0 11.9009 0.117889 11.6163 0.327731 11.4065C0.537574 11.1966 0.822184 11.0787 1.11895 11.0787H22.881C23.028 11.0787 23.1735 11.1077 23.3093 11.1639C23.445 11.2201 23.5684 11.3026 23.6723 11.4065C23.7762 11.5104 23.8586 11.6337 23.9148 11.7695C23.9711 11.9052 24 12.0507 24 12.1977C24 12.3446 23.9711 12.4901 23.9148 12.6259C23.8586 12.7616 23.7762 12.885 23.6723 12.9889C23.5684 13.0928 23.445 13.1752 23.3093 13.2315C23.1735 13.2877 23.028 13.3166 22.881 13.3166H1.11895Z" fill="#390176"/>
<path d="M23.0278 11.3421H0.972352C0.580756 11.3421 0.263306 11.6596 0.263306 12.0512V12.3442C0.263306 12.7358 0.580756 13.0533 0.972352 13.0533H23.0278C23.4194 13.0533 23.7368 12.7358 23.7368 12.3442V12.0512C23.7368 11.6596 23.4194 11.3421 23.0278 11.3421Z" fill="#455399"/>
<path d="M0.264893 12.1757H23.7355C23.73 11.9527 23.6375 11.7408 23.4779 11.585C23.3182 11.4293 23.104 11.3421 22.881 11.3421H1.11887C0.895937 11.3423 0.681874 11.4295 0.522339 11.5852C0.362804 11.7409 0.270421 11.9528 0.264893 12.1757Z" fill="white"/>
<g style="mix-blend-mode:multiply" opacity="0.6">
<path d="M11.917 18.7004C15.1639 18.7004 17.7961 16.0683 17.7961 12.8214C17.7961 9.57446 15.1639 6.94232 11.917 6.94232C8.6701 6.94232 6.03796 9.57446 6.03796 12.8214C6.03796 16.0683 8.6701 18.7004 11.917 18.7004Z" fill="#B2A8C1"/>
</g>
<path d="M12 17.8791C15.2469 17.8791 17.8791 15.247 17.8791 12.0001C17.8791 8.75317 15.2469 6.12103 12 6.12103C8.75311 6.12103 6.12097 8.75317 6.12097 12.0001C6.12097 15.247 8.75311 17.8791 12 17.8791Z" fill="#390176"/>
<path d="M12 17.6888C15.1418 17.6888 17.6888 15.1418 17.6888 12C17.6888 8.85812 15.1418 6.31116 12 6.31116C8.85812 6.31116 6.31116 8.85812 6.31116 12C6.31116 15.1418 8.85812 17.6888 12 17.6888Z" fill="#50CCC9"/>
<g style="mix-blend-mode:multiply" opacity="0.6">
<path d="M6.31116 11.9999C6.31116 15.1416 8.85827 17.6887 12 17.6887C15.1417 17.6887 17.6888 15.1416 17.6888 11.9999C17.6888 11.9562 17.6888 11.9128 17.6872 11.8693H6.31275C6.31197 11.9128 6.31116 11.9562 6.31116 11.9999Z" fill="#B2A8C1"/>
</g>
<path d="M12 16.9559C14.737 16.9559 16.9559 14.737 16.9559 12C16.9559 9.26292 14.737 7.04407 12 7.04407C9.26289 7.04407 7.04407 9.26292 7.04407 12C7.04407 14.737 9.26289 16.9559 12 16.9559Z" fill="#390176"/>
<path d="M11.9999 16.802C14.652 16.802 16.8019 14.6521 16.8019 12.0001C16.8019 9.34802 14.652 7.19812 11.9999 7.19812C9.3479 7.19812 7.198 9.34802 7.198 12.0001C7.198 14.6521 9.3479 16.802 11.9999 16.802Z" fill="#4A6899"/>
<g style="mix-blend-mode:multiply" opacity="0.6">
<path d="M11.9999 7.40266C14.6175 7.40266 16.7447 9.49747 16.7993 12.1023C16.7993 12.0682 16.8019 12.0343 16.8019 12.0001C16.8019 10.7265 16.296 9.50512 15.3954 8.60458C14.4949 7.70402 13.2735 7.19812 11.9999 7.19812C10.7264 7.19812 9.50499 7.70402 8.60446 8.60458C7.7039 9.50512 7.198 10.7265 7.198 12.0001C7.198 12.0343 7.19986 12.0682 7.20064 12.1023C7.25522 9.49747 9.38209 7.40266 11.9999 7.40266Z" fill="#B2A8C1"/>
</g>
<path d="M12 15.7726C14.0835 15.7726 15.7726 14.0836 15.7726 12.0001C15.7726 9.91652 14.0835 8.22748 12 8.22748C9.91646 8.22748 8.22742 9.91652 8.22742 12.0001C8.22742 14.0836 9.91646 15.7726 12 15.7726Z" fill="#390176"/>
<path d="M12.0001 15.5839C13.9794 15.5839 15.584 13.9793 15.584 11.9999C15.584 10.0206 13.9794 8.41602 12.0001 8.41602C10.0207 8.41602 8.41614 10.0206 8.41614 11.9999C8.41614 13.9793 10.0207 15.5839 12.0001 15.5839Z" fill="url(#paint2_linear_778_5814)"/>
<path d="M12 15.3012C13.8232 15.3012 15.3012 13.8232 15.3012 12C15.3012 10.1768 13.8232 8.69879 12 8.69879C10.1768 8.69879 8.69885 10.1768 8.69885 12C8.69885 13.8232 10.1768 15.3012 12 15.3012Z" fill="url(#paint3_linear_778_5814)"/>
<path opacity="0.2" d="M12 14.3108C13.2762 14.3108 14.3107 13.2762 14.3107 12C14.3107 10.7238 13.2762 9.68927 12 9.68927C10.7237 9.68927 9.68921 10.7238 9.68921 12C9.68921 13.2762 10.7237 14.3108 12 14.3108Z" fill="url(#paint4_linear_778_5814)"/>
<path style="mix-blend-mode:screen" d="M13.4682 11.1823C13.9455 11.1823 14.3325 10.7954 14.3325 10.318C14.3325 9.84071 13.9455 9.45374 13.4682 9.45374C12.9909 9.45374 12.6039 9.84071 12.6039 10.318C12.6039 10.7954 12.9909 11.1823 13.4682 11.1823Z" fill="url(#paint5_linear_778_5814)"/>
<path style="mix-blend-mode:screen" opacity="0.6" d="M10.1838 14.3971C10.4357 14.3971 10.6399 14.1929 10.6399 13.941C10.6399 13.689 10.4357 13.4848 10.1838 13.4848C9.93187 13.4848 9.72766 13.689 9.72766 13.941C9.72766 14.1929 9.93187 14.3971 10.1838 14.3971Z" fill="url(#paint6_linear_778_5814)"/>
<g style="mix-blend-mode:multiply">
<path d="M12 8.69875C12.9258 8.69899 13.8157 9.05757 14.483 9.69933C15.1504 10.3411 15.5435 11.2163 15.5799 12.1414C15.5818 12.0945 15.5833 12.0474 15.5833 11.9999C15.5833 11.0494 15.2057 10.1378 14.5336 9.46573C13.8615 8.79361 12.95 8.41602 11.9994 8.41602C11.0489 8.41602 10.1373 8.79361 9.46521 9.46573C8.79309 10.1378 8.41553 11.0494 8.41553 11.9999C8.41553 12.0474 8.41712 12.0945 8.41895 12.1414C8.45539 11.2161 8.84861 10.3408 9.51619 9.69897C10.1838 9.05718 11.0739 8.69872 12 8.69875Z" fill="#85D0E4"/>
</g>
<path d="M3.8391 14.3256C5.01433 14.3256 5.96704 13.3729 5.96704 12.1977C5.96704 11.0225 5.01433 10.0698 3.8391 10.0698C2.66389 10.0698 1.71118 11.0225 1.71118 12.1977C1.71118 13.3729 2.66389 14.3256 3.8391 14.3256Z" fill="#390176"/>
<path d="M3.83909 14.0366C4.85467 14.0366 5.67794 13.2133 5.67794 12.1977C5.67794 11.1822 4.85467 10.3589 3.83909 10.3589C2.82353 10.3589 2.00024 11.1822 2.00024 12.1977C2.00024 13.2133 2.82353 14.0366 3.83909 14.0366Z" fill="white"/>
<g style="mix-blend-mode:multiply" opacity="0.6">
<path d="M3.83909 13.5405C3.39456 13.5405 2.9651 13.3794 2.63019 13.0871C2.29528 12.7948 2.0776 12.3911 2.01745 11.9507C2.00629 12.0329 2.00063 12.1157 2.00049 12.1987C2.0063 12.6825 2.20258 13.1446 2.54677 13.4847C2.89097 13.8247 3.35536 14.0155 3.83921 14.0155C4.32307 14.0155 4.78746 13.8247 5.13165 13.4847C5.47586 13.1446 5.67213 12.6825 5.67795 12.1987C5.67771 12.1157 5.67195 12.0329 5.6607 11.9507C5.60057 12.3911 5.38289 12.7948 5.04797 13.0871C4.71305 13.3794 4.2836 13.5405 3.83909 13.5405Z" fill="#B2A8C1"/>
</g>
<path d="M20.2046 14.3256C21.3798 14.3256 22.3325 13.3729 22.3325 12.1977C22.3325 11.0225 21.3798 10.0698 20.2046 10.0698C19.0293 10.0698 18.0767 11.0225 18.0767 12.1977C18.0767 13.3729 19.0293 14.3256 20.2046 14.3256Z" fill="#390176"/>
<path d="M20.2046 14.0366C21.2202 14.0366 22.0434 13.2133 22.0434 12.1977C22.0434 11.1822 21.2202 10.3589 20.2046 10.3589C19.189 10.3589 18.3657 11.1822 18.3657 12.1977C18.3657 13.2133 19.189 14.0366 20.2046 14.0366Z" fill="white"/>
<g style="mix-blend-mode:multiply" opacity="0.6">
<path d="M20.2047 13.5405C19.7602 13.5404 19.3308 13.3793 18.9959 13.087C18.6609 12.7948 18.4433 12.3911 18.383 11.9507C18.3719 12.0329 18.3662 12.1157 18.3661 12.1987C18.3654 12.4511 18.4167 12.7009 18.5167 12.9326C18.6168 13.1643 18.7634 13.3729 18.9476 13.5454C19.1318 13.718 19.3495 13.8508 19.5871 13.9356C19.8249 14.0204 20.0775 14.0554 20.3293 14.0383C20.581 14.0212 20.8266 13.9525 21.0507 13.8364C21.2748 13.7203 21.4726 13.5594 21.6318 13.3636C21.791 13.1677 21.9082 12.9413 21.9761 12.6982C22.0439 12.4551 22.061 12.2007 22.0263 11.9507C21.9662 12.3911 21.7485 12.7948 21.4136 13.0871C21.0787 13.3794 20.6492 13.5405 20.2047 13.5405Z" fill="#B2A8C1"/>
</g>
<g style="mix-blend-mode:multiply" opacity="0.6">
<path d="M6.00835 9.2248C5.75372 9.19061 5.27733 9.0258 4.94851 8.30456C4.84992 8.08913 4.72648 8.04912 4.6422 8.03799C4.43367 8.01019 4.14539 8.13154 3.86664 8.24998C3.5487 8.38377 3.25007 8.50991 2.97769 8.47359C2.90249 8.46481 2.82984 8.4409 2.76409 8.40332C2.69835 8.36577 2.64086 8.31533 2.59508 8.25501C2.43186 8.04516 2.43611 7.79398 2.60833 7.54808C2.79381 7.28313 3.16184 7.03723 3.61918 6.87269C4.10487 6.69781 4.63029 6.63606 5.099 6.69886C6.07937 6.83002 6.71715 7.47097 6.89335 8.50383C6.90988 8.60283 6.90013 8.70444 6.86507 8.79853C6.83001 8.89258 6.77086 8.97581 6.69358 9.03984C6.51869 9.19274 6.26961 9.26028 6.00943 9.22531L6.00835 9.2248Z" fill="#B2A8C1"/>
</g>
<path d="M6.01969 8.97945C5.76506 8.94553 5.28867 8.78073 4.95984 8.05922C4.86126 7.84382 4.73778 7.80405 4.65353 7.79268C4.44527 7.76485 4.15699 7.88646 3.87798 8.00463C3.56003 8.1371 3.26141 8.26484 2.98903 8.22828C2.91389 8.21946 2.8413 8.19559 2.7756 8.15807C2.70991 8.12055 2.65246 8.07016 2.60668 8.00994C2.44346 7.79982 2.4477 7.54864 2.61993 7.30273C2.8054 7.03779 3.17317 6.79188 3.63051 6.62735C4.1162 6.45274 4.64187 6.39102 5.11034 6.45352C6.09071 6.5847 6.72875 7.22563 6.90495 8.25848C6.93911 8.4588 6.86626 8.65407 6.70491 8.79476C6.53003 8.94739 6.28095 9.01496 6.02077 8.98023L6.01969 8.97945Z" fill="#390176"/>
<path d="M5.08997 8.01633C4.61886 6.98588 3.24317 8.61224 2.72197 7.94135C2.4276 7.56247 2.86055 7.08341 3.54072 6.79831C4.65806 6.33011 6.44209 6.38574 6.76375 8.27123C6.7672 8.29175 6.76924 8.31244 6.76984 8.33323C6.79183 8.92436 5.65991 9.26219 5.08997 8.01633Z" fill="#7C9BD1"/>
<g style="mix-blend-mode:multiply" opacity="0.6">
<path d="M5.08997 8.01627C4.61886 6.98582 3.24317 8.61218 2.72197 7.94129C2.4276 7.56238 2.86055 7.08332 3.54072 6.79822C3.37778 6.95957 3.08311 7.32019 3.54231 7.44526C4.2108 7.62755 4.97313 7.03482 5.31386 7.68213C5.6848 8.38721 5.85332 8.51968 6.11221 8.58966C6.27912 8.63497 6.62516 8.57058 6.76984 8.33317C6.79183 8.9243 5.65991 9.26213 5.08997 8.01627Z" fill="#B2A8C1"/>
</g>
<g style="mix-blend-mode:multiply" opacity="0.6">
<path d="M17.9911 9.2248C18.2457 9.19061 18.7221 9.0258 19.0509 8.30456C19.1495 8.08913 19.273 8.04912 19.3572 8.03799C19.5658 8.01019 19.8541 8.13154 20.1328 8.24998C20.4508 8.38377 20.7494 8.50991 21.0218 8.47359C21.0969 8.46478 21.1696 8.44084 21.2353 8.40329C21.3011 8.36574 21.3586 8.3153 21.4044 8.25501C21.5676 8.04516 21.5633 7.79398 21.3911 7.54808C21.2056 7.28313 20.8376 7.03723 20.3803 6.87269C19.8946 6.69781 19.3692 6.63606 18.9004 6.69886C17.9201 6.83002 17.2821 7.47097 17.1061 8.50383C17.0896 8.60283 17.0993 8.70444 17.1344 8.79853C17.1694 8.89258 17.2286 8.97581 17.3059 9.03984C17.4808 9.19274 17.7298 9.26028 17.99 9.22531L17.9911 9.2248Z" fill="#B2A8C1"/>
</g>
<path d="M17.9803 8.97945C18.2349 8.94553 18.7113 8.78073 19.0402 8.05922C19.1387 7.84382 19.2622 7.80405 19.3465 7.79268C19.5547 7.76485 19.843 7.88646 20.122 8.00463C20.44 8.1371 20.7386 8.26484 21.011 8.22828C21.0861 8.21946 21.1587 8.19559 21.2244 8.15807C21.2901 8.12055 21.3475 8.07016 21.3933 8.00994C21.5565 7.79982 21.5523 7.54864 21.3801 7.30273C21.1946 7.03779 20.8268 6.79188 20.3692 6.62735C19.8838 6.45274 19.3581 6.39102 18.8897 6.45352C17.9093 6.5847 17.2712 7.22563 17.095 8.25848C17.0609 8.4588 17.1337 8.65407 17.2951 8.79476C17.47 8.94739 17.7191 9.01496 17.9792 8.98023L17.9803 8.97945Z" fill="#390176"/>
<path d="M18.9098 8.01634C19.3812 6.98588 20.7569 8.61225 21.278 7.94136C21.5724 7.56244 21.1395 7.08339 20.4593 6.79828C19.3425 6.32984 17.5579 6.38575 17.2363 8.27124C17.2328 8.29172 17.2308 8.31245 17.2302 8.33323C17.2079 8.92437 18.3401 9.2622 18.9098 8.01634Z" fill="#7C9BD1"/>
<g style="mix-blend-mode:multiply" opacity="0.6">
<path d="M18.9098 8.01627C19.3812 6.98582 20.7569 8.61218 21.278 7.94129C21.5724 7.56238 21.1395 7.08332 20.4593 6.79822C20.6223 6.95957 20.9169 7.32019 20.4577 7.44526C19.7892 7.62755 19.0269 7.03482 18.6862 7.68213C18.3152 8.38721 18.1467 8.51968 17.8878 8.58966C17.7209 8.63497 17.3749 8.57058 17.2302 8.33317C17.2079 8.9243 18.3401 9.26213 18.9098 8.01627Z" fill="#B2A8C1"/>
</g>
<path style="mix-blend-mode:screen" d="M14.2313 3.27443C14.5316 3.27443 14.7749 3.06263 14.7749 2.80134C14.7749 2.54006 14.5316 2.32825 14.2313 2.32825C13.9311 2.32825 13.6877 2.54006 13.6877 2.80134C13.6877 3.06263 13.9311 3.27443 14.2313 3.27443Z" fill="url(#paint7_linear_778_5814)"/>
<path d="M18.3473 5.52021C18.1255 5.57322 17.8867 5.47809 17.7939 5.28885C17.1437 3.96126 15.421 3.55125 15.4043 3.5478C15.156 3.49056 15.0067 3.26898 15.0719 3.05271C15.1372 2.83644 15.39 2.70657 15.6388 2.7625C15.7274 2.78238 17.8167 3.27006 18.651 4.97079C18.752 5.17674 18.642 5.415 18.4053 5.50299C18.3863 5.50989 18.367 5.51565 18.3473 5.52021Z" fill="url(#paint8_linear_778_5814)"/>
<defs>
<radialGradient id="paint0_radial_778_5814" cx="0" cy="0" r="1" gradientUnits="userSpaceOnUse" gradientTransform="translate(12 11.9999) scale(10.4205)">
<stop stop-color="#56C1FC"/>
<stop offset="1" stop-color="#3A8CFC"/>
</radialGradient>
<radialGradient id="paint1_radial_778_5814" cx="0" cy="0" r="1" gradientUnits="userSpaceOnUse" gradientTransform="translate(12 17.2103) scale(8.23801)">
<stop stop-color="#5577E5"/>
<stop offset="1" stop-color="#3F3EE5"/>
</radialGradient>
<linearGradient id="paint2_linear_778_5814" x1="14.0096" y1="9.07445" x2="9.95055" y2="14.9835" gradientUnits="userSpaceOnUse">
<stop stop-color="#30A4E4"/>
<stop offset="1" stop-color="#9DD0E4"/>
</linearGradient>
<linearGradient id="paint3_linear_778_5814" x1="13.8511" y1="9.30555" x2="10.1124" y2="14.7479" gradientUnits="userSpaceOnUse">
<stop stop-color="#85D0E4"/>
<stop offset="1" stop-color="#BBD0E4"/>
</linearGradient>
<linearGradient id="paint4_linear_778_5814" x1="10.7043" y1="13.886" x2="13.3213" y2="10.0764" gradientUnits="userSpaceOnUse">
<stop stop-color="#87D0E5"/>
<stop offset="0.3" stop-color="#6ECAE1"/>
<stop offset="0.95" stop-color="#2DBBD6"/>
<stop offset="1" stop-color="#28BAD5"/>
</linearGradient>
<linearGradient id="paint5_linear_778_5814" x1="12.5276" y1="10.2151" x2="14.0334" y2="9.25789" gradientUnits="userSpaceOnUse">
<stop stop-color="white" stop-opacity="0"/>
<stop offset="0.22" stop-color="white" stop-opacity="0.24"/>
<stop offset="0.6" stop-color="white" stop-opacity="0.64"/>
<stop offset="0.87" stop-color="white" stop-opacity="0.9"/>
<stop offset="1" stop-color="white"/>
</linearGradient>
<linearGradient id="paint6_linear_778_5814" x1="315.355" y1="1221.14" x2="308.23" y2="1252.81" gradientUnits="userSpaceOnUse">
<stop stop-color="white" stop-opacity="0"/>
<stop offset="0.22" stop-color="white" stop-opacity="0.24"/>
<stop offset="0.6" stop-color="white" stop-opacity="0.64"/>
<stop offset="0.87" stop-color="white" stop-opacity="0.9"/>
<stop offset="1" stop-color="white"/>
</linearGradient>
<linearGradient id="paint7_linear_778_5814" x1="803.994" y1="129.344" x2="604.095" y2="41.7293" gradientUnits="userSpaceOnUse">
<stop stop-color="white" stop-opacity="0"/>
<stop offset="0.22" stop-color="white" stop-opacity="0.24"/>
<stop offset="0.6" stop-color="white" stop-opacity="0.64"/>
<stop offset="0.87" stop-color="white" stop-opacity="0.9"/>
<stop offset="1" stop-color="white"/>
</linearGradient>
<linearGradient id="paint8_linear_778_5814" x1="2641.81" y1="406.026" x2="2003.66" y2="88.5982" gradientUnits="userSpaceOnUse">
<stop stop-color="white" stop-opacity="0"/>
<stop offset="0.22" stop-color="white" stop-opacity="0.24"/>
<stop offset="0.6" stop-color="white" stop-opacity="0.64"/>
<stop offset="0.87" stop-color="white" stop-opacity="0.9"/>
<stop offset="1" stop-color="white"/>
</linearGradient>
</defs>
</svg>
