<svg width="24" height="24" viewBox="0 0 24 24" fill="none" xmlns="http://www.w3.org/2000/svg">
<circle cx="12" cy="12" r="12" fill="#172852"/>
<path d="M10.3316 16.3335C10.7816 17.9985 12.3962 19.2686 13.2116 19.216C13.2402 19.2142 16.3043 18.6429 17.9816 15.841C19.2866 13.66 18.8425 11.5547 17.0672 11.5086C16.4285 11.5554 9.4746 13.1621 10.3321 16.3339L10.3316 16.3335ZM16.9016 5.64037L16.8998 5.63879L16.9023 5.63744C15.7841 4.68623 14.4199 4.0703 12.9669 3.86063C11.514 3.65097 10.0313 3.85609 8.6898 4.45237C8.52099 4.52303 8.35659 4.6038 8.1975 4.69424C8.08815 4.75229 7.9788 4.81034 7.8726 4.87424L7.89848 4.88212C7.58442 5.09589 7.30675 5.35874 7.0761 5.66062C4.8387 8.61442 12.3344 10.7625 16.3425 10.7688C18.1855 12.0925 18.703 7.04257 16.9016 5.64037Z" fill="#0E3CA5"/>
<path d="M9.14251 5.69998C8.11268 7.24798 4.68256 8.33856 4.11848 8.16868L4.11466 8.16148C4.13716 8.11491 4.16123 8.06833 4.18508 8.02221C4.77002 6.89555 5.60697 5.91901 6.63083 5.16853C6.84188 5.01403 7.06036 4.86943 7.28626 4.73473C7.63389 4.54287 8.02325 4.43912 8.42026 4.43256C9.94778 4.46181 9.15016 5.68806 9.14183 5.70043L9.14251 5.69998ZM8.29741 16.6379C8.37143 17.1241 8.29561 19.0454 8.19616 19.207C8.11043 19.2121 7.93201 19.2232 7.41518 18.9331C5.76488 17.9915 4.49167 16.5073 3.81202 14.733C3.13237 12.9587 3.08825 11.0037 3.68716 9.20053C3.71461 9.11803 3.74333 9.03606 3.77333 8.95461C4.36531 9.74211 5.05043 10.4545 5.63273 11.2496C6.18736 12.0067 6.95033 13.2413 7.10558 13.505C8.06948 15.1423 8.22316 16.1526 8.29673 16.6381L8.29741 16.6379ZM19.6925 11.7961C19.6938 12.8286 19.4998 13.8521 19.1208 14.8125C18.1533 15.852 11.6321 13.2931 11.5682 13.2652C10.6761 12.8743 7.96126 11.685 7.71623 9.81748C7.36501 7.12873 12.8168 5.25583 15.213 5.18496C15.5003 5.18833 16.3747 5.19846 16.8845 5.61246C17.7675 6.3825 18.475 7.33293 18.9594 8.39966C19.4438 9.46638 19.6938 10.6246 19.6925 11.7961ZM15.2778 19.0801C14.5668 19.4117 13.7843 19.1701 13.9877 18.4777C14.378 17.1482 17.787 15.7852 18.5399 15.7102C18.6328 15.701 18.6722 15.7642 18.631 15.8365C17.8465 17.2156 16.6831 18.3409 15.2785 19.0789" fill="#5493F7"/>
<path d="M6.90059 20.3822C6.89049 20.5323 6.93971 20.6804 7.03766 20.7946C7.13562 20.9088 7.27448 20.9799 7.42439 20.9928C14.3319 21.0401 21 20.7228 21 19.6878C21 16.5549 6.90059 20.3822 6.90059 20.3822Z" fill="url(#paint0_linear_778_6524)"/>
<path d="M6.90059 20.3822C6.89034 20.5327 6.93986 20.6813 7.03842 20.7956C7.13698 20.9099 7.27663 20.9808 7.42709 20.9928C14.3328 21.0452 20.9917 20.8283 21 19.6878C21 16.5549 6.90059 20.3822 6.90059 20.3822ZM7.42754 20.953C7.40912 20.953 7.39071 20.9519 7.37241 20.9498C7.26712 20.9351 7.16852 20.8896 7.08899 20.819C7.00946 20.7484 6.95253 20.656 6.92534 20.5532C6.95484 20.6646 7.01966 20.7634 7.11009 20.8348C7.20051 20.9063 7.31166 20.9465 7.42686 20.9494C14.3276 20.9062 20.8918 18.7815 20.8918 19.7171C20.8918 20.672 14.3283 21 7.42754 20.953Z" fill="url(#paint1_linear_778_6524)"/>
<path d="M7.428 11.5102C7.35876 11.5102 7.29018 11.5238 7.22619 11.5503C7.16221 11.5767 7.10407 11.6156 7.05509 11.6645C7.00611 11.7135 6.96726 11.7716 6.94076 11.8356C6.91425 11.8996 6.9006 11.9681 6.9006 12.0374V20.3822C6.90042 20.5215 6.95542 20.6553 7.05358 20.7542C7.15173 20.8531 7.28506 20.9091 7.4244 20.91C14.3317 20.8583 21.0086 18.5721 21 19.688V10.2887C21.0086 9.17245 14.3339 11.4585 7.428 11.5102Z" fill="url(#paint2_linear_778_6524)"/>
<path d="M16.8476 13.125C16.9781 13.0156 17.0429 12.9607 17.1732 12.8509C17.054 12.6934 16.9644 12.5739 16.8751 12.4549L16.5763 12.0585L16.2505 12.3318L16.5493 12.7285C16.6391 12.8478 16.7284 12.9675 16.8476 13.125Z" fill="url(#paint3_linear_778_6524)"/>
<path d="M17.5521 14.0606C17.6817 13.9508 17.7467 13.8959 17.8766 13.7867L17.58 13.3905C17.49 13.2715 17.4016 13.1534 17.2826 12.9952C17.1525 13.1048 17.0877 13.1601 16.9574 13.2695C17.0767 13.427 17.166 13.5462 17.2553 13.6652L17.5521 14.0606Z" fill="url(#paint4_linear_778_6524)"/>
<path d="M17.3897 12.7861C17.4871 12.9155 17.5845 13.0444 17.69 13.185L18.039 13.6508C18.1691 13.5419 18.2339 13.4874 18.3637 13.3797C18.2339 13.2051 18.12 13.0536 18.0145 12.9123L17.715 12.5116L17.4146 12.1122C17.3091 11.9723 17.1955 11.8197 17.0652 11.6481C16.9352 11.7576 16.8704 11.8125 16.7401 11.9219L17.0897 12.3865C17.1955 12.5269 17.2925 12.6565 17.3897 12.7861Z" fill="url(#paint5_linear_778_6524)"/>
<path d="M17.8223 12.3024C17.9522 12.193 18.0172 12.1388 18.147 12.0301C18.028 11.8706 17.94 11.7525 17.85 11.6323L17.5526 11.2363L17.2277 11.5113L17.5253 11.9066L17.8223 12.3024Z" fill="url(#paint6_linear_778_6524)"/>
<path d="M18.255 12.175C18.1252 12.2833 18.0602 12.3377 17.9303 12.4466L18.2278 12.8449L18.5255 13.2451C18.6555 13.1376 18.7203 13.084 18.8504 12.9778C18.7311 12.8163 18.642 12.6957 18.5527 12.5755C18.4634 12.4554 18.3745 12.335 18.255 12.175Z" fill="url(#paint7_linear_778_6524)"/>
<path d="M11.0311 17.9553L10.7287 17.5319C10.6223 17.3825 10.5085 17.2225 10.3777 17.0369C10.247 17.1354 10.1818 17.1845 10.0513 17.2819C10.1818 17.4671 10.2961 17.6284 10.402 17.7769C10.508 17.9254 10.6063 18.0644 10.7044 18.2019C10.8025 18.3394 10.9006 18.4771 11.0068 18.6254C11.113 18.7736 11.2276 18.9336 11.3585 19.1154C11.4892 19.0151 11.5547 18.9649 11.6852 18.8636L11.334 18.3752L11.0311 17.9553Z" fill="url(#paint8_linear_778_6524)"/>
<path d="M9.86024 18.0714L10.1599 18.496C10.2907 18.3983 10.3557 18.3493 10.4866 18.2507C10.3667 18.0822 10.2769 17.9558 10.1872 17.8286C10.0974 17.7015 10.0072 17.5742 9.88769 17.4041C9.75696 17.5006 9.69149 17.5487 9.56076 17.6446L9.86024 18.0714Z" fill="url(#paint9_linear_778_6524)"/>
<path d="M10.5953 18.4037C10.4646 18.503 10.3994 18.5513 10.2689 18.6499C10.3886 18.8189 10.4781 18.9453 10.5681 19.0715L10.8678 19.4918C10.9985 19.3926 11.064 19.3427 11.1947 19.2425C11.0748 19.0751 10.9848 18.95 10.8953 18.8236L10.5953 18.4037Z" fill="url(#paint10_linear_778_6524)"/>
<path d="M10.0508 18.6951C9.95295 18.5565 9.85508 18.417 9.74888 18.2658L9.39697 17.7636C9.26625 17.8583 9.20077 17.9063 9.06982 17.9999L9.42127 18.5048C9.62207 18.7925 9.82375 19.0796 10.0263 19.3661C10.1325 19.5166 10.247 19.6784 10.3775 19.8624C10.5083 19.7639 10.5735 19.715 10.7045 19.6149C10.5735 19.4313 10.4594 19.2709 10.3532 19.1213C10.247 18.9716 10.1489 18.8339 10.0508 18.6951Z" fill="url(#paint11_linear_778_6524)"/>
<path d="M11.0073 13.3777L10.7044 13.8587C10.6063 14.0144 10.508 14.1694 10.402 14.3382C10.2961 14.5069 10.1818 14.6874 10.0513 14.8933C10.1818 14.9698 10.247 15.0073 10.3777 15.0829L10.729 14.5259C10.8354 14.3571 10.9335 14.201 11.0316 14.0446L11.3344 13.5622C11.4409 13.3923 11.5554 13.2096 11.6861 12.9997C11.5554 12.927 11.4899 12.8905 11.359 12.8172C11.2282 13.0262 11.1137 13.2087 11.0073 13.3777Z" fill="url(#paint12_linear_778_6524)"/>
<path d="M10.2144 13.5766C9.99729 13.9192 9.77942 14.2614 9.56076 14.603C9.69149 14.6811 9.75696 14.7198 9.88769 14.7972C10.0184 14.5918 10.1327 14.4113 10.2389 14.2437C10.3451 14.0761 10.443 13.9206 10.5411 13.7649L10.8437 13.2848C10.9501 13.1158 11.0647 12.934 11.1954 12.7252C11.0647 12.6512 10.999 12.6143 10.868 12.5398C10.7371 12.7477 10.6223 12.929 10.5163 13.0976C10.4104 13.2661 10.3125 13.4218 10.2144 13.5766Z" fill="url(#paint13_linear_778_6524)"/>
<path d="M9.75 13.9559L10.0522 13.4809C10.1503 13.3264 10.2482 13.1716 10.3544 13.0035L10.7056 12.4466C10.5746 12.3717 10.5094 12.3341 10.3789 12.2587C10.1619 12.6025 9.94399 12.9457 9.72525 13.2883C9.62715 13.442 9.52883 13.595 9.4224 13.7608C9.31598 13.9267 9.2019 14.1044 9.07095 14.3067C9.2019 14.3866 9.26738 14.4264 9.3981 14.5049C9.52793 14.3011 9.64223 14.1224 9.75 13.9559Z" fill="url(#paint14_linear_778_6524)"/>
<path d="M17.173 17.359L16.8476 17.1986L16.5491 17.6983L16.2505 18.1974L16.5763 18.3587L16.8749 17.8592L17.173 17.359Z" fill="url(#paint15_linear_778_6524)"/>
<path d="M17.2814 17.177C17.4007 16.977 17.4898 16.8265 17.5791 16.6764L17.8768 16.1767C17.7467 16.1123 17.6817 16.0795 17.5521 16.0158L17.2544 16.5167C17.1644 16.6667 17.0744 16.817 16.9561 17.0168L17.2814 17.177Z" fill="url(#paint16_linear_778_6524)"/>
<path d="M17.6601 17.5989L17.3354 17.4391C17.2164 17.6394 17.1269 17.7897 17.0373 17.9395L16.739 18.4393L17.0645 18.6001L17.3624 18.0997L17.6601 17.5989Z" fill="url(#paint17_linear_778_6524)"/>
<path d="M18.066 16.9183C18.156 16.7689 18.2447 16.6195 18.3637 16.4212C18.2339 16.3537 18.1688 16.3225 18.0388 16.2574L17.7413 16.7567L17.4439 17.2573C17.5737 17.3208 17.6385 17.3527 17.7683 17.4173C17.8874 17.2177 17.9767 17.0674 18.066 16.9183Z" fill="url(#paint18_linear_778_6524)"/>
<path d="M17.5249 18.1796C17.4349 18.3301 17.3465 18.4804 17.2272 18.6802C17.3573 18.7444 17.4221 18.7765 17.5521 18.8402C17.6709 18.6402 17.7602 18.4899 17.8496 18.3403C17.9389 18.1906 18.0282 18.0406 18.1472 17.8417C18.0174 17.7762 17.9524 17.7438 17.8226 17.6794L17.5249 18.1796Z" fill="url(#paint19_linear_778_6524)"/>
<path d="M18.2285 17C18.1385 17.1491 18.0498 17.2985 17.9308 17.4981C18.0606 17.5627 18.1256 17.5953 18.2555 17.6608C18.3747 17.4617 18.464 17.3136 18.5534 17.1658C18.6427 17.018 18.7316 16.869 18.8508 16.6708C18.7208 16.6033 18.656 16.5698 18.5261 16.5036L18.2285 17Z" fill="url(#paint20_linear_778_6524)"/>
<path d="M16.1762 14.4694C16.0948 14.258 15.9758 14.0631 15.825 13.894C15.67 13.7212 15.484 13.5791 15.2765 13.4751C15.0976 13.3852 14.9063 13.3225 14.709 13.2888C14.5107 13.2546 14.3088 13.247 14.1085 13.2663C13.9049 13.2869 13.7045 13.3311 13.5111 13.3979C13.1047 13.5374 12.7348 13.7665 12.4289 14.0682C12.2698 14.2256 12.13 14.4012 12.0124 14.5915C11.8826 14.7991 11.7924 15.029 11.7464 15.2695C11.7041 15.4926 11.7053 15.7218 11.75 15.9445C11.7931 16.1588 11.8806 16.3617 12.0068 16.5403C12.1361 16.7217 12.3055 16.8709 12.5018 16.9763C12.7024 17.0842 12.9245 17.1462 13.152 17.1579C13.3814 17.169 13.6107 17.1351 13.827 17.058C14.0541 16.9773 14.2657 16.8583 14.4525 16.7061C14.65 16.5458 14.8183 16.3524 14.9498 16.1346L15.4385 16.3821C15.5847 16.4554 15.731 16.5281 15.9254 16.6249C16.0638 16.3948 16.1689 16.1462 16.2374 15.8866C16.3009 15.6465 16.3278 15.3982 16.3171 15.15C16.3074 14.917 16.2598 14.6871 16.1762 14.4694Z" fill="url(#paint21_linear_778_6524)"/>
<path d="M15.6 15.0503C15.4198 14.9622 15.2181 14.9276 15.0188 14.9504C14.8102 14.9732 14.6099 15.0446 14.4338 15.1588C14.2448 15.2797 14.0862 15.4426 13.9705 15.6349C13.856 15.8263 13.6981 15.9881 13.5095 16.1074C13.333 16.2197 13.1317 16.2873 12.9232 16.3042C12.7205 16.3207 12.5174 16.2785 12.3382 16.1825C12.1643 16.0886 12.0231 15.944 11.9332 15.7681C11.8437 15.5915 11.8033 15.3941 11.8162 15.1966C11.8301 14.9819 11.8975 14.774 12.0121 14.592C11.8729 14.8153 11.7673 15.0579 11.6989 15.312C11.6351 15.55 11.6081 15.7964 11.6186 16.0426C11.6285 16.2787 11.6762 16.5116 11.7599 16.7326C11.8423 16.9498 11.9616 17.151 12.1125 17.3275C12.2676 17.5083 12.4549 17.6588 12.6649 17.7712C12.8429 17.8672 13.0346 17.9355 13.2332 17.9737C13.4304 18.0118 13.632 18.0215 13.8319 18.0025C14.0366 17.9825 14.2379 17.9372 14.4313 17.8675C14.6317 17.7962 14.8231 17.7018 15.0017 17.5863C15.1869 17.4671 15.3576 17.3266 15.5102 17.1678C15.6689 17.0029 15.8081 16.8202 15.9251 16.6235C16.0389 16.437 16.1059 16.2257 16.1204 16.0077C16.1339 15.8124 16.0936 15.6171 16.0039 15.4432C15.9138 15.273 15.7725 15.1356 15.6 15.0503Z" fill="url(#paint22_linear_778_6524)"/>
<defs>
<linearGradient id="paint0_linear_778_6524" x1="6.90059" y1="19.7263" x2="21" y2="19.7263" gradientUnits="userSpaceOnUse">
<stop stop-color="#808080"/>
<stop offset="0.327" stop-color="#838383"/>
<stop offset="0.59" stop-color="#8D8D8D"/>
<stop offset="0.83" stop-color="#9E9E9E"/>
<stop offset="1" stop-color="#AFAFAF"/>
</linearGradient>
<linearGradient id="paint1_linear_778_6524" x1="13.9503" y1="18.4553" x2="13.9503" y2="21" gradientUnits="userSpaceOnUse">
<stop offset="0.35" stop-color="#DFDFDF"/>
<stop offset="0.645" stop-color="#DDDDDD"/>
<stop offset="0.752" stop-color="#D6D6D6"/>
<stop offset="0.828" stop-color="#CBCBCB"/>
<stop offset="0.889" stop-color="#BABABA"/>
<stop offset="0.941" stop-color="#A4A4A4"/>
<stop offset="0.987" stop-color="#898989"/>
<stop offset="1" stop-color="#808080"/>
</linearGradient>
<linearGradient id="paint2_linear_778_6524" x1="6.9006" y1="15.4457" x2="21" y2="15.4457" gradientUnits="userSpaceOnUse">
<stop stop-color="#DFDFDF"/>
<stop offset="0.021" stop-color="#E1E1E1"/>
<stop offset="0.244" stop-color="#F2F2F2"/>
<stop offset="0.487" stop-color="#FCFCFC"/>
<stop offset="0.791" stop-color="white"/>
<stop offset="0.844" stop-color="#FCFCFC"/>
<stop offset="0.887" stop-color="#F2F2F2"/>
<stop offset="0.926" stop-color="#E1E1E1"/>
<stop offset="0.963" stop-color="#C9C9C9"/>
<stop offset="0.966" stop-color="#C7C7C7"/>
<stop offset="1" stop-color="white"/>
</linearGradient>
<linearGradient id="paint3_linear_778_6524" x1="6.90106" y1="12.5917" x2="20.9998" y2="12.5917" gradientUnits="userSpaceOnUse">
<stop stop-color="#242424"/>
<stop offset="0.335" stop-color="#2D2D2D"/>
<stop offset="0.791" stop-color="#303030"/>
<stop offset="0.867" stop-color="#2D2D2D"/>
<stop offset="0.928" stop-color="#232323"/>
<stop offset="0.966" stop-color="#181818"/>
<stop offset="1" stop-color="#303030"/>
</linearGradient>
<linearGradient id="paint4_linear_778_6524" x1="6.89971" y1="13.5278" x2="21.0002" y2="13.5278" gradientUnits="userSpaceOnUse">
<stop stop-color="#242424"/>
<stop offset="0.335" stop-color="#2D2D2D"/>
<stop offset="0.791" stop-color="#303030"/>
<stop offset="0.867" stop-color="#2D2D2D"/>
<stop offset="0.928" stop-color="#232323"/>
<stop offset="0.966" stop-color="#181818"/>
<stop offset="1" stop-color="#303030"/>
</linearGradient>
<linearGradient id="paint5_linear_778_6524" x1="6.90129" y1="12.6493" x2="20.9998" y2="12.6493" gradientUnits="userSpaceOnUse">
<stop stop-color="#242424"/>
<stop offset="0.335" stop-color="#2D2D2D"/>
<stop offset="0.791" stop-color="#303030"/>
<stop offset="0.867" stop-color="#2D2D2D"/>
<stop offset="0.928" stop-color="#232323"/>
<stop offset="0.966" stop-color="#181818"/>
<stop offset="1" stop-color="#303030"/>
</linearGradient>
<linearGradient id="paint6_linear_778_6524" x1="6.90129" y1="11.7694" x2="20.9996" y2="11.7694" gradientUnits="userSpaceOnUse">
<stop stop-color="#242424"/>
<stop offset="0.335" stop-color="#2D2D2D"/>
<stop offset="0.791" stop-color="#303030"/>
<stop offset="0.867" stop-color="#2D2D2D"/>
<stop offset="0.928" stop-color="#232323"/>
<stop offset="0.966" stop-color="#181818"/>
<stop offset="1" stop-color="#303030"/>
</linearGradient>
<linearGradient id="paint7_linear_778_6524" x1="6.90128" y1="12.7101" x2="20.9998" y2="12.7101" gradientUnits="userSpaceOnUse">
<stop stop-color="#242424"/>
<stop offset="0.335" stop-color="#2D2D2D"/>
<stop offset="0.791" stop-color="#303030"/>
<stop offset="0.867" stop-color="#2D2D2D"/>
<stop offset="0.928" stop-color="#232323"/>
<stop offset="0.966" stop-color="#181818"/>
<stop offset="1" stop-color="#303030"/>
</linearGradient>
<linearGradient id="paint8_linear_778_6524" x1="6.90082" y1="18.0777" x2="20.9998" y2="18.0777" gradientUnits="userSpaceOnUse">
<stop stop-color="#242424"/>
<stop offset="0.335" stop-color="#2D2D2D"/>
<stop offset="0.791" stop-color="#303030"/>
<stop offset="0.867" stop-color="#2D2D2D"/>
<stop offset="0.928" stop-color="#232323"/>
<stop offset="0.966" stop-color="#181818"/>
<stop offset="1" stop-color="#303030"/>
</linearGradient>
<linearGradient id="paint9_linear_778_6524" x1="6.90036" y1="17.9499" x2="21.0009" y2="17.9499" gradientUnits="userSpaceOnUse">
<stop stop-color="#242424"/>
<stop offset="0.335" stop-color="#2D2D2D"/>
<stop offset="0.791" stop-color="#303030"/>
<stop offset="0.867" stop-color="#2D2D2D"/>
<stop offset="0.928" stop-color="#232323"/>
<stop offset="0.966" stop-color="#181818"/>
<stop offset="1" stop-color="#303030"/>
</linearGradient>
<linearGradient id="paint10_linear_778_6524" x1="6.90128" y1="18.9478" x2="20.9984" y2="18.9478" gradientUnits="userSpaceOnUse">
<stop stop-color="#242424"/>
<stop offset="0.335" stop-color="#2D2D2D"/>
<stop offset="0.791" stop-color="#303030"/>
<stop offset="0.867" stop-color="#2D2D2D"/>
<stop offset="0.928" stop-color="#232323"/>
<stop offset="0.966" stop-color="#181818"/>
<stop offset="1" stop-color="#303030"/>
</linearGradient>
<linearGradient id="paint11_linear_778_6524" x1="6.9006" y1="18.813" x2="21" y2="18.813" gradientUnits="userSpaceOnUse">
<stop stop-color="#242424"/>
<stop offset="0.335" stop-color="#2D2D2D"/>
<stop offset="0.791" stop-color="#303030"/>
<stop offset="0.867" stop-color="#2D2D2D"/>
<stop offset="0.928" stop-color="#232323"/>
<stop offset="0.966" stop-color="#181818"/>
<stop offset="1" stop-color="#303030"/>
</linearGradient>
<linearGradient id="paint12_linear_778_6524" x1="6.90082" y1="13.9501" x2="20.9995" y2="13.9501" gradientUnits="userSpaceOnUse">
<stop stop-color="#242424"/>
<stop offset="0.335" stop-color="#2D2D2D"/>
<stop offset="0.791" stop-color="#303030"/>
<stop offset="0.867" stop-color="#2D2D2D"/>
<stop offset="0.928" stop-color="#232323"/>
<stop offset="0.966" stop-color="#181818"/>
<stop offset="1" stop-color="#303030"/>
</linearGradient>
<linearGradient id="paint13_linear_778_6524" x1="6.90058" y1="13.6684" x2="21" y2="13.6684" gradientUnits="userSpaceOnUse">
<stop stop-color="#242424"/>
<stop offset="0.335" stop-color="#2D2D2D"/>
<stop offset="0.791" stop-color="#303030"/>
<stop offset="0.867" stop-color="#2D2D2D"/>
<stop offset="0.928" stop-color="#232323"/>
<stop offset="0.966" stop-color="#181818"/>
<stop offset="1" stop-color="#303030"/>
</linearGradient>
<linearGradient id="paint14_linear_778_6524" x1="6.9006" y1="13.3817" x2="21" y2="13.3817" gradientUnits="userSpaceOnUse">
<stop stop-color="#242424"/>
<stop offset="0.335" stop-color="#2D2D2D"/>
<stop offset="0.791" stop-color="#303030"/>
<stop offset="0.867" stop-color="#2D2D2D"/>
<stop offset="0.928" stop-color="#232323"/>
<stop offset="0.966" stop-color="#181818"/>
<stop offset="1" stop-color="#303030"/>
</linearGradient>
<linearGradient id="paint15_linear_778_6524" x1="6.90103" y1="17.7787" x2="20.9998" y2="17.7787" gradientUnits="userSpaceOnUse">
<stop stop-color="#242424"/>
<stop offset="0.335" stop-color="#2D2D2D"/>
<stop offset="0.791" stop-color="#303030"/>
<stop offset="0.867" stop-color="#2D2D2D"/>
<stop offset="0.928" stop-color="#232323"/>
<stop offset="0.966" stop-color="#181818"/>
<stop offset="1" stop-color="#303030"/>
</linearGradient>
<linearGradient id="paint16_linear_778_6524" x1="6.89971" y1="16.5965" x2="21.0002" y2="16.5965" gradientUnits="userSpaceOnUse">
<stop stop-color="#242424"/>
<stop offset="0.335" stop-color="#2D2D2D"/>
<stop offset="0.791" stop-color="#303030"/>
<stop offset="0.867" stop-color="#2D2D2D"/>
<stop offset="0.928" stop-color="#232323"/>
<stop offset="0.966" stop-color="#181818"/>
<stop offset="1" stop-color="#303030"/>
</linearGradient>
<linearGradient id="paint17_linear_778_6524" x1="6.90103" y1="18.0196" x2="21" y2="18.0196" gradientUnits="userSpaceOnUse">
<stop stop-color="#242424"/>
<stop offset="0.335" stop-color="#2D2D2D"/>
<stop offset="0.791" stop-color="#303030"/>
<stop offset="0.867" stop-color="#2D2D2D"/>
<stop offset="0.928" stop-color="#232323"/>
<stop offset="0.966" stop-color="#181818"/>
<stop offset="1" stop-color="#303030"/>
</linearGradient>
<linearGradient id="paint18_linear_778_6524" x1="6.90128" y1="16.8375" x2="20.9998" y2="16.8375" gradientUnits="userSpaceOnUse">
<stop stop-color="#242424"/>
<stop offset="0.335" stop-color="#2D2D2D"/>
<stop offset="0.791" stop-color="#303030"/>
<stop offset="0.867" stop-color="#2D2D2D"/>
<stop offset="0.928" stop-color="#232323"/>
<stop offset="0.966" stop-color="#181818"/>
<stop offset="1" stop-color="#303030"/>
</linearGradient>
<linearGradient id="paint19_linear_778_6524" x1="6.90127" y1="18.2599" x2="20.9998" y2="18.2599" gradientUnits="userSpaceOnUse">
<stop stop-color="#242424"/>
<stop offset="0.335" stop-color="#2D2D2D"/>
<stop offset="0.791" stop-color="#303030"/>
<stop offset="0.867" stop-color="#2D2D2D"/>
<stop offset="0.928" stop-color="#232323"/>
<stop offset="0.966" stop-color="#181818"/>
<stop offset="1" stop-color="#303030"/>
</linearGradient>
<linearGradient id="paint20_linear_778_6524" x1="6.90129" y1="17.0823" x2="20.9998" y2="17.0823" gradientUnits="userSpaceOnUse">
<stop stop-color="#242424"/>
<stop offset="0.335" stop-color="#2D2D2D"/>
<stop offset="0.791" stop-color="#303030"/>
<stop offset="0.867" stop-color="#2D2D2D"/>
<stop offset="0.928" stop-color="#232323"/>
<stop offset="0.966" stop-color="#181818"/>
<stop offset="1" stop-color="#303030"/>
</linearGradient>
<linearGradient id="paint21_linear_778_6524" x1="6.90061" y1="15.2087" x2="21" y2="15.2087" gradientUnits="userSpaceOnUse">
<stop stop-color="#B41B00"/>
<stop offset="0.021" stop-color="#B61D01"/>
<stop offset="0.244" stop-color="#C72E0B"/>
<stop offset="0.487" stop-color="#D13811"/>
<stop offset="0.791" stop-color="#D43B13"/>
<stop offset="0.841" stop-color="#D13812"/>
<stop offset="0.882" stop-color="#C72F0F"/>
<stop offset="0.919" stop-color="#B61F0A"/>
<stop offset="0.954" stop-color="#9E0903"/>
<stop offset="0.966" stop-color="#940000"/>
<stop offset="1" stop-color="#D43B13"/>
</linearGradient>
<linearGradient id="paint22_linear_778_6524" x1="6.90059" y1="16.302" x2="20.9998" y2="16.302" gradientUnits="userSpaceOnUse">
<stop stop-color="#00209F"/>
<stop offset="0.021" stop-color="#0222A1"/>
<stop offset="0.244" stop-color="#1333B2"/>
<stop offset="0.487" stop-color="#1D3DBC"/>
<stop offset="0.791" stop-color="#2040BF"/>
<stop offset="0.841" stop-color="#1E3DBC"/>
<stop offset="0.882" stop-color="#1933B2"/>
<stop offset="0.919" stop-color="#1122A1"/>
<stop offset="0.954" stop-color="#050A89"/>
<stop offset="0.966" stop-color="#00007F"/>
<stop offset="1" stop-color="#2040BF"/>
</linearGradient>
</defs>
</svg>
