<svg width="24" height="24" viewBox="0 0 24 24" fill="none" xmlns="http://www.w3.org/2000/svg">
<circle cx="12" cy="12" r="12" fill="black"/>
<path fill-rule="evenodd" clip-rule="evenodd" d="M0.796875 11.9969C0.796875 5.81146 5.81146 0.796875 11.9969 0.796875C18.1823 0.796875 23.1969 5.81146 23.1969 11.9969C23.1969 18.1823 18.1823 23.1969 11.9969 23.1969C5.81146 23.1969 0.796875 18.1823 0.796875 11.9969ZM1.41147 11.9948C1.41147 6.14998 6.15001 1.41144 11.9948 1.41144C17.8406 1.41144 22.5792 6.14998 22.5792 11.9948C22.5792 17.8406 17.8406 22.5791 11.9948 22.5791C6.15001 22.5791 1.41147 17.8406 1.41147 11.9948Z" fill="white"/>
<path d="M4.86667 12.7823H3.50937C3.45312 12.7823 3.40729 12.7375 3.40729 12.6812V11.324C3.40729 11.2677 3.45312 11.2219 3.50937 11.2219H4.86667C4.92292 11.2219 4.96771 11.2677 4.96771 11.324V12.6812C4.96771 12.7375 4.92292 12.7823 4.86667 12.7823Z" fill="white"/>
<path d="M9.28125 13.1667H7.25417C7.17083 13.1667 7.10208 13.099 7.10208 13.0156V10.9885C7.10208 10.9042 7.17083 10.8365 7.25417 10.8365H9.28125C9.36458 10.8365 9.43229 10.9042 9.43229 10.9885V13.0156C9.43229 13.099 9.36458 13.1667 9.28125 13.1667Z" fill="white"/>
<path d="M14.425 13.5271H11.7677C11.6583 13.5271 11.5688 13.4385 11.5688 13.3292V10.6708C11.5688 10.5615 11.6583 10.4719 11.7677 10.4719H14.425C14.5344 10.4719 14.624 10.5615 14.624 10.6708V13.3292C14.624 13.4385 14.5344 13.5271 14.425 13.5271Z" fill="white"/>
<path d="M20.3396 13.9104H17.0125C16.876 13.9104 16.7635 13.799 16.7635 13.6615V10.3344C16.7635 10.1979 16.876 10.0854 17.0125 10.0854H20.3396C20.4771 10.0854 20.5885 10.1979 20.5885 10.3344V13.6615C20.5885 13.799 20.4771 13.9104 20.3396 13.9104Z" fill="white"/>
</svg>
