<svg width="24" height="24" viewBox="0 0 24 24" fill="none" xmlns="http://www.w3.org/2000/svg">
<circle cx="12" cy="12" r="12" fill="#131735"/>
<path d="M14.9154 13.8593C14.4324 14.9104 12.8226 15.8986 11.1235 15.2812C10.2469 14.9704 9.28098 14.0753 9.14358 12.5274C9.08058 11.4798 9.55337 10.6561 10.5355 9.99549C11.0317 10.4113 11.8135 11.1714 11.8135 11.1714C11.8135 11.1714 10.5541 12.0006 11.0695 12.9173C11.3527 13.4231 12.0967 13.9289 12.9654 13.4033C13.401 13.1093 13.7034 12.45 13.3914 11.9574C13.1316 11.6592 9.91755 8.71755 9.91755 8.71755C9.91755 8.71755 9.41897 8.23758 8.7716 8.51356C8.35161 8.69475 7.98322 9.04634 7.98562 9.55871V17.0991C7.98562 17.1651 7.93163 17.2191 7.86563 17.2191H7.67964C6.85107 17.2191 6.17969 16.5478 6.17969 15.7192V9.32352C6.17969 9.32352 6.14189 7.88839 7.57764 7.04964C8.5724 6.45027 10.0262 6.30987 11.2315 7.43362C13.9092 9.92529 14.7234 10.7754 14.7234 10.7754C14.7234 10.7754 15.8321 11.7246 14.9154 13.8593Z" fill="white"/>
<path d="M18.0772 10.2637V15.7192C18.0772 16.5478 17.4058 17.2192 16.5773 17.2192H16.3913C16.3253 17.2192 16.2713 17.1652 16.2713 17.0992V9.32355V9.31755C16.2713 9.31755 16.2449 8.3078 14.9213 8.39959C14.2517 8.45239 13.7093 9.20355 13.7093 9.20355L12.4554 7.99761C12.4554 7.99761 13.3788 6.45089 15.3653 6.62968C16.6205 6.75688 18.0118 7.51284 18.0832 9.33555C18.085 9.72553 18.082 10.0291 18.0772 10.2637Z" fill="#4CA9DC"/>
</svg>
