<svg width="24" height="24" viewBox="0 0 24 24" fill="none" xmlns="http://www.w3.org/2000/svg">
<circle cx="12" cy="12" r="12" fill="#121212"/>
<rect opacity="0.64" x="18.6389" y="5.5" width="2.5845" height="12.9225" rx="1.29225" transform="rotate(24 18.6389 5.5)" fill="white"/>
<path d="M7.73044 6.68054C8.02073 6.02855 8.78459 5.73533 9.43658 6.02562C10.0886 6.3159 10.3818 7.07976 10.0915 7.73175L5.88666 17.176C5.59638 17.828 4.83251 18.1212 4.18053 17.8309C3.52854 17.5406 3.23532 16.7768 3.5256 16.1248L7.73044 6.68054Z" fill="white"/>
<path d="M13.9085 16.1247C14.1988 15.4727 14.9627 15.1795 15.6147 15.4697C16.2667 15.76 16.5599 16.5239 16.2696 17.1759C15.9793 17.8279 15.2154 18.1212 14.5634 17.8309C13.9114 17.5406 13.6182 16.7767 13.9085 16.1247Z" fill="white"/>
<path d="M18.1133 6.68054C18.4036 6.02855 19.1675 5.73533 19.8195 6.02562C20.4715 6.3159 20.7647 7.07976 20.4744 7.73175C20.1841 8.38374 19.4202 8.67696 18.7683 8.38667C18.1163 8.09639 17.8231 7.33253 18.1133 6.68054Z" fill="white"/>
<path d="M12.8573 6.68054C13.1476 6.02855 13.9114 5.73533 14.5634 6.02562C15.2154 6.3159 15.5086 7.07976 15.2183 7.73175L13.2035 12.2571C12.9132 12.9091 12.1494 13.2023 11.4974 12.912C10.8454 12.6217 10.5522 11.8579 10.8425 11.2059L12.8573 6.68054Z" fill="white"/>
</svg>
