<svg width="24" height="24" viewBox="0 0 24 24" fill="none" xmlns="http://www.w3.org/2000/svg">
<circle cx="12" cy="12" r="12" fill="#ECEFF0"/>
<path fill-rule="evenodd" clip-rule="evenodd" d="M16.0438 6.28791C17.4078 6.93387 18.5476 7.89453 19.3253 9.06187C19.4121 8.28753 19.4943 7.38445 19.4927 6.57685C19.4916 6.01201 19.4493 5.51425 19.3481 5.14702C19.2423 4.7629 19.1007 4.61797 18.9771 4.58315C18.8458 4.54621 18.6375 4.56775 18.3478 4.68061C18.0667 4.79009 17.7497 4.9693 17.4249 5.18741C16.9236 5.52401 16.4254 5.93832 16.0438 6.28791ZM19.7979 9.88882C19.9061 9.00626 20.0615 7.70663 20.0593 6.57574C20.0581 5.99412 20.0156 5.43674 19.8943 4.99655C19.7777 4.57326 19.5594 4.15851 19.1306 4.03779C18.8199 3.9503 18.4685 4.02558 18.1421 4.15267C17.8072 4.28314 17.4516 4.48702 17.1091 4.71703C16.4935 5.13037 15.8901 5.64837 15.4764 6.04259C14.3995 5.61971 13.2027 5.38456 11.9433 5.38456C10.684 5.38456 9.48733 5.61968 8.41051 6.04252C8.06196 5.705 7.57629 5.24592 7.02977 4.85418C6.41746 4.41528 5.68371 4.02718 4.94618 4.02718C4.46859 4.02718 4.21216 4.41789 4.07923 4.81314C3.94138 5.22304 3.88416 5.7702 3.86985 6.35373C3.84183 7.49658 3.97765 8.87694 4.08954 9.88724C3.75432 10.5816 3.54001 11.3308 3.46995 12.1149H2.28329C2.12683 12.1149 2 12.2417 2 12.3982C2 12.5546 2.12683 12.6814 2.28329 12.6814H3.44476C3.44478 12.9489 3.46142 13.2127 3.49382 13.4723H2.28329C2.12683 13.4723 2 13.5991 2 13.7555C2 13.912 2.12683 14.0388 2.28329 14.0388H3.5908C3.65173 14.318 3.73111 14.5914 3.82776 14.8579H2.28329C2.12683 14.8579 2 14.9847 2 15.1412C2 15.2976 2.12683 15.4245 2.28329 15.4245H4.06381C5.33201 18.11 8.40579 19.9773 11.9433 19.9773C15.4809 19.9773 18.5547 18.11 19.8229 15.4245H21.7167C21.8732 15.4245 22 15.2976 22 15.1412C22 14.9847 21.8732 14.8579 21.7167 14.8579H20.0589C20.1556 14.5914 20.235 14.318 20.2959 14.0388H21.7167C21.8732 14.0388 22 13.912 22 13.7555C22 13.5991 21.8732 13.4723 21.7167 13.4723H20.3929C20.4253 13.2127 20.4419 12.9489 20.4419 12.6814H21.7167C21.8732 12.6814 22 12.5546 22 12.3982C22 12.2417 21.8732 12.1149 21.7167 12.1149H20.4167C20.3467 11.3313 20.1327 10.5827 19.7979 9.88882ZM19.8477 12.1149C19.7768 11.3934 19.5717 10.704 19.2529 10.0643C18.5111 8.57564 17.1507 7.35165 15.4322 6.63585C14.3803 6.19777 13.1965 5.95113 11.9433 5.95113C10.6902 5.95113 9.50634 6.19777 8.45453 6.63585C6.73594 7.35165 5.37557 8.57564 4.63376 10.0643C4.31499 10.704 4.10986 11.3934 4.03901 12.1149H8.34561C8.50206 12.1149 8.6289 12.2417 8.6289 12.3982C8.6289 12.5546 8.50206 12.6814 8.34561 12.6814H4.01133C4.01135 12.9487 4.02991 13.2126 4.06599 13.4723H8.34561C8.50206 13.4723 8.6289 13.5991 8.6289 13.7555C8.6289 13.912 8.50206 14.0388 8.34561 14.0388H4.17387C4.24167 14.3183 4.32998 14.5917 4.43744 14.8579H8.34561C8.50206 14.8579 8.6289 14.9847 8.6289 15.1412C8.6289 15.2976 8.50206 15.4245 8.34561 15.4245H4.70064C5.93259 17.7599 8.69012 19.4108 11.9433 19.4108C15.1966 19.4108 17.9541 17.7599 19.186 15.4245H15.5411C15.3846 15.4245 15.2578 15.2976 15.2578 15.1412C15.2578 14.9847 15.3846 14.8579 15.5411 14.8579H19.4492C19.5567 14.5917 19.645 14.3183 19.7128 14.0388H15.5411C15.3846 14.0388 15.2578 13.912 15.2578 13.7555C15.2578 13.5991 15.3846 13.4723 15.5411 13.4723H19.8207C19.8568 13.2126 19.8753 12.9487 19.8754 12.6814H15.5411C15.3846 12.6814 15.2578 12.5546 15.2578 12.3982C15.2578 12.2417 15.3846 12.1149 15.5411 12.1149H19.8477ZM4.57117 9.04724C5.34925 7.88551 6.48649 6.92954 7.84642 6.28626C7.52607 5.98127 7.13164 5.62429 6.69969 5.31467C6.11229 4.89362 5.50043 4.59376 4.94618 4.59376C4.85719 4.59376 4.73119 4.65198 4.61625 4.99374C4.50625 5.32085 4.4502 5.79879 4.43625 6.36761C4.41574 7.20417 4.48675 8.18217 4.57117 9.04724Z" fill="black"/>
<path d="M13.1331 13.5456C13.1331 13.8898 12.6258 14.1689 12 14.1689C11.3742 14.1689 10.8669 13.8898 10.8669 13.5456C10.8669 13.2014 11.3742 12.9224 12 12.9224C12.6258 12.9224 13.1331 13.2014 13.1331 13.5456Z" fill="black"/>
<path d="M8.88385 8.33318C9.22805 8.33318 9.50708 8.8405 9.50708 9.46632C9.50708 10.0921 9.22805 10.5995 8.88385 10.5995C8.53965 10.5995 8.26062 10.0921 8.26062 9.46632C8.26062 8.8405 8.53965 8.33318 8.88385 8.33318Z" fill="black"/>
<path d="M15.1161 8.33318C15.4603 8.33318 15.7394 8.8405 15.7394 9.46632C15.7394 10.0921 15.4603 10.5995 15.1161 10.5995C14.7719 10.5995 14.4929 10.0921 14.4929 9.46632C14.4929 8.8405 14.7719 8.33318 15.1161 8.33318Z" fill="black"/>
</svg>
