<svg width="24" height="24" viewBox="0 0 24 24" fill="none" xmlns="http://www.w3.org/2000/svg">
<circle cx="12" cy="12" r="12" fill="#2D2D2D"/>
<path d="M11.9994 18.6027C11.7295 18.6106 11.4669 18.5148 11.2652 18.335C11.0636 18.1553 10.9383 17.9051 10.9149 17.6359L10.7929 16.6783C9.63053 16.3467 8.95052 15.4858 8.77387 14.1187L7.72772 6.0512C7.50331 6.01505 7.27616 5.9987 7.0489 6.00233C6.71251 5.99958 6.37733 6.04303 6.05274 6.13148V18.3665H4V8.53173C4 7.19721 4.59862 6.25481 5.68892 5.86272V5.22863C5.68892 4.49564 6.13411 4.00349 6.7955 4.00349C7.45689 4.00349 7.87185 4.41536 7.97879 5.16696L8.06014 5.75451C9.25389 6.08843 9.95133 7.04829 10.1582 8.60616L11.1253 16.3828C11.7031 16.4945 12.2969 16.4945 12.8747 16.3828L13.8418 8.60735C14.044 7.04829 14.7496 6.08843 15.9399 5.75102L16.0212 5.16347C16.1282 4.41536 16.5489 4 17.2045 4C17.8601 4 18.3111 4.49215 18.3111 5.22514V5.85923C19.4014 6.25132 20 7.19373 20 8.52822V18.363H17.945V6.13031C17.6204 6.04187 17.2852 5.99841 16.9488 6.00117C16.7215 5.99754 16.4944 6.01389 16.27 6.05003L15.2238 14.1187C15.0506 15.4613 14.3544 16.3432 13.2048 16.6783L13.0897 17.637C13.0718 17.9093 12.9472 18.1635 12.743 18.3443C12.5389 18.5252 12.2716 18.618 11.9994 18.6027ZM11.173 16.7714L11.2788 17.5963C11.2898 17.7772 11.3717 17.9464 11.5066 18.0673C11.6415 18.1882 11.8186 18.251 11.9994 18.242C12.0894 18.2485 12.1797 18.2368 12.2651 18.2077C12.3505 18.1786 12.4292 18.1326 12.4965 18.0725C12.5638 18.0124 12.6184 17.9394 12.657 17.8578C12.6956 17.7762 12.7175 17.6877 12.7212 17.5975L12.827 16.7714C12.2793 16.8614 11.7207 16.8614 11.173 16.7714ZM18.3111 18.0059H19.6339V8.53173C19.6339 7.40082 19.1782 6.62013 18.3111 6.25597V18.0059ZM4.36266 18.0059H5.68892V6.25597C4.82296 6.62013 4.37196 7.40082 4.37196 8.53173L4.36266 18.0059ZM8.11247 6.15126L9.13767 14.071C9.28415 15.217 9.82464 15.9581 10.7429 16.2816L9.79557 8.65157C9.6212 7.30658 9.0691 6.48517 8.11247 6.15126ZM15.8875 6.15126C14.9309 6.48517 14.3765 7.30658 14.2044 8.65271L13.2571 16.2769C14.1765 15.9535 14.7159 15.2124 14.8623 14.0663L15.8875 6.15126ZM6.05507 5.74637C6.38112 5.66701 6.71567 5.62793 7.05122 5.63002C7.26106 5.62781 7.47079 5.64025 7.6789 5.66725L7.61613 5.21001C7.53593 4.64922 7.25928 4.36533 6.7955 4.36533C6.33171 4.36533 6.05507 4.69459 6.05507 5.22397V5.74637ZM16.9488 5.63002C17.2843 5.62793 17.6189 5.66701 17.945 5.74637V5.22863C17.945 4.69925 17.6613 4.36998 17.2045 4.36998C16.7477 4.36998 16.4641 4.65387 16.3839 5.21466L16.3211 5.67191C16.5292 5.6449 16.7389 5.63246 16.9488 5.63468V5.63002Z" fill="white"/>
</svg>
