<svg width="24" height="24" viewBox="0 0 24 24" fill="none" xmlns="http://www.w3.org/2000/svg">
<circle cx="12.0002" cy="12" r="12" fill="#022845"/>
<path d="M17.8522 12.0944C17.9043 11.7288 17.9527 11.3819 18.001 11.035C18.0866 10.4083 18.1722 9.78532 18.2578 9.15861C18.2653 9.09146 18.2616 9.01313 18.3472 8.99447C18.4439 8.97582 18.47 9.06162 18.4998 9.12504C18.9017 9.93826 19.3037 10.7515 19.7093 11.5647C20.1224 12.4003 20.5393 13.2359 20.9598 14.0715C21.0157 14.1872 21.0194 14.2692 20.9338 14.37C20.1373 15.3249 19.3446 16.2836 18.5519 17.2424C18.496 17.3095 18.4625 17.4251 18.3434 17.3953C18.2281 17.3655 18.2467 17.2461 18.2281 17.164C18.0606 16.4403 17.9006 15.7204 17.7331 14.9817C17.4502 15.116 17.1823 15.2727 16.8957 15.3697C16.5645 15.4779 16.356 15.6905 16.1662 15.9703C14.8301 17.9325 13.4791 19.8872 12.1318 21.8457C11.9904 22.0508 11.9458 22.0508 11.8081 21.8494C10.3752 19.7678 8.94602 17.69 7.51315 15.6084C7.48338 15.5637 7.4536 15.5003 7.40894 15.4816C7.0256 15.3324 6.65342 15.1533 6.27753 14.9482C6.11005 15.6868 5.94629 16.4105 5.78254 17.1304C5.77137 17.1789 5.75276 17.2274 5.74904 17.2759C5.7416 17.3356 5.72299 17.3841 5.656 17.3953C5.59273 17.4065 5.55551 17.3692 5.51829 17.3244C4.69951 16.3321 3.877 15.3361 3.05449 14.3476C2.96889 14.2431 2.99866 14.1611 3.04705 14.0603C3.64253 12.8666 4.23429 11.6692 4.82604 10.4754C5.04935 10.0278 5.26893 9.57641 5.49224 9.12877C5.52201 9.06535 5.54434 8.97209 5.64111 8.98701C5.74532 9.00193 5.73787 9.09519 5.74904 9.17726C5.87186 10.1024 5.9984 11.0275 6.12494 11.9527C6.13238 11.9937 6.14355 12.0385 6.15843 12.0982C6.48967 11.9564 6.81346 11.8221 7.14842 11.7102C7.6248 11.5535 8.10863 11.4304 8.59618 11.3372C8.71528 11.3148 8.75994 11.2625 8.79343 11.1581C9.2847 9.69579 9.7797 8.23347 10.2747 6.77116C10.7957 5.23424 11.3131 3.69733 11.8341 2.15668C11.8564 2.08953 11.8639 2 11.9644 2C12.0649 2 12.0723 2.08207 12.0983 2.15295C13.0995 5.11487 14.1081 8.08053 15.0981 11.0462C15.1688 11.2588 15.2879 11.3036 15.474 11.3409C16.2853 11.5125 17.0781 11.7363 17.8522 12.0944ZM15.3623 11.8258C15.6936 12.8144 16.0174 13.7694 16.3374 14.7281C16.3635 14.8101 16.397 14.8437 16.4937 14.8027C16.8064 14.6721 17.1115 14.5266 17.4167 14.37C17.5209 14.3177 17.5693 14.2469 17.5842 14.1312C17.6438 13.6649 17.7108 13.1986 17.774 12.736C17.7852 12.6465 17.7703 12.5906 17.6773 12.5458C16.9478 12.2101 16.1811 11.9862 15.3623 11.8258ZM8.56268 11.8482C7.75879 12.0124 7.00699 12.2436 6.29242 12.5794C6.19565 12.6241 6.2217 12.6987 6.22915 12.7696C6.28869 13.2285 6.35568 13.6873 6.41151 14.1499C6.42268 14.2431 6.4785 14.2879 6.54922 14.3289C6.83207 14.4931 7.13353 14.6236 7.43127 14.7542C7.51687 14.7915 7.56525 14.7952 7.60247 14.6796C7.9151 13.747 8.23517 12.8144 8.56268 11.8482Z" fill="url(#paint0_linear_927_5760)"/>
<defs>
<linearGradient id="paint0_linear_927_5760" x1="8.00018" y1="4" x2="18.0279" y2="15.9768" gradientUnits="userSpaceOnUse">
<stop stop-color="#01A1F7"/>
<stop offset="0.5625" stop-color="#01E5F6"/>
<stop offset="1" stop-color="white"/>
</linearGradient>
</defs>
</svg>
