<svg width="24" height="24" viewBox="0 0 24 24" fill="none" xmlns="http://www.w3.org/2000/svg">
<g clip-path="url(#clip0_2355_6536)">
<path d="M12 23.7C18.4617 23.7 23.7 18.4618 23.7 12C23.7 5.53832 18.4617 0.300049 12 0.300049C5.53827 0.300049 0.300003 5.53832 0.300003 12C0.300003 18.4618 5.53827 23.7 12 23.7Z" fill="#06FC99"/>
<path d="M17.2683 9.36584H18.7317V9.95121H17.2683L17.2683 10.5365H15.8049V9.95117L17.2683 9.95121V9.36584Z" fill="#161616"/>
<path d="M15.8049 10.5365L14.3415 10.5366L14.3415 11.1219H12.8781L12.8781 11.7073H11.4146V12.2926H12.8781V11.7073L14.3415 11.7073V11.1219L15.8049 11.122L15.8049 10.5365Z" fill="#161616"/>
<path d="M11.4146 12.2926L9.95123 12.2927V12.8781H11.4146L11.4146 12.2926Z" fill="#161616"/>
<path d="M8.48779 12.8781L9.95123 12.8781L9.95121 13.4634H8.48779L8.4878 14.0487H7.02438V13.4634L8.48779 13.4634V12.8781Z" fill="#161616"/>
<path d="M5.56097 14.0488L7.02438 14.0487L7.02439 14.6342H5.56097V14.0488Z" fill="#161616"/>
<path d="M7.90244 6.14636H9.36585L9.36584 7.90247H10.8293L10.8293 9.95117H12.2927V12.2926H10.8293L10.8293 10.2439H9.36584L9.36585 17.8537H7.90244V6.14636Z" fill="#161616"/>
<path d="M12.2927 11.4147H13.7561L13.7561 13.4634H15.2195L15.2195 6.14636H16.6829V17.8537H15.2195L15.2195 15.8048H13.7561L13.7561 13.7561H12.2927V11.4147Z" fill="#161616"/>
</g>
<defs>
<clipPath id="clip0_2355_6536">
<rect width="24" height="24" fill="white"/>
</clipPath>
</defs>
</svg>
