<svg width="24" height="24" viewBox="0 0 24 24" fill="none" xmlns="http://www.w3.org/2000/svg">
<circle cx="12" cy="12" r="12" fill="#080B22"/>
<path d="M12 22.8783C18.0751 22.8783 23 18.0075 23 11.9991C23 10.2021 22.5595 8.50685 21.7794 7.01325C21.7293 6.91735 21.5851 6.93195 21.5464 7.0328C21.043 8.34435 19.7704 9.2622 18.3499 9.3351C18.2618 9.3396 18.2023 9.42945 18.2353 9.5103C18.5493 10.2791 18.7222 11.1191 18.7222 11.9991C18.7222 15.6709 15.7126 18.6475 12 18.6475C11.1569 18.6475 10.35 18.494 9.60644 18.2137C9.52399 18.1826 9.43434 18.2433 9.43154 18.3305C9.38659 19.7362 8.48174 21.0129 7.16639 21.5362C7.06519 21.5765 7.05329 21.7194 7.15119 21.767C8.61394 22.4786 10.2598 22.8783 12 22.8783Z" fill="#00BF72"/>
<path d="M14.3936 5.78458C14.476 5.81566 14.5657 5.75495 14.5685 5.66774C14.6134 4.26204 15.5183 2.98537 16.8336 2.46205C16.9348 2.42178 16.9467 2.27888 16.8488 2.23125C15.3861 1.51966 13.7402 1.12 12 1.12C5.92489 1.12 1 5.99075 1 11.9991C1 13.7962 1.44054 15.4914 2.22064 16.985C2.27071 17.0809 2.41495 17.0663 2.45366 16.9655C2.95695 15.6539 4.2296 14.7361 5.65009 14.6632C5.73815 14.6587 5.79769 14.5688 5.76466 14.488C5.45066 13.7192 5.27778 12.8792 5.27778 11.9991C5.27778 8.32735 8.28744 5.35077 12 5.35077C12.8431 5.35077 13.65 5.50428 14.3936 5.78458Z" fill="#00BF72"/>
<path d="M16.8889 11.9991C16.8889 14.6695 14.7001 16.8343 12 16.8343C9.29994 16.8343 7.11114 14.6695 7.11114 11.9991C7.11114 9.32875 9.29994 7.16395 12 7.16395C14.7001 7.16395 16.8889 9.32875 16.8889 11.9991Z" fill="#00BF72"/>
<path d="M7.96669 18.2244C7.96669 19.3927 7.00904 20.3398 5.82778 20.3398C4.6465 20.3398 3.68889 19.3927 3.68889 18.2244C3.68889 17.0561 4.6465 16.109 5.82778 16.109C7.00904 16.109 7.96669 17.0561 7.96669 18.2244Z" fill="#00BF72"/>
<path d="M18.1722 7.88925C19.3535 7.88925 20.3111 6.94215 20.3111 5.77384C20.3111 4.60555 19.3535 3.65846 18.1722 3.65846C16.9909 3.65846 16.0333 4.60555 16.0333 5.77384C16.0333 6.94215 16.9909 7.88925 18.1722 7.88925Z" fill="#00BF72"/>
</svg>
