<svg width="24" height="24" viewBox="0 0 24 24" fill="none" xmlns="http://www.w3.org/2000/svg">
<circle cx="12" cy="12" r="12" fill="#2261F6"/>
<path d="M12 22.4C12.8285 22.4 13.5 21.7284 13.5 20.9C13.5 20.0715 12.8285 19.4 12 19.4C11.1716 19.4 10.5 20.0715 10.5 20.9C10.5 21.7284 11.1716 22.4 12 22.4Z" fill="white"/>
<path d="M12 5.00001C12.8285 5.00001 13.5 4.32843 13.5 3.5C13.5 2.67157 12.8285 2 12 2C11.1716 2 10.5 2.67157 10.5 3.5C10.5 4.32843 11.1716 5.00001 12 5.00001Z" fill="white"/>
<path d="M12 9.09999C12.6627 9.09999 13.2 8.56273 13.2 7.89998C13.2 7.23724 12.6627 6.69998 12 6.69998C11.3372 6.69998 10.8 7.23724 10.8 7.89998C10.8 8.56273 11.3372 9.09999 12 9.09999Z" fill="white"/>
<path d="M7.80001 6.90001C8.46275 6.90001 9.00001 6.36275 9.00001 5.7C9.00001 5.03726 8.46275 4.5 7.80001 4.5C7.13726 4.5 6.6 5.03726 6.6 5.7C6.6 6.36275 7.13726 6.90001 7.80001 6.90001Z" fill="white"/>
<path d="M7.80001 20.0001C8.46275 20.0001 9.00001 19.4628 9.00001 18.8001C9.00001 18.1373 8.46275 17.6001 7.80001 17.6001C7.13726 17.6001 6.6 18.1373 6.6 18.8001C6.6 19.4628 7.13726 20.0001 7.80001 20.0001Z" fill="white"/>
<path d="M15.75 11.35C16.4128 11.35 16.95 10.8127 16.95 10.15C16.95 9.48724 16.4128 8.94998 15.75 8.94998C15.0873 8.94998 14.55 9.48724 14.55 10.15C14.55 10.8127 15.0873 11.35 15.75 11.35Z" fill="white"/>
<path d="M15.75 15.5001C16.4128 15.5001 16.95 14.9628 16.95 14.3001C16.95 13.6373 16.4128 13.1001 15.75 13.1001C15.0873 13.1001 14.55 13.6373 14.55 14.3001C14.55 14.9628 15.0873 15.5001 15.75 15.5001Z" fill="white"/>
<path d="M12 17.7001C12.6627 17.7001 13.2 17.1628 13.2 16.5001C13.2 15.8373 12.6627 15.3001 12 15.3001C11.3372 15.3001 10.8 15.8373 10.8 16.5001C10.8 17.1628 11.3372 17.7001 12 17.7001Z" fill="white"/>
<path d="M12 13.1499C12.5247 13.1499 12.95 12.7246 12.95 12.1999C12.95 11.6753 12.5247 11.2499 12 11.2499C11.4753 11.2499 11.05 11.6753 11.05 12.1999C11.05 12.7246 11.4753 13.1499 12 13.1499Z" fill="white"/>
<path d="M7.80001 15.3001C8.32468 15.3001 8.75001 14.8748 8.75001 14.3501C8.75001 13.8254 8.32468 13.4001 7.80001 13.4001C7.27534 13.4001 6.85001 13.8254 6.85001 14.3501C6.85001 14.8748 7.27534 15.3001 7.80001 15.3001Z" fill="white"/>
<path d="M7.80001 11.1C8.32468 11.1 8.75001 10.6747 8.75001 10.15C8.75001 9.62531 8.32468 9.19998 7.80001 9.19998C7.27534 9.19998 6.85001 9.62531 6.85001 10.15C6.85001 10.6747 7.27534 11.1 7.80001 11.1Z" fill="white"/>
<path d="M3.7 8.60002C4.0866 8.60002 4.40001 8.28662 4.40001 7.90002C4.40001 7.51342 4.0866 7.20002 3.7 7.20002C3.3134 7.20002 3 7.51342 3 7.90002C3 8.28662 3.3134 8.60002 3.7 8.60002Z" fill="white"/>
<path d="M3.7 12.9C4.0866 12.9 4.40001 12.5866 4.40001 12.2C4.40001 11.8134 4.0866 11.5 3.7 11.5C3.3134 11.5 3 11.8134 3 12.2C3 12.5866 3.3134 12.9 3.7 12.9Z" fill="white"/>
<path d="M3.7 17.1999C4.0866 17.1999 4.40001 16.8865 4.40001 16.4999C4.40001 16.1133 4.0866 15.7999 3.7 15.7999C3.3134 15.7999 3 16.1133 3 16.4999C3 16.8865 3.3134 17.1999 3.7 17.1999Z" fill="white"/>
<path d="M15.75 7.20018C16.5784 7.20018 17.25 6.52861 17.25 5.70018C17.25 4.87175 16.5784 4.20018 15.75 4.20018C14.9216 4.20018 14.25 4.87175 14.25 5.70018C14.25 6.52861 14.9216 7.20018 15.75 7.20018Z" fill="white"/>
<path d="M15.75 20.25C16.5784 20.25 17.25 19.5785 17.25 18.75C17.25 17.9216 16.5784 17.25 15.75 17.25C14.9216 17.25 14.25 17.9216 14.25 18.75C14.25 19.5785 14.9216 20.25 15.75 20.25Z" fill="white"/>
<path d="M19.5 9.39993C20.3284 9.39993 21 8.72836 21 7.89993C21 7.0715 20.3284 6.39993 19.5 6.39993C18.6716 6.39993 18 7.0715 18 7.89993C18 8.72836 18.6716 9.39993 19.5 9.39993Z" fill="white"/>
<path d="M19.5 18.0001C20.3284 18.0001 21 17.3285 21 16.5001C21 15.6716 20.3284 15.0001 19.5 15.0001C18.6716 15.0001 18 15.6716 18 16.5001C18 17.3285 18.6716 18.0001 19.5 18.0001Z" fill="white"/>
<path d="M19.5 13.6999C20.3284 13.6999 21 13.0283 21 12.1999C21 11.3715 20.3284 10.6999 19.5 10.6999C18.6716 10.6999 18 11.3715 18 12.1999C18 13.0283 18.6716 13.6999 19.5 13.6999Z" fill="white"/>
</svg>
