<svg width="24" height="24" viewBox="0 0 24 24" fill="none" xmlns="http://www.w3.org/2000/svg">
<circle cx="12" cy="12" r="12" fill="white"/>
<path d="M15.9844 6.20923H7.96875V7.96873H15.9844V6.20923Z" fill="#E50913"/>
<path d="M12.0116 19.6989C11.2542 19.6989 10.5755 19.5743 9.97542 19.3251C9.37538 19.0758 8.89341 18.7069 8.52942 18.2184C8.17533 17.7299 7.98844 17.1416 7.96875 16.4537H10.6542C10.6935 16.8425 10.8263 17.1416 11.0525 17.351C11.2788 17.5504 11.5739 17.6501 11.9378 17.6501C12.3116 17.6501 12.6067 17.5653 12.8231 17.3958C13.0395 17.2164 13.1477 16.9721 13.1477 16.6631C13.1477 16.4038 13.0592 16.1895 12.8821 16.02C12.7149 15.8505 12.5034 15.7109 12.2477 15.6013C12.0018 15.4916 11.6476 15.3669 11.1853 15.2274C10.5165 15.018 9.9705 14.8086 9.54755 14.5993C9.12455 14.3899 8.76061 14.0808 8.45564 13.672C8.15072 13.2633 7.99828 12.7299 7.99828 12.0719C7.99828 11.0948 8.34745 10.3321 9.04584 9.78376C9.74428 9.22543 10.6542 8.94629 11.7755 8.94629C12.9166 8.94629 13.8363 9.22543 14.5347 9.78376C15.2331 10.3321 15.6069 11.0998 15.6561 12.0868H12.9264C12.9068 11.7478 12.7838 11.4836 12.5575 11.2942C12.3313 11.0948 12.0411 10.9951 11.687 10.9951C11.382 10.9951 11.1361 11.0799 10.9493 11.2494C10.7624 11.4089 10.6689 11.6431 10.6689 11.9522C10.6689 12.2912 10.8263 12.5554 11.1411 12.7449C11.4558 12.9343 11.9477 13.1386 12.6165 13.358C13.2855 13.5873 13.8265 13.8067 14.2396 14.016C14.6626 14.2254 15.0265 14.5295 15.3315 14.9283C15.6364 15.3271 15.7889 15.8405 15.7889 16.4686C15.7889 17.0669 15.6364 17.6102 15.3315 18.0987C15.0364 18.5873 14.6036 18.9761 14.033 19.2653C13.4625 19.5544 12.7887 19.6989 12.0116 19.6989Z" fill="black"/>
</svg>
