<svg width="24" height="24" viewBox="0 0 24 24" fill="none" xmlns="http://www.w3.org/2000/svg">
<circle cx="12" cy="12" r="12" fill="white"/>
<path d="M0.893237 11.9684C0.866169 5.84208 5.91429 0.825544 12.0361 0.839078C18.0451 0.852611 23.1654 5.7293 23.1429 12.0225C23.1203 18.2661 18 23.1699 11.8962 23.1113C5.86015 23.0481 0.866169 18.0812 0.893237 11.9684ZM6.87519 16.3443C6.90226 16.3895 6.90677 16.403 6.91579 16.412C6.93835 16.4391 6.96542 16.4707 6.98797 16.4977C8.50827 18.0631 10.3128 18.8797 12.5323 18.6451C13.6827 18.5233 14.7519 18.1849 15.7128 17.5218C17.5263 16.2767 17.5128 14.0887 16.403 12.7173C15.8797 12.0676 15.1895 11.6255 14.4586 11.2601C13.5654 10.8135 12.6496 10.403 11.7564 9.94283C11.188 9.6496 10.6511 9.29321 10.3444 8.69772C9.91128 7.86314 9.99699 6.91577 10.9985 6.40599C11.409 6.19396 11.8556 6.07667 12.3158 6.07216C13.4075 6.06765 14.3955 6.39246 15.2526 7.06915C15.6632 7.39396 16.0286 7.7684 16.4346 8.13381C16.615 7.97592 16.8135 7.80449 17.0165 7.62404C16.9489 7.55186 16.9038 7.50223 16.8586 7.45261C15.4286 5.82404 13.6602 5.03005 11.4722 5.30073C10.3083 5.44509 9.26617 5.88269 8.37745 6.66314C6.87519 7.97141 6.97444 10.0556 7.96241 11.3007C8.55339 12.0451 9.35639 12.4917 10.2 12.8752C11.0571 13.2631 11.9278 13.624 12.7805 14.0255C13.3353 14.2872 13.8451 14.6391 14.1203 15.2075C14.5399 16.0782 14.4451 16.8631 13.5338 17.3819C12.9474 17.7158 12.3113 17.8782 11.6436 17.8556C10.3353 17.8105 9.18045 17.3458 8.18797 16.4842C7.93534 16.2676 7.69624 16.0331 7.44361 15.803C7.24963 15.997 7.06466 16.1684 6.87519 16.3443Z" fill="black"/>
<path d="M9.41053 6.90224C9.37444 7.14585 9.33835 7.33983 9.3203 7.53833C9.22557 8.47217 9.56843 9.23908 10.2406 9.86615C10.9444 10.5203 11.8105 10.8992 12.6632 11.2962C13.5429 11.7068 14.4451 12.0767 15.2211 12.6857C15.9429 13.2496 16.3489 13.9714 16.3489 14.9008C16.3444 15.8571 15.8165 16.4797 15.0496 16.9805C15.0947 16.7278 15.1624 16.4978 15.1714 16.2632C15.2075 15.0993 14.6752 14.2105 13.7008 13.6376C12.9474 13.191 12.1173 12.8662 11.3278 12.4782C10.6692 12.1579 9.99249 11.8692 9.37444 11.4857C8.42256 10.8947 7.98045 10.0015 8.07068 8.87818C8.12482 8.20149 8.49023 7.67367 8.99098 7.23607C9.11279 7.11878 9.24813 7.02404 9.41053 6.90224Z" fill="black"/>
</svg>
