<svg width="24" height="24" viewBox="0 0 24 24" fill="none" xmlns="http://www.w3.org/2000/svg">
<circle cx="12" cy="12" r="12" fill="#172852"/>
<path d="M10.3316 16.3335C10.7816 17.9985 12.3962 19.2686 13.2116 19.2162C13.2402 19.2142 16.3043 18.6429 17.9816 15.8412C19.2866 13.6603 18.8425 11.5549 17.067 11.5088C16.4285 11.5556 9.47438 13.1623 10.3319 16.3342L10.3316 16.3335ZM16.9016 5.64037L16.8998 5.63879L16.9023 5.63722C15.7841 4.68609 14.4199 4.07024 12.9669 3.86061C11.5139 3.65098 10.0313 3.85611 8.6898 4.45237C8.52099 4.52303 8.35659 4.6038 8.1975 4.69424C8.08815 4.75229 7.9788 4.81034 7.8726 4.87424L7.89848 4.88212C7.58442 5.09589 7.30675 5.35874 7.0761 5.66062C4.8387 8.61442 12.3344 10.7625 16.3425 10.7688C18.1855 12.0925 18.703 7.04257 16.9016 5.64037Z" fill="#0E3CA5"/>
<path d="M9.14251 5.69998C8.11268 7.24798 4.68256 8.33856 4.11848 8.16868L4.11466 8.16148C4.13716 8.11491 4.16123 8.06833 4.18508 8.02221C4.77002 6.89555 5.60697 5.91901 6.63083 5.16853C6.84188 5.01403 7.06043 4.86936 7.28648 4.73451C7.63407 4.54276 8.02334 4.43909 8.42026 4.43256C9.94778 4.46181 9.15016 5.68806 9.14206 5.70043L9.14251 5.69998ZM8.29741 16.6379C8.37143 17.1241 8.29561 19.0454 8.19616 19.207C8.11043 19.2121 7.93201 19.2232 7.41518 18.9331C5.76488 17.9915 4.49167 16.5073 3.81202 14.733C3.13237 12.9587 3.08825 11.0037 3.68716 9.20053C3.71461 9.11803 3.74333 9.03606 3.77333 8.95461C4.36531 9.74211 5.05043 10.4545 5.63273 11.2496C6.18736 12.007 6.95033 13.2413 7.10558 13.505C8.06948 15.1426 8.22316 16.1526 8.29673 16.6381L8.29741 16.6379ZM19.6925 11.7961C19.6938 12.8286 19.4999 13.852 19.121 14.8125C18.1535 15.852 11.6321 13.2931 11.5682 13.2652C10.6761 12.8743 7.96126 11.685 7.71623 9.81748C7.36501 7.12873 12.8168 5.25583 15.213 5.18496C15.5003 5.18833 16.3749 5.19846 16.8845 5.61246C17.7675 6.3825 18.475 7.33293 18.9594 8.39966C19.4438 9.46638 19.6938 10.6246 19.6925 11.7961ZM15.2778 19.0801C14.567 19.4117 13.7843 19.1701 13.9877 18.4777C14.378 17.1482 17.787 15.7852 18.5399 15.7102C18.6328 15.701 18.6722 15.7642 18.631 15.8365C17.8467 17.2157 16.6831 18.341 15.2785 19.0789" fill="#5493F7"/>
<path d="M6.90059 20.3822C6.89049 20.5323 6.93974 20.6804 7.03774 20.7946C7.13575 20.9088 7.27467 20.98 7.42461 20.9928C14.3321 21.0401 21 20.7228 21 19.6878C21 16.5549 6.90059 20.3822 6.90059 20.3822Z" fill="url(#paint0_linear_927_5690)"/>
<path d="M6.90059 20.3822C6.89034 20.5327 6.93986 20.6813 7.03842 20.7956C7.13698 20.9099 7.27663 20.9808 7.42709 20.9928C14.3328 21.0452 20.9917 20.8283 21 19.6878C21 16.5549 6.90059 20.3822 6.90059 20.3822ZM7.42754 20.953C7.40912 20.953 7.39071 20.9519 7.37241 20.9498C7.26708 20.9351 7.16843 20.8896 7.08886 20.819C7.00928 20.7485 6.95232 20.656 6.92511 20.5532C6.95472 20.6646 7.01959 20.7634 7.11004 20.8349C7.20048 20.9063 7.31163 20.9466 7.42686 20.9496C14.3276 20.9062 20.8918 18.7815 20.8918 19.7168C20.8918 20.672 14.3281 21 7.42754 20.953Z" fill="url(#paint1_linear_927_5690)"/>
<path d="M7.428 11.51C7.35874 11.5099 7.29014 11.5236 7.22614 11.5501C7.16214 11.5766 7.10399 11.6154 7.05501 11.6644C7.00603 11.7134 6.96718 11.7715 6.94069 11.8355C6.9142 11.8995 6.90057 11.9681 6.9006 12.0374V20.3822C6.90048 20.5215 6.95553 20.6553 7.05372 20.7542C7.15191 20.8531 7.28526 20.9091 7.42463 20.91C14.3317 20.8583 21.0083 18.572 21 19.688V10.2887C21.0083 9.17245 14.3339 11.4585 7.428 11.51Z" fill="url(#paint2_linear_927_5690)"/>
<path d="M12.1532 16.0628C12.1368 16.0723 12.137 16.0723 12.137 16.0871C12.1208 16.0968 12.1208 16.1117 12.1046 16.1139C12.0965 16.1222 12.0965 16.1364 12.0887 16.1456C12.0887 16.1605 12.0806 16.1681 12.0887 16.1825V16.2194C12.0887 16.2343 12.0808 16.2644 12.097 16.2775C12.1051 16.2912 12.1213 16.2964 12.1296 16.3027C12.1377 16.3027 12.1539 16.2847 12.1539 16.2847C12.162 16.2761 12.1456 16.2635 12.1456 16.2561C12.1475 16.2433 12.1502 16.2306 12.1537 16.2181C12.154 16.2119 12.1556 16.2059 12.1584 16.2005C12.1612 16.195 12.1651 16.1902 12.1699 16.1864C12.1699 16.1789 12.1863 16.1618 12.1863 16.1544C12.1863 16.1249 12.1944 16.1015 12.1778 16.0815C12.178 16.0741 12.1616 16.0617 12.1532 16.0628ZM13.3113 15.7235C13.3113 15.7161 13.33 15.6995 13.3392 15.6911C13.3484 15.6754 13.3579 15.6743 13.3392 15.6619C13.3295 15.6556 13.3293 15.641 13.3392 15.6394C13.3581 15.6227 13.3581 15.6299 13.3673 15.6144C13.3673 15.607 13.3388 15.6029 13.3293 15.6041C13.3199 15.5978 13.3106 15.6135 13.3014 15.6218C13.2922 15.6302 13.2733 15.6398 13.2638 15.6482C13.2458 15.665 13.2227 15.6754 13.1981 15.6776C13.1795 15.6871 13.1795 15.6871 13.1797 15.7015C13.1705 15.7172 13.1797 15.724 13.1894 15.7296C13.1915 15.7393 13.1947 15.7488 13.199 15.7577C13.2087 15.764 13.2274 15.7546 13.2368 15.7535C13.2557 15.7514 13.2652 15.7503 13.2746 15.7566C13.279 15.7594 13.2842 15.7606 13.2894 15.76C13.2946 15.7594 13.2994 15.757 13.303 15.7532C13.3021 15.7393 13.3115 15.7382 13.3113 15.7235ZM13.2272 15.8284C13.2177 15.8295 13.1801 15.8338 13.1801 15.8264C13.1707 15.8126 13.1707 15.798 13.1612 15.7917C13.1518 15.8 13.1612 15.8142 13.152 15.8223C13.1426 15.8381 13.1612 15.8432 13.1707 15.8495C13.1896 15.8475 13.199 15.8538 13.2177 15.8516C13.2244 15.8506 13.2312 15.851 13.2377 15.8528C13.2442 15.8546 13.2503 15.8577 13.2555 15.8619C13.2744 15.8599 13.2839 15.8439 13.265 15.8315C13.265 15.825 13.2375 15.8273 13.2272 15.8284ZM12.6883 15.6864C12.6883 15.6936 12.6795 15.7166 12.6975 15.7217C12.7157 15.7195 12.7247 15.6965 12.7245 15.6893C12.7243 15.6821 12.7335 15.6592 12.7153 15.654C12.7153 15.654 12.6883 15.679 12.6883 15.6864ZM15.1347 14.6888C15.1275 14.6901 15.1203 14.7061 15.1122 14.7146C15.1122 14.7221 15.1052 14.7371 15.1196 14.7351C15.1267 14.7285 15.1318 14.72 15.134 14.7106C15.15 14.7 15.15 14.6861 15.1347 14.6888ZM14.9754 15.1633C14.9754 15.1633 14.9529 15.1527 14.9529 15.1601C14.9529 15.1745 14.9608 15.1806 14.9684 15.1793C14.9876 15.1884 15.0081 15.1945 15.0292 15.1973C15.0366 15.1959 15.0589 15.1919 15.0589 15.1844C15.0587 15.1826 15.0582 15.1809 15.0573 15.1793C15.0565 15.1778 15.0553 15.1764 15.0539 15.1753C15.0525 15.1742 15.0508 15.1734 15.0491 15.173C15.0474 15.1725 15.0456 15.1724 15.0438 15.1727C15.0207 15.1731 14.9976 15.1699 14.9754 15.1633ZM15.222 15.1878C15.2214 15.1827 15.2189 15.1781 15.215 15.1748C15.2013 15.1705 15.2013 15.1705 15.1943 15.1793V15.1865C15.2013 15.1849 15.222 15.195 15.222 15.1878ZM15.1464 14.3006C15.1538 14.2993 15.1608 14.2907 15.1689 14.2966C15.1761 14.2952 15.1761 14.3027 15.1833 14.3085C15.1977 14.313 15.2047 14.3191 15.2186 14.3164L15.2396 14.3123C15.2465 14.3036 15.2396 14.2977 15.2396 14.2898C15.2264 14.285 15.2144 14.2773 15.2045 14.2673C15.1973 14.2613 15.1831 14.264 15.1687 14.252C15.1543 14.2475 15.1462 14.2489 15.1327 14.266C15.1327 14.2732 15.1255 14.2745 15.1181 14.2759C15.1106 14.2772 15.1109 14.2919 15.1181 14.2984C15.1248 14.3119 15.132 14.3105 15.1464 14.3006ZM13.9699 15.7487C13.9886 15.7391 13.9883 15.688 13.9607 15.6988C13.9422 15.7085 13.9514 15.7575 13.9699 15.7487ZM14.7326 14.2005C14.7179 14.2015 14.7037 14.2062 14.6912 14.214C14.6813 14.2236 14.6729 14.2347 14.6665 14.2469C14.6665 14.2469 14.6665 14.2694 14.6584 14.2694C14.6435 14.2706 14.6291 14.2752 14.6163 14.2829C14.6134 14.2858 14.6111 14.2893 14.6097 14.2932C14.6083 14.2971 14.6078 14.3012 14.6082 14.3054C14.6082 14.3126 14.6001 14.3279 14.5916 14.3297C14.5916 14.3225 14.5657 14.3114 14.5574 14.3272C14.5574 14.3346 14.5747 14.3396 14.5747 14.3468C14.5747 14.354 14.5747 14.3542 14.5835 14.3603C14.592 14.3589 14.592 14.3517 14.6006 14.365V14.3875C14.6091 14.4008 14.6096 14.4156 14.6348 14.4118C14.6415 14.4103 14.6486 14.4112 14.6548 14.4143C14.661 14.4174 14.6659 14.4226 14.6687 14.4289C14.6771 14.435 14.6773 14.4422 14.6856 14.4482C14.6856 14.4557 14.6942 14.4543 14.7025 14.4532C14.7072 14.4595 14.7136 14.4644 14.721 14.4671C14.7284 14.4699 14.7364 14.4704 14.7441 14.4687C14.7605 14.4737 14.7689 14.4723 14.7851 14.477C14.7934 14.4831 14.8096 14.4806 14.8017 14.4966C14.8017 14.5038 14.7857 14.5137 14.7857 14.5283C14.7857 14.5576 14.8424 14.5268 14.8584 14.5315C14.8744 14.5362 14.8904 14.5335 14.8982 14.5396C14.914 14.5371 14.9138 14.5225 14.9138 14.5151C14.9138 14.5004 14.9057 14.4946 14.9138 14.4786C14.9138 14.4714 14.9293 14.4687 14.9363 14.4676C14.9518 14.4577 14.9516 14.4431 14.9363 14.4451C14.9205 14.4404 14.9138 14.4417 14.8969 14.437C14.8852 14.4336 14.8743 14.4278 14.8649 14.4201C14.8568 14.4068 14.8568 14.4068 14.8406 14.4021C14.8166 14.3985 14.7923 14.4021 14.7594 14.4001C14.7347 14.3893 14.6935 14.4174 14.6919 14.3807L14.7086 14.3783C14.7097 14.3774 14.7107 14.3763 14.7113 14.3751C14.712 14.3738 14.7123 14.3724 14.7123 14.3709C14.7123 14.3695 14.712 14.3681 14.7113 14.3668C14.7107 14.3656 14.7097 14.3645 14.7086 14.3636C14.7213 14.3566 14.7353 14.352 14.7497 14.3501C14.7745 14.3463 14.799 14.3501 14.8231 14.3461C14.8393 14.3436 14.8474 14.3497 14.8634 14.3472C14.8793 14.3447 14.8717 14.3677 14.8717 14.3751C14.8717 14.3825 14.8798 14.3884 14.8958 14.3931C14.9036 14.392 14.9117 14.4053 14.9196 14.4113C14.9405 14.4269 14.9644 14.4377 14.9898 14.4433C15.012 14.4478 15.0348 14.4487 15.0573 14.4462C15.0798 14.4422 15.1023 14.4309 15.1023 14.4012C15.1014 14.3953 15.0988 14.3897 15.0948 14.3852C15.0908 14.3807 15.0856 14.3775 15.0798 14.376C15.0722 14.3699 15.0722 14.3627 15.0647 14.3567C15.0646 14.3503 15.0632 14.344 15.0605 14.3382C15.0579 14.3324 15.0541 14.3272 15.0494 14.3229C15.0418 14.3096 15.0494 14.3004 15.0416 14.295C15.0339 14.2817 15.0263 14.2759 15.0263 14.2613C15.0263 14.2388 15.0263 14.2388 15.0184 14.2334C15.0065 14.2273 14.9932 14.2245 14.9799 14.2253C14.9644 14.2205 14.9574 14.2291 14.9489 14.223C14.9373 14.2196 14.9266 14.2139 14.9174 14.2064C14.9014 14.2014 14.8935 14.1956 14.8775 14.1906C14.8644 14.187 14.8506 14.187 14.8375 14.1906C14.8213 14.2003 14.8213 14.2003 14.8132 14.1942C14.79 14.1845 14.7657 14.1956 14.7326 14.2005ZM13.0854 15.7274C13.0681 15.7147 13.0491 15.7046 13.0289 15.6974C13.0052 15.6882 12.9793 15.6861 12.9545 15.6914C12.9452 15.6997 12.9545 15.7139 12.9545 15.7139C12.9663 15.7185 12.9792 15.7195 12.9916 15.717C13.0117 15.7241 13.0307 15.7342 13.0478 15.7469C13.0622 15.761 13.075 15.7767 13.0859 15.7937C13.0951 15.7937 13.1234 15.8408 13.1329 15.825C13.1329 15.8102 13.1513 15.7717 13.1329 15.7665C13.1194 15.7508 13.1034 15.7376 13.0854 15.7274ZM13.4537 15.8684C13.4328 15.8775 13.4104 15.8826 13.3876 15.8835C13.3781 15.8846 13.3876 15.8981 13.397 15.8972C13.397 15.9044 13.4159 15.9024 13.4254 15.8939C13.4348 15.8939 13.4348 15.8853 13.4443 15.8916L13.4726 15.8882C13.4915 15.8862 13.4915 15.8788 13.4821 15.8657L13.4537 15.8684ZM13.3646 15.4468C13.3552 15.4551 13.3552 15.4625 13.3646 15.4693C13.376 15.4761 13.3891 15.4797 13.4024 15.4796C13.4119 15.4785 13.4117 15.4571 13.4024 15.4571C13.4024 15.4497 13.3833 15.4299 13.3925 15.429C13.402 15.4205 13.4112 15.4121 13.4018 15.4065C13.3989 15.4018 13.3946 15.3981 13.3895 15.3961C13.3844 15.3941 13.3787 15.3938 13.3734 15.3953C13.3356 15.3989 13.3644 15.4322 13.3646 15.4468ZM13.4065 15.8741C13.4254 15.8644 13.4159 15.8583 13.397 15.8603C13.3876 15.854 13.3781 15.8552 13.3592 15.8574L13.3309 15.8608C13.3189 15.856 13.3057 15.8549 13.2931 15.8576C13.2744 15.8671 13.2931 15.8725 13.3025 15.8714C13.3214 15.8691 13.3214 15.8765 13.3403 15.8743C13.35 15.8732 13.397 15.8824 13.4065 15.8741ZM13.5392 15.0969C13.5201 15.092 13.4735 15.1194 13.4924 15.1244C13.5111 15.1223 13.5392 15.1115 13.5392 15.0969ZM13.4218 15.4988C13.4312 15.4988 13.4409 15.5037 13.4407 15.4965C13.439 15.4889 13.4357 15.4818 13.431 15.4756C13.4119 15.4632 13.4031 15.5008 13.4218 15.4988ZM13.5091 15.6569C13.5091 15.6497 13.5183 15.6412 13.5183 15.6344C13.5183 15.6277 13.4897 15.6304 13.4803 15.6315C13.4803 15.6461 13.4618 15.6556 13.4715 15.6765C13.4715 15.6839 13.5095 15.6941 13.519 15.6857C13.519 15.6857 13.5377 15.6689 13.528 15.6632C13.5183 15.6576 13.5093 15.6644 13.5091 15.6569ZM13.4506 15.5174C13.4411 15.5174 13.4225 15.5352 13.4225 15.5426C13.4319 15.5487 13.4414 15.5476 13.4416 15.555C13.4418 15.5624 13.4324 15.5708 13.4324 15.5775C13.4135 15.5723 13.404 15.5809 13.3851 15.5829C13.3759 15.5912 13.3761 15.6054 13.395 15.6038C13.3973 15.6038 13.3996 15.603 13.4013 15.6014C13.403 15.5998 13.4041 15.5976 13.4042 15.5953C13.4139 15.5932 13.4239 15.5946 13.4326 15.5993C13.4423 15.6056 13.4423 15.6131 13.4706 15.6097C13.4895 15.6002 13.4706 15.5872 13.4706 15.5732C13.4706 15.5593 13.4515 15.5606 13.4607 15.5451C13.4697 15.537 13.4598 15.5163 13.4506 15.5174ZM13.4978 14.831C13.5165 14.8215 13.4693 14.8051 13.4598 14.799C13.4504 14.7929 13.4501 14.7927 13.4501 14.7781C13.4405 14.772 13.4405 14.772 13.431 14.7585C13.3973 14.7413 13.3626 14.7263 13.3271 14.7135C13.3269 14.7158 13.3258 14.718 13.3241 14.7196C13.3224 14.7212 13.3202 14.7221 13.3178 14.7221C13.3367 14.7491 13.384 14.7578 13.4126 14.7837C13.422 14.79 13.4222 14.8193 13.4319 14.8253C13.4416 14.8314 13.4886 14.8395 13.4978 14.831ZM13.3937 15.5019C13.3748 15.5114 13.3937 15.5244 13.4128 15.5217C13.4319 15.519 13.4031 15.5008 13.3937 15.5019ZM13.4436 15.7085C13.4531 15.7073 13.4812 15.6968 13.4621 15.6844C13.4322 15.6856 13.4032 15.6939 13.3772 15.7087C13.3681 15.7144 13.3608 15.7224 13.3559 15.732C13.351 15.7415 13.3488 15.7522 13.3496 15.7629V15.7924C13.3605 15.8012 13.3735 15.8072 13.3874 15.8099C13.4157 15.7994 13.3685 15.7755 13.3777 15.7598C13.3871 15.7586 13.3874 15.7661 13.3968 15.7724C13.3968 15.7796 13.4063 15.7859 13.4157 15.7847C13.4252 15.7836 13.4441 15.7742 13.4346 15.7753C13.4346 15.7679 13.4252 15.7618 13.4157 15.7627C13.3871 15.7514 13.4344 15.746 13.4438 15.7449C13.472 15.7197 13.4153 15.7337 13.4058 15.7346C13.4058 15.7199 13.4247 15.7105 13.4436 15.7085ZM13.4 15.2598C13.3967 15.2625 13.3941 15.266 13.3925 15.2699C13.3909 15.2738 13.3903 15.2781 13.3907 15.2823C13.3815 15.2909 13.3817 15.3199 13.382 15.3273C13.3863 15.3293 13.3911 15.3303 13.3959 15.3304C13.4007 15.3304 13.4054 15.3295 13.4098 15.3275C13.4142 15.3256 13.4182 15.3228 13.4215 15.3193C13.4247 15.3158 13.4272 15.3116 13.4288 15.3071C13.4247 15.293 13.4214 15.2787 13.4189 15.2643C13.4189 15.2643 13.4092 15.2515 13.4 15.2598ZM14.2847 14.8503C14.2759 14.8589 14.2847 14.8649 14.2939 14.871C14.2939 14.8784 14.3033 14.8991 14.3211 14.8895C14.3299 14.8809 14.3211 14.867 14.3117 14.8613C14.3037 14.8556 14.2944 14.8518 14.2847 14.8503ZM14.5583 14.3873C14.5583 14.3726 14.5664 14.3567 14.5583 14.3506C14.5554 14.3497 14.5523 14.3495 14.5493 14.35C14.5464 14.3505 14.5435 14.3517 14.5411 14.3535C14.5386 14.3552 14.5366 14.3575 14.5352 14.3602C14.5337 14.3628 14.5329 14.3658 14.5328 14.3688C14.5324 14.3834 14.5409 14.3823 14.5583 14.3873ZM14.5425 14.5286C14.5506 14.5322 14.5593 14.5341 14.5682 14.5341C14.577 14.5341 14.5857 14.5322 14.5938 14.5286C14.5938 14.5214 14.6021 14.52 14.6021 14.5128C14.5936 14.5067 14.585 14.5079 14.5848 14.5007C14.5763 14.4944 14.5763 14.4872 14.5677 14.4883C14.5592 14.4894 14.5506 14.4908 14.5504 14.4836C14.5504 14.4836 14.5416 14.4701 14.5504 14.4689C14.5504 14.4543 14.5504 14.4543 14.5414 14.4482C14.5243 14.4433 14.5155 14.4444 14.507 14.453C14.4899 14.4626 14.507 14.4755 14.507 14.4896C14.5051 14.5 14.5023 14.5102 14.4986 14.52C14.505 14.5244 14.5121 14.5274 14.5197 14.5288C14.5272 14.5303 14.535 14.5302 14.5425 14.5286ZM16.5871 14.4172L16.5457 14.3609L16.5043 14.3834C16.5712 14.532 16.623 14.6869 16.6591 14.8458L16.851 14.7889V14.7389L16.7545 14.7567C16.7014 14.7522 16.6703 14.6084 16.6703 14.6084C16.9194 14.5184 17.0501 14.4734 17.3111 14.3866L17.3442 14.4523L17.4117 14.4269L17.2688 14.1087L17.2137 14.1254L17.2362 14.1929C17.0187 14.2643 16.8023 14.339 16.5871 14.4172ZM14.5157 14.43C14.5244 14.4213 14.5302 14.4103 14.5326 14.3983C14.5409 14.3825 14.5151 14.3861 14.5065 14.3947C14.498 14.4032 14.4896 14.4118 14.4896 14.419C14.4899 14.4334 14.5074 14.4458 14.5157 14.43ZM14.4732 14.4872C14.4765 14.4812 14.4774 14.4742 14.4756 14.4675C14.4739 14.4609 14.4698 14.4552 14.464 14.4516C14.4552 14.4455 14.4552 14.4455 14.4464 14.4469C14.4377 14.4408 14.4377 14.448 14.4291 14.4566C14.4291 14.464 14.4208 14.4869 14.4383 14.4919C14.4561 14.5043 14.4649 14.5029 14.4732 14.4872ZM15.0949 15.1703C15.1021 15.1761 15.1023 15.1833 15.1095 15.182C15.1127 15.1844 15.1164 15.1859 15.1204 15.1865C15.1243 15.187 15.1283 15.1864 15.132 15.1849L15.1604 15.179C15.1604 15.179 15.1745 15.1907 15.1743 15.1763C15.1673 15.1559 15.1462 15.1676 15.1318 15.1703C15.1246 15.1572 15.1246 15.1572 15.1093 15.1601C15.1093 15.1601 15.0875 15.1642 15.0949 15.1703ZM13.4328 17.2805C13.4983 17.2565 13.5638 17.2398 13.62 17.2243C13.6832 17.2006 13.7488 17.1835 13.8155 17.1734C13.8432 17.1694 13.8803 17.1566 13.908 17.1523C13.9333 17.1404 13.9579 17.127 13.9816 17.1122C14.0139 17.0967 14.0477 17.0843 14.0824 17.0751C14.1096 17.0636 14.1458 17.0654 14.1638 17.0553C14.1728 17.054 14.1818 17.0526 14.1818 17.0454C14.1818 17.0382 14.1818 17.038 14.1731 17.0396L14.1188 17.0479C14.0916 17.0519 14.0642 17.0634 14.0367 17.0675C13.9728 17.0846 13.9076 17.0938 13.8434 17.1111C13.7836 17.1234 13.7246 17.1394 13.6668 17.159C13.6013 17.1831 13.5172 17.2099 13.4515 17.2412C13.3766 17.274 13.3111 17.3127 13.2366 17.3451C13.242 17.3487 13.2485 17.3505 13.2551 17.3501C13.3205 17.326 13.3766 17.3033 13.4328 17.2805ZM12.1748 17.3035C12.1584 17.2981 12.142 17.2778 12.1256 17.2722C12.1175 17.288 12.1584 17.3055 12.1667 17.3118C12.1751 17.3181 12.2165 17.3505 12.2081 17.3737C12.1998 17.3674 12.1917 17.3683 12.1917 17.3757C12.1917 17.3831 12.2 17.3969 12.2 17.4043C12.2 17.4117 12.2084 17.4182 12.2084 17.4257C12.2117 17.4282 12.2157 17.43 12.2199 17.4308C12.224 17.4315 12.2283 17.4313 12.2324 17.4301C12.2365 17.4289 12.2402 17.4268 12.2433 17.4238C12.2464 17.4209 12.2488 17.4173 12.2502 17.4133C12.2496 17.3875 12.2408 17.3626 12.225 17.3422C12.2162 17.3285 12.1915 17.3165 12.1748 17.3035ZM13.7775 17.6095C13.8144 17.6036 13.8421 17.6063 13.8698 17.6021C13.9131 17.5988 13.9561 17.5919 13.9982 17.5814C14.0262 17.5652 14.0572 17.5553 14.0894 17.5521C14.0986 17.5508 14.0986 17.5361 14.0986 17.5361L14.0086 17.551C13.9691 17.5566 13.9291 17.5581 13.8893 17.5555C13.8443 17.5555 13.8063 17.5467 13.76 17.5467C13.6859 17.5436 13.6115 17.5258 13.5368 17.515C13.4747 17.5055 13.4114 17.5074 13.35 17.5206C13.3592 17.5339 13.4247 17.5316 13.4434 17.5289C13.4678 17.5367 13.4928 17.5428 13.5181 17.5472C13.5741 17.5607 13.6306 17.5814 13.6857 17.5946C13.712 17.5976 13.7489 17.6066 13.7775 17.6095ZM14.5585 14.4019L14.5499 14.403C14.5499 14.4104 14.5587 14.4237 14.5499 14.4255C14.5499 14.4255 14.5328 14.4352 14.5416 14.4413C14.5504 14.4473 14.5677 14.4595 14.5763 14.4584C14.5846 14.4424 14.5929 14.4338 14.5841 14.4206C14.5841 14.4055 14.5754 14.392 14.5585 14.4019ZM14.822 14.7871L14.8699 14.7792C14.8618 14.7659 14.8616 14.7513 14.8535 14.7455C14.8456 14.7466 14.8213 14.7286 14.8134 14.7371C14.8055 14.7531 14.8377 14.7551 14.8298 14.7639C14.8175 14.7711 14.8038 14.7758 14.7896 14.7776C14.7817 14.7934 14.8139 14.7884 14.822 14.7871Z" fill="white"/>
<path d="M15.2017 15.265C15.1918 15.2797 15.1771 15.2905 15.1601 15.2956L15.181 15.2693C15.188 15.2605 15.188 15.2605 15.1878 15.2533C15.181 15.2546 15.1808 15.2474 15.1738 15.249C15.1519 15.2641 15.128 15.2762 15.103 15.2852C15.0958 15.2866 15.0886 15.3026 15.0805 15.3113C15.0805 15.3113 15.0805 15.3041 15.0733 15.3127L15.0658 15.3143C15.0655 15.3183 15.064 15.3221 15.0614 15.3252C15.0588 15.3283 15.0553 15.3305 15.0514 15.3316C15.042 15.3274 15.0313 15.3268 15.0215 15.33C15.0141 15.3314 14.999 15.3487 14.9916 15.35C14.9765 15.3455 14.9691 15.3469 14.9612 15.341C14.9574 15.3357 14.9554 15.3293 14.9554 15.3228C14.9554 15.3163 14.9574 15.3099 14.9612 15.3046C14.9612 15.2821 14.9684 15.2522 14.9387 15.2576C14.9162 15.2616 14.8845 15.2891 14.8685 15.2697C14.8604 15.2492 14.9074 15.2193 14.8757 15.2101C14.8519 15.1995 14.8282 15.2254 14.8042 15.2366C14.8001 15.2408 14.7947 15.2436 14.7889 15.2446C14.7831 15.2455 14.7772 15.2445 14.772 15.2418C14.7637 15.2357 14.7553 15.2225 14.747 15.2164C14.74 15.2058 14.7343 15.1944 14.7301 15.1824C14.7301 15.1678 14.7382 15.1667 14.7461 15.1507C14.7458 15.1434 14.7471 15.1361 14.7499 15.1294C14.7526 15.1226 14.7568 15.1165 14.7621 15.1115C14.77 15.103 14.7783 15.1091 14.7945 15.1064C14.8026 15.105 14.8186 15.0951 14.8264 15.0938C14.8424 15.0839 14.8505 15.0825 14.8663 15.0726C14.882 15.0699 14.8888 15.0614 14.9054 15.0587C14.9121 15.0601 14.9184 15.063 14.9238 15.0671C14.9292 15.0712 14.9337 15.0765 14.9369 15.0825C14.9446 15.0884 14.9369 15.0971 14.9369 15.1118C14.9369 15.119 14.9527 15.1381 14.9594 15.1223C14.9819 15.0962 14.9819 15.0744 14.9664 15.0548C14.9664 15.0474 14.9587 15.0416 14.9585 15.0341C14.9585 15.0197 14.9585 15.0116 14.9659 15.0038C14.9792 14.9828 14.9943 14.963 15.0109 14.9446C15.0169 14.9253 15.0193 14.9051 15.0179 14.885C15.0253 14.869 15.0251 14.84 15.0474 14.8285C15.0699 14.8098 15.0546 14.7907 15.0699 14.7734C15.0773 14.7574 15.0924 14.7403 15.1063 14.7155C15.1135 14.707 15.1135 14.707 15.1133 14.693C15.1133 14.6858 15.0908 14.6899 15.0987 14.6739L15.1133 14.6712C15.1205 14.6627 15.1133 14.664 15.1059 14.6582C15.0985 14.6595 15.0834 14.6694 15.0764 14.6708C15.0841 14.6766 15.0913 14.6753 15.0915 14.6899C15.0841 14.6987 15.0769 14.7072 15.069 14.7014C15.0613 14.6881 15.069 14.6867 15.0539 14.6894C15.0465 14.6834 15.0314 14.6935 15.024 14.6948C15.0314 14.6861 15.0388 14.6703 15.0465 14.669C15.0616 14.6663 15.069 14.6575 15.0836 14.6548C15.1061 14.6507 15.1345 14.6381 15.1345 14.6163C15.1414 14.6003 15.127 14.5958 15.1196 14.59C15.119 14.5848 15.1165 14.58 15.1124 14.5767C15.105 14.5781 15.0978 14.5866 15.0899 14.588C15.0671 14.5871 15.0445 14.5838 15.0224 14.5781C14.9993 14.5779 14.9772 14.5686 14.961 14.5522C14.9609 14.5496 14.9601 14.5471 14.9587 14.545C14.9573 14.5428 14.9553 14.5411 14.953 14.54C14.9507 14.5389 14.9481 14.5385 14.9455 14.5388C14.943 14.539 14.9405 14.54 14.9385 14.5416C14.9306 14.5502 14.923 14.5515 14.9072 14.5468C14.8835 14.5409 14.8585 14.5424 14.8357 14.5511C14.8195 14.5535 14.8114 14.5549 14.8116 14.5695C14.8037 14.592 14.8116 14.592 14.828 14.5961C14.8361 14.6021 14.828 14.6107 14.8363 14.6168C14.8447 14.6228 14.8604 14.6276 14.8606 14.6348C14.8606 14.6573 14.8692 14.6773 14.8694 14.6991C14.8534 14.6944 14.8453 14.6811 14.8291 14.6838C14.8051 14.6802 14.797 14.6888 14.7805 14.6768C14.7648 14.6709 14.748 14.6685 14.7313 14.6699C14.7313 14.6624 14.7146 14.6723 14.7146 14.6649L14.6977 14.6528C14.6809 14.6408 14.6809 14.6334 14.6977 14.6237C14.7058 14.6078 14.7223 14.5979 14.7304 14.5821C14.7304 14.5747 14.7135 14.5479 14.7216 14.5468C14.7341 14.5359 14.7479 14.5265 14.7625 14.5187C14.7542 14.5052 14.7209 14.4962 14.7043 14.4908C14.6921 14.4874 14.6807 14.4817 14.6707 14.4739C14.6539 14.4689 14.6536 14.4543 14.6368 14.4568C14.6282 14.4507 14.6197 14.4521 14.6116 14.4678C14.6116 14.4752 14.6203 14.4885 14.6203 14.4959C14.6291 14.5092 14.646 14.5142 14.6379 14.5299C14.6212 14.547 14.6127 14.5409 14.5958 14.5508C14.5704 14.5561 14.5444 14.5573 14.5186 14.5544C14.5013 14.5495 14.4925 14.5434 14.475 14.5385C14.4702 14.5344 14.4646 14.5314 14.4585 14.5297C14.4524 14.5281 14.4461 14.5277 14.4399 14.5288C14.4136 14.525 14.3872 14.536 14.3605 14.525C14.3339 14.5211 14.3069 14.5101 14.2801 14.5063C14.2726 14.4997 14.263 14.4958 14.2529 14.4953C14.2529 14.4881 14.2437 14.4818 14.2347 14.4829C14.2167 14.4782 14.1897 14.4962 14.1627 14.507C14.1447 14.5169 14.1177 14.5202 14.1085 14.5295C14.0995 14.5379 14.0933 14.5489 14.0907 14.561C14.0907 14.5684 14.0817 14.5695 14.0727 14.5706C14.0452 14.5814 14.0542 14.5731 14.0545 14.5877L14.0365 14.6046C14.0289 14.6108 14.0238 14.6196 14.0223 14.6292C14.0208 14.6389 14.0228 14.6488 14.0281 14.657C14.0376 14.6705 14.0376 14.6705 14.0281 14.6795C14.0194 14.6953 14.0194 14.6953 14.0007 14.6903C13.9825 14.6926 13.9546 14.6888 13.9363 14.7056L13.955 14.718L13.9735 14.7158C13.988 14.7204 14.0036 14.721 14.0185 14.7173C14.0367 14.7077 14.0367 14.7002 14.0551 14.7052C14.0644 14.7115 14.0826 14.7018 14.0916 14.7007C14.1236 14.6892 14.1576 14.6848 14.1915 14.6876C14.2187 14.6843 14.2365 14.7101 14.2464 14.7245C14.2738 14.765 14.2925 14.8064 14.32 14.8469C14.32 14.8541 14.329 14.853 14.329 14.853C14.329 14.8602 14.338 14.8665 14.3382 14.8737V14.9104C14.3314 14.937 14.3289 14.9646 14.3308 14.9921C14.3308 14.9995 14.3308 15.0146 14.34 15.0202C14.34 15.0276 14.358 15.0398 14.3582 15.0472C14.3654 15.0595 14.3745 15.0706 14.3852 15.08C14.3922 15.0904 14.4013 15.0991 14.412 15.1057C14.4187 15.1287 14.4311 15.1497 14.448 15.1667C14.4658 15.1862 14.475 15.2069 14.5011 15.218C14.5184 15.2227 14.5011 15.1955 14.5011 15.1887C14.496 15.1863 14.4916 15.1825 14.4885 15.1778C14.4854 15.1731 14.4836 15.1676 14.4833 15.1619C14.4916 15.146 14.4833 15.1471 14.4741 15.1338C14.4653 15.1277 14.4478 15.1228 14.439 15.1093C14.4302 15.0958 14.439 15.0868 14.4561 15.0924C14.4649 15.0911 14.4736 15.1046 14.4739 15.1118C14.4826 15.1253 14.4914 15.1313 14.4916 15.1385C14.5004 15.152 14.5092 15.1581 14.518 15.1716C14.5267 15.1777 14.5353 15.1763 14.5441 15.1898C14.5465 15.2006 14.5528 15.2101 14.5616 15.2166C14.5704 15.2227 14.5873 15.2128 14.5958 15.2261C14.6044 15.2321 14.6046 15.2468 14.6131 15.2528C14.6241 15.2745 14.6411 15.2925 14.6619 15.3049C14.6828 15.3173 14.7068 15.3235 14.731 15.3228C14.7475 15.3201 14.7637 15.3102 14.7718 15.3163C14.7857 15.3154 14.7997 15.3181 14.8123 15.3242C14.8312 15.3378 14.8531 15.3467 14.8762 15.35C14.884 15.3487 14.8998 15.3388 14.9077 15.3446C14.9232 15.3491 14.9234 15.3638 14.9302 15.3698C14.9393 15.3761 14.9502 15.3792 14.9612 15.3788L14.9776 15.375C14.9853 15.3809 14.9855 15.3881 14.9929 15.3941C15.0004 15.4002 15.0004 15.3782 15.0078 15.3694C15.0152 15.3534 15.0226 15.3521 15.0377 15.3566C15.0467 15.3637 15.0536 15.3732 15.0576 15.384C15.0615 15.3948 15.0625 15.4065 15.0602 15.4178C15.051 15.4277 15.0434 15.439 15.0377 15.4513C15.0303 15.4598 15.0305 15.4738 15.0231 15.4904C15.0195 15.5121 15.0195 15.5342 15.0231 15.5559C15.0305 15.5618 15.0303 15.5762 15.0303 15.5906C15.0303 15.605 15.0375 15.6106 15.0375 15.625C15.0521 15.6437 15.0447 15.6668 15.0519 15.6869C15.0501 15.6994 15.0476 15.7119 15.0445 15.7242C15.0517 15.7301 15.0589 15.7429 15.067 15.7487C15.0698 15.7544 15.0738 15.7593 15.0788 15.7632C15.0838 15.7671 15.0896 15.7699 15.0958 15.7712V15.8072C15.0961 15.8113 15.0956 15.8154 15.0944 15.8192C15.0931 15.8231 15.091 15.8267 15.0883 15.8297C15.0883 15.8369 15.0811 15.8457 15.0809 15.8522C15.0802 15.8708 15.0752 15.889 15.0663 15.9053C15.0663 15.9125 15.0589 15.9211 15.0586 15.9278L15.044 15.938C15.044 15.9521 15.0364 15.9605 15.0364 15.9681C15.0289 15.9767 15.0215 15.9852 15.0215 15.9924V16.0149C15.0215 16.0293 15.0215 16.0221 15.0141 16.0307L14.9916 16.0779C14.9791 16.0925 14.9688 16.1089 14.961 16.1265C14.961 16.1409 14.9455 16.158 14.9385 16.1738C14.9461 16.1724 14.9538 16.1783 14.9461 16.1868C14.9461 16.194 14.9306 16.1967 14.9236 16.2053C14.9167 16.2138 14.8926 16.2251 14.8924 16.2395C14.8845 16.2552 14.9 16.2813 14.8843 16.2912C14.8764 16.2998 14.8606 16.3241 14.8843 16.327C14.8685 16.3441 14.8525 16.3612 14.8762 16.3787C14.8762 16.3787 14.8917 16.3832 14.8917 16.3904C14.8996 16.3961 14.8917 16.4118 14.8917 16.419C14.9074 16.4163 14.9074 16.4091 14.9142 16.4078C14.9218 16.4136 14.9218 16.4136 14.9295 16.4123C14.9295 16.4195 14.945 16.4168 14.945 16.4168C14.9527 16.4082 14.9527 16.4082 14.945 16.4024V16.3736C14.9374 16.3533 14.9295 16.3835 14.9225 16.3704C14.9225 16.3632 14.9225 16.3632 14.9304 16.3547C14.9383 16.3461 14.938 16.3533 14.9459 16.3448C14.9612 16.3421 14.9612 16.3349 14.9684 16.3191C14.9797 16.2968 14.9925 16.2753 15.0067 16.2548C15.0204 16.2275 15.0381 16.2024 15.0591 16.1803C15.0816 16.1618 15.0958 16.1445 15.1102 16.1353C15.1355 16.1238 15.1594 16.1094 15.1813 16.0923C15.1952 16.075 15.2092 16.0579 15.2296 16.0318C15.2431 16.0147 15.2699 16.0016 15.2832 15.9843C15.2962 15.974 15.3028 15.9726 15.3156 15.9618C15.321 15.9603 15.3261 15.9577 15.3305 15.9541C15.3349 15.9506 15.3385 15.9463 15.3412 15.9413C15.3604 15.9224 15.3732 15.9121 15.3937 15.8927C15.4057 15.8735 15.4198 15.8555 15.4355 15.8392C15.4548 15.829 15.4719 15.8152 15.4859 15.7985C15.5044 15.7808 15.5197 15.76 15.5309 15.737C15.5383 15.7208 15.5383 15.7145 15.5534 15.7026C15.5525 15.6918 15.5552 15.6809 15.5611 15.6718C15.5712 15.6478 15.5842 15.6252 15.5998 15.6043C15.6144 15.5852 15.6276 15.5651 15.6391 15.544C15.6415 15.5318 15.6471 15.5204 15.6553 15.5111C15.6634 15.5019 15.6553 15.4965 15.6472 15.4837C15.6335 15.4716 15.6226 15.4567 15.6153 15.44C15.6153 15.4328 15.5928 15.431 15.5928 15.4236C15.5826 15.4208 15.5719 15.4208 15.5617 15.4236C15.5392 15.4218 15.5237 15.4182 15.5017 15.4164C15.4942 15.4182 15.4868 15.4128 15.4792 15.4146L15.4432 15.4234C15.4467 15.4155 15.4486 15.4069 15.4486 15.3982C15.4486 15.3895 15.4467 15.3809 15.4432 15.373C15.4288 15.362 15.4218 15.3505 15.4081 15.3455C15.3924 15.3496 15.3759 15.3487 15.3608 15.3431C15.3545 15.3374 15.3482 15.3316 15.3482 15.3244L15.3293 15.3073C15.3165 15.3032 15.3037 15.2918 15.2906 15.2875C15.2776 15.2832 15.2641 15.265 15.2508 15.2605C15.2474 15.2618 15.2438 15.2622 15.2403 15.2617C15.2367 15.2611 15.2334 15.2597 15.2305 15.2576C15.2155 15.2625 15.2085 15.2488 15.2017 15.265ZM14.9639 14.7853C14.9713 14.7767 14.9792 14.7828 14.9864 14.774C14.9936 14.7653 15.0017 14.7713 15.0017 14.7788C15.0094 14.7846 14.9637 14.7927 14.9567 14.7941L14.9639 14.7853ZM14.8858 14.7914C14.8963 14.7883 14.9074 14.789 14.9173 14.7934C14.9252 14.7992 14.9486 14.8026 14.9331 14.8125C14.9254 14.8139 14.9106 14.8091 14.9018 14.8105C14.8939 14.8046 14.8622 14.7952 14.8858 14.7914ZM14.8228 14.8528C14.8228 14.8454 14.8307 14.8442 14.8307 14.8368C14.8307 14.8294 14.8384 14.8211 14.8384 14.8143C14.8384 14.7997 14.8609 14.7887 14.8701 14.8019C14.8622 14.8098 14.839 14.8575 14.8228 14.8528ZM14.8134 14.7371C14.8213 14.7286 14.8456 14.7466 14.8534 14.7455C14.8615 14.7513 14.8618 14.7659 14.8699 14.7792L14.8219 14.7871C14.8138 14.7884 14.7817 14.7934 14.7895 14.7776C14.8038 14.7758 14.8175 14.7712 14.8298 14.7639C14.8377 14.7551 14.8055 14.7531 14.8125 14.7371H14.8134Z" fill="white"/>
<path d="M14.7376 14.5587C14.7419 14.5627 14.7472 14.5657 14.7529 14.5673C14.7586 14.569 14.7646 14.5693 14.7704 14.5682C14.7869 14.5729 14.7869 14.5657 14.7866 14.5511C14.7783 14.545 14.7702 14.5464 14.7538 14.5416L14.7374 14.5441L14.7376 14.5587ZM14.8384 14.8137C14.8384 14.8211 14.8305 14.8296 14.8307 14.8362C14.831 14.8427 14.8226 14.8447 14.8229 14.8521C14.8391 14.8569 14.8622 14.8092 14.8701 14.8006C14.862 14.788 14.8382 14.799 14.8384 14.8137ZM15.1415 14.6148C15.1343 14.6233 15.119 14.6478 15.1273 14.6611C15.1356 14.6744 15.1631 14.6397 15.1703 14.6456C15.1703 14.6473 15.1708 14.649 15.1715 14.6506C15.1723 14.6521 15.1734 14.6535 15.1747 14.6546C15.1761 14.6557 15.1776 14.6565 15.1793 14.657C15.181 14.6574 15.1827 14.6575 15.1844 14.6573C15.1916 14.6559 15.1984 14.64 15.1914 14.6348C15.1914 14.6204 15.1631 14.633 15.1559 14.6271C15.1559 14.6199 15.17 14.6098 15.1628 14.6046C15.1556 14.5995 15.1487 14.6134 15.1415 14.6148ZM13.8711 14.727C13.8711 14.7345 13.8898 14.7394 13.899 14.7383C13.9082 14.7372 13.9364 14.741 13.9359 14.7264C13.9359 14.7189 13.9172 14.714 13.908 14.7151C13.8949 14.7157 13.8821 14.7199 13.8711 14.727ZM13.8158 14.7633C13.8252 14.7768 13.8439 14.7671 13.8531 14.7734C13.8626 14.772 13.881 14.7626 13.8716 14.7563C13.8621 14.75 13.8529 14.7513 13.8434 14.7453C13.825 14.7547 13.8063 14.7498 13.8158 14.7633ZM13.9143 14.5236C13.9294 14.5277 13.9453 14.5283 13.9607 14.5252C13.974 14.5182 13.9863 14.5092 13.9971 14.4987C13.9971 14.5059 14.0066 14.5122 14.0158 14.5108C14.0158 14.5036 14.0248 14.5025 14.034 14.5014C14.034 14.5086 14.034 14.5464 14.0437 14.5441C14.0578 14.5422 14.0707 14.5354 14.0801 14.5248C14.0909 14.5153 14.1 14.5042 14.1071 14.4919V14.4773C14.1071 14.4701 14.1161 14.4687 14.1159 14.4615C14.1133 14.4505 14.1066 14.4409 14.0972 14.4345C14.0878 14.421 14.0972 14.412 14.0876 14.4064C14.0876 14.3839 14.0426 14.3902 14.0232 14.3853C13.9958 14.3802 13.9678 14.3788 13.94 14.3812C13.9217 14.3907 13.9217 14.3981 13.9035 14.4078C13.8941 14.4089 13.8758 14.4186 13.8664 14.4197C13.8529 14.4294 13.8376 14.4363 13.8214 14.4402C13.8106 14.4434 13.801 14.4496 13.7937 14.4582C13.7852 14.4699 13.7741 14.4795 13.7613 14.4862C13.7484 14.4929 13.7342 14.4965 13.7197 14.4966C13.7015 14.5281 13.6547 14.534 13.6362 14.5655L13.6925 14.5585L13.7485 14.5518C13.7577 14.5432 13.7669 14.5421 13.7669 14.5349C13.7669 14.5277 13.7762 14.5335 13.7856 14.5324C13.7975 14.5371 13.8105 14.538 13.823 14.5351L13.9143 14.5236ZM14.9025 14.8105C14.9104 14.8092 14.9261 14.8139 14.9338 14.8125C14.9493 14.8026 14.9259 14.7993 14.918 14.7934C14.9081 14.789 14.8969 14.7883 14.8865 14.7914C14.8622 14.7952 14.894 14.8047 14.9025 14.8105ZM15.002 14.7788C15.002 14.7714 14.9943 14.7655 14.9867 14.7741C14.979 14.7826 14.9714 14.7768 14.9642 14.7853L14.9565 14.7941C14.9639 14.7927 15.0096 14.7846 15.002 14.7788ZM17.0175 13.7535L16.8769 13.6079C16.5619 13.6916 16.4078 13.7339 16.1283 13.8147L16.0808 13.7739L16.043 13.8027C16.0916 13.8504 16.1164 13.8741 16.1663 13.9213L16.2053 13.8923L16.1762 13.8473L16.3337 13.8023C16.3895 13.8657 16.4179 13.8972 16.4753 13.9598L16.3628 14.0669C16.3346 14.0354 16.3207 14.0194 16.293 13.9877L16.2435 14.0118C16.3297 14.1405 16.3738 14.2046 16.4636 14.3326L16.5151 14.3085L16.505 14.2606C16.7025 14.0586 16.8069 13.9575 17.0175 13.7535ZM16.5167 13.911C16.4808 13.8703 16.4451 13.8295 16.4096 13.7886C16.5376 13.7526 16.6035 13.7346 16.7376 13.6986C16.6628 13.7682 16.5889 13.8389 16.516 13.9105L16.5167 13.911ZM14.574 14.3043C14.5747 14.3 14.5766 14.296 14.5797 14.293C14.5827 14.2899 14.5866 14.2879 14.5909 14.2872C14.5909 14.28 14.5992 14.2714 14.6075 14.2629L14.633 14.2593C14.6411 14.2368 14.599 14.2494 14.5904 14.2579C14.5754 14.2681 14.5638 14.2825 14.5569 14.2993C14.5486 14.3153 14.565 14.3054 14.574 14.3043ZM10.736 17.1311L10.7711 17.1962L10.8064 17.1698C10.7702 17.0828 10.7519 17.0391 10.7164 16.9523L10.4394 16.9577C10.5195 16.8979 10.5956 16.8329 10.6673 16.7633C10.6604 16.7504 10.6257 16.5036 10.6257 16.5036L10.5832 16.5169L10.5899 16.5857C10.4167 16.6393 10.3294 16.6654 10.1548 16.7162L10.1406 16.6548L10.1048 16.6665L10.1402 16.8447L10.1759 16.8258L10.1618 16.7716C10.2819 16.736 10.3418 16.718 10.4617 16.6816C10.3361 16.7779 10.2731 16.8258 10.1467 16.9212L10.175 17.0229C10.3208 17.0171 10.3937 17.0137 10.5386 17.0065C10.4277 17.0648 10.3719 17.0938 10.2603 17.1514L10.232 17.0922L10.1962 17.1113L10.3087 17.418L10.3445 17.3987L10.3231 17.3388C10.4891 17.2558 10.5717 17.2142 10.736 17.1311ZM10.2047 16.4147L10.3481 16.2908L10.4761 16.3711L10.4268 16.2239C10.481 16.1771 10.508 16.1522 10.5618 16.1038C10.4963 16.1132 10.4637 16.118 10.398 16.1263L10.3553 15.9729C10.3328 16.0404 10.3208 16.073 10.2981 16.1396C10.2324 16.1483 10.1993 16.1524 10.1336 16.1605C10.1852 16.1947 10.211 16.2127 10.2623 16.2453L10.2047 16.4147ZM12.3958 12.8325C12.452 12.9979 12.4795 13.08 12.5396 13.2463L12.4707 13.2708L12.488 13.3046C12.5636 13.2765 12.6021 13.2623 12.68 13.2339L12.6707 13.1914L12.6093 13.2139C12.5699 13.1032 12.5519 13.0481 12.5146 12.9376C12.6554 13.0303 12.7272 13.0762 12.8764 13.1698C12.9592 13.1498 13.0013 13.1399 13.0854 13.1199C13.0539 12.9284 13.0418 12.8343 13.0132 12.6442L13.0953 12.6188L13.0863 12.5765L12.8507 12.6372L12.8595 12.6721L12.9407 12.6539L12.9761 12.9387C12.8508 12.8632 12.7263 12.7862 12.6028 12.7079C12.4874 12.7504 12.4307 12.7716 12.3204 12.8143L12.3368 12.8553L12.3958 12.8325ZM11.7806 18.4366C11.8099 18.3884 11.8256 18.3641 11.8549 18.3151C11.7198 18.2401 11.5941 18.1495 11.4803 18.0451L11.4596 18.0822L11.494 18.116C11.3867 18.2633 11.3324 18.3367 11.224 18.4847L11.1821 18.4528L11.1612 18.4832C11.2031 18.5282 11.5628 18.7757 11.5628 18.7757L11.6303 18.6668L11.5892 18.6382C11.5754 18.6607 11.5687 18.6731 11.5547 18.6962C11.492 18.6755 11.4335 18.6434 11.3824 18.6015L11.5138 18.4454C11.5385 18.4616 11.5509 18.4699 11.5754 18.4865L11.548 18.5378L11.5824 18.5516C11.6096 18.5048 11.6234 18.4816 11.6499 18.4343L11.6155 18.4134L11.588 18.4429L11.5331 18.4013L11.6499 18.2384C11.7055 18.2577 11.7714 18.3565 11.7714 18.3565L11.7424 18.4163L11.7806 18.4366ZM10.1982 15.567C10.3699 15.5917 10.4556 15.6029 10.6257 15.6239L10.6115 15.6914H10.6541L10.7319 15.3465L10.6964 15.3375L10.6752 15.3987C10.5325 15.384 10.39 15.3678 10.2477 15.3498L10.2621 15.2902L10.2263 15.2875L10.1404 15.6313L10.1834 15.6331L10.1982 15.567Z" fill="white"/>
<path d="M10.8889 17.8034C10.9278 17.7664 10.9566 17.7202 10.9728 17.6691C10.9889 17.6179 10.9918 17.5635 10.9812 17.5109C10.9337 17.4304 10.9101 17.3901 10.8624 17.31C10.8315 17.2871 10.7961 17.2711 10.7586 17.263C10.721 17.2549 10.6822 17.2549 10.6446 17.2631C10.6071 17.2712 10.5717 17.2872 10.5409 17.3101C10.51 17.333 10.4844 17.3622 10.4657 17.3957C10.4384 17.4279 10.4205 17.4671 10.4141 17.5088C10.4076 17.5506 10.4129 17.5933 10.4293 17.6322C10.4293 17.6322 10.5141 17.7877 10.5352 17.8122C10.5847 17.8551 10.6484 17.878 10.7138 17.8763C10.7792 17.8747 10.8417 17.8487 10.8889 17.8034ZM10.5427 17.7337C10.5427 17.7337 10.5073 17.7038 10.5073 17.6887C10.5019 17.6804 10.4989 17.6706 10.4989 17.6607C10.4989 17.6507 10.5019 17.641 10.5073 17.6327C10.5215 17.6102 10.5217 17.5877 10.5573 17.5622L10.7348 17.4315C10.7348 17.4315 10.7985 17.3865 10.8196 17.3982C10.837 17.3982 10.8541 17.403 10.8689 17.4122C10.8782 17.4212 10.8854 17.4322 10.8898 17.4443C10.9014 17.4561 10.9084 17.4716 10.9096 17.4881C10.9108 17.5046 10.9062 17.5209 10.8966 17.5343C10.8194 17.6042 10.7367 17.6675 10.6491 17.7238C10.6491 17.7238 10.5852 17.7695 10.5427 17.7337ZM11.5768 13.3174C11.6575 13.458 11.696 13.5287 11.7815 13.6697L11.7322 13.7147L11.7604 13.7386C11.8706 13.6551 11.9293 13.6135 12.0515 13.53L12.029 13.4904C12.029 13.4904 12.0065 13.5158 11.9903 13.5183C11.975 13.5282 11.975 13.5208 11.975 13.5208C11.9352 13.4578 11.9156 13.4265 11.8771 13.3633C11.9095 13.3433 11.9262 13.3331 11.9595 13.3131C11.975 13.3066 11.99 13.2991 12.0045 13.2906C12.0124 13.2893 12.027 13.3012 12.027 13.3012C12.027 13.3012 12.0979 13.4137 12.1138 13.4324C12.1217 13.4456 12.1539 13.4407 12.162 13.4393C12.1931 13.434 12.2234 13.4245 12.252 13.4112C12.3145 13.3813 12.3465 13.3662 12.4108 13.3367L12.3937 13.2956L12.3854 13.3041C12.3718 13.31 12.3576 13.3146 12.3431 13.3176C12.3281 13.3158 12.3138 13.3105 12.3013 13.3021C12.2908 13.2776 12.2768 13.2549 12.2596 13.2346C12.2515 13.2359 12.2104 13.1986 12.1696 13.2121C12.1492 13.22 12.1274 13.2234 12.1055 13.222C12.2572 13.0823 12.1199 12.9362 11.9977 12.9718C11.8219 13.0753 11.6561 13.1952 11.5027 13.3298L11.5297 13.3536L11.5768 13.3174ZM11.8618 13.098C11.8618 13.098 11.8915 13.0859 11.9068 13.098C11.9344 13.1355 11.9594 13.1748 11.9818 13.2157C11.9782 13.2308 11.9704 13.2447 11.9593 13.2555C11.9269 13.2841 11.8919 13.3095 11.8546 13.3313C11.8206 13.2774 11.7872 13.223 11.7545 13.1682C11.7959 13.1401 11.8175 13.1261 11.8618 13.098ZM10.6966 14.4912L10.6612 14.4604C10.6776 14.407 10.6989 14.3554 10.7249 14.306C10.8599 14.396 10.9274 14.4392 11.0624 14.5263L11.0275 14.5828L11.0624 14.5988C11.1043 14.5313 11.125 14.4966 11.1666 14.4287V14.3272L10.8516 14.1195C10.8857 14.0761 10.9259 14.0379 10.9708 14.0059L11.0059 14.0284L11.0408 13.9863L10.9508 13.9148C10.8118 14.0933 10.6843 14.2804 10.569 14.475L10.6754 14.5243L10.6966 14.4912ZM10.3269 15.1086C10.4925 15.1536 10.5744 15.1745 10.7391 15.2159L10.7179 15.2769L10.7533 15.2859L10.8167 15.1095L10.7814 15.0933L10.7533 15.1556C10.643 15.1295 10.5877 15.116 10.4765 15.0881C10.634 15.0458 10.7112 15.0238 10.866 14.9786L10.9571 14.79C10.789 14.7225 10.7042 14.6879 10.5334 14.6168L10.569 14.5538L10.5334 14.5371L10.441 14.7171L10.4765 14.7338L10.5121 14.6708L10.7744 14.7833C10.6376 14.8244 10.5003 14.8637 10.3624 14.9012L10.2625 15.1606L10.2983 15.1777L10.3269 15.1086ZM11.062 13.8315C11.1596 13.9276 11.208 13.9755 11.3043 14.0709C11.3702 14.059 11.4031 14.0527 11.4683 14.0403C11.5635 13.9411 11.608 13.8911 11.7046 13.7928C11.6742 13.7521 11.6596 13.7316 11.6301 13.6911L11.5968 13.7264C11.5968 13.7264 11.5903 13.7278 11.6035 13.7397C11.6117 13.7468 11.6184 13.7552 11.6236 13.7647C11.5944 13.826 11.5558 13.8824 11.509 13.9316L11.5023 13.9402C11.4633 13.9001 11.4224 13.8619 11.3797 13.8259V13.8115L11.4343 13.7505L11.4683 13.7802L11.4955 13.7534L11.4071 13.6542L11.3797 13.6884L11.4071 13.7123C11.4139 13.7327 11.3455 13.7816 11.3455 13.7816L11.2215 13.6592C11.2772 13.5919 11.3447 13.5354 11.4206 13.4924L11.4548 13.5296L11.482 13.4954L11.4145 13.4069C11.2647 13.551 11.1239 13.7041 10.9929 13.8655L11.0208 13.8896L11.062 13.8315ZM11.4184 18.0566L11.4391 18.0192C11.4048 17.9861 11.3703 17.9534 11.3356 17.9209L11.3079 17.9519L11.3425 17.9915L11.1333 18.2244C11.1702 18.0539 11.1884 17.9686 11.2249 17.7969C11.1722 17.7375 11.1459 17.7069 11.0928 17.65L11.0579 17.6826L11.0928 17.7134L10.7472 18.0327L10.7049 17.9828L10.6696 18.0089L10.7893 18.1461L10.8176 18.1214L10.7753 18.071L11.0154 17.857L10.9229 18.2831C10.9762 18.3299 11.0028 18.3536 11.0559 18.4013C11.1882 18.2492 11.2539 18.1738 11.3839 18.023L11.4184 18.0566ZM16.455 16.3171L16.4039 16.3121L16.3038 16.4789L16.354 16.4915L16.3942 16.4321C16.5403 16.457 16.6159 16.4692 16.7698 16.4937C16.5137 16.5767 16.3888 16.6186 16.1575 16.6989C16.1038 16.7799 16.0772 16.8204 16.0252 16.9014L16.0628 16.916L16.1101 16.8627C16.3047 16.925 16.4091 16.9554 16.6233 17.0153L16.5713 17.0841L16.6132 17.0983C16.6757 17.0216 16.7074 16.9833 16.7707 16.9066L16.7173 16.8944L16.6647 16.9705C16.5297 16.9255 16.4622 16.903 16.3346 16.8562C16.5711 16.7815 16.6971 16.7437 16.9529 16.6665C17.0004 16.5871 17.0242 16.5473 17.0722 16.4681C16.8049 16.4307 16.6728 16.4125 16.4239 16.3749C16.4356 16.3517 16.4417 16.34 16.455 16.3171ZM15.5633 18.0624C15.5271 18.0131 15.4919 17.963 15.4576 17.9123C15.4868 17.8874 15.5026 17.8748 15.5323 17.8491L15.5631 17.8804L15.6101 17.8354C15.5719 17.7983 15.5532 17.7798 15.517 17.7422L15.472 17.7789L15.4945 17.819C15.4677 17.8437 15.4544 17.8561 15.4288 17.8806C15.386 17.8178 15.3662 17.7863 15.3266 17.7231C15.3727 17.6776 15.4271 17.6414 15.4868 17.6165L15.5318 17.652C15.5469 17.6349 15.5543 17.6261 15.5703 17.6088C15.5392 17.5785 15.5089 17.5475 15.4792 17.5159C15.3558 17.6505 15.2196 17.7728 15.0724 17.8808L15.087 17.9072L15.1529 17.8673C15.2447 18.0044 15.285 18.0743 15.3727 18.2152C15.357 18.2294 15.3414 18.2437 15.3259 18.2582L15.3525 18.2903C15.4582 18.1976 15.5206 18.1484 15.6506 18.0473L15.6182 18.0163L15.5633 18.0624ZM16.3153 17.1764C16.1803 17.1167 16.1128 17.0864 15.9877 17.0258L16.0246 16.9745L15.9782 16.9541C15.9269 17.0171 15.9017 17.0483 15.8524 17.1116L15.8974 17.1397L15.9424 17.0796C15.9424 17.0796 16.2268 17.2236 16.2563 17.2328C16.2761 17.2439 16.2975 17.2407 16.3162 17.2952C16.3371 17.3559 16.286 17.3966 16.2178 17.4389C16.1971 17.4535 16.1735 17.4635 16.1486 17.4682C16.1237 17.4729 16.098 17.4722 16.0734 17.4662C15.9485 17.3897 15.8882 17.351 15.775 17.2729L15.818 17.2279L15.7748 17.1995C15.6722 17.312 15.6234 17.3687 15.5323 17.4785L15.5548 17.5035L15.5937 17.4599C15.5937 17.4599 15.8538 17.6464 15.8806 17.6561C15.9196 17.6768 15.9645 17.684 16.0081 17.6765C16.0582 17.6592 16.1059 17.6354 16.1499 17.6059C16.1499 17.6059 16.3461 17.4144 16.3663 17.3957C16.3833 17.3671 16.3936 17.3349 16.3963 17.3017C16.396 17.2495 16.3153 17.1764 16.3153 17.1764ZM17.0249 15.5919C16.943 15.5917 16.8623 15.6112 16.7896 15.649C16.7169 15.6867 16.6545 15.7415 16.6075 15.8086C16.5487 15.957 16.4906 16.1057 16.4334 16.2548L16.4847 16.2597L16.5153 16.1949C16.7551 16.208 16.8818 16.214 17.1367 16.2278C17.1257 16.2541 17.1148 16.2806 17.1041 16.3072L17.1698 16.3101C17.2507 16.1479 17.3167 15.9788 17.3671 15.8048C17.3775 15.7145 17.2756 15.5845 17.0249 15.5919ZM17.2897 15.8844L17.2461 16.0025C17.2461 16.0025 16.6082 15.9785 16.6082 15.971C16.6082 15.971 16.6186 15.9175 16.6289 15.8786C16.6367 15.8664 16.6477 15.8566 16.6607 15.8502C16.6736 15.8439 16.6881 15.8412 16.7025 15.8426C16.7025 15.8426 17.1793 15.8448 17.2454 15.848C17.3118 15.8437 17.2897 15.8842 17.2897 15.8842V15.8844ZM17.0895 14.9167L17.0017 15.089L16.7542 15.134C16.831 15.1599 16.8697 15.1732 16.948 15.2004C16.9135 15.2744 16.8962 15.3113 16.862 15.3856C16.9482 15.3255 16.9916 15.2956 17.0791 15.2362L17.2886 15.3037L17.1986 15.157C17.2823 15.1014 17.3244 15.074 17.4088 15.02C17.3068 15.0368 17.2558 15.0454 17.1545 15.0629C17.13 15.004 17.1158 14.975 17.0895 14.9167ZM14.5848 18.1596L14.6014 18.1927L14.6518 18.1702C14.6236 18.252 14.5864 18.3305 14.5409 18.4042C14.5409 18.4042 14.3427 18.3189 14.3427 18.3117C14.3341 18.2987 14.3953 18.2951 14.3953 18.2879C14.3911 18.2761 14.3853 18.265 14.378 18.2548C14.2102 18.3079 14.1233 18.3351 13.948 18.3898L13.957 18.4314L14.0117 18.4145C14.1456 18.4699 14.2117 18.4973 14.3411 18.5534L14.401 18.7334L14.322 18.7685L14.3393 18.7937C14.5011 18.7338 14.5803 18.7037 14.7315 18.6474L14.7153 18.6148L14.6489 18.6332C14.6264 18.5608 14.6145 18.5246 14.5913 18.4532C14.6496 18.327 14.6782 18.2633 14.7346 18.1358L14.7918 18.0971L14.7677 18.0725C14.6959 18.1056 14.6595 18.1234 14.5848 18.1596ZM12.9949 19.0333C12.9445 18.8387 12.9205 18.7464 12.8692 18.5435C12.7882 18.5383 12.7072 18.5321 12.6264 18.525C12.4709 18.7147 12.3937 18.8036 12.2466 18.9833L12.1885 18.982L12.1719 19.0124C12.241 19.0288 12.2763 19.0367 12.3476 19.0513L12.3733 19.0196L12.3139 19.0049C12.3476 18.9635 12.3647 18.9431 12.3991 18.9014C12.5089 18.9116 12.5652 18.9158 12.6793 18.9228L12.6968 19.0353C12.6538 19.0385 12.6327 19.04 12.5904 19.0427V19.0715C12.6257 19.074 13.0404 19.0691 13.0404 19.0691V19.0261L12.9949 19.0333ZM12.4338 18.8533C12.5029 18.779 12.538 18.7408 12.6088 18.6663L12.6705 18.8803C12.5914 18.8733 12.5125 18.8646 12.4338 18.8542V18.8533ZM13.9903 18.8625L13.9811 18.8713C13.957 18.8764 13.9321 18.876 13.9082 18.8702C13.9082 18.863 13.8992 18.8648 13.8992 18.8648C13.8992 18.8648 13.9084 18.856 13.8992 18.8294C13.8992 18.7586 13.7991 18.7199 13.7991 18.7199C13.7991 18.7199 13.937 18.6389 13.9377 18.554C13.9384 18.4692 13.8378 18.4373 13.8103 18.4415C13.7825 18.4414 13.7547 18.4438 13.7273 18.4487C13.5313 18.4869 13.3334 18.5149 13.1344 18.5327L13.1437 18.5747L13.2082 18.5716L13.1785 19.0106L13.114 19.0211C13.114 19.0211 13.1045 19.0661 13.114 19.0639C13.1234 19.0616 13.5208 19.009 13.5208 19.009L13.5118 18.968L13.4562 18.9777L13.4665 18.7775L13.5964 18.755C13.6056 18.7462 13.633 18.784 13.633 18.784C13.633 18.784 13.6414 18.9311 13.6414 18.9383C13.6414 18.9455 13.6864 18.9656 13.7057 18.9694C13.7242 18.966 14.0081 18.9019 14.0081 18.9019L13.9903 18.8625ZM13.6425 18.6762C13.6423 18.6826 13.6405 18.6889 13.6372 18.6944C13.6339 18.7 13.6293 18.7046 13.6238 18.7079L13.4758 18.7334L13.4953 18.5309L13.6252 18.5084L13.6528 18.5248C13.6531 18.5401 13.6425 18.6762 13.6425 18.6762ZM13.9231 15.6675C13.9225 15.6715 13.9231 15.6756 13.9247 15.6793C13.9264 15.6829 13.9291 15.686 13.9325 15.6882C13.9325 15.6956 13.9325 15.6956 13.9422 15.7017C13.9514 15.7017 13.9606 15.6923 13.9604 15.6848C13.9694 15.6691 13.9321 15.6518 13.9042 15.6551V15.6623C13.9044 15.6691 13.9136 15.6675 13.9231 15.6675ZM12.2716 18.5151C12.2799 18.5216 12.3994 18.5826 12.3994 18.5826L12.3825 18.6375L12.4428 18.6454L12.4855 18.514C12.2848 18.4744 12.0888 18.4141 11.9005 18.334L11.8402 18.4553L11.8783 18.4751L11.9086 18.4438C11.9529 18.4361 11.9982 18.4376 12.0418 18.4483C11.966 18.6229 11.9293 18.7088 11.856 18.8774L11.7885 18.8515L11.7736 18.8884C11.903 18.9386 11.9716 18.9613 12.1145 19.0034L12.1309 18.9658L12.0661 18.9498C12.1467 18.7786 12.1881 18.6929 12.2716 18.5151ZM11.782 14.9511L11.811 14.9462C11.8182 14.9448 11.8254 14.9363 11.8335 14.9351C11.8481 14.9255 11.8407 14.9194 11.8407 14.9126C11.8407 14.898 11.8335 14.8922 11.8261 14.8933C11.8223 14.8946 11.8183 14.895 11.8144 14.8944C11.8105 14.8938 11.8067 14.8923 11.8036 14.8899C11.7997 14.8944 11.7948 14.8977 11.7892 14.8996C11.7892 14.9068 11.782 14.9221 11.775 14.9239C11.7606 14.9336 11.7464 14.936 11.7536 14.9565C11.7606 14.97 11.7678 14.9608 11.782 14.9511Z" fill="white"/>
<path d="M11.782 14.9874C11.782 15.0018 11.7964 14.9921 11.8045 14.9907C11.8126 14.9894 11.8189 14.9955 11.827 14.9943C11.8313 14.9941 11.8355 14.993 11.8393 14.9911C11.8432 14.9892 11.8466 14.9865 11.8495 14.9833C11.8569 14.9822 11.8643 14.9736 11.872 14.9725C11.8868 14.9626 11.872 14.9651 11.8794 14.9568C11.892 14.9371 11.9021 14.9159 11.9093 14.8938C11.9093 14.8866 11.9168 14.8854 11.9244 14.8697C11.9201 14.8663 11.9148 14.8647 11.9093 14.865C11.8915 14.873 11.876 14.8854 11.8643 14.9012C11.8569 14.9169 11.8643 14.9374 11.8495 14.9462C11.827 14.9572 11.8128 14.9462 11.7984 14.9622C11.7892 14.9716 11.782 14.9799 11.782 14.9874ZM11.9525 14.7273C11.9691 14.7236 11.9846 14.7158 11.9975 14.7048C12.0054 14.6962 12.0131 14.6805 11.9975 14.6757C11.9897 14.6841 11.9897 14.6841 11.975 14.6865C11.9652 14.6829 11.9545 14.6822 11.9442 14.6843C11.9368 14.6926 11.9217 14.7025 11.9217 14.7169C11.9217 14.7313 11.9372 14.7295 11.9525 14.7273ZM11.7678 15.0042C11.775 14.9957 11.7678 14.9898 11.7606 14.9984C11.7536 14.9995 11.7606 15.0056 11.7678 15.0042ZM12.1427 15.2056C12.1346 15.2067 12.1265 15.2081 12.1265 15.2007L12.1184 15.1946C12.1103 15.1885 12.0943 15.1982 12.0864 15.2067C12.0783 15.2067 12.0704 15.2308 12.0704 15.238C12.0626 15.2463 12.0864 15.2502 12.0943 15.249C12.1105 15.2394 12.151 15.2625 12.1591 15.2468C12.1653 15.238 12.1682 15.2273 12.1672 15.2166C12.1591 15.2034 12.1591 15.2034 12.1427 15.2056ZM13.562 14.7135C13.5901 14.7027 13.5428 14.6937 13.5428 14.6937C13.5355 14.7023 13.5258 14.7085 13.5149 14.7117C13.5222 14.7153 13.5301 14.7174 13.5382 14.7177C13.5464 14.718 13.5544 14.7166 13.562 14.7135ZM13.8959 15.735C13.9051 15.7339 13.9051 15.7339 13.9143 15.7256V15.711C13.9143 15.7038 13.9143 15.6963 13.9049 15.6975L13.8956 15.7058C13.9053 15.7193 13.8864 15.7215 13.8772 15.7301C13.8675 15.7465 13.8864 15.7517 13.8959 15.735ZM12.1019 14.9941C12.1098 14.9856 12.1098 14.9784 12.1019 14.9795C12.0857 14.9892 12.0938 14.9952 12.1019 14.9941ZM13.5566 15.6662L13.566 15.6723C13.5566 15.6734 13.5473 15.6819 13.5379 15.6828C13.519 15.6925 13.5287 15.6986 13.5379 15.6975C13.5452 15.7031 13.5516 15.7098 13.557 15.7173C13.569 15.7219 13.5822 15.7229 13.5948 15.7202C13.615 15.7184 13.6352 15.7239 13.6517 15.7357C13.6612 15.7418 13.6614 15.7418 13.6614 15.7564C13.6617 15.7607 13.6609 15.7649 13.6593 15.7688C13.6576 15.7727 13.655 15.7762 13.6517 15.7789C13.6423 15.7947 13.6706 15.7985 13.6893 15.8037C13.7177 15.8077 13.7177 15.8223 13.7458 15.8262C13.7645 15.8385 13.7739 15.8082 13.7926 15.8133C13.8113 15.8109 13.8205 15.8318 13.8392 15.8358C13.8486 15.8419 13.8673 15.825 13.8765 15.8385C13.8765 15.8457 13.8857 15.8739 13.9042 15.8642C13.9321 15.8534 13.8952 15.8145 13.886 15.801C13.8738 15.7786 13.8582 15.7584 13.8396 15.7411C13.8396 15.7339 13.8302 15.735 13.8209 15.7362C13.8209 15.7287 13.8209 15.7287 13.8115 15.7227C13.8001 15.7158 13.7871 15.7123 13.7739 15.7123C13.7456 15.7011 13.7357 15.6729 13.7064 15.6617C13.6772 15.6504 13.6502 15.6903 13.6313 15.6777C13.6218 15.6788 13.6121 15.6727 13.6121 15.6653C13.6214 15.657 13.6214 15.657 13.6214 15.6495C13.6117 15.6435 13.6117 15.636 13.6022 15.6372C13.5656 15.6358 13.5278 15.6401 13.5566 15.6662ZM13.5624 14.7428C13.5716 14.7342 13.5716 14.7342 13.5624 14.7282L13.5343 14.7315C13.5248 14.7327 13.5251 14.7473 13.5343 14.7462C13.5435 14.745 13.5525 14.7511 13.5624 14.7428ZM13.5649 14.9183C13.5649 14.9109 13.5739 14.8958 13.5649 14.889C13.5462 14.8913 13.5464 14.9205 13.5372 14.9289C13.528 14.9446 13.5471 14.9642 13.5372 14.9739C13.5372 14.9885 13.5093 15.0065 13.5095 15.0137C13.5098 15.0209 13.5284 15.0261 13.5381 15.0396C13.5246 15.0391 13.5113 15.0433 13.5005 15.0515C13.4913 15.0672 13.4821 15.0756 13.4729 15.0913C13.4634 15.0913 13.4544 15.1154 13.4639 15.1217C13.4667 15.1225 13.4698 15.1225 13.4726 15.1217C13.463 15.1307 13.4364 15.1622 13.4551 15.1667C13.4645 15.1728 13.4643 15.1581 13.4735 15.1498C13.4735 15.1498 13.4924 15.1401 13.4828 15.1341C13.4828 15.1271 13.4744 15.1275 13.4735 15.121C13.4785 15.119 13.4829 15.1156 13.4861 15.1113C13.4893 15.107 13.4912 15.1018 13.4918 15.0965C13.5119 15.0899 13.5309 15.0802 13.548 15.0677C13.5572 15.0677 13.5667 15.0654 13.5667 15.0582C13.5699 15.0555 13.5724 15.052 13.574 15.0481C13.5756 15.0442 13.5761 15.0399 13.5757 15.0357C13.5757 15.0357 13.5851 15.0346 13.5849 15.0274C13.5944 15.0263 13.5849 15.0202 13.5849 15.0128L13.5944 15.0042C13.5944 14.997 13.5944 14.9752 13.5845 14.9689C13.5882 14.9566 13.5911 14.944 13.5932 14.9313C13.5838 14.9232 13.575 14.925 13.5649 14.9183ZM13.517 14.8508C13.5071 14.8481 13.4976 14.8443 13.4886 14.8395C13.451 14.8512 13.4983 14.8749 13.4985 14.8823C13.508 14.8884 13.4985 14.9113 13.5179 14.9165C13.5271 14.9154 13.5363 14.8924 13.5363 14.8924C13.5363 14.885 13.5642 14.8744 13.5734 14.8659C13.5921 14.8564 13.5734 14.8587 13.5638 14.8452C13.5638 14.8377 13.5262 14.8497 13.517 14.8508ZM14.7675 13.0389L14.6921 13.0274L14.6843 13.065C14.8023 13.0904 14.9189 13.1224 15.0335 13.1608L15.056 13.1208L14.9936 13.0938C15.0733 12.9212 15.1124 12.8352 15.1885 12.6645L15.247 12.6843C15.247 12.6843 15.2695 12.6447 15.2614 12.6393C15.2614 12.6321 14.9336 12.5436 14.9336 12.5436L14.9099 12.5758L14.9738 12.6028C14.8924 12.7761 14.8508 12.8629 14.7675 13.0389ZM15.1453 12.99C15.1314 13.031 15.1312 13.0753 15.1446 13.1164C15.1581 13.1574 15.1844 13.1931 15.2198 13.218C15.276 13.2634 15.3363 13.3038 15.3998 13.3386C15.4742 13.3576 15.5527 13.353 15.6244 13.3253C15.6961 13.2976 15.7574 13.2483 15.7998 13.1842C15.8191 13.1615 15.8336 13.1352 15.8423 13.1067C15.8511 13.0783 15.854 13.0484 15.8508 13.0188C15.8477 12.9892 15.8385 12.9605 15.824 12.9346C15.8094 12.9087 15.7897 12.8859 15.7661 12.8679C15.6603 12.8244 15.6099 12.8019 15.5163 12.7554C15.4764 12.7437 15.4346 12.7406 15.3934 12.7464C15.3523 12.7522 15.3129 12.7667 15.2778 12.7889C15.2427 12.8111 15.2127 12.8405 15.1899 12.8752C15.167 12.9099 15.1518 12.949 15.1453 12.99ZM15.3253 13.0987C15.3458 13.0589 15.4358 12.9061 15.4358 12.9061C15.4358 12.9061 15.4792 12.8409 15.5093 12.8355C15.5293 12.8303 15.5501 12.8291 15.5705 12.8319C15.5861 12.8292 15.6099 12.8465 15.6099 12.8465C15.6099 12.8465 15.6752 12.8647 15.6581 12.9239C15.6184 13.0278 15.5603 13.1238 15.4866 13.2072C15.4866 13.2072 15.4342 13.2891 15.373 13.2713C15.373 13.2713 15.3323 13.2488 15.3253 13.2436C15.3166 13.2377 15.3096 13.2298 15.3047 13.2206C15.2999 13.2113 15.2974 13.201 15.2976 13.1905C15.2986 13.1581 15.3081 13.1266 15.3253 13.0992V13.0987ZM14.1791 12.5508L14.3578 12.5346C14.306 12.7065 14.2786 12.7907 14.2275 12.9646L14.1461 12.968L14.1377 13.0058C14.1827 12.9999 14.5553 13.0458 14.5553 13.0458L14.5632 13.0008L14.4937 12.9882C14.4937 12.9808 14.6188 12.5504 14.6188 12.5504C14.6677 12.5619 14.7156 12.5769 14.7623 12.5954L14.7461 12.6485L14.8042 12.6548L14.8442 12.5261C14.613 12.482 14.3778 12.4626 14.1425 12.4683C14.1285 12.5101 14.1167 12.5527 14.1071 12.5958H14.1614L14.1791 12.5508ZM14.0642 12.9639L14.0003 12.9651C13.8965 12.7727 13.8443 12.6766 13.7404 12.4845L13.5188 12.5058L13.2323 13.0427L13.1678 13.0584L13.1772 13.1007C13.2049 13.0899 13.3898 13.0656 13.3898 13.0656L13.3804 13.0161L13.3248 13.0233L13.3804 12.9075L13.6398 12.8667L13.7051 12.9741L13.631 12.9909L13.6407 13.0332C13.6963 13.0188 14.0648 13.0078 14.0648 13.0078L14.0642 12.9639ZM13.4081 12.8604L13.5282 12.6494L13.6214 12.8328L13.4081 12.8604ZM12.0857 14.9676C12.0938 14.9518 12.1098 14.9565 12.1179 14.9554C12.1341 14.9457 12.1503 14.9435 12.1665 14.9329C12.1827 14.9223 12.2241 14.9329 12.2322 14.9091C12.2489 14.8922 12.2322 14.8944 12.2158 14.8969C12.2075 14.898 12.191 14.9077 12.1746 14.91C12.1665 14.9185 12.1501 14.9136 12.142 14.9147L12.1339 14.9086C12.1258 14.9025 12.1339 14.9014 12.1339 14.8942C12.142 14.8785 12.1582 14.876 12.1663 14.8677C12.1744 14.8593 12.1908 14.8713 12.1991 14.8629C12.2046 14.8599 12.2091 14.8553 12.212 14.8497C12.2149 14.8442 12.2161 14.8379 12.2156 14.8317C12.2156 14.8242 12.1908 14.8278 12.1825 14.829C12.1604 14.8424 12.1411 14.8601 12.1258 14.8809C12.1177 14.8893 12.1098 14.905 12.1017 14.9133C12.0936 14.9147 12.0857 14.9158 12.0857 14.923C12.0813 14.9272 12.0786 14.9327 12.0779 14.9388C12.07 14.9469 12.0115 14.9691 12.0079 14.9507C12.0079 14.9662 12.0027 14.9844 12.0225 14.9907C12.0225 14.9907 12.045 15.0015 12.054 14.993C12.063 14.9844 12.0779 14.9759 12.0857 14.9676ZM15.7319 13.4056L15.8261 13.3874C15.8858 13.3271 15.9161 13.2974 15.9789 13.2362C15.9564 13.4036 15.9454 13.4873 15.9233 13.6547V13.7049C15.9521 13.7274 15.9668 13.7391 15.9962 13.7618C16.1999 13.6101 16.3112 13.5334 16.5387 13.3793L16.5905 13.4193L16.6431 13.3811C16.5756 13.3309 16.5428 13.3059 16.4773 13.2555L16.426 13.2938L16.4768 13.3341C16.374 13.4079 16.3236 13.4445 16.2255 13.5177C16.2494 13.3676 16.2615 13.2927 16.2858 13.1424C16.2046 13.0974 16.1242 13.0508 16.0448 13.0026L16.0075 13.0384L16.0633 13.0778C15.9233 13.2096 15.8565 13.2753 15.7319 13.4056Z" fill="white"/>
<path d="M11.543 15.9078C11.5565 15.9053 11.5768 15.9078 11.5768 15.9159C11.5835 15.9217 11.5768 15.9519 11.5768 15.9593C11.5756 15.969 11.578 15.9787 11.5835 15.9868C11.5955 16.0079 11.6045 16.0306 11.6103 16.0543C11.6168 16.0747 11.6368 16.0927 11.6368 16.1143V16.1506C11.6364 16.1645 11.6318 16.178 11.6236 16.1893C11.6224 16.199 11.6247 16.2089 11.6301 16.2172C11.6365 16.2317 11.6456 16.2449 11.6571 16.2559C11.6638 16.2694 11.6706 16.2901 11.6776 16.3033C11.6951 16.3525 11.7162 16.4003 11.7406 16.4464C11.7475 16.4671 11.7619 16.4869 11.7691 16.5079C11.7774 16.5145 11.7876 16.5182 11.7982 16.5184C11.8054 16.5173 11.8207 16.5004 11.8274 16.4921C11.8499 16.4743 11.8794 16.4629 11.9019 16.4449C11.9244 16.4343 11.9244 16.3976 11.9323 16.3744C11.9323 16.367 11.9399 16.3659 11.9476 16.3576C11.9701 16.3468 11.9863 16.3225 11.9701 16.3027C11.9659 16.2992 11.9632 16.2943 11.9624 16.2889V16.2592C11.9624 16.23 11.9777 16.2277 11.9935 16.2106C12.0019 16.2028 12.0083 16.193 12.0122 16.1822C12.0161 16.1713 12.0174 16.1597 12.016 16.1483V16.0525C12.016 16.045 11.9766 16.014 11.9845 16.0054C12.007 15.9798 12.0234 15.9627 12.0391 15.9456C12.0787 15.9031 12.119 15.8617 12.16 15.8124C12.1752 15.7914 12.1863 15.7676 12.1926 15.7424C12.1926 15.728 12.2009 15.7199 12.209 15.7039C12.209 15.7039 12.234 15.6787 12.2173 15.6738C12.1924 15.67 12.1514 15.6963 12.1273 15.7154C12.119 15.7165 12.0949 15.7127 12.0868 15.7141C12.0628 15.703 12.0628 15.674 12.0468 15.6619C12.0389 15.6558 12.031 15.6425 12.0232 15.6364C12.0153 15.6376 12.0074 15.6459 12.0074 15.6387C11.9995 15.6398 12.0074 15.6243 12.0074 15.6162C12.0036 15.5945 11.996 15.5736 11.9849 15.5545C11.9773 15.5413 11.9773 15.5338 11.9694 15.5278C11.9638 15.517 11.9611 15.505 11.9617 15.4929V15.4567C11.9617 15.4495 11.9842 15.4312 11.9842 15.4384C11.9998 15.4506 11.9998 15.4868 12.0067 15.5001C12.0123 15.5246 12.023 15.5476 12.0382 15.5676C12.0382 15.5822 12.0542 15.5797 12.0621 15.5858C12.0781 15.5908 12.0702 15.6065 12.0783 15.6126C12.0762 15.6295 12.0791 15.6467 12.0864 15.6621C12.0943 15.6828 12.1024 15.6814 12.1186 15.6792C12.1323 15.6755 12.1459 15.6712 12.1593 15.6661C12.1757 15.6567 12.1838 15.6556 12.2005 15.6459C12.2255 15.6351 12.2484 15.6198 12.268 15.6009C12.2808 15.5933 12.2952 15.5889 12.31 15.5881C12.3186 15.5869 12.3355 15.5629 12.3355 15.5557L12.3611 15.5305C12.3611 15.5233 12.3694 15.5003 12.3611 15.5014L12.344 15.5037C12.3439 15.4981 12.3422 15.4926 12.3392 15.4879C12.3362 15.4832 12.3319 15.4794 12.3269 15.4769C12.3074 15.4727 12.2872 15.4727 12.2677 15.4769C12.2425 15.4803 12.2425 15.4803 12.2342 15.467C12.2291 15.4629 12.225 15.4577 12.2221 15.4519C12.2193 15.446 12.2177 15.4396 12.2176 15.433C12.2092 15.427 12.2092 15.427 12.2092 15.4126C12.2176 15.4186 12.234 15.4162 12.234 15.4236C12.2409 15.4339 12.244 15.4463 12.2425 15.4587C12.2509 15.4576 12.2677 15.4479 12.2761 15.4468C12.2929 15.4445 12.2929 15.4517 12.3098 15.4567C12.3184 15.4627 12.3269 15.4762 12.3355 15.4751C12.3495 15.4712 12.3645 15.4718 12.3782 15.4767C12.4041 15.4733 12.43 15.4627 12.4473 15.4605C12.4646 15.4582 12.4736 15.4571 12.4824 15.4704C12.4929 15.4771 12.5019 15.4859 12.5087 15.4963C12.5177 15.5095 12.5177 15.5095 12.5353 15.5073C12.5528 15.505 12.553 15.505 12.553 15.5197C12.5503 15.5446 12.5568 15.5696 12.5713 15.5901C12.5867 15.6097 12.6049 15.6271 12.6253 15.6416C12.6347 15.6613 12.6506 15.6772 12.6703 15.6866C12.6824 15.6704 12.6915 15.6521 12.697 15.6326C12.697 15.618 12.7058 15.6169 12.7148 15.6085C12.7238 15.6002 12.7238 15.5928 12.7238 15.5784C12.723 15.5678 12.7251 15.5572 12.7298 15.5476C12.7345 15.5381 12.7417 15.53 12.7506 15.5242C12.7686 15.5073 12.7956 15.4895 12.814 15.4729C12.8314 15.4559 12.854 15.4454 12.8782 15.4432C12.8884 15.4437 12.8982 15.4478 12.9058 15.4546C12.9153 15.4607 12.9058 15.4771 12.9153 15.4825C12.9153 15.4825 12.9153 15.49 12.9247 15.4888C12.9247 15.496 12.934 15.4949 12.9432 15.494C12.9432 15.5012 12.9526 15.5147 12.9529 15.5219C12.9715 15.5489 12.9902 15.5469 13.0084 15.5219C13.0179 15.5354 13.0183 15.5644 13.037 15.5768C13.0445 15.5952 13.0509 15.614 13.0564 15.6331C13.0643 15.6522 13.0739 15.6706 13.0849 15.6882C13.1014 15.7098 13.1247 15.7252 13.1511 15.7318C13.1605 15.7318 13.17 15.7296 13.1603 15.7161C13.1603 15.7161 13.1509 15.7172 13.1509 15.7098V15.6873C13.1427 15.6682 13.133 15.6498 13.1221 15.6322C13.1126 15.6259 13.0939 15.6209 13.0845 15.6146C13.075 15.6157 13.0748 15.6011 13.0656 15.5948C13.0559 15.5741 13.0656 15.5584 13.093 15.5406C13.1119 15.553 13.1308 15.58 13.1592 15.584C13.1779 15.582 13.1871 15.5662 13.1965 15.5579C13.206 15.5496 13.2058 15.5494 13.2152 15.5485C13.223 15.5418 13.2293 15.5336 13.2337 15.5244C13.2429 15.5019 13.2238 15.4742 13.2139 15.4463C13.2054 15.4338 13.2019 15.4185 13.204 15.4036C13.204 15.3961 13.2321 15.3784 13.2319 15.3712C13.2413 15.3772 13.2508 15.3835 13.2415 15.3919C13.2323 15.4002 13.2415 15.3991 13.2415 15.4065C13.251 15.4126 13.2697 15.4031 13.2697 15.3959C13.2791 15.3959 13.2697 15.3813 13.2697 15.3734C13.2697 15.359 13.2881 15.3421 13.3068 15.3399C13.3241 15.3281 13.3398 15.314 13.3534 15.298C13.3642 15.2854 13.3707 15.2696 13.3718 15.253C13.3718 15.2384 13.3806 15.2155 13.3718 15.202C13.3619 15.1664 13.3615 15.13 13.3234 15.112C13.3329 15.1036 13.3516 15.0942 13.3421 15.0879C13.323 15.0755 13.3138 15.0913 13.3045 15.0996C13.3045 15.0996 13.2854 15.08 13.2949 15.0715C13.3041 15.0715 13.3041 15.0631 13.3135 15.062C13.3228 15.0537 13.3228 15.0537 13.3322 15.0598L13.3608 15.0784C13.3797 15.0834 13.3705 15.0991 13.3801 15.1126C13.3801 15.1201 13.3801 15.1201 13.3896 15.1261C13.399 15.125 13.399 15.125 13.4083 15.1167C13.4083 15.1093 13.4269 15.0998 13.4269 15.0926C13.4269 15.078 13.4359 15.0622 13.4269 15.0559C13.4078 15.0436 13.3984 15.0447 13.3981 15.0229C13.3963 15.011 13.397 14.9988 13.4001 14.9872C13.4032 14.9756 13.4087 14.9648 13.4161 14.9554C13.4348 14.9457 13.4348 14.9457 13.4251 14.925C13.4157 14.9261 13.4062 14.9272 13.4157 14.9187V14.9041C13.4157 14.8748 13.4339 14.8591 13.424 14.83C13.4112 14.8099 13.3951 14.792 13.3763 14.7772C13.3688 14.7666 13.3592 14.7578 13.348 14.7513C13.3383 14.7452 13.3102 14.7412 13.3102 14.734C13.3007 14.7277 13.3102 14.7193 13.3102 14.7193C13.3102 14.7119 13.3007 14.7058 13.2913 14.707C13.2818 14.7007 13.2631 14.7175 13.2539 14.7187C13.2447 14.7198 13.2539 14.6896 13.2627 14.6811C13.2627 14.6739 13.2719 14.6653 13.2906 14.6631C13.3038 14.6583 13.3164 14.6519 13.3279 14.644C13.3372 14.6356 13.3372 14.6215 13.3556 14.6113L13.3844 14.6518C13.3939 14.6579 13.3939 14.6653 13.4033 14.6642C13.4033 14.6714 13.4128 14.6631 13.4128 14.6631C13.4317 14.668 13.4222 14.6766 13.4411 14.6743C13.4692 14.671 13.4881 14.6831 13.5163 14.6797C13.5352 14.6775 13.5352 14.6849 13.5349 14.6703C13.5347 14.6557 13.5255 14.6568 13.5253 14.6422C13.5013 14.6298 13.4759 14.6206 13.4497 14.6147C13.4213 14.6035 13.4022 14.5839 13.3741 14.5726C13.3627 14.5645 13.3498 14.5586 13.3363 14.5553C13.3243 14.5501 13.3116 14.5467 13.2987 14.5452C13.2738 14.5281 13.2443 14.519 13.2141 14.5189L13.1767 14.5234C13.168 14.5235 13.1595 14.5255 13.1515 14.529C13.1436 14.5325 13.1364 14.5375 13.1304 14.5438L13.1119 14.5461C13.1027 14.5461 13.1027 14.5616 13.1027 14.5616C13.0935 14.5702 13.0937 14.5841 13.0845 14.5931C13.0755 14.6089 13.0663 14.6174 13.057 14.6185L13.0015 14.6253C12.9878 14.6334 12.9723 14.6378 12.9565 14.6383C12.9472 14.6395 12.9288 14.6489 12.9198 14.65C12.9025 14.6582 12.8839 14.663 12.8649 14.6642C12.8499 14.6665 12.8347 14.666 12.8199 14.6626C12.8017 14.6649 12.7927 14.666 12.7837 14.6818C12.7731 14.6923 12.7609 14.7012 12.7477 14.7081C12.7201 14.7282 12.6898 14.7444 12.6577 14.756C12.6487 14.7643 12.6309 14.774 12.6221 14.7823C12.5956 14.7931 12.6221 14.7895 12.6133 14.8125C12.6046 14.8064 12.5956 14.8075 12.5866 14.7943C12.5866 14.7943 12.5778 14.7736 12.569 14.7819C12.5592 14.7822 12.5498 14.7861 12.5425 14.7927C12.5339 14.8084 12.5339 14.8084 12.5164 14.8035C12.49 14.8069 12.4727 14.8165 12.4466 14.8199C12.4293 14.8222 12.4036 14.8111 12.3951 14.8199C12.385 14.8269 12.3732 14.831 12.3609 14.8318C12.3609 14.8244 12.3609 14.8093 12.3523 14.8039C12.3473 14.8015 12.3431 14.7977 12.34 14.7929C12.337 14.7882 12.3354 14.7828 12.3352 14.7772C12.3271 14.7677 12.3164 14.7608 12.3044 14.7573C12.2924 14.7538 12.2797 14.7539 12.2677 14.7576C12.2511 14.7598 12.2428 14.7612 12.2344 14.7551C12.2261 14.749 12.2014 14.7452 12.1933 14.7538L12.1687 14.779C12.1606 14.7803 12.1606 14.7875 12.1525 14.7886C12.1525 14.7958 12.1444 14.7972 12.1363 14.7983C12.1201 14.8006 12.1201 14.8152 12.1042 14.8177C12.09 14.8187 12.0763 14.8231 12.0643 14.8307L12.025 14.8368C12.0092 14.8393 12.0092 14.8537 11.9939 14.8633C11.986 14.8719 11.986 14.8791 11.986 14.8937C11.986 14.9083 12.0085 14.8973 12.0173 14.896C12.0261 14.8946 12.025 14.896 12.025 14.902V14.9167C12.025 14.9299 12.0126 14.9392 12.0106 14.9459C12.0111 14.9423 12.0105 14.9386 12.0089 14.9353C12.0073 14.932 12.0047 14.9293 12.0016 14.9275C12.0016 14.9203 11.9791 14.9311 11.9705 14.9322C11.9568 14.9334 11.9437 14.938 11.9323 14.9457C11.9151 14.9641 11.8947 14.9794 11.8722 14.9907C11.8573 14.9932 11.8497 15.0017 11.8353 15.0042C11.8353 15.0114 11.8128 15.0078 11.8063 15.0091L11.7703 15.0152C11.7561 15.0179 11.7561 15.0251 11.7478 15.0409C11.7408 15.0492 11.7338 15.0649 11.7268 15.0735C11.7199 15.082 11.7199 15.096 11.7059 15.1063C11.6992 15.1147 11.6922 15.0944 11.6854 15.0955C11.6785 15.0897 11.6582 15.1079 11.6515 15.0955C11.6447 15.0897 11.6382 15.0836 11.6314 15.0994C11.6255 15.1026 11.6206 15.1074 11.6171 15.1131C11.6136 15.1189 11.6118 15.1255 11.6116 15.1322C11.6116 15.1468 11.6049 15.148 11.5981 15.1565C11.5914 15.1651 11.5781 15.175 11.5849 15.1882C11.5904 15.199 11.5928 15.2111 11.5916 15.2231C11.5916 15.2375 11.6116 15.2263 11.6182 15.2251C11.6314 15.2224 11.6515 15.2251 11.665 15.2233C11.6852 15.2195 11.6785 15.2209 11.6922 15.2038C11.6922 15.1966 11.6992 15.1952 11.6992 15.188C11.7059 15.1795 11.6992 15.1808 11.7059 15.1723C11.7129 15.1711 11.7338 15.1673 11.7408 15.1723C11.7408 15.1797 11.7622 15.1759 11.7691 15.1745C11.7729 15.171 11.7778 15.1688 11.783 15.1685C11.7881 15.1681 11.7932 15.1695 11.7975 15.1725C11.8119 15.1772 11.8119 15.1846 11.82 15.1977C11.8274 15.2038 11.82 15.2202 11.82 15.2267C11.8231 15.2344 11.8282 15.2411 11.8348 15.2461C11.8348 15.2533 11.842 15.2591 11.842 15.2665C11.842 15.2809 11.842 15.2809 11.8274 15.2906V15.3131C11.8366 15.3117 11.8453 15.3084 11.8531 15.3033C11.8608 15.2983 11.8674 15.2916 11.8724 15.2839V15.3064C11.8812 15.2974 11.8877 15.2865 11.8916 15.2745C11.8955 15.2626 11.8967 15.2499 11.8949 15.2375C11.8949 15.2303 11.8801 15.2256 11.8801 15.2182V15.1957C11.8801 15.1885 11.8801 15.1885 11.8875 15.1871C11.9174 15.1822 11.91 15.2125 11.91 15.2341V15.2994C11.9251 15.2969 11.955 15.2922 11.9633 15.2769C11.9633 15.2697 11.9554 15.2564 11.9554 15.2492C11.9554 15.242 11.971 15.2395 11.9779 15.2382C11.9718 15.2497 11.9692 15.2628 11.9703 15.2758C11.9703 15.283 11.9626 15.2841 11.9703 15.2902V15.3046C11.9779 15.3106 11.9928 15.3084 12.0013 15.3142C12.0099 15.3201 12.0092 15.3203 12.0092 15.3277C12.0092 15.3421 12.0171 15.3336 12.0247 15.3325C12.0324 15.3313 12.0486 15.3507 12.0407 15.3518C12.0407 15.3664 12.0328 15.382 12.025 15.3833C12.0171 15.3847 11.9937 15.388 11.9858 15.382C11.9726 15.3813 11.9596 15.3784 11.9473 15.3734C11.9397 15.3673 11.9397 15.3601 11.9248 15.3554L11.887 15.3615L11.8573 15.3662C11.8499 15.3529 11.8499 15.3457 11.8348 15.341C11.8274 15.3277 11.784 15.3352 11.784 15.3136V15.2911L11.7984 15.2886C11.8056 15.3019 11.8056 15.3091 11.8128 15.3151C11.8274 15.3055 11.8202 15.2994 11.8202 15.2926L11.8056 15.2805C11.7984 15.2746 11.8056 15.2733 11.7912 15.2758C11.784 15.2771 11.7912 15.283 11.784 15.2771C11.7768 15.2782 11.7768 15.271 11.7696 15.2724C11.7696 15.2578 11.7696 15.265 11.7626 15.2591C11.7554 15.2591 11.7554 15.253 11.7484 15.2544C11.7412 15.2483 11.7273 15.2508 11.7203 15.2521L11.6722 15.2609L11.6452 15.2661C11.6319 15.2614 11.6251 15.2555 11.6121 15.2508C11.6053 15.2521 11.5921 15.2402 11.5921 15.2402C11.5853 15.2488 11.5786 15.2573 11.5718 15.2587C11.5502 15.2859 11.5252 15.3102 11.4973 15.3309C11.4602 15.3632 11.426 15.3987 11.3952 15.4371C11.3749 15.4632 11.3565 15.4908 11.3403 15.5197C11.3297 15.538 11.325 15.5591 11.3268 15.5802C11.3198 15.6103 11.3198 15.6319 11.3128 15.6623C11.3128 15.6767 11.3061 15.6848 11.3061 15.6997C11.2991 15.7082 11.3061 15.7222 11.3128 15.7273C11.3198 15.7478 11.3268 15.7755 11.3335 15.7948L11.354 15.8344V15.8635C11.354 15.886 11.354 15.886 11.3677 15.8898C11.3747 15.9031 11.3815 15.8945 11.3952 15.892C11.4157 15.881 11.4157 15.881 11.4294 15.892C11.4361 15.8979 11.4429 15.8965 11.4566 15.8941C11.4703 15.8916 11.5176 15.8752 11.5241 15.881C11.5306 15.8869 11.5363 15.9019 11.543 15.9078ZM12.1591 15.2467C12.151 15.2625 12.1105 15.2393 12.0943 15.249C12.0864 15.2501 12.0625 15.2463 12.0704 15.238C12.0704 15.2308 12.0783 15.2078 12.0864 15.2067C12.0943 15.1981 12.1102 15.1885 12.1183 15.1945L12.1264 15.2006C12.1264 15.208 12.1345 15.2067 12.1426 15.2056C12.1591 15.2033 12.1591 15.2033 12.1672 15.2166C12.1681 15.2273 12.1653 15.238 12.1591 15.2467ZM12.1019 14.9794C12.1098 14.9794 12.1098 14.9855 12.1019 14.9941C12.0938 14.9952 12.0857 14.9891 12.1019 14.9794ZM12.25 15.2629V15.2339C12.25 15.2195 12.2583 15.2114 12.2749 15.2087C12.2833 15.2004 12.3087 15.1968 12.3004 15.2197C12.2918 15.2281 12.2835 15.2366 12.292 15.2499C12.292 15.2645 12.3004 15.2634 12.2837 15.2875C12.2837 15.2947 12.2837 15.31 12.2585 15.3127C12.2502 15.3138 12.2419 15.3221 12.2335 15.3088C12.2252 15.3028 12.2335 15.2942 12.2419 15.2931C12.2585 15.2908 12.2502 15.2701 12.25 15.2625V15.2629ZM12.0225 14.9925C12.0027 14.9862 12.0074 14.968 12.0079 14.9524C12.0115 14.9709 12.07 14.9486 12.0778 14.9405C12.0785 14.9345 12.0813 14.9289 12.0857 14.9248C12.0857 14.9176 12.0936 14.9164 12.1017 14.9151C12.1098 14.9068 12.1177 14.891 12.1258 14.8827C12.1411 14.8619 12.1604 14.8442 12.1825 14.8307C12.1908 14.8307 12.2155 14.826 12.2155 14.8334C12.2161 14.8397 12.2149 14.8459 12.212 14.8515C12.209 14.857 12.2046 14.8616 12.1991 14.8647C12.1908 14.873 12.1744 14.8609 12.1663 14.8694C12.1582 14.878 12.142 14.8802 12.1339 14.896C12.1339 14.9032 12.1258 14.9043 12.1339 14.9104L12.142 14.9164C12.1501 14.9164 12.1665 14.9203 12.1746 14.9117C12.191 14.9095 12.2074 14.8998 12.2158 14.8987C12.2322 14.8962 12.2488 14.8939 12.2322 14.9108C12.2241 14.9333 12.1827 14.925 12.1665 14.9347C12.1503 14.9443 12.1341 14.9466 12.1179 14.9572C12.1098 14.9583 12.0938 14.9536 12.0857 14.9693C12.0778 14.9776 12.0619 14.9873 12.054 14.9956C12.0461 15.004 12.0225 14.9925 12.0225 14.9925Z" fill="white"/>
<path d="M10.8449 16.1544C10.8408 17.4525 11.8162 18.4839 13.5244 18.2274C14.9837 18.0075 16.2894 16.6863 16.3488 15.2625C16.3507 14.8351 16.185 14.424 15.8871 14.1175C15.8885 13.9575 15.8934 13.794 15.8963 13.6322C15.8977 13.5548 15.8963 13.4747 15.8963 13.3959L15.7994 13.4148L15.706 13.4328L15.6486 13.4441L15.6164 13.4502L15.6083 13.4517C15.4508 13.4823 15.321 13.5075 15.1743 13.5323C14.6492 13.2924 14.0644 13.2146 13.4949 13.3091C12.8832 13.3711 12.3027 13.6098 11.8243 13.996C11.6591 14.0246 11.5165 14.0543 11.3653 14.0822C11.3036 14.0937 11.2485 14.1036 11.1932 14.1135V14.8254C10.9724 15.2341 10.8529 15.6899 10.8449 16.1544ZM13.3484 17.6235C13.3185 17.6131 13.2925 17.5939 13.2737 17.5683C13.2551 17.5636 13.2458 17.5501 13.2272 17.5382C13.2085 17.5335 13.19 17.5139 13.1714 17.5157L13.0879 17.5274C13.0784 17.5287 13.0692 17.5152 13.0692 17.5078C13.06 17.5017 13.0508 17.5031 13.0415 17.497C13.0338 17.4902 13.0239 17.4864 13.0136 17.486C12.9952 17.481 12.9952 17.4736 12.9862 17.4824C13.0046 17.502 13.0231 17.5143 13.0415 17.5339C13.0508 17.5474 13.0415 17.5634 13.06 17.5609C13.0784 17.5584 13.1063 17.547 13.125 17.5445C13.1553 17.5454 13.1846 17.5552 13.2094 17.5726C13.2342 17.59 13.2533 17.6142 13.2645 17.6424C13.2751 17.6672 13.2814 17.6937 13.283 17.7207V17.7573C13.2747 17.7695 13.2684 17.7828 13.2643 17.7969C13.2643 17.8044 13.2551 17.828 13.2458 17.8293C13.2286 17.8399 13.2098 17.8475 13.19 17.8518C13.1601 17.8612 13.1283 17.8633 13.0973 17.8579C13.0643 17.8564 13.0323 17.8457 13.0051 17.8269C12.9891 17.8248 12.9738 17.8195 12.9601 17.8111C12.9493 17.7961 12.9401 17.7801 12.9326 17.7632V17.7337C12.93 17.7198 12.9266 17.7061 12.9225 17.6925C12.9341 17.6589 12.9529 17.6282 12.9774 17.6025L13.0051 17.6433C13.0145 17.6568 13.0238 17.6628 13.0422 17.6455C13.0607 17.6282 13.0328 17.6172 13.0235 17.6111C13.0201 17.6089 13.0174 17.6057 13.0158 17.602C13.0142 17.5983 13.0137 17.5942 13.0143 17.5902C13.015 17.5861 13.0144 17.582 13.0128 17.5783C13.0112 17.5746 13.0085 17.5714 13.0051 17.5692L12.959 17.5386C12.9497 17.5323 12.9223 17.5213 12.9223 17.5139C12.9223 17.5065 12.9128 17.4707 12.8946 17.4954C12.8764 17.5128 12.8946 17.5179 12.9038 17.5386C12.8702 17.5394 12.8365 17.5365 12.8035 17.5299C12.7763 17.526 12.749 17.5222 12.7135 17.5195C12.6595 17.5116 12.6059 17.497 12.5528 17.488C12.4924 17.4749 12.4314 17.4649 12.3699 17.4583C12.3614 17.452 12.3528 17.4531 12.3357 17.4549C12.3185 17.4532 12.3012 17.4553 12.2849 17.461C12.2763 17.461 12.2597 17.4714 12.2513 17.4725C12.2345 17.4743 12.2178 17.4763 12.2095 17.4624C12.1595 17.4385 12.1595 17.3865 12.1267 17.346C12.0936 17.3076 12.0525 17.2769 12.0063 17.256C11.9851 17.2482 11.9662 17.2351 11.9514 17.218C11.9514 17.2034 11.9435 17.1894 11.9591 17.1876C11.9816 17.1852 11.9816 17.1852 11.9982 17.2054C12.014 17.211 12.0457 17.2072 12.0617 17.2128C12.0857 17.2248 12.1181 17.2353 12.1427 17.2477C12.1911 17.2692 12.2383 17.2933 12.2842 17.3199C12.3327 17.3458 12.3847 17.3646 12.4385 17.3757C12.4896 17.3942 12.5423 17.4074 12.596 17.4153C12.6265 17.4115 12.6574 17.4153 12.686 17.4264C12.704 17.4313 12.713 17.4302 12.722 17.4216C12.731 17.4057 12.74 17.3971 12.74 17.3823C12.749 17.3811 12.749 17.3737 12.758 17.3652L12.7488 17.3589C12.7392 17.3496 12.7329 17.3374 12.7308 17.3242C12.7398 17.3082 12.7488 17.2995 12.7578 17.2835C12.7686 17.274 12.7777 17.2629 12.7848 17.2504C12.8062 17.2307 12.8309 17.215 12.8577 17.2038C12.8841 17.192 12.9118 17.1834 12.9403 17.1782C12.9704 17.1705 13.0014 17.1664 13.0325 17.166C13.0471 17.1725 13.063 17.1754 13.0789 17.1746L13.125 17.169C13.1344 17.1764 13.1412 17.1865 13.1445 17.1979C13.1479 17.2094 13.1476 17.2216 13.1437 17.2329C13.1366 17.2636 13.1205 17.2915 13.0973 17.313C13.0881 17.3289 13.0881 17.3438 13.0789 17.3523L13.0233 17.382C12.989 17.4009 12.9516 17.4135 12.9128 17.4192L12.8579 17.4266C12.8487 17.4203 12.8129 17.4252 12.8129 17.4178C12.8039 17.4041 12.8312 17.3931 12.8402 17.3771C12.8494 17.3685 12.8312 17.3487 12.8219 17.3424L12.8129 17.351V17.3658C12.8028 17.3792 12.7906 17.3908 12.7767 17.4003L12.7675 17.4088C12.7675 17.4162 12.7767 17.4225 12.7675 17.4313C12.7675 17.4387 12.7495 17.4484 12.7495 17.4558C12.7765 17.4671 12.8037 17.4489 12.8312 17.4527C12.8402 17.4513 12.8584 17.4563 12.8676 17.4552C12.8951 17.4516 12.9126 17.4565 12.9317 17.4552L12.9869 17.4477C12.9961 17.4464 13.0053 17.4304 13.0238 17.4277C13.0528 17.4198 13.0808 17.4086 13.1072 17.3942C13.1165 17.3856 13.1349 17.3829 13.1444 17.3744C13.1517 17.3617 13.1611 17.3504 13.1723 17.3409C13.2002 17.315 13.2188 17.2902 13.2375 17.2734C13.2841 17.2374 13.3403 17.2002 13.3871 17.1642C13.4526 17.1255 13.5089 17.0967 13.5746 17.0643C13.6048 17.0541 13.6362 17.0472 13.6679 17.0439C13.6997 17.0404 13.731 17.0335 13.7613 17.0232C13.8225 17.0106 13.8843 17.0015 13.9465 16.9959C13.9832 16.9977 14.0198 16.9923 14.0563 16.9941C14.0864 16.9957 14.1167 16.9935 14.1463 16.9876L14.2363 16.9737C14.2721 16.968 14.2988 16.9568 14.3263 16.9525C14.3552 16.9468 14.3846 16.9446 14.414 16.946C14.4228 16.9518 14.4921 16.955 14.4575 16.975C14.4304 16.9933 14.401 17.0077 14.3699 17.0178C14.3408 17.0258 14.3137 17.0399 14.2903 17.0592C14.2681 17.0775 14.2441 17.0934 14.2185 17.1066C14.1906 17.1251 14.1604 17.1395 14.1285 17.1496C14.0725 17.1772 14.0145 17.2007 13.955 17.2198C13.9274 17.2315 13.8905 17.2443 13.8628 17.2558C13.8481 17.2618 13.8322 17.2642 13.8164 17.2628C13.7997 17.2672 13.7839 17.2748 13.7701 17.2853L13.7235 17.2923C13.7074 17.2985 13.6919 17.3061 13.6769 17.3148C13.6398 17.3202 13.6117 17.3316 13.5743 17.3373C13.5131 17.3577 13.4507 17.3741 13.3874 17.3865L13.2938 17.3998L13.2564 17.4052L13.2098 17.4117C13.1801 17.4129 13.1512 17.4221 13.1261 17.4383C13.1146 17.4463 13.1021 17.453 13.089 17.4581C13.0706 17.468 13.1169 17.4763 13.1169 17.4763C13.1512 17.4782 13.1856 17.4758 13.2193 17.4693C13.2324 17.4677 13.245 17.4634 13.2564 17.4567C13.2659 17.448 13.2751 17.4466 13.3032 17.4354C13.3618 17.4232 13.4211 17.4146 13.4807 17.4095C13.5181 17.4115 13.5462 17.4072 13.5836 17.4095C13.6136 17.4196 13.645 17.4248 13.6767 17.4248C13.7299 17.4327 13.7825 17.4441 13.8342 17.459C13.8679 17.4622 13.9019 17.4618 13.9355 17.4576C13.9631 17.4606 13.9805 17.4651 14.0088 17.468C14.0686 17.4758 14.1291 17.4758 14.1888 17.468L14.2516 17.4576C14.2781 17.4534 14.2966 17.4351 14.3137 17.4403L14.3666 17.4315C14.3726 17.4303 14.3789 17.4305 14.3849 17.4319C14.391 17.4334 14.3966 17.4362 14.4014 17.4401C14.4275 17.443 14.4363 17.4417 14.4273 17.4646C14.416 17.4699 14.4044 17.4742 14.3924 17.4777L14.3474 17.4851C14.3024 17.5076 14.2678 17.5272 14.232 17.5474C14.1962 17.5605 14.169 17.5868 14.142 17.5983C14.106 17.6115 14.0691 17.6244 14.0331 17.6379C13.9742 17.6637 13.9127 17.6834 13.8497 17.6966C13.7825 17.7095 13.7135 17.7106 13.6459 17.6997C13.618 17.6968 13.5901 17.6865 13.5527 17.6849C13.4884 17.6615 13.4137 17.6433 13.3484 17.6235ZM14.3234 17.2252C14.3146 17.2338 14.3058 17.2279 14.288 17.2308C14.2764 17.2361 14.2645 17.2404 14.2523 17.2439C14.2345 17.2466 14.2255 17.2407 14.2073 17.2439C14.1956 17.2491 14.1836 17.2535 14.1713 17.2569C14.1443 17.2684 14.108 17.274 14.0813 17.2857C14.0332 17.2991 13.9842 17.3091 13.9348 17.3157L13.852 17.3285C13.8333 17.3312 13.7964 17.3442 13.7777 17.3325C13.8012 17.3207 13.8262 17.312 13.852 17.3067C13.8889 17.2936 13.9166 17.2893 13.9442 17.2779C14.0069 17.2558 14.068 17.2294 14.1269 17.1989C14.1814 17.1764 14.2444 17.1442 14.3069 17.1199L14.385 17.1075L14.5065 17.0877C14.5654 17.0704 14.6222 17.0466 14.6757 17.0166C14.7102 17.0027 14.7459 16.9919 14.7824 16.9842L14.8305 16.9759C14.8386 16.9746 14.8386 16.9746 14.8465 16.9804C14.8544 16.9791 14.869 16.998 14.862 17.0065C14.855 17.0151 14.8541 17.0223 14.8463 17.0236L14.8143 17.029C14.8143 17.029 14.7981 17.0461 14.79 17.0475C14.7656 17.0733 14.741 17.0991 14.7162 17.1246C14.675 17.1532 14.6413 17.1948 14.599 17.2234C14.5753 17.2401 14.5528 17.2582 14.5315 17.2779C14.5058 17.2893 14.4712 17.3168 14.4451 17.3283C14.3848 17.3538 14.3231 17.376 14.2604 17.3946C14.2008 17.4056 14.1407 17.4131 14.0804 17.4171C14.0348 17.4207 13.9891 17.4207 13.9436 17.4171C13.8986 17.4099 13.8515 17.4097 13.8054 17.4023C13.7498 17.3962 13.7033 17.3814 13.6569 17.3737C13.719 17.3729 13.781 17.3684 13.8425 17.3602L14.045 17.3287C14.0723 17.3244 14.1087 17.3114 14.135 17.3062C14.1659 17.2994 14.196 17.2897 14.225 17.2774C14.284 17.2613 14.3407 17.2377 14.3936 17.207C14.3694 17.2097 14.3458 17.2158 14.3234 17.2252ZM15.8745 15.3316C15.8745 15.0454 15.8804 14.7466 15.8855 14.4564C15.8867 14.3889 15.8855 14.3191 15.8855 14.2505C16.1204 14.5429 16.2484 14.9066 16.2485 15.2817C16.253 16.5898 15.2288 17.8523 13.586 18.1488C13.7023 18.11 13.8173 18.0673 13.9307 18.0208C14.201 17.9133 14.4602 17.7796 14.7045 17.6217C14.9739 17.4556 15.2059 17.2353 15.3856 16.9748C15.5922 16.6842 15.7406 16.3563 15.8225 16.0093C15.8594 15.7853 15.8768 15.5586 15.8745 15.3316ZM15.814 15.0013C15.8655 15.398 15.6261 15.8734 15.3469 16.1938C15.1359 16.4222 14.8524 16.5704 14.5445 16.6134C14.2526 16.6583 13.954 16.6266 13.6781 16.5214C13.6502 16.5106 13.6218 16.4924 13.5937 16.4814C13.5809 16.4768 13.5687 16.4707 13.5572 16.4634C13.7191 16.3475 13.8524 16.1964 13.9472 16.0214C14.042 15.8464 14.0957 15.6522 14.1042 15.4533C14.0967 15.2715 14.0412 15.0949 13.9433 14.9415C13.8454 14.7881 13.7086 14.6634 13.5469 14.5801C13.5508 14.5772 13.5552 14.5752 13.5599 14.5743C13.572 14.5586 13.5881 14.5466 13.6065 14.5394C13.8225 14.3761 14.0712 14.2613 14.3355 14.2027C14.5999 14.1441 14.8738 14.1431 15.1385 14.1999C15.3166 14.2537 15.4752 14.3581 15.5951 14.5004C15.715 14.6427 15.7911 14.8167 15.814 15.0013ZM13.4965 13.3741C14.0221 13.291 14.5604 13.3522 15.0539 13.5512L14.9977 13.5602C14.6957 13.6077 14.36 13.6524 14.012 13.697C13.627 13.7463 13.2357 13.7942 12.855 13.8439C12.5229 13.8876 12.2147 13.9305 11.9435 13.9751C12.3991 13.6412 12.9349 13.4339 13.4965 13.3741ZM12.5029 14.4512C12.8467 14.4012 13.1975 14.4621 13.5044 14.6251C13.6596 14.7047 13.791 14.8241 13.8852 14.9711C13.9793 15.118 14.0327 15.2873 14.0401 15.4617C14.0415 15.5615 14.0271 15.6608 13.9976 15.7562V15.7452C13.9883 15.7537 13.9791 15.7548 13.9699 15.7632L13.9607 15.7717C13.9512 15.7872 13.9607 15.7789 13.9607 15.7861C13.9699 15.7922 13.9607 15.8151 13.9791 15.8057C13.9809 15.8057 13.9814 15.8021 13.9827 15.8007C13.9154 15.9827 13.8104 16.1483 13.6745 16.2867C13.6772 16.2827 13.6787 16.2781 13.679 16.2732C13.6884 16.2647 13.7071 16.255 13.7073 16.2476C13.7165 16.2318 13.726 16.2233 13.7354 16.2075C13.7354 16.2003 13.7541 16.1907 13.7543 16.176C13.7584 16.1707 13.7613 16.1646 13.7629 16.1581C13.7645 16.1516 13.7648 16.1448 13.7638 16.1382V16.0725C13.7515 16.0506 13.7482 16.0248 13.7546 16.0005C13.7562 15.988 13.7529 15.9753 13.7453 15.9652C13.7379 15.955 13.7346 15.9424 13.7361 15.9299C13.7361 15.9153 13.7458 15.8484 13.7082 15.875C13.6988 15.8833 13.6988 15.8975 13.6893 15.9137C13.6893 15.9211 13.6799 15.9294 13.6704 15.9452C13.6704 15.9598 13.661 15.9609 13.6515 15.9767C13.6421 15.9924 13.6326 15.9936 13.6232 15.9801C13.6045 15.9677 13.5669 15.9504 13.595 15.9324C13.6045 15.9166 13.6139 15.9155 13.6139 15.9009C13.6139 15.8862 13.6236 15.8784 13.6047 15.8799L13.5575 15.8856L13.5102 15.891C13.4819 15.9018 13.463 15.9258 13.4346 15.936C13.4028 15.9396 13.3731 15.9534 13.3498 15.9753C13.3403 15.9837 13.3309 15.9848 13.3214 16.0008C13.312 16.0019 13.312 16.0091 13.3025 16.0102L13.2836 16.0125C13.2569 16.0286 13.2286 16.0418 13.199 16.0518C13.1751 16.0622 13.1553 16.0802 13.1426 16.1029C13.1333 16.1187 13.1333 16.1254 13.1239 16.1418C13.1186 16.1454 13.1142 16.1502 13.1109 16.1557C13.1077 16.1612 13.1057 16.1674 13.1052 16.1738C13.1057 16.1871 13.1025 16.2002 13.096 16.2118C13.0931 16.224 13.0866 16.2351 13.0773 16.2435C13.0679 16.2521 13.0773 16.266 13.0868 16.2719C13.096 16.2708 13.1147 16.2834 13.1241 16.2822C13.1818 16.2627 13.2416 16.2504 13.3023 16.2458C13.3401 16.2485 13.3496 16.2683 13.3682 16.2892C13.3777 16.3027 13.3682 16.3117 13.3871 16.3162C13.3966 16.3225 13.4058 16.3065 13.4247 16.2969C13.4174 16.3211 13.4142 16.3463 13.4153 16.3716C13.4247 16.3851 13.4247 16.3997 13.4339 16.406C13.4432 16.4123 13.4528 16.4109 13.4717 16.4085C13.4812 16.4073 13.4999 16.3974 13.5188 16.3952L13.5563 16.3902C13.5723 16.3801 13.5856 16.37 13.5991 16.3601C13.5728 16.3842 13.5467 16.4087 13.5188 16.4319C13.5113 16.4379 13.5023 16.4424 13.4949 16.4485C13.4949 16.444 13.4929 16.4397 13.481 16.4366C13.4701 16.44 13.4604 16.4463 13.4528 16.4548L13.4339 16.4573V16.4499C13.4254 16.445 13.4153 16.4438 13.4058 16.4463L13.3964 16.4474C13.3869 16.4559 13.368 16.473 13.368 16.4805C13.3685 16.4845 13.3701 16.4884 13.3726 16.4918C13.375 16.4951 13.3783 16.4977 13.382 16.4994C13.3858 16.5012 13.3899 16.5019 13.3941 16.5016C13.3982 16.5012 13.4021 16.4998 13.4056 16.4976C13.4056 16.5036 13.4096 16.5041 13.4121 16.5068C13.146 16.696 12.8379 16.8176 12.5144 16.8612C11.7138 16.9604 11.2699 16.5012 11.2699 15.8424C11.2662 15.4988 11.3904 15.1662 11.6182 14.9091C11.8461 14.652 12.1614 14.4888 12.5029 14.4512ZM11.1936 16.2159V16.3999C11.193 16.557 11.2137 16.7134 11.255 16.865C11.3348 17.1458 11.4915 17.3987 11.7075 17.5951C11.9297 17.79 12.1918 17.9341 12.4754 18.0172C12.7201 18.0933 12.9723 18.1427 13.2276 18.1646C13.2754 18.1726 13.3236 18.1777 13.3721 18.1799C11.7611 18.3725 10.9049 17.3699 10.9085 16.1443C10.9144 15.7301 11.012 15.3223 11.1943 14.9502V15.4227C11.1938 15.6831 11.1943 15.9542 11.1936 16.2159Z" fill="white"/>
<path d="M12.2336 15.3088C12.2419 15.3221 12.2502 15.3138 12.2585 15.3126C12.2837 15.309 12.2837 15.2946 12.2837 15.2874C12.3004 15.2634 12.2921 15.2649 12.2921 15.2499C12.2835 15.2366 12.2921 15.2274 12.3004 15.2197C12.3087 15.1972 12.2833 15.2004 12.275 15.2087C12.2583 15.2109 12.25 15.2195 12.25 15.2339V15.2625C12.25 15.2697 12.2585 15.2904 12.2419 15.2926C12.2336 15.2942 12.225 15.3027 12.2336 15.3088Z" fill="white"/>
<defs>
<linearGradient id="paint0_linear_927_5690" x1="6.90059" y1="19.7263" x2="21" y2="19.7263" gradientUnits="userSpaceOnUse">
<stop stop-color="#004080"/>
<stop offset="0.325" stop-color="#004383"/>
<stop offset="0.585" stop-color="#004D8D"/>
<stop offset="0.823" stop-color="#005E9D"/>
<stop offset="1" stop-color="#0070AF"/>
</linearGradient>
<linearGradient id="paint1_linear_927_5690" x1="13.9503" y1="18.4553" x2="13.9503" y2="21" gradientUnits="userSpaceOnUse">
<stop offset="0.35" stop-color="#009FDF"/>
<stop offset="0.645" stop-color="#009DDD"/>
<stop offset="0.752" stop-color="#0096D6"/>
<stop offset="0.828" stop-color="#008BCB"/>
<stop offset="0.889" stop-color="#007ABA"/>
<stop offset="0.941" stop-color="#0064A4"/>
<stop offset="0.987" stop-color="#004989"/>
<stop offset="1" stop-color="#004080"/>
</linearGradient>
<linearGradient id="paint2_linear_927_5690" x1="6.9006" y1="15.4457" x2="21" y2="15.4457" gradientUnits="userSpaceOnUse">
<stop stop-color="#009FDF"/>
<stop offset="0.021" stop-color="#02A1E1"/>
<stop offset="0.244" stop-color="#13B2F2"/>
<stop offset="0.487" stop-color="#1DBCFC"/>
<stop offset="0.791" stop-color="#20BFFF"/>
<stop offset="0.841" stop-color="#1EBCFC"/>
<stop offset="0.882" stop-color="#19B2F2"/>
<stop offset="0.919" stop-color="#11A1E1"/>
<stop offset="0.954" stop-color="#0589C9"/>
<stop offset="0.966" stop-color="#007FBF"/>
<stop offset="1" stop-color="#20BFFF"/>
</linearGradient>
</defs>
</svg>
