<svg width="24" height="24" viewBox="0 0 24 24" fill="none" xmlns="http://www.w3.org/2000/svg">
<circle cx="12" cy="12" r="12" fill="#172852"/>
<path d="M10.3316 16.3333C10.7816 17.9983 12.3962 19.2682 13.2116 19.2158C13.2402 19.214 16.3043 18.6427 17.9816 15.8408C19.2866 13.6598 18.8425 11.5543 17.0672 11.5084C16.4285 11.555 9.4746 13.1617 10.3321 16.3337L10.3316 16.3333ZM16.9014 5.63995L16.8996 5.6386L16.9023 5.63702C15.784 4.68594 14.4199 4.07012 12.9669 3.86049C11.5139 3.65087 10.0313 3.85597 8.6898 4.45217C8.52105 4.52288 8.35666 4.60358 8.1975 4.69382C8.08815 4.7521 7.97858 4.80992 7.8726 4.87382L7.89848 4.88192C7.58447 5.09567 7.30682 5.35844 7.0761 5.6602C4.8387 8.614 12.3344 10.7614 16.3425 10.7686C18.1853 12.092 18.7028 7.04237 16.9014 5.63995Z" fill="#0E3CA5"/>
<path d="M9.14249 5.70002C8.11267 7.24757 4.68254 8.33837 4.11847 8.1685L4.11464 8.1613C4.13789 8.1145 4.16137 8.06807 4.18507 8.02202C4.77001 6.89537 5.60695 5.91883 6.63082 5.16835C6.84187 5.01355 7.06034 4.86887 7.28624 4.73432C7.63382 4.54234 8.02322 4.43866 8.42024 4.43237C9.94776 4.46252 9.15014 5.68765 9.14249 5.70002ZM8.29739 16.6377C8.37142 17.1239 8.29559 19.0452 8.19614 19.2068C8.11041 19.2119 7.93199 19.2227 7.41516 18.933C6.35136 18.3281 5.43644 17.4928 4.73751 16.4883C4.03858 15.4838 3.57335 14.3356 3.37597 13.1279C3.23255 12.2457 3.23255 11.346 3.37597 10.4637C3.44592 10.035 3.54998 9.61252 3.68714 9.20035C3.71459 9.11785 3.74332 9.03587 3.77332 8.95442C4.36529 9.74192 5.05042 10.4543 5.63272 11.2494C6.18734 12.0065 6.95032 13.2409 7.10557 13.5048C8.06947 15.1421 8.22314 16.1524 8.29672 16.6379L8.29739 16.6377ZM19.6925 11.7957C19.6938 12.8284 19.4998 13.852 19.1208 14.8125C18.1533 15.852 11.6321 13.2931 11.5682 13.265C10.6761 12.8739 7.96124 11.685 7.71622 9.81617C7.36499 7.12855 12.8167 5.25565 15.213 5.18477C15.5003 5.18792 16.3747 5.19827 16.8845 5.61227C17.7675 6.38225 18.475 7.33265 18.9594 8.39934C19.4438 9.46602 19.6938 10.6242 19.6925 11.7957ZM15.2778 19.0796C14.5668 19.4115 13.7842 19.1696 13.9876 18.4775C14.378 17.148 17.787 15.785 18.5398 15.71C18.6325 15.701 18.6721 15.7643 18.631 15.8365C17.8465 17.2156 16.683 18.3408 15.2785 19.0787" fill="#5493F7"/>
<path d="M6.90015 20.3821C6.89011 20.5323 6.93938 20.6804 7.03737 20.7946C7.13536 20.9087 7.27425 20.9799 7.42417 20.9928C14.3317 21.04 21 20.7228 21 19.6878C21 16.5547 6.90015 20.3821 6.90015 20.3821Z" fill="url(#paint0_linear_927_5700)"/>
<path d="M11.9231 19.2241L13.2089 20.51C17.5904 19.929 20.8918 19.0535 20.8918 19.7175C20.8918 20.6726 14.3279 21 7.42711 20.9537C7.40876 20.9536 7.39044 20.9526 7.37221 20.9505C7.28198 20.9385 7.19635 20.9035 7.1236 20.8488C7.05085 20.7941 6.99342 20.7216 6.95686 20.6382V20.6366C6.9446 20.6098 6.93415 20.5821 6.92558 20.5538C6.93405 20.5821 6.9445 20.6098 6.95686 20.6366V20.6382C6.99732 20.7295 7.06301 20.8073 7.14619 20.8626C7.22937 20.9178 7.3266 20.9482 7.42643 20.9501C8.74943 20.942 10.0589 20.8569 11.314 20.7318L10.1726 19.5904C8.27828 20.0089 6.90016 20.3828 6.90016 20.3828C6.88991 20.5335 6.93947 20.682 7.03807 20.7964C7.13668 20.9107 7.27639 20.9815 7.42688 20.9935C14.3326 21.0459 20.9915 20.829 21 19.6885C21 17.8171 15.9735 18.428 11.9231 19.2241Z" fill="url(#paint1_linear_927_5700)"/>
<path d="M13.2089 20.5099L11.923 19.2241C11.3381 19.3391 10.7546 19.4609 10.1725 19.5897L11.314 20.7311C11.9626 20.6665 12.5962 20.5912 13.2089 20.5099Z" fill="url(#paint2_linear_927_5700)"/>
<path d="M7.42755 11.51C7.28771 11.51 7.1536 11.5655 7.0547 11.6644C6.9558 11.7632 6.90021 11.8973 6.90015 12.0372V20.3822C6.90002 20.5215 6.95507 20.6553 7.05326 20.7542C7.15146 20.8531 7.2848 20.9091 7.42417 20.91C14.3317 20.8583 21.0083 18.5721 21 19.6881V10.2885C21.0083 9.17223 14.3339 11.458 7.42755 11.51Z" fill="url(#paint3_linear_927_5700)"/>
<path d="M21 14.0569C21 13.8508 20.775 13.7752 20.4935 13.7514C20.1934 13.7357 19.8925 13.7479 19.5946 13.7881C19.3123 13.8202 19.1089 13.8513 18.8971 13.8826C18.6854 13.9138 18.478 13.9469 18.2746 13.9795C18.0712 14.0122 17.8714 14.047 17.6736 14.0819L17.0832 14.1859L16.4914 14.2882C16.2928 14.322 16.0925 14.3557 15.8887 14.3915C15.6848 14.4273 15.4794 14.4619 15.2663 14.4968C15.0532 14.5317 14.8339 14.5661 14.6068 14.6012C14.3798 14.6363 14.1454 14.6728 13.9048 14.7097C13.6643 14.7466 13.4121 14.7828 13.1488 14.8179V11.0485C12.5382 11.1335 11.908 11.2125 11.2636 11.2804V15.0415C10.9724 15.0715 10.7056 15.0958 10.4554 15.1183C9.99812 15.1594 9.54017 15.1925 9.08175 15.2175C8.8635 15.2296 8.6457 15.2384 8.4198 15.247C8.1939 15.2555 7.95945 15.2636 7.70857 15.2695C7.4577 15.2753 7.19107 15.2789 6.90015 15.2789V17.1588C7.19107 17.1588 7.45815 17.155 7.70857 17.1493C7.959 17.1437 8.19345 17.1365 8.41935 17.1268C8.64525 17.1172 8.8635 17.1086 9.08175 17.0974C9.3 17.0861 9.51825 17.0715 9.7446 17.0557C9.97095 17.04 10.2047 17.0204 10.4547 16.9984C10.7047 16.9763 10.9722 16.9516 11.2627 16.9216V20.6791C11.9068 20.6116 12.5371 20.5322 13.1475 20.4474V16.698C13.4106 16.6621 13.6627 16.626 13.9037 16.5895C14.1448 16.5531 14.3788 16.517 14.6059 16.4813C14.8327 16.4458 15.0519 16.4116 15.265 16.3769C15.478 16.3423 15.6844 16.3067 15.888 16.2714L16.4908 16.1679C16.689 16.1337 16.8861 16.1004 17.0825 16.0657L17.6729 15.962C18.0798 15.8895 18.4878 15.823 18.8967 15.7624C19.1091 15.7309 19.3127 15.7003 19.5942 15.6679C19.8924 15.6277 20.1937 15.6153 20.4942 15.631C20.775 15.6553 21 15.7307 21 15.9375V14.0569Z" fill="url(#paint4_linear_927_5700)"/>
<defs>
<linearGradient id="paint0_linear_927_5700" x1="6.90015" y1="19.7263" x2="21" y2="19.7263" gradientUnits="userSpaceOnUse">
<stop stop-color="#000070"/>
<stop offset="0.327" stop-color="#000273"/>
<stop offset="0.59" stop-color="#00097D"/>
<stop offset="0.83" stop-color="#00148E"/>
<stop offset="1" stop-color="#00209F"/>
</linearGradient>
<linearGradient id="paint1_linear_927_5700" x1="13.9501" y1="18.4553" x2="13.9501" y2="21" gradientUnits="userSpaceOnUse">
<stop offset="0.35" stop-color="#0050CF"/>
<stop offset="0.645" stop-color="#004ECD"/>
<stop offset="0.752" stop-color="#0049C6"/>
<stop offset="0.828" stop-color="#003FBB"/>
<stop offset="0.889" stop-color="#0031AA"/>
<stop offset="0.941" stop-color="#001E94"/>
<stop offset="0.987" stop-color="#000879"/>
<stop offset="1" stop-color="#000070"/>
</linearGradient>
<linearGradient id="paint2_linear_927_5700" x1="11.6906" y1="18.4552" x2="11.6906" y2="21" gradientUnits="userSpaceOnUse">
<stop offset="0.35" stop-color="#FBBF00"/>
<stop offset="0.645" stop-color="#F9BD00"/>
<stop offset="0.752" stop-color="#F2B600"/>
<stop offset="0.828" stop-color="#E7AB00"/>
<stop offset="0.889" stop-color="#D69A00"/>
<stop offset="0.941" stop-color="#C08400"/>
<stop offset="0.987" stop-color="#A56900"/>
<stop offset="1" stop-color="#9C6000"/>
</linearGradient>
<linearGradient id="paint3_linear_927_5700" x1="6.90015" y1="15.4455" x2="21" y2="15.4455" gradientUnits="userSpaceOnUse">
<stop stop-color="#0050CF"/>
<stop offset="0.021" stop-color="#0252D1"/>
<stop offset="0.244" stop-color="#1363E2"/>
<stop offset="0.487" stop-color="#1D6DEC"/>
<stop offset="0.791" stop-color="#2070EF"/>
<stop offset="0.841" stop-color="#1E6DEC"/>
<stop offset="0.882" stop-color="#1963E2"/>
<stop offset="0.919" stop-color="#1152D1"/>
<stop offset="0.954" stop-color="#053AB9"/>
<stop offset="0.966" stop-color="#0030AF"/>
<stop offset="1" stop-color="#2070EF"/>
</linearGradient>
<linearGradient id="paint4_linear_927_5700" x1="6.90015" y1="15.8641" x2="21" y2="15.8641" gradientUnits="userSpaceOnUse">
<stop stop-color="#FBBF00"/>
<stop offset="0.021" stop-color="#FBC102"/>
<stop offset="0.244" stop-color="#FDD213"/>
<stop offset="0.487" stop-color="#FFDC1D"/>
<stop offset="0.791" stop-color="#FFDF20"/>
<stop offset="0.841" stop-color="#FDDC1E"/>
<stop offset="0.882" stop-color="#F8D219"/>
<stop offset="0.919" stop-color="#EEC111"/>
<stop offset="0.954" stop-color="#E1A905"/>
<stop offset="0.966" stop-color="#DB9F00"/>
<stop offset="1" stop-color="#FFDF20"/>
</linearGradient>
</defs>
</svg>
