<svg width="24" height="24" viewBox="0 0 24 24" fill="none" xmlns="http://www.w3.org/2000/svg">
<circle cx="12" cy="12" r="12" fill="#172852"/>
<path d="M10.3316 16.3337C10.7816 17.9987 12.3962 19.2686 13.2116 19.2162C13.2402 19.2144 16.3043 18.6431 17.9816 15.8412C19.2866 13.6603 18.8425 11.5547 17.0672 11.5088C16.4285 11.5554 9.4746 13.1621 10.3321 16.3342L10.3316 16.3337ZM16.9016 5.64039L16.8998 5.63904L16.9023 5.63746C15.7841 4.68634 14.4199 4.07048 12.9669 3.86085C11.5139 3.65123 10.0313 3.85636 8.6898 4.45261C8.52104 4.52329 8.35664 4.60398 8.1975 4.69426C8.08815 4.75254 7.9788 4.81036 7.8726 4.87426L7.89848 4.88214C7.58447 5.09597 7.30681 5.35881 7.0761 5.66064C4.8387 8.61444 12.3344 10.7625 16.3425 10.769C18.1855 12.0925 18.703 7.04281 16.9016 5.64039Z" fill="#0E3CA5"/>
<path d="M9.14249 5.7C8.11267 7.248 4.68254 8.33857 4.11847 8.16892L4.11464 8.16172C4.13789 8.11492 4.16137 8.0685 4.18507 8.02245C4.77001 6.89579 5.60695 5.91925 6.63082 5.16878C6.84187 5.01398 7.06034 4.8693 7.28624 4.73475C7.63382 4.54277 8.02322 4.43908 8.42024 4.4328C9.94776 4.4625 9.15014 5.68807 9.14249 5.7ZM8.29739 16.6381C8.37142 17.1244 8.29559 19.0456 8.19614 19.207C8.11041 19.2124 7.93199 19.2232 7.41516 18.9334C6.35136 18.3285 5.43644 17.4932 4.73751 16.4888C4.03858 15.4843 3.57335 14.3361 3.37597 13.1284C3.23255 12.2461 3.23255 11.3464 3.37597 10.4641C3.44592 10.0353 3.54997 9.6128 3.68714 9.20055C3.71459 9.1182 3.74339 9.03607 3.77332 8.95485C4.36529 9.74235 5.05042 10.4547 5.63272 11.2498C6.18734 12.0072 6.95032 13.2415 7.10557 13.5052C8.06947 15.1428 8.22314 16.153 8.29672 16.6386L8.29739 16.6381ZM19.6925 11.7961C19.6938 12.8286 19.4998 13.8521 19.1208 14.8125C18.1533 15.8522 11.6321 13.2931 11.5682 13.2652C10.6761 12.8743 7.96124 11.685 7.71622 9.8175C7.36499 7.12897 12.8167 5.25608 15.213 5.18498C15.5003 5.18835 16.3747 5.1987 16.8845 5.61248C17.7675 6.38245 18.475 7.33285 18.9594 8.39954C19.4438 9.46623 19.6938 10.6244 19.6925 11.7959V11.7961ZM15.2778 19.0801C14.5668 19.4117 13.7842 19.1701 13.9876 18.4777C14.378 17.1484 17.787 15.7854 18.5398 15.7102C18.6328 15.7012 18.6721 15.7645 18.631 15.8367C17.8465 17.2158 16.683 18.341 15.2785 19.0789" fill="#5493F7"/>
<path d="M6.90083 20.3822C6.89073 20.5323 6.93998 20.6804 7.03799 20.7946C7.13599 20.9088 7.27491 20.98 7.42486 20.9928C14.3324 21.0401 21 20.7228 21 19.6878C21 16.5549 6.90083 20.3822 6.90083 20.3822Z" fill="url(#paint0_linear_927_5714)"/>
<path d="M6.90081 20.3822C6.89063 20.5328 6.9402 20.6813 7.0388 20.7956C7.1374 20.9099 7.27707 20.9808 7.42754 20.9928C14.3328 21.0452 20.9917 20.8283 21 19.6878C21 16.5549 6.90081 20.3822 6.90081 20.3822ZM7.42777 20.953C7.40935 20.953 7.39094 20.9519 7.37264 20.9498C7.26737 20.9351 7.1688 20.8896 7.08927 20.8191C7.00974 20.7486 6.95279 20.6561 6.92557 20.5534C6.95511 20.6647 7.01995 20.7635 7.11037 20.8349C7.20079 20.9063 7.31192 20.9465 7.42709 20.9494C14.3278 20.9062 20.8918 18.7815 20.8918 19.7171C20.8918 20.672 14.3281 21 7.42777 20.953Z" fill="url(#paint1_linear_927_5714)"/>
<path d="M7.42822 11.5102C7.28834 11.5102 7.1542 11.5658 7.05529 11.6647C6.95638 11.7636 6.90082 11.8977 6.90082 12.0376V20.3822C6.90064 20.5215 6.95567 20.6553 7.05387 20.7543C7.15207 20.8532 7.28546 20.9092 7.42484 20.91C14.3319 20.8583 21.0083 18.5718 21 19.6878V10.29C21.0083 9.17266 14.3341 11.4587 7.42822 11.5102Z" fill="url(#paint2_linear_927_5714)"/>
<path d="M7.42822 11.5102C7.28834 11.5102 7.1542 11.5658 7.05529 11.6647C6.95638 11.7636 6.90082 11.8977 6.90082 12.0376V16.2136C7.17082 16.2136 7.43429 16.2105 7.69124 16.2044C7.94819 16.1982 8.19989 16.1907 8.44634 16.1819C8.69234 16.1729 8.93354 16.1618 9.16994 16.1486C9.40634 16.1354 9.63847 16.1204 9.86632 16.1036C10.0942 16.0865 10.3177 16.0678 10.5382 16.0478C10.7587 16.0277 10.976 16.0073 11.1907 15.9857C11.4053 15.9641 11.6182 15.9407 11.8265 15.9182C12.0349 15.8957 12.2421 15.8698 12.448 15.8444C12.6538 15.8189 12.8586 15.7931 13.0622 15.7661C13.2658 15.7391 13.4672 15.7107 13.6697 15.6812C13.8722 15.6518 14.0709 15.6203 14.2729 15.5892C14.475 15.5582 14.6779 15.5269 14.8804 15.4947C15.0829 15.4625 15.2875 15.4301 15.492 15.3957C15.6965 15.3613 15.9019 15.3253 16.1107 15.2897C16.3195 15.2542 16.5301 15.2175 16.7439 15.1806C16.9576 15.1437 17.1739 15.1066 17.3928 15.0681C17.6117 15.0296 17.834 14.99 18.0604 14.952C18.2867 14.914 18.5173 14.8766 18.7518 14.8411C18.9862 14.8055 19.2018 14.7736 19.4943 14.7367C19.8131 14.6912 20.1353 14.6741 20.4571 14.6854C20.7599 14.7045 21 14.7812 21 14.9925V10.29C21.0083 9.17266 14.3341 11.4587 7.42822 11.5102Z" fill="url(#paint3_linear_927_5714)"/>
<path d="M9.42734 14.9396C9.28061 14.7969 9.16407 14.6261 9.08467 14.4374C9.00101 14.2386 8.95823 14.025 8.95889 13.8092C8.95908 13.5895 9.00179 13.3718 9.08467 13.1682C9.16583 12.9686 9.28186 12.785 9.42734 12.626C9.57375 12.4658 9.74649 12.3318 9.93809 12.23C10.1333 12.1255 10.3457 12.0569 10.5652 12.0275C10.3743 11.9782 10.1766 11.9611 9.98017 11.9768C9.74052 11.9953 9.50642 12.0584 9.28987 12.1627C9.07958 12.264 8.88909 12.4021 8.72737 12.5704C8.56585 12.7375 8.4369 12.9332 8.34712 13.1475C8.25513 13.3669 8.20771 13.6024 8.20762 13.8403C8.20692 14.075 8.25432 14.3074 8.34689 14.5232C8.43516 14.7292 8.5642 14.9153 8.72624 15.0701C8.8881 15.2243 9.08006 15.3434 9.29009 15.42C9.51105 15.4993 9.7464 15.5305 9.98039 15.5116C10.1825 15.495 10.3803 15.4442 10.5654 15.3613C10.3519 15.3728 10.1384 15.3399 9.93832 15.2648C9.7476 15.1924 9.57371 15.0817 9.42734 14.9396Z" fill="url(#paint4_linear_927_5714)"/>
<path d="M10.0504 13.3018L9.95879 13.0114L9.86744 13.3156C9.74819 13.3246 9.68744 13.3282 9.56909 13.336C9.66584 13.4035 9.71444 13.4362 9.81097 13.5023L9.71804 13.8061C9.81434 13.7253 9.86272 13.6852 9.95879 13.6036C10.0553 13.6711 10.1032 13.7026 10.1995 13.7683L10.1071 13.4791C10.2036 13.3981 10.2517 13.3572 10.3483 13.2766C10.2292 13.287 10.1696 13.2917 10.0504 13.3018Z" fill="url(#paint5_linear_927_5714)"/>
<path d="M11.9401 13.1178L11.849 12.8304L11.7572 13.138C11.6384 13.1511 11.5786 13.1574 11.4593 13.1695C11.5561 13.233 11.6044 13.264 11.7007 13.327L11.6083 13.6344L11.849 13.4238L12.0889 13.5799L11.9966 13.2935L12.2371 13.0822C12.1181 13.0966 12.0589 13.1038 11.9401 13.1178Z" fill="url(#paint6_linear_927_5714)"/>
<path d="M11.053 12.6948L11.2949 12.4878C11.1754 12.5002 11.1149 12.5058 10.9963 12.5179L10.9045 12.2295L10.8129 12.5355C10.6934 12.5465 10.6329 12.5521 10.5146 12.5625L10.7562 12.7231L10.6637 13.0289L10.9045 12.8219L11.1459 12.9826L11.053 12.6948Z" fill="url(#paint7_linear_927_5714)"/>
<path d="M10.3125 14.1013L10.2212 14.4064C10.1021 14.4158 10.0425 14.4208 9.92303 14.4289C10.0198 14.495 10.0679 14.5274 10.1647 14.5927L10.072 14.8975L10.3125 14.6932C10.4088 14.7587 10.4572 14.7911 10.5533 14.8559C10.5164 14.7407 10.4979 14.6827 10.4606 14.5672C10.5571 14.4849 10.605 14.4446 10.7018 14.3623C10.5825 14.3735 10.5231 14.3791 10.4039 14.3899C10.3732 14.2938 10.3428 14.1975 10.3125 14.1013Z" fill="url(#paint8_linear_927_5714)"/>
<path d="M11.5869 14.2756L11.4955 13.9881C11.4589 14.1112 11.4402 14.1717 11.4037 14.295C11.2843 14.3069 11.2237 14.3132 11.1052 14.3242C11.2019 14.3881 11.2505 14.4194 11.3473 14.4831L11.2543 14.7895L11.4955 14.5805C11.5918 14.6437 11.64 14.6759 11.7361 14.738L11.6434 14.4514C11.7399 14.3679 11.7883 14.3251 11.8846 14.2414L11.5869 14.2756Z" fill="url(#paint9_linear_927_5714)"/>
<defs>
<linearGradient id="paint0_linear_927_5714" x1="6.90083" y1="19.7263" x2="21" y2="19.7263" gradientUnits="userSpaceOnUse">
<stop stop-color="#808080"/>
<stop offset="0.327" stop-color="#838383"/>
<stop offset="0.59" stop-color="#8D8D8D"/>
<stop offset="0.83" stop-color="#9E9E9E"/>
<stop offset="1" stop-color="#AFAFAF"/>
</linearGradient>
<linearGradient id="paint1_linear_927_5714" x1="13.9505" y1="18.4553" x2="13.9505" y2="21" gradientUnits="userSpaceOnUse">
<stop offset="0.35" stop-color="#DFDFDF"/>
<stop offset="0.645" stop-color="#DDDDDD"/>
<stop offset="0.752" stop-color="#D6D6D6"/>
<stop offset="0.828" stop-color="#CBCBCB"/>
<stop offset="0.889" stop-color="#BABABA"/>
<stop offset="0.941" stop-color="#A4A4A4"/>
<stop offset="0.987" stop-color="#898989"/>
<stop offset="1" stop-color="#808080"/>
</linearGradient>
<linearGradient id="paint2_linear_927_5714" x1="6.90082" y1="15.4457" x2="21" y2="15.4457" gradientUnits="userSpaceOnUse">
<stop stop-color="#DFDFDF"/>
<stop offset="0.021" stop-color="#E1E1E1"/>
<stop offset="0.244" stop-color="#F2F2F2"/>
<stop offset="0.487" stop-color="#FCFCFC"/>
<stop offset="0.791" stop-color="white"/>
<stop offset="0.841" stop-color="#FCFCFC"/>
<stop offset="0.882" stop-color="#F2F2F2"/>
<stop offset="0.919" stop-color="#E1E1E1"/>
<stop offset="0.954" stop-color="#C9C9C9"/>
<stop offset="0.966" stop-color="#BFBFBF"/>
<stop offset="1" stop-color="white"/>
</linearGradient>
<linearGradient id="paint3_linear_927_5714" x1="6.90082" y1="13.098" x2="21" y2="13.098" gradientUnits="userSpaceOnUse">
<stop stop-color="#CF2000"/>
<stop offset="0.021" stop-color="#D12201"/>
<stop offset="0.244" stop-color="#E23309"/>
<stop offset="0.487" stop-color="#EC3D0E"/>
<stop offset="0.791" stop-color="#EF4010"/>
<stop offset="0.841" stop-color="#EC3D0F"/>
<stop offset="0.882" stop-color="#E2330D"/>
<stop offset="0.919" stop-color="#D12208"/>
<stop offset="0.954" stop-color="#B90A03"/>
<stop offset="0.966" stop-color="#AF0000"/>
<stop offset="1" stop-color="#EF4010"/>
</linearGradient>
<linearGradient id="paint4_linear_927_5714" x1="6.90082" y1="13.7438" x2="21.0002" y2="13.7438" gradientUnits="userSpaceOnUse">
<stop stop-color="#DFDFDF"/>
<stop offset="0.021" stop-color="#E1E1E1"/>
<stop offset="0.244" stop-color="#F2F2F2"/>
<stop offset="0.487" stop-color="#FCFCFC"/>
<stop offset="0.791" stop-color="white"/>
<stop offset="0.841" stop-color="#FCFCFC"/>
<stop offset="0.882" stop-color="#F2F2F2"/>
<stop offset="0.919" stop-color="#E1E1E1"/>
<stop offset="0.954" stop-color="#C9C9C9"/>
<stop offset="0.966" stop-color="#BFBFBF"/>
<stop offset="1" stop-color="white"/>
</linearGradient>
<linearGradient id="paint5_linear_927_5714" x1="6.90104" y1="13.4087" x2="20.9995" y2="13.4087" gradientUnits="userSpaceOnUse">
<stop stop-color="#DFDFDF"/>
<stop offset="0.021" stop-color="#E1E1E1"/>
<stop offset="0.244" stop-color="#F2F2F2"/>
<stop offset="0.487" stop-color="#FCFCFC"/>
<stop offset="0.791" stop-color="white"/>
<stop offset="0.841" stop-color="#FCFCFC"/>
<stop offset="0.882" stop-color="#F2F2F2"/>
<stop offset="0.919" stop-color="#E1E1E1"/>
<stop offset="0.954" stop-color="#C9C9C9"/>
<stop offset="0.966" stop-color="#BFBFBF"/>
<stop offset="1" stop-color="white"/>
</linearGradient>
<linearGradient id="paint6_linear_927_5714" x1="6.90082" y1="13.2323" x2="21" y2="13.2323" gradientUnits="userSpaceOnUse">
<stop stop-color="#DFDFDF"/>
<stop offset="0.021" stop-color="#E1E1E1"/>
<stop offset="0.244" stop-color="#F2F2F2"/>
<stop offset="0.487" stop-color="#FCFCFC"/>
<stop offset="0.791" stop-color="white"/>
<stop offset="0.841" stop-color="#FCFCFC"/>
<stop offset="0.882" stop-color="#F2F2F2"/>
<stop offset="0.919" stop-color="#E1E1E1"/>
<stop offset="0.954" stop-color="#C9C9C9"/>
<stop offset="0.966" stop-color="#BFBFBF"/>
<stop offset="1" stop-color="white"/>
</linearGradient>
<linearGradient id="paint7_linear_927_5714" x1="6.90038" y1="12.6291" x2="21.0014" y2="12.6291" gradientUnits="userSpaceOnUse">
<stop stop-color="#DFDFDF"/>
<stop offset="0.021" stop-color="#E1E1E1"/>
<stop offset="0.244" stop-color="#F2F2F2"/>
<stop offset="0.487" stop-color="#FCFCFC"/>
<stop offset="0.791" stop-color="white"/>
<stop offset="0.841" stop-color="#FCFCFC"/>
<stop offset="0.882" stop-color="#F2F2F2"/>
<stop offset="0.919" stop-color="#E1E1E1"/>
<stop offset="0.954" stop-color="#C9C9C9"/>
<stop offset="0.966" stop-color="#BFBFBF"/>
<stop offset="1" stop-color="white"/>
</linearGradient>
<linearGradient id="paint8_linear_927_5714" x1="6.90083" y1="14.4997" x2="20.9998" y2="14.4997" gradientUnits="userSpaceOnUse">
<stop stop-color="#DFDFDF"/>
<stop offset="0.021" stop-color="#E1E1E1"/>
<stop offset="0.244" stop-color="#F2F2F2"/>
<stop offset="0.487" stop-color="#FCFCFC"/>
<stop offset="0.791" stop-color="white"/>
<stop offset="0.841" stop-color="#FCFCFC"/>
<stop offset="0.882" stop-color="#F2F2F2"/>
<stop offset="0.919" stop-color="#E1E1E1"/>
<stop offset="0.954" stop-color="#C9C9C9"/>
<stop offset="0.966" stop-color="#BFBFBF"/>
<stop offset="1" stop-color="white"/>
</linearGradient>
<linearGradient id="paint9_linear_927_5714" x1="6.90081" y1="14.3888" x2="20.9995" y2="14.3888" gradientUnits="userSpaceOnUse">
<stop stop-color="#DFDFDF"/>
<stop offset="0.021" stop-color="#E1E1E1"/>
<stop offset="0.244" stop-color="#F2F2F2"/>
<stop offset="0.487" stop-color="#FCFCFC"/>
<stop offset="0.791" stop-color="white"/>
<stop offset="0.841" stop-color="#FCFCFC"/>
<stop offset="0.882" stop-color="#F2F2F2"/>
<stop offset="0.919" stop-color="#E1E1E1"/>
<stop offset="0.954" stop-color="#C9C9C9"/>
<stop offset="0.966" stop-color="#BFBFBF"/>
<stop offset="1" stop-color="white"/>
</linearGradient>
</defs>
</svg>
