<svg width="24" height="24" viewBox="0 0 24 24" fill="none" xmlns="http://www.w3.org/2000/svg">
<circle cx="12.0002" cy="12" r="12" fill="#121212"/>
<path d="M14.6036 18.9035C14.3014 18.9037 13.9994 18.8842 13.6998 18.8451C12.9544 18.7511 12.2351 18.513 11.5829 18.1444C10.9308 17.7758 10.3585 17.284 9.89883 16.6969C9.43917 16.1099 9.10107 15.4391 8.90391 14.723C8.70674 14.0069 8.65435 13.2594 8.74973 12.5233C8.90926 11.3076 9.55041 10.204 10.5326 9.45454C11.5147 8.70503 12.7578 8.37076 13.9891 8.52506C15.0016 8.65404 15.9209 9.17449 16.5453 9.97219C17.1696 10.7699 17.4481 11.7797 17.3194 12.7799C17.2665 13.1898 17.1323 13.5855 16.9244 13.9442C16.7166 14.3029 16.4392 14.6177 16.1082 14.8704C15.7771 15.1232 15.3989 15.3091 14.995 15.4174C14.5912 15.5257 14.1697 15.5543 13.7547 15.5017C13.4089 15.4582 13.0752 15.3478 12.7727 15.1768C12.4702 15.0059 12.2047 14.7777 11.9915 14.5054C11.7783 14.233 11.6216 13.9218 11.5302 13.5896C11.4389 13.2574 11.4147 12.9107 11.4592 12.5692C11.4962 12.2824 11.5901 12.0056 11.7355 11.7546C11.8809 11.5036 12.0749 11.2834 12.3066 11.1066C12.5382 10.9297 12.8028 10.7997 13.0854 10.7239C13.3679 10.6482 13.6628 10.6281 13.9532 10.665C14.4486 10.7305 14.8979 10.9862 15.2038 11.3765C15.5098 11.7669 15.6477 12.2606 15.5877 12.7507C15.579 12.8192 15.5567 12.8853 15.5221 12.9452C15.4875 13.0052 15.4412 13.0578 15.386 13.1001C15.3308 13.1425 15.2677 13.1736 15.2004 13.1918C15.1329 13.2101 15.0626 13.215 14.9933 13.2064C14.9239 13.1978 14.857 13.1758 14.7963 13.1416C14.7356 13.1074 14.6823 13.0617 14.6394 13.0072C14.5966 12.9527 14.565 12.8904 14.5466 12.8238C14.5281 12.7573 14.5231 12.6877 14.5318 12.6193C14.5571 12.4029 14.4957 12.1854 14.3608 12.0131C14.2258 11.8408 14.028 11.7275 13.8096 11.6974C13.5011 11.6596 13.1901 11.7439 12.9444 11.9318C12.6986 12.1198 12.5382 12.3962 12.4982 12.7006C12.4715 12.9063 12.4862 13.1152 12.5413 13.3153C12.5963 13.5154 12.6908 13.7028 12.8193 13.8669C12.9477 14.031 13.1076 14.1684 13.2899 14.2714C13.4721 14.3744 13.6731 14.4409 13.8814 14.4672C14.1588 14.5026 14.4405 14.4836 14.7104 14.4113C14.9803 14.339 15.2332 14.2148 15.4545 14.0459C15.6757 13.8769 15.8611 13.6666 15.9999 13.4268C16.1387 13.187 16.2283 12.9225 16.2635 12.6485C16.3569 11.9223 16.1547 11.1892 15.7014 10.6101C15.248 10.031 14.5806 9.65318 13.8455 9.55957C12.8919 9.44016 11.9293 9.6992 11.1687 10.2798C10.4082 10.8605 9.91194 11.7153 9.78873 12.6568C9.63259 13.8687 9.96991 15.0922 10.7266 16.0585C11.4833 17.0249 12.5975 17.6551 13.8244 17.8106C14.6018 17.9097 15.3914 17.8566 16.148 17.6541C16.9046 17.4516 17.6134 17.1038 18.2338 16.6306C18.8542 16.1573 19.374 15.5679 19.7635 14.8961C20.1531 14.2243 20.4047 13.4832 20.504 12.7152C20.6305 11.7393 20.5611 10.7484 20.2998 9.79895C20.0385 8.84953 19.5904 7.96026 18.9811 7.18188C18.3719 6.4035 17.6133 5.75126 16.7488 5.26242C15.8843 4.77356 14.9308 4.45768 13.9426 4.33282C11.4718 4.02204 9.25866 4.72074 7.546 6.35386C5.92623 7.89727 4.8471 10.2061 4.505 12.8508C4.49625 12.9193 4.47395 12.9854 4.43934 13.0453C4.40473 13.1053 4.35853 13.1579 4.30333 13.2002C4.24812 13.2426 4.18503 13.2737 4.11762 13.292C4.05023 13.3102 3.97984 13.3151 3.91052 13.3065C3.84119 13.2979 3.77424 13.2759 3.71353 13.2417C3.65284 13.2075 3.59953 13.1619 3.55669 13.1073C3.51384 13.0528 3.48228 12.9905 3.46382 12.9239C3.44536 12.8574 3.44035 12.7879 3.44909 12.7194C3.82078 9.83905 5.01393 7.31119 6.80262 5.60507C8.75604 3.74255 11.267 2.94582 14.0672 3.29831C16.3404 3.5859 18.4049 4.75328 19.8067 6.54381C21.2086 8.33434 21.8331 10.6014 21.543 12.8466C21.3248 14.5156 20.4997 16.0493 19.2215 17.1621C17.9433 18.2748 16.2991 18.8908 14.5952 18.8951L14.6036 18.9035Z" fill="#FF36FF"/>
<path d="M1.42391 13.0135H1.369C1.31394 13.0066 1.2608 12.989 1.21263 12.9617C1.16446 12.9345 1.1222 12.8981 1.08827 12.8547C1.05434 12.8113 1.0294 12.7618 1.01488 12.7088C1.00036 12.6559 0.996554 12.6007 1.00366 12.5463C1.03534 12.3002 1.07335 12.0499 1.11558 11.808C1.12279 11.7522 1.14134 11.6984 1.17013 11.6499C1.19892 11.6014 1.23734 11.5591 1.28309 11.5256C1.32884 11.4922 1.38097 11.4682 1.43635 11.4551C1.49173 11.442 1.54922 11.4401 1.60535 11.4496C1.66149 11.459 1.7151 11.4795 1.76299 11.5099C1.81088 11.5404 1.85206 11.58 1.88404 11.6266C1.91601 11.6731 1.93812 11.7256 1.94905 11.7807C1.95998 11.8359 1.9595 11.8927 1.94763 11.9477C1.90751 12.1792 1.87161 12.417 1.84204 12.6527C1.82826 12.7526 1.77832 12.8442 1.70145 12.9105C1.62457 12.9768 1.52599 13.0134 1.42391 13.0135Z" fill="#20FF93"/>
<path d="M2.19046 9.71811C2.14367 9.7188 2.09714 9.71104 2.05319 9.69516C2.00061 9.67752 1.95206 9.64984 1.91032 9.61365C1.86859 9.57749 1.83448 9.53354 1.80996 9.48433C1.78545 9.43513 1.771 9.38164 1.76744 9.3269C1.76388 9.27219 1.77127 9.2173 1.78921 9.1654C1.81244 9.09864 1.83568 9.03399 1.86102 8.95683C1.87765 8.90274 1.90523 8.85253 1.94211 8.8093C1.97898 8.76605 2.02437 8.73066 2.07551 8.70528C2.12666 8.67988 2.1825 8.66503 2.23963 8.66162C2.29677 8.6582 2.354 8.6663 2.40788 8.68539C2.46175 8.70451 2.51114 8.73423 2.55303 8.77275C2.59491 8.81129 2.62844 8.85783 2.65155 8.90954C2.67467 8.96125 2.6869 9.01707 2.6875 9.0736C2.6881 9.13015 2.67705 9.1862 2.65505 9.23838L2.58958 9.4261C2.56281 9.51018 2.50978 9.58372 2.43808 9.63616C2.36637 9.68862 2.27969 9.7173 2.19046 9.71811ZM2.80922 8.20388C2.74716 8.20385 2.68587 8.19032 2.62971 8.16425C2.57878 8.14172 2.53287 8.10946 2.49465 8.06931C2.45642 8.02916 2.42664 7.98193 2.407 7.93035C2.38737 7.87876 2.37828 7.82385 2.38026 7.76877C2.38224 7.7137 2.39523 7.65953 2.41852 7.60945C2.81153 6.7814 3.28916 5.99519 3.84399 5.26306C3.8757 5.21544 3.91696 5.17472 3.96523 5.14347C4.01347 5.1122 4.06772 5.09104 4.12458 5.08129C4.18144 5.07153 4.23972 5.0734 4.29583 5.08674C4.35194 5.10009 4.40468 5.12467 4.4508 5.15894C4.49693 5.19322 4.53545 5.23644 4.56398 5.28598C4.59251 5.33552 4.61046 5.39033 4.61675 5.44699C4.62301 5.50366 4.61745 5.56099 4.6004 5.61544C4.58335 5.66989 4.55521 5.72034 4.51765 5.76361C3.99873 6.45073 3.55155 7.18795 3.183 7.96403C3.14953 8.03447 3.09681 8.09425 3.03076 8.13662C2.96471 8.17902 2.88797 8.2023 2.80922 8.20388Z" fill="#20FF93"/>
<path d="M13.7547 19.8858H13.7082L13.4971 19.8629C13.385 19.8493 13.283 19.7924 13.2136 19.7046C13.1441 19.6168 13.1127 19.5053 13.1264 19.3947C13.1402 19.284 13.1978 19.1833 13.2867 19.1147C13.3756 19.046 13.4885 19.0151 13.6005 19.0286L13.7948 19.0495C13.9068 19.0547 14.0121 19.1037 14.0876 19.1857C14.163 19.2676 14.2024 19.3758 14.1971 19.4864C14.1918 19.597 14.1422 19.7011 14.0592 19.7756C13.9763 19.8501 13.8667 19.889 13.7547 19.8837V19.8858ZM16.4219 19.7002C16.3191 19.6994 16.2202 19.6616 16.1436 19.5939C16.067 19.5262 16.0181 19.4333 16.0059 19.3325C15.9937 19.2317 16.0192 19.13 16.0775 19.0464C16.1358 18.9628 16.223 18.9031 16.3227 18.8784C16.7672 18.7718 17.2012 18.6259 17.6193 18.4425C17.6487 18.4281 17.68 18.4176 17.7122 18.4112C17.7385 18.3917 17.7668 18.3749 17.7967 18.3612C18.5643 17.9989 19.2652 17.5125 19.8705 16.9221C19.9509 16.8503 20.0563 16.8119 20.1647 16.8147C20.273 16.8175 20.3762 16.8614 20.4527 16.9372C20.5292 17.0131 20.5733 17.1151 20.5758 17.2222C20.5783 17.3292 20.539 17.4331 20.466 17.5123C19.7936 18.168 19.0148 18.708 18.162 19.11C18.1289 19.1248 18.0942 19.136 18.0585 19.1433C18.0302 19.166 17.9989 19.1849 17.9656 19.1996C17.5012 19.4038 17.0192 19.5664 16.5254 19.6856C16.4916 19.6947 16.4569 19.6996 16.4219 19.7002ZM12.1434 19.5334C12.0944 19.533 12.0459 19.5245 11.9998 19.5083C11.0978 19.1877 10.2751 18.6815 9.586 18.0233C9.55878 17.9982 9.53532 17.9694 9.51631 17.9378C9.48467 17.9185 9.45557 17.8954 9.42973 17.869C9.07085 17.5052 8.75425 17.1029 8.48577 16.6697C8.42751 16.5751 8.40969 16.4615 8.43623 16.354C8.46274 16.2464 8.53148 16.1537 8.62724 16.0961C8.723 16.0386 8.83799 16.021 8.94692 16.0472C9.05583 16.0734 9.14973 16.1413 9.20798 16.2359C9.4432 16.6164 9.72087 16.9697 10.0358 17.2892C10.0689 17.3441 10.1154 17.3899 10.171 17.4226C10.7737 17.9992 11.4935 18.4429 12.2828 18.7241C12.3761 18.7576 12.4545 18.8224 12.5042 18.9073C12.554 18.9922 12.5718 19.0916 12.5547 19.1882C12.5375 19.2848 12.4865 19.3724 12.4105 19.4355C12.3345 19.4986 12.2385 19.5332 12.1392 19.5334H12.1434ZM21.0996 16.5466C21.0132 16.5458 20.9292 16.5189 20.8588 16.4695C20.7674 16.406 20.7052 16.3093 20.6858 16.2007C20.6664 16.092 20.6914 15.9802 20.7553 15.8896L20.8651 15.7291C20.927 15.6367 21.0235 15.5723 21.1334 15.5503C21.2433 15.5282 21.3576 15.5501 21.4512 15.6112C21.5447 15.6723 21.6098 15.7677 21.6322 15.8762C21.6546 15.9847 21.6324 16.0976 21.5705 16.19C21.5303 16.2505 21.4881 16.3089 21.4459 16.3673C21.4071 16.4225 21.3553 16.4677 21.295 16.4989C21.2347 16.5301 21.1676 16.5465 21.0996 16.5466ZM14.0039 15.7541C13.845 15.7547 13.6863 15.745 13.5287 15.7249C13.3752 15.707 13.2234 15.677 13.0747 15.6352C13.0358 15.6248 12.9988 15.6086 12.9649 15.5872C12.9244 15.5851 12.8844 15.5767 12.8466 15.5622C12.3192 15.3675 11.8571 15.0317 11.5119 14.5924C11.4752 14.5495 11.4475 14.4997 11.4307 14.446C11.4138 14.3924 11.4082 14.3359 11.414 14.28C11.4198 14.2241 11.437 14.1699 11.4645 14.1207C11.492 14.0716 11.5293 14.0284 11.5742 13.9938C11.619 13.9592 11.6704 13.934 11.7254 13.9195C11.7804 13.905 11.8378 13.9017 11.8941 13.9097C11.9504 13.9177 12.0045 13.9368 12.0532 13.9659C12.1018 13.9951 12.144 14.0336 12.1772 14.0793C12.427 14.3975 12.7621 14.6402 13.1444 14.7801C13.1714 14.7905 13.1976 14.803 13.2225 14.8176C13.2519 14.8203 13.2809 14.8259 13.3091 14.8343C13.4163 14.8644 13.5257 14.886 13.6364 14.8989C14.2999 14.9843 14.9726 14.8367 15.5371 14.4818C15.6314 14.4221 15.746 14.4018 15.8555 14.4254C15.965 14.4491 16.0605 14.5148 16.121 14.608C16.1815 14.7012 16.202 14.8143 16.178 14.9225C16.154 15.0306 16.0876 15.1249 15.9932 15.1847C15.3985 15.5577 14.7084 15.7552 14.0039 15.7541ZM7.96201 14.3838C7.85859 14.3846 7.75845 14.3478 7.68059 14.2806C7.60275 14.2133 7.55259 14.1202 7.53966 14.0188C7.53966 13.9479 7.52276 13.8749 7.51431 13.8102C7.50396 13.6996 7.53852 13.5894 7.61041 13.5039C7.68229 13.4185 7.78559 13.3647 7.8976 13.3545C8.00963 13.3443 8.12118 13.3784 8.20771 13.4494C8.29424 13.5204 8.34869 13.6224 8.35904 13.733C8.35904 13.7956 8.37383 13.8582 8.38227 13.9208C8.38938 13.9751 8.38558 14.0303 8.37104 14.0833C8.35653 14.1362 8.33159 14.1858 8.29765 14.2291C8.26374 14.2725 8.22147 14.3089 8.1733 14.3362C8.12513 14.3634 8.072 14.381 8.01693 14.3879L7.96201 14.3838ZM16.7809 14.2357C16.7016 14.2353 16.624 14.2129 16.557 14.171C16.51 14.1419 16.4692 14.1039 16.4371 14.0592C16.4049 14.0145 16.382 13.9639 16.3697 13.9105C16.3573 13.857 16.3558 13.8016 16.3651 13.7476C16.3744 13.6935 16.3944 13.6418 16.424 13.5954C16.4557 13.5453 16.4853 13.4953 16.5148 13.4431C16.5413 13.3949 16.5771 13.3523 16.6203 13.3178C16.6634 13.2833 16.7131 13.2575 16.7663 13.2419C16.8195 13.2263 16.8754 13.2212 16.9306 13.2269C16.9858 13.2327 17.0394 13.2491 17.0882 13.2752C17.137 13.3014 17.1801 13.3368 17.2151 13.3794C17.25 13.422 17.2761 13.471 17.2919 13.5236C17.3077 13.5762 17.3129 13.6313 17.3071 13.6858C17.3013 13.7404 17.2847 13.7933 17.2582 13.8415C17.2202 13.9082 17.18 13.975 17.1399 14.05C17.1006 14.1083 17.0472 14.1557 16.9844 14.1882C16.9217 14.2206 16.8517 14.2369 16.7809 14.2357ZM22.3012 13.9666C22.2663 13.9666 22.2315 13.9624 22.1977 13.9541C22.1439 13.9407 22.0933 13.917 22.0487 13.8843C22.0042 13.8515 21.9667 13.8105 21.9382 13.7634C21.9098 13.7163 21.891 13.6642 21.883 13.6099C21.875 13.5557 21.8778 13.5004 21.8915 13.4473C21.9681 13.15 22.0267 12.8484 22.0667 12.5442C22.0851 12.4051 22.0998 12.2591 22.1111 12.1062C22.1149 12.0736 22.1219 12.0414 22.1322 12.0103C22.1279 11.9777 22.1279 11.9448 22.1322 11.9122C22.1449 11.7183 22.1512 11.5222 22.1512 11.3282C22.1487 10.6748 22.078 10.0234 21.94 9.38436C21.9261 9.32996 21.9235 9.27333 21.9323 9.2179C21.941 9.16246 21.9611 9.10935 21.9911 9.06173C22.0212 9.0141 22.0606 8.97295 22.1071 8.94074C22.1537 8.90854 22.2063 8.88593 22.2619 8.87429C22.3175 8.86265 22.3748 8.86218 22.4306 8.87294C22.4864 8.8837 22.5393 8.90546 22.5864 8.93691C22.6334 8.9684 22.6736 9.00888 22.7044 9.05604C22.7352 9.10317 22.7561 9.15597 22.7658 9.21125C22.9173 9.90498 22.9958 10.6123 23.0002 11.322C23.0002 11.5306 23.0002 11.7391 22.979 11.9477C22.9772 11.9838 22.9708 12.0195 22.96 12.054C22.9654 12.0893 22.9654 12.1252 22.96 12.1604C22.9474 12.3189 22.9305 12.4774 22.9093 12.636C22.8657 12.9739 22.8015 13.3089 22.7172 13.6392C22.6964 13.7326 22.6437 13.8161 22.5679 13.8757C22.4922 13.9353 22.398 13.9674 22.3012 13.9666ZM7.96625 12.7611H7.91133C7.85629 12.7541 7.80313 12.7366 7.75496 12.7093C7.70679 12.6821 7.66455 12.6457 7.63061 12.6023C7.59667 12.5589 7.57173 12.5093 7.55722 12.4564C7.54271 12.4035 7.53888 12.3483 7.54599 12.2939C7.67221 11.3386 8.05094 10.4329 8.64413 9.66803C8.66765 9.63921 8.6946 9.61329 8.7244 9.59084C8.73995 9.5561 8.76059 9.52376 8.78563 9.49489C9.12039 9.0988 9.50997 8.75123 9.94288 8.46249C9.98869 8.42912 10.0408 8.40524 10.0962 8.39228C10.1516 8.37932 10.209 8.37756 10.2651 8.38708C10.3212 8.3966 10.3748 8.41719 10.4226 8.44767C10.4704 8.47814 10.5115 8.51785 10.5434 8.56441C10.5753 8.61095 10.5973 8.66338 10.6082 8.71856C10.619 8.77371 10.6185 8.83049 10.6066 8.88544C10.5947 8.94041 10.5717 8.99243 10.5389 9.03837C10.5062 9.08431 10.4643 9.12327 10.4159 9.15286C10.0481 9.39809 9.71749 9.69374 9.43394 10.0309C9.41281 10.0546 9.38948 10.0762 9.36425 10.0956C9.35044 10.124 9.33419 10.1512 9.3157 10.1769C8.81222 10.8248 8.49094 11.5925 8.38439 12.4024C8.36876 12.5007 8.31801 12.5904 8.24134 12.655C8.16464 12.7196 8.06706 12.7551 7.96625 12.7548V12.7611ZM11.4718 12.2501C11.4129 12.2502 11.3547 12.2381 11.3008 12.2146C11.199 12.1691 11.1196 12.0856 11.08 11.9824C11.0404 11.8792 11.0439 11.7647 11.0896 11.664C11.1227 11.589 11.16 11.5159 11.2015 11.445C11.2293 11.3975 11.2662 11.3558 11.3102 11.3224C11.3543 11.289 11.4045 11.2645 11.4582 11.2502C11.5118 11.236 11.5677 11.2323 11.6228 11.2395C11.6779 11.2466 11.731 11.2643 11.7791 11.2917C11.8272 11.3191 11.8694 11.3556 11.9032 11.3991C11.9371 11.4426 11.9619 11.4922 11.9763 11.5452C11.9907 11.5982 11.9944 11.6534 11.9873 11.7078C11.98 11.7622 11.9621 11.8146 11.9343 11.8622C11.909 11.908 11.8836 11.9581 11.8604 12.0082C11.8253 12.08 11.77 12.1405 11.7011 12.1823C11.6322 12.224 11.5526 12.2454 11.4718 12.2438V12.2501ZM14.9542 11.9414C14.8758 11.9416 14.799 11.9202 14.7322 11.8797C14.6655 11.8392 14.6114 11.7811 14.5762 11.712C14.4833 11.529 14.3463 11.3713 14.1773 11.2528C14.0083 11.1342 13.8124 11.0585 13.6069 11.0321C13.332 10.9968 13.0525 11.0297 12.7938 11.128C12.742 11.1477 12.6867 11.1572 12.6311 11.1558C12.5756 11.1544 12.5208 11.1422 12.4701 11.1199C12.4193 11.0977 12.3734 11.0657 12.3351 11.026C12.2968 10.9862 12.2668 10.9394 12.2469 10.8881C12.2269 10.8369 12.2173 10.7823 12.2187 10.7275C12.2201 10.6726 12.2325 10.6185 12.255 10.5684C12.2776 10.5182 12.3099 10.4729 12.3502 10.4351C12.3905 10.3973 12.4379 10.3677 12.4897 10.348C12.7777 10.2393 13.0832 10.1835 13.3915 10.1832C13.4995 10.1838 13.6074 10.1908 13.7146 10.204C14.0577 10.2478 14.3846 10.3742 14.6667 10.5721C14.9488 10.7699 15.1773 11.0331 15.3322 11.3387C15.382 11.4377 15.3899 11.5522 15.3543 11.657C15.3187 11.7618 15.2424 11.8483 15.1422 11.8976C15.0835 11.9249 15.019 11.9378 14.9542 11.9352V11.9414ZM17.1822 11.4847C17.0851 11.4872 16.9901 11.4567 16.9132 11.3982C16.8363 11.3397 16.7821 11.2568 16.7598 11.1635C16.6608 10.746 16.4878 10.3492 16.2487 9.99131C16.2299 9.96655 16.2149 9.93913 16.2044 9.90995C16.1806 9.88954 16.1593 9.86644 16.141 9.84114C15.6599 9.19712 14.9781 8.72676 14.2003 8.50212C14.0965 8.46828 14.01 8.39606 13.9591 8.30058C13.9081 8.2051 13.8965 8.09384 13.9269 7.99013C13.9573 7.88645 14.0271 7.79842 14.1218 7.74454C14.2165 7.69066 14.3286 7.67513 14.4347 7.70121C15.3919 7.97655 16.231 8.55471 16.8232 9.34682C16.8455 9.37784 16.864 9.41147 16.878 9.44693C16.9065 9.472 16.9313 9.50077 16.952 9.53245C17.2476 9.97144 17.462 10.4587 17.5855 10.9716C17.5984 11.025 17.6004 11.0804 17.5915 11.1346C17.5827 11.1888 17.5631 11.2407 17.5338 11.2874C17.5046 11.3341 17.4663 11.3747 17.4212 11.4067C17.3761 11.4388 17.325 11.4617 17.2709 11.4742C17.2414 11.4781 17.2118 11.4795 17.1822 11.4784V11.4847ZM12.6904 8.35612C12.6349 8.35803 12.5796 8.34913 12.5276 8.32994C12.4756 8.31074 12.428 8.28164 12.3874 8.24426C12.3468 8.20688 12.314 8.16198 12.291 8.1121C12.268 8.06223 12.2551 8.00834 12.2532 7.95358C12.2513 7.89879 12.2603 7.84418 12.2797 7.79283C12.2991 7.74149 12.3286 7.69443 12.3665 7.65434C12.4043 7.61424 12.4498 7.5819 12.5003 7.55917C12.5508 7.53643 12.6053 7.52375 12.6608 7.52184L12.8846 7.51141C12.9401 7.50976 12.9953 7.51894 13.0472 7.53837C13.0991 7.55782 13.1466 7.58716 13.187 7.62474C13.2274 7.6623 13.2599 7.70737 13.2827 7.75734C13.3054 7.80732 13.318 7.86126 13.3197 7.91602C13.3213 7.97081 13.312 8.02539 13.2924 8.07661C13.2727 8.12786 13.243 8.17476 13.2049 8.21467C13.1669 8.25456 13.1212 8.28666 13.0706 8.30914C13.02 8.33162 12.9654 8.34404 12.91 8.34569H12.7199L12.6904 8.35612ZM21.9443 8.33527C21.8581 8.33496 21.774 8.3086 21.7034 8.25976C21.6329 8.21092 21.5791 8.14193 21.5493 8.06202C21.5261 8.00154 21.5029 7.94106 21.4775 7.88058C21.4364 7.77742 21.4384 7.66233 21.4832 7.56062C21.5279 7.45893 21.6117 7.37894 21.7162 7.3383C21.8206 7.29764 21.9372 7.29963 22.0401 7.34384C22.1431 7.38802 22.2241 7.47083 22.2653 7.57399L22.3413 7.78254C22.3802 7.88627 22.3758 8.001 22.3291 8.10152C22.2823 8.20205 22.1971 8.28012 22.0921 8.31858C22.0441 8.33214 21.9941 8.33775 21.9443 8.33527ZM20.5695 5.83243C20.5039 5.83243 20.4392 5.81735 20.3806 5.78838C20.3219 5.75943 20.2709 5.71737 20.2316 5.66558C19.9552 5.29706 19.6524 4.94856 19.3256 4.62272C19.301 4.59926 19.2797 4.57259 19.2623 4.54346C19.2336 4.52776 19.2073 4.5081 19.1841 4.48508C18.5647 3.89639 17.8679 3.3927 17.1125 2.98753C17.0637 2.96138 17.0205 2.92598 16.9856 2.88337C16.9506 2.84075 16.9245 2.79176 16.9087 2.73917C16.8929 2.68659 16.8878 2.63145 16.8936 2.5769C16.8994 2.52236 16.916 2.46947 16.9425 2.42127C16.9689 2.37306 17.0048 2.33048 17.0479 2.29595C17.0911 2.26142 17.1407 2.23563 17.1939 2.22004C17.2472 2.20445 17.303 2.19937 17.3582 2.20509C17.4134 2.21081 17.467 2.22721 17.5158 2.25337C18.3369 2.69495 19.0947 3.24276 19.7691 3.88229C19.7952 3.90788 19.8179 3.93659 19.8367 3.96781C19.8682 3.98559 19.8973 4.00731 19.9233 4.03246C20.278 4.38427 20.6069 4.76065 20.9074 5.15874C20.9406 5.20256 20.9649 5.25244 20.9786 5.30549C20.9924 5.35857 20.9954 5.41378 20.9876 5.46802C20.9798 5.52224 20.9612 5.57442 20.9329 5.62155C20.9047 5.66868 20.8673 5.70986 20.8229 5.74274C20.7529 5.79745 20.6671 5.82886 20.5779 5.83243H20.5695ZM4.3086 5.76776C4.21457 5.76794 4.12315 5.7371 4.04886 5.68017C4.00514 5.64636 3.96861 5.60437 3.94132 5.55662C3.91406 5.50887 3.89659 5.45625 3.88992 5.40182C3.88327 5.3474 3.88751 5.29219 3.90247 5.2394C3.91742 5.18657 3.94277 5.13722 3.97704 5.0941C4.28397 4.70405 4.61625 4.33411 4.97171 3.98657C5.01108 3.94797 5.0578 3.91737 5.10915 3.8966C5.1605 3.8758 5.21547 3.86519 5.27095 3.86538C5.32647 3.86558 5.38138 3.87655 5.43258 3.89771C5.48377 3.91887 5.53026 3.94978 5.56934 3.98866C5.60846 4.02757 5.63942 4.07367 5.66048 4.12439C5.68154 4.1751 5.69227 4.22942 5.69206 4.28424C5.69188 4.33902 5.68076 4.39327 5.65934 4.44384C5.63792 4.49439 5.60662 4.54031 5.56725 4.57893C5.23714 4.90195 4.9282 5.24537 4.64227 5.60717C4.60337 5.65645 4.55375 5.69644 4.4971 5.72425C4.44045 5.75206 4.37821 5.7669 4.31494 5.76776H4.3086ZM7.40028 3.0939C7.30676 3.09455 7.21568 3.06453 7.14128 3.00854C7.06691 2.95255 7.01347 2.87375 6.98931 2.78452C6.96515 2.6953 6.97167 2.60068 7.0078 2.51549C7.04397 2.43031 7.10773 2.35939 7.18912 2.31385L7.37705 2.21166C7.42591 2.18255 7.48021 2.16351 7.53671 2.1557C7.5932 2.14789 7.65074 2.15146 7.70578 2.1662C7.76086 2.18094 7.81231 2.20655 7.85709 2.24148C7.90184 2.27641 7.93899 2.31993 7.96625 2.36942C7.99352 2.41891 8.01036 2.47335 8.01574 2.52945C8.02112 2.58554 8.01494 2.64213 7.99758 2.6958C7.98022 2.74947 7.95202 2.79911 7.9147 2.84172C7.87737 2.88433 7.83168 2.91903 7.78041 2.94373L7.60723 3.03967C7.54599 3.07399 7.47703 3.09263 7.40662 3.0939H7.40028ZM15.9974 2.45777C15.9478 2.45758 15.8985 2.44912 15.8517 2.43274L15.6659 2.36809C15.5597 2.33241 15.4723 2.25654 15.4228 2.15719C15.3733 2.05784 15.3658 1.94314 15.4019 1.83832C15.438 1.73349 15.5148 1.64713 15.6154 1.59824C15.716 1.54935 15.8322 1.54193 15.9383 1.57761L16.1495 1.64852C16.243 1.68203 16.3215 1.74707 16.3712 1.83216C16.4209 1.91725 16.4386 2.01695 16.4212 2.11367C16.4038 2.21039 16.3524 2.29794 16.276 2.36089C16.1996 2.42384 16.1032 2.45815 16.0038 2.45777H15.9974ZM8.89966 2.41188C8.80056 2.41129 8.70482 2.37628 8.62921 2.313C8.55359 2.24972 8.50292 2.16219 8.48605 2.06573C8.46918 1.96928 8.48721 1.87003 8.53696 1.78537C8.5867 1.70071 8.66501 1.63602 8.75816 1.60263C9.64071 1.29105 10.5623 1.10018 11.4972 1.03532C11.5329 1.03007 11.5692 1.03007 11.6049 1.03532C11.6392 1.02487 11.6746 1.01857 11.7105 1.01655C12.2108 0.989877 12.7124 0.995447 13.212 1.03324C13.2674 1.03734 13.3215 1.0522 13.3712 1.07696C13.4208 1.10172 13.4651 1.1359 13.5013 1.17754C13.5376 1.21918 13.5652 1.26747 13.5826 1.31965C13.6 1.37183 13.6068 1.42689 13.6026 1.48167C13.5985 1.53644 13.5834 1.58988 13.5584 1.63891C13.5333 1.68795 13.4987 1.73163 13.4565 1.76746C13.4144 1.80329 13.3655 1.83057 13.3126 1.84774C13.2598 1.8649 13.2041 1.87162 13.1486 1.86751C12.6862 1.83287 12.2221 1.8273 11.759 1.85083C11.7254 1.85511 11.6913 1.85511 11.6577 1.85083C11.6261 1.86096 11.5935 1.86795 11.5605 1.87169C10.7035 1.93259 9.85886 2.108 9.04959 2.39311C9.00318 2.40749 8.9546 2.41384 8.906 2.41188H8.89966Z" fill="#20FF93"/>
<path d="M15.1168 12.8862H15.0619C15.0068 12.8793 14.9537 12.8617 14.9056 12.8344C14.8574 12.8072 14.8151 12.7708 14.7812 12.7274C14.7473 12.6841 14.7223 12.6345 14.7078 12.5816C14.6933 12.5286 14.6895 12.4734 14.6966 12.419C14.7199 12.2375 14.7026 12.0531 14.6459 11.8789C14.6115 11.7735 14.6208 11.6589 14.6719 11.5603C14.723 11.4618 14.8116 11.3873 14.9183 11.3533C15.025 11.3192 15.141 11.3285 15.2408 11.3789C15.3406 11.4294 15.4161 11.5169 15.4505 11.6223C15.546 11.9135 15.5749 12.2219 15.535 12.5254C15.5212 12.6253 15.4713 12.7169 15.3944 12.7832C15.3175 12.8496 15.2189 12.8862 15.1168 12.8862Z" fill="#20FF93"/>
</svg>
