<svg width="24" height="24" viewBox="0 0 24 24" fill="none" xmlns="http://www.w3.org/2000/svg">
<g clip-path="url(#clip0_2124_6304)">
<path d="M12.0002 21.4737C17.2324 21.4737 21.4739 17.2322 21.4739 12C21.4739 6.76776 17.2324 2.52625 12.0002 2.52625C6.76801 2.52625 2.52649 6.76776 2.52649 12C2.52649 17.2322 6.76801 21.4737 12.0002 21.4737Z" fill="#2E3148"/>
<path d="M11.9775 17.3614C15.0006 17.3614 17.4513 14.9108 17.4513 11.8877C17.4513 8.86472 15.0006 6.41406 11.9775 6.41406C8.95449 6.41406 6.50383 8.86472 6.50383 11.8877C6.50383 14.9108 8.95449 17.3614 11.9775 17.3614Z" fill="#1B1E36"/>
<path d="M24.0002 12C24.0002 13.5759 23.6898 15.1363 23.0868 16.5922C22.4837 18.0481 21.5998 19.3709 20.4855 20.4852C19.3712 21.5995 18.0484 22.4836 16.5924 23.0865C15.1365 23.6897 13.5761 24.0001 12.0002 24.0001C10.4243 24.0001 8.86391 23.6897 7.40801 23.0865C5.95209 22.4836 4.62922 21.5995 3.51491 20.4852C2.40061 19.3709 1.51669 18.0481 0.91363 16.5922C0.310573 15.1363 0.000182968 13.5759 0.000183105 12H2.87629C2.87629 13.1982 3.11228 14.3846 3.5708 15.4916C4.02932 16.5985 4.70139 17.6043 5.54862 18.4516C6.39586 19.2988 7.40168 19.9709 8.50864 20.4294C9.6156 20.8879 10.802 21.1239 12.0002 21.1239C13.1984 21.1239 14.3848 20.8879 15.4918 20.4294C16.5988 19.9709 17.6046 19.2988 18.4518 18.4516C19.2991 17.6043 19.9712 16.5985 20.4297 15.4916C20.8882 14.3846 21.1242 13.1982 21.1242 12H24.0002Z" fill="#C73238"/>
<path d="M21.4739 12C21.4739 13.2441 21.2288 14.476 20.7527 15.6254C20.2766 16.7749 19.5788 17.8192 18.6991 18.699C17.8195 19.5787 16.775 20.2765 15.6256 20.7526C14.4762 21.2287 13.2443 21.4738 12.0002 21.4738C10.7561 21.4738 9.52417 21.2287 8.37477 20.7526C7.22537 20.2765 6.18099 19.5787 5.30127 18.699C4.42156 17.8192 3.72374 16.7749 3.24763 15.6254C2.77154 14.476 2.52649 13.2441 2.52649 12H12.0002H21.4739Z" fill="#070B09"/>
<path d="M11.8083 3.70837C10.8083 3.70837 9.9975 7.33511 9.9975 11.8089C9.9975 16.2827 10.8083 19.9095 11.8083 19.9095C12.8082 19.9095 13.619 16.2827 13.619 11.8089C13.619 7.33511 12.8082 3.70837 11.8083 3.70837ZM11.9333 19.4524C11.8189 19.6048 11.7046 19.4905 11.7046 19.4905C11.2441 18.9568 11.0138 17.9655 11.0138 17.9655C10.2083 15.3735 10.4001 9.80793 10.4001 9.80793C10.7786 5.38947 11.4672 4.3457 11.7016 4.11395C11.7255 4.09031 11.757 4.07586 11.7905 4.07315C11.8241 4.07044 11.8575 4.07963 11.8849 4.09914C12.2249 4.34005 12.5101 5.3476 12.5101 5.3476C13.3522 8.47343 13.2759 11.4087 13.2759 11.4087C13.3522 13.9627 12.8539 16.8217 12.8539 16.8217C12.4704 18.9945 11.9333 19.4524 11.9333 19.4524Z" fill="white"/>
<path d="M18.8342 7.77727C18.3364 6.90963 14.7874 8.0113 10.9049 10.2376C7.02244 12.4638 4.2838 14.9721 4.78127 15.8393C5.27874 16.7066 8.8281 15.6053 12.7106 13.379C16.5931 11.1528 19.3317 8.64453 18.8342 7.77727ZM5.24057 15.7203C5.04998 15.6964 5.09303 15.5397 5.09303 15.5397C5.32683 14.8749 6.07086 14.1818 6.07086 14.1818C7.91927 12.1931 12.8425 9.58989 12.8425 9.58989C16.863 7.71932 18.1119 7.79824 18.4287 7.88547C18.4612 7.89454 18.4894 7.91482 18.5084 7.94275C18.5275 7.97066 18.5359 8.0044 18.5324 8.03797C18.4943 8.45296 17.7605 9.20142 17.7605 9.20142C15.4697 11.4882 12.8856 12.8831 12.8856 12.8831C10.7082 14.2207 7.98033 15.2106 7.98033 15.2106C5.90471 15.9585 5.24057 15.7203 5.24057 15.7203Z" fill="white"/>
<path d="M18.8171 15.8679C19.3187 15.0025 16.587 12.4829 12.7182 10.2399C8.84941 7.99687 5.30089 6.8816 4.79965 7.7484C4.2984 8.61519 7.02968 11.1334 10.9007 13.3764C14.7717 15.6194 18.3157 16.7348 18.8171 15.8679ZM5.13208 8.08277C5.05799 7.90706 5.21441 7.86474 5.21441 7.86474C5.907 7.73395 6.87985 8.032 6.87985 8.032C9.5265 8.63469 14.2459 11.5909 14.2459 11.5909C17.8794 14.1334 18.4368 15.2534 18.5202 15.5713C18.5287 15.6039 18.5254 15.6385 18.511 15.6689C18.4964 15.6993 18.4716 15.7236 18.4409 15.7375C18.062 15.911 17.0473 15.6525 17.0473 15.6525C13.9195 14.8139 11.4181 13.2773 11.4181 13.2773C9.17058 12.0651 6.94818 10.1999 6.94818 10.1999C5.25947 8.77809 5.13261 8.08469 5.13261 8.08469L5.13208 8.08277Z" fill="white"/>
<path d="M11.7893 12.7414C12.3157 12.7414 12.7423 12.3148 12.7423 11.7884C12.7423 11.2621 12.3157 10.8354 11.7893 10.8354C11.263 10.8354 10.8363 11.2621 10.8363 11.7884C10.8363 12.3148 11.263 12.7414 11.7893 12.7414Z" fill="white"/>
<path d="M15.6972 8.70158C16.0025 8.70158 16.2499 8.44557 16.2499 8.12977C16.2499 7.81397 16.0025 7.55798 15.6972 7.55798C15.392 7.55798 15.1445 7.81397 15.1445 8.12977C15.1445 8.44557 15.392 8.70158 15.6972 8.70158Z" fill="white"/>
<path d="M6.6237 10.6454C6.92898 10.6454 7.17647 10.3894 7.17647 10.0736C7.17647 9.75784 6.92898 9.50183 6.6237 9.50183C6.31841 9.50183 6.07092 9.75784 6.07092 10.0736C6.07092 10.3894 6.31841 10.6454 6.6237 10.6454Z" fill="white"/>
<path d="M10.6649 17.6594C10.9702 17.6594 11.2177 17.4034 11.2177 17.0876C11.2177 16.7718 10.9702 16.5159 10.6649 16.5159C10.3596 16.5159 10.1121 16.7718 10.1121 17.0876C10.1121 17.4034 10.3596 17.6594 10.6649 17.6594Z" fill="white"/>
</g>
<defs>
<clipPath id="clip0_2124_6304">
<rect width="24" height="24" fill="white"/>
</clipPath>
</defs>
</svg>
