<svg width="24" height="24" viewBox="0 0 24 24" fill="none" xmlns="http://www.w3.org/2000/svg">
<path d="M12 24C18.6274 24 24 18.6274 24 12C24 5.37258 18.6274 0 12 0C5.37258 0 0 5.37258 0 12C0 18.6274 5.37258 24 12 24Z" fill="#E50571"/>
<path d="M12 24C8.79394 24 5.78182 22.7515 3.51515 20.4848C1.24848 18.2182 0 15.2061 0 12C0 8.79394 1.24848 5.78182 3.51515 3.51515C5.78182 1.24848 8.79394 0 12 0C15.2061 0 18.2182 1.24848 20.4848 3.51515C22.7515 5.78182 24 8.79394 24 12C24 15.2061 22.7515 18.2182 20.4848 20.4848C18.2182 22.7515 15.2061 24 12 24ZM12 0.975758C5.92121 0.975758 0.975758 5.92121 0.975758 12C0.975758 18.0788 5.92121 23.0242 12 23.0242C18.0788 23.0242 23.0242 18.0788 23.0242 12C23.0242 5.92121 18.0788 0.975758 12 0.975758Z" fill="white"/>
<path d="M10.5697 8.4849L3.56366 6.75156L8.21821 12.2728L4.40002 18.4061L11.0909 15.6849L15.7455 21.2061L15.2243 14.0061L21.9152 11.2849L14.9091 9.55156L14.3879 2.35156L10.5697 8.4849Z" fill="white"/>
</svg>
