<svg width="24" height="24" viewBox="0 0 24 24" fill="none" xmlns="http://www.w3.org/2000/svg">
<circle cx="12.0002" cy="12" r="12" fill="#1C202C"/>
<path d="M22.0002 8C21.7982 8.36608 21.6089 8.71113 21.4153 9.05617C21.2596 9.3381 21.0913 9.61161 20.944 9.89775C20.8683 10.045 20.7715 10.0913 20.6116 10.0913C15.7936 10.0871 10.9756 10.0871 6.15756 10.0871C6.06919 10.0871 5.98083 10.0871 5.84618 10.0871C6.02711 10.4069 6.1828 10.6846 6.3427 10.9581C6.54889 11.3158 6.77191 11.6651 6.96968 12.0311C7.05804 12.191 7.15903 12.2499 7.34838 12.2499C9.69638 12.2415 12.0486 12.2457 14.3966 12.2457C16.0376 12.2457 17.6787 12.2457 19.3198 12.2415C19.3871 12.2415 19.4586 12.2415 19.5638 12.2415C19.4923 12.3972 19.4502 12.5361 19.3745 12.6581C18.6844 13.8363 18.0322 15.0398 17.2874 16.1843C16.6057 17.2363 15.6168 17.9516 14.4176 18.3429C13.5592 18.6249 12.6755 18.7553 11.7709 18.7427C11.4132 18.7385 11.0555 18.7511 10.6978 18.7385C10.6137 18.7343 10.4917 18.6922 10.4538 18.6249C10.0372 17.9432 9.63326 17.2573 9.19985 16.5336C9.30504 16.5293 9.37658 16.5209 9.44811 16.5209C10.3402 16.5209 11.228 16.542 12.1201 16.5167C13.454 16.4831 14.5565 15.9529 15.3938 14.8967C15.5074 14.7536 15.6211 14.6106 15.7305 14.4675C15.7473 14.4465 15.7515 14.417 15.7725 14.3581C15.6884 14.3497 15.6168 14.3413 15.5453 14.3413C12.3179 14.3413 9.09465 14.3455 5.86721 14.3371C5.77464 14.3371 5.6442 14.2697 5.60212 14.1898C4.40288 12.17 3.22467 10.1334 2.04226 8.09678C2.02964 8.07153 2.02122 8.04629 2.00018 8C8.66545 8 15.3139 8 22.0002 8Z" fill="#FFED05"/>
</svg>
