<svg width="24" height="24" viewBox="0 0 24 24" fill="none" xmlns="http://www.w3.org/2000/svg">
<path d="M12 23.52C18.3623 23.52 23.52 18.3623 23.52 12C23.52 5.63766 18.3623 0.47998 12 0.47998C5.63769 0.47998 0.480011 5.63766 0.480011 12C0.480011 18.3623 5.63769 23.52 12 23.52Z" fill="black"/>
<path d="M23.5 12C23.5 18.3513 18.3513 23.5 12 23.5C5.64873 23.5 0.5 18.3513 0.5 12C0.5 5.64873 5.64873 0.5 12 0.5C18.3513 0.5 23.5 5.64873 23.5 12Z" stroke="white"/>
<path d="M7.56003 6.15694L14.63 9.84003L16.44 8.96312L9.39886 5.28003L7.56003 6.15694Z" fill="white"/>
<path d="M14.76 10.0031L16.44 9.1872V10.944L14.76 11.7599V10.0031Z" fill="white"/>
<path d="M7.56003 6.47998V8.37898L12.3778 10.827L7.56003 13.326V15.198L14.52 18.72V16.836L9.79301 14.43L14.52 11.886V10.008L7.56003 6.47998Z" fill="white"/>
<path d="M14.52 18.72L16.44 17.8484V11.76L14.52 12.6409V18.72Z" fill="white"/>
</svg>
