<svg width="24" height="24" viewBox="0 0 24 24" fill="none" xmlns="http://www.w3.org/2000/svg">
<circle cx="12" cy="12" r="12" fill="#172852"/>
<path d="M10.335 16.3425C10.785 18.0075 12.405 19.2675 13.215 19.2225C13.2375 19.2225 16.32 18.6375 17.985 15.8475C19.29 13.665 18.84 11.5725 17.0625 11.505C16.4325 11.55 9.47999 13.17 10.335 16.3425ZM16.905 5.63249C14.61 3.69749 11.415 3.24749 8.69249 4.46249C8.53499 4.52999 8.35499 4.61999 8.19749 4.70999C8.08499 4.77749 7.97249 4.82249 7.85999 4.88999H7.88249C7.56749 5.11499 7.29749 5.36249 7.04999 5.67749C4.84499 8.62499 12.3375 10.7625 16.3425 10.7625C18.1875 12.09 18.705 7.04999 16.905 5.63249Z" fill="#0E3CA5"/>
<path d="M9.1425 5.69998C8.1075 7.25248 4.6875 8.33248 4.125 8.17498L4.1925 8.03998C4.575 7.29748 5.0925 6.59998 5.6775 6.01498C5.97 5.72248 6.285 5.45248 6.645 5.20498C6.8475 5.04748 7.0725 4.91248 7.2975 4.77748C7.635 4.57498 8.0175 4.48498 8.4225 4.48498C9.9525 4.46248 9.1425 5.69998 9.1425 5.69998ZM8.2875 16.635C8.355 17.13 8.2875 19.0425 8.175 19.2C8.085 19.2 7.905 19.2225 7.3875 18.93C7.1175 18.7725 6.8475 18.615 6.6 18.4125C6.2625 18.165 5.9475 17.895 5.6325 17.58C5.0475 16.995 4.53 16.2975 4.1475 15.555C3.945 15.1725 3.7875 14.79 3.6525 14.385C3.54 13.98 3.45 13.5525 3.3825 13.125C3.225 12.2475 3.225 11.3475 3.3825 10.47C3.45 10.0425 3.54 9.61498 3.675 9.18748C3.6975 9.09748 3.72 9.02998 3.765 8.93998C4.35 9.72748 5.0475 10.4475 5.6325 11.235C6.195 12 6.96 13.2375 7.095 13.485C8.0625 15.1275 8.22 16.14 8.2875 16.635ZM19.695 11.7975C19.695 12.8325 19.4925 13.845 19.1325 14.8125C18.165 15.8475 11.64 13.2825 11.5725 13.26C10.6725 12.8775 7.9725 11.685 7.725 9.81748C7.365 7.13998 12.81 5.24998 15.2175 5.18248C15.51 5.18248 16.3875 5.20498 16.8825 5.60998C18.6825 7.16248 19.695 9.43498 19.695 11.7975ZM15.285 19.0875C14.565 19.425 13.8 19.1775 14.0025 18.48C14.385 17.1525 17.805 15.78 18.5475 15.7125C18.6375 15.7125 18.6825 15.7575 18.6375 15.8475C17.85 17.22 16.68 18.345 15.285 19.0875Z" fill="#5493F7"/>
<path d="M6.89251 20.37C6.87001 20.685 7.09501 20.955 7.41001 21C14.34 21.045 21 20.73 21 19.695C21 16.545 6.89251 20.37 6.89251 20.37Z" fill="url(#paint0_linear_927_5734)"/>
<path d="M6.89251 20.37C6.87001 20.685 7.09501 20.955 7.41001 20.9775C14.34 21.045 21 20.82 21 19.695C21 16.545 6.89251 20.37 6.89251 20.37ZM7.43251 20.955H7.38751C7.16251 20.9325 7.00501 20.775 6.93751 20.55C6.98251 20.775 7.18501 20.955 7.43251 20.955C14.34 20.91 20.8875 18.795 20.8875 19.7175C20.8875 20.64 14.3175 21 7.43251 20.955Z" fill="url(#paint1_linear_927_5734)"/>
<path d="M7.43251 11.505C7.14001 11.505 6.91501 11.73 6.91501 12.0225V20.37C6.91501 20.6625 7.14001 20.8875 7.43251 20.8875C14.34 20.865 21 18.57 21 19.695V10.29C21 9.16503 14.34 11.46 7.43251 11.505Z" fill="url(#paint2_linear_927_5734)"/>
<path d="M8.4 16.545C8.625 16.545 8.85 16.5225 9.075 16.5225C9.3 16.5225 9.5025 16.5 9.705 16.4775C9.9075 16.455 10.11 16.455 10.335 16.4325L10.9425 16.365L11.5725 16.2975C11.7975 16.275 12 16.2525 12.2475 16.23C12.495 16.2075 12.72 16.185 12.9675 16.14C13.215 16.095 13.485 16.0725 13.755 16.0275V10.965C11.6625 11.28 9.57 11.4825 7.455 11.505C7.1625 11.505 6.9375 11.73 6.9375 12.0225V16.5675H7.725C7.9725 16.5675 8.175 16.545 8.4 16.545Z" fill="url(#paint3_linear_927_5734)"/>
<path d="M11.3475 14.115L12.3375 13.845L11.3475 13.575L12.0675 12.855L11.0775 13.125L11.3475 12.135L10.6275 12.855L10.3575 11.865L10.0875 12.855L9.3675 12.135L9.6375 13.125L8.6475 12.855L9.3675 13.575L8.3775 13.845L9.3675 14.115L8.6475 14.835L9.6375 14.5875L9.3675 15.5775L10.0875 14.835L10.3575 15.825L10.6275 14.835L11.3475 15.5775L11.0775 14.5875L12.0675 14.835L11.3475 14.115Z" fill="url(#paint4_linear_927_5734)"/>
<path d="M10.3575 14.97C9.72751 14.97 9.23251 14.475 9.23251 13.845C9.23251 13.215 9.72751 12.72 10.3575 12.72C10.9875 12.72 11.4825 13.215 11.4825 13.845C11.4825 14.475 10.9875 14.97 10.3575 14.97ZM10.3575 12.855C9.81751 12.855 9.36751 13.305 9.36751 13.845C9.36751 14.385 9.81751 14.835 10.3575 14.835C10.8975 14.835 11.3475 14.385 11.3475 13.845C11.3475 13.305 10.92 12.855 10.3575 12.855Z" fill="url(#paint5_linear_927_5734)"/>
<defs>
<linearGradient id="paint0_linear_927_5734" x1="6.89948" y1="19.7308" x2="21" y2="19.7308" gradientUnits="userSpaceOnUse">
<stop stop-color="#600000"/>
<stop offset="0.33" stop-color="#630000"/>
<stop offset="0.59" stop-color="#6D0000"/>
<stop offset="0.83" stop-color="#7E0000"/>
<stop offset="1" stop-color="#8F0000"/>
</linearGradient>
<linearGradient id="paint1_linear_927_5734" x1="13.9499" y1="18.4548" x2="13.9499" y2="20.9996" gradientUnits="userSpaceOnUse">
<stop offset="0.35" stop-color="#BF1010"/>
<stop offset="0.65" stop-color="#BD1010"/>
<stop offset="0.75" stop-color="#B60F0F"/>
<stop offset="0.83" stop-color="#AB0D0D"/>
<stop offset="0.89" stop-color="#9A0A0A"/>
<stop offset="0.94" stop-color="#840606"/>
<stop offset="0.99" stop-color="#690202"/>
<stop offset="1" stop-color="#600000"/>
</linearGradient>
<linearGradient id="paint2_linear_927_5734" x1="6.90151" y1="15.4457" x2="21" y2="15.4457" gradientUnits="userSpaceOnUse">
<stop stop-color="#BF1010"/>
<stop offset="0.02" stop-color="#C11212"/>
<stop offset="0.24" stop-color="#D22323"/>
<stop offset="0.49" stop-color="#DC2D2D"/>
<stop offset="0.79" stop-color="#DF3030"/>
<stop offset="0.84" stop-color="#DC2E2E"/>
<stop offset="0.88" stop-color="#D22626"/>
<stop offset="0.92" stop-color="#C11919"/>
<stop offset="0.95" stop-color="#A90808"/>
<stop offset="0.97" stop-color="#9F0000"/>
<stop offset="1" stop-color="#DF3030"/>
</linearGradient>
<linearGradient id="paint3_linear_927_5734" x1="6.9015" y1="13.7719" x2="21" y2="13.7719" gradientUnits="userSpaceOnUse">
<stop stop-color="#000095"/>
<stop offset="0.02" stop-color="#010397"/>
<stop offset="0.18" stop-color="#091BA1"/>
<stop offset="0.36" stop-color="#0F2CA9"/>
<stop offset="0.55" stop-color="#1336AE"/>
<stop offset="0.79" stop-color="#1439AF"/>
<stop offset="0.84" stop-color="#1336AC"/>
<stop offset="0.89" stop-color="#0F2CA4"/>
<stop offset="0.93" stop-color="#091B96"/>
<stop offset="0.96" stop-color="#010382"/>
<stop offset="0.97" stop-color="#00007F"/>
<stop offset="1" stop-color="#2040BF"/>
</linearGradient>
<linearGradient id="paint4_linear_927_5734" x1="8.37525" y1="13.8506" x2="22.2622" y2="13.8506" gradientUnits="userSpaceOnUse">
<stop stop-color="#EBEBEC"/>
<stop offset="0.24" stop-color="#F2F2F2"/>
<stop offset="0.49" stop-color="#FCFCFC"/>
<stop offset="0.79" stop-color="white"/>
<stop offset="0.84" stop-color="#FCFCFC"/>
<stop offset="0.88" stop-color="#F2F2F2"/>
<stop offset="0.92" stop-color="#E1E1E1"/>
<stop offset="0.95" stop-color="#C9C9C9"/>
<stop offset="0.97" stop-color="#BFBFBF"/>
<stop offset="1" stop-color="white"/>
</linearGradient>
<linearGradient id="paint5_linear_927_5734" x1="9.04126" y1="13.8886" x2="13.962" y2="13.7424" gradientUnits="userSpaceOnUse">
<stop stop-color="#000095"/>
<stop offset="0.02" stop-color="#010397"/>
<stop offset="0.23" stop-color="#091BA1"/>
<stop offset="0.45" stop-color="#0F2CA9"/>
<stop offset="0.7" stop-color="#1336AE"/>
<stop offset="1" stop-color="#1439AF"/>
</linearGradient>
</defs>
</svg>
