<svg width="24" height="24" viewBox="0 0 24 24" fill="none" xmlns="http://www.w3.org/2000/svg">
<g clip-path="url(#clip0_2444_7044)">
<circle cx="12" cy="12" r="11.5" fill="white" stroke="#002FA7"/>
<path d="M12 21.0123L11.5259 20.9877C8.31916 20.8215 5.5551 18.9761 4.09801 16.3117L3.80183 15.7701L3.33355 16.1723C3.32145 16.1827 3.3093 16.193 3.29711 16.2033C3.38575 16.1285 3.47201 16.0509 3.55578 15.9706L3.80184 15.7348L3.67225 15.4196C3.23911 14.3659 3 13.2115 3 12C3 10.7885 3.23911 9.63406 3.67225 8.58043L3.80184 8.26519L3.55578 8.02935C3.48355 7.96012 3.40944 7.89288 3.33355 7.82769L3.80183 8.22989L4.09801 7.68829C5.5551 5.02388 8.31916 3.17854 11.5259 3.01226L12 2.98768L12.4741 3.01226C15.6808 3.17854 18.4449 5.02388 19.902 7.68829L20.1982 8.22989L20.6664 7.82769C20.674 7.82121 20.6816 7.81475 20.6891 7.80831C20.6053 7.87952 20.5236 7.95323 20.4442 8.02935L20.1982 8.26519L20.3277 8.58043C20.7609 9.63406 21 10.7885 21 12C21 13.2115 20.7609 14.3659 20.3277 15.4196L20.1982 15.7348L20.4442 15.9706C20.5153 16.0388 20.5881 16.1049 20.6627 16.1691L20.1982 15.7701L19.902 16.3117C18.4449 18.9761 15.6808 20.8215 12.4741 20.9877L12 21.0123Z" fill="white" stroke="#002FA7"/>
<path d="M6.95815 10.1272C5.9137 12.9003 7.35427 16.0335 10.1633 17.0418C10.2714 17.1139 10.3794 17.2578 10.3794 17.3659V17.8701C10.3794 17.9421 10.3794 17.9782 10.3434 18.0141C10.3074 18.1582 10.1633 18.2302 10.0192 18.1582C8.00251 17.51 6.4539 15.9614 5.80566 13.9447C4.72526 10.5234 6.59799 6.88601 10.0192 5.80561C10.0553 5.76965 10.1273 5.76965 10.1633 5.76965C10.3074 5.80561 10.3794 5.91365 10.3794 6.05773V6.56189C10.3794 6.74201 10.3074 6.85005 10.1633 6.92205C8.68679 7.46225 7.49835 8.61465 6.95815 10.1272Z" fill="#002FA7"/>
<path d="M13.6566 5.94969C13.6926 5.80561 13.8367 5.73361 13.9808 5.80561C15.9614 6.45385 17.5461 8.00245 18.1943 10.0552C19.2747 13.4764 17.402 17.1139 13.9808 18.1943C13.9447 18.2302 13.8727 18.2302 13.8367 18.2302C13.6926 18.1943 13.6206 18.0862 13.6206 17.9421V17.438C13.6206 17.2579 13.6926 17.1498 13.8367 17.0778C15.3132 16.5376 16.5016 15.3852 17.0418 13.8727C18.0863 11.0996 16.6457 7.96641 13.8367 6.95809C13.7286 6.88601 13.6206 6.74201 13.6206 6.59793V6.09377C13.6206 6.02169 13.6206 5.98573 13.6566 5.94969Z" fill="#002FA7"/>
<path d="M12.108 11.3878C13.6206 11.5678 14.3769 12 14.3769 13.2604C14.3769 14.2328 13.6566 14.9891 12.5762 15.1692V16.0335C12.5402 16.2135 12.4321 16.3216 12.2881 16.3216H11.7479C11.5678 16.2855 11.4598 16.1775 11.4598 16.0335V15.1692C10.2713 14.9891 9.6951 14.3408 9.5511 13.4405V13.4045C9.5511 13.2604 9.65914 13.1524 9.80314 13.1524H10.4154C10.5235 13.1524 10.6315 13.2245 10.6675 13.3685C10.7755 13.9087 11.0996 14.3049 12.036 14.3049C12.7202 14.3049 13.2245 13.9087 13.2245 13.3325C13.2245 12.7563 12.9003 12.5402 11.8919 12.3601C10.3794 12.18 9.65914 11.7119 9.65914 10.5235C9.65914 9.62311 10.3433 8.90287 11.4237 8.75879V7.93051C11.4598 7.75039 11.5678 7.64235 11.7119 7.64235H12.2521C12.4321 7.67839 12.5402 7.78643 12.5402 7.93051V8.79483C13.3685 8.86683 14.0167 9.47903 14.1608 10.2713V10.3074C14.1608 10.4514 14.0527 10.5594 13.9087 10.5594H13.3325C13.2245 10.5594 13.1164 10.4874 13.0804 10.3794C12.9003 9.83919 12.5402 9.62311 11.8919 9.62311C11.1717 9.62311 10.8115 9.94714 10.8115 10.4514C10.8115 10.9556 11.0276 11.2437 12.108 11.3878Z" fill="#002FA7"/>
</g>
<defs>
<clipPath id="clip0_2444_7044">
<rect width="24" height="24" fill="white"/>
</clipPath>
</defs>
</svg>
