<svg width="24" height="24" viewBox="0 0 24 24" fill="none" xmlns="http://www.w3.org/2000/svg">
<circle cx="12" cy="12" r="12" fill="#172852"/>
<path d="M10.3316 16.3335C10.7816 17.9985 12.3962 19.2686 13.2116 19.216C13.2402 19.2142 16.3042 18.6429 17.9816 15.841C19.2866 13.66 18.8427 11.5545 17.0672 11.5086C16.4287 11.5552 9.47458 13.1621 10.3321 16.3339L10.3316 16.3335ZM16.9016 5.64037L16.8998 5.63879L16.9023 5.63722C15.784 4.68609 14.4199 4.07024 12.9669 3.86061C11.5139 3.65098 10.0313 3.85611 8.68978 4.45237C8.52009 4.52295 8.35479 4.60364 8.19478 4.69402C8.08543 4.75229 7.97608 4.81012 7.86988 4.87402L7.89575 4.88212C7.58175 5.09587 7.30409 5.35864 7.07338 5.66039C4.83867 8.61442 12.3343 10.7625 16.3425 10.7688C18.1855 12.0922 18.703 7.04257 16.9016 5.64037V5.64037Z" fill="#0E3CA5"/>
<path d="M9.14248 5.7C8.11265 7.248 4.68253 8.33857 4.11845 8.1687L4.11463 8.1615C4.13713 8.11492 4.1612 8.06835 4.18505 8.02222C4.76999 6.89557 5.60694 5.91902 6.6308 5.16855C6.84185 5.01375 7.0604 4.86907 7.28645 4.73452C7.63399 4.54264 8.02329 4.43896 8.42023 4.43257C9.94775 4.46182 9.15013 5.68807 9.14203 5.70045L9.14248 5.7ZM8.29738 16.6379C8.3714 17.1241 8.29558 19.0454 8.19613 19.207C8.1104 19.2122 7.93198 19.2232 7.41515 18.9332C5.76485 17.9915 4.49164 16.5074 3.81199 14.733C3.13234 12.9587 3.08822 11.0037 3.68713 9.20055C3.71458 9.11805 3.7433 9.03607 3.7733 8.95462C4.36528 9.74212 5.0504 10.4545 5.6327 11.2496C6.18733 12.0067 6.9503 13.2411 7.10555 13.505C8.06945 15.1423 8.22313 16.1526 8.2967 16.6381L8.29738 16.6379ZM19.6925 11.7961C19.6937 12.8286 19.4998 13.852 19.121 14.8125C18.1535 15.852 11.6321 13.2931 11.5682 13.2649C10.6761 12.8741 7.96123 11.685 7.7162 9.8175C7.36498 7.12875 12.8167 5.25585 15.213 5.18497C15.5003 5.18835 16.3747 5.19847 16.8845 5.61247C17.7675 6.3825 18.475 7.33293 18.9594 8.39966C19.4438 9.46638 19.6938 10.6246 19.6925 11.7961V11.7961ZM15.2778 19.0799C14.567 19.4117 13.7842 19.1698 13.9876 18.4777C14.378 17.1482 17.787 15.7852 18.5398 15.7102C18.6328 15.701 18.6721 15.7642 18.631 15.8365C17.8466 17.2157 16.6831 18.3409 15.2785 19.0787" fill="#5493F7"/>
</svg>
