<svg width="24" height="24" viewBox="0 0 24 24" fill="none" xmlns="http://www.w3.org/2000/svg">
<circle cx="12" cy="12" r="12" fill="#121212"/>
<path d="M19.2687 6.00111L20.7273 6.00166L15.9927 14.2555L15.9071 14.1818C15.3633 13.7171 15.3005 13.2704 15.6894 12.6393C16.4624 11.3907 17.2096 10.098 17.9329 8.84839C18.18 8.42129 18.4265 7.9942 18.6747 7.56875C18.7434 7.44984 18.8024 7.32711 18.8711 7.1842C18.8858 7.15311 18.9005 7.12093 18.9169 7.0882C18.6262 7.0882 18.3404 7.0882 18.0573 7.08711C17.022 7.08439 16.044 7.08166 15.0627 7.1062C14.9373 7.10948 14.7338 7.29166 14.6438 7.44493C13.374 9.60329 12.024 11.9253 10.3947 14.7529C10.3036 14.9127 10.2529 15.1075 10.2873 15.1697C10.7814 16.0566 11.2909 16.9282 11.8309 17.8506L12.2476 18.5635L12.5493 18.0453L12.6147 17.9335C12.8225 17.5806 13.0434 17.2129 13.6238 16.2458C13.6718 16.1657 13.7209 16.0877 13.7689 16.0102C14.0067 15.6251 14.2298 15.348 14.2205 14.8489C14.2118 14.4115 13.3822 13.3664 13.1864 13.0729C13.1105 12.9584 13.0314 12.8395 12.9589 12.7167C12.6365 12.168 12.6954 11.7011 13.1411 11.2871L13.2267 11.2069L13.2851 11.3078L13.6533 11.9395C14.0105 12.5504 15.0158 14.178 15.3414 14.7742C15.4265 14.9297 15.4216 15.2073 15.3311 15.3671C14.5636 16.7215 13.7891 18.0617 12.9693 19.4782L12.2476 20.7273L11.5042 19.4378C10.6887 18.0218 9.9169 16.6849 9.15545 15.3262C9.06272 15.1615 9.11181 14.8609 9.21381 14.6831C10.7722 11.9678 12.3889 9.17893 14.0193 6.39275C14.1251 6.2133 14.3574 6.01857 14.55 6.01639C16.0953 5.99893 17.6378 5.99893 19.2682 6.00111H19.2687ZM9.99599 6.01639C10.188 6.01802 10.4204 6.21384 10.5262 6.39329C10.7869 6.83839 11.0454 7.28566 11.3029 7.73239L11.5854 8.22111C11.7894 8.57402 11.7894 9.01202 11.5854 9.36493L11.3029 9.85311L11.2216 9.71457C11.0384 9.39984 10.8562 9.08457 10.6734 8.76929C10.4171 8.32748 10.1607 7.88566 9.90163 7.44493C9.81163 7.29111 9.60927 7.10893 9.48327 7.1062C8.50199 7.08111 7.52563 7.08439 6.48818 7.08711L5.62854 7.08875C5.6449 7.12093 5.65963 7.15311 5.67436 7.18366C5.74309 7.32711 5.80254 7.45039 5.87072 7.56875C6.12381 8.00293 6.37636 8.4382 6.6289 8.87402C7.34618 10.1149 8.08909 11.3995 8.85599 12.6393C9.24545 13.2698 9.18272 13.7166 8.6389 14.1818L8.55327 14.2555L3.81818 6.00166L5.27618 6.00111C6.90927 6.00002 8.45018 5.99893 9.99599 6.01639Z" fill="#FFE646"/>
</svg>
