<svg width="24" height="24" viewBox="0 0 24 24" fill="none" xmlns="http://www.w3.org/2000/svg">
<circle cx="12" cy="12" r="12" fill="#0000FF"/>
<path d="M10.5719 9.28808C10.8714 8.89459 11.1666 8.50111 11.4661 8.10316C12.1994 7.12392 12.9328 6.14021 13.6705 5.16097C13.7242 5.08943 13.7689 5 13.8896 5C14.8197 5.00447 15.7453 5.00447 16.7245 5.00447C16.4875 5.33088 16.2729 5.63047 16.0583 5.92558C15.2042 7.10156 14.3457 8.28201 13.4872 9.45352C13.3978 9.57872 13.3978 9.65026 13.4917 9.77546C14.7124 11.3762 15.9286 12.9815 17.1448 14.5867C17.194 14.6493 17.2611 14.7029 17.279 14.8147C17.1135 14.8147 16.9525 14.8147 16.7916 14.8147C15.9152 14.8147 15.0343 14.8103 14.1579 14.8192C14.0193 14.8192 13.9299 14.779 13.8449 14.6672C12.7852 13.2363 11.7165 11.8055 10.6479 10.3791C10.621 10.3433 10.5942 10.312 10.5271 10.2226C10.5271 10.3612 10.5271 10.4372 10.5271 10.5132C10.5271 11.8726 10.5227 13.2363 10.5316 14.5956C10.5316 14.7611 10.5003 14.8281 10.3125 14.8237C9.53002 14.8103 8.75199 14.8147 7.9695 14.8237C7.813 14.8237 7.7504 14.7969 7.7504 14.6225C7.75487 11.4835 7.75487 8.34461 7.7504 5.20568C7.7504 5.05366 7.79064 5.00447 7.94714 5.00447C8.72069 5.01341 9.49425 5.01341 10.2678 5.00447C10.469 5 10.5316 5.04919 10.5271 5.25934C10.5182 6.51581 10.5227 7.77227 10.5227 9.02874C10.5227 9.10922 10.5227 9.18971 10.5227 9.27466C10.5406 9.27466 10.554 9.27914 10.5719 9.28808Z" fill="white"/>
<path d="M9.02921 15.9818C9.85642 15.9862 10.5227 16.6614 10.5182 17.4931C10.5137 18.3203 9.83853 19 9.0158 19C8.18859 19.0045 7.5 18.3114 7.5 17.4797C7.50447 16.6435 8.18412 15.9773 9.02921 15.9818Z" fill="white"/>
</svg>
