<svg width="24" height="24" fill="none" xmlns="http://www.w3.org/2000/svg">
<circle cx="12" cy="12" r="12" fill="#F0E7EA"/>
<path d="m18.985 19.662-.102.11h-.308c-.254-.254-.63-.234-.918-.412a.449.449 0 0 1 .122-.085c.165-.047.432.049.443-.22.01-.214-.233-.24-.386-.338-.268-.172-.594-.113-.856-.288-.767-.514-1.25-1.31-1.952-1.895-.91-.762-1.358-1.926-2.259-2.702-.195-.167-.148-.44-.357-.582-.822-.563-1.233-1.438-1.712-2.27a13.48 13.48 0 0 0-1.112-1.728c-.308-.389-.81-.702-.803-1.3 0-.034.003-.068.01-.102l.387-.054c.03.097.067.192.091.29.14.59.719.91.924 1.429.289.745.874 1.28 1.199 2.02.376.851 1.176 1.523 1.783 2.279.357.446.946.719 1.013 1.393.015.134.162.28.309.388a7.244 7.244 0 0 1 1.814 1.932c.206.318.48.634.94.607l.507.114c.244.362.611.167.925.193.711.06.968-.323.707-1.014v-.504a3.747 3.747 0 0 1-.037-.398c.007-.616-.553-1.034-.57-1.643.114 0 .152.082.215.168.288.392.33.916.69 1.267 0 .032.007.063.011.095v.293c-.138.114-.085.27-.092.41-.04.216.065.411.103.617.052.235-.13.513.144.707.11.127.078.272.063.417-.596-.045-.73.417-.936.806Z" fill="#C76575"/>
<path d="M8.794 7.854a.535.535 0 0 0-.01.103.169.169 0 0 1-.055 0c-.699.219-1.414.39-2.081.7l-.816.103c-.042-.26-.217-.2-.385-.161-.478.109-.976.095-1.447-.041v-.103c.274-.157.365-.525.698-.616.092 0 .177-.013.215-.114h-.012c.205.036.368-.055.557-.147.49-.238.925-.616 1.502-.65.374.394.161.477-.25.52-.282.03-.553.152-.832.222-.321.08-.11.396-.27.556.377-.173.646-.533 1.079-.541.102.267-.3.205-.24.465.376-.048.925-.063 1.07-.234.428-.514.808-.434 1.275-.177l.002.115Z" fill="#F3D66B"/>
<path d="M4 8.558c.471.136.969.15 1.447.04.168-.037.343-.102.386.162-.25.074-.52.103-.712.308l-.39.08-.541-.172L4 8.864v-.306Z" fill="#E1BE61"/>
<path d="M8.73 7.956a.169.169 0 0 0 .055 0c-.007.597.492.91.803 1.299.417.546.792 1.124 1.12 1.727.479.831.883 1.712 1.713 2.27.205.141.162.41.357.582.901.776 1.349 1.94 2.26 2.702.698.584 1.18 1.383 1.951 1.895.262.175.588.116.857.288.153.102.396.124.386.338-.012.269-.279.173-.444.22a.447.447 0 0 0-.122.085c-.272.01-.544.05-.816-.019-.057-.228-.277-.268-.434-.385-.437-.326-1.027-.39-1.398-.822.249.013.492-.021.731.138.24.159.3-.028.266-.234-.027-.177-.16-.293-.285-.411-.625-.578-1.24-1.16-1.904-1.702-.704-.574-1.291-1.289-2.032-1.848-1.085-.822-1.62-2.085-2.396-3.153-.38-.522-.589-1.142-1.068-1.623-.234-.235-.616-.426-.662-.838.366-.135.757-.233 1.062-.51Z" fill="#B85867"/>
<path d="M15.013 18.137c.374.429.961.493 1.398.822.157.117.377.157.434.385-1.785-.944-3.784-1.351-5.602-2.187-1.7-.78-3.165-1.912-4.078-3.663-.465-.892-1.12-1.69-1.759-2.48A9.292 9.292 0 0 1 4.19 8.975l.54.169c.163.408.373.794.627 1.151.359.492.75.96 1.086 1.474.55.854 1.176 1.643 1.613 2.59.367.789 1.226 1.166 1.92 1.66.58.41 1.142.864 1.858 1.04.315.06.624.144.925.253.63.26 1.267.506 1.945.616l.31.209Z" fill="#C25C5C"/>
<path d="m14.518 5.493.299.29.125.112c.991 1.027 1.746 2.213 2.42 3.46 0 .094.007.183.12.213l-.007-.01c-.015.098 0 .183.11.214l-.008-.01c-.015.102-.006.183.111.213l-.008-.01c-.046.258-.056.502.244.624.53 1.184.987 2.4 1.37 3.64.066.213.239.403.205.65 0 .109-.01.219-.015.328-.183-.04-.245-.175-.316-.338-.136-.315-.244-.65-.49-.907l-.006-.197c0-.134-.015-.267-.047-.396a27.618 27.618 0 0 0-1.83-3.844c-.234-.41-.325-.97-.859-1.176 0-.033 0-.065-.005-.096.024-.688-.45-1.094-.886-1.506-.376-.354-.783-.69-1.027-1.148a1.989 1.989 0 0 0-.46-.637l.136-.462h.075l.632.903.117.09Z" fill="#A7474E"/>
<path d="M6.96 6.93c-.579.034-1.013.412-1.502.65-.189.093-.348.184-.558.148.094-.223.308-.32.498-.411 1.07-.488 2.023-1.172 3.018-1.79 1.336-.828 2.866-1.119 4.367-1.474.3-.07.734-.145.916.308l-.018.016a.72.72 0 0 0-.678-.059c-.41.182-.871.233-1.257.492-.19.128-.437.24-.668.16-.468-.161-.72.117-.963.422-.734.411-1.614.47-2.294 1.027-.248.205-.494.48-.861.512Z" fill="#E1BE61"/>
<path d="M18.985 19.662c.206-.389.341-.851.925-.806-.044.575-.506.667-.925.806Z" fill="#E27A85"/>
<path d="M19.695 16.707v-.293l.197-.006a1.583 1.583 0 0 1-.083 1.329h-.112c-.033-.206-.138-.397-.103-.616.3-.08.245-.238.1-.414Z" fill="#B85867"/>
<path d="m19.895 16.408-.197.006c0-.032-.008-.062-.012-.094l-.092-.72.102-.004.199.812Z" fill="#9E4B57"/>
<path d="M17.924 10.589c-.3-.123-.29-.366-.244-.624.143.178.229.396.244.624Z" fill="#903F4B"/>
<path d="M19.482 15.207c0-.11.01-.22.015-.328l.19.616h-.102c-.104-.072-.086-.185-.103-.288Z" fill="#9E4B57"/>
<path d="M19.704 17.732h.112l.033.702c-.279-.183-.097-.467-.145-.702Z" fill="#C25C5C"/><path d="M17.688 9.975c-.117-.03-.126-.116-.111-.214.092.042.098.13.11.214Z" fill="#903F4B"/>
<path d="M17.584 9.771c-.115-.03-.124-.116-.11-.213.093.042.096.13.11.213Z" fill="#903F4B"/>
<path d="M4.915 7.728c-.038.102-.123.113-.215.114a.205.205 0 0 1 .215-.114Z" fill="#E1BE61"/>
<path d="M17.482 9.568c-.113-.03-.122-.119-.12-.214a.241.241 0 0 1 .12.214Z" fill="#903F4B"/>
<path d="M19.585 15.494h.103c0 .034.009.067.013.102l-.103.005-.013-.107Z" fill="#A7474E"/>
<path d="m14.942 5.895-.126-.112.126.112ZM14.518 5.493l-.118-.09c.072-.013.098.033.117.09Z" fill="#903F4B"/>
<path d="M13.772 4.502h-.075l-.015-.12.017-.015.073.135Z" fill="#E1BE61"/>
<path d="M17.257 18.137c-.459.027-.74-.29-.94-.607a7.245 7.245 0 0 0-1.819-1.932c-.144-.108-.291-.254-.308-.388-.067-.674-.656-.947-1.013-1.393-.605-.76-1.405-1.431-1.781-2.282-.325-.74-.91-1.275-1.2-2.016-.206-.514-.782-.84-.925-1.429-.024-.103-.06-.193-.091-.289l.205-.102c0 .205.153.336.247.492.317.528.809.935 1.053 1.516.158.378.357.718.758.903.14.065.184.234.206.39-.136.283-.031.44.227.605.387.247.828.462.943.99.02.09.155.186.257.22.212.068.298.23.427.387.148.183.251.492.588.45h.205c-.07.452.263.8.323 1.218.007.049.102.09.157.123.171.092.264.255.382.397.738.886 1.294 1.911 2.1 2.747Z" fill="#D16E7E"/>
<path d="M17.257 18.137c-.805-.832-1.361-1.857-2.1-2.742-.117-.141-.205-.308-.381-.397-.06-.032-.15-.074-.158-.122-.06-.42-.393-.766-.322-1.218.011-.067.047-.178.096-.148.24.145.53.265.638.543.254.625.616 1.2 1.07 1.7.38.435.706.909.858 1.491.126.489.847.875 1.26.719.762-.285.939-.634.679-1.353-.063-.172-.143-.337-.216-.506.179-.016.266.146.411.206.121.195-.018.513.301.616v.503c-.145.672-.657.789-1.232.814-.134.007-.268.005-.401.008l-.503-.114Z" fill="#E18391"/>
<path d="M19.389 16.924c-.32-.103-.18-.421-.301-.616a2.998 2.998 0 0 0-1.017-1.636 73.938 73.938 0 0 1-.213-.401h.386c-.45-.241-.416-.642-.567-.96-.298-.617-.666-1.208-1.003-1.81-.111-.2-.229-.392-.45-.492l.016-.015c.197-.007.205-.144.194-.29a.196.196 0 0 1 .206-.213c.251.275.205.75.616.924l.006.103c-.01.32.109.566.41.71a.34.34 0 0 1 .206.206.595.595 0 0 0 .005.205c.25.656.549 1.296.655 2.002.016.102.142.132.248.142l.007.103c.018.607.578 1.027.571 1.643.001.132.01.264.025.395ZM17.764 18.248c.133 0 .267 0 .4-.007.572-.026 1.085-.143 1.233-.814.26.69 0 1.074-.708 1.014-.314-.026-.682.169-.925-.193Z" fill="#D16E7E"/>
<path d="M18.78 14.884c0-.035 0-.07-.008-.103.011-.277-.244-.524-.098-.822.246.258.354.593.49.907.071.164.133.298.317.338.012.103 0 .217.102.288l.01.102.092.72c-.36-.352-.401-.876-.69-1.268-.062-.08-.1-.158-.216-.162Z" fill="#C25C5C"/>
<path d="m9.39 7.704-.205.103-.387.052v-.112a.308.308 0 0 0 .308-.205c.186-.076.374-.144.555-.23.42-.197.821-.444 1.306-.474l-.035.089-.514.27-.838.422-.19.085Z" fill="#F3DD7B"/>
<path d="M19.694 16.706c.145.177.2.334-.092.411.007-.14-.046-.297.092-.41Z" fill="#C25C5C"/>
<path d="M6.96 6.93c.368-.03.616-.307.862-.513.68-.555 1.56-.616 2.293-1.027.185.01.371-.008.552-.052.578-.173 1.163-.324 1.745-.48.103-.03.233-.14.309.024.047.109-.07.183-.141.245-.79.678-1.583 1.352-2.632 1.588-.463.103-.752.357-.852.822-.149 0-.296 0-.308.205-.467-.257-.847-.338-1.274.177-.144.171-.695.186-1.07.234-.06-.256.34-.198.239-.465-.432.008-.702.368-1.08.54.162-.16-.05-.475.272-.555.278-.07.55-.192.83-.222.416-.043.629-.126.255-.52Zm.206.592a.514.514 0 0 0-.159.089.057.057 0 0 0 .06.091.965.965 0 0 0 .205-.103l-.106-.077ZM8.73 7.956c-.309.276-.697.374-1.067.513l-1.002.202-.014-.015c.668-.31 1.383-.48 2.082-.7ZM5.12 9.066c.192-.205.462-.232.712-.308l.814-.103.014.015a.465.465 0 0 1-.016.077l-1.216.336-.308-.017Z" fill="#F3DD7B"/>
<path d="m5.12 9.066.309.016c-.025.42.237.724.41 1.066.75 1.444 2.045 2.557 2.526 4.163.028.061.07.115.121.159.63.68 1.417 1.151 2.182 1.657.513.34 1.13.427 1.65.719a6.117 6.117 0 0 0 2.181.683c.057.142.221.23.206.411-.678-.114-1.316-.36-1.945-.616a6.164 6.164 0 0 0-.925-.254c-.719-.175-1.278-.627-1.859-1.039-.693-.494-1.552-.87-1.92-1.66-.438-.958-1.063-1.745-1.614-2.601-.334-.513-.727-.984-1.085-1.476a5.473 5.473 0 0 1-.627-1.149l.39-.08Z" fill="#A7474E"/>
<path d="M14.703 17.932c.017-.178-.147-.266-.205-.41-.386-.626-.585-1.439-1.518-1.541a.744.744 0 0 1-.373-.15c-.936-.747-1.7-1.706-2.807-2.245a.739.739 0 0 1-.403-.498c-.109-.434-.562-.727-.52-1.232-.689-.157-.567-.805-.784-1.257-.088-.18-.32-.294-.491-.43-.224-.176-.152-.548-.418-.673-.332-.155-.467-.422-.538-.749a.464.464 0 0 0 .015-.077l1.002-.198c.044.411.429.603.663.838.478.48.688 1.101 1.068 1.623.776 1.068 1.31 2.335 2.396 3.153.74.557 1.328 1.272 2.031 1.848.664.542 1.28 1.124 1.904 1.702.125.116.258.232.286.41.033.206-.037.387-.266.235-.23-.152-.483-.125-.731-.138l-.31-.211Z" fill="#9E4B57"/>
<path d="M9.097 7.539c.102-.466.388-.72.851-.822 1.049-.236 1.841-.91 2.626-1.588.072-.062.188-.136.14-.245-.07-.164-.198-.053-.307-.025-.583.157-1.168.308-1.746.481-.18.046-.366.066-.552.059.249-.309.495-.584.964-.423.23.08.477-.031.668-.16.385-.259.844-.308 1.257-.492a.719.719 0 0 1 .678.059l.015.119-.136.462-.19.217-.308.308c-.206.133-.469.219-.5.522l-.309.117-1.29.712c-.483.03-.886.277-1.307.475-.18.08-.368.148-.554.224Z" fill="#F3D66B"/>
<path d="m13.063 5.485.309-.308c.454.864 1.114 1.547 1.874 2.147.103.08.155.219.23.33.14.206.223.459.454.597 0 .031 0 .063.005.096-.08.686.308 1.184.7 1.671.329.417.565.86.616 1.395-.411-.17-.36-.646-.617-.925 0-.117-.076-.16-.175-.213-.477-.257-.791-.668-.822-1.2-.022-.42-.148-.689-.44-1.02-.73-.83-1.552-1.604-2.133-2.57Z" fill="#C76575"/>
<path d="M17.248 11.415c-.049-.534-.285-.978-.617-1.395-.386-.487-.778-.985-.699-1.67.534.205.624.765.86 1.175a27.617 27.617 0 0 1 1.829 3.844c.032.13.048.262.047.396-.262-.055-.195-.318-.3-.47-.19-.275-.104-.711-.504-.861a.338.338 0 0 0-.206-.206c-.07-.275 0-.631-.41-.71v-.103ZM15.928 8.253c-.23-.138-.314-.385-.454-.59-.075-.113-.129-.252-.23-.332-.76-.6-1.419-1.282-1.874-2.147l.19-.217c.194.18.35.396.46.637.24.458.646.794 1.027 1.148.43.407.905.813.881 1.5Z" fill="#C25C5C"/>
<path d="M17.866 12.434c.4.15.313.586.503.86.103.153.04.411.301.47l.006.198c-.147.293.11.54.098.821-.103-.01-.232-.04-.248-.142-.102-.706-.405-1.346-.655-2.002a.598.598 0 0 1-.005-.205Z" fill="#C76575"/>
<path d="m12.26 6.121.309-.117c.14.093.373.163.401.282.12.505.488.748.827 1.087.339.34.88.617.856 1.233 0 .053.11.12.18.163.348.218.42.55.382.924-.06.617.616 1.17 1.224 1.013.009.146 0 .282-.194.29l-.052-.016.037.031c.22.103.338.292.45.49.337.604.704 1.191 1.002 1.812.151.315.117.718.567.957h-.393c-.233.675-.122 1.027.41 1.32.168.143.127.452.405.513.073.168.153.334.216.506.26.72.083 1.068-.68 1.353-.411.154-1.13-.232-1.26-.72-.151-.581-.477-1.055-.858-1.49a5.713 5.713 0 0 1-1.059-1.702c-.108-.278-.397-.399-.638-.543-.049-.03-.085.08-.096.148h-.205c.017-.563-.308-1.02-.456-1.524-.206-.704-.668-1.233-1.13-1.662-.774-.72-1.246-1.576-1.643-2.49-.128-.29-.553-.391-.456-.787l.513-.272c.185.12.452.257.386.48-.08.271.073.41.16.6.206.44.19 1.001.72 1.257a.069.069 0 0 1 .022.048c.103.514.418.832.869 1.064.14.073.329.137.382.319.194.664.756 1.14.924 1.822.055.226.11.456.276.646.495.568.95 1.155 1.223 1.88a.885.885 0 0 0 .917.534c.38-.04.428-.41.471-.748.031-.25.117-.492.167-.74.042-.205.056-.41-.183-.523.009-.352-.033-.662-.508-.616-.07-.206.164-.508-.205-.616l-.103-.103c0-.195-.146-.287-.279-.398-.356-.293-.786-.451-1.178-.672-.426-.242-.574-.564-.438-1.01.066-.214.103-.444-.056-.574-.405-.327-.456-.793-.6-1.237-.102-.315-.297-.602-.474-.886-.082-.133-.222-.15-.336 0h-.308c-.14-.458-.494-.824-.508-1.326Zm5.649 11.406c.46.031.582-.297.656-.625.048-.217-.643-.886-.882-.87-.276.02-.42.205-.41.476.04.834.172 1.024.636 1.021v-.002Z" fill="#EE929F"/>
<path d="M10.405 7.195c-.097.396.328.497.456.788.4.914.872 1.775 1.643 2.489.463.426.924.958 1.13 1.662.149.505.473.961.455 1.524-.336.042-.439-.267-.587-.45-.13-.158-.216-.32-.427-.388-.103-.033-.237-.13-.257-.22-.115-.528-.556-.743-.944-.99-.258-.164-.362-.321-.227-.604.397-.093.334-.294.072-.457a1.603 1.603 0 0 1-.616-.719c-.39-.821-1.008-1.493-1.54-2.22l.842-.415Z" fill="#E18391"/>
<path d="M9.566 7.616c.534.726 1.153 1.393 1.54 2.22.129.295.344.546.617.718.262.163.324.364-.072.457-.018-.156-.062-.326-.205-.39-.402-.185-.6-.525-.758-.904-.242-.585-.734-.993-1.049-1.521-.093-.156-.248-.287-.246-.492l.173-.088ZM18.07 14.671c.51.419.868.994 1.018 1.636-.141-.058-.228-.22-.411-.205.02-.292-.02-.537-.405-.514.029-.326-.281-.578-.201-.917ZM16.434 10.707c-.616.156-1.284-.401-1.224-1.012.037-.374-.034-.707-.383-.925-.069-.043-.18-.11-.179-.163.024-.616-.53-.906-.856-1.232-.326-.327-.708-.583-.827-1.088-.028-.12-.262-.189-.402-.281.032-.303.292-.389.5-.522.58.966 1.4 1.746 2.138 2.576.292.33.418.598.44 1.018.028.533.342.944.822 1.201.103.053.171.097.176.214a.195.195 0 0 0-.205.214Z" fill="#E27A85"/>
<path d="M18.07 14.671c-.08.34.23.592.206.925-.537-.295-.648-.644-.41-1.32.062.128.133.267.205.395Z" fill="#E18391"/>
<path d="M17.253 11.516c.411.08.338.436.411.71-.302-.143-.42-.39-.41-.71Z" fill="#C76575"/>
<path d="M8.792 7.742c.008-.205.156-.205.308-.205a.308.308 0 0 1-.308.205ZM7.166 7.522l.103.08a.965.965 0 0 1-.206.103.058.058 0 0 1-.06-.091.513.513 0 0 1 .163-.092Z" fill="#F3D66B"/>
<path d="M6.646 8.748c.072.326.205.593.538.748.266.126.194.497.418.674.172.136.404.248.491.43.218.45.095 1.1.785 1.258-.042.503.41.795.52 1.233a.739.739 0 0 0 .403.497c1.106.539 1.87 1.498 2.807 2.245a.743.743 0 0 0 .372.148c.933.102 1.13.916 1.52 1.547a6.115 6.115 0 0 1-2.182-.684c-.522-.29-1.138-.378-1.651-.717-.764-.506-1.552-.977-2.182-1.657a.463.463 0 0 1-.12-.16c-.48-1.605-1.776-2.718-2.525-4.162-.178-.342-.44-.647-.411-1.066l1.217-.334Z" fill="#903F4B"/>
<path fill-rule="evenodd" clip-rule="evenodd" d="M13.588 8.226a6.363 6.363 0 0 1-.514-.786l-.306.006c-.05.277-.199.202-.363.119a3.037 3.037 0 0 1-.012-.006l-.018-.01c-.163-.082-.323-.162-.487.01a.565.565 0 0 0-.091.656c.308.665.807 1.181 1.343 1.655.206.183.634.265.71-.062.122-.528.07-1.113-.262-1.582Zm3.641 5.483c.008-.052.015-.104.024-.155.01-.353-.033-.663-.505-.608-.249-.069-.227-.228-.205-.388.011-.08.022-.16 0-.229l-.104-.102c-.1.002-.174-.049-.251-.102a1.63 1.63 0 0 0-.063-.042c-.303-.2-.654-.278-.94-.05-.289.232-.187.55-.09.859l.024.072c.113.352.31.658.508.965.147.228.295.456.408.704.132.293.41.317.719.095.363-.267.419-.64.475-1.02Z" fill="#F0ABB5"/>
<path fill-rule="evenodd" clip-rule="evenodd" d="M17.435 14.078c.043-.207.057-.412-.182-.524-.009.05-.016.101-.024.152-.056.38-.112.754-.484 1.017-.302.223-.585.198-.719-.095a5.718 5.718 0 0 0-.408-.709c-.195-.304-.39-.608-.508-.96a7.98 7.98 0 0 0-.015-.045c-.104-.316-.213-.647.081-.885.287-.23.633-.15.94.05.019.01.036.023.053.035.08.055.157.108.262.108-.004-.172-.118-.266-.237-.363l-.042-.034c-.24-.202-.518-.34-.794-.477-.13-.065-.261-.13-.387-.201-.427-.242-.575-.564-.438-1.01.066-.214.102-.445-.056-.574-.324-.262-.422-.612-.521-.969-.025-.09-.05-.18-.08-.268-.087-.276-.249-.53-.407-.78l-.067-.106c-.082-.128-.221-.145-.335 0 .151.274.323.537.513.786.332.47.384 1.055.262 1.583-.076.326-.505.244-.71.061-.532-.473-1.035-.99-1.336-1.654a.565.565 0 0 1 .092-.666c.162-.167.332-.084.484-.01l.02.01.02.01c.151.073.307.15.356-.123-.054-.174-.14-.335-.226-.496-.137-.257-.273-.513-.282-.82l-1.31.716a3.22 3.22 0 0 1-.034.089l.066.042c.173.11.378.24.32.436-.062.209.014.34.092.475.024.042.048.083.068.127.06.126.101.263.142.4.102.336.204.674.577.856a.07.07 0 0 1 .026.043c.103.507.422.83.87 1.062l.065.033c.129.062.271.13.317.286.094.318.272.593.45.868.194.3.388.6.474.954.055.227.11.457.275.647.495.567.95 1.154 1.224 1.879a.885.885 0 0 0 .916.53c.38-.04.428-.413.471-.747.019-.15.057-.296.095-.444.026-.098.052-.196.071-.295Zm-.16 2.432c.037.832.165 1.02.634 1.02.46.03.582-.298.66-.626.047-.217-.644-.886-.883-.87-.28.02-.423.203-.41.476Z" fill="#F3A0AA"/>
<path d="M16.745 12.94c-.371-.102-.135-.41-.205-.615.369.109.135.413.206.616Z" fill="#F3A0AA"/>
<path d="M18.275 15.593c.385-.03.425.216.405.513-.278-.06-.237-.37-.405-.513Z" fill="#E18391"/>
<path d="m16.224 11.012-.037-.03.053.015-.015.015Z" fill="#D16E7E"/>
</svg>
