<svg width="24" height="24" viewBox="0 0 24 24" fill="none" xmlns="http://www.w3.org/2000/svg">
<circle cx="12" cy="12" r="12" fill="#D62D79"/>
<path d="M12.0104 11.2822C10.0234 11.2822 8.04157 11.277 6.05458 11.2874C5.75809 11.2874 5.49801 11.251 5.36277 10.9441C5.21192 10.6008 5.20152 10.2523 5.44599 9.96619C5.55523 9.83615 5.78409 9.75293 5.96095 9.74772C6.72038 9.72172 7.48501 9.72172 8.24963 9.73212C8.4733 9.73732 8.55653 9.6541 8.62935 9.45124C9.04027 8.24447 9.45119 7.04291 9.89333 5.84655C10.221 4.95709 10.9857 4.48895 11.9948 4.48375C12.9883 4.47854 13.7685 4.96229 14.0962 5.84655C14.5383 7.03251 14.944 8.22887 15.355 9.42523C15.433 9.64889 15.5214 9.73732 15.7711 9.73212C16.5097 9.71652 17.2431 9.73212 17.9818 9.73732C18.4759 9.74252 18.736 10.0078 18.7308 10.5228C18.7256 11.0221 18.4707 11.2874 17.9922 11.2874C16 11.2822 14.0078 11.2822 12.0104 11.2822ZM13.7945 9.70091C13.7581 9.58648 13.7373 9.50325 13.7113 9.42003C13.3888 8.48895 13.0663 7.55267 12.7438 6.62159C12.5981 6.19506 12.4109 6.05462 12.0156 6.04941C11.589 6.04941 11.4122 6.17945 11.2613 6.61638C10.9284 7.57347 10.5955 8.53056 10.2678 9.48765C10.247 9.55007 10.2366 9.61248 10.2158 9.69571C11.407 9.70091 12.5825 9.70091 13.7945 9.70091Z" fill="white"/>
<path d="M6.95963 14.2835C6.61632 14.2835 6.32504 14.2835 6.03375 14.2835C5.51879 14.2835 5.26912 14.0338 5.26912 13.524C5.26392 13.0091 5.51359 12.7438 6.01814 12.7386C8.15078 12.7282 10.2834 12.7178 12.4161 12.7178C14.2522 12.7178 16.0884 12.7334 17.9297 12.7334C18.221 12.7334 18.4915 12.7646 18.6319 13.0611C18.788 13.3888 18.7984 13.7321 18.5799 14.0234C18.4811 14.1534 18.273 14.2523 18.1066 14.2679C17.7737 14.3043 17.4356 14.2783 17.0559 14.2783C17.0923 14.3927 17.1131 14.4811 17.1391 14.5696C17.42 15.381 17.7008 16.1872 17.9817 16.9987C18.1378 17.4564 17.9661 17.7997 17.5136 17.961C17.0715 18.1118 16.6917 17.935 16.5357 17.498C16.182 16.5097 15.8283 15.5266 15.4902 14.5332C15.4278 14.3511 15.3497 14.2731 15.1469 14.2783C13.0507 14.2887 10.9544 14.2835 8.85299 14.2783C8.67614 14.2783 8.59292 14.3303 8.5357 14.5019C8.1924 15.4954 7.84389 16.4785 7.49018 17.4668C7.30293 17.9922 6.82438 18.1638 6.34064 17.8934C6.00254 17.7009 5.8881 17.4096 6.01294 17.0351C6.29383 16.2237 6.57471 15.4174 6.85559 14.606C6.8816 14.5175 6.91281 14.4291 6.95963 14.2835Z" fill="white"/>
</svg>
