<svg width="24" height="24" viewBox="0 0 24 24" fill="none" xmlns="http://www.w3.org/2000/svg">
<circle cx="12" cy="12" r="12" fill="url(#paint0_linear_324_2658)"/>
<path d="M6.2196 13.5984L11.064 5.2644C11.1864 5.0532 11.4924 5.0544 11.6136 5.2668L18.1621 16.746C18.2833 16.9572 18.1297 17.22 17.8861 17.22H8.77681C8.53681 17.22 8.38321 16.9632 8.49841 16.752L9.69122 14.5536C9.74642 14.4516 9.85202 14.388 9.96842 14.388L12.9552 14.3724C13.1988 14.3712 13.35 14.1084 13.2288 13.8972L11.5488 10.9764C11.4252 10.7628 11.1156 10.7652 10.9968 10.9812L9.49921 13.6872C9.44401 13.788 9.33841 13.8504 9.22441 13.8504L6.3792 13.8708C6.2364 13.8708 6.1488 13.7196 6.2196 13.5984Z" fill="white"/>
<defs>
<linearGradient id="paint0_linear_324_2658" x1="2.92969e-06" y1="12" x2="24" y2="12" gradientUnits="userSpaceOnUse">
<stop stop-color="#5B34DE"/>
<stop offset="1" stop-color="#763CE2"/>
</linearGradient>
</defs>
</svg>
