<svg width="24" height="24" viewBox="0 0 24 24" fill="none" xmlns="http://www.w3.org/2000/svg">
<circle cx="12" cy="12" r="12" fill="#172852"/>
<path d="M10.3316 16.3335C10.7816 17.9985 12.3962 19.2686 13.2116 19.2162C13.2402 19.2142 16.3043 18.6431 17.9816 15.8412C19.2866 13.6601 18.8425 11.5547 17.0672 11.5088C16.4285 11.5554 9.4746 13.1621 10.3321 16.334L10.3316 16.3335ZM16.9016 5.64038L16.8998 5.63881L16.9023 5.63746C15.784 4.68639 14.4199 4.07056 12.9669 3.86089C11.514 3.65123 10.0313 3.85627 8.6898 4.45238C8.52099 4.52304 8.35659 4.60381 8.1975 4.69426C8.08815 4.75253 7.9788 4.81036 7.8726 4.87426L7.89848 4.88213C7.58447 5.09597 7.30681 5.35881 7.0761 5.66063C4.8387 8.61443 12.3344 10.7625 16.3425 10.7688C18.1855 12.0925 18.703 7.04281 16.9016 5.64038Z" fill="#0E3CA5"/>
<path d="M9.14252 5.69998C8.1127 7.24798 4.68257 8.33856 4.1185 8.16868L4.11467 8.16148C4.13792 8.11483 4.1614 8.06848 4.1851 8.02243C4.77016 6.8958 5.60709 5.91921 6.63085 5.16853C6.8419 5.01403 7.06037 4.86943 7.28627 4.73473C7.63391 4.54287 8.02326 4.43912 8.42027 4.43256C9.9478 4.46181 9.15017 5.68806 9.14185 5.70043L9.14252 5.69998ZM8.29742 16.6379C8.37145 17.1244 8.29562 19.0454 8.19617 19.207C8.11045 19.2124 7.93202 19.2232 7.4152 18.9331C6.35138 18.3283 5.43644 17.493 4.7375 16.4885C4.03856 15.4841 3.57335 14.3358 3.376 13.1281C3.23258 12.2458 3.23258 11.3462 3.376 10.4639C3.44592 10.0351 3.54998 9.61255 3.68717 9.2003C3.71462 9.11781 3.74335 9.03591 3.77335 8.95461C4.36532 9.74211 5.05045 10.4542 5.63275 11.2496C6.18737 12.007 6.95035 13.2413 7.1056 13.505C8.0695 15.1426 8.22317 16.1528 8.29675 16.6381L8.29742 16.6379ZM19.6925 11.7961C19.6938 12.8286 19.4998 13.8521 19.1208 14.8125C18.1533 15.8522 11.6321 13.2931 11.5682 13.2652C10.6761 12.8743 7.96127 11.685 7.71625 9.81748C7.36502 7.12896 12.8168 5.25606 15.213 5.18496C15.5003 5.18833 16.3747 5.19846 16.8845 5.61246C17.7675 6.38244 18.475 7.33283 18.9594 8.39952C19.4438 9.46621 19.6938 10.6244 19.6925 11.7959V11.7961ZM15.2778 19.0801C14.5668 19.4117 13.7843 19.1701 13.9877 18.4777C14.378 17.1484 17.787 15.7854 18.5399 15.7102C18.6328 15.7012 18.6722 15.7645 18.631 15.8365C17.8466 17.2157 16.6831 18.341 15.2785 19.0789" fill="#5493F7"/>
<path d="M6.90083 20.3822C6.89073 20.5323 6.93995 20.6804 7.03791 20.7946C7.13586 20.9088 7.27473 20.9799 7.42463 20.9928C14.3321 21.0401 21 20.7228 21 19.6878C21 16.5549 6.90083 20.3822 6.90083 20.3822Z" fill="url(#paint0_linear_927_5110)"/>
<path d="M6.9008 20.3822C6.89055 20.5327 6.94007 20.6813 7.03863 20.7956C7.1372 20.9099 7.27684 20.9808 7.4273 20.9928C14.3328 21.0452 20.9917 20.8283 21 19.6878C21 16.5549 6.9008 20.3822 6.9008 20.3822ZM7.42753 20.953C7.40911 20.953 7.3907 20.9519 7.3724 20.9498C7.26711 20.9351 7.16851 20.8896 7.08898 20.819C7.00945 20.7484 6.95252 20.656 6.92533 20.5532C6.95483 20.6646 7.01965 20.7634 7.11008 20.8348C7.2005 20.9063 7.31165 20.9465 7.42685 20.9494C14.3278 20.9062 20.8918 18.7815 20.8918 19.7171C20.8918 20.672 14.3283 21 7.42753 20.953Z" fill="url(#paint1_linear_927_5110)"/>
<path d="M7.42799 11.5102C7.35876 11.5101 7.29019 11.5238 7.22622 11.5502C7.16224 11.5767 7.10412 11.6156 7.05516 11.6645C7.0062 11.7135 6.96737 11.7716 6.94089 11.8356C6.9144 11.8995 6.90079 11.9681 6.90082 12.0374V20.3822C6.90064 20.5215 6.95564 20.6553 7.05379 20.7542C7.15195 20.8531 7.28527 20.9091 7.42462 20.91C14.3319 20.8583 21.0083 18.572 21 19.688V10.2887C21.0083 9.17265 14.3341 11.4584 7.42799 11.5102Z" fill="url(#paint2_linear_927_5110)"/>
<path d="M7.69259 16.2075C8.05414 15.9598 8.41347 15.7089 8.77057 15.4549C8.93257 15.3401 9.09389 15.2243 9.26917 15.0976C9.44444 14.9709 9.63322 14.8334 9.84899 14.6739V16.1069C10.0848 16.0894 10.2616 16.0743 10.438 16.0586C10.6144 16.0428 10.7915 16.0268 11.0275 16.0037V14.5715C11.3854 14.7742 11.7446 14.9745 12.1051 15.1725C12.2662 15.2609 12.4277 15.3485 12.603 15.4425C12.7783 15.5366 12.9673 15.638 13.1828 15.7521C13.4458 15.7171 13.7084 15.6792 13.9705 15.6385V15.1133C13.4467 14.8425 12.9253 14.567 12.4063 14.2869C12.6151 14.2613 12.7888 14.2388 12.9524 14.2176C13.116 14.1965 13.2674 14.1762 13.4287 14.1533C13.5901 14.1303 13.764 14.1053 13.9703 14.0732V12.506C13.6317 12.5581 13.2926 12.6062 12.9529 12.6503C12.79 12.6716 12.6154 12.6937 12.4061 12.7193C12.6151 12.5549 12.79 12.4169 12.9526 12.2878C13.1153 12.1586 13.2676 12.0376 13.429 11.9069C13.5903 11.7761 13.7647 11.6353 13.9703 11.4647V10.9297C13.7165 10.9679 13.4586 11.0054 13.1965 11.0422C13.1923 11.0456 13.1887 11.0494 13.1844 11.0528C12.9684 11.2251 12.7794 11.3747 12.6034 11.5131L12.1053 11.9055C11.9446 12.032 11.7826 12.1575 11.6076 12.2925C11.4325 12.4275 11.2433 12.5726 11.0275 12.7369V11.3048C10.6225 11.3456 10.2132 11.3811 9.79949 11.4114C9.82402 11.7147 9.84899 12.0135 9.84899 12.124V12.8406C9.48713 12.6272 9.12764 12.4097 8.77057 12.1883C8.60947 12.0882 8.44792 11.9858 8.27287 11.8767C8.09782 11.7676 7.90882 11.6468 7.69304 11.5084L7.69057 11.5068C7.60304 11.5084 7.51574 11.5095 7.42799 11.5102C7.35876 11.5102 7.29019 11.5238 7.22622 11.5503C7.16224 11.5767 7.10412 11.6156 7.05516 11.6645C7.0062 11.7135 6.96737 11.7716 6.94089 11.8356C6.9144 11.8996 6.90079 11.9681 6.90082 12.0374V12.0432C7.10984 12.182 7.28332 12.2959 7.44712 12.401C7.61092 12.506 7.76099 12.6035 7.92344 12.7067C8.08589 12.81 8.26094 12.9203 8.46884 13.0512C8.12838 13.0644 7.78779 13.0739 7.44712 13.0798C7.28422 13.0823 7.10962 13.0843 6.90082 13.0845V14.6505C7.24175 14.6506 7.58266 14.6457 7.92344 14.6359C8.08589 14.6316 8.26094 14.6255 8.46884 14.6174C8.1301 14.856 7.78943 15.0919 7.44689 15.3251C7.28399 15.4355 7.10939 15.5532 6.90082 15.6918V16.217C7.06777 16.217 7.23427 16.2156 7.29659 16.2149C7.41539 16.2136 7.53419 16.2118 7.69259 16.2075Z" fill="url(#paint3_linear_927_5110)"/>
<path d="M11.0507 18.2127C11.1493 18.0552 11.2233 17.9369 11.2971 17.8183C11.3709 17.6997 11.4454 17.5811 11.5446 17.4227C11.3779 17.5033 11.2521 17.5631 11.1277 17.6225C11.0033 17.6819 10.8777 17.7413 10.711 17.8196L10.5746 17.4099C10.5339 17.2868 10.493 17.1635 10.4396 16.9995L10.3033 17.434C10.2623 17.5643 10.2216 17.6945 10.1683 17.868C10.0018 17.8187 9.87579 17.7812 9.75159 17.7429C9.62739 17.7047 9.50161 17.666 9.33489 17.6131C9.43366 17.7551 9.50746 17.8606 9.58239 17.9672C9.65731 18.0739 9.73021 18.1792 9.82854 18.3198C9.67554 18.4217 9.56056 18.4971 9.44604 18.5725C9.33151 18.6479 9.21609 18.7226 9.06354 18.8211C9.35948 18.831 9.65552 18.8376 9.95161 18.8409L9.89064 19.2853L9.82921 19.7297C9.95184 19.5917 10.0441 19.488 10.1361 19.3838C10.2281 19.2797 10.3202 19.1755 10.4426 19.036L10.7492 19.3298C10.8413 19.418 10.9333 19.5056 11.0561 19.6223L10.9952 19.1885L10.9337 18.755C11.1115 18.7226 11.2447 18.6974 11.3779 18.6724C11.5111 18.6474 11.6443 18.6209 11.8214 18.5858C11.6684 18.5122 11.5538 18.4568 11.4389 18.4006C11.3239 18.3443 11.204 18.2883 11.0507 18.2127Z" fill="url(#paint4_linear_927_5110)"/>
<path d="M17.7825 18.0689C17.8757 17.9114 17.9222 17.8334 18.0156 17.6768C17.8581 17.7632 17.7791 17.8068 17.6214 17.8946L17.4927 17.5145C17.4412 17.6851 17.4153 17.7699 17.3636 17.94C17.2061 17.9078 17.1271 17.8919 16.9691 17.8592L17.2025 18.1711L16.8395 18.4496C17.0078 18.4355 17.092 18.4271 17.2601 18.4134C17.2376 18.5849 17.2254 18.6706 17.2022 18.8423L17.4927 18.4845C17.6086 18.5864 17.6669 18.6375 17.7827 18.7401C17.7602 18.5765 17.7483 18.4949 17.7251 18.3313C17.893 18.2874 17.9771 18.2658 18.145 18.2231C18.0001 18.161 17.9274 18.1299 17.7825 18.0689Z" fill="url(#paint5_linear_927_5110)"/>
<path d="M16.0232 14.655L16.2572 14.2626C16.0997 14.3494 16.02 14.3929 15.8621 14.4802L15.7327 14.0999L15.6045 14.5245C15.447 14.4912 15.3684 14.4743 15.2103 14.4399L15.4438 14.7549C15.2989 14.8651 15.226 14.92 15.0804 15.0298C15.2494 15.0172 15.3336 15.0109 15.5012 14.9977C15.4787 15.1689 15.4663 15.2546 15.4431 15.4252C15.5595 15.2832 15.6173 15.2121 15.7329 15.0694L16.0236 15.3259C16.0011 15.1624 15.9888 15.0807 15.9658 14.9173C16.1339 14.8723 16.2183 14.8516 16.3866 14.8082C16.2412 14.745 16.1685 14.7153 16.0232 14.655Z" fill="url(#paint6_linear_927_5110)"/>
<path d="M17.2603 12.1469C17.2378 12.3186 17.2254 12.4043 17.2022 12.576L17.4927 12.218C17.6088 12.3199 17.6668 12.3712 17.7827 12.4736L17.7249 12.065C17.8927 12.02 17.9769 11.9993 18.145 11.9568C18.0001 11.8944 17.9274 11.8636 17.7825 11.8024C17.8756 11.6449 17.9222 11.5668 18.0154 11.4102C17.8579 11.4969 17.7791 11.5405 17.6214 11.6283C17.5701 11.4762 17.5442 11.4003 17.4927 11.2485L17.3635 11.6737L16.9693 11.5929L17.2029 11.9046L16.84 12.1836L17.2603 12.1469Z" fill="url(#paint7_linear_927_5110)"/>
<path d="M19.3481 13.4774C19.4507 13.323 19.5078 13.2452 19.6259 13.0915C19.4745 13.152 19.3265 13.2209 19.1827 13.2978L19.0538 12.9135L18.9248 13.3347C18.7673 13.298 18.6881 13.2803 18.5306 13.2447L18.7637 13.5597C18.6188 13.6679 18.5464 13.7226 18.4015 13.8322C18.5693 13.82 18.6535 13.8137 18.8213 13.8034C18.7988 13.9744 18.7867 14.0601 18.7635 14.2309C18.8796 14.0907 18.9377 14.0205 19.0538 13.8812C19.1699 13.9872 19.2212 14.0412 19.3485 14.1467C19.3233 13.9827 19.3107 13.9008 19.2869 13.7366C19.4544 13.6983 19.6233 13.6662 19.7931 13.6403C19.6025 13.5732 19.5074 13.5426 19.3481 13.4774Z" fill="url(#paint8_linear_927_5110)"/>
<path d="M18.2971 15.1662L18.1951 14.9322L18.093 15.1999L17.823 15.2654L18.0293 15.4051C18.0037 15.5147 17.9908 15.5696 17.9647 15.6792C18.0568 15.6065 18.1024 15.5701 18.1942 15.4978C18.286 15.5397 18.3319 15.5608 18.4237 15.6034L18.3592 15.3507C18.4417 15.2672 18.4829 15.2256 18.5655 15.1428C18.4586 15.1518 18.4048 15.1565 18.2971 15.1662Z" fill="url(#paint9_linear_927_5110)"/>
<path d="M7.59921 14.3301C7.99333 14.322 8.38734 14.309 8.78114 14.2912C9.21659 14.2715 9.65166 14.2442 10.0861 14.209V16.0891C10.369 16.0666 10.5098 16.0531 10.7929 16.0268V14.1467C11.4197 14.0885 12.0456 14.0193 12.67 13.9393C12.8638 13.9136 13.0631 13.8889 13.2775 13.8596C13.492 13.8304 13.7201 13.7975 13.9714 13.7586V12.819C13.7203 12.8579 13.492 12.8905 13.278 12.92C13.064 12.9495 12.8649 12.9754 12.6705 12.9999C12.4761 13.0244 12.288 13.0476 12.0956 13.0703C11.9032 13.093 11.7046 13.1153 11.4906 13.1378C11.2766 13.1603 11.0471 13.1828 10.7931 13.2071V11.3277C10.5591 11.3502 10.3234 11.3709 10.0861 11.3898V13.2706C9.65204 13.3057 9.21735 13.333 8.78226 13.3525C8.58876 13.3612 8.40111 13.3682 8.20761 13.375C8.01411 13.3817 7.81544 13.3873 7.60011 13.3914C7.38479 13.3954 7.15641 13.3988 6.90149 13.3988V14.3384C7.15551 14.3373 7.38501 14.3344 7.59921 14.3301Z" fill="url(#paint10_linear_927_5110)"/>
<path d="M12.813 11.5223C12.621 11.6744 12.4437 11.8148 12.2671 11.953C12.0905 12.0911 11.9152 12.23 11.7237 12.3785C11.5323 12.527 11.325 12.6854 11.0899 12.8654C11.301 12.8442 11.4067 12.8336 11.6175 12.8111C11.8531 12.6289 12.0581 12.468 12.2493 12.3175C12.4406 12.167 12.6177 12.0272 12.795 11.8871C12.9723 11.7469 13.1498 11.606 13.3413 11.4521C13.5327 11.2982 13.7384 11.1317 13.9713 10.9391C13.9744 10.9355 13.9764 10.9319 13.9796 10.9283C13.8125 10.9535 13.6435 10.9784 13.4727 11.003C13.4659 11.0095 13.4576 11.0141 13.4486 11.0163C13.2123 11.206 13.0051 11.37 12.813 11.5223Z" fill="url(#paint11_linear_927_5110)"/>
<path d="M8.09556 12.6406C8.28546 12.7607 8.48773 12.8881 8.73186 13.0404C8.94291 13.0312 9.04821 13.0256 9.25926 13.0134C9.02323 12.8705 8.81646 12.7434 8.62566 12.6237C8.43486 12.504 8.25823 12.3931 8.08116 12.2813C7.74735 12.0704 7.41539 11.8566 7.08531 11.64C7.00992 11.7049 6.95459 11.7899 6.92578 11.885C7.15843 12.0392 7.35553 12.1676 7.53868 12.286C7.72926 12.4082 7.90498 12.5204 8.09556 12.6406Z" fill="url(#paint12_linear_927_5110)"/>
<path d="M12.7801 14.6624C12.5672 14.5485 12.3549 14.4336 12.1431 14.3177C11.9331 14.3427 11.8281 14.3546 11.6172 14.3774C12.0077 14.5952 12.4001 14.8096 12.7945 15.0204C13.1848 15.2294 13.5767 15.4356 13.9701 15.639V15.2886C13.7287 15.164 13.5257 15.0578 13.3363 14.9579C13.1468 14.858 12.9704 14.7641 12.7801 14.6624Z" fill="url(#paint13_linear_927_5110)"/>
<path d="M8.625 15.0323C8.43397 15.1673 8.25712 15.2915 8.08027 15.4148C7.90342 15.5381 7.72635 15.6601 7.53442 15.791C7.3425 15.922 7.13617 16.061 6.90015 16.2185C7.1112 16.2185 7.21672 16.2174 7.428 16.2143C7.66402 16.0541 7.87057 15.9116 8.06205 15.7784C8.25352 15.6452 8.4306 15.5213 8.607 15.3959C8.7834 15.2706 8.96047 15.1451 9.15217 15.0074C9.34387 14.8697 9.5502 14.7196 9.786 14.5459C9.57517 14.561 9.46965 14.5684 9.2586 14.5803C9.04828 14.7322 8.83708 14.8829 8.625 15.0323Z" fill="url(#paint14_linear_927_5110)"/>
<defs>
<linearGradient id="paint0_linear_927_5110" x1="6.90083" y1="19.7263" x2="21" y2="19.7263" gradientUnits="userSpaceOnUse">
<stop stop-color="#000040"/>
<stop offset="0.325" stop-color="#000043"/>
<stop offset="0.585" stop-color="#00004D"/>
<stop offset="0.823" stop-color="#00005E"/>
<stop offset="1" stop-color="#000070"/>
</linearGradient>
<linearGradient id="paint1_linear_927_5110" x1="13.9503" y1="18.4553" x2="13.9503" y2="21" gradientUnits="userSpaceOnUse">
<stop offset="0.35" stop-color="#00209F"/>
<stop offset="0.645" stop-color="#001F9D"/>
<stop offset="0.752" stop-color="#001D96"/>
<stop offset="0.828" stop-color="#00198B"/>
<stop offset="0.889" stop-color="#00137A"/>
<stop offset="0.941" stop-color="#000C64"/>
<stop offset="0.987" stop-color="#000349"/>
<stop offset="1" stop-color="#000040"/>
</linearGradient>
<linearGradient id="paint2_linear_927_5110" x1="6.90082" y1="15.4457" x2="21" y2="15.4457" gradientUnits="userSpaceOnUse">
<stop stop-color="#00209F"/>
<stop offset="0.021" stop-color="#0222A1"/>
<stop offset="0.244" stop-color="#1333B2"/>
<stop offset="0.487" stop-color="#1D3DBC"/>
<stop offset="0.791" stop-color="#2040BF"/>
<stop offset="0.841" stop-color="#1E3DBC"/>
<stop offset="0.882" stop-color="#1933B2"/>
<stop offset="0.919" stop-color="#1122A1"/>
<stop offset="0.954" stop-color="#050A89"/>
<stop offset="0.966" stop-color="#00007F"/>
<stop offset="1" stop-color="#2040BF"/>
</linearGradient>
<linearGradient id="paint3_linear_927_5110" x1="6.90082" y1="13.5732" x2="21.0002" y2="13.5732" gradientUnits="userSpaceOnUse">
<stop stop-color="#DFDFDF"/>
<stop offset="0.021" stop-color="#E1E1E1"/>
<stop offset="0.244" stop-color="#F2F2F2"/>
<stop offset="0.487" stop-color="#FCFCFC"/>
<stop offset="0.791" stop-color="white"/>
<stop offset="0.841" stop-color="#FCFCFC"/>
<stop offset="0.882" stop-color="#F2F2F2"/>
<stop offset="0.919" stop-color="#E1E1E1"/>
<stop offset="0.954" stop-color="#C9C9C9"/>
<stop offset="0.966" stop-color="#BFBFBF"/>
<stop offset="1" stop-color="white"/>
</linearGradient>
<linearGradient id="paint4_linear_927_5110" x1="6.90061" y1="18.3646" x2="21.0002" y2="18.3646" gradientUnits="userSpaceOnUse">
<stop stop-color="#DFDFDF"/>
<stop offset="0.021" stop-color="#E1E1E1"/>
<stop offset="0.244" stop-color="#F2F2F2"/>
<stop offset="0.487" stop-color="#FCFCFC"/>
<stop offset="0.791" stop-color="white"/>
<stop offset="0.841" stop-color="#FCFCFC"/>
<stop offset="0.882" stop-color="#F2F2F2"/>
<stop offset="0.919" stop-color="#E1E1E1"/>
<stop offset="0.954" stop-color="#C9C9C9"/>
<stop offset="0.966" stop-color="#BFBFBF"/>
<stop offset="1" stop-color="white"/>
</linearGradient>
<linearGradient id="paint5_linear_927_5110" x1="6.90129" y1="18.1785" x2="20.9998" y2="18.1785" gradientUnits="userSpaceOnUse">
<stop stop-color="#DFDFDF"/>
<stop offset="0.021" stop-color="#E1E1E1"/>
<stop offset="0.244" stop-color="#F2F2F2"/>
<stop offset="0.487" stop-color="#FCFCFC"/>
<stop offset="0.791" stop-color="white"/>
<stop offset="0.841" stop-color="#FCFCFC"/>
<stop offset="0.882" stop-color="#F2F2F2"/>
<stop offset="0.919" stop-color="#E1E1E1"/>
<stop offset="0.954" stop-color="#C9C9C9"/>
<stop offset="0.966" stop-color="#BFBFBF"/>
<stop offset="1" stop-color="white"/>
</linearGradient>
<linearGradient id="paint6_linear_927_5110" x1="6.90057" y1="14.7614" x2="21" y2="14.7614" gradientUnits="userSpaceOnUse">
<stop stop-color="#DFDFDF"/>
<stop offset="0.021" stop-color="#E1E1E1"/>
<stop offset="0.244" stop-color="#F2F2F2"/>
<stop offset="0.487" stop-color="#FCFCFC"/>
<stop offset="0.791" stop-color="white"/>
<stop offset="0.841" stop-color="#FCFCFC"/>
<stop offset="0.882" stop-color="#F2F2F2"/>
<stop offset="0.919" stop-color="#E1E1E1"/>
<stop offset="0.954" stop-color="#C9C9C9"/>
<stop offset="0.966" stop-color="#BFBFBF"/>
<stop offset="1" stop-color="white"/>
</linearGradient>
<linearGradient id="paint7_linear_927_5110" x1="6.90104" y1="11.9122" x2="21" y2="11.9122" gradientUnits="userSpaceOnUse">
<stop stop-color="#DFDFDF"/>
<stop offset="0.021" stop-color="#E1E1E1"/>
<stop offset="0.244" stop-color="#F2F2F2"/>
<stop offset="0.487" stop-color="#FCFCFC"/>
<stop offset="0.791" stop-color="white"/>
<stop offset="0.841" stop-color="#FCFCFC"/>
<stop offset="0.882" stop-color="#F2F2F2"/>
<stop offset="0.919" stop-color="#E1E1E1"/>
<stop offset="0.954" stop-color="#C9C9C9"/>
<stop offset="0.966" stop-color="#BFBFBF"/>
<stop offset="1" stop-color="white"/>
</linearGradient>
<linearGradient id="paint8_linear_927_5110" x1="6.90079" y1="13.573" x2="21" y2="13.573" gradientUnits="userSpaceOnUse">
<stop stop-color="#DFDFDF"/>
<stop offset="0.021" stop-color="#E1E1E1"/>
<stop offset="0.244" stop-color="#F2F2F2"/>
<stop offset="0.487" stop-color="#FCFCFC"/>
<stop offset="0.791" stop-color="white"/>
<stop offset="0.841" stop-color="#FCFCFC"/>
<stop offset="0.882" stop-color="#F2F2F2"/>
<stop offset="0.919" stop-color="#E1E1E1"/>
<stop offset="0.954" stop-color="#C9C9C9"/>
<stop offset="0.966" stop-color="#BFBFBF"/>
<stop offset="1" stop-color="white"/>
</linearGradient>
<linearGradient id="paint9_linear_927_5110" x1="6.89992" y1="15.3057" x2="21.0002" y2="15.3057" gradientUnits="userSpaceOnUse">
<stop stop-color="#DFDFDF"/>
<stop offset="0.021" stop-color="#E1E1E1"/>
<stop offset="0.244" stop-color="#F2F2F2"/>
<stop offset="0.487" stop-color="#FCFCFC"/>
<stop offset="0.791" stop-color="white"/>
<stop offset="0.841" stop-color="#FCFCFC"/>
<stop offset="0.882" stop-color="#F2F2F2"/>
<stop offset="0.919" stop-color="#E1E1E1"/>
<stop offset="0.954" stop-color="#C9C9C9"/>
<stop offset="0.966" stop-color="#BFBFBF"/>
<stop offset="1" stop-color="white"/>
</linearGradient>
<linearGradient id="paint10_linear_927_5110" x1="6.90081" y1="13.7086" x2="21.0002" y2="13.7086" gradientUnits="userSpaceOnUse">
<stop stop-color="#BF1010"/>
<stop offset="0.021" stop-color="#C11212"/>
<stop offset="0.244" stop-color="#D22323"/>
<stop offset="0.487" stop-color="#DC2D2D"/>
<stop offset="0.791" stop-color="#DF3030"/>
<stop offset="0.841" stop-color="#DC2E2E"/>
<stop offset="0.882" stop-color="#D22626"/>
<stop offset="0.919" stop-color="#C11919"/>
<stop offset="0.954" stop-color="#A90808"/>
<stop offset="0.966" stop-color="#9F0000"/>
<stop offset="1" stop-color="#DF3030"/>
</linearGradient>
<linearGradient id="paint11_linear_927_5110" x1="6.90085" y1="11.8967" x2="21" y2="11.8967" gradientUnits="userSpaceOnUse">
<stop stop-color="#BF1010"/>
<stop offset="0.021" stop-color="#C11212"/>
<stop offset="0.244" stop-color="#D22323"/>
<stop offset="0.487" stop-color="#DC2D2D"/>
<stop offset="0.791" stop-color="#DF3030"/>
<stop offset="0.841" stop-color="#DC2E2E"/>
<stop offset="0.882" stop-color="#D22626"/>
<stop offset="0.919" stop-color="#C11919"/>
<stop offset="0.954" stop-color="#A90808"/>
<stop offset="0.966" stop-color="#9F0000"/>
<stop offset="1" stop-color="#DF3030"/>
</linearGradient>
<linearGradient id="paint12_linear_927_5110" x1="6.90081" y1="12.34" x2="21" y2="12.34" gradientUnits="userSpaceOnUse">
<stop stop-color="#BF1010"/>
<stop offset="0.021" stop-color="#C11212"/>
<stop offset="0.244" stop-color="#D22323"/>
<stop offset="0.487" stop-color="#DC2D2D"/>
<stop offset="0.791" stop-color="#DF3030"/>
<stop offset="0.841" stop-color="#DC2E2E"/>
<stop offset="0.882" stop-color="#D22626"/>
<stop offset="0.919" stop-color="#C11919"/>
<stop offset="0.954" stop-color="#A90808"/>
<stop offset="0.966" stop-color="#9F0000"/>
<stop offset="1" stop-color="#DF3030"/>
</linearGradient>
<linearGradient id="paint13_linear_927_5110" x1="6.90057" y1="14.9784" x2="21.0002" y2="14.9784" gradientUnits="userSpaceOnUse">
<stop stop-color="#BF1010"/>
<stop offset="0.021" stop-color="#C11212"/>
<stop offset="0.244" stop-color="#D22323"/>
<stop offset="0.487" stop-color="#DC2D2D"/>
<stop offset="0.791" stop-color="#DF3030"/>
<stop offset="0.841" stop-color="#DC2E2E"/>
<stop offset="0.882" stop-color="#D22626"/>
<stop offset="0.919" stop-color="#C11919"/>
<stop offset="0.954" stop-color="#A90808"/>
<stop offset="0.966" stop-color="#9F0000"/>
<stop offset="1" stop-color="#DF3030"/>
</linearGradient>
<linearGradient id="paint14_linear_927_5110" x1="6.90082" y1="15.3813" x2="20.9998" y2="15.3813" gradientUnits="userSpaceOnUse">
<stop stop-color="#BF1010"/>
<stop offset="0.021" stop-color="#C11212"/>
<stop offset="0.244" stop-color="#D22323"/>
<stop offset="0.487" stop-color="#DC2D2D"/>
<stop offset="0.791" stop-color="#DF3030"/>
<stop offset="0.841" stop-color="#DC2E2E"/>
<stop offset="0.882" stop-color="#D22626"/>
<stop offset="0.919" stop-color="#C11919"/>
<stop offset="0.954" stop-color="#A90808"/>
<stop offset="0.966" stop-color="#9F0000"/>
<stop offset="1" stop-color="#DF3030"/>
</linearGradient>
</defs>
</svg>
