<svg width="24" height="24" viewBox="0 0 24 24" fill="none" xmlns="http://www.w3.org/2000/svg">
<circle cx="12" cy="12" r="12" fill="#562FFF"/>
<path d="M17.4142 9.0783C17.4142 7.94023 16.8645 6.93286 16.0196 6.31441L18.3 4L16.9368 4.00638L15.1243 5.84579C14.7882 5.73102 14.4302 5.67045 14.0564 5.67045H7.81813V14.638L15.3285 7.01574C16.0039 7.4461 16.4562 8.2112 16.4562 9.08149C16.4562 10.4236 15.3788 11.517 14.0564 11.517H13.8585L5.5 20H6.85696L8.49661 18.3359H14.0564C15.9096 18.3359 17.4142 16.8057 17.4142 14.9281C17.4142 13.688 16.7577 12.6041 15.7808 12.008C16.7577 11.4055 17.4142 10.3184 17.4142 9.0783ZM8.77617 12.2853V6.64276H14.0564C14.1475 6.64276 14.2354 6.64913 14.3234 6.6587L8.77617 12.2853ZM16.4562 14.9217C16.4562 16.2638 15.3788 17.3572 14.0564 17.3572H9.45465L14.2354 12.5053C15.473 12.6009 16.4562 13.6434 16.4562 14.9217Z" fill="white"/>
</svg>
