<svg width="24" height="24" viewBox="0 0 24 24" fill="none" xmlns="http://www.w3.org/2000/svg">
<circle cx="12" cy="12" r="12" fill="#121212"/>
<path d="M11.9779 0.000271505C11.0679 -0.00613907 10.1605 0.100994 9.2761 0.319279V15.256C9.27382 15.4009 9.21605 15.5391 9.1151 15.6413C9.01416 15.7434 8.87803 15.8013 8.73575 15.8027H7.65402C7.60093 15.8031 7.54828 15.7928 7.49911 15.7724C7.44995 15.752 7.40523 15.7219 7.36755 15.6838C7.32986 15.6457 7.29995 15.6004 7.27954 15.5504C7.25913 15.5005 7.24862 15.447 7.24863 15.3929V0.956769C5.10908 1.86211 3.27973 3.39097 1.99015 5.35149C0.700571 7.31201 0.00822431 9.61682 0 11.9767C0.0117706 13.571 0.332381 15.1472 0.943449 16.615C1.55452 18.0828 2.44402 19.4134 3.56096 20.5303C4.6779 21.6472 6.0003 22.5286 7.45235 23.1239C8.90439 23.7192 10.4575 24.0167 12.0227 23.9993C13.5819 24.0167 15.1292 23.7205 16.5758 23.1275C18.0224 22.5345 19.3399 21.6565 20.4527 20.5438C21.5654 19.4311 22.4516 18.1056 23.0603 16.6432C23.669 15.1809 23.9884 13.6106 24 12.0223C23.961 8.80744 22.6749 5.73883 20.4225 3.48642C18.1701 1.23402 15.1343 -0.0192369 11.9779 0.000271505ZM11.7527 16.9864C11.7511 17.1194 11.6983 17.2464 11.6056 17.3401C11.5129 17.4339 11.3878 17.4868 11.2572 17.4874H10.1755C10.0449 17.4868 9.91977 17.4339 9.82709 17.3401C9.7344 17.2464 9.68156 17.1194 9.67994 16.9864V9.38108C9.68156 9.24806 9.7344 9.12102 9.82709 9.0273C9.91977 8.93358 10.0449 8.88068 10.1755 8.88001H11.2572C11.3878 8.88068 11.5129 8.93358 11.6056 9.0273C11.6983 9.12102 11.7511 9.24806 11.7527 9.38108V16.9864ZM14.1841 17.7151C14.1824 17.8482 14.1296 17.9752 14.0369 18.0689C13.9442 18.1626 13.8191 18.2155 13.6885 18.2162H12.6068C12.4762 18.2155 12.3511 18.1626 12.2584 18.0689C12.1657 17.9752 12.1129 17.8482 12.1113 17.7151V8.65282C12.1129 8.5198 12.1657 8.39276 12.2584 8.29904C12.3511 8.20532 12.4762 8.15242 12.6068 8.15175H13.6885C13.8191 8.15242 13.9442 8.20532 14.0369 8.29904C14.1296 8.39276 14.1824 8.5198 14.1841 8.65282V17.7151ZM16.6154 16.351C16.6138 16.484 16.5609 16.611 16.4682 16.7047C16.3756 16.7985 16.2504 16.8514 16.1199 16.852H15.0412C14.9106 16.8514 14.7855 16.7985 14.6928 16.7047C14.6001 16.611 14.5473 16.484 14.5457 16.351V10.1099C14.5473 9.97685 14.6001 9.8498 14.6928 9.75608C14.7855 9.66236 14.9106 9.60947 15.0412 9.60879H16.1229C16.2535 9.60947 16.3786 9.66236 16.4713 9.75608C16.564 9.8498 16.6169 9.97685 16.6185 10.1099L16.6154 16.351Z" fill="#FF005C"/>
</svg>
