<svg width="24" height="24" viewBox="0 0 24 24" fill="none" xmlns="http://www.w3.org/2000/svg">
<circle cx="12" cy="12" r="12" fill="#FACFD8"/>
<path d="M9.18682 15.5596C9.60306 15.5596 9.95196 15.6972 10.2335 15.9724C10.5151 16.2477 10.6559 16.5994 10.6559 17.0275C10.6559 17.4556 10.5151 17.8042 10.2335 18.0733C9.95196 18.3425 9.60306 18.477 9.18682 18.477C8.78282 18.477 8.43698 18.3425 8.14929 18.0733C7.86159 17.8042 7.71774 17.4556 7.71774 17.0275C7.71774 16.5994 7.86159 16.2477 8.14929 15.9724C8.43698 15.6972 8.78282 15.5596 9.18682 15.5596ZM14.806 15.5596C15.2223 15.5596 15.5712 15.6972 15.8528 15.9724C16.1343 16.2477 16.2751 16.5994 16.2751 17.0275C16.2751 17.4556 16.1343 17.8042 15.8528 18.0733C15.5712 18.3425 15.2223 18.477 14.806 18.477C14.402 18.477 14.0562 18.3425 13.7685 18.0733C13.4808 17.8042 13.337 17.4556 13.337 17.0275C13.337 16.5994 13.4808 16.2477 13.7685 15.9724C14.0562 15.6972 14.402 15.5596 14.806 15.5596ZM10.3804 5.52301V8.93582L10.3804 9.01181C10.3798 9.32369 10.3757 9.62742 10.3682 9.92301C10.8965 9.85814 11.4362 9.82572 11.9872 9.82572C12.5512 9.82572 13.1033 9.85968 13.6434 9.92759C13.635 9.60578 13.6308 9.27518 13.6308 8.93582V5.52301H15.9997V8.93582L15.9996 9.01181C15.9987 9.5138 15.9887 9.99469 15.9697 10.4545C16.1218 10.5053 16.2728 10.5592 16.4228 10.6162C17.8087 11.1432 19.046 11.8609 20.1345 12.7691L19.1918 14.1988L19.1442 14.1636C18.158 13.4404 17.0685 12.8747 15.8757 12.4664C15.8579 12.4603 15.84 12.4542 15.8221 12.4482C15.7622 13.0541 15.6928 13.6631 15.614 14.2752H14.0348L14.0134 14.1241C13.9126 13.4022 13.8292 12.6825 13.7632 11.965C13.1876 11.8843 12.5956 11.844 11.9872 11.844C11.3917 11.844 10.8124 11.8827 10.2493 11.9599C10.1796 12.7266 10.0948 13.4984 9.99481 14.2752H8.41556L8.39421 14.1241C8.31553 13.5609 8.24747 12.9989 8.19 12.4383L8.16048 12.4482L8.1072 12.4664C6.90083 12.8812 5.79264 13.4587 4.78265 14.1988L3.84 12.7691L3.88544 12.7314C4.96294 11.841 6.18503 11.1359 7.55171 10.6162C7.71371 10.5546 7.87698 10.4966 8.04152 10.4422C8.02154 9.96091 8.01156 9.45875 8.01156 8.93582V5.52301H10.3804Z" fill="#EC6998"/>
</svg>
