<svg width="24" height="24" viewBox="0 0 24 24" fill="none" xmlns="http://www.w3.org/2000/svg">
<circle cx="12" cy="12" r="12" fill="#121212"/>
<path d="M11.3506 21.1609C8.21839 17.3851 5.12069 13.6552 2 9.8908C2.1092 9.87931 2.17816 9.86782 2.25287 9.86782C4.21839 9.86782 6.18391 9.86782 8.14943 9.86207C8.35632 9.86207 8.42529 9.93103 8.47126 10.1149C9.41954 13.7471 10.3793 17.3793 11.3333 21.0115C11.3391 21.0402 11.3391 21.069 11.3506 21.1609Z" fill="white"/>
<path d="M12.6322 21.0862C12.8448 20.2644 13.0575 19.4368 13.2759 18.6149C14.0172 15.7988 14.7586 12.9885 15.4943 10.1724C15.5517 9.94253 15.6379 9.85632 15.8908 9.86207C17.8103 9.87356 19.7299 9.86782 21.6494 9.86782C21.7414 9.86782 21.8333 9.86782 22 9.86782C18.8621 13.6437 15.7644 17.3793 12.6724 21.1092C12.6552 21.1034 12.6437 21.092 12.6322 21.0862Z" fill="white"/>
<path d="M9.06896 9.87931C11.0287 9.87931 12.9598 9.87931 14.9138 9.87931C13.9483 13.5517 12.9828 17.2069 12.023 20.8621C12 20.8621 11.9828 20.8678 11.9598 20.8678C11 17.2126 10.0345 13.5575 9.06896 9.87931Z" fill="white"/>
<path d="M5.40805 5.22988C6.29885 6.57471 7.15517 7.87356 8.04023 9.2069C6.01149 9.2069 4.03448 9.2069 2 9.2069C3.14368 7.87356 4.25862 6.56896 5.40805 5.22988Z" fill="white"/>
<path d="M18.569 5.24138C19.7069 6.56897 20.8218 7.86782 21.9713 9.2069C19.9425 9.2069 17.9713 9.2069 15.9425 9.2069C16.8218 7.87356 17.6839 6.57471 18.569 5.24138Z" fill="white"/>
<path d="M14.7184 9.21264C12.8793 9.21264 11.1034 9.21264 9.25862 9.21264C10.1782 7.86782 11.069 6.56322 11.9885 5.22414C12.908 6.56322 13.7989 7.86207 14.7184 9.21264Z" fill="white"/>
<path d="M8.65517 8.96552C7.77011 7.63218 6.90805 6.33333 6.02299 5C7.81609 5 9.56322 5 11.3621 5C10.4598 6.32759 9.56897 7.62644 8.65517 8.96552Z" fill="white"/>
<path d="M12.6149 5C14.4138 5 16.1609 5 17.954 5C17.0747 6.33333 16.2126 7.63218 15.3276 8.96552C14.4253 7.64368 13.5345 6.34483 12.6149 5Z" fill="white"/>
</svg>
