<svg width="24" height="24" viewBox="0 0 24 24" fill="none" xmlns="http://www.w3.org/2000/svg">
<path d="M21.2901 17.3822L21.3954 17.1717C21.784 16.2394 21.4208 15.1532 20.5475 14.6408C20.2352 14.4569 19.8801 14.3597 19.5204 14.3597C18.802 14.3597 18.1288 14.7437 17.7657 15.3638L17.709 15.4528L16.5916 17.3903C16.5477 17.4852 16.4944 17.5754 16.4355 17.661L16.4308 17.668L16.4227 17.6818L16.4135 17.6945C16.3822 17.7385 16.3487 17.7813 16.314 17.8218H20.0964C20.6424 17.8218 21.0645 17.6656 21.2913 17.3799L21.2901 17.3822Z" fill="url(#paint0_linear_778_6372)"/>
<path d="M12.143 22.5678H12.2772C13.0556 22.5574 13.7797 22.3804 14.3164 22.0693L19.8697 18.864C20.049 18.761 20.226 18.6304 20.3972 18.4788C20.3 18.488 20.1993 18.4927 20.0952 18.4927H9.51495C9.41205 18.4915 9.31023 18.4811 9.21075 18.4637L11.1054 21.7454C11.3946 22.2474 11.7624 22.5389 12.1418 22.5689L12.143 22.5678Z" fill="url(#paint1_linear_778_6372)"/>
<path d="M3.02014 17.2283C3.04328 17.2676 3.06525 17.3081 3.08954 17.3475C3.48744 18.0149 4.00217 18.5539 4.54004 18.8651L10.0922 22.0703C10.2726 22.1744 10.4727 22.2635 10.6902 22.3364C10.6335 22.2566 10.5791 22.171 10.5271 22.0808L7.97427 17.6587C7.91871 17.5788 7.86783 17.492 7.82391 17.3984L5.35435 13.1208C5.26297 12.997 5.18663 12.864 5.12879 12.7264C5.11954 12.7033 5.11029 12.679 5.10103 12.6547L3.21563 15.9212C2.92645 16.4221 2.85705 16.8848 3.02014 17.2272V17.2283Z" fill="url(#paint2_linear_778_6372)"/>
<path d="M4.80377 11.8323L5.13805 11.2539C5.19357 11.1243 5.26645 10.9983 5.35435 10.8791L7.96732 6.3529L7.97776 6.33436L7.98586 6.3205L7.9951 6.30778C8.0275 6.26152 8.06104 6.21754 8.09686 6.1759H4.31449C3.7373 6.1759 3.30238 6.34708 3.08608 6.65944C3.06179 6.70108 3.0375 6.74272 3.01437 6.78436C2.63728 7.46104 2.42908 8.17588 2.42908 8.79472V15.2064C2.42908 15.4146 2.45221 15.6321 2.49848 15.8565C2.53896 15.7674 2.58639 15.6772 2.63728 15.5882L4.80493 11.8334L4.80377 11.8323Z" fill="url(#paint3_linear_778_6372)"/>
<path d="M8.6486 5.50616H14.9341C15.0231 5.50963 15.111 5.52004 15.1978 5.53507L13.3032 2.25346C13.0116 1.74913 12.6427 1.45763 12.2621 1.43103H12.2563C12.2448 1.43103 12.2251 1.43103 12.2043 1.43103C12.18 1.43103 12.1557 1.43103 12.1326 1.43103C11.3529 1.44144 10.63 1.61842 10.0933 1.92842L4.54003 5.13485C4.36074 5.23895 4.18377 5.36735 4.01257 5.51888C4.10974 5.50963 4.21037 5.505 4.31447 5.505H8.6486V5.50616Z" fill="url(#paint4_linear_778_6372)"/>
<path d="M16.0503 5.67277L17.7691 8.67793C18.1323 9.29677 18.809 9.68311 19.5308 9.68311C19.8916 9.68311 20.2491 9.58597 20.5626 9.40087C21.5341 8.82943 21.8604 7.57555 21.2901 6.60391L21.2068 6.46861C20.8309 5.89023 20.3544 5.41482 19.8697 5.13489L14.3164 1.92846C14.1371 1.82436 13.937 1.73645 13.7207 1.66357C13.7774 1.74339 13.8318 1.82899 13.8838 1.91805L16.0515 5.67277H16.0503Z" fill="url(#paint5_linear_778_6372)"/>
<defs>
<linearGradient id="paint0_linear_778_6372" x1="2.42906" y1="12.1626" x2="21.5709" y2="12.1626" gradientUnits="userSpaceOnUse">
<stop stop-color="#FE5000"/>
<stop offset="1" stop-color="#FF8412"/>
</linearGradient>
<linearGradient id="paint1_linear_778_6372" x1="2.42908" y1="12.1626" x2="21.5709" y2="12.1626" gradientUnits="userSpaceOnUse">
<stop stop-color="#FE5000"/>
<stop offset="1" stop-color="#FF8412"/>
</linearGradient>
<linearGradient id="paint2_linear_778_6372" x1="2.42907" y1="12.1625" x2="21.5709" y2="12.1625" gradientUnits="userSpaceOnUse">
<stop stop-color="#FE5000"/>
<stop offset="1" stop-color="#FF8412"/>
</linearGradient>
<linearGradient id="paint3_linear_778_6372" x1="2.42908" y1="12.1626" x2="21.5709" y2="12.1626" gradientUnits="userSpaceOnUse">
<stop stop-color="#FE5000"/>
<stop offset="1" stop-color="#FF8412"/>
</linearGradient>
<linearGradient id="paint4_linear_778_6372" x1="2.42906" y1="12.1626" x2="21.5709" y2="12.1626" gradientUnits="userSpaceOnUse">
<stop stop-color="#FE5000"/>
<stop offset="1" stop-color="#FF8412"/>
</linearGradient>
<linearGradient id="paint5_linear_778_6372" x1="2.42906" y1="12.1626" x2="21.5709" y2="12.1626" gradientUnits="userSpaceOnUse">
<stop stop-color="#FE5000"/>
<stop offset="1" stop-color="#FF8412"/>
</linearGradient>
</defs>
</svg>
