<svg width="24" height="24" viewBox="0 0 24 24" fill="none" xmlns="http://www.w3.org/2000/svg">
<g clip-path="url(#clip0_2046_6835)">
<circle cx="12" cy="12" r="12" fill="url(#paint0_radial_2046_6835)"/>
<mask id="mask0_2046_6835" style="mask-type:alpha" maskUnits="userSpaceOnUse" x="0" y="0" width="24" height="24">
<path d="M0 12C0 18.6274 5.37258 24 12 24C18.6274 24 24 18.6274 24 12C24 5.37258 18.6274 0 12 0C5.37258 0 0 5.37258 0 12Z" fill="url(#paint1_radial_2046_6835)"/>
</mask>
<g mask="url(#mask0_2046_6835)">
<g opacity="0.5" filter="url(#filter0_f_2046_6835)">
<path d="M12.0152 40.7149C26.0471 40.7149 37.4223 32.4923 37.4223 22.3491C37.4223 12.2059 26.0471 3.98328 12.0152 3.98328C-2.01672 3.98328 -13.3918 12.2059 -13.3918 22.3491C-13.3918 32.4923 -2.01672 40.7149 12.0152 40.7149Z" fill="url(#paint2_radial_2046_6835)"/>
</g>
</g>
<path fill-rule="evenodd" clip-rule="evenodd" d="M12.0365 3.00183C13.5873 3.00066 15.1122 3.39685 16.4646 4.15229C17.817 4.90774 18.9513 5.997 19.7584 7.31526C18.5106 7.31526 17.3139 7.80878 16.4315 8.68716C15.5491 9.56554 15.0535 10.757 15.0535 11.9992C15.0535 13.2415 15.5491 14.4328 16.4315 15.3113C17.3139 16.1897 18.5106 16.6832 19.7584 16.6832C18.9375 18.0241 17.7784 19.1278 16.3962 19.8845C15.0141 20.6413 13.4571 21.0248 11.88 20.9969C10.3028 20.969 8.76052 20.5308 7.40621 19.7257C6.05192 18.9206 4.93286 17.7767 4.16023 16.4076C3.3876 15.0385 2.98831 13.492 3.00205 11.9217C3.01578 10.3515 3.44206 8.81216 4.23851 7.45668C5.03497 6.10122 6.17387 4.97686 7.542 4.19535C8.91019 3.41383 10.46 3.00236 12.0374 3.00183H12.0365Z" fill="#FFC780"/>
<path fill-rule="evenodd" clip-rule="evenodd" d="M19.7585 7.3152C18.5106 7.3152 17.3138 7.8087 16.4315 8.68708C15.5491 9.56553 15.0535 10.7569 15.0535 11.9992C15.0535 13.2414 15.5491 14.4328 16.4315 15.3112C17.3138 16.1897 18.5106 16.6832 19.7585 16.6832L19.7288 16.7275C18.8097 17.5568 17.6682 18.1023 16.4434 18.2974C15.2185 18.4926 13.9631 18.3292 12.8299 17.827C11.6967 17.3248 10.7345 16.5055 10.0606 15.4688C9.38653 14.4321 9.02982 13.2227 9.03372 11.9879C9.03762 10.7529 9.40198 9.54581 10.0825 8.51341C10.763 7.48092 11.7304 6.66765 12.8667 6.17254C14.0031 5.67745 15.2595 5.52186 16.4831 5.72473C17.7066 5.9276 18.8446 6.48017 19.7585 7.3152Z" fill="url(#paint3_linear_2046_6835)"/>
</g>
<defs>
<filter id="filter0_f_2046_6835" x="-19.5832" y="-2.20812" width="63.1969" height="49.1145" filterUnits="userSpaceOnUse" color-interpolation-filters="sRGB">
<feFlood flood-opacity="0" result="BackgroundImageFix"/>
<feBlend mode="normal" in="SourceGraphic" in2="BackgroundImageFix" result="shape"/>
<feGaussianBlur stdDeviation="3.0957" result="effect1_foregroundBlur_2046_6835"/>
</filter>
<radialGradient id="paint0_radial_2046_6835" cx="0" cy="0" r="1" gradientUnits="userSpaceOnUse" gradientTransform="translate(12 12) rotate(90) scale(12)">
<stop stop-color="#311810"/>
<stop offset="1" stop-color="#1E0E0A"/>
</radialGradient>
<radialGradient id="paint1_radial_2046_6835" cx="0" cy="0" r="1" gradientUnits="userSpaceOnUse" gradientTransform="translate(12 12) rotate(90) scale(12)">
<stop stop-color="#311810"/>
<stop offset="1" stop-color="#1E0E0A"/>
</radialGradient>
<radialGradient id="paint2_radial_2046_6835" cx="0" cy="0" r="1" gradientUnits="userSpaceOnUse" gradientTransform="translate(12.0152 22.3491) rotate(90) scale(18.3658 25.4071)">
<stop stop-color="#A744F4"/>
<stop offset="0.411458" stop-color="#B2B1EE" stop-opacity="0.46"/>
<stop offset="1" stop-color="#B1C2EE" stop-opacity="0"/>
</radialGradient>
<linearGradient id="paint3_linear_2046_6835" x1="14.3956" y1="18.3793" x2="14.3956" y2="5.63906" gradientUnits="userSpaceOnUse">
<stop stop-color="#FFC780"/>
<stop offset="1" stop-color="#964B48"/>
</linearGradient>
<clipPath id="clip0_2046_6835">
<rect width="24" height="24" fill="white"/>
</clipPath>
</defs>
</svg>
