<svg width="24" height="24" viewBox="0 0 24 24" fill="none" xmlns="http://www.w3.org/2000/svg">
<circle cx="12" cy="12" r="12" fill="#E1AA4D"/>
<path fill-rule="evenodd" clip-rule="evenodd" d="M19.5194 5.75917L19.6141 6.33195C19.6888 6.86479 19.7234 7.40248 19.7176 7.94051C19.717 9.12947 19.5736 10.314 19.2904 11.4688C18.9075 13.0376 18.2405 14.523 17.3225 15.8515C16.2617 17.3772 14.7278 18.8779 12.4921 20.0837L12.2185 20.2311L11.945 20.0837C9.70927 18.8779 8.17607 17.3772 7.11464 15.8515C6.19664 14.523 5.52967 13.0376 5.14672 11.4688C4.86362 10.3142 4.72019 9.12987 4.71951 7.94114C4.71373 7.40311 4.74833 6.86541 4.82302 6.33257L4.91774 5.7598C4.92583 5.71309 4.92459 5.66523 4.9141 5.619C4.90361 5.57277 4.88408 5.52908 4.85662 5.49043C4.82917 5.45178 4.79434 5.41895 4.75414 5.39383C4.71394 5.3687 4.66916 5.35178 4.62239 5.34404C4.57563 5.3363 4.52779 5.33789 4.48164 5.34873C4.43549 5.35956 4.39194 5.37942 4.3535 5.40716C4.31506 5.4349 4.28249 5.46998 4.25767 5.51036C4.23284 5.55075 4.21626 5.59565 4.20887 5.64248L4.11414 6.21526C4.03266 6.78684 3.9947 7.36379 4.00059 7.94114C4.00104 9.18844 4.15143 10.4311 4.4485 11.6426C4.85289 13.2969 5.55687 14.8631 6.52558 16.2637C7.64536 17.8754 9.2695 19.4601 11.6069 20.7179L12.051 20.9569C12.1034 20.9852 12.1619 21.0001 12.2214 21.0001C12.2808 21.0001 12.3394 20.9852 12.3917 20.9569L12.8352 20.7179C15.1701 19.4595 16.7949 17.8754 17.9166 16.2637C18.8848 14.8631 19.5883 13.2972 19.9924 11.6432C20.2894 10.4318 20.4398 9.18907 20.4403 7.94177C20.4462 7.36442 20.4082 6.78747 20.3268 6.21589L20.232 5.64311C20.2246 5.59628 20.208 5.55138 20.1832 5.51099C20.1584 5.4706 20.1258 5.43553 20.0874 5.40779C20.0489 5.38005 20.0054 5.36019 19.9592 5.34935C19.9131 5.33852 19.8652 5.33693 19.8185 5.34467C19.7717 5.35241 19.7269 5.36933 19.6867 5.39445C19.6465 5.41957 19.6117 5.45241 19.5843 5.49105C19.5568 5.5297 19.5373 5.5734 19.5268 5.61963C19.5163 5.66586 19.515 5.71371 19.5232 5.76043L19.5194 5.75917Z" fill="white"/>
<path fill-rule="evenodd" clip-rule="evenodd" d="M6.88074 5.3689L12.2194 3.73778L17.6773 5.40403C17.7687 5.43135 17.8672 5.42136 17.9512 5.37624C18.0352 5.33113 18.098 5.25456 18.1257 5.16331C18.1534 5.07205 18.1438 4.97353 18.0991 4.88931C18.0543 4.8051 17.978 4.74204 17.8869 4.71394L12.3242 3.01569C12.256 2.99477 12.1829 2.99477 12.1147 3.01569L6.67059 4.67755C6.62509 4.69116 6.58273 4.71361 6.54593 4.74362C6.50914 4.77364 6.47864 4.81063 6.45617 4.85246C6.43371 4.8943 6.41974 4.94016 6.41504 4.98741C6.41035 5.03466 6.41504 5.08238 6.42883 5.12781C6.44263 5.17325 6.46526 5.21552 6.49543 5.25218C6.52561 5.28885 6.56272 5.31919 6.60466 5.34148C6.64658 5.36376 6.69251 5.37754 6.73977 5.38203C6.78705 5.38652 6.83474 5.38163 6.88012 5.36764L6.88074 5.3689Z" fill="white"/>
<path fill-rule="evenodd" clip-rule="evenodd" d="M4.24455 5.86447L11.8984 20.8032C11.9283 20.8615 11.9736 20.9107 12.0293 20.9451C12.0851 20.9796 12.1492 20.9981 12.2148 20.9987C12.2804 20.9993 12.3448 20.9819 12.4012 20.9484C12.4576 20.9149 12.5037 20.8666 12.5346 20.8088L17.2022 12.0791L17.2091 12.0653L20.1966 5.85443C20.2371 5.76872 20.2422 5.67049 20.2106 5.58109C20.1791 5.4917 20.1136 5.41836 20.0282 5.37703C19.9429 5.3357 19.8447 5.32971 19.755 5.36036C19.6653 5.39102 19.5914 5.45585 19.5492 5.54075L16.5667 11.7466L12.229 19.8646L4.88383 5.53573C4.86266 5.49319 4.83327 5.45526 4.79733 5.42416C4.7614 5.39307 4.71966 5.3694 4.67452 5.35455C4.62938 5.3397 4.58174 5.33396 4.53436 5.33765C4.48698 5.34134 4.44081 5.3544 4.39852 5.37606C4.35622 5.39773 4.31865 5.42757 4.28797 5.46387C4.25729 5.50015 4.23412 5.54217 4.2198 5.58748C4.20548 5.6328 4.20029 5.6805 4.20454 5.72783C4.20879 5.77516 4.22239 5.82117 4.24455 5.86321V5.86447Z" fill="white"/>
<path fill-rule="evenodd" clip-rule="evenodd" d="M7.90841 12.5173H16.4197C16.5149 12.5173 16.6063 12.4795 16.6737 12.4121C16.741 12.3448 16.7789 12.2535 16.7789 12.1582C16.7789 12.0629 16.741 11.9716 16.6737 11.9042C16.6063 11.8369 16.5149 11.799 16.4197 11.799H7.90841C7.81315 11.799 7.7218 11.8369 7.65444 11.9042C7.58709 11.9716 7.54925 12.0629 7.54925 12.1582C7.54925 12.2535 7.58709 12.3448 7.65444 12.4121C7.7218 12.4795 7.81315 12.5173 7.90841 12.5173Z" fill="white"/>
</svg>
