<svg width="24" height="24" viewBox="0 0 24 24" fill="none" xmlns="http://www.w3.org/2000/svg">
<circle cx="12.0002" cy="12" r="12" fill="#172852"/>
<path d="M10.3318 16.3332C10.7818 17.9982 12.3964 19.2681 13.2118 19.2157C13.2404 19.2139 16.3044 18.6426 17.9818 15.8407C19.2868 13.6598 18.8427 11.5542 17.0674 11.5083C16.4286 11.5549 9.47479 13.1616 10.3323 16.3337L10.3318 16.3332ZM16.9018 5.6399L16.9 5.63855L16.9025 5.63698C15.7843 4.68585 14.4201 4.06999 12.9671 3.86037C11.5141 3.65074 10.0315 3.85587 8.68999 4.45213C8.5203 4.5227 8.35501 4.6034 8.19499 4.69378C8.08564 4.75205 7.97629 4.80988 7.87009 4.87378L7.89596 4.88165C7.58195 5.09548 7.3043 5.35832 7.07359 5.66015C4.83889 8.61395 12.3345 10.7613 16.3427 10.7685C18.1857 12.092 18.7032 7.04233 16.9018 5.6399Z" fill="#0E3CA5"/>
<path d="M9.14269 5.70002C8.11286 7.24757 4.68274 8.33815 4.11866 8.1685L4.11484 8.1613C4.13809 8.1145 4.16156 8.06807 4.18526 8.02202C4.77021 6.89537 5.60715 5.91883 6.63101 5.16835C6.84206 5.01355 7.06054 4.86887 7.28644 4.73432C7.63401 4.54234 8.02342 4.43866 8.42044 4.43237C9.94796 4.46252 9.15034 5.68765 9.14269 5.70002ZM8.29759 16.6377C8.37161 17.1239 8.29579 19.0452 8.19634 19.2068C8.11061 19.2119 7.93219 19.2227 7.41536 18.9329C6.35156 18.3281 5.43664 17.4928 4.73771 16.4883C4.03877 15.4838 3.57355 14.3356 3.37616 13.1279C3.23275 12.2457 3.23275 11.346 3.37616 10.4637C3.44612 10.0349 3.55017 9.61237 3.68734 9.20012C3.71479 9.11777 3.74359 9.03565 3.77351 8.95442C4.36549 9.74192 5.05061 10.4543 5.63291 11.2494C6.18754 12.0068 6.95051 13.2411 7.10576 13.5048C8.06966 15.1424 8.22334 16.1526 8.29691 16.6382L8.29759 16.6377ZM19.6927 11.7957C19.694 12.8284 19.5 13.852 19.121 14.8125C18.1535 15.8522 11.6323 13.2931 11.5684 13.2652C10.6763 12.8739 7.96144 11.685 7.71641 9.81617C7.36519 7.12855 12.8169 5.25565 15.2132 5.18455C15.5005 5.18792 16.3749 5.19827 16.8847 5.61205C17.7677 6.38203 18.4752 7.33242 18.9596 8.39911C19.444 9.4658 19.694 10.624 19.6927 11.7955V11.7957ZM15.278 19.0796C14.5672 19.4115 13.7844 19.1696 13.9878 18.4773C14.3782 17.148 17.7872 15.785 18.54 15.7109C18.633 15.7019 18.6723 15.7652 18.6312 15.8374C17.8467 17.2165 16.6832 18.3417 15.2787 19.0796" fill="#5493F7"/>
<path d="M6.90033 20.3821C6.89029 20.5323 6.93956 20.6804 7.03755 20.7946C7.13555 20.9087 7.27443 20.9799 7.42435 20.9928C14.3319 21.04 21.0002 20.7228 21.0002 19.6878C21.0002 16.5547 6.90033 20.3821 6.90033 20.3821Z" fill="url(#paint0_linear_927_5170)"/>
<path d="M12.9866 20.539L11.7129 19.2655C11.2806 19.3519 10.8608 19.4399 10.4612 19.5267L11.633 20.6985C12.093 20.6496 12.5442 20.5964 12.9866 20.539Z" fill="url(#paint1_linear_927_5170)"/>
<path d="M11.7129 19.2655L12.9866 20.539C17.4782 19.9592 20.8919 19.0425 20.8919 19.7175C20.8919 20.6726 14.328 21 7.42728 20.9537C7.40886 20.9536 7.39045 20.9526 7.37215 20.9505C7.28194 20.9385 7.19635 20.9035 7.12363 20.8488C7.05091 20.7941 6.99353 20.7216 6.95703 20.6382V20.6366C6.94458 20.6099 6.9342 20.5822 6.92598 20.5538C6.9343 20.5822 6.94468 20.6098 6.95703 20.6366V20.6382C6.99742 20.7296 7.06309 20.8074 7.14629 20.8627C7.22948 20.9179 7.32674 20.9483 7.4266 20.9501C8.8621 20.9413 10.2828 20.8418 11.6341 20.6992L10.4612 19.5267C8.41998 19.9697 6.90033 20.3817 6.90033 20.3817C6.89008 20.5323 6.93963 20.6809 7.03824 20.7952C7.13685 20.9096 7.27655 20.9804 7.42705 20.9924C14.3327 21.0448 20.9918 20.8279 21.0002 19.6874C21.0002 17.7848 15.7977 18.4499 11.7129 19.2655Z" fill="url(#paint2_linear_927_5170)"/>
<path d="M7.42773 11.5097C7.28785 11.5097 7.15371 11.5653 7.0548 11.6642C6.9559 11.7631 6.90033 11.8973 6.90033 12.0371V20.3822C6.90021 20.5215 6.95526 20.6553 7.05345 20.7542C7.15164 20.8531 7.28499 20.9091 7.42435 20.91C14.3316 20.8583 21.0087 18.572 21.0002 19.688V10.2884C21.0087 9.17221 14.3341 11.4582 7.42773 11.5097Z" fill="url(#paint3_linear_927_5170)"/>
<path d="M20.4692 14.0171C20.1602 14.0045 19.8507 14.0196 19.5444 14.0621C19.2596 14.0959 19.056 14.1269 18.8377 14.1596C18.6195 14.1922 18.4064 14.2271 18.1971 14.2606C17.9879 14.2941 17.7827 14.3306 17.5793 14.3663C17.3759 14.4021 17.1743 14.4381 16.9718 14.4732L16.3643 14.5778C16.1618 14.6129 15.9541 14.648 15.7449 14.6843C15.5356 14.7205 15.3239 14.756 15.1045 14.7911C14.8851 14.8262 14.6595 14.8611 14.4261 14.8971C14.1928 14.9331 13.9536 14.9711 13.7061 15.0078C13.4586 15.0445 13.1981 15.0803 12.9272 15.1156V11.0789C12.4875 11.1389 12.0389 11.1945 11.5812 11.2458V15.2765C11.1089 15.3268 10.636 15.3719 10.1626 15.4117C9.75557 15.4459 9.34796 15.4728 8.93996 15.4922C8.51095 15.5131 8.08169 15.5283 7.65228 15.5377C7.41716 15.5426 7.16875 15.5458 6.90123 15.5458V16.8884C7.16875 16.8884 7.41738 16.8854 7.65205 16.8805C7.88673 16.8755 8.10813 16.8686 8.32098 16.8609C8.53383 16.8533 8.73813 16.8449 8.94018 16.835C9.14223 16.8251 9.34136 16.8137 9.54341 16.8004C9.74546 16.7871 9.94998 16.7718 10.1626 16.7554C10.3752 16.739 10.5957 16.7178 10.8306 16.6955C11.0655 16.6733 11.3137 16.6492 11.581 16.6206V20.6465C12.0382 20.5957 12.4869 20.54 12.927 20.4796V16.4577C13.1979 16.4225 13.4575 16.3866 13.7059 16.3502C13.9548 16.3135 14.1937 16.2759 14.4259 16.2399C14.6581 16.2039 14.8847 16.1688 15.1041 16.1335C15.3234 16.0982 15.5356 16.0631 15.7449 16.0268C15.9541 15.9906 16.16 15.9555 16.3641 15.9204L16.9716 15.8156C17.1741 15.7805 17.3752 15.7449 17.5791 15.7091C17.7829 15.6734 17.9877 15.6376 18.1969 15.6027C18.4062 15.5678 18.619 15.5352 18.8375 15.5019C19.056 15.4686 19.2594 15.4385 19.544 15.4047C19.8503 15.3621 20.1599 15.347 20.469 15.3597C20.7615 15.3811 21 15.4551 21 15.6671V14.3247C21.0002 14.1125 20.7615 14.0385 20.4692 14.0171Z" fill="url(#paint4_linear_927_5170)"/>
<defs>
<linearGradient id="paint0_linear_927_5170" x1="6.90033" y1="19.7263" x2="21.0002" y2="19.7263" gradientUnits="userSpaceOnUse">
<stop stop-color="#700000"/>
<stop offset="0.327" stop-color="#730000"/>
<stop offset="0.59" stop-color="#7D0000"/>
<stop offset="0.83" stop-color="#8E0000"/>
<stop offset="1" stop-color="#9F0000"/>
</linearGradient>
<linearGradient id="paint1_linear_927_5170" x1="11.7239" y1="18.4551" x2="11.7239" y2="21" gradientUnits="userSpaceOnUse">
<stop offset="0.35" stop-color="#DFDFDF"/>
<stop offset="0.645" stop-color="#DDDDDD"/>
<stop offset="0.752" stop-color="#D6D6D6"/>
<stop offset="0.828" stop-color="#CBCBCB"/>
<stop offset="0.889" stop-color="#BABABA"/>
<stop offset="0.941" stop-color="#A4A4A4"/>
<stop offset="0.987" stop-color="#898989"/>
<stop offset="1" stop-color="#808080"/>
</linearGradient>
<linearGradient id="paint2_linear_927_5170" x1="13.9502" y1="18.4553" x2="13.9502" y2="21" gradientUnits="userSpaceOnUse">
<stop offset="0.35" stop-color="#CF2000"/>
<stop offset="0.645" stop-color="#CD1F00"/>
<stop offset="0.752" stop-color="#C61D00"/>
<stop offset="0.828" stop-color="#BB1900"/>
<stop offset="0.889" stop-color="#AA1300"/>
<stop offset="0.941" stop-color="#940C00"/>
<stop offset="0.987" stop-color="#790300"/>
<stop offset="1" stop-color="#700000"/>
</linearGradient>
<linearGradient id="paint3_linear_927_5170" x1="6.90033" y1="15.4454" x2="21.0002" y2="15.4454" gradientUnits="userSpaceOnUse">
<stop stop-color="#CF2000"/>
<stop offset="0.021" stop-color="#D12201"/>
<stop offset="0.244" stop-color="#E23309"/>
<stop offset="0.487" stop-color="#EC3D0E"/>
<stop offset="0.791" stop-color="#EF4010"/>
<stop offset="0.841" stop-color="#EC3D0F"/>
<stop offset="0.882" stop-color="#E2330D"/>
<stop offset="0.919" stop-color="#D12208"/>
<stop offset="0.954" stop-color="#B90A03"/>
<stop offset="0.966" stop-color="#AF0000"/>
<stop offset="1" stop-color="#EF4010"/>
</linearGradient>
<linearGradient id="paint4_linear_927_5170" x1="6.90033" y1="15.8621" x2="21.0002" y2="15.8621" gradientUnits="userSpaceOnUse">
<stop stop-color="#DFDFDF"/>
<stop offset="0.021" stop-color="#E1E1E1"/>
<stop offset="0.244" stop-color="#F2F2F2"/>
<stop offset="0.487" stop-color="#FCFCFC"/>
<stop offset="0.791" stop-color="white"/>
<stop offset="0.841" stop-color="#FCFCFC"/>
<stop offset="0.882" stop-color="#F2F2F2"/>
<stop offset="0.919" stop-color="#E1E1E1"/>
<stop offset="0.954" stop-color="#C9C9C9"/>
<stop offset="0.966" stop-color="#BFBFBF"/>
<stop offset="1" stop-color="white"/>
</linearGradient>
</defs>
</svg>
