<svg width="24" height="24" viewBox="0 0 24 24" fill="none" xmlns="http://www.w3.org/2000/svg">
<g clip-path="url(#clip0_2940_7752)">
<path d="M12 23.842C18.5402 23.842 23.8421 18.5402 23.8421 11.9999C23.8421 5.45973 18.5402 0.157837 12 0.157837C5.45979 0.157837 0.157898 5.45973 0.157898 11.9999C0.157898 18.5402 5.45979 23.842 12 23.842Z" fill="black"/>
<path d="M16.3004 11.274L14.2349 10.0828C14.1368 10.0264 14.0255 9.99666 13.9122 9.99666C13.799 9.99666 13.6877 10.0264 13.5895 10.0828L12.6414 10.6299C12.347 10.7997 12.1026 11.0439 11.9327 11.338C11.7628 11.6321 11.6733 11.9657 11.6734 12.3053V16.5791C11.6733 16.7272 11.6143 16.8693 11.5094 16.9741C11.4046 17.0789 11.2623 17.1378 11.114 17.1379C10.9657 17.1379 10.8234 17.079 10.7185 16.9742C10.6136 16.8694 10.5547 16.7273 10.5547 16.5791V10.3721C10.5547 10.0326 10.6441 9.69901 10.8141 9.40492C10.984 9.11083 11.2284 8.8666 11.5227 8.69676L11.6734 8.61007L15.8131 6.22098C15.9602 6.13606 16.0824 6.01395 16.1674 5.8669C16.2523 5.71986 16.2971 5.55307 16.2971 5.38329C16.2971 5.21351 16.2523 5.04672 16.1674 4.89968C16.0824 4.75263 15.9602 4.63052 15.8131 4.5456L14.4004 3.72975C14.2533 3.64474 14.0864 3.59998 13.9164 3.59998C13.7465 3.59998 13.5795 3.64474 13.4324 3.72975L8.16834 6.765C7.87392 6.93474 7.62942 7.17894 7.45943 7.47304C7.28945 7.76714 7.19998 8.10077 7.20001 8.44038V14.5021C7.19998 14.6716 7.24453 14.8381 7.32917 14.9849C7.41382 15.1318 7.53561 15.2538 7.68233 15.3388L9.43467 16.3543V18.5582C9.43473 18.6712 9.46446 18.7821 9.52088 18.88C9.57731 18.9779 9.65845 19.0593 9.75621 19.116L11.8217 20.3129C11.9198 20.3698 12.0312 20.3998 12.1446 20.4C12.258 20.4002 12.3695 20.3705 12.4677 20.3139C12.566 20.2574 12.6476 20.1759 12.7044 20.0778C12.7612 19.9797 12.791 19.8684 12.791 19.7551V15.1591C12.791 14.9327 12.8507 14.7103 12.964 14.5142C13.0773 14.3181 13.2402 14.1553 13.4365 14.0421L16.3004 12.3903C16.3984 12.3336 16.4797 12.2523 16.5363 12.1543C16.5929 12.0563 16.6226 11.9452 16.6226 11.8321C16.6226 11.7191 16.5929 11.608 16.5363 11.51C16.4797 11.412 16.3984 11.3307 16.3004 11.274Z" fill="white"/>
</g>
<defs>
<clipPath id="clip0_2940_7752">
<rect width="24" height="24" fill="white"/>
</clipPath>
</defs>
</svg>
