<svg width="24" height="24" viewBox="0 0 24 24" fill="none" xmlns="http://www.w3.org/2000/svg">
<path d="M12 24C18.6274 24 24 18.6274 24 12C24 5.37258 18.6274 0 12 0C5.37258 0 0 5.37258 0 12C0 18.6274 5.37258 24 12 24Z" fill="#F8F8F8"/>
<path d="M16.5008 5.29968C16.7621 5.5 17.0236 5.68989 17.2042 5.84364C17.947 6.47645 18.4962 7.2527 18.8519 8.17239C19.1059 8.81552 19.255 9.4777 19.299 10.159C19.344 10.8152 19.3133 11.4657 19.2067 12.1104C19.052 13.0069 18.7701 13.8588 18.3611 14.666C17.2033 16.9549 15.0662 18.8013 12.4905 19.1993C10.6811 19.4786 9.16204 18.869 7.80501 17.7154C8.79257 18.3255 10.2792 18.7454 11.6326 18.5594C15.6455 17.8759 18.4581 13.8327 18.5055 9.87536C18.4745 9.30411 18.3832 8.6494 18.1732 8.06059C17.7791 6.95548 17.3711 6.15826 16.6679 5.475C16.6538 5.46322 16.4968 5.31782 16.5008 5.29968Z" fill="url(#paint0_linear_1964_5997)"/>
<path d="M12.0179 18.4966L12.5343 18.8585" stroke="#744017" stroke-width="0.1" stroke-linecap="round"/>
<path d="M12.5785 18.4038L13.1398 18.6912" stroke="#744017" stroke-width="0.1" stroke-linecap="round"/>
<path d="M13.1937 18.1589L13.7199 18.5063" stroke="#744017" stroke-width="0.1" stroke-linecap="round"/>
<path d="M13.8106 17.9019L14.3368 18.2493" stroke="#7A5125" stroke-width="0.1" stroke-linecap="round"/>
<path d="M14.3645 17.5201L14.8769 17.8877" stroke="#7A5125" stroke-width="0.1" stroke-linecap="round"/>
<path d="M14.9995 17.1187L15.5118 17.4862" stroke="#744017" stroke-width="0.1" stroke-linecap="round"/>
<path d="M15.5713 16.6097L16.1109 17.0224" stroke="#744017" stroke-width="0.1" stroke-linecap="round"/>
<path d="M16.1122 16.0106L16.6772 16.4638" stroke="#744017" stroke-width="0.1" stroke-linecap="round"/>
<path d="M16.6673 15.3781L17.234 15.7624" stroke="#744017" stroke-width="0.1" stroke-linecap="round"/>
<path d="M17.1127 14.662L17.7187 15.0986" stroke="#744017" stroke-width="0.1" stroke-linecap="round"/>
<path d="M17.5753 13.8955L18.1364 14.3378" stroke="#744017" stroke-width="0.1" stroke-linecap="round"/>
<path d="M17.8679 13.1296L18.4944 13.6069" stroke="#9B6C1E" stroke-width="0.1" stroke-linecap="round"/>
<path d="M18.1153 12.3259L18.744 12.7861" stroke="#A5711B" stroke-width="0.1" stroke-linecap="round"/>
<path d="M18.3486 11.5935L18.9578 12.0278" stroke="#C98F2F" stroke-width="0.1" stroke-linecap="round"/>
<path d="M18.4723 10.8986L19.075 11.2486" stroke="#C98F2F" stroke-width="0.1" stroke-linecap="round"/>
<path d="M18.4983 10.2444L19.1011 10.5231" stroke="#D89D34" stroke-width="0.1" stroke-linecap="round"/>
<path d="M18.4943 9.59033L19.1201 9.87254" stroke="#D89D34" stroke-width="0.1" stroke-linecap="round"/>
<path d="M18.3743 8.99377L19.0123 9.25754" stroke="#D89D34" stroke-width="0.1" stroke-linecap="round"/>
<path d="M18.2956 8.44824L18.8931 8.64574" stroke="#D89D34" stroke-width="0.1" stroke-linecap="round"/>
<path d="M18.1898 8.02356L18.6774 8.13072" stroke="#D89D34" stroke-width="0.1" stroke-linecap="round"/>
<path d="M18.0659 7.61633L18.4723 7.68168" stroke="#D89D34" stroke-width="0.1" stroke-linecap="round"/>
<path d="M17.9075 7.20593L18.2434 7.23981" stroke="#D89D34" stroke-width="0.1" stroke-linecap="round"/>
<path d="M17.6035 6.82764L17.989 6.87552" stroke="#D89D34" stroke-width="0.1" stroke-linecap="round"/>
<path d="M17.2941 6.42981L17.6796 6.47769" stroke="#D99B30" stroke-width="0.1" stroke-linecap="round"/>
<path d="M11.4008 18.5474L11.9172 18.9092" stroke="#744017" stroke-width="0.1" stroke-linecap="round"/>
<path d="M10.9047 18.5747L11.4211 18.9366" stroke="#744017" stroke-width="0.1" stroke-linecap="round"/>
<path d="M10.3889 18.5697L10.8883 18.9547" stroke="#744017" stroke-width="0.1" stroke-linecap="round"/>
<path d="M9.80975 18.437L10.2594 18.879" stroke="#744017" stroke-width="0.1" stroke-linecap="round"/>
<path d="M9.25162 18.2991L9.71827 18.7231" stroke="#744017" stroke-width="0.1" stroke-linecap="round"/>
<mask id="mask0_1964_5997" style="mask-type:alpha" maskUnits="userSpaceOnUse" x="7" y="5" width="13" height="15">
<path d="M16.5009 5.29968C16.7621 5.5 17.0236 5.68989 17.2042 5.84364C17.947 6.47645 18.4963 7.2527 18.8519 8.17239C19.106 8.81552 19.255 9.4777 19.2991 10.159C19.3441 10.8152 19.3133 11.4657 19.2067 12.1104C19.052 13.0069 18.7702 13.8588 18.3611 14.666C17.2033 16.9549 15.0663 18.8013 12.4905 19.1993C10.6811 19.4786 9.16207 18.869 7.80504 17.7154C8.7926 18.3255 10.2792 18.7454 11.6327 18.5594C15.6455 17.8759 18.4581 13.8327 18.5055 9.87536C18.4745 9.30411 18.3832 8.6494 18.1732 8.06059C17.7791 6.95548 17.3712 6.15826 16.6679 5.475C16.6539 5.46322 16.4968 5.31782 16.5009 5.29968Z" fill="url(#paint1_linear_1964_5997)"/>
</mask>
<g mask="url(#mask0_1964_5997)">
<g filter="url(#filter0_f_1964_5997)">
<path d="M9.2249 18.6658C12.7371 20.4087 16.5531 17.8364 18.1607 14.6582C19.8396 11.3454 19.6377 7.73515 16.6972 5.48047C18.8748 7.22246 20.1403 10.5679 18.0675 14.6582C16.4971 17.7626 12.7571 20.2412 9.2249 18.6658Z" fill="#D5B053"/>
</g>
</g>
<path d="M8.2287 17.95C8.07949 17.8759 7.93776 17.7974 7.80504 17.7154C7.82961 17.7362 7.85424 17.757 7.87891 17.7775C7.99087 17.8376 8.10771 17.8953 8.2287 17.95Z" fill="url(#paint2_linear_1964_5997)"/>
<path d="M9.27488 18.702C10.2464 19.1841 11.3062 19.3821 12.4905 19.1993C15.0663 18.8013 17.2033 16.9549 18.3611 14.666C18.7702 13.8588 19.052 13.0069 19.2067 12.1104C19.3133 11.4657 19.3441 10.8152 19.2991 10.159C19.255 9.4777 19.106 8.81552 18.8519 8.17239C18.4963 7.2527 17.947 6.47645 17.2042 5.84364C17.0776 5.73584 16.9112 5.61026 16.733 5.47578C16.657 5.41847 16.5789 5.35954 16.5009 5.29968C16.4968 5.31782 16.6539 5.46322 16.6679 5.475C16.6767 5.4835 16.6854 5.49203 16.694 5.50057C16.8134 5.59137 16.9227 5.67643 17.0122 5.75261C17.755 6.38542 18.3042 7.16167 18.6599 8.08136C18.9139 8.72448 19.063 9.38667 19.1071 10.0679C19.1521 10.7242 19.1213 11.3746 19.0147 12.0193C18.86 12.9159 18.5782 13.7678 18.1691 14.575C17.0113 16.8639 14.8742 18.7103 12.2985 19.1082C11.1918 19.2791 10.1937 19.1174 9.27488 18.702Z" fill="url(#paint3_linear_1964_5997)"/>
<path fill-rule="evenodd" clip-rule="evenodd" d="M16.5522 5.36034C15.0685 4.11595 13.0616 3.66222 11.1653 4.26345C9.38235 4.80299 7.85612 6.002 6.8167 7.54002C5.65031 9.26866 5.05603 11.4056 5.31905 13.4866C5.52058 14.949 6.22025 16.45 7.382 17.4025C8.54201 18.366 10.1079 18.7689 11.6327 18.5594C15.4794 17.904 18.1628 14.2042 18.4961 10.6581C18.5907 9.65146 18.3965 8.66176 18.0916 7.70783C17.7288 6.83454 17.3048 5.9744 16.5522 5.36034Z" fill="url(#paint4_linear_1964_5997)"/>
<path d="M8.99437 18.1102C8.5565 17.9763 7.14666 17.0375 6.4335 16.0075C5.36216 14.4603 6.51125 11.3794 7.29811 10.0165C7.14779 10.7916 7.30264 13.9605 7.52291 15.1503C7.77549 16.5148 8.17233 17.0114 8.99437 18.1102Z" fill="url(#paint5_linear_1964_5997)"/>
<path d="M11.8221 18.3886C11.376 18.4916 9.44405 18.7287 8.553 17.8481C6.55779 15.8762 6.93763 15.1571 7.82463 13.8658C8.08203 14.6123 8.28218 15.6407 9.06787 16.561C9.96885 17.6164 10.5608 17.8481 11.8221 18.3886Z" fill="url(#paint6_linear_1964_5997)"/>
<path d="M12.3822 5.46533C12.3668 5.46502 12.3598 5.4572 12.3611 5.44189L12.4164 4.83299C12.4204 4.81205 12.4331 4.80189 12.4543 4.80252L13.2953 4.82924C13.325 4.83017 13.334 4.84424 13.3225 4.87142L13.0726 5.46299C13.0664 5.4783 13.0548 5.48564 13.0379 5.48502L12.3822 5.46533Z" fill="#FDDE5F"/>
<path d="M12.2284 4.82178C12.3012 4.8974 12.3589 4.92881 12.4014 4.916L12.3611 5.44193C12.3598 5.45725 12.3669 5.46506 12.3822 5.46537L12.4853 5.46631C12.4672 5.48568 12.467 5.50084 12.4848 5.51178C12.6695 5.6274 12.8247 5.76396 12.9503 5.92146L12.6006 5.8849C12.5562 5.82115 12.5009 5.76771 12.4347 5.72459C12.3104 5.64396 12.2233 5.53381 12.0836 5.48225L12.2284 4.82178Z" fill="#B56C23"/>
<path d="M12.0835 5.48225L12.2284 4.82178C11.8945 4.85648 11.625 4.90335 11.3049 5.03787C11.3359 5.17678 11.356 5.41143 11.3762 5.57506C11.3784 5.59225 11.3879 5.59865 11.4048 5.59428C11.5869 5.54896 11.7676 5.52478 11.9524 5.50006C11.9959 5.49425 12.0396 5.4884 12.0835 5.48225Z" fill="#FFECA4"/>
<path d="M14.0015 5.71447C14.0015 5.71447 13.5062 5.56905 13.3304 5.5239L13.5062 4.88593C13.5118 4.8653 13.5249 4.85765 13.5456 4.86296L14.357 5.07905C14.3785 5.08499 14.3837 5.09765 14.3724 5.11702C14.2715 5.28789 14.0015 5.71447 14.0015 5.71447Z" fill="#FCDE87"/>
<path d="M11.3284 5.18688L11.3762 5.575C11.3784 5.59219 11.3879 5.59859 11.4048 5.59422C11.5687 5.64278 11.7361 5.79931 11.832 5.93454C11.832 5.93454 11.6406 5.93454 11.5609 5.97063C11.447 5.89938 11.3593 5.86563 11.2506 5.77094C11.1996 5.72656 11.1473 5.70203 11.0935 5.69734L11.1423 5.03922C11.2641 5.03219 11.229 5.16016 11.3284 5.18688Z" fill="#B56C23"/>
<path d="M11.0935 5.69731L11.1423 5.03918L10.2995 5.35793C10.2845 5.36387 10.2749 5.37465 10.2709 5.39028C10.2665 5.40684 10.2698 5.42449 10.2807 5.44324L10.4068 5.90075C10.4112 5.91606 10.421 5.92184 10.4363 5.91809L10.5277 5.89653L11.0935 5.69731Z" fill="#FEECBA"/>
<path d="M14.5976 5.17285C14.7384 5.25564 15.3476 5.60254 15.3476 5.60254C15.3476 5.60254 15.0507 5.96191 14.8867 6.14941C14.6979 6.01066 14.4834 5.88129 14.2703 5.79629C14.4275 5.44546 14.5976 5.17285 14.5976 5.17285Z" fill="#FEF3D2"/>
<path d="M14.6035 5.17944C15.2342 5.28788 15.8263 5.52147 16.3801 5.88022C16.736 6.21147 17.036 6.61116 17.2801 7.07929C17.3892 7.26022 17.4787 7.45851 17.5487 7.67413C17.2801 7.32118 16.9293 6.82134 16.5882 6.53038C15.9817 6.0132 15.289 5.58272 14.6035 5.17944Z" fill="#FDDE5F"/>
<path d="M14.214 5.38513L14.0166 5.69966C14.0079 5.71341 13.9957 5.71794 13.9801 5.71326L13.3304 5.52388C13.5113 5.52638 13.6832 5.56076 13.846 5.62701C14.0973 5.72873 14.0331 5.46341 14.214 5.38513Z" fill="#DAAD49"/>
<path d="M10.1495 6.02079L9.57808 6.3822C9.57183 6.38845 9.56558 6.39486 9.55933 6.40142C9.55027 6.40642 9.53964 6.40939 9.52746 6.41033C9.52003 6.41089 9.51258 6.40935 9.50596 6.40587C9.49933 6.40239 9.49379 6.39712 9.48996 6.39064L9.42339 6.27439L9.26636 5.98329C9.26223 5.97554 9.26124 5.96649 9.2636 5.95803C9.26595 5.94956 9.27148 5.94233 9.27902 5.93783L10.0778 5.45361C10.0809 5.45175 10.0842 5.45063 10.0876 5.45033C10.1129 5.44877 10.1428 5.95695 10.1495 6.02079Z" fill="#FFECA4"/>
<path d="M10.0898 5.4502C10.1539 5.5102 10.2488 5.58629 10.321 5.60317L10.4068 5.90082C10.4112 5.91614 10.421 5.92192 10.4363 5.91817L10.5277 5.8966C10.5287 5.96848 10.5432 6.0091 10.5713 6.01848C10.6748 6.05285 10.7324 6.11457 10.7443 6.20364L10.5582 6.27535L10.4377 6.27348C10.4224 6.27317 10.4102 6.26692 10.4012 6.25473C10.3346 6.16629 10.2531 6.10082 10.1565 6.05832L10.1495 6.02082C10.1331 5.86514 10.0898 5.60394 10.0898 5.4502Z" fill="#B56C23"/>
<path d="M12.0835 5.48218C12.2577 5.54648 12.4918 5.72855 12.6006 5.88483C12.3871 5.89884 11.8047 5.93451 11.8047 5.93451C11.7754 5.87666 11.4179 5.62982 11.3828 5.59076C11.3828 5.59076 11.9335 5.48218 12.0835 5.48218Z" fill="#5D3010"/>
<path d="M15.4942 5.70291L15.0985 6.30103C15.0898 6.31416 15.0913 6.32619 15.1032 6.33713L15.4763 6.68119C15.296 6.6015 15.182 6.5476 15.1342 6.51947C15.0695 6.48072 14.9846 6.41369 14.8796 6.31838C14.8712 6.31088 14.8632 6.31135 14.8557 6.31978L14.8229 6.35635C14.8098 6.37103 14.7943 6.37432 14.7765 6.36619L14.7099 6.33525C14.7337 6.3365 14.7503 6.33338 14.7596 6.32588C14.774 6.314 14.7749 6.30119 14.7624 6.28744C14.6793 6.19838 14.5718 6.10885 14.4399 6.01885C14.3934 5.98728 14.3754 5.94588 14.386 5.89463L14.8309 6.15478C14.844 6.1626 14.8559 6.16088 14.8665 6.14963L14.8998 6.11353L15.1468 5.83135L15.3137 5.63307C15.3459 5.60463 15.406 5.62791 15.4942 5.70291Z" fill="#B56C23"/>
<path d="M11.0936 5.69739C11.2496 5.71099 11.4315 5.88971 11.5609 5.97067L10.7443 6.20364C10.6484 6.07129 10.5351 6.00488 10.4257 5.91895L11.0936 5.69739Z" fill="#5D3010"/>
<path d="M15.4942 5.703L15.872 5.98613L16.1907 6.34519C16.122 6.40061 15.6617 6.79974 15.5851 6.75019L15.4764 6.68128L15.1032 6.33722C15.0914 6.32628 15.0898 6.31425 15.0985 6.30113L15.4942 5.703Z" fill="#FEECBA"/>
<path d="M14.2702 5.79626C14.4834 5.88126 14.6843 5.99314 14.8731 6.13189C14.8821 6.12595 14.891 6.11986 14.8998 6.11361L14.8665 6.1497C14.8559 6.16095 14.844 6.16267 14.8309 6.15486L14.386 5.8947C14.2695 5.85783 14.2309 5.82501 14.2702 5.79626Z" fill="#EBC654"/>
<path d="M12.6022 5.88484L12.9519 5.9214L13.8472 6.1525L14.275 5.81421C14.275 5.81421 15.2976 6.60156 15.478 6.68125L15.5867 6.75015C15.6291 6.77761 15.8227 6.60805 15.8876 6.59078L15.6355 6.81297C15.596 6.8477 15.7817 6.95167 15.8125 6.9853L16.355 6.505C16.355 6.505 16.7031 6.85187 16.8748 7.27516L16.2486 7.62859C16.2444 7.63092 16.2409 7.63423 16.2383 7.63825C16.2357 7.64227 16.2341 7.64687 16.2337 7.65166C16.2333 7.65645 16.2341 7.66129 16.2359 7.66577C16.2378 7.67024 16.2407 7.67421 16.2444 7.67734C16.5781 7.88764 16.2486 7.96186 16.9775 7.4575L17.3389 8.40859L16.6292 8.63172C16.5958 8.51797 16.5383 8.40094 16.4567 8.28062C16.0259 7.64734 15.4606 7.22781 14.8658 6.74687C14.8639 6.74531 14.8601 6.74359 14.8601 6.74359C14.8576 6.74328 14.8536 6.74312 14.8536 6.74312C14.8461 6.74375 14.8455 6.74672 14.8517 6.75203C16.3855 8.01951 16.5808 10.1561 16.1567 11.9823C15.4189 14.4727 12.9137 16.9035 10.1539 16.3877C9.12857 16.1975 8.41453 15.697 7.7417 14.9397C6.64379 13.5483 6.64729 11.7914 7.11967 10.2217C7.26591 9.73579 7.49983 9.25781 7.49983 9.25781L7.4492 9.18625L7.51953 9.05859L7.58984 9.11328L8.10938 8.24609L8.06514 8.21266L8.14844 8.09687H8.23202L8.77108 7.49172L8.87109 7.39062L8.82031 7.34375L8.89182 7.27516L8.96484 7.31547L9.53842 6.84906L9.84592 6.64797L10.5598 6.27531L10.7459 6.20359L11.5625 5.97062L11.7162 5.94297L12.6022 5.88484Z" fill="#FDDE5F"/>
<path d="M17.5487 7.67405C17.5843 7.7353 17.6026 7.79515 17.6035 7.85358L16.8732 7.27515C16.6227 6.76508 16.2109 6.41498 15.872 5.98608C16.1267 6.1589 16.3654 6.3403 16.5882 6.5303C16.701 6.62654 16.8612 6.78618 17.0129 6.96671C17.1646 7.14724 17.4096 7.43801 17.5487 7.67405Z" fill="#DA872C"/>
<path d="M10.1495 6.02075L10.1565 6.05825L9.57808 6.38216L10.1495 6.02075Z" fill="#EBC654"/>
<path d="M10.1484 6.02441C10.289 6.12207 10.4179 6.2041 10.5582 6.27535L9.84434 6.64801C9.69559 6.56863 9.62495 6.52441 9.51167 6.41113C9.66713 6.31535 9.9648 6.14551 10.1484 6.02441Z" fill="#5D3010"/>
<path d="M9.27339 6.58292C9.27339 6.58292 8.8132 6.99012 8.70431 7.08337C8.69087 7.09494 8.67821 7.094 8.66634 7.08056L8.37243 6.74541C8.36719 6.73943 8.36321 6.73246 8.36072 6.7249C8.35823 6.71735 8.35729 6.70936 8.35794 6.70141C8.3586 6.69346 8.36084 6.68571 8.36454 6.67861C8.36823 6.67151 8.37331 6.66522 8.37946 6.66009L9.08306 6.07416C9.08685 6.07101 9.09136 6.06883 9.09619 6.0678C9.10101 6.06678 9.10602 6.06694 9.11077 6.06828C9.11551 6.06962 9.11987 6.07209 9.12345 6.07548C9.12703 6.07887 9.12974 6.08308 9.13134 6.08775C9.16832 6.18774 9.27339 6.58292 9.27339 6.58292Z" fill="#FEECBA"/>
<path d="M9.12495 6.0752C9.25885 6.14941 9.32808 6.21582 9.42338 6.27441C9.51842 6.44041 9.66866 6.55428 9.84431 6.64801L9.53681 6.8491C9.36714 6.7002 9.31419 6.68682 9.25885 6.53504C9.20885 6.39879 9.16777 6.22551 9.12495 6.0752Z" fill="#B56C23"/>
<path d="M16.1907 6.34521L16.2976 6.47412L15.8049 7.00709C15.7821 6.95469 15.6038 6.83949 15.6338 6.81303L16.1907 6.34521Z" fill="#B56C23"/>
<path d="M16.3164 6.4502C16.4328 6.62161 16.8164 7.23145 16.8164 7.23145L16.2304 7.63379C16.2304 7.63379 15.9159 7.16393 15.8049 7.00706L16.3164 6.4502Z" fill="#FFECA4"/>
<path d="M8.48166 7.30655L8.00166 7.85921C7.993 7.8691 7.98101 7.87544 7.96801 7.877C7.95502 7.87856 7.94195 7.87522 7.93135 7.86764L7.57416 7.61499C7.56135 7.60593 7.55963 7.59499 7.56901 7.58217C7.75151 7.32999 7.95401 7.09514 8.17651 6.87764C8.20119 6.85358 8.22151 6.84436 8.23744 6.84999C8.29683 6.95013 8.43562 7.22084 8.48166 7.30655Z" fill="#FEECBA"/>
<path d="M8.87105 7.39941L8.76948 7.49177C8.76948 7.49177 8.56747 7.38281 8.48167 7.30661L8.24214 6.85645L8.87105 7.39941Z" fill="#B56C23"/>
<path d="M16.8732 7.27515L17.6035 7.85358C17.6364 7.87358 17.6468 7.91546 17.6349 7.97921L17.0049 7.47811C17.0021 7.49843 16.9924 7.49155 16.9759 7.45749C16.9609 7.43843 16.9451 7.43561 16.9285 7.44905C16.7654 7.58436 16.5993 7.71171 16.4303 7.83108L16.2428 7.67733C16.2391 7.6742 16.2362 7.67023 16.2343 7.66576C16.2325 7.66128 16.2317 7.65644 16.2321 7.65165C16.2325 7.64686 16.2341 7.64226 16.2367 7.63824C16.2393 7.63422 16.2428 7.63091 16.247 7.62858L16.8732 7.27515Z" fill="#B56C23"/>
<path d="M16.9759 7.45753C16.9759 7.45753 16.5519 7.79332 16.4687 7.85645L16.4233 7.82332L16.9335 7.43457L16.9759 7.45753Z" fill="#FFECA4"/>
<path d="M16.9726 7.44238L17.635 7.97924C17.8285 8.1152 17.8496 8.70089 17.9007 8.91206C17.8525 8.75221 17.4564 8.48924 17.3373 8.40862C17.2539 8.16895 16.9726 7.44238 16.9726 7.44238Z" fill="#DA872C"/>
<path d="M7.42274 7.72705L6.9554 8.49533L6.88931 8.60924L6.8654 8.60549C6.86118 8.6048 6.85719 8.60308 6.85378 8.60049C6.85037 8.5979 6.84764 8.59452 6.84584 8.59064C6.84404 8.58676 6.84321 8.58249 6.84343 8.57822C6.84366 8.57394 6.84492 8.56979 6.84712 8.56611C7.01743 8.27424 7.20931 7.99455 7.42274 7.72705Z" fill="#6D3C15"/>
<path d="M7.42274 7.72705C7.48587 7.76486 7.5143 7.78861 7.50805 7.7983C7.30712 8.01455 7.1418 8.2583 7.01212 8.52955C7.01057 8.53267 7.00822 8.53533 7.00531 8.53725C7.0024 8.53916 6.99903 8.54028 6.99555 8.54047C6.99207 8.54066 6.98861 8.53992 6.9855 8.53833C6.9824 8.53674 6.97978 8.53436 6.9779 8.53143L6.9554 8.49533L7.42274 7.72705Z" fill="#FEF3D2"/>
<path d="M7.48824 7.77051L7.80778 8.10225C7.80778 8.10225 7.4969 8.59749 7.37217 8.79862L7.11905 8.6955L6.88936 8.60925L6.95545 8.49534L6.97795 8.53143C6.97983 8.53437 6.98246 8.53675 6.98556 8.53834C6.98866 8.53993 6.99213 8.54067 6.99561 8.54047C6.99909 8.54028 7.00246 8.53917 7.00537 8.53725C7.00828 8.53534 7.01062 8.53268 7.01217 8.52956C7.14186 8.25831 7.33152 7.99638 7.48824 7.77051Z" fill="#FFECA4"/>
<path d="M7.69649 7.98828L7.42969 7.71484L8.10547 8.24609L8.02836 8.3825L7.69649 7.98828Z" fill="#B56C23"/>
<path d="M17.3373 8.40857C17.4564 8.48919 17.8525 8.75216 17.9008 8.91201C17.9667 9.28576 18.0015 9.65763 18.0053 10.0276C17.8881 9.90794 17.7556 9.80076 17.6078 9.70607C17.5881 9.69326 17.5634 9.69123 17.5337 9.69998C17.5117 9.37982 17.4315 8.89177 17.3898 8.61529C17.3867 8.59498 17.3761 8.58966 17.358 8.59935L16.9839 8.79763C16.9248 8.82794 16.8828 8.84029 16.8578 8.83466L16.6276 8.63169L17.3373 8.40857Z" fill="#B56C23"/>
<path d="M6.89062 8.60938L7.37216 8.79856L7.40234 8.75L7.64933 9.01763L7.58594 9.11328C7.58594 9.11328 7.07031 8.74219 6.89062 8.60938Z" fill="#824917"/>
<path d="M17.3867 8.59473L17.5609 9.63863C17.5609 9.63863 17.5586 9.65821 17.5534 9.66676L17.5337 9.70004L16.8398 9.74316L17.4714 9.63301C17.4827 9.63094 17.4927 9.62465 17.4995 9.61542C17.5063 9.60618 17.5093 9.5947 17.5079 9.58332L17.3867 8.59473Z" fill="#DAAD49"/>
<path d="M7.17057 9.00103C7.18651 9.00822 7.20417 9.02447 7.22354 9.04978L7.19729 9.05166C7.18042 9.05322 7.16511 9.04916 7.15136 9.03947L6.89589 8.86087C6.88848 8.85559 6.88 8.85201 6.87104 8.8504C6.86208 8.84879 6.85286 8.84918 6.84404 8.85156C6.83522 8.85393 6.82702 8.85822 6.82002 8.86412C6.81302 8.87003 6.8074 8.8774 6.80354 8.88572L6.42854 9.70416C6.51886 9.37259 6.64839 9.06759 6.81714 8.78916C6.82526 8.77603 6.83557 8.77384 6.84807 8.78259L7.17057 9.00103Z" fill="#FEF3D2"/>
<path d="M17.5079 9.58332L17.3898 8.61536C17.3867 8.59504 17.376 8.58973 17.3579 8.59942C17.2669 8.64766 16.9023 8.92676 16.7265 9.03676L16.8217 9.72911C16.8232 9.74348 16.8306 9.74786 16.8437 9.74223C17.0585 9.7041 17.276 9.66661 17.4714 9.63301C17.4826 9.63095 17.4927 9.62465 17.4995 9.61542C17.5063 9.60619 17.5093 9.59471 17.5079 9.58332Z" fill="#FDDE5F"/>
<path d="M7.22354 9.04984C7.23823 9.06047 7.23995 9.07531 7.2287 9.09437L6.94557 9.73609C6.94089 9.74673 6.93287 9.75556 6.92271 9.76122C6.91256 9.76689 6.90084 9.76909 6.88932 9.7675L6.42854 9.70422L6.80354 8.88578C6.8074 8.87746 6.81302 8.87009 6.82002 8.86418C6.82702 8.85828 6.83522 8.85399 6.84404 8.85162C6.85286 8.84924 6.86208 8.84885 6.87104 8.85046C6.88 8.85207 6.88848 8.85565 6.89589 8.86093L7.15136 9.03953C7.16511 9.04922 7.18042 9.05328 7.19729 9.05172L7.22354 9.04984Z" fill="#FCDE87"/>
<path d="M17.5337 9.70003C17.5634 9.69128 17.5881 9.69331 17.6077 9.70612C17.7556 9.80081 17.8881 9.908 18.0052 10.0277L18.0029 10.188L17.9921 10.1946C17.9877 10.1971 17.9835 10.1971 17.9795 10.1946C17.8423 10.1042 17.7143 10.0016 17.5956 9.88659C17.5837 9.87503 17.5695 9.87003 17.5529 9.87159C17.5451 9.87253 17.5387 9.87487 17.5337 9.87862L17.1362 9.99628L16.9581 9.79847C16.9557 9.79571 16.954 9.79241 16.9532 9.78887C16.9523 9.78532 16.9524 9.78164 16.9533 9.77816C16.9543 9.77468 16.956 9.7715 16.9585 9.7689C16.961 9.76631 16.964 9.76439 16.9674 9.76331L17.0682 9.72909L17.5337 9.70003Z" fill="#824917"/>
<path d="M6.38212 9.86401C6.31962 10.1178 6.25602 10.3587 6.19133 10.5868C6.17821 10.6325 6.15602 10.657 6.12477 10.6604C6.16883 10.3764 6.25462 10.1109 6.38212 9.86401Z" fill="#FEF3D2"/>
<path d="M18.0029 10.188L18.0006 10.2822C17.9833 10.2735 17.7043 10.0636 17.621 10.0283L17.552 11.0065L16.8203 10.9643C16.9848 10.9643 17.3244 10.9528 17.4404 10.9643C17.45 10.9653 17.4596 10.9626 17.4673 10.9567C17.475 10.9507 17.4801 10.942 17.4817 10.9324C17.5338 10.5896 17.5585 10.2447 17.5557 9.89787C17.5557 9.8913 17.5526 9.88693 17.5463 9.88474C17.5423 9.88318 17.5381 9.88115 17.5337 9.87865C17.5387 9.8749 17.5451 9.87255 17.5529 9.87162C17.5695 9.87005 17.5837 9.87505 17.5956 9.88662C17.7143 10.0016 17.8423 10.1043 17.9795 10.1946C17.9835 10.1971 17.9877 10.1971 17.9921 10.1946L18.0029 10.188Z" fill="#B27731"/>
<path d="M6.38214 9.86401L6.81855 10.0417L6.80214 10.1181L6.61933 10.8085L6.0887 10.869C6.08537 10.8702 6.08177 10.8704 6.07833 10.8696C6.07488 10.8688 6.07173 10.8671 6.06923 10.8646C6.06673 10.8621 6.06499 10.8589 6.0642 10.8555C6.06342 10.852 6.06363 10.8484 6.0648 10.8451L6.1248 10.6604C6.15605 10.657 6.17823 10.6325 6.19136 10.5868C6.25605 10.3587 6.31964 10.1178 6.38214 9.86401Z" fill="#FDDE5F"/>
<path d="M17.5337 9.87866C17.5381 9.88116 17.5423 9.88319 17.5464 9.88476C17.5526 9.88694 17.5558 9.89132 17.5558 9.89788C17.5586 10.2448 17.5339 10.5896 17.4817 10.9324C17.4802 10.9421 17.475 10.9508 17.4674 10.9567C17.4597 10.9626 17.45 10.9654 17.4405 10.9643C17.2374 10.9441 17.0212 10.9689 16.8255 10.9624C16.8142 10.9621 16.8089 10.9563 16.8095 10.9451L16.8578 10.0887C16.8584 10.0774 16.8642 10.0704 16.8751 10.0676L17.5337 9.87866Z" fill="#FDDE5F"/>
<path d="M18.0006 10.2822C17.9956 10.6007 17.9643 10.9375 17.9068 11.2929L17.552 11.0064L17.6015 10.0127C17.6536 10.0127 17.9753 10.2694 18.0006 10.2822Z" fill="#98571B"/>
<path d="M7.11806 10.2217L6.81853 10.0417L6.80212 10.1182L6.61935 10.8086C6.82939 10.8425 6.78995 11.0203 6.76848 11.185C6.76784 11.1899 6.76559 11.1944 6.76209 11.1979C6.75858 11.2013 6.75403 11.2035 6.74914 11.2041C6.74425 11.2046 6.73932 11.2035 6.73513 11.201L6.57716 11.1119L6.46278 11.846C6.64903 11.84 6.78197 11.9519 6.81853 12.1572C6.84298 11.5 6.93812 10.8562 7.11806 10.2217Z" fill="#824917"/>
<path d="M6.61935 10.8086C6.6571 10.8147 6.93745 10.9931 6.93745 10.9931L6.89058 11.2588C6.89058 11.2588 6.5456 11.0673 6.4356 11.0486L6.0898 10.8681L6.61935 10.8086Z" fill="#50280C"/>
<path d="M16.9126 10.967L17.552 11.0064L17.9068 11.2928L17.8539 11.5506C17.7567 11.4419 17.642 11.3477 17.5098 11.268C17.5282 11.2108 17.4821 11.2025 17.3715 11.2431C17.32 11.2203 17.265 11.213 17.2065 11.2211C17.1896 11.2233 17.1751 11.2186 17.1629 11.207L16.9126 10.967Z" fill="#6D3C15"/>
<path d="M6.43558 11.0486C6.54558 11.0674 6.59277 11.0885 6.57714 11.1119L6.46277 11.846L5.96214 12.0025C5.94183 12.0088 5.93292 12.0013 5.93542 11.98L6.05308 11.0116L6.43558 11.0486Z" fill="#FDDE5F"/>
<path d="M17.5098 11.268C17.4539 11.6495 17.3645 12.0286 17.2417 12.4052L16.5704 12.1774C16.5532 12.1689 16.5468 12.1555 16.5512 12.137L16.7542 11.2919C16.7582 11.275 16.7692 11.2663 16.787 11.2656C16.8793 11.2621 17.5291 11.2083 17.5098 11.268Z" fill="#FFECA4"/>
<path d="M17.5098 11.2679C17.642 11.3476 17.7567 11.4419 17.8538 11.5506C17.8051 11.8456 17.732 12.14 17.6345 12.4337C17.6307 12.4293 17.255 12.4043 17.2417 12.4051C17.3645 12.0286 17.4538 11.6495 17.5098 11.2679Z" fill="#824917"/>
<path d="M6.51949 12.8408C6.51949 12.8408 6.13465 13.0724 6.00996 13.1369C5.99246 13.146 5.98293 13.1407 5.98136 13.121C5.95901 12.8359 5.95699 12.4932 5.91949 12.2182C5.91796 12.2122 5.91775 12.206 5.91889 12.2C5.92002 12.194 5.92246 12.1883 5.92604 12.1833C5.92962 12.1784 5.93425 12.1743 5.9396 12.1713C5.94494 12.1683 5.95088 12.1665 5.95699 12.1661L6.44543 12.13C6.45218 12.1295 6.45898 12.1304 6.46538 12.1326C6.47179 12.1347 6.47768 12.1382 6.48268 12.1427C6.48769 12.1472 6.4917 12.1527 6.49449 12.1589C6.49727 12.165 6.49876 12.1716 6.49886 12.1783L6.51949 12.8408Z" fill="#FCDE87"/>
<path d="M6.51151 12.6299L6.52839 12.8374C6.53214 12.854 6.52651 12.8661 6.51151 12.874L6.06432 13.1088C6.05745 13.0779 6.06182 13.0583 6.07745 13.0502C6.2271 12.9696 6.52738 12.8264 6.51151 12.6299Z" fill="#DAAD49"/>
<path d="M6.57293 13.1627C6.57074 13.147 6.56214 13.1417 6.54714 13.1467L6.03058 13.3136C6.02276 13.3162 6.01618 13.3216 6.01211 13.3287C6.00804 13.3358 6.00677 13.3441 6.00855 13.352L6.19746 14.1986C6.199 14.2053 6.20212 14.2115 6.20656 14.2167C6.21101 14.2219 6.21664 14.2259 6.22298 14.2285C6.22933 14.2311 6.2362 14.2321 6.24301 14.2315C6.24983 14.2308 6.25639 14.2286 6.26214 14.2248C6.41734 14.1226 6.55151 13.9746 6.70793 13.8681C6.72574 13.8563 6.71137 13.8039 6.70793 13.7758C6.65043 13.6627 6.62043 13.5385 6.61793 13.4031L6.57293 13.1627Z" fill="#FEF3D2"/>
<path d="M6.61794 13.4031L6.74028 13.8414L6.70794 13.7757C6.65044 13.6626 6.62044 13.5384 6.61794 13.4031Z" fill="#B27731"/>
<path d="M16.9726 14.001L16.8713 14.2042C16.7343 14.0283 16.5937 13.9463 16.4296 13.8369C16.4392 13.7961 16.5156 13.5869 16.5156 13.5869C16.5156 13.5869 16.8945 13.8799 16.9726 14.001Z" fill="#98571B"/>
<path d="M16.5142 12.4783L17.1728 12.5819C17.19 12.5851 17.1956 12.5949 17.1897 12.6115C17.0547 12.9918 16.8937 13.361 16.7069 13.7191C16.7058 13.7213 16.7042 13.7232 16.7023 13.7248C16.7004 13.7263 16.6982 13.7274 16.6958 13.728C16.6934 13.7286 16.6909 13.7287 16.6885 13.7283C16.686 13.7279 16.6836 13.727 16.6815 13.7257L16.1031 13.353C16.096 13.3484 16.0908 13.3414 16.0884 13.3333C16.086 13.3251 16.0866 13.3163 16.09 13.3085L16.4481 12.4938C16.4544 12.4794 16.4653 12.473 16.4809 12.4746L16.5142 12.4783Z" fill="#FFECA4"/>
<path d="M16.6187 13.9051C16.6187 13.9051 16.1074 14.6767 15.9221 14.9429C15.8881 14.9829 15.4825 14.4986 15.4206 14.4325C15.4118 14.4231 15.411 14.4129 15.4182 14.402L15.9123 13.6431C15.9177 13.6349 15.9258 13.6288 15.9352 13.6259C15.9446 13.623 15.9547 13.6235 15.9638 13.6271C16.045 13.6585 16.6187 13.9051 16.6187 13.9051Z" fill="#FFECA4"/>
<path d="M6.70792 13.7758L6.74026 13.8414L6.53261 14.0003C6.56948 13.9353 6.62073 13.8804 6.68636 13.8358C6.70417 13.8239 6.71136 13.8039 6.70792 13.7758Z" fill="#C6933D"/>
<path d="M16.8714 14.2043L16.621 13.8994L15.9179 14.9502" fill="#50280C"/>
<path d="M16.621 13.8994L16.8714 14.2043L16.2187 15.165L15.9179 14.9502L16.621 13.8994Z" fill="#50280C"/>
<path d="M15.8026 15.0935C15.5389 15.379 15.2343 15.6463 14.9884 15.9415C14.9725 15.9608 14.9564 15.9693 14.9401 15.9668C14.9279 15.9649 14.9176 15.9544 14.9092 15.9354C14.8167 15.7368 14.7001 15.5489 14.5932 15.3579C14.5867 15.3457 14.5881 15.3344 14.5975 15.3241L15.1932 14.681C15.2045 14.6688 15.2168 14.6674 15.2303 14.6768C15.3881 14.7871 15.664 14.9893 15.8026 15.0935Z" fill="#FFECA4"/>
<path d="M6.8064 14.1232L7.11389 14.7302L6.63015 15.1938L6.28843 14.4255C6.28187 14.4115 6.28546 14.4007 6.29921 14.3932L6.8064 14.1232Z" fill="#FCDE87"/>
<path d="M15.8789 14.9229L16.232 15.1736L16.0942 15.3372C16.0759 15.33 15.8454 15.1471 15.8046 15.0986C15.8281 15.0361 15.8789 14.9541 15.8789 14.9229Z" fill="#6D3C15"/>
<path d="M7.34352 15.0808L7.66884 15.5228C7.6754 15.5319 7.67587 15.5413 7.67024 15.551L7.66274 15.5636L7.30321 16.1036L6.75524 15.4188C6.74587 15.405 6.74712 15.3922 6.75899 15.3804C6.76806 15.3713 6.77899 15.3646 6.79181 15.3602L7.23712 15.0049C7.25056 14.9943 7.26321 14.9952 7.27509 15.0077L7.34352 15.0808Z" fill="#FFECA4"/>
<path d="M7.88667 15.7119L7.41339 16.2405L7.30324 16.1036L7.66277 15.5636L7.6773 15.5205L7.26949 14.9893H7.35152L7.88667 15.7119Z" fill="#50280C"/>
<path d="M7.25777 14.9893L6.75777 15.3877L6.62105 15.1954L7.10152 14.7462L6.78621 14.1194H6.83199L7.25777 14.9893Z" fill="#50280C"/>
<path d="M14.3437 15.5596C14.6715 15.7537 14.9804 15.9893 15.2556 16.2358L15.0981 16.3854C15.0203 16.2759 14.7658 16.0774 14.7658 16.0774L14.3437 15.5596Z" fill="#824917"/>
<path d="M7.85405 15.7399C7.86811 15.7393 7.88358 15.7504 7.90045 15.7732L7.44811 16.2911C7.41748 16.2643 7.40592 16.2474 7.41342 16.2405L7.85405 15.7399Z" fill="#FEF3D2"/>
<path d="M8.60026 16.3324C8.48463 16.5311 8.36401 16.7275 8.23838 16.9216C8.22432 16.9432 8.23791 16.9572 8.27916 16.9638C8.5126 17.1175 8.76073 17.243 9.02354 17.3402C9.03916 17.3458 9.04916 17.3407 9.05354 17.3247L9.24713 16.6375L9.45432 16.8133L9.23448 17.3341C9.22135 17.3569 9.21463 17.376 9.21432 17.3913C9.21369 17.4069 9.22057 17.4175 9.23494 17.4232C9.48151 17.5185 9.76401 17.5865 10.0824 17.6271C10.1093 17.4232 10.1514 17.1117 10.1514 16.9463C10.2382 16.9697 10.3515 17.0127 10.4354 17.0533L10.3032 17.6182C10.3001 17.6316 10.3054 17.639 10.3192 17.6402C10.6252 17.6689 11.0507 17.6543 11.2824 17.6543C11.3269 17.6725 11.7785 17.9727 11.7137 18.0274C11.1215 18.1233 10.529 18.123 9.93619 18.0265C9.49401 17.8818 9.07979 17.6525 8.69354 17.3388C8.46635 17.1907 8.26385 17.0291 8.08604 16.8541L8.39119 16.1894C8.39682 16.1766 8.39432 16.1657 8.38369 16.1566L7.92385 15.7779C7.92354 15.7594 7.93291 15.7475 7.95198 15.7422C7.9595 15.74 7.96747 15.7401 7.9749 15.7423C7.98232 15.7446 7.98886 15.7489 7.99369 15.7549C8.1615 15.9596 8.60026 16.2314 8.60026 16.3324Z" fill="#50280C"/>
<path d="M7.90042 15.7732C7.90167 15.7763 7.90948 15.7779 7.92386 15.7779L8.3837 16.1566C8.39432 16.1657 8.39682 16.1766 8.3912 16.1894L8.08604 16.8541L7.44807 16.2912L7.90042 15.7732Z" fill="#FFECA4"/>
<path d="M14.7657 16.0774C14.7831 16.081 14.7657 16.0774 14.8074 16.1107C14.5532 16.3649 14.1865 16.5771 13.8737 16.7547C13.8533 16.7663 13.846 16.7172 13.846 16.7172C14.1709 16.5485 14.4854 16.3341 14.7657 16.0774Z" fill="#B27731"/>
<path d="M14.8046 16.0986C14.9384 16.1611 15.0449 16.2482 15.1243 16.3597C14.8552 16.5938 14.5457 16.8336 14.2482 17.028C14.2118 17.004 13.8632 16.7627 13.8632 16.7627C13.8632 16.7627 14.5781 16.3597 14.8046 16.0986Z" fill="#50280C"/>
<path d="M13.3365 16.2358L13.7256 16.548C13.7362 16.5565 13.7438 16.5544 13.7485 16.5419L13.7682 16.4904L13.846 16.7172C13.8426 16.7279 13.8423 16.7368 13.8451 16.744C13.8504 16.759 13.8599 16.7626 13.8737 16.7547C13.8892 16.7459 14.1478 16.9617 14.2482 17.028L14.0246 17.171C13.9078 17.0429 13.7837 16.9537 13.6524 16.9033C13.6637 16.8955 13.6674 16.8849 13.6637 16.8715C13.6549 16.8421 13.6488 16.8301 13.6454 16.8354C13.547 16.6507 13.3941 16.4336 13.3365 16.2358Z" fill="#6D3C15"/>
<path d="M14.7657 16.0774C14.4854 16.3341 14.1709 16.5484 13.846 16.7172C13.7762 16.5214 13.6365 16.122 13.6365 16.0905C13.6327 16.0764 13.6368 16.065 13.6487 16.0563L14.3143 15.5725C14.3274 15.5632 14.3399 15.5639 14.3518 15.5749L14.7657 16.0774Z" fill="#FCDE87"/>
<path d="M8.60029 16.3324C8.6156 16.3258 8.63279 16.3264 8.65185 16.3342C8.6506 16.3602 8.64685 16.378 8.6406 16.3877C8.51591 16.5783 8.39544 16.7703 8.27919 16.9638C8.23794 16.9572 8.22435 16.9432 8.23841 16.9216C8.36404 16.7275 8.48466 16.5311 8.60029 16.3324Z" fill="#FEF3D2"/>
<path d="M8.65185 16.3342L9.24716 16.6375L9.05357 17.3247C9.04919 17.3406 9.03919 17.3458 9.02357 17.3402C8.76075 17.243 8.51263 17.1175 8.27919 16.9638C8.39544 16.7703 8.51591 16.5783 8.6406 16.3877C8.64685 16.378 8.6506 16.3602 8.65185 16.3342Z" fill="#FCDE87"/>
<path d="M12.6053 16.5757L13.3365 16.2358L13.6454 16.8354C13.3958 17.0603 13.01 17.2115 12.6929 17.3285L12.5874 16.608C12.5856 16.593 12.5915 16.5822 12.6053 16.5757Z" fill="#FCDE87"/>
<path d="M12.6259 16.9502L12.6929 17.3285C12.8742 17.4782 13.0436 17.5713 13.2011 17.6079L12.8256 17.7757L12.7736 17.7532C12.8145 17.7438 12.8415 17.7283 12.8546 17.7068C12.8585 17.7007 12.86 17.6934 12.8588 17.6863C12.8576 17.6792 12.8538 17.6728 12.8481 17.6683L12.4787 17.3739L12.2828 16.6905C12.2703 16.6811 12.2753 16.6749 12.2978 16.6718C12.31 16.6699 12.3168 16.675 12.3184 16.6872L12.3207 16.7041C12.3232 16.7213 12.3314 16.7349 12.3451 16.7449L12.6259 16.9502Z" fill="#6D3C15"/>
<path d="M12.2828 16.6904L12.4787 17.3739C12.1367 17.4931 11.8125 17.5673 11.4972 17.6181C11.4825 17.625 11.4756 17.6203 11.4765 17.604L11.5047 17.0837L11.5164 16.8878C11.5176 16.8712 11.5264 16.8611 11.5426 16.8573L12.2828 16.6904Z" fill="#FCDE87"/>
<path d="M9.54482 16.721L9.28233 17.3519C9.29139 17.3691 9.28061 17.3756 9.24998 17.3716C9.24061 17.3703 9.23545 17.3578 9.23451 17.3341L9.45436 16.8133C9.47373 16.7296 9.50389 16.6988 9.54482 16.721Z" fill="#FFECA4"/>
<path d="M9.5448 16.7209L10.12 16.8789C10.1327 16.8824 10.1439 16.89 10.1517 16.9006C10.1595 16.9111 10.1635 16.924 10.1631 16.937C10.1517 17.0986 10.12 17.3877 10.0825 17.627C9.87886 17.583 9.38557 17.4469 9.27339 17.3838L9.5448 16.7209Z" fill="#FDDE5F"/>
<path d="M13.6454 16.8353C13.6488 16.83 13.6549 16.842 13.6637 16.8714C13.6674 16.8849 13.6637 16.8955 13.6524 16.9033C13.3846 17.0627 13.1113 17.1872 12.8326 17.2769C13.0853 17.1349 13.4368 17.0233 13.6454 16.8353Z" fill="#B56C23"/>
<path d="M11.5047 17.0837L11.4765 17.604C11.4756 17.6203 11.4825 17.625 11.4972 17.6181C11.5172 17.6087 11.5373 17.6054 11.5576 17.6082L11.5384 17.6242C11.5345 17.6273 11.5315 17.6314 11.5297 17.636C11.5279 17.6406 11.5273 17.6456 11.528 17.6506C11.5287 17.6555 11.5307 17.6601 11.5338 17.6641C11.5368 17.668 11.5408 17.671 11.5454 17.6729C11.7132 17.7392 11.8372 17.8389 11.9172 17.972C11.8503 18.0067 11.7825 18.0251 11.7137 18.0273C11.7497 17.997 11.7364 17.97 11.6739 17.9462C11.6603 17.941 11.6482 17.9323 11.6387 17.9209C11.5368 17.7987 11.4181 17.7098 11.2825 17.6542L11.222 16.8953L11.5047 17.0837Z" fill="#6D3C15"/>
<path d="M11.222 16.8953L11.2825 17.6542C11.0351 17.6401 10.625 17.6401 10.3192 17.6401C10.3054 17.6389 10.3001 17.6315 10.3033 17.6181L10.4354 17.0532L10.4579 16.9168L11.222 16.8953Z" fill="#FCDE87"/>
<path d="M13.6525 16.9033C13.7837 16.9536 13.9078 17.0429 14.0247 17.171L13.2011 17.6079C13.0436 17.5713 12.8742 17.4782 12.6929 17.3285L12.8326 17.2769C13.1114 17.1872 13.3847 17.0627 13.6525 16.9033Z" fill="#50280C"/>
<path d="M9.2345 17.3341C9.33869 17.4609 9.92966 17.5712 10.0825 17.6271C9.76404 17.5865 9.48154 17.5185 9.23497 17.4232C9.2206 17.4175 9.21372 17.4069 9.21435 17.3913C9.21466 17.376 9.22138 17.3569 9.2345 17.3341Z" fill="#C6933D"/>
<path d="M12.4787 17.3739L12.848 17.6683C12.8537 17.6727 12.8575 17.6791 12.8587 17.6862C12.8599 17.6933 12.8585 17.7006 12.8546 17.7067C12.8415 17.7283 12.8145 17.7437 12.7735 17.7531C12.512 17.8478 12.1993 17.972 11.9171 17.972C11.8371 17.8389 11.7132 17.7392 11.5454 17.673C11.5408 17.6711 11.5368 17.668 11.5337 17.6641C11.5306 17.6602 11.5287 17.6555 11.528 17.6506C11.5272 17.6457 11.5278 17.6407 11.5297 17.636C11.5315 17.6314 11.5345 17.6273 11.5384 17.6242L11.5576 17.6083C11.8791 17.5689 12.1862 17.4908 12.4787 17.3739Z" fill="#50280C"/>
<path d="M12.7736 17.7532L12.8256 17.7757C12.3331 17.961 11.825 18.0818 11.3012 18.138L10.8667 18.1643C10.5004 18.1599 10.137 18.1194 9.77638 18.0429L9.93623 18.0265C10.8896 18.1817 11.872 18.0796 12.7736 17.7532Z" fill="#B27731"/>
<path fill-rule="evenodd" clip-rule="evenodd" d="M16.5522 5.36034C15.0685 4.11595 13.0616 3.66222 11.1653 4.26345C9.38235 4.80299 7.85612 6.002 6.8167 7.54002C5.65031 9.26866 5.05603 11.4056 5.31905 13.4866C5.52058 14.949 6.22025 16.45 7.382 17.4025C8.54201 18.366 10.1079 18.7689 11.6327 18.5594C15.4794 17.904 18.1628 14.2042 18.4961 10.6581C18.5907 9.65146 18.3965 8.66176 18.0916 7.70783C17.7288 6.83454 17.3048 5.9744 16.5522 5.36034ZM6.63906 8.48877C6.36906 9.04212 6.16259 9.57778 5.94202 10.1767C5.49273 11.6096 5.45973 13.366 6.04564 14.7705C6.63868 16.3899 8.09982 17.5978 9.77641 18.0428C11.834 18.4797 13.8597 17.5154 15.3681 16.1327C15.9812 15.5516 16.4101 14.9036 16.8714 14.2042C17.3044 13.3678 17.699 12.4878 17.8539 11.5506C18.1572 10.0743 18.023 8.5041 17.2801 7.07922C16.9323 6.41197 16.446 5.93284 15.8936 5.45081C15.3677 5.05581 14.7817 4.77095 14.1357 4.59627C13.1892 4.3722 12.2486 4.38455 11.3139 4.6333C10.347 4.88982 9.49395 5.40081 8.69018 5.98611C7.90259 6.64078 7.10941 7.57973 6.63906 8.48877Z" fill="#FEF3D2"/>
<g filter="url(#filter1_f_1964_5997)">
<path d="M15.7346 9.91107C15.6091 10.1767 15.287 10.2083 15.1173 10.0972C14.9692 10 14.8792 9.64703 14.7381 9.59794C14.4156 9.48919 14.2576 9.59466 13.9506 9.73669C14.155 9.53044 14.6307 9.30498 14.8675 9.59794C14.9678 9.72216 14.9875 9.89185 15.1 9.99685C15.2889 10.1726 15.564 10.0704 15.7346 9.91107Z" fill="#3E3401"/>
<path d="M11.3709 10.2939C11.3049 10.5843 11.2537 10.8057 11.4071 10.9602C11.5458 11.0479 11.8679 11.0343 12.0474 11.0704C12.0649 11.0738 12.0716 11.0843 12.0676 11.1018L11.994 11.4541C11.8435 11.4541 12.039 11.1141 11.9668 11.1111C11.7896 11.1032 11.4971 11.1238 11.3504 11.0211C11.0723 10.8258 11.2107 10.376 11.3709 10.2939Z" fill="#3E3401"/>
<path d="M14.8768 11.1733C14.8743 11.1999 14.8633 11.2232 14.8436 11.2432C14.8329 11.2538 14.8201 11.26 14.8051 11.2619C14.6983 11.2738 14.6134 11.2769 14.5506 11.2713C14.0522 11.2257 13.4828 11.1862 12.9803 11.1733L12.9779 11.0974C13.532 11.0993 14.0973 11.1372 14.5361 11.1907C14.6661 11.2066 14.7797 11.2008 14.8768 11.1733Z" fill="#3E3401"/>
<path d="M14.2811 12.2065C14.1847 12.3458 14.095 12.4391 13.8948 12.4315C13.5226 12.4181 13.1511 12.3873 12.7801 12.3392C12.7714 12.3333 12.781 12.2679 12.7801 12.2417C12.906 12.2417 13.4075 12.3212 13.645 12.3261C13.8447 12.3298 14.0434 12.3903 14.2094 12.2281L14.2811 12.2065Z" fill="#3E3401"/>
<path fill-rule="evenodd" clip-rule="evenodd" d="M11.1784 11.9145C11.1481 11.7463 11.1954 11.607 11.3204 11.4963C10.9876 11.4931 10.959 12.2356 11.4568 12.281C11.5662 12.291 11.665 12.2935 11.7531 12.2885C11.799 12.286 11.8215 12.3078 11.8206 12.3537C11.8046 12.987 12.04 13.5757 12.5556 13.9343C12.7009 14.0356 12.8425 14.1048 12.9803 14.142C13.5793 14.3048 14.2459 14.1337 14.6795 13.8017C14.6003 13.8519 14.4463 13.9731 14.3017 14.0131C13.4138 14.2587 12.5603 14.0473 12.0887 13.2265C11.9609 12.909 11.8982 12.5799 11.9007 12.2393C11.9011 12.2138 11.8752 12.1916 11.8501 12.1957C11.6078 12.2356 11.2346 12.2271 11.1784 11.9145Z" fill="#3E3401"/>
</g>
<path d="M14.2114 8.68433C13.5328 8.96346 12.7862 9.60866 12.4374 10.2588C12.3691 10.2684 12.3 10.2713 12.3163 10.2393C12.4888 9.89804 12.7269 9.56161 12.9928 9.27692C13.2322 9.01224 13.8247 8.7312 14.2114 8.68433Z" fill="#2F1E0C"/>
<path d="M15.7773 9.76806C15.7032 10.0746 15.3452 10.2926 15.061 10.0282C14.9485 9.92322 14.9288 9.75353 14.8285 9.62931C14.5918 9.33635 14.116 9.56181 13.9117 9.76806C13.6594 9.93732 13.5664 10.1534 13.4921 10.3487C13.5009 10.2934 13.5117 10.1748 13.5937 10.0282C13.7681 9.71653 14.2309 9.30916 14.7845 9.379C15.1693 9.42775 15.0282 9.73244 15.2649 9.90588C15.4227 10.0215 15.5729 9.90806 15.7773 9.76806Z" fill="#382D13"/>
<path d="M11.5305 10.2695C11.4186 10.3555 11.3683 10.3708 11.3476 10.5513C11.3064 10.9839 11.8328 10.9056 12.0958 10.9249C12.1114 10.9258 12.1262 10.9326 12.137 10.9441C12.2472 11.0617 12.1132 11.5681 11.9645 11.4152L12.0287 11.133C12.0328 11.1155 12.0261 11.105 12.0086 11.1016C11.8291 11.0655 11.507 11.0791 11.3683 10.9914C11.1711 10.8677 11.1875 10.5127 11.2886 10.3708C11.3897 10.2289 11.5305 10.2695 11.5305 10.2695Z" fill="#382D13"/>
<path d="M15.0667 11.0229C15.0036 11.1085 14.9273 11.1691 14.8379 11.2048C14.7407 11.2323 14.6272 11.238 14.4972 11.2221C14.0584 11.1687 13.5546 11.1377 12.9807 11.1377C12.9422 11.1377 12.9642 11.083 12.9807 11.0215C12.9844 11.008 12.9963 10.9974 13.0103 10.9952C13.0734 10.9849 13.1364 10.9818 13.1992 10.9859C13.6942 11.018 14.1893 11.0477 14.6847 11.0749C14.822 11.0824 14.9354 11.0538 15.0667 11.0229Z" fill="#382D13"/>
<path d="M11.387 11.5123C11.229 11.682 11.2023 12.0373 11.5159 12.0729C11.6506 12.0885 11.774 12.0985 11.8862 12.1029C11.9135 12.104 11.9395 12.1151 11.9592 12.134C11.979 12.1529 11.9912 12.1783 11.9936 12.2056L12.0208 12.5299C12.0793 13.346 12.6606 13.9671 13.4917 14.0177C14.1948 14.0604 14.75 13.6534 15.2109 13.3096C14.957 13.6885 14.3884 14.0049 14.2628 14.0445C12.9375 14.462 11.8301 13.7159 11.8618 12.2707C11.8619 12.2643 11.8606 12.258 11.858 12.2522C11.8554 12.2464 11.8515 12.2413 11.8467 12.2371C11.8419 12.233 11.8362 12.2299 11.8301 12.2282C11.8239 12.2265 11.8175 12.2261 11.8112 12.2271C11.5689 12.267 11.1958 12.2585 11.1395 11.9459C11.1092 11.7777 11.1565 11.6384 11.2815 11.5277C11.3032 11.5109 11.4356 11.4605 11.387 11.5123Z" fill="#2F1E0C"/>
<path d="M14.1705 12.2595C14.0045 12.4216 13.8058 12.3612 13.6061 12.3574C13.3544 12.3523 13.0078 12.3096 12.747 12.2823C12.6761 12.2748 12.6738 12.147 12.747 12.1507L14.1658 12.244L14.1687 12.245L14.1705 12.2477C14.172 12.2524 14.172 12.2563 14.1705 12.2595Z" fill="#2F1E0C"/>
<path d="M14.8203 12.7002C14.4925 12.9461 14.2532 13.1 13.8859 13.2485C13.8162 13.2763 13.7748 13.2758 13.7617 13.2471C14.0195 13.1299 14.5495 12.8607 14.8203 12.7002Z" fill="#382D13"/>
<path d="M15.2046 8.58501C15.0053 8.64447 14.985 8.73198 14.9558 8.79769C15.0069 8.75023 15.1417 8.70657 15.2921 8.66808C15.4425 8.62959 15.5879 8.65205 15.6419 8.66808C15.5792 8.61562 15.404 8.52555 15.2046 8.58501Z" fill="#2F1E0C"/>
<path d="M13.5104 10.3395C13.9788 10.3373 14.4438 10.3728 14.9054 10.4459C15.0979 10.5315 15.1649 10.6919 15.1064 10.9269C15.0882 11.0934 14.8115 11.0824 14.6846 11.0755C14.1892 11.0483 13.6941 11.0186 13.1991 10.9864C13.1363 10.9823 13.0733 10.9855 13.0102 10.9958C12.9962 10.998 12.9843 11.0086 12.9806 11.022C12.9774 11.034 12.8985 11.4773 12.9099 11.488C12.9218 11.4992 12.9359 11.5033 12.9521 11.5001C13.003 11.4901 13.0541 11.487 13.1054 11.4908C13.4504 11.5161 13.7596 11.5449 14.1254 11.5962C14.453 11.6422 14.4899 12.1507 14.2421 12.2384C14.0038 12.3228 13.2131 12.1845 12.7993 12.1569C12.7916 12.1565 12.7839 12.1583 12.7773 12.162C12.7506 12.177 12.7345 12.3301 12.7411 12.3711C12.8476 13.0284 13.1448 13.375 13.7461 13.2416C14.2098 13.1387 14.4487 12.9723 14.8214 12.6926C14.9456 12.652 15.16 12.7634 15.2306 12.885C15.3158 13.0317 15.2818 13.2814 15.1828 13.3564C14.6531 13.7595 14.1947 14.0609 13.4916 14.0183C12.6605 13.9676 12.0793 13.3465 12.0207 12.5304L11.9935 12.2061C11.9911 12.1789 11.9789 12.1534 11.9591 12.1345C11.9394 12.1156 11.9134 12.1046 11.8861 12.1034C11.7739 12.0991 11.6505 12.0891 11.5158 12.0734C11.2022 12.0378 11.2289 11.6825 11.3869 11.5128C11.4682 11.4262 11.7343 11.4158 11.9644 11.4158C12.0592 11.4158 12.1006 11.3467 12.1369 11.2471C12.1732 11.1475 12.2045 11.0168 12.1369 10.9447C12.0975 10.9031 12.0003 10.9218 11.9501 10.9212C11.6765 10.9182 11.313 10.9142 11.3475 10.5519C11.3575 10.45 11.394 10.3063 11.5303 10.2701C11.8358 10.189 12.1633 10.28 12.4442 10.242C12.6048 9.91952 12.7992 9.63202 13.0273 9.37952C13.5372 8.81061 14.2957 8.53187 15.0288 8.68164L15.129 8.66842C15.3241 8.54387 15.7239 8.548 15.804 8.80438C15.8809 9.04815 15.8977 9.29891 15.8543 9.5567C15.8068 9.85211 15.5532 10.1177 15.2649 9.9064C15.1685 9.83574 15.1347 9.74331 15.1026 9.65527C15.0558 9.52719 15.0125 9.40841 14.7844 9.37952C14.2504 9.31214 13.8691 9.65527 13.6445 9.95413C13.5517 10.0776 13.4428 10.3665 13.5104 10.3395Z" fill="url(#paint7_linear_1964_5997)"/>
<mask id="mask1_1964_5997" style="mask-type:alpha" maskUnits="userSpaceOnUse" x="11" y="8" width="5" height="7">
<path d="M13.5104 10.3395C13.9788 10.3373 14.4438 10.3728 14.9054 10.4459C15.0979 10.5315 15.1649 10.6919 15.1064 10.9269C15.0882 11.0934 14.8115 11.0824 14.6846 11.0755C14.1892 11.0483 13.6941 11.0186 13.1991 10.9864C13.1363 10.9823 13.0733 10.9855 13.0102 10.9958C12.9962 10.998 12.9843 11.0086 12.9806 11.022C12.9774 11.034 12.8985 11.4773 12.9099 11.488C12.9218 11.4992 12.9359 11.5033 12.9521 11.5001C13.003 11.4901 13.0541 11.487 13.1054 11.4908C13.4504 11.5161 13.7596 11.5449 14.1254 11.5962C14.453 11.6422 14.4899 12.1507 14.2421 12.2384C14.0038 12.3228 13.2131 12.1845 12.7993 12.1569C12.7916 12.1565 12.7839 12.1583 12.7773 12.162C12.7506 12.177 12.7345 12.3301 12.7411 12.3711C12.8476 13.0284 13.1448 13.375 13.7461 13.2416C14.2098 13.1387 14.4487 12.9723 14.8214 12.6926C14.9456 12.652 15.16 12.7634 15.2306 12.885C15.3158 13.0317 15.2818 13.2814 15.1828 13.3564C14.6531 13.7595 14.1947 14.0609 13.4916 14.0183C12.6605 13.9676 12.0793 13.3465 12.0207 12.5304L11.9935 12.2061C11.9911 12.1789 11.9789 12.1534 11.9591 12.1345C11.9394 12.1156 11.9134 12.1046 11.8861 12.1034C11.7739 12.0991 11.6505 12.0891 11.5158 12.0734C11.2022 12.0378 11.2289 11.6825 11.3869 11.5128C11.4682 11.4262 11.7343 11.4158 11.9644 11.4158C12.0592 11.4158 12.1006 11.3467 12.1369 11.2471C12.1732 11.1475 12.2045 11.0168 12.1369 10.9447C12.0975 10.9031 12.0003 10.9218 11.9501 10.9212C11.6765 10.9182 11.313 10.9142 11.3475 10.5519C11.3575 10.45 11.394 10.3063 11.5303 10.2701C11.8358 10.189 12.1633 10.28 12.4442 10.242C12.6048 9.91952 12.7992 9.63202 13.0273 9.37952C13.5372 8.81061 14.2957 8.53187 15.0288 8.68164L15.129 8.66842C15.3241 8.54387 15.7239 8.548 15.804 8.80438C15.8809 9.04815 15.8977 9.29891 15.8543 9.5567C15.8068 9.85211 15.5532 10.1177 15.2649 9.9064C15.1685 9.83574 15.1347 9.74331 15.1026 9.65527C15.0558 9.52719 15.0125 9.40841 14.7844 9.37952C14.2504 9.31214 13.8691 9.65527 13.6445 9.95413C13.5517 10.0776 13.4428 10.3665 13.5104 10.3395Z" fill="url(#paint8_linear_1964_5997)"/>
</mask>
<g mask="url(#mask1_1964_5997)">
<g filter="url(#filter2_f_1964_5997)">
<path d="M15.833 9.66258C15.8262 9.7029 15.813 9.73774 15.7937 9.76711C15.7909 9.7715 15.7867 9.77481 15.7818 9.7765C15.7768 9.77819 15.7715 9.77816 15.7666 9.77642C15.7617 9.77468 15.7575 9.77132 15.7548 9.76691C15.752 9.76249 15.7509 9.75728 15.7515 9.75211C15.7871 9.39727 15.8846 8.80102 15.4524 8.63274C15.6094 8.5268 15.7548 8.64633 15.804 8.80383C15.8915 9.08102 15.9012 9.36727 15.833 9.66258Z" fill="#FEF3D2"/>
<path d="M15.1008 8.69746L15.1186 8.74152C15.1211 8.7475 15.122 8.75404 15.1213 8.76047C15.1205 8.76691 15.1181 8.77302 15.1142 8.77819C15.1104 8.78337 15.1052 8.78742 15.0994 8.78995C15.0935 8.79248 15.087 8.7934 15.0807 8.79262L13.8141 8.83553C14.1422 8.62392 14.8252 8.62902 15.1008 8.69746Z" fill="#FFECA4"/>
<path d="M12.4307 10.2175L12.4726 10.3717L11.5623 10.3502L11.5508 10.2339L12.4307 10.2175Z" fill="#FCDE87"/>
<path d="M12.0899 11.4153L12.1223 11.5695L11.4196 11.5479L11.4392 11.4436L12.0899 11.4153Z" fill="#FCDE87"/>
<path d="M13.493 10.331C13.4937 10.3407 13.4995 10.3433 13.5104 10.339C13.6191 10.3821 13.6493 10.4162 13.6009 10.4412C13.5104 10.4243 13.3037 10.4201 13.3445 10.2808C13.3507 10.2649 13.3591 10.254 13.3698 10.248C13.3726 10.2465 13.3757 10.2457 13.3789 10.2454C13.3821 10.2452 13.3854 10.2456 13.3884 10.2467C13.3915 10.2477 13.3943 10.2494 13.3967 10.2515C13.3992 10.2537 13.4012 10.2563 13.4026 10.2593C13.421 10.2987 13.4512 10.3226 13.493 10.331Z" fill="#FEF3D2"/>
<path d="M14.9054 10.4454L14.768 10.5138L13.6009 10.4411L13.5104 10.339L14.9054 10.4454Z" fill="#FCDE87"/>
<path d="M14.9054 10.4453C15.0979 10.5309 15.1649 10.6913 15.1064 10.9263C15.0814 10.9397 15.0629 10.9414 15.0507 10.9314C15.0401 10.9228 15.0319 10.9116 15.0268 10.899C15.0216 10.8864 15.0197 10.8728 15.0211 10.8592C15.0418 10.6686 14.9574 10.5534 14.768 10.5138C14.7583 10.49 14.8041 10.4672 14.9054 10.4453Z" fill="#FEF3D2"/>
<path d="M12.9765 11.126L12.9257 11.4541L14.1231 11.5957L14.1015 11.6924L12.7773 11.5957L12.8671 11.1455L12.9765 11.126Z" fill="#FCDE87"/>
<path d="M14.1907 11.5767C14.3501 11.687 14.4162 11.8313 14.389 12.0098C14.3496 12.002 14.3295 12.0159 14.3285 12.0515C14.3285 12.0515 14.1216 11.6738 14.0876 11.6596C14.0651 11.6403 14.0995 11.6126 14.1907 11.5767Z" fill="#FEF3D2"/>
<path d="M13.6135 13.3044C13.6326 13.3082 13.6482 13.3746 13.5935 13.3746C12.7738 13.3746 12.6653 12.7042 12.6344 12.2116C12.6434 12.1897 12.711 12.191 12.7226 12.2116C12.8124 12.6299 12.7738 13.1985 13.6135 13.3044Z" fill="#FEF3D2"/>
<path d="M15.0188 12.7324C15.2705 12.8037 15.3197 13.1004 15.2583 13.3174L15.2241 13.2968C15.217 13.2924 15.2113 13.2862 15.2075 13.2788C15.2037 13.2714 15.202 13.2632 15.2026 13.2551C15.2141 13.1041 15.1726 12.9757 15.0779 12.8698C15.0654 12.856 15.0515 12.844 15.0362 12.8337C14.9893 12.8021 14.9385 12.7815 14.8838 12.7718C14.8786 12.7707 14.874 12.7677 14.8709 12.7634C14.8677 12.7591 14.8663 12.7538 14.8668 12.7486C14.8673 12.7433 14.8698 12.7384 14.8737 12.7348C14.8776 12.7312 14.8827 12.7292 14.888 12.7291L15.0188 12.7324Z" fill="#FEF3D2"/>
</g>
</g>
<path d="M9.7241 8.33547C10.0761 8.42828 9.85395 8.8614 9.85067 9.115C9.83799 10.0304 9.69379 10.9325 9.59004 11.8398C9.5502 12.1858 9.5591 12.5359 9.55207 12.8884C9.54667 13.1559 10.2095 12.7626 10.2095 13.4377C10.2095 13.8651 9.36235 13.7969 8.98045 13.7704C8.58595 13.7431 7.70701 13.79 7.87346 13.1917C7.99244 12.7641 8.52591 12.9836 8.63461 12.8884C8.74331 12.7933 8.77997 11.5593 8.83085 11.066C8.88173 10.5728 8.91973 10.1289 8.97317 9.70769C8.9744 9.69838 8.97294 9.6889 8.96896 9.68039C8.96498 9.67188 8.95865 9.66469 8.95071 9.65966C8.94278 9.65464 8.93357 9.65198 8.92417 9.65202C8.91478 9.65206 8.90559 9.65479 8.8977 9.65988C8.65058 9.78708 8.14728 10.0169 8.06243 9.56734C8.02806 9.38515 8.07092 9.2418 8.25126 9.11639C8.5647 8.89841 8.83517 8.70326 9.13204 8.48451C9.27483 8.37882 9.54692 8.28924 9.7241 8.33547Z" fill="url(#paint9_linear_1964_5997)"/>
<g filter="url(#filter3_f_1964_5997)">
<path d="M8.33199 9.04004C8.17855 9.19723 8.16242 9.37091 8.24604 9.60254C8.3437 9.87305 8.74104 9.695 8.97261 9.54687C8.9805 9.54178 9.01578 9.54691 9.02518 9.54687C9.03457 9.54683 9.04378 9.54949 9.05171 9.55451C9.05965 9.55954 9.06598 9.56673 9.06996 9.57524C9.07394 9.58375 9.0754 9.59322 9.07417 9.60254C9.02073 10.0238 8.97017 10.6457 8.9083 11.0713C8.85412 11.4456 8.67622 12.9161 8.67622 12.9161L8.42182 12.9541C8.42182 12.9541 8.67013 11.074 8.81544 10.0596C8.82606 9.98551 8.88537 9.73637 8.81544 9.78723C8.67153 9.89269 8.48966 9.99394 8.30919 9.95176C8.10388 9.90363 7.99325 9.75832 7.97731 9.51582C7.96325 9.30082 8.15292 9.1066 8.33199 9.04004Z" fill="#9C8C3B"/>
<path fill-rule="evenodd" clip-rule="evenodd" d="M8.07416 12.9502C7.97651 13.0166 7.87293 13.071 7.847 13.1688C7.70865 13.6384 8.15186 13.7253 8.50696 13.7538C8.97845 13.7678 9.57804 13.808 10.1249 13.6807C10.0741 14.096 8.12522 14.0221 7.847 13.6807C7.62868 13.4127 7.68913 12.9985 8.07416 12.9502Z" fill="#9C8C3B"/>
</g>
<path d="M9.0793 9.63073L8.91477 10.977L8.80602 11.9117L8.67574 12.8525C8.67574 12.9308 8.54491 12.9132 8.54492 12.8525C8.60933 12.1572 8.68211 11.5431 8.75774 11.0206C8.81961 10.5949 8.87727 10.1715 8.93071 9.75026C8.93563 9.71301 8.88682 9.68208 8.85524 9.70245C8.62367 9.85057 8.17186 10.0205 8.04617 9.6026C7.99278 9.42506 8.04674 9.22221 8.22477 9.09354C8.5312 8.87207 8.78422 8.64259 9.10555 8.46167C9.25774 8.37598 9.32274 8.3816 9.43743 8.34473C9.28229 8.45612 8.59654 8.94435 8.48821 9.0166C8.31337 9.13332 8.09117 9.35276 8.25945 9.5862C8.55899 10.0029 8.9668 9.32886 9.0793 9.63073Z" fill="#382D13"/>
<path d="M10.1835 13.5516C10.1328 13.9384 9.42574 13.8213 9.04669 13.8017C8.54297 13.7758 7.62479 13.8486 7.84728 13.1686C7.86228 13.112 7.90853 13.0566 7.98603 13.0022C7.9101 13.2703 7.88328 13.5636 8.30073 13.6023C8.82073 13.6505 9.30445 13.6585 9.82726 13.6778C9.95865 13.683 10.1118 13.6192 10.1835 13.5516Z" fill="#2F1E0C"/>
<mask id="mask2_1964_5997" style="mask-type:alpha" maskUnits="userSpaceOnUse" x="7" y="8" width="4" height="6">
<path d="M9.7241 8.33547C10.0761 8.42828 9.85395 8.8614 9.85067 9.115C9.83799 10.0304 9.69379 10.9325 9.59004 11.8398C9.5502 12.1858 9.5591 12.5359 9.55207 12.8884C9.54667 13.1559 10.2095 12.7626 10.2095 13.4377C10.2095 13.8651 9.36235 13.7969 8.98045 13.7704C8.58595 13.7431 7.70701 13.79 7.87346 13.1917C7.99244 12.7641 8.52591 12.9836 8.63461 12.8884C8.74331 12.7933 8.77997 11.5593 8.83085 11.066C8.88173 10.5728 8.91973 10.1289 8.97317 9.70769C8.9744 9.69838 8.97294 9.6889 8.96896 9.68039C8.96498 9.67188 8.95865 9.66469 8.95071 9.65966C8.94278 9.65464 8.93357 9.65198 8.92417 9.65202C8.91478 9.65206 8.90559 9.65479 8.8977 9.65988C8.65058 9.78708 8.14728 10.0169 8.06243 9.56734C8.02806 9.38515 8.07092 9.2418 8.25126 9.11639C8.5647 8.89841 8.83517 8.70326 9.13204 8.48451C9.27483 8.37882 9.54692 8.28924 9.7241 8.33547Z" fill="#D9D9D9"/>
<path d="M9.7241 8.33547C10.0761 8.42828 9.85395 8.8614 9.85067 9.115C9.83799 10.0304 9.69379 10.9325 9.59004 11.8398C9.5502 12.1858 9.5591 12.5359 9.55207 12.8884C9.54667 13.1559 10.2095 12.7626 10.2095 13.4377C10.2095 13.8651 9.36235 13.7969 8.98045 13.7704C8.58595 13.7431 7.70701 13.79 7.87346 13.1917C7.99244 12.7641 8.52591 12.9836 8.63461 12.8884C8.74331 12.7933 8.77997 11.5593 8.83085 11.066C8.88173 10.5728 8.91973 10.1289 8.97317 9.70769C8.9744 9.69838 8.97294 9.6889 8.96896 9.68039C8.96498 9.67188 8.95865 9.66469 8.95071 9.65966C8.94278 9.65464 8.93357 9.65198 8.92417 9.65202C8.91478 9.65206 8.90559 9.65479 8.8977 9.65988C8.65058 9.78708 8.14728 10.0169 8.06243 9.56734C8.02806 9.38515 8.07092 9.2418 8.25126 9.11639C8.5647 8.89841 8.83517 8.70326 9.13204 8.48451C9.27483 8.37882 9.54692 8.28924 9.7241 8.33547Z" fill="url(#paint10_linear_1964_5997)"/>
</mask>
<g mask="url(#mask2_1964_5997)">
<g filter="url(#filter4_f_1964_5997)">
<path d="M9.7412 10.3047L9.7187 10.3727C9.71792 10.3754 9.71639 10.3778 9.71428 10.3796C9.71216 10.3815 9.70956 10.3827 9.70679 10.383C9.70401 10.3834 9.70118 10.383 9.69864 10.3819C9.6961 10.3807 9.69395 10.3788 9.69245 10.3764C9.68057 10.3583 9.67667 10.3263 9.68073 10.2803L9.74026 9.68549C9.73682 9.4508 9.76354 9.11439 9.82042 8.67627C9.84448 8.49096 9.75635 8.39049 9.55604 8.37486C9.5276 8.37267 9.52495 8.3633 9.54807 8.34674C9.59745 8.3108 9.64729 8.29939 9.6976 8.31252C10.0496 8.40533 9.82745 8.83846 9.82417 9.09205C9.81854 9.4983 9.79089 9.90252 9.7412 10.3047Z" fill="#FEF5D1"/>
<path d="M9.68073 10.2803C9.67667 10.3262 9.68057 10.3582 9.69245 10.3764C9.69394 10.3787 9.69609 10.3806 9.69864 10.3818C9.70118 10.383 9.70401 10.3834 9.70679 10.383C9.70956 10.3826 9.71216 10.3814 9.71427 10.3796C9.71639 10.3777 9.71792 10.3753 9.7187 10.3726L9.7412 10.3046C9.71495 10.8067 9.62073 11.3167 9.56354 11.8168C9.5237 12.1628 9.5326 12.5129 9.52557 12.8654C9.52464 12.9118 9.54198 12.9296 9.57432 12.9578C9.60745 12.9912 9.62542 13.0203 9.62823 13.045C9.52745 13.0614 9.45713 13.0314 9.44026 12.9268C9.43213 12.8765 9.42932 12.8423 9.43182 12.8242C9.40589 12.4864 9.40776 12.1578 9.43745 11.8384L9.55042 11.0204L9.68073 10.2803Z" fill="#EBD08C"/>
<path d="M8.65047 12.9001L8.67672 12.9774L8.0312 13.0439L8.08195 12.9774L8.65047 12.9001Z" fill="#FEF3D2"/>
<path d="M10.1748 13.4805C10.1504 13.4921 10.1307 13.4961 10.1157 13.4927C10.0992 13.4889 10.0915 13.4785 10.0928 13.4613C10.1071 13.2694 10.0332 13.1413 9.87104 13.0769C9.79933 13.0478 9.71026 13.0689 9.62823 13.045C9.62542 13.0203 9.60745 12.9913 9.57433 12.9578C9.91464 12.9039 10.2442 13.098 10.1748 13.4805Z" fill="#EADAC6"/>
</g>
</g>
<defs>
<filter id="filter0_f_1964_5997" x="9.1249" y="5.38047" width="10.1932" height="13.9487" filterUnits="userSpaceOnUse" color-interpolation-filters="sRGB">
<feFlood flood-opacity="0" result="BackgroundImageFix"/>
<feBlend mode="normal" in="SourceGraphic" in2="BackgroundImageFix" result="shape"/>
<feGaussianBlur stdDeviation="0.05" result="effect1_foregroundBlur_1964_5997"/>
</filter>
<filter id="filter1_f_1964_5997" x="10.9758" y="9.35776" width="4.85881" height="4.94658" filterUnits="userSpaceOnUse" color-interpolation-filters="sRGB">
<feFlood flood-opacity="0" result="BackgroundImageFix"/>
<feBlend mode="normal" in="SourceGraphic" in2="BackgroundImageFix" result="shape"/>
<feGaussianBlur stdDeviation="0.05" result="effect1_foregroundBlur_1964_5997"/>
</filter>
<filter id="filter2_f_1964_5997" x="11.2696" y="8.44253" width="4.75816" height="5.0821" filterUnits="userSpaceOnUse" color-interpolation-filters="sRGB">
<feFlood flood-opacity="0" result="BackgroundImageFix"/>
<feBlend mode="normal" in="SourceGraphic" in2="BackgroundImageFix" result="shape"/>
<feGaussianBlur stdDeviation="0.075" result="effect1_foregroundBlur_1964_5997"/>
</filter>
<filter id="filter3_f_1964_5997" x="7.62139" y="8.94004" width="2.60352" height="5.12517" filterUnits="userSpaceOnUse" color-interpolation-filters="sRGB">
<feFlood flood-opacity="0" result="BackgroundImageFix"/>
<feBlend mode="normal" in="SourceGraphic" in2="BackgroundImageFix" result="shape"/>
<feGaussianBlur stdDeviation="0.05" result="effect1_foregroundBlur_1964_5997"/>
</filter>
<filter id="filter4_f_1964_5997" x="7.8812" y="8.15725" width="2.45291" height="5.48665" filterUnits="userSpaceOnUse" color-interpolation-filters="sRGB">
<feFlood flood-opacity="0" result="BackgroundImageFix"/>
<feBlend mode="normal" in="SourceGraphic" in2="BackgroundImageFix" result="shape"/>
<feGaussianBlur stdDeviation="0.075" result="effect1_foregroundBlur_1964_5997"/>
</filter>
<linearGradient id="paint0_linear_1964_5997" x1="18.4985" y1="7.5719" x2="10.6184" y2="18.976" gradientUnits="userSpaceOnUse">
<stop stop-color="#DA872C"/>
<stop offset="0.445522" stop-color="#451F08"/>
<stop offset="0.580176" stop-color="#50280C"/>
<stop offset="0.700816" stop-color="#351807"/>
<stop offset="0.813107" stop-color="#5F3211"/>
<stop offset="0.977425" stop-color="#3D1B08"/>
</linearGradient>
<linearGradient id="paint1_linear_1964_5997" x1="18.4986" y1="7.5719" x2="10.6184" y2="18.976" gradientUnits="userSpaceOnUse">
<stop stop-color="#EBA639"/>
<stop offset="0.445522" stop-color="#431F09"/>
<stop offset="0.580176" stop-color="#50280C"/>
<stop offset="0.700816" stop-color="#4B240C"/>
<stop offset="0.813107" stop-color="#5F3211"/>
<stop offset="0.977425" stop-color="#4B240C"/>
</linearGradient>
<linearGradient id="paint2_linear_1964_5997" x1="18.4757" y1="6.59197" x2="13.5621" y2="19.2665" gradientUnits="userSpaceOnUse">
<stop stop-color="#D5862C"/>
<stop offset="1" stop-color="#3F2009"/>
</linearGradient>
<linearGradient id="paint3_linear_1964_5997" x1="18.4757" y1="6.59197" x2="13.5621" y2="19.2665" gradientUnits="userSpaceOnUse">
<stop stop-color="#D5862C"/>
<stop offset="1" stop-color="#3F2009"/>
</linearGradient>
<linearGradient id="paint4_linear_1964_5997" x1="6.95893" y1="7.28528" x2="16.7948" y2="16.4249" gradientUnits="userSpaceOnUse">
<stop stop-color="#8C561F"/>
<stop offset="1" stop-color="#5D3010"/>
</linearGradient>
<linearGradient id="paint5_linear_1964_5997" x1="7.36862" y1="15.3292" x2="5.89691" y2="13.9514" gradientUnits="userSpaceOnUse">
<stop stop-color="#562F11"/>
<stop offset="1" stop-color="#834E1C"/>
</linearGradient>
<linearGradient id="paint6_linear_1964_5997" x1="10.0192" y1="10.1647" x2="9.48142" y2="18.4236" gradientUnits="userSpaceOnUse">
<stop offset="0.331645" stop-color="#B77530"/>
<stop offset="1" stop-color="#7A4507"/>
</linearGradient>
<linearGradient id="paint7_linear_1964_5997" x1="14.2576" y1="8.58273" x2="12.9972" y2="14.3797" gradientUnits="userSpaceOnUse">
<stop stop-color="#F2CF57"/>
<stop offset="1" stop-color="#AE712E"/>
</linearGradient>
<linearGradient id="paint8_linear_1964_5997" x1="14.2576" y1="8.58273" x2="12.9972" y2="14.3797" gradientUnits="userSpaceOnUse">
<stop stop-color="#F2CF57"/>
<stop offset="1" stop-color="#AE712E"/>
</linearGradient>
<linearGradient id="paint9_linear_1964_5997" x1="9.3516" y1="8.30618" x2="7.13501" y2="13.4919" gradientUnits="userSpaceOnUse">
<stop stop-color="#F2CF57"/>
<stop offset="1" stop-color="#AE712E"/>
</linearGradient>
<linearGradient id="paint10_linear_1964_5997" x1="9.3516" y1="8.30618" x2="7.13501" y2="13.4919" gradientUnits="userSpaceOnUse">
<stop stop-color="#F2CF57"/>
<stop offset="1" stop-color="#AE712E"/>
</linearGradient>
</defs>
</svg>
