<svg width="24" height="24" viewBox="0 0 24 24" fill="none" xmlns="http://www.w3.org/2000/svg">
<circle cx="12" cy="12" r="12" fill="#121212"/>
<path d="M3.00311 7.36215C3.00311 7.33117 3.00311 7.30018 3.00311 7.2692C3.05268 7.08332 3.05268 6.89743 3.00311 6.71154C3.00311 6.68056 3.00311 6.64958 3.00311 6.6186C3.07127 6.48848 3.05268 6.34287 3.08057 6.20655C3.17971 5.70776 3.29434 5.21206 3.27575 4.69778C3.26955 4.4964 3.38108 4.36318 3.57936 4.30432C3.80552 4.23616 4.04098 4.25165 4.26714 4.28573C5.10673 4.41275 5.94012 4.56146 6.72704 4.89296C7.01826 5.04476 7.31258 5.19347 7.58522 5.37626C8.1088 5.73254 8.55183 6.17557 8.95768 6.65888C9.10949 6.89123 9.10639 6.88814 9.35424 6.7797C10.9374 6.09192 12.5453 6.02996 14.1842 6.56903C14.3205 6.6124 14.463 6.73943 14.5838 6.69296C14.6985 6.64648 14.7697 6.48228 14.8596 6.37075C14.8658 6.36146 14.8689 6.35216 14.8751 6.34287C15.2468 5.91843 15.6527 5.52807 16.1174 5.20587C16.4427 4.9797 16.799 4.8155 17.1491 4.63891C17.7191 4.43134 18.3078 4.28883 18.9057 4.18969C19.262 4.13082 19.6121 4.05027 19.9777 4.08435C20.2937 4.11223 20.4765 4.29502 20.4579 4.57385C20.4393 4.84958 20.4703 5.11912 20.5229 5.38556C20.6097 5.84098 20.715 6.2902 20.7181 6.75802C20.7212 7.4427 20.5849 8.10569 20.3742 8.75319C20.3401 8.83375 20.3061 8.9112 20.2751 8.99175C19.8506 10.0761 19.1876 11.0055 18.4224 11.8699C18.3357 11.969 18.3202 11.8792 18.2861 11.8327C17.7346 11.117 17.0128 10.8103 16.1205 10.9436C14.9649 11.117 14.1656 12.1673 14.2678 13.3508C14.3639 14.463 15.3367 15.3491 16.4675 15.3553C16.7866 15.3553 17.0871 15.2778 17.3845 15.1756C17.3907 15.1818 17.3969 15.188 17.4031 15.1942C17.0933 15.7053 16.6999 16.1422 16.2537 16.5325C15.947 16.799 15.6248 17.0437 15.2592 17.2265C15.4854 16.5883 15.3894 15.9997 15.0114 15.442C14.7821 15.1074 14.5219 14.8038 14.2028 14.559C13.7783 14.2306 13.515 13.8062 13.3942 13.2826C13.3074 12.9108 13.2733 12.5329 13.2548 12.1518C13.23 11.653 13.2424 11.1542 13.1556 10.6585C13.103 10.3704 13.0069 10.1009 12.7622 9.91189C12.5856 9.77247 12.4183 9.77557 12.2448 9.92118C12.0992 10.042 12.0031 10.2 11.9505 10.3828C11.8947 10.578 11.8823 10.7763 11.8792 10.9776C11.8699 11.5818 11.9536 12.1797 11.9412 12.7838C11.9257 13.5924 11.6933 14.2864 10.956 14.7387C10.5253 15.0021 10.2806 15.4203 10.1133 15.8881C9.94908 16.3466 9.98625 16.7928 10.2062 17.2296C10.3425 17.4991 10.547 17.7129 10.7453 17.936C10.6988 17.9608 10.6523 17.9391 10.6121 17.9298C8.81517 17.4991 7.42102 16.517 6.50398 14.8998C6.11981 14.2244 5.89675 13.4964 5.82239 12.725C5.8131 12.6382 5.8162 12.5484 5.73874 12.4709C4.86818 11.6158 4.14322 10.6585 3.62583 9.54631C3.61034 9.52152 3.59795 9.49674 3.58246 9.46886C3.3594 8.93598 3.1828 8.38762 3.09296 7.81447C3.05268 7.66576 3.06507 7.50776 3.00311 7.36215ZM5.96491 10.6802C6.11981 10.1566 6.32119 9.65474 6.60622 9.18693C7.04615 8.46507 7.6193 7.87023 8.29778 7.37454C8.37524 7.32497 8.45269 7.2754 8.54253 7.21654C8.46818 7.15148 8.40622 7.09261 8.33806 7.03685C7.2847 6.15389 6.07644 5.59313 4.73496 5.3081C4.37558 5.23065 4.31361 5.28332 4.32291 5.64889C4.3415 6.31808 4.38177 6.98418 4.48711 7.64407C4.62652 8.50844 4.81551 9.35732 5.19348 10.1535C5.36697 10.516 5.58384 10.8475 5.85337 11.1759C5.89675 10.9993 5.93083 10.8413 5.96491 10.6802ZM18.1219 10.7422C18.1498 10.8909 18.1808 11.0365 18.2117 11.1945C18.7415 10.5656 19.104 9.87471 19.3333 9.11258C19.5966 8.22652 19.7515 7.32187 19.8197 6.40173C19.8444 6.06714 19.8537 5.73254 19.8599 5.39795C19.863 5.22445 19.8042 5.18108 19.6307 5.18728C19.5842 5.19038 19.5377 5.19347 19.4913 5.20277C18.0692 5.49399 16.7928 6.08883 15.693 7.04614C15.504 7.21034 15.5009 7.21034 15.7209 7.33736C15.7642 7.37144 15.8076 7.40862 15.8541 7.4427C16.5573 7.95698 17.1243 8.59209 17.5549 9.34803C17.8028 9.79106 17.9732 10.262 18.1219 10.7422ZM8.62308 11.0334C7.37764 11.0334 6.39554 12.0093 6.39554 13.2485C6.39554 14.4785 7.37764 15.4575 8.60759 15.4699C9.69503 15.4792 10.8351 14.6334 10.8351 13.2485C10.8351 11.8451 9.67025 11.0024 8.62308 11.0334Z" fill="#413F3F"/>
<path d="M20.3711 8.75629C20.7986 9.89639 20.9845 11.0768 20.9287 12.2943C20.8884 13.199 20.6964 14.0757 20.3618 14.9184C20.2967 15.0795 20.2316 15.2406 20.1697 15.4048C20.1418 15.4234 20.1356 15.4513 20.1356 15.4854V15.4916C20.1263 15.5102 20.1139 15.5288 20.1046 15.5473L20.1077 15.5504C20.086 15.569 20.0736 15.5938 20.0736 15.6248L20.0767 15.6217C20.021 15.6403 20.0086 15.6961 19.9838 15.7394C19.3301 16.9725 18.4254 17.9918 17.3194 18.8375C16.4953 19.4665 15.5969 19.9622 14.6179 20.3091C14.0199 20.5198 13.4065 20.6778 12.7714 20.7181C11.9039 20.7739 11.0489 20.6654 10.2093 20.4238C8.65403 19.9745 7.27847 19.2031 6.0826 18.1188C5.47537 17.5673 4.95179 16.9415 4.51186 16.2444C3.72494 15.0021 3.32528 13.642 3.25713 12.1797C3.22615 11.5043 3.3036 10.8351 3.43062 10.1721C3.4709 9.96455 3.54835 9.76627 3.55764 9.5556H3.55454C3.57313 9.5556 3.59482 9.5525 3.61341 9.5525C4.13079 10.6616 4.85885 11.622 5.72632 12.4771C5.80377 12.5546 5.80067 12.6444 5.80996 12.7312C5.88432 13.5057 6.11048 14.2337 6.49155 14.906C7.41169 16.5232 8.80273 17.5053 10.5996 17.936C10.643 17.9453 10.6895 17.967 10.7329 17.9422L10.7298 17.9391C10.7236 17.9732 10.7483 17.967 10.7669 17.967C10.9063 18.063 11.0427 18.1621 11.1821 18.2551C11.3618 18.3759 11.5724 18.4317 11.7645 18.5277C12.0434 18.9986 12.4058 19.327 13.0038 19.2806C13.4499 19.2465 13.9735 18.8035 14.0354 18.3914C14.6117 18.19 15.0113 17.8028 15.2437 17.2389C15.6093 17.0561 15.9346 16.8114 16.2382 16.5449C16.6874 16.1546 17.0809 15.7177 17.3876 15.2066C17.3969 15.1942 17.4062 15.1818 17.3876 15.1694C17.3845 15.1694 17.3752 15.1818 17.3659 15.188C17.0685 15.2902 16.768 15.3677 16.4489 15.3677C15.3211 15.3615 14.3452 14.4754 14.2492 13.3632C14.147 12.1766 14.9432 11.1294 16.1019 10.9559C16.9941 10.8196 17.7191 11.1294 18.2674 11.8451C18.3015 11.8885 18.317 11.9783 18.4038 11.8823C19.169 11.0179 19.8351 10.0885 20.2564 9.00414C20.3029 8.91429 20.337 8.83374 20.3711 8.75629ZM15.191 14.1284C15.1136 14.3267 15.1353 14.4661 15.2592 14.5621C15.3862 14.6613 15.5194 14.6489 15.6929 14.525C16.043 14.7201 16.4272 14.7821 16.8144 14.7109C17.5487 14.5745 18.0444 14.1377 18.2272 13.4096C18.4069 12.7002 18.2055 12.0744 17.6323 11.6127C17.0499 11.1449 16.39 11.083 15.7208 11.4176C14.7325 11.9071 14.4382 13.2238 15.191 14.1284Z" fill="#FFD118"/>
<path d="M11.7676 18.5215C11.5755 18.4255 11.3649 18.3697 11.1852 18.2489C11.0458 18.1559 10.9064 18.0568 10.77 17.9607C10.7576 17.9514 10.7453 17.9422 10.7329 17.9329L10.736 17.936C10.5377 17.716 10.3332 17.5022 10.1969 17.2296C9.98003 16.7928 9.93975 16.3466 10.1039 15.8881C10.2712 15.4234 10.516 15.002 10.9466 14.7387C11.6871 14.2864 11.9163 13.5955 11.9318 12.7838C11.9442 12.1797 11.8606 11.5817 11.8699 10.9776C11.873 10.7762 11.8823 10.5749 11.9411 10.3828C11.9938 10.2 12.0898 10.0451 12.2354 9.92115C12.4089 9.77554 12.5762 9.77244 12.7528 9.91186C12.9945 10.1008 13.0936 10.3673 13.1463 10.6585C13.233 11.1511 13.2206 11.653 13.2454 12.1518C13.264 12.5329 13.2981 12.9108 13.3848 13.2826C13.5057 13.8031 13.769 14.2306 14.1934 14.559C14.5156 14.8069 14.7728 15.1074 15.002 15.442C15.38 15.9996 15.4792 16.5883 15.2499 17.2265C15.0175 17.7872 14.6179 18.1776 14.0416 18.379C13.5397 18.5339 13.0286 18.633 12.4988 18.6144C12.2509 18.6113 12.0124 18.5494 11.7676 18.5215ZM12.8117 15.6217C12.7125 15.6279 12.5576 15.631 12.4058 15.6526C12.285 15.6681 12.1642 15.7022 12.0465 15.7363C11.7119 15.8354 11.6437 16.1174 11.9008 16.3497C12.1115 16.5387 12.3501 16.6905 12.6289 16.7711C12.917 16.8547 13.199 16.8671 13.4592 16.6936C13.6637 16.5573 13.8279 16.3807 13.9518 16.17C14.0726 15.9656 14.0107 15.8138 13.7814 15.7487C13.484 15.6681 13.1773 15.6279 12.8117 15.6217Z" fill="#FDFDFD"/>
<path d="M6.7301 4.89292C7.77726 4.07502 8.94835 3.51426 10.2465 3.24782C12.6971 2.74283 14.968 3.18586 17.053 4.56452C17.0871 4.5862 17.115 4.61718 17.149 4.64197C16.7959 4.81546 16.4396 4.98276 16.1174 5.20892C15.6527 5.53112 15.2468 5.92149 14.875 6.34593C14.8317 6.32734 14.7883 6.31185 14.748 6.29326C13.6141 5.77588 12.4306 5.63646 11.21 5.81925C10.4045 5.94007 9.65162 6.222 8.95764 6.65884C8.55489 6.17553 8.11186 5.7325 7.58518 5.37622C7.31565 5.19033 7.02132 5.04472 6.7301 4.89292Z" fill="#FFD119"/>
<path d="M18.1219 10.7422C17.9763 10.262 17.8059 9.79107 17.5549 9.35114C17.1243 8.5952 16.5573 7.96009 15.854 7.4458C15.8076 7.41172 15.7642 7.37764 15.7208 7.34047C16.6936 6.62171 17.7842 6.17868 18.9646 5.94942C19.2062 5.90294 19.2744 5.95561 19.2713 6.19107C19.2589 7.20415 19.1443 8.20174 18.8592 9.17455C18.695 9.7384 18.4844 10.2775 18.1219 10.7422Z" fill="#FEFEFD"/>
<path d="M8.29779 7.37766C7.6193 7.87335 7.04305 8.46819 6.60622 9.19005C6.32119 9.65787 6.11672 10.1598 5.96491 10.6833C5.90605 10.6307 5.87507 10.5594 5.84099 10.4913C5.17489 9.17766 5.01379 7.76492 4.98281 6.3243C4.97971 6.17249 5.06336 6.11363 5.21517 6.13841C5.39796 6.16939 5.58075 6.20657 5.75734 6.25304C6.67128 6.4792 7.52636 6.83549 8.29779 7.37766Z" fill="#FEFEFD"/>
<path d="M8.62305 11.0334C9.67021 11.0024 10.8351 11.8451 10.8351 13.2486C10.8351 14.6334 9.695 15.4823 8.60756 15.4699C7.37761 15.4575 6.39551 14.4816 6.39551 13.2486C6.39861 12.0093 7.37761 11.0334 8.62305 11.0334ZM7.53561 14.4351C7.57899 14.6985 7.7184 14.7821 8.00343 14.7171C8.82753 15.0733 9.81582 14.714 10.231 13.9085C10.6554 13.0875 10.3766 12.0775 9.59586 11.5973C8.80274 11.1109 7.77727 11.3184 7.23819 12.0713C6.70842 12.8086 6.84164 13.862 7.53561 14.4351Z" fill="#FCCE1B"/>
<path d="M8.29777 7.37764C7.52635 6.83548 6.67127 6.48229 5.76043 6.25303C5.58074 6.20656 5.39795 6.17248 5.21826 6.1384C5.06335 6.11052 4.9828 6.17248 4.9859 6.32429C5.01688 7.76491 5.17798 9.17764 5.84407 10.4881C5.87815 10.5563 5.90913 10.6276 5.968 10.6802C5.93392 10.8382 5.89984 10.9962 5.85957 11.179C5.59003 10.8475 5.37316 10.516 5.19967 10.1566C4.8186 9.36043 4.62962 8.50845 4.4933 7.64718C4.38797 6.98728 4.34769 6.31809 4.3291 5.652C4.31981 5.28642 4.38177 5.23685 4.74115 5.31121C6.08263 5.59623 7.29089 6.15699 8.34424 7.03995C8.40931 7.09572 8.47437 7.15458 8.54872 7.21964C8.45268 7.2785 8.37523 7.32807 8.29777 7.37764Z" fill="#FECF1C"/>
<path d="M18.1219 10.7421C18.4843 10.2774 18.695 9.73526 18.8592 9.1776C19.1442 8.20479 19.2589 7.2041 19.2713 6.19412C19.2744 5.95867 19.2062 5.906 18.9645 5.95247C17.7811 6.17863 16.6905 6.62476 15.7208 7.34352C15.5009 7.2165 15.5009 7.2165 15.6929 7.0523C16.7928 6.09498 18.0692 5.50015 19.4912 5.20892C19.5377 5.19963 19.5842 5.19653 19.6306 5.19343C19.8041 5.18724 19.863 5.23061 19.8599 5.4041C19.8537 5.7387 19.8444 6.0733 19.8196 6.40789C19.7515 7.32803 19.5966 8.23268 19.3332 9.11874C19.104 9.88397 18.7446 10.5717 18.2117 11.2007C18.1776 11.0365 18.1497 10.8909 18.1219 10.7421Z" fill="#FECF1C"/>
<path d="M8.95764 6.65885C9.65162 6.22202 10.4045 5.94009 11.21 5.81926C12.4306 5.63337 13.6141 5.77279 14.7449 6.29018C14.7883 6.30876 14.8317 6.32425 14.8719 6.34284C14.8688 6.35214 14.8626 6.36143 14.8564 6.37073C14.7666 6.48226 14.6984 6.64646 14.5807 6.69293C14.463 6.7394 14.3174 6.61548 14.181 6.56901C12.5452 6.02993 10.9342 6.0919 9.3511 6.77968C9.10945 6.88811 9.10945 6.88811 8.95764 6.65885Z" fill="#F7A841"/>
<path d="M3.55453 9.55249C3.54524 9.76316 3.46778 9.96454 3.42751 10.169C3.30049 10.832 3.22303 11.5012 3.25401 12.1766C3.32217 13.6389 3.72183 14.999 4.50875 16.2413C4.94868 16.9384 5.47226 17.5642 6.07948 18.1157C7.27845 19.2 8.65091 19.9714 10.2062 20.4206C11.0457 20.6623 11.8977 20.7707 12.7683 20.715C13.4034 20.6747 14.0168 20.5167 14.6148 20.306C15.5938 19.959 16.4922 19.4633 17.3163 18.8344C18.4223 17.9917 19.327 16.9694 19.9807 15.7363C20.0055 15.6929 20.0178 15.6372 20.0736 15.6186C19.9931 15.8912 19.8567 16.1391 19.7142 16.3838C18.2922 18.8251 16.2103 20.4021 13.4716 21.1022C13.1525 21.1828 12.8272 21.2293 12.4957 21.2478C12.2354 21.2478 11.9783 21.2478 11.718 21.2509C10.2774 21.1518 8.95143 20.6902 7.70909 19.9776C6.26227 19.1473 5.0695 18.0475 4.20823 16.61C3.29119 15.0795 2.93801 13.422 3.08982 11.6499C3.14558 10.9807 3.285 10.327 3.49567 9.68881C3.51116 9.64234 3.51426 9.58967 3.55453 9.55249Z" fill="#FAAA44"/>
<path d="M15.1911 14.1284C14.4382 13.2237 14.7325 11.907 15.7208 11.4144C16.39 11.0829 17.0499 11.1418 17.6324 11.6096C18.2055 12.0712 18.4069 12.6971 18.2272 13.4065C18.0444 14.1346 17.5487 14.5683 16.8145 14.7077C16.4272 14.779 16.0461 14.7201 15.693 14.5218C15.7487 14.432 15.7859 14.3421 15.7549 14.2306C15.693 14.0014 15.3893 13.9084 15.1911 14.1284ZM16.9787 12.6847C17.2792 12.6909 17.5239 12.4523 17.527 12.158C17.5301 11.8699 17.2916 11.6282 17.0004 11.622C16.7029 11.6158 16.4551 11.8513 16.452 12.1487C16.452 12.4368 16.6875 12.6785 16.9787 12.6847Z" fill="#413F3F"/>
<path d="M11.7676 18.5215C12.0124 18.5494 12.2478 18.6114 12.4957 18.6206C13.0255 18.6392 13.5367 18.537 14.0386 18.3852C13.9766 18.7972 13.453 19.2403 13.0069 19.2743C12.412 19.3208 12.0496 18.9893 11.7676 18.5215Z" fill="#F48065"/>
<path d="M15.1911 14.1284C15.3893 13.9054 15.693 14.0014 15.7549 14.2338C15.7859 14.3453 15.7456 14.4351 15.693 14.525C15.5195 14.6489 15.3862 14.6582 15.2592 14.5622C15.1384 14.4661 15.1167 14.3298 15.1911 14.1284Z" fill="#FAF6DF"/>
<path d="M12.8117 15.6217C13.1773 15.6279 13.484 15.6651 13.7814 15.7487C14.0107 15.8138 14.0695 15.9656 13.9518 16.1701C13.8279 16.3838 13.6606 16.5573 13.4592 16.6936C13.199 16.8671 12.917 16.8547 12.6289 16.7711C12.3532 16.6905 12.1146 16.5387 11.9009 16.3498C11.6437 16.1174 11.7119 15.8355 12.0465 15.7363C12.1642 15.7023 12.285 15.6682 12.4059 15.6527C12.5608 15.6341 12.7157 15.631 12.8117 15.6217Z" fill="#424040"/>
<path d="M7.53563 14.4351C6.84166 13.862 6.70844 12.8117 7.23822 12.0713C7.78038 11.3153 8.80586 11.1108 9.59587 11.5973C10.3766 12.0775 10.6523 13.0874 10.231 13.9084C9.81584 14.714 8.82445 15.0733 8.00345 14.7171C8.16455 14.5683 8.20792 14.4351 8.13047 14.2895C8.06231 14.1656 7.95388 14.1067 7.81446 14.1222C7.65026 14.1377 7.56352 14.2399 7.53563 14.4351ZM9.13116 12.7993C9.42548 12.7993 9.66094 12.5701 9.66713 12.2788C9.67333 11.9845 9.42858 11.7367 9.13426 11.7336C8.83994 11.7305 8.59828 11.9752 8.59828 12.2757C8.60448 12.567 8.83994 12.7993 9.13116 12.7993Z" fill="#413F3F"/>
<path d="M7.53564 14.4351C7.56353 14.243 7.65027 14.1408 7.81137 14.1222C7.95079 14.1067 8.05922 14.1656 8.12738 14.2895C8.20483 14.4351 8.16455 14.5683 8.00035 14.717C7.71843 14.779 7.57902 14.6953 7.53564 14.4351Z" fill="#FAF6DF"/>
<path d="M16.9786 12.6846C16.6874 12.6784 16.4489 12.4368 16.4551 12.1487C16.4582 11.8513 16.706 11.6158 17.0034 11.622C17.2946 11.6282 17.5332 11.8699 17.5301 12.158C17.527 12.4523 17.2792 12.6908 16.9786 12.6846Z" fill="#FAF6DF"/>
<path d="M9.13112 12.7993C8.8368 12.7993 8.60135 12.5638 8.60135 12.2726C8.59825 11.9721 8.843 11.7273 9.13732 11.7304C9.43164 11.7335 9.67639 11.9845 9.67019 12.2757C9.664 12.57 9.42544 12.8024 9.13112 12.7993Z" fill="#FAF6DF"/>
</svg>
