<svg width="24" height="24" viewBox="0 0 24 24" fill="none" xmlns="http://www.w3.org/2000/svg">
<circle cx="12.0002" cy="12" r="12" fill="#172852"/>
<path d="M10.3318 16.3335C10.7818 17.9985 12.3964 19.2686 13.2118 19.2162C13.2404 19.2142 16.3044 18.6429 17.9818 15.8412C19.2868 13.6603 18.8427 11.555 17.0674 11.5088C16.4286 11.5556 9.47478 13.1624 10.3323 16.3342L10.3318 16.3335ZM16.9018 5.64038L16.9 5.63881L16.9025 5.63746C15.7842 4.68639 14.42 4.07056 12.9671 3.86089C11.5141 3.65123 10.0315 3.85627 8.68998 4.45238C8.52117 4.52304 8.35677 4.60381 8.19768 4.69426C8.08833 4.75231 7.97898 4.81036 7.87278 4.87426L7.89866 4.88213C7.58465 5.09597 7.30699 5.35881 7.07628 5.66063C4.83888 8.61443 12.3345 10.7625 16.3427 10.7688C18.1857 12.0925 18.7032 7.04281 16.9018 5.64038Z" fill="#0E3CA5"/>
<path d="M9.14269 5.69998C8.11287 7.24798 4.68274 8.33856 4.11867 8.16868L4.11484 8.16148C4.13809 8.11483 4.16157 8.06841 4.18527 8.02221C4.77021 6.89555 5.60716 5.91901 6.63102 5.16853C6.84207 5.01403 7.06054 4.86943 7.28644 4.73473C7.63408 4.54287 8.02343 4.43912 8.42044 4.43256C9.94797 4.46181 9.15034 5.68806 9.14202 5.70043L9.14269 5.69998ZM8.29759 16.6379C8.37162 17.1241 8.29579 19.0454 8.19634 19.207C8.11062 19.2121 7.93219 19.2232 7.41537 18.9331C5.76507 17.9915 4.49185 16.5073 3.8122 14.733C3.13255 12.9587 3.08843 11.0037 3.68734 9.20053C3.71479 9.11803 3.74352 9.03606 3.77352 8.95461C4.36549 9.74211 5.05062 10.4542 5.63292 11.2496C6.18754 12.007 6.95052 13.2413 7.10577 13.505C8.06967 15.1426 8.22334 16.1526 8.29692 16.6381L8.29759 16.6379ZM19.6927 11.7961C19.694 12.8286 19.5 13.8521 19.121 14.8125C18.1535 15.852 11.6323 13.2931 11.5684 13.2652C10.6763 12.8743 7.96144 11.685 7.71642 9.81748C7.36519 7.12873 12.8169 5.25606 15.2132 5.18496C15.5005 5.18833 16.3749 5.19846 16.8847 5.61246C17.7677 6.3825 18.4752 7.33293 18.9596 8.39966C19.444 9.46638 19.694 10.6246 19.6927 11.7961ZM15.278 19.0801C14.567 19.4117 13.7844 19.1701 13.9878 18.4777C14.3782 17.1482 17.7872 15.7852 18.54 15.7102C18.633 15.701 18.6723 15.7645 18.6312 15.8365C17.8468 17.2157 16.6833 18.341 15.2787 19.0789" fill="#5493F7"/>
<path d="M6.90077 20.3822C6.89067 20.5323 6.93989 20.6804 7.03785 20.7946C7.1358 20.9088 7.27467 20.9799 7.42457 20.9928C14.3321 21.0401 21.0002 20.7228 21.0002 19.6878C21.0002 16.5549 6.90077 20.3822 6.90077 20.3822Z" fill="url(#paint0_linear_927_5240)"/>
<path d="M6.90077 20.3822C6.89052 20.5327 6.94004 20.6813 7.0386 20.7956C7.13716 20.9099 7.27681 20.9808 7.42727 20.9928C14.333 21.0452 20.9918 20.8283 21.0002 19.6878C21.0002 16.5549 6.90077 20.3822 6.90077 20.3822ZM7.42772 20.953C7.4093 20.953 7.3909 20.9519 7.37259 20.9498C7.2673 20.9351 7.1687 20.8896 7.08917 20.819C7.00964 20.7484 6.95271 20.656 6.92552 20.5532C6.95502 20.6646 7.01985 20.7634 7.11027 20.8348C7.20069 20.9063 7.31184 20.9465 7.42704 20.9494C14.3278 20.9062 20.8919 18.7815 20.8919 19.7171C20.8919 20.672 14.3282 21 7.42772 20.953Z" fill="url(#paint1_linear_927_5240)"/>
<path d="M8.44654 16.1807C8.69224 16.1713 8.93344 16.1609 9.17014 16.1476C9.40684 16.1344 9.63836 16.1191 9.86629 16.1026C10.0942 16.0862 10.3179 16.0669 10.5381 16.0468C10.7584 16.0268 10.976 16.0061 11.1906 15.9847C11.4053 15.9634 11.617 15.9397 11.8265 15.9172C12.036 15.8947 12.2421 15.8686 12.4479 15.8434C12.6538 15.8182 12.8583 15.7919 13.0622 15.7649C13.266 15.7379 13.4672 15.71 13.6697 15.6805C13.8722 15.6511 14.0711 15.6198 14.2727 15.5885C14.4743 15.5572 14.6777 15.5262 14.8802 15.494C15.0827 15.4618 15.2872 15.429 15.4915 15.3948C15.6958 15.3606 15.9017 15.3248 16.1103 15.289L16.7436 15.1801C16.9574 15.1432 17.1737 15.1057 17.3925 15.0676C17.6117 15.0289 17.8338 14.9893 18.0603 14.9511C18.2869 14.9128 18.5169 14.8762 18.7518 14.8404C18.9867 14.8046 19.2018 14.7729 19.4943 14.736C19.813 14.6906 20.1352 14.6733 20.457 14.6845C20.7603 14.7045 21.0002 14.7812 21.0002 14.9925V10.29C21.0085 9.17377 14.3341 11.46 7.42819 11.5115C7.35894 11.5115 7.29036 11.5251 7.22638 11.5516C7.16239 11.5781 7.10425 11.6169 7.05527 11.6658C7.0063 11.7148 6.96744 11.7729 6.94094 11.8369C6.91443 11.9009 6.90079 11.9694 6.90079 12.0387V16.2147C7.17079 16.2147 7.43359 16.2113 7.69144 16.2057C7.94929 16.2001 8.20039 16.1902 8.44654 16.1807Z" fill="url(#paint2_linear_927_5240)"/>
<path d="M7.42457 20.91C14.3318 20.8583 21.0085 18.572 21.0002 19.688V14.9925C21.0002 14.7819 20.7603 14.7052 20.4579 14.6845C20.1361 14.6734 19.8139 14.6906 19.4951 14.736C19.2011 14.772 18.9869 14.8046 18.7526 14.8404C18.5184 14.8762 18.2873 14.9131 18.0612 14.9511C17.8351 14.9891 17.6126 15.029 17.3934 15.0677C17.1743 15.1064 16.9583 15.1437 16.7445 15.1802L16.1111 15.2891C15.9026 15.3248 15.6969 15.3606 15.4924 15.3948C15.2879 15.429 15.0845 15.4623 14.8811 15.494C14.6777 15.5258 14.4761 15.5575 14.2736 15.5885C14.0711 15.6196 13.8717 15.6511 13.6706 15.6806C13.4694 15.71 13.2669 15.7377 13.0631 15.7649C12.8592 15.7922 12.6545 15.818 12.4488 15.8435C12.2432 15.8689 12.0366 15.8939 11.8274 15.9173C11.6181 15.9407 11.4062 15.9623 11.1915 15.9848C10.9769 16.0073 10.7595 16.0268 10.539 16.0469C10.3185 16.0669 10.0951 16.0858 9.86717 16.1027C9.63925 16.1195 9.4075 16.1348 9.17102 16.1477C8.93455 16.1605 8.69312 16.1713 8.44742 16.1807C8.20172 16.1902 7.94972 16.1987 7.69232 16.2032C7.43492 16.2077 7.17122 16.2125 6.90167 16.2122V20.3822C6.90149 20.5214 6.95637 20.655 7.05433 20.7539C7.15229 20.8528 7.28538 20.9089 7.42457 20.91Z" fill="url(#paint3_linear_927_5240)"/>
<path d="M20.4582 13.1171C20.1363 13.1059 19.814 13.1229 19.4952 13.1682C19.2011 13.2042 18.9869 13.2357 18.7527 13.2726C18.5184 13.3095 18.2874 13.346 18.0612 13.3851C17.8351 13.4243 17.6126 13.4627 17.3934 13.5012C17.1743 13.5397 16.9583 13.5777 16.7448 13.6137L16.1112 13.7224C15.9026 13.7584 15.6969 13.7944 15.4929 13.8284C15.2888 13.8623 15.0847 13.8959 14.8815 13.9276C14.6784 13.9593 14.4752 13.9908 14.2729 14.0219C14.0706 14.0529 13.8713 14.0844 13.6701 14.1141C13.469 14.1438 13.2665 14.1713 13.0626 14.1985C12.8588 14.2257 12.6538 14.2516 12.4482 14.277C12.2425 14.3024 12.036 14.3276 11.8267 14.3513C11.6175 14.3749 11.406 14.3963 11.1913 14.4188C10.9767 14.4413 10.7589 14.4608 10.5388 14.4806C10.3188 14.5004 10.0949 14.5198 9.86696 14.5367C9.63903 14.5535 9.40728 14.5686 9.17081 14.5817C8.41506 14.6235 7.65836 14.6455 6.90146 14.6478V17.7803C7.17146 17.7803 7.43486 17.7773 7.69166 17.7713C7.94846 17.7653 8.20016 17.7578 8.44676 17.7488C8.69261 17.7393 8.93396 17.7281 9.17081 17.715C9.40766 17.702 9.63971 17.687 9.86696 17.67C10.095 17.6531 10.3189 17.6343 10.5388 17.6138C10.7587 17.5932 10.9762 17.5727 11.1913 17.5523C11.406 17.531 11.6178 17.5085 11.8269 17.4848C12.036 17.4623 12.2427 17.4365 12.4486 17.411C12.6545 17.3856 12.8588 17.3595 13.062 17.3325C13.2651 17.3055 13.467 17.2774 13.6695 17.2481C13.872 17.2189 14.0713 17.1869 14.2729 17.1557C14.4745 17.1244 14.6779 17.0936 14.8804 17.0614C15.0829 17.0292 15.2872 16.9966 15.492 16.9626C15.6967 16.9286 15.9024 16.8924 16.1109 16.8566L16.7443 16.7475C16.9578 16.7106 17.1743 16.6733 17.3932 16.635C17.6121 16.5968 17.8344 16.5569 18.061 16.5189C18.2876 16.4809 18.5175 16.4438 18.7524 16.408C18.9873 16.3722 19.2024 16.3405 19.4949 16.3034C19.8137 16.2581 20.1359 16.2408 20.4577 16.2518C20.7601 16.2723 20.9997 16.3495 21 16.5601V13.4256C21.0002 13.215 20.7606 13.1376 20.4582 13.1171Z" fill="url(#paint4_linear_927_5240)"/>
<path d="M14.6496 14.3706C14.435 14.2809 14.1995 14.2536 13.9701 14.2918C13.7257 14.3314 13.494 14.4279 13.2939 14.5738C13.0943 14.7178 12.9291 14.9043 12.8102 15.1198C12.6909 15.3344 12.6275 15.5756 12.6259 15.8212C12.6235 16.0525 12.6874 16.2796 12.8102 16.4757C12.9267 16.6595 13.0949 16.8049 13.2937 16.8935C13.5064 16.9868 13.7416 17.0163 13.9707 16.9783C14.217 16.9385 14.4499 16.8396 14.6496 16.6901C14.8496 16.5418 15.0146 16.3512 15.1326 16.1319C15.251 15.9145 15.3141 15.6713 15.3162 15.4238C15.3193 15.1947 15.2557 14.9696 15.1331 14.776C15.0162 14.5955 14.8477 14.4542 14.6496 14.3706ZM13.2109 14.8496C13.222 14.8599 13.2367 14.8655 13.2518 14.8652C13.2669 14.8648 13.2813 14.8586 13.2919 14.8478C13.3039 14.8381 13.3117 14.8243 13.3139 14.809C13.3161 14.7938 13.3124 14.7783 13.3036 14.7657C13.3562 14.7229 13.4115 14.6837 13.4692 14.6482C13.4728 14.6546 13.4776 14.6602 13.4834 14.6647C13.4892 14.6691 13.4958 14.6723 13.5029 14.6741C13.51 14.6759 13.5174 14.6762 13.5246 14.675C13.5318 14.6738 13.5387 14.6711 13.5448 14.6671C13.5586 14.6597 13.5693 14.6477 13.5751 14.6332C13.581 14.6187 13.5817 14.6026 13.577 14.5877C13.6069 14.5729 13.6371 14.5591 13.667 14.5463C13.6969 14.5335 13.728 14.5216 13.7595 14.5112C13.7606 14.5184 13.7633 14.5252 13.7673 14.5312C13.7713 14.5372 13.7766 14.5422 13.7828 14.546C13.789 14.5497 13.796 14.552 13.8032 14.5528C13.8104 14.5535 13.8177 14.5527 13.8245 14.5504C13.8396 14.5459 13.8528 14.5364 13.8619 14.5235C13.871 14.5106 13.8755 14.495 13.8747 14.4793C13.9062 14.4721 13.9372 14.4646 13.9692 14.4597C14.0011 14.4547 14.0331 14.4523 14.0646 14.4498C14.0635 14.4569 14.0641 14.4641 14.0662 14.471C14.0683 14.4779 14.0718 14.4842 14.0767 14.4895C14.0815 14.4949 14.0874 14.4991 14.094 14.5018C14.1006 14.5046 14.1078 14.5059 14.115 14.5056C14.1308 14.5046 14.1459 14.4983 14.1577 14.4876C14.1695 14.477 14.1773 14.4627 14.18 14.4471C14.2117 14.4471 14.2425 14.4498 14.2734 14.4534C14.3042 14.457 14.3346 14.4619 14.3645 14.468C14.3616 14.4747 14.3602 14.4819 14.3603 14.4891C14.3604 14.4964 14.362 14.5036 14.3651 14.5101C14.3681 14.5167 14.3725 14.5226 14.378 14.5273C14.3835 14.5321 14.3899 14.5357 14.3969 14.5378C14.4124 14.5407 14.4284 14.5382 14.4422 14.5306C14.456 14.523 14.4667 14.5108 14.4725 14.4961C14.5013 14.5051 14.5299 14.5155 14.5575 14.527C14.5852 14.5383 14.6122 14.5511 14.6385 14.5652C14.634 14.5711 14.6307 14.5779 14.6289 14.5851C14.627 14.5923 14.6266 14.5997 14.6277 14.6071C14.6287 14.6145 14.6313 14.6215 14.6351 14.6279C14.6389 14.6343 14.644 14.6398 14.65 14.6442C14.664 14.6509 14.6799 14.6524 14.6949 14.6482C14.7098 14.6441 14.7227 14.6346 14.7312 14.6217C14.7555 14.6386 14.7794 14.6559 14.8021 14.675C14.8248 14.6941 14.8458 14.7146 14.8667 14.7358C14.855 14.7456 14.8475 14.7596 14.8457 14.7748C14.8439 14.79 14.8479 14.8053 14.857 14.8177C14.8678 14.8283 14.8823 14.8343 14.8974 14.8343C14.9125 14.8343 14.9271 14.8283 14.9378 14.8177C14.9558 14.8402 14.9724 14.8651 14.9884 14.8899C15.0046 14.9146 15.019 14.9412 15.0334 14.9675C15.02 14.9753 15.0096 14.9876 15.0042 15.0022C14.9987 15.0168 14.9985 15.0329 15.0035 15.0476C15.0068 15.0541 15.0114 15.0599 15.0171 15.0645C15.0227 15.0691 15.0293 15.0725 15.0363 15.0744C15.0434 15.0763 15.0507 15.0767 15.058 15.0756C15.0652 15.0745 15.0721 15.0718 15.0782 15.0679C15.0888 15.0962 15.0982 15.1248 15.1063 15.1545C14.83 15.2562 14.691 15.3064 14.414 15.4067L14.1926 15.5291C14.1888 15.5179 14.1839 15.5071 14.1782 15.4967L14.3973 15.3696C14.6336 15.1783 14.7524 15.0825 14.9882 14.8908C14.7364 15.0573 14.6095 15.1405 14.3582 15.3061C14.2821 15.3736 14.2437 15.4092 14.1676 15.478C14.161 15.4687 14.1534 15.46 14.1451 15.4522L14.3323 15.2762L14.8048 14.6759L14.2761 15.2278L14.1289 15.4378C14.1197 15.4306 14.1099 15.4243 14.0994 15.4191L14.2419 15.2071C14.369 14.9353 14.4327 14.7992 14.5602 14.5276C14.4048 14.7873 14.3271 14.9176 14.1719 15.1774L14.0785 15.4105C14.0673 15.4067 14.0557 15.4038 14.0439 15.402L14.1325 15.1671L14.2761 14.4541C14.1872 14.7358 14.1431 14.8768 14.0547 15.1585L14.0211 15.3979C14.0087 15.3976 13.9962 15.3983 13.9838 15.4L14.0119 15.1594L13.9719 14.4604L13.9318 15.1718L13.9599 15.4036C13.9474 15.4061 13.9351 15.4094 13.923 15.4135L13.8897 15.184C13.802 14.9295 13.7579 14.8015 13.6697 14.547L13.8123 15.2166L13.9003 15.4238C13.8885 15.4295 13.877 15.436 13.8661 15.4434L13.773 15.2386L13.3864 14.7047L13.7034 15.2897L13.845 15.4582C13.8346 15.4668 13.825 15.4762 13.8159 15.4861L13.6695 15.3208C13.4604 15.1633 13.3545 15.0854 13.1452 14.927C13.1659 14.9009 13.1864 14.8735 13.2109 14.8496ZM13.0041 15.105C13.018 15.1119 13.0339 15.1134 13.0488 15.1092C13.0636 15.1051 13.0765 15.0955 13.0847 15.0825C13.0894 15.0767 13.0929 15.07 13.095 15.0628C13.0971 15.0557 13.0977 15.0481 13.0969 15.0407C13.096 15.0333 13.0937 15.0261 13.09 15.0196C13.0863 15.0131 13.0814 15.0074 13.0755 15.0028C13.0962 14.9758 13.1205 14.9522 13.143 14.9266C13.3304 15.1108 13.424 15.2029 13.6107 15.3853L13.7968 15.5048C13.7886 15.5152 13.7811 15.5262 13.7743 15.5377C13.6985 15.4927 13.6605 15.4702 13.5846 15.4231C13.3326 15.3331 13.2062 15.2863 12.9533 15.1925C12.9688 15.1625 12.9858 15.1333 13.0041 15.105ZM12.864 15.3957C12.8793 15.3984 12.8951 15.3958 12.9088 15.3882C12.9224 15.3806 12.9329 15.3686 12.9387 15.3541C12.9418 15.3474 12.9434 15.3403 12.9435 15.333C12.9437 15.3257 12.9423 15.3184 12.9394 15.3117C12.9366 15.305 12.9324 15.2989 12.927 15.2939C12.9217 15.2889 12.9154 15.2851 12.9085 15.2827C12.9222 15.2524 12.9373 15.222 12.9535 15.1927C13.1904 15.3165 13.3088 15.3781 13.5448 15.4992C13.6323 15.5242 13.676 15.5361 13.7633 15.5604C13.7578 15.5723 13.753 15.5845 13.7491 15.5971L13.5284 15.5408C13.2521 15.5228 13.1133 15.5122 12.8358 15.4911C12.8436 15.4588 12.853 15.4268 12.864 15.3955V15.3957ZM12.7989 15.8947C12.7965 15.8632 12.7942 15.8322 12.7942 15.8C12.7942 15.7678 12.7965 15.7359 12.7989 15.7039C12.8147 15.7032 12.8297 15.6969 12.8413 15.6863C12.8529 15.6757 12.8605 15.6613 12.8626 15.6457C12.8639 15.6385 12.8635 15.6312 12.8617 15.6241C12.8598 15.6171 12.8564 15.6106 12.8518 15.605C12.8471 15.5994 12.8413 15.5949 12.8348 15.5918C12.8282 15.5887 12.8211 15.587 12.8138 15.5869C12.8196 15.5545 12.8273 15.5228 12.8363 15.4913C13.1063 15.5449 13.2399 15.5707 13.5079 15.6214H13.7424C13.7401 15.6337 13.7388 15.6462 13.7385 15.6587C13.6443 15.6614 13.5968 15.6628 13.5023 15.665C13.2669 15.7118 13.0312 15.7568 12.7951 15.8C13.031 15.7833 13.2667 15.765 13.5023 15.7451L13.7385 15.6826C13.7388 15.6947 13.7401 15.7068 13.7424 15.7188C13.6644 15.7418 13.5862 15.7643 13.5079 15.7863C13.2399 15.9125 13.1052 15.9748 12.8363 16.0981C12.8277 16.0685 12.8207 16.0385 12.8151 16.0081C12.8302 16.0038 12.8433 15.9943 12.8521 15.9813C12.861 15.9683 12.865 15.9527 12.8635 15.937C12.8626 15.9297 12.8601 15.9227 12.8562 15.9165C12.8524 15.9103 12.8472 15.9049 12.841 15.9009C12.8349 15.8968 12.828 15.8942 12.8207 15.8931C12.8134 15.892 12.806 15.8925 12.7989 15.8945V15.8947ZM12.9083 16.288C12.9219 16.2806 12.9325 16.2685 12.938 16.254C12.9435 16.2395 12.9437 16.2235 12.9384 16.2088C12.9352 16.2022 12.9307 16.1964 12.9251 16.1916C12.9195 16.1869 12.913 16.1833 12.906 16.1812C12.899 16.1791 12.8916 16.1785 12.8844 16.1794C12.8771 16.1802 12.8701 16.1826 12.8637 16.1863C12.8531 16.1577 12.8436 16.1287 12.8354 16.0993C13.1126 16.0059 13.2516 15.9586 13.5279 15.8621C13.6164 15.814 13.6605 15.7899 13.7484 15.7413C13.7523 15.7525 13.7571 15.7633 13.7628 15.7737C13.6755 15.8241 13.6319 15.8491 13.5444 15.899C13.3479 16.056 13.1507 16.2119 12.9526 16.3668C12.9371 16.3409 12.9224 16.3145 12.9083 16.2878V16.288ZM13.0752 16.5241C13.0869 16.5141 13.0943 16.5001 13.0961 16.4848C13.0978 16.4696 13.0936 16.4542 13.0845 16.4419C13.0739 16.4311 13.0595 16.4249 13.0444 16.4246C13.0293 16.4243 13.0147 16.43 13.0037 16.4404C12.9855 16.4167 12.9686 16.392 12.9531 16.3666C13.1643 16.2332 13.3749 16.0986 13.5846 15.9629L13.7741 15.7926C13.7808 15.802 13.7883 15.8107 13.7966 15.8187C13.7221 15.8887 13.6841 15.9235 13.6098 15.9933C13.4546 16.1901 13.2987 16.3864 13.1421 16.5821C13.12 16.5623 13.0957 16.545 13.0752 16.5238V16.5241ZM13.2915 16.6199C13.2778 16.6127 13.2619 16.6108 13.2469 16.6146C13.232 16.6184 13.2189 16.6276 13.2102 16.6404C13.1859 16.6231 13.1652 16.6017 13.1427 16.5823C13.3531 16.3672 13.4577 16.259 13.6674 16.0423L13.8139 15.8338C13.8231 15.8408 13.8329 15.8471 13.8432 15.8524C13.7867 15.937 13.7581 15.9793 13.7014 16.0637C13.5747 16.3337 13.5111 16.4687 13.3839 16.7387C13.3564 16.727 13.3294 16.7141 13.3029 16.7C13.3076 16.694 13.311 16.6872 13.313 16.6799C13.3149 16.6725 13.3154 16.6649 13.3143 16.6574C13.3133 16.6499 13.3107 16.6427 13.3067 16.6362C13.3028 16.6297 13.2976 16.6241 13.2915 16.6197V16.6199ZM14.1809 16.7581C14.1797 16.7509 14.177 16.7442 14.1729 16.7382C14.1689 16.7323 14.1636 16.7273 14.1574 16.7236C14.1512 16.7199 14.1443 16.7176 14.1371 16.7169C14.1299 16.7162 14.1227 16.717 14.1159 16.7194C14.1007 16.7238 14.0874 16.7333 14.0783 16.7463C14.0691 16.7592 14.0646 16.7749 14.0655 16.7907C14.034 16.7981 14.002 16.8055 13.9701 16.8103C13.9381 16.815 13.9066 16.8181 13.8751 16.8204C13.8761 16.8133 13.8756 16.806 13.8735 16.7992C13.8714 16.7923 13.8679 16.7859 13.8631 16.7806C13.8583 16.7752 13.8524 16.771 13.8459 16.7681C13.8393 16.7653 13.8321 16.7639 13.8249 16.7641C13.8091 16.7652 13.7941 16.7715 13.7824 16.7821C13.7706 16.7927 13.7628 16.807 13.7601 16.8226C13.7286 16.8215 13.698 16.8193 13.6674 16.8152C13.6368 16.8112 13.6058 16.8064 13.5761 16.8004C13.5791 16.7937 13.5806 16.7865 13.5805 16.7792C13.5805 16.7718 13.5789 16.7646 13.5758 16.758C13.5728 16.7514 13.5684 16.7454 13.5629 16.7406C13.5574 16.7358 13.5509 16.7323 13.5439 16.7302C13.5287 16.7272 13.5129 16.7296 13.4992 16.7369C13.4855 16.7443 13.4748 16.7561 13.4688 16.7704C13.44 16.7612 13.4117 16.7504 13.3839 16.7383C13.539 16.4806 13.6166 16.3517 13.7709 16.093L13.8643 15.8599C13.8755 15.8639 13.887 15.8669 13.8987 15.8689L13.8103 16.1035L13.6674 16.8152C13.7559 16.5344 13.8 16.3938 13.8879 16.1125L13.9212 15.8727C13.9335 15.8728 13.9456 15.8719 13.9577 15.87L13.9293 16.1105L13.9696 16.808L14.0097 16.097L13.9815 15.865C13.9942 15.8626 14.0067 15.8594 14.0189 15.8554L14.0524 16.0844C14.1408 16.3389 14.1852 16.4669 14.2738 16.7205C14.2437 16.7351 14.2124 16.7475 14.1809 16.7578V16.7581ZM14.7317 16.4129C14.7205 16.4027 14.7057 16.3972 14.6906 16.3978C14.6754 16.3984 14.6611 16.405 14.6507 16.4161C14.6388 16.4258 14.631 16.4397 14.6289 16.455C14.6267 16.4702 14.6303 16.4857 14.639 16.4984C14.6131 16.5209 14.5857 16.5409 14.5578 16.5612C14.5299 16.5814 14.5022 16.6003 14.4734 16.6186C14.4698 16.6122 14.4649 16.6066 14.4591 16.6022C14.4532 16.5978 14.4465 16.5947 14.4394 16.593C14.4323 16.5913 14.4249 16.5912 14.4177 16.5925C14.4105 16.5938 14.4036 16.5967 14.3976 16.6008C14.3838 16.6082 14.3731 16.6202 14.3673 16.6347C14.3614 16.6492 14.3607 16.6653 14.3654 16.6802C14.3358 16.6953 14.3058 16.7095 14.2754 16.7227C14.2178 16.4552 14.1888 16.3216 14.1314 16.054L14.043 15.847C14.055 15.8412 14.0666 15.8345 14.0776 15.827L14.171 16.0318L14.5587 16.5612L14.241 15.9805L14.0983 15.8124C14.1089 15.8038 14.1188 15.7945 14.128 15.7845L14.2752 15.9492L14.8001 16.3348C14.7767 16.3605 14.756 16.3875 14.7317 16.4127V16.4129ZM15.078 15.8581C15.0623 15.8556 15.0462 15.8588 15.0327 15.867C15.0191 15.8753 15.0088 15.888 15.0037 15.9031C15.0006 15.9096 14.9989 15.9167 14.9987 15.9239C14.9985 15.9311 14.9999 15.9383 15.0026 15.945C15.0054 15.9517 15.0096 15.9577 15.0148 15.9626C15.0201 15.9676 15.0264 15.9713 15.0332 15.9737C15.0197 16.0048 15.0051 16.0347 14.9882 16.0648C14.9713 16.095 14.9553 16.1249 14.9373 16.1535C14.9232 16.1472 14.9072 16.1462 14.8924 16.1508C14.8775 16.1554 14.8649 16.1652 14.8568 16.1785C14.8521 16.1842 14.8486 16.1909 14.8465 16.1981C14.8444 16.2052 14.8438 16.2127 14.8447 16.2201C14.8455 16.2275 14.8478 16.2347 14.8515 16.2412C14.8552 16.2476 14.8601 16.2533 14.866 16.2579C14.8453 16.2851 14.821 16.3094 14.7985 16.3355L14.3301 15.8855L14.1429 15.7676C14.1512 15.7573 14.1587 15.7464 14.1654 15.735L14.3559 15.8475C14.6086 15.9352 14.7351 15.9787 14.9875 16.0655C14.7902 15.9677 14.593 15.8696 14.396 15.7712L14.1768 15.7111C14.1826 15.6994 14.1874 15.6872 14.1912 15.6747L14.4124 15.7291C14.6892 15.7435 14.8284 15.7516 15.1047 15.7642C15.0975 15.7959 15.0885 15.8271 15.078 15.8578V15.8581ZM15.1477 15.4515C15.1477 15.4839 15.1455 15.5156 15.1428 15.5476C15.127 15.5492 15.1122 15.5561 15.1007 15.5671C15.0892 15.5781 15.0817 15.5926 15.0793 15.6083C15.078 15.6154 15.0783 15.6226 15.0801 15.6295C15.082 15.6364 15.0853 15.6429 15.09 15.6483C15.0946 15.6538 15.1004 15.6582 15.1069 15.6611C15.1134 15.6641 15.1205 15.6656 15.1277 15.6655C15.1219 15.6979 15.1148 15.7301 15.1065 15.762C14.8383 15.717 14.7036 15.6929 14.4351 15.6463L14.1998 15.6488C14.2022 15.6363 14.2037 15.6235 14.2041 15.6108L14.441 15.6027C14.7238 15.5426 14.8653 15.5127 15.1477 15.4515C14.8653 15.4805 14.7236 15.4945 14.441 15.5221L14.2041 15.5872C14.2037 15.575 14.2023 15.5629 14.1998 15.5509L14.4354 15.4807C14.7038 15.3507 14.8386 15.2854 15.1068 15.154C15.1151 15.1835 15.1223 15.2132 15.1279 15.244C15.1128 15.249 15.0998 15.2588 15.091 15.2721C15.0822 15.2853 15.0781 15.3011 15.0793 15.3169C15.0803 15.324 15.0828 15.3308 15.0866 15.3369C15.0905 15.3429 15.0956 15.348 15.1017 15.3519C15.1077 15.3557 15.1145 15.3582 15.1216 15.3591C15.1287 15.36 15.1359 15.3594 15.1428 15.3572C15.1455 15.3878 15.1477 15.42 15.1477 15.4513V15.4515Z" fill="url(#paint5_linear_927_5240)"/>
<defs>
<linearGradient id="paint0_linear_927_5240" x1="6.90077" y1="19.7263" x2="21.0002" y2="19.7263" gradientUnits="userSpaceOnUse">
<stop stop-color="#003300"/>
<stop offset="0.325" stop-color="#003600"/>
<stop offset="0.585" stop-color="#004000"/>
<stop offset="0.823" stop-color="#005100"/>
<stop offset="1" stop-color="#006300"/>
</linearGradient>
<linearGradient id="paint1_linear_927_5240" x1="13.9505" y1="18.4553" x2="13.9505" y2="21" gradientUnits="userSpaceOnUse">
<stop offset="0.35" stop-color="#209300"/>
<stop offset="0.645" stop-color="#1F9100"/>
<stop offset="0.752" stop-color="#1D8A00"/>
<stop offset="0.828" stop-color="#197F00"/>
<stop offset="0.889" stop-color="#136E00"/>
<stop offset="0.941" stop-color="#0C5800"/>
<stop offset="0.987" stop-color="#033D00"/>
<stop offset="1" stop-color="#003400"/>
</linearGradient>
<linearGradient id="paint2_linear_927_5240" x1="6.90079" y1="13.0978" x2="21.0002" y2="13.0978" gradientUnits="userSpaceOnUse">
<stop stop-color="#F87F00"/>
<stop offset="0.021" stop-color="#F88102"/>
<stop offset="0.244" stop-color="#FC9213"/>
<stop offset="0.487" stop-color="#FE9C1D"/>
<stop offset="0.791" stop-color="#FF9F20"/>
<stop offset="0.841" stop-color="#FD9C1E"/>
<stop offset="0.882" stop-color="#F79219"/>
<stop offset="0.919" stop-color="#ED8111"/>
<stop offset="0.954" stop-color="#DE6905"/>
<stop offset="0.966" stop-color="#D85F00"/>
<stop offset="1" stop-color="#FF9F20"/>
</linearGradient>
<linearGradient id="paint3_linear_927_5240" x1="6.90077" y1="17.7935" x2="21.0002" y2="17.7935" gradientUnits="userSpaceOnUse">
<stop stop-color="#209200"/>
<stop offset="0.03" stop-color="#239503"/>
<stop offset="0.25" stop-color="#33A613"/>
<stop offset="0.491" stop-color="#3DB01D"/>
<stop offset="0.791" stop-color="#40B320"/>
<stop offset="0.841" stop-color="#3DB01E"/>
<stop offset="0.881" stop-color="#33A619"/>
<stop offset="0.918" stop-color="#229511"/>
<stop offset="0.953" stop-color="#0B7D06"/>
<stop offset="0.966" stop-color="#007200"/>
<stop offset="1" stop-color="#40B320"/>
</linearGradient>
<linearGradient id="paint4_linear_927_5240" x1="6.90078" y1="15.4457" x2="21.0002" y2="15.4457" gradientUnits="userSpaceOnUse">
<stop stop-color="#DFDFDF"/>
<stop offset="0.021" stop-color="#E1E1E1"/>
<stop offset="0.244" stop-color="#F2F2F2"/>
<stop offset="0.487" stop-color="#FCFCFC"/>
<stop offset="0.791" stop-color="white"/>
<stop offset="0.841" stop-color="#FCFCFC"/>
<stop offset="0.882" stop-color="#F2F2F2"/>
<stop offset="0.919" stop-color="#E1E1E1"/>
<stop offset="0.954" stop-color="#C9C9C9"/>
<stop offset="0.966" stop-color="#BFBFBF"/>
<stop offset="1" stop-color="white"/>
</linearGradient>
<linearGradient id="paint5_linear_927_5240" x1="6.90057" y1="15.6349" x2="21.0004" y2="15.6349" gradientUnits="userSpaceOnUse">
<stop stop-color="#0050CF"/>
<stop offset="0.021" stop-color="#0252D1"/>
<stop offset="0.244" stop-color="#1363E2"/>
<stop offset="0.487" stop-color="#1D6DEC"/>
<stop offset="0.791" stop-color="#2070EF"/>
<stop offset="0.841" stop-color="#1E6DEC"/>
<stop offset="0.882" stop-color="#1963E2"/>
<stop offset="0.919" stop-color="#1152D1"/>
<stop offset="0.954" stop-color="#053AB9"/>
<stop offset="0.966" stop-color="#0030AF"/>
<stop offset="1" stop-color="#2070EF"/>
</linearGradient>
</defs>
</svg>
