<svg width="24" height="24" viewBox="0 0 24 24" fill="none" xmlns="http://www.w3.org/2000/svg">
<circle cx="12" cy="12" r="12" fill="#D0D2D3"/>
<circle cx="12" cy="12" r="11.34" fill="white"/>
<g opacity="0.8">
<path d="M13.6463 8.66961C14.2347 8.18542 14.61 7.45153 14.61 6.62999C14.61 5.17196 13.428 3.98999 11.97 3.98999C10.512 3.98999 9.33 5.17196 9.33 6.62999C9.33 7.45153 9.70525 8.18542 10.2937 8.66961L11.97 6.05999L13.6463 8.66961Z" fill="#5C67B0"/>
<path d="M8.05336 12.6913L6.78892 15.4443L9.88244 15.5161C9.73073 16.8299 8.61448 17.85 7.25999 17.85C5.80196 17.85 4.62 16.668 4.62 15.21C4.62 13.752 5.80196 12.57 7.25999 12.57C7.53643 12.57 7.80295 12.6125 8.05336 12.6913Z" fill="#5C67B0"/>
<path d="M15.7791 12.6913L17.0435 15.4443L13.95 15.5161C14.1017 16.8299 15.2179 17.85 16.5724 17.85C18.0305 17.85 19.2124 16.668 19.2124 15.21C19.2124 13.752 18.0305 12.57 16.5724 12.57C16.296 12.57 16.0295 12.6125 15.7791 12.6913Z" fill="#5C67B0"/>
</g>
</svg>
