<svg width="24" height="24" viewBox="0 0 24 24" fill="none" xmlns="http://www.w3.org/2000/svg">
<g clip-path="url(#clip0_778_6032)">
<path d="M7.28421 17.3928L1.77861 18.012L5.01141 10.5528L1.70181 6.04081L9.749 5.12401L11.9354 0.0960083L16.7258 6.60721L22.2314 5.98801L19.013 13.4112L22.2986 17.892L14.2922 18.804L12.0722 23.904L7.28421 17.3928ZM9.5714 16.8984C9.3602 17.0016 9.1346 17.088 8.9018 17.1528L8.69061 17.2104L11.7938 21.4296L12.8954 18.8952L12.6962 18.8688C11.6114 18.732 10.625 18.1464 9.989 17.268L9.6794 16.8408L9.5714 16.8984ZM8.4914 13.0728L10.9946 16.536C11.5034 17.2392 12.3266 17.6592 13.1954 17.6592C13.2962 17.6592 13.397 17.6544 13.4954 17.6424L20.0282 16.8984L17.4266 13.3488C17.297 13.1736 17.1482 13.0152 16.9826 12.876L16.829 12.7488L14.9666 16.956L11.7266 12.6672L8.4914 13.0728ZM8.5994 8.85601C7.62981 8.95921 6.78501 9.58081 6.39621 10.4784L3.77301 16.5336L8.13141 16.044C8.3474 16.02 8.55861 15.9696 8.7626 15.8952L8.9498 15.8256L6.25221 12.1008L11.5706 11.4264L12.8354 8.40481L8.5994 8.85601ZM12.7154 11.9112L14.6858 14.52L15.8882 11.8056L16.4162 10.6104C16.8122 9.71521 16.6994 8.67121 16.1186 7.88401L12.2138 2.57041L10.457 6.60721C10.3706 6.80641 10.3082 7.01521 10.2698 7.23121L10.2362 7.42801L14.7938 6.94561L12.7154 11.9112ZM17.5034 7.77361L17.5802 7.95841C18.0026 8.96881 17.993 10.1208 17.5514 11.1168L17.3378 11.5968L17.441 11.6664C17.6378 11.7984 17.8226 11.952 17.993 12.1224L18.149 12.276L20.2346 7.46401L17.5034 7.77361ZM3.97221 7.03441L5.63301 9.30001L5.75541 9.14161C6.41541 8.28481 7.40661 7.72801 8.4698 7.61521L8.9906 7.56001L9.0002 7.43281C9.017 7.17121 9.0626 6.90961 9.1322 6.65521L9.1922 6.43921L3.97221 7.03441Z" fill="url(#paint0_linear_778_6032)"/>
<path d="M10.8386 24C7.3826 23.6664 4.277 21.8688 2.2442 19.02L3.6362 18.864C3.8666 19.1472 4.1114 19.4184 4.3634 19.6728C5.873 21.1896 7.7618 22.212 9.833 22.6344L10.8386 24Z" fill="url(#paint1_linear_778_6032)"/>
<path d="M13.7378 22.7112C15.9794 22.3488 18.017 21.3 19.637 19.6728C19.781 19.5264 19.9274 19.3704 20.0738 19.2072L21.761 19.0152C19.7354 21.8616 16.6346 23.6616 13.1786 24L13.7378 22.7112Z" fill="url(#paint2_linear_778_6032)"/>
<path d="M22.1042 15.8472C22.565 14.6208 22.8002 13.3272 22.8002 12C22.8002 10.8288 22.6154 9.67678 22.253 8.57758L22.9298 7.01758C23.6402 8.58478 24.0002 10.26 24.0002 12C24.0002 13.7376 23.6402 15.4104 22.9322 16.9776L22.1042 15.8472Z" fill="url(#paint3_linear_778_6032)"/>
<path d="M1.07538 16.9944C0.362583 15.4224 0.000183105 13.7448 0.000183105 12C0.000183105 10.2456 0.364983 8.55837 1.08738 6.98157L1.91298 8.10957C1.44018 9.34797 1.20018 10.656 1.20018 12C1.20018 13.176 1.38498 14.3304 1.74978 15.4344L1.07538 16.9944Z" fill="url(#paint4_linear_778_6032)"/>
<path d="M2.29459 4.9104C4.32499 2.1072 7.4066 0.3312 10.8314 0L10.2722 1.2864C8.0282 1.6464 5.9858 2.6976 4.36339 4.3272C4.24099 4.4496 4.11859 4.5816 3.99619 4.716L2.29459 4.9104Z" fill="url(#paint5_linear_778_6032)"/>
<path d="M20.3666 5.136C20.1362 4.8528 19.8914 4.5816 19.637 4.3272C18.1298 2.8128 16.2434 1.7904 14.177 1.368L13.1714 0C16.625 0.336 19.7258 2.1336 21.7562 4.98L20.3666 5.136Z" fill="url(#paint6_linear_778_6032)"/>
</g>
<defs>
<linearGradient id="paint0_linear_778_6032" x1="2.30655" y1="21.6601" x2="21.0261" y2="2.94057" gradientUnits="userSpaceOnUse">
<stop stop-color="#009DDE"/>
<stop offset="0.5" stop-color="#694D9F"/>
<stop offset="1" stop-color="#ED3554"/>
</linearGradient>
<linearGradient id="paint1_linear_778_6032" x1="4.34894" y1="23.7025" x2="23.0685" y2="4.98296" gradientUnits="userSpaceOnUse">
<stop stop-color="#009DDE"/>
<stop offset="0.5" stop-color="#694D9F"/>
<stop offset="1" stop-color="#ED3554"/>
</linearGradient>
<linearGradient id="paint2_linear_778_6032" x1="9.68963" y1="29.0432" x2="28.4092" y2="10.3236" gradientUnits="userSpaceOnUse">
<stop stop-color="#009DDE"/>
<stop offset="0.5" stop-color="#694D9F"/>
<stop offset="1" stop-color="#ED3554"/>
</linearGradient>
<linearGradient id="paint3_linear_778_6032" x1="7.78753" y1="27.141" x2="26.5071" y2="8.42153" gradientUnits="userSpaceOnUse">
<stop stop-color="#009DDE"/>
<stop offset="0.5" stop-color="#694D9F"/>
<stop offset="1" stop-color="#ED3554"/>
</linearGradient>
<linearGradient id="paint4_linear_778_6032" x1="-3.14208" y1="16.2114" x2="15.5774" y2="-2.50809" gradientUnits="userSpaceOnUse">
<stop stop-color="#009DDE"/>
<stop offset="0.5" stop-color="#694D9F"/>
<stop offset="1" stop-color="#ED3554"/>
</linearGradient>
<linearGradient id="paint5_linear_778_6032" x1="-5.04025" y1="14.3133" x2="13.6793" y2="-4.40626" gradientUnits="userSpaceOnUse">
<stop stop-color="#009DDE"/>
<stop offset="0.5" stop-color="#694D9F"/>
<stop offset="1" stop-color="#ED3554"/>
</linearGradient>
<linearGradient id="paint6_linear_778_6032" x1="0.300126" y1="19.6537" x2="19.0196" y2="0.934148" gradientUnits="userSpaceOnUse">
<stop stop-color="#009DDE"/>
<stop offset="0.5" stop-color="#694D9F"/>
<stop offset="1" stop-color="#ED3554"/>
</linearGradient>
<clipPath id="clip0_778_6032">
<rect width="24" height="24" fill="white"/>
</clipPath>
</defs>
</svg>
