<svg width="24" height="24" viewBox="0 0 24 24" fill="none" xmlns="http://www.w3.org/2000/svg">
<g clip-path="url(#clip0_2108_6349)">
<path d="M12.0002 24C18.6276 24 24.0002 18.6274 24.0002 12C24.0002 5.37258 18.6276 0 12.0002 0C5.37277 0 0.000183105 5.37258 0.000183105 12C0.000183105 18.6274 5.37277 24 12.0002 24Z" fill="#F69988"/>
<path fill-rule="evenodd" clip-rule="evenodd" d="M12.0058 3.51562L16.2151 10.0891L12.0056 12.5365L7.79648 10.089L12.0058 3.51562ZM9.08503 9.77817L12.0058 5.21705L14.9265 9.77817L12.0056 11.4764L9.08503 9.77817Z" fill="white"/>
<path d="M11.9996 13.9814L7.11655 11.142L6.98324 11.3502C5.4793 13.6989 5.81516 16.7747 7.79075 18.7452C10.1156 21.0641 13.8848 21.0641 16.2096 18.7452C18.1852 16.7747 18.5211 13.6989 17.0171 11.3502L16.8838 11.142L11.9998 13.9815L11.9996 13.9814Z" fill="white"/>
</g>
<defs>
<clipPath id="clip0_2108_6349">
<rect width="24" height="24" fill="white"/>
</clipPath>
</defs>
</svg>
