<svg width="24" height="24" viewBox="0 0 24 24" fill="none" xmlns="http://www.w3.org/2000/svg">
<path d="M24.0002 12C24.0002 5.37258 18.6276 0 12.0002 0C5.37277 0 0.000183105 5.37258 0.000183105 12C0.000183105 18.6274 5.37277 24 12.0002 24C18.6276 24 24.0002 18.6274 24.0002 12Z" fill="#282B42"/>
<path d="M19.6946 4.26662C17.6341 2.20617 14.8946 1.07141 11.9806 1.07141V2.34982C17.291 2.34982 21.6113 6.67012 21.6113 11.9805C21.6113 17.2909 17.291 21.6112 11.9806 21.6112C6.67024 21.6112 2.34994 17.2909 2.34994 11.9805C2.34994 9.49501 3.28531 7.15338 4.98923 5.35717L5.90752 6.27546L5.9068 3.53026L3.1619 3.52992L4.08492 4.45293C2.13973 6.49074 1.07153 9.15349 1.07153 11.9805C1.07153 14.8944 2.20629 17.6339 4.26671 19.6944C6.32718 21.7548 9.06669 22.8896 11.9806 22.8896C14.8946 22.8896 17.6341 21.7548 19.6946 19.6944C21.755 17.6339 22.8897 14.8944 22.8897 11.9805C22.8897 9.06656 21.755 6.32706 19.6946 4.26662Z" fill="url(#paint0_linear_930_6252)"/>
<path d="M9.9779 2.77596C9.50793 2.77596 9.12561 2.39363 9.12561 1.92368C9.12561 1.45374 9.50793 1.07141 9.9779 1.07141C10.4478 1.07141 10.8302 1.45374 10.8302 1.92368C10.8302 2.39363 10.4478 2.77596 9.9779 2.77596Z" fill="#3CC4E9"/>
<path d="M7.46349 3.58559C6.99357 3.58559 6.61121 3.20326 6.61121 2.73331C6.61121 2.26337 6.99357 1.88104 7.46349 1.88104C7.93346 1.88104 8.31578 2.26337 8.31578 2.73331C8.31578 3.20326 7.93346 3.58559 7.46349 3.58559Z" fill="#3CC4E9"/>
<mask id="mask0_930_6252" style="mask-type:alpha" maskUnits="userSpaceOnUse" x="10" y="7" width="9" height="10">
<path fill-rule="evenodd" clip-rule="evenodd" d="M18.9246 12.0249C18.9246 14.4428 16.9646 16.4028 14.5467 16.4028C13.2741 16.4028 12.1284 15.8598 11.3284 14.9929L10.0876 13.7497C10.0876 13.7497 10.4251 13.0099 10.4251 12.0249C10.4251 11.0399 10.0876 10.2968 10.0876 10.2968H10.5231C11.1934 8.7383 12.7426 7.64697 14.5467 7.64697C16.9646 7.64697 18.9246 9.60705 18.9246 12.0249ZM16.3923 12.0249C16.3923 13.0441 15.566 13.8704 14.5467 13.8704C13.5275 13.8704 12.7012 13.0441 12.7012 12.0249C12.7012 11.0057 13.5275 10.1794 14.5467 10.1794C15.566 10.1794 16.3923 11.0057 16.3923 12.0249Z" fill="url(#paint1_linear_930_6252)"/>
</mask>
<g mask="url(#mask0_930_6252)">
<path fill-rule="evenodd" clip-rule="evenodd" d="M18.9246 12.0249C18.9246 14.4428 16.9646 16.4028 14.5467 16.4028C13.2741 16.4028 12.1284 15.8598 11.3284 14.9929L10.0876 13.7497C10.0876 13.7497 10.4251 13.0099 10.4251 12.0249C10.4251 11.0399 10.0876 10.2968 10.0876 10.2968H10.5231C11.1934 8.7383 12.7426 7.64697 14.5467 7.64697C16.9646 7.64697 18.9246 9.60705 18.9246 12.0249ZM16.3923 12.0249C16.3923 13.0441 15.566 13.8704 14.5467 13.8704C13.5275 13.8704 12.7012 13.0441 12.7012 12.0249C12.7012 11.0057 13.5275 10.1794 14.5467 10.1794C15.566 10.1794 16.3923 11.0057 16.3923 12.0249Z" fill="url(#paint2_linear_930_6252)"/>
<path opacity="0.4" d="M10.0876 11.9704V10.3091L10.0897 10.3099C10.396 10.4318 10.6399 10.6937 10.8506 10.9198C10.8939 10.9663 10.9359 11.0113 10.9766 11.0533L13.2437 13.3351C13.2578 13.3484 13.2773 13.3662 13.3001 13.3861C12.0526 12.5271 11.3606 12.1774 10.0876 11.9704Z" fill="#1E2337"/>
</g>
<path d="M9.41243 7.64734C6.99458 7.64734 5.03455 9.60742 5.03455 12.0253C5.03455 14.4431 6.99458 16.4032 9.41243 16.4032C10.3726 16.4032 11.2605 16.0941 11.9822 15.57L10.0947 13.7406C9.88365 13.8246 9.65344 13.8708 9.41243 13.8708C8.3932 13.8708 7.56693 13.0445 7.56693 12.0253C7.56693 11.006 8.3932 10.1798 9.41243 10.1798C9.65344 10.1798 9.88365 10.2259 10.0947 10.3099C10.4639 10.4569 10.7426 10.8074 10.9816 11.0533L13.2487 13.3351C13.2996 13.3836 13.4229 13.4889 13.5122 13.5516C13.5619 13.5864 13.6403 13.633 13.7088 13.6682C13.7799 13.7047 13.8402 13.7291 13.8402 13.7291C13.8402 13.7291 13.5027 13.0076 13.5027 12.0305C13.5027 11.0533 13.8402 10.3318 13.8402 10.3318L12.4198 8.91727C12.0843 8.58223 11.7351 8.28324 11.3069 8.07737C10.7337 7.80175 10.0911 7.64734 9.41243 7.64734Z" fill="url(#paint3_linear_930_6252)"/>
<path opacity="0.3" fill-rule="evenodd" clip-rule="evenodd" d="M10.0875 13.7425C10.3155 14.2491 10.6723 15.1495 10.6723 16.2188C11.1462 16.076 11.5862 15.8551 11.9774 15.571L10.0899 13.7416C10.0891 13.7419 10.0883 13.7423 10.0875 13.7425Z" fill="#262D47"/>
<defs>
<linearGradient id="paint0_linear_930_6252" x1="11.2303" y1="3.51623" x2="4.30892" y2="4.73767" gradientUnits="userSpaceOnUse">
<stop stop-color="#F24EB3"/>
<stop offset="1" stop-color="#01E4FF"/>
</linearGradient>
<linearGradient id="paint1_linear_930_6252" x1="17.2853" y1="8.862" x2="12.0586" y2="15.749" gradientUnits="userSpaceOnUse">
<stop stop-color="#FF52BC"/>
<stop offset="0.516172" stop-color="#C83E93"/>
<stop offset="1" stop-color="#861F5E"/>
</linearGradient>
<linearGradient id="paint2_linear_930_6252" x1="17.2853" y1="8.862" x2="12.0586" y2="15.749" gradientUnits="userSpaceOnUse">
<stop stop-color="#FF52BC"/>
<stop offset="0.516172" stop-color="#C83E93"/>
<stop offset="1" stop-color="#861F5E"/>
</linearGradient>
<linearGradient id="paint3_linear_930_6252" x1="12.0459" y1="15.4945" x2="6.21319" y2="9.89283" gradientUnits="userSpaceOnUse">
<stop stop-color="#00FFFF"/>
<stop offset="1" stop-color="#01CDFD"/>
</linearGradient>
</defs>
</svg>
