<svg width="24" height="24" viewBox="0 0 24 24" fill="none" xmlns="http://www.w3.org/2000/svg">
<circle cx="12" cy="12" r="12" fill="#2E2E2E"/>
<path d="M11.9196 6.2841H11.8909C10.7904 6.2841 9.8982 5.39187 9.8982 4.29139V4.2627C9.8982 3.16221 10.7904 2.27002 11.8909 2.27002H11.9196C13.0201 2.27002 13.9122 3.16221 13.9122 4.2627V4.29139C13.9122 5.39187 13.0201 6.2841 11.9196 6.2841Z" fill="white"/>
<path d="M11.9196 14.1822H11.8909C10.7904 14.1822 9.8982 13.29 9.8982 12.1896V12.1608C9.8982 11.0603 10.7904 10.1681 11.8909 10.1681H11.9196C13.0201 10.1681 13.9122 11.0603 13.9122 12.1608V12.1896C13.9122 13.29 13.0201 14.1822 11.9196 14.1822Z" fill="white"/>
<path d="M6.01405 12.1608V12.1896C6.01405 13.29 5.12186 14.1822 4.02137 14.1822H3.99268C2.89219 14.1822 2 13.29 2 12.1896V12.1608C2 11.0603 2.89219 10.1681 3.99268 10.1681H4.02137C5.12186 10.1681 6.01405 11.0603 6.01405 12.1608Z" fill="white"/>
<path d="M11.8906 17.7126H11.9193C13.0196 17.7126 13.9117 18.6047 13.9117 19.705V19.7338C13.9117 20.8341 13.0196 21.7261 11.9193 21.7261H11.8906C10.7903 21.7261 9.8982 20.8341 9.8982 19.7338V19.705C9.8982 18.6047 10.7903 17.7126 11.8906 17.7126Z" fill="white"/>
<path d="M17.9859 12.1896V12.1608C17.9859 11.0603 18.8781 10.1681 19.9786 10.1681H20.0073C21.1078 10.1681 22 11.0603 22 12.1608V12.1896C22 13.29 21.1078 14.1822 20.0073 14.1822H19.9786C18.8781 14.1822 17.9859 13.29 17.9859 12.1896Z" fill="white"/>
<path d="M6.56078 18.6787C7.26105 18.6787 7.82874 18.111 7.82874 17.4107C7.82874 16.7104 7.26105 16.1427 6.56078 16.1427C5.86051 16.1427 5.29282 16.7104 5.29282 17.4107C5.29282 18.111 5.86051 18.6787 6.56078 18.6787Z" fill="white"/>
<path d="M6.56078 7.34429C7.26105 7.34429 7.82874 6.77665 7.82874 6.07638C7.82874 5.37607 7.26105 4.80839 6.56078 4.80839C5.86051 4.80839 5.29282 5.37607 5.29282 6.07638C5.29282 6.77665 5.86051 7.34429 6.56078 7.34429Z" fill="white"/>
<path d="M17.0899 7.34429C17.7902 7.34429 18.3578 6.77665 18.3578 6.07638C18.3578 5.37607 17.7902 4.80839 17.0899 4.80839C16.3897 4.80839 15.8219 5.37607 15.8219 6.07638C15.8219 6.77665 16.3897 7.34429 17.0899 7.34429Z" fill="white"/>
<path d="M17.0928 18.6792C17.7931 18.6792 18.3608 18.1114 18.3608 17.4112C18.3608 16.7109 17.7931 16.1433 17.0928 16.1433C16.3925 16.1433 15.8249 16.7109 15.8249 17.4112C15.8249 18.1114 16.3925 18.6792 17.0928 18.6792Z" fill="white"/>
</svg>
