<svg width="24" height="24" viewBox="0 0 24 24" fill="none" xmlns="http://www.w3.org/2000/svg">
<circle cx="12" cy="12" r="12" fill="#172854"/>
<path d="M19.4742 7.73858C19.4099 7.90452 19.3592 8.07812 19.3224 8.25937C19.3064 8.33718 19.3388 8.38218 19.3758 8.44546L19.2956 8.46093C19.2844 8.46312 19.2764 8.46937 19.2717 8.47968L18.7181 9.73733C18.7165 9.74114 18.7158 9.74526 18.7159 9.74939C18.7161 9.75352 18.7172 9.75757 18.7191 9.76124C19.3491 10.9997 19.6336 12.4111 19.2867 13.7916C19.23 14.0175 19.1489 14.4333 19.0313 14.6836C18.9078 14.9451 18.7285 15.2592 18.4931 15.6258C18.2025 16.0772 17.7736 16.3744 17.4305 16.7751C17.138 17.1173 16.8708 17.4839 16.6092 17.8111C16.4455 18.0158 16.2863 18.2251 16.1316 18.4392C15.946 18.6967 15.7545 18.9497 15.5574 19.1981C15.5495 19.2081 15.5483 19.2191 15.5536 19.2309C15.5708 19.2681 15.5781 19.3137 15.5756 19.3678C15.4374 19.4236 15.3319 19.4756 15.2245 19.5928C14.9783 19.8619 14.6919 20.0801 14.3653 20.2476C14.363 20.2488 14.3609 20.2505 14.3593 20.2526C14.3577 20.2547 14.3565 20.2572 14.356 20.2598C14.355 20.2645 14.3542 20.2686 14.3536 20.272C13.7874 20.5092 13.2141 20.7159 12.6333 20.7534C11.5575 20.8228 10.6083 20.7422 9.65158 20.2669C9.30876 20.0744 9.00486 19.8387 8.73986 19.56C8.65361 19.47 8.57486 19.4344 8.46564 19.3875C8.50502 19.3631 8.5297 19.3359 8.5397 19.3059C8.54205 19.2993 8.54232 19.2921 8.54048 19.2852C8.53864 19.2783 8.53478 19.2722 8.52939 19.2675C8.21955 18.9919 7.93126 18.5283 7.68798 18.1866C7.22236 17.5316 6.7108 16.9159 6.1533 16.3397C5.85361 16.0303 5.65314 15.8069 5.55189 15.6694C5.06158 15.005 4.75798 14.2539 4.64111 13.4161C4.64017 13.4095 4.63814 13.4036 4.63501 13.3983C4.63189 13.3933 4.62861 13.3883 4.62517 13.3833C4.61986 13.3748 4.61642 13.3662 4.61486 13.3575C4.41283 12.2334 4.70017 10.9781 5.1797 9.96187C5.21252 9.89202 5.33392 9.78046 5.27627 9.66702C5.18252 9.48093 5.08689 9.30843 5.0133 9.10921C4.91767 8.85046 4.80892 8.58577 4.68705 8.31515C4.68361 8.15546 4.63955 7.96827 4.55486 7.75358C4.55111 7.74421 4.54658 7.73827 4.54126 7.73577C4.53189 7.73171 4.52361 7.73624 4.51642 7.74937C4.50892 7.70968 4.50986 7.67062 4.51923 7.63218C4.52298 7.61687 4.52283 7.60155 4.51877 7.58624C4.26533 6.6303 4.24767 5.65218 4.4658 4.65187C4.58955 4.08515 4.99033 3.20155 5.68877 3.23577C5.82752 3.2428 5.95736 3.31546 6.10642 3.33937C6.2733 3.36702 6.42845 3.4828 6.54845 3.57608C6.87002 3.82515 7.18158 4.10671 7.48314 4.42077L7.61955 4.59796L7.89236 4.91155C7.90142 4.95124 7.92111 4.97968 7.95142 4.99687C7.96173 5.0028 7.9708 5.01046 7.97861 5.01983L8.82892 6.02858C8.83986 6.04171 8.85392 6.04765 8.87111 6.0464C8.95548 6.04015 9.0133 6.03187 9.04455 6.02155C9.99002 5.70233 10.921 5.69296 11.8875 5.92218C11.9391 5.93437 12.0558 5.93671 12.1055 5.92452C13.0839 5.6814 14.0517 5.7164 15.0089 6.02952C15.0705 6.04952 15.1208 6.03843 15.1599 5.99624C15.3761 5.76155 15.5849 5.52015 15.7861 5.27202C15.8419 5.20312 15.8625 5.09624 15.9708 5.04093C15.974 5.03925 15.9768 5.03696 15.9791 5.03419C15.9814 5.03141 15.9831 5.02821 15.9842 5.02476C15.9852 5.02132 15.9856 5.0177 15.9852 5.01412C15.9848 5.01054 15.9838 5.00706 15.982 5.0039C15.9405 4.92546 15.9377 4.86905 15.9736 4.83468L16.0842 4.90405C16.0992 4.91343 16.1124 4.91108 16.1236 4.89702L16.3692 4.58765C16.7564 4.12733 17.5856 3.31124 18.195 3.22968C19.0247 3.11905 19.4953 4.23702 19.5975 4.89796C19.7035 5.58108 19.7183 6.20624 19.642 6.77343C19.6233 6.91312 19.5674 7.23483 19.4742 7.73858ZM4.84127 4.74421C4.46908 6.47671 4.93501 8.18437 5.7347 9.72233C5.74189 9.7364 5.74142 9.7503 5.7333 9.76405C4.78408 11.3812 4.65939 13.3598 5.58283 15.0197C5.62064 15.0875 5.67658 15.1686 5.75064 15.263C5.90064 15.5098 6.04158 15.6966 6.17345 15.8231C7.1822 16.7916 7.95283 17.8987 8.79095 19.0078C9.25689 19.625 9.86564 20.0312 10.6172 20.2266C11.9222 20.5659 13.6711 20.4562 14.7497 19.5141C14.9116 19.3728 15.1167 19.1383 15.3652 18.8105C16.1555 17.7689 16.8656 16.7484 17.8153 15.8353C17.9828 15.6741 18.1264 15.4801 18.2461 15.2536C18.3308 15.1539 18.3966 15.0605 18.4435 14.9733C19.3392 13.3078 19.2099 11.3789 18.2742 9.76218C18.2704 9.75543 18.2682 9.74781 18.2681 9.74003C18.2679 9.73225 18.2697 9.72455 18.2733 9.71765C18.6667 8.95108 18.9583 8.15405 19.148 7.32655C19.3214 6.56812 19.335 5.88702 19.2281 5.12155C19.191 4.85405 19.1391 4.63155 19.0725 4.45405C18.9849 4.16999 18.7425 3.71296 18.4331 3.62952C17.6522 3.41999 15.7285 5.94468 15.2742 6.53155C15.2684 6.53902 15.2602 6.54421 15.251 6.54618C15.2418 6.54816 15.2323 6.5468 15.2241 6.54233C14.4431 6.13546 13.456 6.06843 12.6019 6.23296C12.4235 6.27233 12.2416 6.30046 12.0563 6.31733C11.8139 6.3389 11.573 6.24515 11.332 6.22265C10.4302 6.05765 9.57408 6.1639 8.76377 6.5414C8.74877 6.54827 8.73627 6.54515 8.72627 6.53202C8.18939 5.83858 7.62142 5.17202 7.02236 4.53233C6.72002 4.20937 6.30752 3.82874 5.84486 3.64405C5.28189 3.41952 4.91955 4.37437 4.84127 4.74421Z" fill="#40120B"/>
<path d="M14.497 3.76968C15.1498 3.97437 15.7739 4.24703 16.3692 4.58765L16.1236 4.89703C16.1123 4.91109 16.0992 4.91343 16.0842 4.90406L15.9736 4.83468C13.4437 3.45047 10.4006 3.47531 7.89232 4.91156L7.61951 4.59797C9.68904 3.39328 12.1847 3.06468 14.497 3.76968Z" fill="#F9D64E"/>
<path d="M11.332 6.22266C10.5814 6.19297 9.86953 6.32375 9.1964 6.615C9.04875 6.68625 8.68031 6.92953 8.55515 6.73781C8.00828 5.90219 7.39812 5.16078 6.72469 4.51359C6.42234 4.22297 5.84672 3.68063 5.41734 3.94031C5.13469 4.11141 5.04281 4.41328 4.91765 4.71094C4.91015 4.72875 4.90078 4.73969 4.88953 4.74375C4.87578 4.74875 4.85969 4.74891 4.84125 4.74422C4.91953 4.37438 5.28187 3.41953 5.84484 3.64406C6.3075 3.82875 6.72 4.20938 7.02234 4.53234C7.6214 5.17203 8.18937 5.83859 8.72625 6.53203C8.73625 6.54516 8.74875 6.54828 8.76375 6.54141C9.57406 6.16391 10.4302 6.05766 11.332 6.22266Z" fill="#FBE7C4"/>
<path d="M19.0725 4.45407C19.0562 4.46563 19.0383 4.46891 19.0186 4.46391C19.0033 4.45985 18.9928 4.45032 18.9872 4.43532C18.8859 4.1686 18.6356 3.87891 18.3319 3.86579C17.5209 3.83016 15.9009 6.04548 15.4664 6.70032C15.4336 6.74969 15.3831 6.79141 15.315 6.82548C15.3009 6.83235 15.2867 6.83251 15.2723 6.82594L14.8144 6.61829C14.1222 6.31235 13.3847 6.18391 12.6019 6.23297C13.4559 6.06844 14.4431 6.13548 15.2241 6.54235C15.2323 6.54681 15.2418 6.54818 15.251 6.5462C15.2602 6.54423 15.2684 6.53904 15.2742 6.53157C15.7284 5.94469 17.6522 3.42001 18.4331 3.62954C18.7425 3.71297 18.9848 4.17001 19.0725 4.45407Z" fill="#FBE7C4"/>
<path d="M9.1964 6.615C10.0392 6.91125 10.6941 7.54125 11.1651 8.27625C11.5617 8.89406 11.753 9.41437 11.9887 10.0327C11.9959 10.0517 12.0031 10.0517 12.0103 10.0327C12.3412 9.16453 12.6487 8.44734 13.2417 7.72359C13.6633 7.20953 14.1875 6.84109 14.8144 6.61828L15.2723 6.82594C15.2867 6.8325 15.3009 6.83234 15.315 6.82547C15.3831 6.79141 15.4336 6.74969 15.4664 6.70031C15.9009 6.04547 17.5209 3.83016 18.3319 3.86578C18.6356 3.87891 18.8859 4.16859 18.9872 4.43531C18.9928 4.45031 19.0033 4.45984 19.0186 4.46391C19.0383 4.46891 19.0562 4.46562 19.0725 4.45406C19.1391 4.63156 19.1909 4.85406 19.2281 5.12156C19.335 5.88703 19.3214 6.56813 19.148 7.32656C18.9583 8.15406 18.6667 8.95109 18.2733 9.71766C18.2697 9.72456 18.2679 9.73226 18.268 9.74004C18.2682 9.74782 18.2703 9.75544 18.2742 9.76219C19.2098 11.3789 19.3392 13.3078 18.4434 14.9733C18.3966 15.0605 18.3308 15.1539 18.2461 15.2536C18.3098 14.8561 18.3389 14.5284 18.3333 14.2706C18.3103 13.1864 17.8917 11.8167 16.9467 11.1553C16.1587 10.6036 15.7636 11.3798 15.1116 11.5763C14.8006 11.6697 14.505 11.6198 14.2247 11.4267C13.5933 10.9917 13.0059 10.6191 12.2766 10.6116C12.2606 10.6113 12.2506 10.6189 12.2466 10.6345C12.2394 10.6623 12.2473 10.6875 12.2705 10.71C12.0398 10.6897 11.8084 10.6938 11.5762 10.7222C11.5675 10.6384 11.5217 10.6034 11.4389 10.6172C11.2162 10.6552 11.0025 10.6917 10.7934 10.8075C10.4416 11.0025 10.148 11.1773 9.91265 11.332C9.57046 11.5575 9.33515 11.6695 8.95921 11.595C8.44593 11.4938 8.09109 10.913 7.53234 10.9706C7.10624 11.0147 6.69937 11.3958 6.46546 11.7375C5.82796 12.6694 5.51624 13.9758 5.73327 15.0712C5.74546 15.1325 5.75124 15.1964 5.75062 15.263C5.67655 15.1686 5.62062 15.0875 5.5828 15.0197C4.65937 13.3598 4.78405 11.3813 5.73327 9.76406C5.7414 9.75031 5.74187 9.73641 5.73468 9.72234C4.93499 8.18438 4.46905 6.47672 4.84124 4.74422C4.85968 4.74891 4.87577 4.74875 4.88952 4.74375C4.90077 4.73969 4.91015 4.72875 4.91765 4.71094C5.0428 4.41328 5.13468 4.11141 5.41734 3.94031C5.84671 3.68062 6.42234 4.22297 6.72468 4.51359C7.39812 5.16078 8.00827 5.90219 8.55515 6.73781C8.6803 6.92953 9.04874 6.68625 9.1964 6.615ZM7.80984 5.96203C7.49296 5.52938 6.41859 4.03219 5.7614 4.15219C5.29827 4.23656 5.16187 4.92 5.15624 5.30859C5.1403 6.39984 5.4703 8.025 6.22452 8.86688C6.23671 8.88063 6.24687 8.87938 6.25499 8.86313C6.71202 7.95797 7.50046 7.22016 8.37843 6.73219C8.38157 6.73038 8.38429 6.72792 8.38639 6.72497C8.3885 6.72203 8.38994 6.71868 8.39061 6.71515C8.39128 6.71162 8.39116 6.708 8.39027 6.70455C8.38938 6.70109 8.38774 6.69789 8.38546 6.69516C8.18765 6.45516 8.01421 6.24094 7.80984 5.96203ZM18.2123 4.14797C17.6723 4.095 16.9008 5.02219 16.5656 5.46844C16.26 5.87625 15.9489 6.28266 15.6323 6.68766C15.6288 6.6922 15.6262 6.69748 15.6249 6.7031C15.6236 6.70873 15.6235 6.71458 15.6246 6.72024C15.6258 6.72591 15.6282 6.73125 15.6316 6.7359C15.635 6.74056 15.6395 6.74441 15.6445 6.74719C16.553 7.24875 17.257 7.95266 17.7567 8.85891C17.7642 8.87266 17.773 8.87344 17.783 8.86125C18.4936 7.99781 18.8156 6.62813 18.8423 5.54016C18.8526 5.12109 18.7823 4.20422 18.2123 4.14797ZM10.3683 10.7733C9.76499 9.86859 8.39015 9.93 7.62374 10.5623C7.6078 10.5755 7.60999 10.58 7.6303 10.5759C7.67843 10.5669 7.72577 10.5566 7.77234 10.545C8.48952 10.3669 9.11577 10.2741 9.82733 10.5366C9.99468 10.598 10.1798 10.6987 10.3551 10.7878C10.3776 10.7991 10.382 10.7942 10.3683 10.7733ZM13.7747 10.6219C13.7219 10.6766 13.6728 10.7284 13.6275 10.7775C13.6251 10.7795 13.6235 10.7824 13.6232 10.7855C13.6229 10.7886 13.6239 10.7917 13.6259 10.7941C13.6278 10.7966 13.6307 10.7981 13.6338 10.7984C13.637 10.7987 13.6401 10.7978 13.6425 10.7958C14.5481 10.2464 15.3356 10.3167 16.3486 10.5708C16.378 10.5783 16.3812 10.572 16.3584 10.552C16.0078 10.2478 15.5147 10.0987 15.0605 10.0823C14.5686 10.0645 14.14 10.2444 13.7747 10.6219Z" fill="#FAA936"/>
<path d="M5.76141 4.15218C6.41859 4.03218 7.49297 5.52936 7.80984 5.96202C8.01422 6.24093 8.18766 6.45515 8.38547 6.69515C8.38775 6.69788 8.38939 6.70108 8.39028 6.70454C8.39117 6.70799 8.39128 6.71161 8.39061 6.71514C8.38994 6.71867 8.38851 6.72202 8.3864 6.72496C8.3843 6.72791 8.38158 6.73037 8.37844 6.73218C7.50047 7.22015 6.71203 7.95796 6.255 8.86312C6.24688 8.87937 6.23672 8.88062 6.22453 8.86687C5.47031 8.02499 5.14031 6.39983 5.15625 5.30858C5.16188 4.91999 5.29828 4.23655 5.76141 4.15218ZM5.51344 6.6253C5.58328 7.20468 5.82 7.9739 6.18188 8.50686C6.19469 8.52593 6.20703 8.52577 6.21891 8.5064C6.57938 7.92093 6.99656 7.52296 7.54172 7.03171L8.06672 6.66983C8.08047 6.66046 8.0825 6.64905 8.07281 6.63561C7.8225 6.29311 7.56734 5.95436 7.30734 5.61936C6.96703 5.18061 6.54844 4.67671 6.05953 4.39311C5.55609 4.10155 5.38406 4.86046 5.36484 5.18811C5.33484 5.69843 5.38438 6.17749 5.51344 6.6253Z" fill="#40120B"/>
<path d="M16.5656 5.46843C16.9008 5.02218 17.6723 4.09499 18.2123 4.14796C18.7823 4.20421 18.8527 5.12108 18.8423 5.54015C18.8156 6.62812 18.4936 7.9978 17.783 8.86124C17.773 8.87343 17.7642 8.87265 17.7567 8.8589C17.257 7.95265 16.553 7.24874 15.6445 6.74718C15.6395 6.7444 15.6351 6.74055 15.6316 6.73589C15.6282 6.73124 15.6258 6.7259 15.6247 6.72023C15.6235 6.71457 15.6236 6.70872 15.6249 6.70309C15.6262 6.69747 15.6288 6.6922 15.6323 6.68765C15.9489 6.28265 16.26 5.87624 16.5656 5.46843ZM16.4634 7.04108C16.98 7.49155 17.423 7.92562 17.7886 8.5139C17.7977 8.52827 17.8066 8.52812 17.8153 8.51343C18.1622 7.93827 18.5362 7.07858 18.4866 6.39796C18.4994 6.38483 18.5178 6.37624 18.5419 6.37218C18.5566 6.36968 18.5656 6.36108 18.5691 6.3464C18.6928 5.82077 18.6906 5.29858 18.5625 4.77983C18.2967 3.7003 17.2462 4.93218 16.98 5.26171C16.6169 5.71077 16.2664 6.17124 15.9286 6.64312C15.9192 6.65655 15.9212 6.66796 15.9347 6.67733L16.4634 7.04108Z" fill="#40120B"/>
<path d="M7.54175 7.03171C7.30784 6.60421 6.44159 4.87405 5.89409 5.16233C5.5369 5.3503 5.51018 6.26577 5.51347 6.6253C5.3844 6.17749 5.33487 5.69842 5.36487 5.18811C5.38409 4.86046 5.55612 4.10155 6.05956 4.39311C6.54847 4.67671 6.96706 5.18061 7.30737 5.61936C7.56737 5.95436 7.82253 6.29311 8.07284 6.63561C8.08253 6.64905 8.0805 6.66046 8.06675 6.66983L7.54175 7.03171Z" fill="#843112"/>
<path d="M18.4865 6.39797C18.4753 6.07407 18.4308 5.34375 18.112 5.16797C17.55 4.8586 16.6636 6.66141 16.4634 7.0411L15.9347 6.67735C15.9212 6.66797 15.9192 6.65657 15.9286 6.64313C16.2664 6.17125 16.6169 5.71079 16.98 5.26172C17.2462 4.93219 18.2967 3.70032 18.5625 4.77985C18.6906 5.2986 18.6928 5.82079 18.569 6.34641C18.5656 6.3611 18.5565 6.36969 18.5419 6.37219C18.5178 6.37625 18.4994 6.38485 18.4865 6.39797Z" fill="#843112"/>
<path d="M7.5417 7.03171C6.99654 7.52296 6.57935 7.92093 6.21889 8.5064C6.20701 8.52578 6.19467 8.52593 6.18185 8.50687C5.81998 7.9739 5.58326 7.20468 5.51342 6.62531C5.51014 6.26578 5.53685 5.35031 5.89404 5.16234C6.44154 4.87406 7.30779 6.60421 7.5417 7.03171Z" fill="#DB7526"/>
<path d="M18.4866 6.39797C18.5363 7.07859 18.1622 7.93828 17.8153 8.51344C17.8066 8.52812 17.7977 8.52828 17.7886 8.5139C17.423 7.92562 16.98 7.49156 16.4634 7.04109C16.6636 6.6614 17.55 4.85859 18.112 5.16797C18.4308 5.34375 18.4753 6.07406 18.4866 6.39797Z" fill="#DB7526"/>
<path d="M11.332 6.22266C11.573 6.24516 11.8139 6.33891 12.0563 6.31734C12.2416 6.30047 12.4234 6.27234 12.6019 6.23297C13.3847 6.18391 14.1222 6.31234 14.8144 6.61828C14.1875 6.84109 13.6633 7.20953 13.2417 7.72359C12.6488 8.44734 12.3413 9.16453 12.0103 10.0327C12.0031 10.0517 11.9959 10.0517 11.9888 10.0327C11.753 9.41437 11.5617 8.89406 11.1652 8.27625C10.6941 7.54125 10.0392 6.91125 9.19641 6.615C9.86954 6.32375 10.5814 6.19297 11.332 6.22266Z" fill="#DB7526"/>
<path d="M4.68704 8.31516C2.62313 12.465 4.34532 17.3813 8.46563 19.3875C8.57485 19.4344 8.6536 19.47 8.73985 19.56C9.00485 19.8388 9.30876 20.0744 9.65157 20.2669L8.90532 20.025C4.24641 18.1861 2.04516 12.8264 4.27032 8.22844L4.51641 7.74938C4.5236 7.73625 4.53188 7.73172 4.54126 7.73578C4.54657 7.73828 4.5511 7.74422 4.55485 7.7536C4.63954 7.96828 4.6836 8.15547 4.68704 8.31516Z" fill="#F9D64E"/>
<path d="M19.4742 7.73859C20.4576 9.50702 20.793 11.4039 20.4801 13.4292C20.277 14.603 19.8531 15.6889 19.2084 16.687C18.5853 17.6386 17.8069 18.4375 16.8731 19.0837C16.0969 19.6119 15.257 20.008 14.3536 20.272C14.3542 20.2686 14.355 20.2645 14.3559 20.2598C14.3565 20.2572 14.3577 20.2547 14.3593 20.2526C14.3609 20.2505 14.363 20.2488 14.3653 20.2476C14.6919 20.0801 14.9783 19.8619 15.2245 19.5928C15.3319 19.4756 15.4373 19.4236 15.5756 19.3678C17.2467 18.5367 18.5911 17.205 19.3884 15.5231C20.0237 14.1828 20.2759 12.7428 20.145 11.2031C20.1225 10.9397 20.0933 10.7453 20.0573 10.62C19.9823 10.0862 19.8458 9.57296 19.6476 9.08015L19.3758 8.44546C19.3387 8.38218 19.3064 8.33718 19.3223 8.25937C19.3592 8.07812 19.4098 7.90452 19.4742 7.73859Z" fill="#F9D64E"/>
<path d="M7.62373 10.5623C8.39014 9.93 9.76498 9.86859 10.3683 10.7733C10.382 10.7942 10.3776 10.7991 10.3551 10.7878C10.1798 10.6988 9.99467 10.598 9.82732 10.5366C9.11576 10.2741 8.48951 10.3669 7.77232 10.545C7.72576 10.5566 7.67842 10.5669 7.63029 10.5759C7.60998 10.58 7.60779 10.5755 7.62373 10.5623Z" fill="#40120B"/>
<path d="M13.7747 10.6219C14.14 10.2444 14.5686 10.0645 15.0605 10.0824C15.5147 10.0988 16.0078 10.2478 16.3584 10.552C16.3812 10.572 16.378 10.5783 16.3486 10.5708C15.3356 10.3167 14.5481 10.2464 13.6425 10.7958C13.6401 10.7978 13.637 10.7987 13.6338 10.7984C13.6307 10.7981 13.6278 10.7966 13.6259 10.7941C13.6239 10.7917 13.6229 10.7886 13.6232 10.7855C13.6235 10.7824 13.6251 10.7795 13.6275 10.7775C13.6728 10.7284 13.7219 10.6766 13.7747 10.6219Z" fill="#40120B"/>
<path d="M11.5763 10.7222C10.9913 10.7756 10.4372 11.0198 10.0852 11.4797C10.0833 11.482 10.0823 11.4849 10.0825 11.4879C10.0826 11.4909 10.0838 11.4937 10.0859 11.4958C10.088 11.498 10.0908 11.4993 10.0938 11.4995C10.0967 11.4997 10.0997 11.4988 10.102 11.497C10.4367 11.2576 10.8078 11.1061 11.2153 11.0423C12.0474 10.912 13.1255 10.9317 13.823 11.452C14.0042 11.5876 14.0178 11.5725 13.8638 11.4066C13.425 10.935 12.8944 10.7451 12.2705 10.71C12.2474 10.6875 12.2394 10.6623 12.2466 10.6345C12.2506 10.6189 12.2606 10.6112 12.2766 10.6116C13.0059 10.6191 13.5933 10.9917 14.2247 11.4267C14.505 11.6198 14.8006 11.6697 15.1116 11.5762C15.7636 11.3798 16.1588 10.6036 16.9467 11.1553C17.8917 11.8167 18.3103 13.1864 18.3333 14.2706C18.3389 14.5284 18.3099 14.8561 18.2461 15.2536C18.1264 15.4801 17.9828 15.6741 17.8153 15.8353C16.8656 16.7484 16.1555 17.7689 15.3652 18.8105C15.1167 19.1383 14.9116 19.3728 14.7497 19.5141C13.6711 20.4562 11.9222 20.5659 10.6172 20.2266C9.86563 20.0312 9.25688 19.625 8.79095 19.0078C7.95282 17.8987 7.1822 16.7916 6.17345 15.8231C6.04157 15.6966 5.90064 15.5098 5.75064 15.263C5.75126 15.1964 5.74548 15.1325 5.73329 15.0712C5.51626 13.9758 5.82798 12.6694 6.46548 11.7375C6.69938 11.3958 7.10626 11.0147 7.53235 10.9706C8.0911 10.913 8.44595 11.4937 8.95923 11.595C9.33517 11.6695 9.57048 11.5575 9.91267 11.332C10.148 11.1773 10.4416 11.0025 10.7934 10.8075C11.0025 10.6917 11.2163 10.6551 11.4389 10.6172C11.5217 10.6034 11.5675 10.6384 11.5763 10.7222ZM10.3467 11.79C10.2652 11.8059 10.1834 11.8137 10.1016 11.8134C9.44907 11.8111 8.62314 11.9522 8.12579 12.3581C7.22814 13.0908 7.4086 14.5162 8.03064 15.3717C8.6986 16.2909 9.71485 16.6861 10.3092 17.5697C10.4664 17.8034 10.6347 17.9903 10.8141 18.1303C11.6574 18.7875 12.8803 18.653 13.5258 17.7914C13.8502 17.3586 14.1809 17.0025 14.5181 16.7231C14.8884 16.4161 15.3431 16.0931 15.6305 15.7833C16.1236 15.2522 16.4949 14.5636 16.4967 13.8253C16.5009 12.1795 15.0136 11.7445 13.6711 11.82C13.5188 11.5355 13.2811 11.4234 12.9516 11.3644C12.3605 11.258 10.6833 11.1244 10.3467 11.79Z" fill="#FBE7C4"/>
<path d="M12.2705 10.71C12.8944 10.7451 13.425 10.935 13.8638 11.4066C14.0178 11.5725 14.0042 11.5876 13.823 11.452C13.1255 10.9317 12.0473 10.912 11.2153 11.0423C10.8078 11.1061 10.4367 11.2576 10.102 11.497C10.0997 11.4988 10.0967 11.4997 10.0937 11.4995C10.0908 11.4993 10.088 11.498 10.0859 11.4958C10.0838 11.4937 10.0826 11.4909 10.0825 11.4879C10.0823 11.4849 10.0833 11.482 10.0852 11.4797C10.4372 11.0198 10.9913 10.7756 11.5763 10.7222C11.8084 10.6937 12.0398 10.6897 12.2705 10.71Z" fill="#40120B"/>
<path d="M13.6711 11.82C13.7245 12.7711 13.0856 13.718 12.0895 13.8164C12.0733 13.818 12.0642 13.8269 12.0623 13.8431C12.0589 13.8763 12.0664 13.903 12.0848 13.9233C12.1501 14.208 12.3286 14.368 12.6201 14.4033C13.3526 14.4923 14.059 14.4577 14.7394 14.2992C15.0431 14.2284 15.5494 14.033 15.5301 13.6627L15.4978 13.3889C15.4973 13.3844 15.4983 13.3799 15.5007 13.3762C15.5032 13.3724 15.5069 13.3696 15.5112 13.3682C15.5154 13.3669 15.5201 13.3671 15.5242 13.3688C15.5284 13.3706 15.5318 13.3737 15.5339 13.3777C15.78 13.8277 15.8508 14.3405 15.5503 14.7773C15.412 14.9789 15.1486 15.1645 14.9437 15.3422C14.6653 15.5838 14.4231 15.8572 14.2172 16.1625C13.9922 16.4963 13.7812 16.9927 13.5192 17.2889C13.088 17.7759 12.3651 18.1205 11.7005 17.9845C11.0339 17.8481 10.5295 17.475 10.2023 16.8802C9.78936 16.1292 9.40545 15.5738 8.6742 15.0216C8.15248 14.6269 8.16607 13.8952 8.47311 13.3772C8.47526 13.3731 8.47884 13.37 8.48316 13.3684C8.48747 13.3668 8.49223 13.3668 8.49651 13.3685C8.5008 13.3702 8.50432 13.3734 8.5064 13.3775C8.50848 13.3816 8.50897 13.3863 8.50779 13.3908L8.46748 13.5713C8.40983 14.0147 8.89592 14.2116 9.24889 14.2959C9.97233 14.4697 10.703 14.5025 11.4408 14.3944C11.6976 14.3569 11.8575 14.2014 11.9203 13.928L11.9386 13.8488C11.943 13.83 11.9356 13.8197 11.9165 13.8178C11.429 13.765 11.038 13.5423 10.7433 13.1498C10.455 12.7659 10.2567 12.2677 10.3467 11.79C10.6833 11.1244 12.3604 11.258 12.9515 11.3644C13.2811 11.4234 13.5187 11.5355 13.6711 11.82ZM13.1119 11.805C13.1119 11.7488 12.9949 11.6949 12.7866 11.6552C12.5784 11.6155 12.2959 11.5931 12.0014 11.5931C11.7069 11.5931 11.4244 11.6155 11.2162 11.6552C11.0079 11.6949 10.8909 11.7488 10.8909 11.805C10.8909 11.8612 11.0079 11.9151 11.2162 11.9548C11.4244 11.9946 11.7069 12.0169 12.0014 12.0169C12.2959 12.0169 12.5784 11.9946 12.7866 11.9548C12.9949 11.9151 13.1119 11.8612 13.1119 11.805ZM10.1522 15.7613C10.2525 16.8525 11.1305 17.8533 12.3122 17.6217C13.1887 17.4497 13.7962 16.6434 13.8464 15.7538C13.8562 15.0352 13.2848 14.7492 12.6501 14.9114C12.1415 15.0417 12.0525 15.5541 12.0656 15.9905L12.0229 16.4241C12.023 16.4268 12.022 16.4294 12.0201 16.4314C12.0182 16.4334 12.0156 16.4346 12.0129 16.4346C12.0101 16.4347 12.0075 16.4336 12.0055 16.4318C12.0035 16.4299 12.0024 16.4273 12.0023 16.4245L11.939 15.96C11.9226 15.293 11.7037 14.8008 10.9303 14.8711C10.4231 14.917 10.14 15.247 10.1522 15.7613Z" fill="#40120B"/>
<path d="M13.1119 11.805C13.1119 11.8612 12.9949 11.9151 12.7866 11.9548C12.5784 11.9946 12.2959 12.0169 12.0014 12.0169C11.7069 12.0169 11.4244 11.9946 11.2162 11.9548C11.0079 11.9151 10.8909 11.8612 10.8909 11.805C10.8909 11.7488 11.0079 11.6949 11.2162 11.6552C11.4244 11.6155 11.7069 11.5931 12.0014 11.5931C12.2959 11.5931 12.5784 11.6155 12.7866 11.6552C12.9949 11.6949 13.1119 11.7488 13.1119 11.805Z" fill="#FBE7C4"/>
<path d="M10.3467 11.79C10.2567 12.2677 10.455 12.7659 10.7433 13.1499C11.038 13.5424 11.4291 13.765 11.9166 13.8178C11.9356 13.8197 11.943 13.83 11.9386 13.8488L11.9203 13.928C11.4656 14.34 10.598 14.2477 10.035 14.2233C9.59766 14.2045 8.53031 14.183 8.4675 13.5713L8.50781 13.3908C8.50899 13.3863 8.5085 13.3816 8.50642 13.3775C8.50434 13.3734 8.50082 13.3702 8.49653 13.3685C8.49225 13.3668 8.48749 13.3668 8.48318 13.3684C8.47886 13.37 8.47528 13.3731 8.47312 13.3772C8.16609 13.8952 8.1525 14.6269 8.67422 15.0216C9.40547 15.5738 9.78937 16.1292 10.2023 16.8802C10.5295 17.475 11.0339 17.8481 11.7005 17.9845C12.3652 18.1205 13.088 17.7759 13.5192 17.2889C13.7813 16.9927 13.9922 16.4963 14.2172 16.1625C14.4231 15.8572 14.6653 15.5838 14.9437 15.3422C15.1486 15.1645 15.412 14.9789 15.5503 14.7774C15.8508 14.3405 15.78 13.8277 15.5339 13.3777C15.5318 13.3737 15.5284 13.3706 15.5242 13.3688C15.5201 13.3671 15.5155 13.3669 15.5112 13.3683C15.5069 13.3696 15.5032 13.3724 15.5008 13.3762C15.4983 13.3799 15.4973 13.3845 15.4978 13.3889L15.5302 13.6627C15.3375 14.1483 14.5725 14.1938 14.1033 14.228C13.582 14.2655 12.9258 14.2913 12.4228 14.1309C12.3034 14.0928 12.1908 14.0236 12.0848 13.9233C12.0664 13.903 12.0589 13.8763 12.0623 13.8431C12.0642 13.8269 12.0733 13.818 12.0895 13.8164C13.0856 13.718 13.7245 12.7711 13.6711 11.82C15.0136 11.7445 16.5009 12.1795 16.4967 13.8253C16.4948 14.5636 16.1236 15.2522 15.6305 15.7833C15.3431 16.0931 14.8884 16.4161 14.5181 16.7231C14.1809 17.0025 13.8502 17.3586 13.5258 17.7914C12.8803 18.653 11.6573 18.7875 10.8141 18.1303C10.6347 17.9903 10.4664 17.8034 10.3092 17.5697C9.71484 16.6861 8.69859 16.2909 8.03063 15.3717C7.40859 14.5163 7.22813 13.0908 8.12578 12.3581C8.62313 11.9522 9.44906 11.8111 10.1016 11.8134C10.1834 11.8138 10.2652 11.8059 10.3467 11.79Z" fill="#FAA936"/>
<path d="M8.46752 13.5713C8.53033 14.183 9.59768 14.2045 10.035 14.2233C10.598 14.2477 11.4656 14.34 11.9203 13.928C11.8575 14.2014 11.6977 14.3569 11.4408 14.3944C10.703 14.5025 9.97236 14.4697 9.24893 14.2959C8.89596 14.2116 8.40986 14.0147 8.46752 13.5713Z" fill="#B06D26"/>
<path d="M15.5302 13.6627C15.5494 14.033 15.0431 14.2284 14.7394 14.2992C14.0591 14.4577 13.3527 14.4923 12.6202 14.4033C12.3286 14.368 12.1502 14.208 12.0848 13.9233C12.1908 14.0236 12.3034 14.0928 12.4228 14.1309C12.9258 14.2913 13.582 14.2655 14.1033 14.228C14.5725 14.1938 15.3375 14.1483 15.5302 13.6627Z" fill="#B06D26"/>
<path d="M11.939 15.96C11.8315 15.7116 11.6262 15.5391 11.3231 15.4425C10.8275 15.2847 10.4372 15.3909 10.1522 15.7613C10.14 15.247 10.4231 14.917 10.9303 14.8711C11.7037 14.8008 11.9226 15.293 11.939 15.96Z" fill="#B22235"/>
<path d="M13.8464 15.7537C13.3561 15.1458 12.3521 15.2822 12.0656 15.9905C12.0525 15.5541 12.1416 15.0417 12.6502 14.9114C13.2849 14.7492 13.8563 15.0351 13.8464 15.7537Z" fill="#B22235"/>
<path d="M11.939 15.96L12.0023 16.4245C12.0024 16.4273 12.0035 16.4299 12.0055 16.4317C12.0075 16.4336 12.0101 16.4347 12.0129 16.4346C12.0156 16.4345 12.0182 16.4334 12.0201 16.4314C12.022 16.4294 12.023 16.4268 12.0229 16.4241L12.0656 15.9905C12.352 15.2822 13.3561 15.1458 13.8464 15.7537C13.7962 16.6434 13.1887 17.4497 12.3122 17.6217C11.1304 17.8533 10.2525 16.8525 10.1522 15.7612C10.4372 15.3909 10.8275 15.2847 11.3231 15.4425C11.6262 15.5391 11.8315 15.7116 11.939 15.96Z" fill="#FF2D51"/>
</svg>
