<svg width="24" height="24" viewBox="0 0 24 24" fill="none" xmlns="http://www.w3.org/2000/svg">
<circle cx="12" cy="12" r="12" fill="#F0827D"/>
<path d="M23.5282 11.9601C23.5282 18.3199 18.3609 23.476 11.9873 23.476C5.61379 23.476 0.446472 18.3199 0.446472 11.9601C0.446472 5.60036 5.61379 0.444214 11.9873 0.444214C18.3609 0.444214 23.5282 5.60036 23.5282 11.9601Z" fill="black"/>
<path fill-rule="evenodd" clip-rule="evenodd" d="M11.9771 1.27705C6.06732 1.27705 1.27725 6.04975 1.27725 11.9373C1.27725 17.8237 6.0673 22.5964 11.9771 22.5964C17.8857 22.5964 22.6758 17.8237 22.6758 11.9373C22.6758 6.04973 17.8857 1.27705 11.9771 1.27705ZM0.87384 11.9373C0.87384 5.82685 5.8451 0.874512 11.9771 0.874512C18.1079 0.874512 23.0792 5.82687 23.0792 11.9373C23.0792 18.0466 18.1079 22.9989 11.9771 22.9989C5.84512 22.9989 0.87384 18.0466 0.87384 11.9373Z" fill="white"/>
<path d="M7.77377 16.9214V14.3648L6.66522 14.7091V13.3751L7.77377 13.0233V7.18622H9.87545L12.7432 11.4488L14.2538 10.9717V7.18622H16.2604V10.3338L17.4793 9.94907V11.3159L16.2604 11.702V16.9214H14.0928L11.5472 13.1751L9.78033 13.7333V16.9214H7.77377ZM9.78033 12.3917L10.795 12.0665L9.78033 10.573V12.3917ZM14.2538 13.6865V12.3322L13.4954 12.5651L14.2538 13.6865Z" fill="#F0827D"/>
</svg>
