<svg width="24" height="24" fill="none" xmlns="http://www.w3.org/2000/svg">
<circle cx="12" cy="12" r="12" fill="#050708"/>
<path d="M22.57 16.048V7.949a.862.862 0 0 0-.35-.713L12.57.184a.865.865 0 0 0-.696-.168 1.01 1.01 0 0 0-.405.194C8.275 2.545 5.08 4.88 1.886 7.213a.897.897 0 0 0-.385.741v8.096a.896.896 0 0 0 .388.74l9.58 7.002c.306.262.785.282 1.1.028 3.207-2.342 6.413-4.684 9.617-7.028a.87.87 0 0 0 .384-.744" fill="#fff"/>
<path d="m10.968 1.894-.044.054c-.021.143-.017.288-.012.433.002.065.004.13.003.196h.472v-.131l.003-.263h1.116c.022.258.014.517.007.775-.004.132-.008.264-.008.396l.028.113.008.034c.117.008.234.005.351.003l.102-.002a215.82 215.82 0 0 1 0-1.568 2.202 2.202 0 0 1-.064-.063.942.942 0 0 0-.166-.144 31.807 31.807 0 0 0-.966-.005h-.555c-.123-.016-.203.083-.275.172ZM10.175 2.583a8.164 8.164 0 0 0-.514.003 28.3 28.3 0 0 1-.002.785c-.005.461-.01.923.025 1.383.162 0 .326 0 .49-.003.006-.68.004-1.362.001-2.043v-.125ZM14.017 3.363c.456-.006.911-.005 1.367-.002.002.167.002.334 0 .5-.456.006-.912.007-1.368 0-.002-.166-.001-.333 0-.498ZM11.742 3.605c-.163 0-.327 0-.49.004.19.344.384.687.584 1.026h.036c.157-.001.315-.002.472-.009-.091-.227-.213-.439-.335-.65a8.86 8.86 0 0 1-.205-.37h-.062ZM13.13 4.211c.16-.004.318-.003.478 0 .193.298.383.599.573.9.238.374.476.75.718 1.122 0 .204 0 .408-.004.612l-.187-.033a37.11 37.11 0 0 1-.579-.9c-.164-.26-.328-.521-.498-.778a83.44 83.44 0 0 0-.002.936c0 .312 0 .624-.002.936a13.63 13.63 0 0 1-.499 0v-.25c-.002-.849-.004-1.697.002-2.545ZM15.616 4.59c-.169-.004-.34-.004-.508 0-.002.16-.001.321 0 .482.169.003.339.003.508-.002.002-.16.002-.32 0-.48ZM6.73 4.747c.134-.002.268-.002.402 0a8.59 8.59 0 0 1 1.07.003c.001.155 0 .31-.001.465-.221.133-.439.272-.656.41-.302.193-.604.386-.915.562a1.115 1.115 0 0 1-.322-.219 3.943 3.943 0 0 0-.085-.072c.14-.085.278-.172.416-.259.209-.131.418-.263.631-.388-.138-.007-.278-.008-.416-.008l-.122-.001a16.061 16.061 0 0 1-.001-.493ZM11.447 4.931a8.967 8.967 0 0 0-.492 0c-.004.165-.004.33 0 .494.163.004.328.004.492 0a9.655 9.655 0 0 0 0-.494ZM8.868 5.904l.001.003c.153.235.305.47.462.703.117-.176.232-.353.347-.53.146-.227.293-.452.443-.676l.003.24c.004.185.008.37-.008.555-.162.277-.34.544-.519.81-.09.135-.18.27-.268.406l-.27-.41-.001-.002a20.65 20.65 0 0 1-.504-.784c-.02-.192-.016-.385-.01-.579l.003-.227c.108.163.214.327.32.491ZM18.185 5.48c-.789-.004-1.577-.004-2.366 0v.481c.789.002 1.577.001 2.365 0v-.48ZM11.645 6.104c.159-.003.318-.003.477 0 .005.395.004.79.004 1.186v.913l-.218.213c-.313.004-.625.003-.937.003h-.702a2.367 2.367 0 0 1-.21-.21c-.02-.148-.016-.3-.012-.45a6.82 6.82 0 0 0 .003-.197h.458c.004.123.003.247.002.37.243.028.488.025.733.021.133-.001.266-.003.399 0V7.28c0-.392-.002-.784.003-1.175ZM19.268 6.587a83.728 83.728 0 0 0 0 1.585c.166.002.331.003.497 0 .005-.528.005-1.057 0-1.585a10.523 10.523 0 0 0-.497 0ZM16.914 6.986c.098 0 .197-.006.295-.012.214-.012.428-.023.64.011.105.34.202.682.298 1.024.092.326.184.652.283.975-.16.002-.32.002-.48.002-.07-.233-.133-.467-.198-.7v-.001c-.078-.284-.156-.568-.242-.85l-.264.004c-.07.283-.15.564-.23.844v.004c-.066.232-.132.464-.193.698h-.483c.152-.51.297-1.02.442-1.532l.132-.467ZM5.732 7.24c-.719-.007-1.438-.005-2.157 0-.003.164-.003.33-.001.495.72.004 1.439.006 2.159 0 .003-.166.003-.33-.001-.496ZM6.071 7.24c.163-.001.327-.002.49 0 .004.166.004.332 0 .498-.163.002-.327 0-.49 0a21.427 21.427 0 0 1 0-.497V7.24ZM8.36 7.261c-.16-.001-.322-.002-.482 0-.009.315-.007.632-.005.947l.001.207c.162.002.325.001.488 0v-.289c0-.288.001-.577-.002-.865ZM20.876 7.602h.123c.057.105.118.208.178.312.134.23.27.46.363.71-.164.005-.33.006-.494.007h-.011c-.087-.149-.172-.298-.257-.448a32.3 32.3 0 0 0-.333-.578c.143-.003.287-.003.431-.003ZM13.649 8.016a32 32 0 0 0-.48 0c-.002.404-.002.808-.002 1.212v.37l.483-.002v-.461c0-.373.001-.746-.001-1.119ZM14.857 8.656c-.002-.164-.002-.33 0-.495.161-.002.324-.002.486.002v.124c0 .123 0 .247-.002.37h-.484ZM6.479 8.88c-.255.163-.51.327-.755.506.225.16.458.311.69.462.165.106.328.212.49.321h.256c.185 0 .37.001.555-.002a62.947 62.947 0 0 1-.52-.338c-.227-.147-.453-.295-.682-.44.186-.13.378-.253.57-.376.212-.137.424-.273.63-.42a31.482 31.482 0 0 0-.414-.002c-.125 0-.25 0-.375-.002-.147.099-.296.195-.445.29ZM19.27 8.927a10.6 10.6 0 0 1 .497 0c.004.166.004.33-.001.497-.165.003-.331.003-.496 0-.004-.166-.004-.33 0-.496v-.001ZM4.732 8.996c-.83-.008-1.659-.006-2.487-.001-.002.166-.003.332 0 .498.309.003.618.003.926.002h.634c-.15.106-.307.203-.463.3v.001l-.15.093c.044.03.085.064.126.099.092.075.184.15.295.19.363-.214.717-.446 1.071-.678l.05-.033V9.35c0-.118 0-.236-.002-.353ZM9.335 9.475h.906c.415 0 .83 0 1.245.003a2.05 2.05 0 0 1-.007.49c-.46.002-.919.002-1.378.002h-.765v-.495ZM12.471 9.48a9.28 9.28 0 0 0-.517-.002 23.15 23.15 0 0 0 0 .486c.172.003.344.003.516-.002.001-.16.002-.32.001-.481ZM14.21 10.172c-.016-.121.067-.2.148-.277.034-.032.067-.063.093-.097h.115c.172 0 .344 0 .517.003.005.158.005.317.002.476l-.228.003-.172.001v1.13h.857c.333 0 .667 0 1 .003.002.16.002.32-.002.48-.418.003-.836.003-1.255.002h-.837c-.026-.033-.058-.064-.09-.095-.081-.078-.163-.157-.148-.277-.003-.45-.004-.901 0-1.352ZM16.557 10.021c.17-.006.343-.006.514 0v.49a7.318 7.318 0 0 1-.514 0 22.25 22.25 0 0 1 0-.49ZM19.685 10.017h.666v.5l-.618.002c-.515 0-1.03.002-1.545-.004-.002-.165-.002-.33 0-.494.499-.006.997-.005 1.495-.004h.002ZM8.802 10.597h-.606c-.007.168-.006.335.001.504h1.21c.004-.169.004-.337 0-.505h-.605ZM10.861 10.597h.761l1.142-.001c.23-.036.46.203.432.43-.002.466-.002.933 0 1.4l-.192.205-.053.056c-.21 0-.42 0-.63-.002-.002-.16-.002-.32 0-.48l.197-.002.197-.002V11.1c-.38-.034-.763-.03-1.146-.025a18.55 18.55 0 0 1-.708 0 25.32 25.32 0 0 1 0-.478ZM6.392 10.745c-.164.562-.325 1.125-.485 1.688l-.092.32c.16.002.32.002.48.002.056-.226.12-.451.185-.676.081-.286.163-.572.229-.862l.265-.019c.087.275.163.553.239.83.066.244.133.487.207.728l.467-.001c-.113-.428-.235-.853-.358-1.277v-.002c-.07-.243-.14-.487-.208-.73-.31-.005-.62-.003-.93-.001ZM19.909 11.35h.01c.537-.006 1.074-.011 1.61.002.136.084.29.22.26.399v.385c-.001.256-.002.512 0 .768-.002.09-.002.18 0 .271 0 .095.001.189-.002.283.004.075-.004.15-.012.225-.008.075-.016.15-.012.225l-.461-.001V12.77l.001-.946a23.18 23.18 0 0 0-.707-.005h-.424v.095c0 .097-.001.195-.003.292-.158.003-.317.003-.476.003-.002-.2-.002-.4-.002-.6v-.038c.074-.073.146-.147.218-.222ZM5.043 11.37h-.501l-.001.658c0 .307 0 .614-.002.921h.504v-1.58ZM2.968 11.81c.164-.003.329.002.493.013.002.156.002.313 0 .469-.166.002-.332.002-.497 0-.002-.161-.002-.322.004-.482ZM8.861 11.902c-.004.932-.003 1.864 0 2.796.166.004.332.004.498.003.008-.24.005-.48.002-.721-.004-.382-.009-.763.029-1.143.222.376.459.743.695 1.11.122.19.244.38.364.57l.17-.002c-.01-.082-.005-.168 0-.254.01-.181.02-.363-.095-.511l-.286-.448-.006-.01c-.296-.461-.592-.923-.88-1.389a13.352 13.352 0 0 0-.49 0ZM11.04 12.26c.167-.003.333-.003.5 0 .002.407.002.814 0 1.221-.167.003-.334.003-.5-.001a78.675 78.675 0 0 1 0-1.22ZM14.547 12.805a26.646 26.646 0 0 0-.49 0v.498h.49c.003-.166.003-.332 0-.498ZM16.877 12.824l.29.001c.02.148.033.3.019.45-.036.071-.108.069-.178.066-.025 0-.049-.001-.071.001a10.956 10.956 0 0 0-.476 0c-.274.003-.547.007-.818-.024a9.564 9.564 0 0 1 .002-.491c.41-.005.821-.004 1.232-.003ZM17.784 12.895l-.093.002a90.885 90.885 0 0 0 0 1.732c.165.003.33.003.495 0l.003-.34c.003-.46.007-.92-.006-1.38a2.227 2.227 0 0 0-.399-.014ZM13.169 13.236h.48c.001.165.002.33 0 .496a16 16 0 0 1-.48 0c-.002-.165-.002-.33 0-.496ZM6.544 13.559a8.883 8.883 0 0 0-1.07.03c0 .162-.001.323.003.486.462.004.924.003 1.386.002h.771c.002-.166.003-.333 0-.5a3.833 3.833 0 0 0-.441-.02c-.216.007-.433.004-.65.002ZM2.246 13.956l.054-.053.181-.176c.208-.001.417-.002.624.002.003.158.003.316.001.473a21.46 21.46 0 0 1-.31.004h-.077v.505c0 .207 0 .414.003.621h.682c.385 0 .771-.001 1.157.003.003.155.003.31.001.464a115.704 115.704 0 0 1-1.104.002c-.328.001-.656.003-.984-.007a.532.532 0 0 1-.223-.232 31.942 31.942 0 0 1-.006-1.016 55.18 55.18 0 0 0 0-.59ZM15.211 14.04c-.084.075-.166.151-.248.228v.057c-.002.199-.002.397.003.596.158 0 .317 0 .477-.002.002-.135.003-.269.002-.403h1.114c-.004.316-.003.63-.002.945v.378c.161.005.323.006.484.005V14.27l-.163-.155-.077-.074h-.662c-.31 0-.619 0-.928-.002ZM19.911 14.209l.23-.145c.142.094.28.194.419.293l-1.28.814c.354.004.707.003 1.06.003h.82c.002.167.002.334 0 .5-.93.003-1.861.003-2.792 0-.002-.16-.002-.32-.001-.48.511-.333 1.026-.658 1.542-.984l.002-.001ZM11.711 15.29c.295-.197.595-.387.895-.576.3-.189.6-.378.894-.575l.102.071c.106.074.212.147.32.217a16.67 16.67 0 0 1-.733.478c-.175.11-.351.22-.524.336.334.006.668.005 1.002.004.289 0 .577-.001.866.002.004.172.004.343 0 .515-.665.003-1.331.003-1.997.002h-.799c-.023-.15-.024-.303-.025-.455v-.02ZM5.586 14.866l.109.166c.223.34.446.681.666 1.023.144-.205.28-.416.415-.627.124-.192.248-.384.378-.571.003.158.003.316.002.474l.001.327c-.116.17-.229.344-.34.518-.15.23-.299.46-.457.683a68.483 68.483 0 0 1-.227-.349c-.18-.278-.36-.557-.55-.83v-.007c-.003-.27-.005-.539.003-.807ZM8.428 15.374c-.01.169-.01.338-.003.508.164.002.329 0 .492 0 .004-.166.004-.331 0-.496a5.335 5.335 0 0 0-.49-.012ZM10.732 16.126c.165-.002.33-.002.496 0 .002.345.002.69.002 1.034v.813c-.117.004-.235.01-.352.02l-.125-.022-.025-.005c.002-.268.001-.536 0-.804 0-.345 0-.69.004-1.036ZM14.739 16.51c-.196-.001-.392-.001-.589.002-.18.67-.375 1.338-.57 2.005.16.002.32.002.48.002l.432-1.55.058.003.203.01c.061.226.124.451.188.676.08.285.16.57.236.857.16.003.322.003.482.003l-.574-2.01-.346.001ZM7.085 17.622l.232-.149c.516-.332 1.032-.664 1.556-.984l.146.101c.09.063.18.125.27.19-.171.107-.34.215-.51.324-.258.165-.516.33-.779.487.334.007.668.006 1.003.005.296-.001.593-.002.89.003.003.165.004.331 0 .497H9.64c-.85.004-1.702.006-2.554-.002a11.468 11.468 0 0 1-.002-.472ZM12.508 16.579a3.643 3.643 0 0 1-.52.031c.197.34.39.68.582 1.023a98.501 98.501 0 0 1 .488-.002c-.085-.311-.26-.59-.432-.863-.04-.063-.08-.126-.117-.19ZM18.861 16.816c.17-.006.34-.006.511-.002v.489c-.17.004-.34.004-.51-.003a13.02 13.02 0 0 1 0-.485ZM17.937 17.607c-.111.17-.222.339-.329.51l-.033.05c-.033.05-.066.102-.122.126a26.955 26.955 0 0 1-.455-.69c-.106-.164-.213-.328-.321-.491-.006.236-.005.473-.004.71v.095l.298.454c.165.254.33.507.5.758l.247-.378a43.24 43.24 0 0 1 .455-.693c.038-.057.076-.116.072-.186.006-.246.002-.492-.004-.737-.1.159-.202.315-.304.472ZM6.046 17.636l.208.001.002.099c.003.129.006.258-.01.387-.404.02-.81.012-1.214.004l-.088-.001a26.03 26.03 0 0 1 0-.484c.367-.013.735-.01 1.102-.006ZM11.454 18.692c-.397 0-.794-.002-1.191.004h-.001c-.002.157-.002.313 0 .47.388.009.777.008 1.165.006h.694v1.123h-.096c-.095 0-.19 0-.286.01-.026.105-.023.214-.02.323v.13c.225.007.449.006.672.001.069-.075.138-.149.209-.222v-.202c-.001-.468-.002-.935 0-1.402l-.24-.242c-.302.002-.604.002-.906.001ZM6.902 18.874c.164-.002.327-.002.491.002.003.163.003.326 0 .49-.164.003-.328.003-.491.001a18.09 18.09 0 0 1 0-.493ZM15.928 19.22c-.117-.093-.24-.192-.37-.081-.23.15-.464.297-.697.443-.325.205-.65.41-.967.627.001.153.003.308.013.463.51.004 1.02.006 1.529-.002.002-.163.002-.327 0-.49-.125-.003-.25-.005-.374-.005l-.235.002c.267-.185.543-.358.819-.532.141-.088.283-.177.423-.268v-.058c-.046-.023-.093-.06-.14-.099ZM7.822 19.593l.189-.001c.598-.002 1.197-.005 1.795.002.002.163.002.326 0 .49a93.04 93.04 0 0 1-1.814.003l-.171-.001c-.003-.165-.002-.33 0-.493ZM10.144 20.85a19.303 19.303 0 0 0-.56-.001l.223.39c.121.215.243.43.37.643h.059c.147-.002.294-.003.442-.01-.084-.229-.206-.439-.327-.649-.072-.123-.144-.246-.207-.373ZM12.888 21.37c.163 0 .325.002.488.012.003.163.001.326-.02.489h-.464a10.076 10.076 0 0 1-.004-.5ZM11.752 22.682l.001.308c.166.002.332.003.498 0 .002-.372.002-.745 0-1.117a5.429 5.429 0 0 0-.492-.024c-.01.278-.009.555-.007.833Z" fill="#050708"/>
</svg>
