<svg width="24" height="24" viewBox="0 0 24 24" fill="none" xmlns="http://www.w3.org/2000/svg">
<circle cx="12" cy="12" r="12" fill="#172852"/>
<path d="M10.3316 16.3333C10.7816 17.9983 12.3962 19.2682 13.2116 19.2158C13.2402 19.214 16.3043 18.6427 17.9816 15.8408C19.2866 13.6598 18.8425 11.5543 17.067 11.5084C16.4285 11.555 9.47438 13.1617 10.3319 16.3337L10.3316 16.3333ZM16.9016 5.63994L16.8998 5.63837L16.9023 5.63702C15.7841 4.6858 14.4199 4.06988 12.9669 3.86021C11.514 3.65054 10.0313 3.85566 8.68981 4.45194C8.52007 4.5225 8.35477 4.60327 8.19481 4.69382C8.08546 4.75187 7.97611 4.80992 7.86991 4.87382L7.89578 4.88169C7.58177 5.09552 7.30412 5.35837 7.07341 5.66019C4.83871 8.61399 12.3344 10.7614 16.3425 10.7684C18.1855 12.092 18.703 7.04237 16.9016 5.63994Z" fill="#0E3CA5"/>
<path d="M9.14249 5.7C8.11267 7.24755 4.68254 8.33813 4.11847 8.16825L4.11464 8.16105C4.13789 8.11455 4.16137 8.0682 4.18507 8.022C4.76994 6.89524 5.6069 5.91861 6.63082 5.1681C6.84187 5.0136 7.06042 4.869 7.28647 4.7343C7.63401 4.54241 8.0233 4.43866 8.42024 4.43213C9.94777 4.46138 9.15014 5.68763 9.14204 5.7H9.14249ZM8.29762 16.6375C8.37142 17.1239 8.29559 19.045 8.19614 19.2068C8.11042 19.2119 7.93199 19.2227 7.41517 18.9329C5.76485 17.9913 4.49163 16.5071 3.81198 14.7327C3.13233 12.9583 3.08822 11.0033 3.68714 9.2001C3.71459 9.11745 3.74332 9.03548 3.77332 8.95418C4.36529 9.74168 5.05042 10.4538 5.63272 11.2492C6.18734 12.0065 6.95032 13.2409 7.10557 13.5046C8.06947 15.1421 8.22314 16.1524 8.29807 16.6377L8.29762 16.6375ZM19.6925 11.7957C19.6938 12.8283 19.4999 13.8519 19.121 14.8125C18.1535 15.8522 11.6321 13.2931 11.5682 13.2652C10.6761 12.8739 7.96124 11.685 7.71622 9.81615C7.36499 7.12853 12.817 5.25563 15.2132 5.18453C15.5005 5.1879 16.3749 5.19803 16.8845 5.61203C17.7675 6.38207 18.475 7.33251 18.9594 8.39923C19.4438 9.46595 19.6938 10.6242 19.6925 11.7957ZM15.278 19.0796C14.567 19.4115 13.7842 19.1696 13.9876 18.4773C14.378 17.148 17.787 15.785 18.5398 15.7109C18.6328 15.7019 18.6724 15.7652 18.631 15.8372C17.8466 17.2164 16.6831 18.3417 15.2785 19.0796" fill="#5493F7"/>
<path d="M6.90037 20.3821C6.89021 20.5323 6.93941 20.6804 7.03738 20.7946C7.13535 20.9088 7.27425 20.98 7.42417 20.9928C14.3317 21.04 21 20.7228 21 19.6878C21 16.5547 6.90037 20.3821 6.90037 20.3821Z" fill="url(#paint0_linear_927_5662)"/>
<path d="M12.0967 19.1901L13.3921 20.4857C17.6819 19.9049 20.8918 19.0628 20.8918 19.7175C20.8918 20.6726 14.3278 21 7.4271 20.9537C7.40868 20.9536 7.39027 20.9526 7.37197 20.9505C7.28175 20.9386 7.19614 20.9036 7.12341 20.8489C7.05069 20.7941 6.99332 20.7216 6.95685 20.6382V20.6366C6.94437 20.6099 6.93399 20.5822 6.9258 20.5538C6.93409 20.5822 6.94447 20.6098 6.95685 20.6366V20.6382C6.99722 20.7296 7.06288 20.8075 7.14609 20.8627C7.22929 20.918 7.32656 20.9483 7.42642 20.9501C8.57235 20.9431 9.7086 20.8783 10.8075 20.78L9.71985 19.6919C8.06295 20.0674 6.90037 20.3828 6.90037 20.3828C6.89012 20.5334 6.93965 20.682 7.03821 20.7963C7.13677 20.9106 7.27642 20.9815 7.42687 20.9935C14.3326 21.0459 20.9917 20.829 21 19.6885C21 17.8439 16.1159 18.4125 12.0967 19.1901Z" fill="url(#paint1_linear_927_5662)"/>
<path d="M13.3921 20.4857L12.0967 19.1901C11.2476 19.3546 10.4374 19.5276 9.71985 19.6912L10.8075 20.7793C11.6992 20.6992 12.5654 20.5973 13.3921 20.4857Z" fill="url(#paint2_linear_927_5662)"/>
<path d="M11.4868 19.3112C11.0757 19.3946 10.6779 19.479 10.2992 19.562L11.4539 20.717C11.8922 20.672 12.3226 20.6228 12.7452 20.5696L11.4868 19.3112Z" fill="url(#paint3_linear_927_5662)"/>
<path d="M7.42755 11.5097C7.3583 11.5097 7.28973 11.5234 7.22576 11.5499C7.16178 11.5764 7.10366 11.6153 7.0547 11.6642C7.00575 11.7132 6.96692 11.7714 6.94044 11.8353C6.91396 11.8993 6.90035 11.9679 6.90038 12.0372V20.3822C6.90014 20.5215 6.95512 20.6553 7.05328 20.7543C7.15145 20.8532 7.28481 20.9092 7.42418 20.91C14.3314 20.8583 21.0083 18.5721 21 19.6881V10.2882C21.0083 9.17222 14.3337 11.458 7.42755 11.5097Z" fill="url(#paint4_linear_927_5662)"/>
<path d="M21 13.7147C21 13.5122 20.7842 13.4364 20.5138 13.4108C20.221 13.3928 19.9271 13.4029 19.6363 13.4409C19.3568 13.4715 19.1518 13.5026 18.9442 13.5329C18.7365 13.5633 18.5347 13.595 18.3367 13.6274C18.1387 13.6598 17.9427 13.6925 17.7494 13.7262C17.5561 13.76 17.3647 13.7937 17.173 13.8277C16.9813 13.8617 16.7889 13.8952 16.5949 13.9276L16.0057 14.0291C15.8065 14.0633 15.6056 14.0981 15.3982 14.1328C15.1907 14.1674 14.9763 14.2003 14.7547 14.2358C14.5331 14.2714 14.3047 14.3054 14.0673 14.3423C13.8299 14.3792 13.5874 14.4154 13.3302 14.4509V11.0231C12.5058 11.1401 11.6427 11.2467 10.7587 11.3306V14.7486C10.5015 14.7725 10.2659 14.7936 10.0447 14.8109C9.82357 14.8283 9.61725 14.8433 9.41587 14.8559C9.2145 14.8685 9.02258 14.8784 8.82953 14.8877C8.63648 14.8969 8.44455 14.9041 8.24453 14.9102C8.0445 14.9162 7.83728 14.9234 7.61453 14.9277C7.39178 14.932 7.15665 14.9354 6.89948 14.9351V17.4997C7.15643 17.4997 7.39245 17.4965 7.61408 17.4923C7.8357 17.488 8.04315 17.4817 8.24407 17.4747C8.445 17.4677 8.63625 17.4601 8.82907 17.4522C9.0219 17.4443 9.21517 17.4331 9.4152 17.4203C9.61522 17.4074 9.8229 17.393 10.0452 17.3753C10.2675 17.3575 10.5015 17.3368 10.7591 17.3129V20.73C11.6436 20.6463 12.5056 20.5397 13.3297 20.4227V17.0148C13.5759 16.9805 13.8219 16.9443 14.0675 16.9061L14.7542 16.7997C14.9756 16.7654 15.1901 16.731 15.3977 16.6967C15.6056 16.6622 15.807 16.6267 16.0052 16.5927L16.5943 16.4915C16.788 16.4579 16.9801 16.4253 17.1723 16.3916L17.7487 16.2901C17.9427 16.2561 18.1373 16.2226 18.336 16.1913C18.5347 16.16 18.7369 16.1274 18.9435 16.0968C19.15 16.0662 19.3559 16.0354 19.6354 16.005C19.9262 15.9669 20.2201 15.9568 20.5129 15.9746C20.7829 16.0003 20.9991 16.0772 20.9991 16.2786V13.7147H21Z" fill="url(#paint5_linear_927_5662)"/>
<path d="M21 14.3557C21 14.1544 20.7836 14.0776 20.5113 14.0518C20.2163 14.0341 19.9203 14.0446 19.6273 14.0833C19.3456 14.1143 19.1404 14.1456 18.9298 14.1764C18.7192 14.2072 18.5149 14.2392 18.3137 14.272C18.1126 14.3049 17.9157 14.3382 17.7206 14.3722C17.5256 14.4061 17.333 14.441 17.1408 14.4741C16.9487 14.5072 16.757 14.5416 16.5644 14.5742C16.3718 14.6068 16.1785 14.6401 15.9832 14.6739C15.7879 14.7076 15.5912 14.7414 15.3899 14.7751C15.1885 14.8089 14.9828 14.8408 14.7713 14.8744C14.5598 14.9079 14.3427 14.9419 14.1188 14.9754C13.895 15.0089 13.6688 15.0445 13.4294 15.078C13.19 15.1115 12.9432 15.1441 12.6856 15.177V11.111C12.2655 11.1664 11.8367 11.2183 11.4015 11.2654V15.3264C10.947 15.3734 10.492 15.4156 10.0367 15.4528C9.64506 15.484 9.25298 15.5088 8.86058 15.5271C8.66618 15.5363 8.46998 15.544 8.26545 15.5509C8.06093 15.5579 7.84808 15.5649 7.62195 15.5692C7.39583 15.5734 7.15688 15.5768 6.8997 15.577V16.8595C7.15665 16.8595 7.39605 16.8564 7.62173 16.8517C7.8474 16.8469 8.06048 16.8406 8.26523 16.8334C8.65733 16.82 9.04924 16.8014 9.44085 16.7776C9.63525 16.7655 9.83213 16.7513 10.0367 16.7351C10.2412 16.7189 10.4534 16.7002 10.6793 16.6795C10.9052 16.6588 11.1441 16.6345 11.4015 16.6089V20.6647C11.8365 20.6176 12.2645 20.5663 12.6854 20.5106V16.4584C12.9428 16.4261 13.1906 16.3932 13.429 16.3596C13.6675 16.3258 13.8956 16.2921 14.1188 16.2568C14.342 16.2214 14.5589 16.1893 14.7713 16.156C14.9837 16.1227 15.1887 16.0898 15.3899 16.0567C15.591 16.0237 15.7879 15.9892 15.9834 15.9555L16.5648 15.8558C16.7574 15.8225 16.9491 15.7897 17.1413 15.7559L17.7211 15.654C18.1233 15.5835 18.5264 15.5182 18.9302 15.458C19.1402 15.427 19.346 15.3957 19.6277 15.3649C19.9207 15.3261 20.2168 15.3156 20.5118 15.3334C20.784 15.359 21.0005 15.4362 21.0005 15.6371V14.3557H21Z" fill="url(#paint6_linear_927_5662)"/>
<defs>
<linearGradient id="paint0_linear_927_5662" x1="6.90037" y1="19.7263" x2="21" y2="19.7263" gradientUnits="userSpaceOnUse">
<stop stop-color="#700000"/>
<stop offset="0.327" stop-color="#730000"/>
<stop offset="0.59" stop-color="#7D0000"/>
<stop offset="0.83" stop-color="#8E0000"/>
<stop offset="1" stop-color="#9F0000"/>
</linearGradient>
<linearGradient id="paint1_linear_927_5662" x1="13.9501" y1="18.4553" x2="13.9501" y2="21" gradientUnits="userSpaceOnUse">
<stop offset="0.35" stop-color="#CF2000"/>
<stop offset="0.645" stop-color="#CD1F00"/>
<stop offset="0.752" stop-color="#C61D00"/>
<stop offset="0.828" stop-color="#BB1900"/>
<stop offset="0.889" stop-color="#AA1300"/>
<stop offset="0.941" stop-color="#940C00"/>
<stop offset="0.987" stop-color="#790300"/>
<stop offset="1" stop-color="#700000"/>
</linearGradient>
<linearGradient id="paint2_linear_927_5662" x1="11.5558" y1="18.4553" x2="11.5558" y2="21" gradientUnits="userSpaceOnUse">
<stop offset="0.35" stop-color="#DFDFDF"/>
<stop offset="0.645" stop-color="#DDDDDD"/>
<stop offset="0.752" stop-color="#D6D6D6"/>
<stop offset="0.828" stop-color="#CBCBCB"/>
<stop offset="0.889" stop-color="#BABABA"/>
<stop offset="0.941" stop-color="#A4A4A4"/>
<stop offset="0.987" stop-color="#898989"/>
<stop offset="1" stop-color="#808080"/>
</linearGradient>
<linearGradient id="paint3_linear_927_5662" x1="11.5223" y1="18.455" x2="11.5223" y2="21" gradientUnits="userSpaceOnUse">
<stop offset="0.35" stop-color="#10208F"/>
<stop offset="0.645" stop-color="#101F8D"/>
<stop offset="0.752" stop-color="#0F1D86"/>
<stop offset="0.828" stop-color="#0D197B"/>
<stop offset="0.889" stop-color="#0A136A"/>
<stop offset="0.941" stop-color="#060C54"/>
<stop offset="0.987" stop-color="#020339"/>
<stop offset="1" stop-color="#000030"/>
</linearGradient>
<linearGradient id="paint4_linear_927_5662" x1="6.90038" y1="15.4455" x2="21" y2="15.4455" gradientUnits="userSpaceOnUse">
<stop stop-color="#CF2000"/>
<stop offset="0.021" stop-color="#D12201"/>
<stop offset="0.244" stop-color="#E23309"/>
<stop offset="0.487" stop-color="#EC3D0E"/>
<stop offset="0.791" stop-color="#EF4010"/>
<stop offset="0.841" stop-color="#EC3D0F"/>
<stop offset="0.882" stop-color="#E2330D"/>
<stop offset="0.919" stop-color="#D12208"/>
<stop offset="0.954" stop-color="#B90A03"/>
<stop offset="0.966" stop-color="#AF0000"/>
<stop offset="1" stop-color="#EF4010"/>
</linearGradient>
<linearGradient id="paint5_linear_927_5662" x1="6.90038" y1="15.8765" x2="21" y2="15.8765" gradientUnits="userSpaceOnUse">
<stop stop-color="#DFDFDF"/>
<stop offset="0.021" stop-color="#E1E1E1"/>
<stop offset="0.244" stop-color="#F2F2F2"/>
<stop offset="0.487" stop-color="#FCFCFC"/>
<stop offset="0.791" stop-color="white"/>
<stop offset="0.841" stop-color="#FCFCFC"/>
<stop offset="0.882" stop-color="#F2F2F2"/>
<stop offset="0.919" stop-color="#E1E1E1"/>
<stop offset="0.954" stop-color="#C9C9C9"/>
<stop offset="0.966" stop-color="#BFBFBF"/>
<stop offset="1" stop-color="white"/>
</linearGradient>
<linearGradient id="paint6_linear_927_5662" x1="6.90038" y1="15.888" x2="21" y2="15.888" gradientUnits="userSpaceOnUse">
<stop stop-color="#00209F"/>
<stop offset="0.021" stop-color="#0222A1"/>
<stop offset="0.244" stop-color="#1333B2"/>
<stop offset="0.487" stop-color="#1D3DBC"/>
<stop offset="0.791" stop-color="#2040BF"/>
<stop offset="0.841" stop-color="#1E3DBC"/>
<stop offset="0.882" stop-color="#1933B2"/>
<stop offset="0.919" stop-color="#1122A1"/>
<stop offset="0.954" stop-color="#050A89"/>
<stop offset="0.966" stop-color="#00007F"/>
<stop offset="1" stop-color="#2040BF"/>
</linearGradient>
</defs>
</svg>
