<svg width="24" height="24" viewBox="0 0 24 24" fill="none" xmlns="http://www.w3.org/2000/svg">
<circle cx="12" cy="12" r="12" fill="white"/>
<path d="M7.43605 17.5639H19.6065C16.2491 17.5639 13.5213 16.2 13.5213 14.5213C13.5213 16.2 10.7934 17.5639 7.43605 17.5639ZM19.6065 17.5639L13.5213 5.39349L7.43605 17.5639" fill="#8DCFA8"/>
<path fill-rule="evenodd" clip-rule="evenodd" d="M13.5213 5C13.6703 5 13.8065 5.0842 13.8732 5.21749L19.9549 17.3808C19.9701 17.4098 19.9818 17.4408 19.9895 17.4735C20.0005 17.5198 20.0027 17.567 19.9969 17.6129C19.9825 17.7289 19.9176 17.8292 19.8249 17.8912C19.7864 17.9169 19.7432 17.936 19.6969 17.9469C19.6643 17.9546 19.6313 17.958 19.5986 17.9573H7.44398C7.41131 17.958 7.3783 17.9546 7.3457 17.9469C7.24277 17.9227 7.15542 17.8581 7.10132 17.7707C7.07225 17.7238 7.05279 17.6703 7.04566 17.6129C7.03985 17.567 7.04208 17.5198 7.05307 17.4734C7.06074 17.4408 7.07247 17.4098 7.0877 17.3808L13.1694 5.21749C13.236 5.0842 13.3723 5 13.5213 5ZM7.43607 17.9573C7.43875 17.9573 7.44142 17.9573 7.4441 17.9573L7.43607 17.9573ZM11.6008 17.1704C11.7081 17.1234 11.8124 17.0746 11.9136 17.024C12.5879 16.6868 13.163 16.2485 13.5213 15.7264C13.8796 16.2485 14.4547 16.6868 15.1289 17.024C15.2301 17.0746 15.3345 17.1234 15.4418 17.1704H11.6008ZM18.9611 17.1529C17.5926 17.0781 16.3784 16.7689 15.4808 16.3202C14.4207 15.7901 13.9147 15.131 13.9147 14.5213C13.9147 14.304 13.7386 14.1278 13.5213 14.1278C13.304 14.1278 13.1278 14.304 13.1278 14.5213C13.1278 15.131 12.6219 15.7901 11.5617 16.3202C10.6642 16.7689 9.44992 17.0781 8.08143 17.1529L13.5213 6.2732L18.9611 17.1529Z" fill="#8DCFA8"/>
<path fill-rule="evenodd" clip-rule="evenodd" d="M10.4787 5C10.6277 5 10.7639 5.0842 10.8306 5.21749L16.9158 17.3879C16.9768 17.5099 16.9702 17.6547 16.8985 17.7707C16.8269 17.8867 16.7002 17.9573 16.5639 17.9573H4.39344C4.25708 17.9573 4.13045 17.8867 4.05876 17.7707C3.98707 17.6547 3.98056 17.5099 4.04154 17.3879L10.1268 5.21749C10.1934 5.0842 10.3296 5 10.4787 5ZM5.03004 17.1704H15.9273L10.4787 6.2732L5.03004 17.1704Z" fill="black"/>
</svg>
