<svg width="24" height="24" viewBox="0 0 24 24" fill="none" xmlns="http://www.w3.org/2000/svg">
<circle cx="12.0002" cy="12" r="12" fill="#ECEFF0"/>
<path d="M9.1359 5.02143C11.043 5.02143 12.9145 5.02143 14.8145 5.02143C14.8145 5.35 14.8145 5.65714 14.8145 6.02857C14.3216 6.02857 13.8359 6.04286 13.3502 6.02143C13.0859 6.01429 12.9788 6.07857 12.9788 6.37143C12.993 9.12857 12.9859 11.8857 12.9859 14.6429C12.9859 14.7429 13.0002 14.85 13.0073 14.95C14.9502 14.7857 15.8645 13.8 16.0073 12.1571C16.1359 10.6929 16.0859 9.21429 16.1502 7.74286C16.1716 7.22857 16.2359 6.7 16.3859 6.20714C16.643 5.37143 17.2002 5.00714 18.0716 5C18.7002 5 20.0002 5 20.0002 5V6.05714C20.0002 6.05714 19.2573 6.05 18.993 6.05714C18.6716 6.06429 18.4288 6.22143 18.343 6.52143C18.2359 6.90714 18.1288 7.30714 18.1216 7.7C18.093 9.02143 18.1073 10.3357 18.093 11.6571C18.0859 12.4643 17.9145 13.2357 17.5645 13.9643C16.9716 15.1929 15.9216 15.7571 14.6145 15.9143C14.1002 15.9786 13.5788 16.0214 13.0216 16.0786C13.0216 16.9643 13.0216 17.8786 13.0216 18.8C13.2573 18.8 14.5748 18.8 14.8033 18.8C14.8105 18.8286 14.8033 19.7786 14.8033 19.7786H9.2017V18.8H10.943C10.943 18.8 10.943 17.0071 10.943 16.1286C10.3359 16.0429 9.72875 15.9714 9.12161 15.8786C7.30733 15.6071 6.32875 14.6143 5.99304 12.5643C5.84304 11.6571 5.8859 10.7214 5.85018 9.79286C5.81447 8.87857 5.8359 7.96429 5.75733 7.05714C5.6859 6.23571 5.45018 6.06429 4.6359 6.06429C4.4359 6.06429 4.00018 6.06429 4.00018 6.06429V5.02857C4.00018 5.02857 5.54304 4.96429 6.30733 5.04286C7.12875 5.12857 7.62161 5.75714 7.74304 6.79286C7.82161 7.45 7.80018 8.12143 7.82875 8.78571C7.87161 9.95714 7.85733 11.1357 7.97161 12.3071C8.10018 13.65 8.85018 14.5286 10.2073 14.8214C10.4502 14.8714 10.6859 14.95 10.9502 15.0143C10.9502 12.0214 10.9502 9.06429 10.9502 6.06429C10.3573 6.06429 9.75733 6.06429 9.1359 6.06429C9.1359 5.7 9.1359 5.37143 9.1359 5.02143Z" fill="black"/>
</svg>
