<svg width="24" height="24" viewBox="0 0 24 24" fill="none" xmlns="http://www.w3.org/2000/svg">
<circle cx="12" cy="12" r="12" fill="url(#paint0_linear_325_2712)"/>
<path d="M18.5175 9.90748V15.75L12 19.5L5.48248 15.75V8.24998L12 4.49998L17.01 7.39498L17.76 6.95998L12 3.59998L4.72498 7.79998V16.2L12 20.4L19.275 16.2V9.44998L18.5175 9.90748Z" fill="white"/>
<path d="M10.1775 15.75H9.08249V12.1125H12.75C13.0945 12.1084 13.4234 11.9682 13.665 11.7225C13.7846 11.6022 13.8793 11.4594 13.9436 11.3024C14.008 11.1454 14.0407 10.9772 14.04 10.8075C14.0442 10.6381 14.0136 10.4696 13.95 10.3125C13.8136 9.99618 13.5613 9.74396 13.245 9.60752C13.0873 9.54505 12.9196 9.512 12.75 9.51002H9.08249V8.40002H12.75C13.394 8.41673 14.0055 8.68613 14.4525 9.15002C14.6758 9.37222 14.853 9.63634 14.974 9.92722C15.095 10.2181 15.1574 10.53 15.1575 10.845C15.1626 11.3326 15.0159 11.8097 14.7375 12.21C14.4753 12.5885 14.1112 12.8849 13.6875 13.065C13.2652 13.1973 12.825 13.2631 12.3825 13.26H10.2075L10.1775 15.75Z" fill="white"/>
<path d="M15.105 15.675H13.83L12.8475 13.965C13.2364 13.9405 13.6201 13.8622 13.9875 13.7325L15.105 15.675Z" fill="white"/>
<path d="M17.76 8.68499L18.51 9.10499L19.26 8.68499V7.80749L18.51 7.36499L17.76 7.80749V8.68499Z" fill="white"/>
<defs>
<linearGradient id="paint0_linear_325_2712" x1="19.71" y1="2.805" x2="4.29" y2="21.195" gradientUnits="userSpaceOnUse">
<stop stop-color="#C200FB"/>
<stop offset="0.49" stop-color="#3773FE"/>
<stop offset="1" stop-color="#5AC4BE"/>
</linearGradient>
</defs>
</svg>
