<svg width="24" height="24" viewBox="0 0 24 24" fill="none" xmlns="http://www.w3.org/2000/svg">
<circle cx="12.0002" cy="12" r="12" fill="url(#paint0_linear_778_6133)"/>
<path fill-rule="evenodd" clip-rule="evenodd" d="M12.0002 23.0615C18.1092 23.0615 23.0617 18.0791 23.0617 11.933C23.0617 5.78689 18.1092 0.804504 12.0002 0.804504C5.89112 0.804504 0.938736 5.78689 0.938736 11.933C0.938736 18.0791 5.89112 23.0615 12.0002 23.0615ZM12.0002 22.1229C17.5909 22.1229 22.1231 17.5607 22.1231 11.933C22.1231 6.30526 17.5909 1.74305 12.0002 1.74305C6.40946 1.74305 1.87728 6.30526 1.87728 11.933C1.87728 17.5607 6.40946 22.1229 12.0002 22.1229Z" fill="white"/>
<path d="M10.9767 9.47483V9.48378L10.1365 5.05026L9.43931 4.82678L9.00134 5.41674L10.9767 9.47483Z" fill="white"/>
<path d="M11.4326 7.62457L11.7901 9.34078L12.1745 7.59776L11.7991 7.34747L11.4326 7.62457Z" fill="white"/>
<path d="M14.0873 7.92853L13.6315 7.9732L13.0952 9.67155L14.275 8.33968L14.0873 7.92853Z" fill="white"/>
<path d="M17.9845 8.28605V7.562L17.2784 7.33856L13.9711 10.4402L17.9845 8.28605Z" fill="white"/>
<path d="M9.90409 10.1184L8.92084 8.64355L8.93874 8.67931L8.92084 8.64355L8.47392 8.71508L8.4024 9.16202L9.90409 10.1184Z" fill="white"/>
<path d="M16.2326 11.6201L14.4717 11.9687L16.2326 12.3531L16.5007 11.9865L16.2326 11.6201Z" fill="white"/>
<path d="M9.1175 11.9776L4.5946 11.4055L4.1566 11.9955L4.5946 12.5854L9.1175 11.9776Z" fill="white"/>
<path d="M7.44598 12.9609L7.31192 13.381L7.6784 13.6492L9.24265 12.7732L7.44598 12.9609Z" fill="white"/>
<path d="M7.96441 14.2033L7.94655 14.6502L8.3756 14.8022L9.62699 13.4882L7.96441 14.2033Z" fill="white"/>
<path d="M10.2169 14.0961L8.88509 15.267L9.00128 15.6961L9.45714 15.7139L10.2169 14.0961Z" fill="white"/>
<path d="M11.7991 14.6144L11.4415 16.3485L11.808 16.6077L12.1745 16.3396L11.7991 14.6144Z" fill="white"/>
<path d="M17.9935 15.6692L13.9711 13.5329L17.2963 16.6167L17.9935 16.3933V15.6692Z" fill="white"/>
<path d="M13.56 15.9999L12.6572 14.4893L12.8628 16.2234L13.2918 16.3575L13.56 15.9999Z" fill="white"/>
<path d="M10.9857 14.4893L9.02812 18.5564L9.46609 19.1463L10.1633 18.9228L10.9857 14.4893Z" fill="white"/>
<defs>
<linearGradient id="paint0_linear_778_6133" x1="6.30186" y1="22.5251" x2="15.4862" y2="-1.47445e-06" gradientUnits="userSpaceOnUse">
<stop stop-color="#3FAD6C"/>
<stop offset="1" stop-color="#6EC2B7"/>
</linearGradient>
</defs>
</svg>
