<svg width="26" height="26" viewBox="0 0 26 26" fill="none" xmlns="http://www.w3.org/2000/svg">
<circle cx="13.0002" cy="13" r="12" fill="url(#paint0_linear_778_6013)"/>
<path d="M13.0002 24.8125C19.524 24.8125 24.8127 19.5239 24.8127 13C24.8127 6.47614 19.524 1.1875 13.0002 1.1875C6.47632 1.1875 1.18768 6.47614 1.18768 13C1.18768 19.5239 6.47632 24.8125 13.0002 24.8125Z" stroke="white" stroke-width="0.5"/>
<path d="M8.65169 16.1928C8.35103 15.6021 8.2023 14.9458 8.21894 14.2833C8.20789 13.6614 8.32375 13.0438 8.55944 12.4683C8.75072 12.0038 9.00676 11.5687 9.31994 11.176C9.59741 10.847 9.94114 10.5802 10.3287 10.393C10.723 10.1947 11.1585 10.0919 11.5999 10.093C12.1532 10.0658 12.6947 10.2583 13.1067 10.6285L14.8234 9.19226C14.7888 8.8935 14.7713 8.59301 14.7709 8.29225C14.7709 6.35925 15.2819 5.39276 16.3039 5.39276C16.4208 5.3874 16.5372 5.40943 16.644 5.45709C16.7508 5.50475 16.8449 5.57672 16.9189 5.66726C17.0749 5.86974 17.1621 6.11673 17.1679 6.37226C17.1665 6.82218 17.0244 7.2604 16.7614 7.6255C16.4161 8.12781 16.0117 8.58685 15.5569 8.99276C15.7677 10.2105 15.9035 11.4401 15.9634 12.6745C15.9647 13.3096 15.8809 13.9419 15.7144 14.5548C15.5549 15.1427 15.2978 15.6997 14.9539 16.2025C14.6003 16.7094 14.1159 17.1109 13.5522 17.3643C12.9012 17.6546 12.1941 17.7973 11.4814 17.782C10.9942 17.813 10.5068 17.7246 10.0616 17.5245C9.61627 17.3244 9.22654 17.0186 8.92619 16.6338C8.76128 17.242 8.68202 17.8703 8.69069 18.5005C8.68121 19.1721 8.87294 19.8311 9.24119 20.3928C9.38634 20.6478 9.59583 20.8604 9.84876 21.0092C10.1017 21.1581 10.3892 21.238 10.6827 21.241C10.7262 21.241 10.7479 21.2845 10.7479 21.3715C10.7564 21.4585 10.7347 21.502 10.6827 21.502C10.3384 21.4994 10.0007 21.4079 9.70223 21.2363C9.40379 21.0647 9.1548 20.8188 8.97944 20.5225C8.53758 19.8914 8.3037 19.1381 8.31044 18.3678C8.30302 17.6289 8.41834 16.8939 8.65169 16.1928ZM13.3294 10.876C13.5722 11.2004 13.7011 11.5959 13.6962 12.001C13.7017 12.3801 13.635 12.7568 13.4997 13.111C13.361 13.4546 13.1297 13.7529 12.8314 13.9728C12.5168 14.2165 12.1284 14.3453 11.7304 14.338C11.6549 14.3419 11.5805 14.3188 11.5204 14.2728C11.4698 14.214 11.4379 14.1413 11.4289 14.0643C11.6292 14.057 11.8255 14.0063 12.0042 13.9156C12.1829 13.825 12.3398 13.6966 12.4639 13.5393C12.8979 13.1015 13.1427 12.5109 13.1457 11.8945C13.1461 11.6437 13.0971 11.3952 13.0017 11.1633C12.1109 11.9123 11.2831 12.7334 10.5267 13.618C9.87148 14.3864 9.3683 15.2724 9.04394 16.2288C9.2895 16.6224 9.63739 16.942 10.0505 17.1534C10.4635 17.3648 10.9262 17.4599 11.3892 17.4288C11.9882 17.4427 12.5803 17.2987 13.1059 17.011C13.5892 16.7551 13.9927 16.3711 14.2722 15.901C14.8479 14.8786 15.1331 13.7183 15.0972 12.5455C15.0972 12.2235 15.0184 11.2443 14.8609 9.60775L13.3294 10.876ZM12.8044 10.8888C12.6545 10.7377 12.4742 10.62 12.2756 10.5435C12.0769 10.4669 11.8643 10.4333 11.6517 10.4448C11.1864 10.4383 10.7284 10.5602 10.3279 10.7973C9.54977 11.3052 8.9929 12.089 8.76944 12.991C8.62965 13.4255 8.55879 13.8793 8.55944 14.3358C8.55428 14.822 8.63868 15.3051 8.80844 15.7608C9.41144 14.2538 10.7437 12.6298 12.8052 10.8888H12.8044ZM15.4392 7.6255C15.4444 7.93969 15.4661 8.25337 15.5044 8.56525C16.3694 7.72076 16.8019 7.00701 16.8019 6.42401C16.8019 5.97151 16.6359 5.74526 16.3039 5.74526C15.7274 5.74526 15.4392 6.37201 15.4392 7.6255Z" fill="white"/>
<defs>
<linearGradient id="paint0_linear_778_6013" x1="13.0002" y1="1" x2="13.0002" y2="25" gradientUnits="userSpaceOnUse">
<stop stop-color="#BF9E32"/>
<stop offset="1" stop-color="#9B7D1C"/>
</linearGradient>
</defs>
</svg>
