<svg width="24" height="24" viewBox="0 0 24 24" fill="none" xmlns="http://www.w3.org/2000/svg">
<circle cx="12.0002" cy="12" r="12" fill="#FB2B6B"/>
<path fill-rule="evenodd" clip-rule="evenodd" d="M12.4149 4.75249C12.2409 4.41584 11.7595 4.41584 11.5856 4.75249L7.41994 12.8165H5.00018V13.9832H6.81725L5.48147 16.569C5.32102 16.8796 5.54649 17.2498 5.89609 17.2498H18.1044C18.454 17.2498 18.6794 16.8796 18.519 16.569L17.9064 15.3832H19.0002V14.4498H17.4243L17.0627 13.7498H19.0002V12.8165H16.5806L15.8573 11.4165H19.0002V10.4832H15.3752L14.7725 9.31651H19.0002V8.38318H14.2904L12.4149 4.75249ZM14.2904 8.38318H13.7128L7.72785 12.8165H7.41994L6.81725 13.9832H9.7977L12.831 15.3832H17.9064L17.4243 14.4498H13.036L11.5193 13.7498H17.0627L16.5806 12.8165H11.7756L14.4483 11.4165H15.8573L15.3752 10.4832H14.2187L9.76415 12.8165H9.29585L14.0209 9.31651H14.7725L14.2904 8.38318Z" fill="white"/>
</svg>
