<svg width="24" height="24" viewBox="0 0 24 24" fill="none" xmlns="http://www.w3.org/2000/svg">
<circle cx="12" cy="12" r="12" fill="#0E0E12"/>
<path d="M11.9425 17.823C9.20883 17.823 6.99231 15.6065 6.99231 12.8728C6.99231 10.2129 11.4623 5.52131 11.647 5.3366L11.8687 5.078L12.0903 5.3366C12.275 5.52131 16.8558 10.2129 16.8558 12.8728C16.8928 15.6065 14.6762 17.823 11.9425 17.823ZM11.9056 6.0385C11.4992 6.4818 10.6865 7.36841 9.87379 8.47667C8.43305 10.3977 7.65727 11.9123 7.65727 12.8728C7.65727 15.2371 9.57825 17.158 11.9425 17.158C14.3068 17.158 16.2278 15.2371 16.2278 12.8728C16.2278 11.9123 15.452 10.3977 13.9744 8.47667C13.1616 7.40535 12.312 6.4818 11.9056 6.0385Z" fill="url(#paint0_linear_263_4090)"/>
<path d="M11.9425 19.4115C8.3222 19.4115 5.40378 16.4931 5.40378 12.8728C5.40378 9.36326 10.3171 4.44997 10.5387 4.22832C10.6865 4.11749 10.8712 4.11749 11.019 4.22832C11.1298 4.37609 11.1298 4.5608 11.019 4.70857C10.9451 4.74551 6.06873 9.62186 6.06873 12.8728C6.06873 16.1237 8.69162 18.7465 11.9425 18.7465C15.1934 18.7465 17.8163 16.1237 17.8163 12.8728C17.8163 11.5428 16.9666 9.69574 15.3412 7.5531C14.0852 5.89071 12.8291 4.63468 12.8291 4.63468C12.6814 4.52386 12.6814 4.3022 12.8291 4.15444C12.94 4.00667 13.1616 4.00667 13.3094 4.15444C13.531 4.37609 18.5182 9.36326 18.5182 12.8728C18.4813 16.4931 15.5628 19.4115 11.9425 19.4115Z" fill="url(#paint1_linear_263_4090)"/>
<path d="M11.9425 21C7.58338 21 4 17.4166 4 13.0575C4 11.2473 4.92355 9.03078 6.69677 6.44484C8.02668 4.5608 9.31965 3.19395 9.39354 3.12006C9.50436 2.97229 9.72601 2.97229 9.87378 3.12006C10.0215 3.23089 10.0215 3.45254 9.87378 3.60031C9.87378 3.60031 8.54387 4.96716 7.2509 6.85121C5.55156 9.28938 4.66496 11.432 4.66496 13.0944C4.66496 17.1211 7.9528 20.372 11.9425 20.372C15.9323 20.372 19.2201 17.0472 19.2201 13.0575C19.2201 11.3951 18.3335 9.25244 16.6342 6.81426C15.3412 4.96716 14.0113 3.60031 14.0113 3.56337C13.9005 3.4156 13.9005 3.23089 14.0113 3.08312C14.1591 2.97229 14.3438 2.97229 14.4915 3.08312C14.6762 3.34171 19.8851 8.73525 19.8851 13.0575C19.8851 17.4166 16.3386 21 11.9425 21Z" fill="url(#paint2_linear_263_4090)"/>
<defs>
<linearGradient id="paint0_linear_263_4090" x1="11.9243" y1="17.8322" x2="11.9243" y2="5.10105" gradientUnits="userSpaceOnUse">
<stop stop-color="#05AAC5"/>
<stop offset="1" stop-color="#71E0EC"/>
</linearGradient>
<linearGradient id="paint1_linear_263_4090" x1="11.961" y1="19.4207" x2="11.961" y2="4.07904" gradientUnits="userSpaceOnUse">
<stop stop-color="#05AAC5"/>
<stop offset="1" stop-color="#71E0EC"/>
</linearGradient>
<linearGradient id="paint2_linear_263_4090" x1="11.9425" y1="21.0092" x2="11.9425" y2="3.02741" gradientUnits="userSpaceOnUse">
<stop stop-color="#05AAC5"/>
<stop offset="1" stop-color="#71E0EC"/>
</linearGradient>
</defs>
</svg>
