<svg width="24" height="24" viewBox="0 0 24 24" fill="none" xmlns="http://www.w3.org/2000/svg">
<g clip-path="url(#clip0_2101_6338)">
<path d="M12.0002 24C18.6276 24 24.0002 18.6274 24.0002 12C24.0002 5.37258 18.6276 0 12.0002 0C5.37276 0 0.000183105 5.37258 0.000183105 12C0.000183105 18.6274 5.37276 24 12.0002 24Z" fill="white"/>
<path d="M7.07775 11.1475L6.94341 11.3536C5.42813 13.6781 5.76656 16.7223 7.75706 18.6726C8.92805 19.82 10.4628 20.3937 11.9976 20.3939C11.9976 20.3939 11.9976 20.3939 7.07775 11.1475Z" fill="#00A3FF"/>
<path opacity="0.6" d="M11.9961 13.9577L7.07632 11.1475C11.9961 20.3939 11.9961 20.3939 11.9961 20.3939C11.9961 18.3801 11.9961 16.0725 11.9961 13.9577Z" fill="#00A3FF"/>
<path opacity="0.6" d="M16.9226 11.1475L17.057 11.3536C18.5722 13.6781 18.2338 16.7223 16.2433 18.6726C15.0723 19.82 13.5376 20.3937 12.0028 20.3939C12.0028 20.3939 12.0028 20.3939 16.9226 11.1475Z" fill="#00A3FF"/>
<path opacity="0.2" d="M12.0023 13.9577L16.9221 11.1475C12.0023 20.3939 12.0023 20.3939 12.0023 20.3939C12.0023 18.3801 12.0023 16.0725 12.0023 13.9577Z" fill="#00A3FF"/>
<path opacity="0.2" d="M12.0041 7.67969V12.5266L16.242 10.1047L12.0041 7.67969Z" fill="#00A3FF"/>
<path opacity="0.6" d="M12.0028 7.67969L7.76187 10.1046L12.0028 12.5266V7.67969Z" fill="#00A3FF"/>
<path d="M12.0028 3.60352L7.76187 10.1062L12.0028 7.67447V3.60352Z" fill="#00A3FF"/>
<path opacity="0.6" d="M12.0041 7.67372L16.2452 10.1055L12.0041 3.59961V7.67372Z" fill="#00A3FF"/>
</g>
<defs>
<clipPath id="clip0_2101_6338">
<rect width="24" height="24" fill="white"/>
</clipPath>
</defs>
</svg>
