<svg width="24" height="24" viewBox="0 0 24 24" fill="none" xmlns="http://www.w3.org/2000/svg">
<path d="M23.5 12C23.5 18.3513 18.3513 23.5 12 23.5C5.64872 23.5 0.5 18.3513 0.5 12C0.5 5.64872 5.64872 0.5 12 0.5C18.3513 0.5 23.5 5.64872 23.5 12Z" fill="white" stroke="#ADC9F3"/>
<path d="M13.7351 9.99988H10.2684C10.1211 9.99988 10.0017 10.1193 10.0017 10.2665V13.7332C10.0017 13.8805 10.1211 13.9999 10.2684 13.9999H13.7351C13.8824 13.9999 14.0018 13.8805 14.0018 13.7332V10.2665C14.0018 10.1193 13.8824 9.99988 13.7351 9.99988Z" fill="#0051CA"/>
<path d="M9.73302 6.00012H6.2663C6.11903 6.00012 5.99963 6.11951 5.99963 6.26679V9.7335C5.99963 9.88078 6.11903 10.0002 6.2663 10.0002H9.73302C9.88032 10.0002 9.99971 9.88078 9.99971 9.7335V6.26679C9.99971 6.11951 9.88032 6.00012 9.73302 6.00012Z" fill="#0051CA"/>
<path d="M17.7337 6H14.2669C14.1197 6 14.0002 6.11939 14.0002 6.26667V9.73338C14.0002 9.88066 14.1197 10 14.2669 10H17.7337C17.8809 10 18.0003 9.88066 18.0003 9.73338V6.26667C18.0003 6.11939 17.8809 6 17.7337 6Z" fill="#0051CA"/>
<path d="M9.73311 14H6.26636C6.11909 14 5.99969 14.1194 5.99969 14.2667V17.7334C5.99969 17.8807 6.11909 18.0001 6.26636 18.0001H9.73311C9.88038 18.0001 9.99977 17.8807 9.99977 17.7334V14.2667C9.99977 14.1194 9.88038 14 9.73311 14Z" fill="#0051CA"/>
<path d="M17.7337 14H14.2669C14.1197 14 14.0002 14.1194 14.0002 14.2667V17.7334C14.0002 17.8807 14.1197 18.0001 14.2669 18.0001H17.7337C17.8809 18.0001 18.0003 17.8807 18.0003 17.7334V14.2667C18.0003 14.1194 17.8809 14 17.7337 14Z" fill="#0051CA"/>
</svg>
