<svg width="24" height="24" viewBox="0 0 24 24" fill="none" xmlns="http://www.w3.org/2000/svg">
<circle cx="12" cy="12" r="12" fill="black"/>
<path fill-rule="evenodd" clip-rule="evenodd" d="M12 4.32301C8.26915 4.32301 4.70328 5.02948 1.42892 6.31595C3.45509 2.55561 7.42907 0 12 0C14.6632 0 17.1238 0.867588 19.1146 2.33554C17.0403 3.59667 14.605 4.32301 12 4.32301ZM0.363351 9.05766C3.88341 7.36088 7.83066 6.40996 12 6.40996C15.2311 6.40996 18.2356 5.44014 20.7385 3.77576C21.7608 4.86153 22.583 6.13782 23.1461 7.54572C19.948 9.65454 16.1173 10.882 12 10.882C7.67233 10.882 3.63183 12.1114 0.208709 14.2401C0.0716858 13.5144 0 12.7655 0 12C0 10.9848 0.12605 9.99916 0.363351 9.05766ZM12 12.9689C7.86264 12.9689 4.01473 14.2083 0.807311 16.336C1.35587 17.7511 2.16503 19.0362 3.1759 20.1325C5.69573 18.4331 8.73201 17.441 12 17.441C16.1857 17.441 20.1474 16.4826 23.6779 14.7733C23.8885 13.8831 24 12.9546 24 12C24 11.1876 23.9193 10.394 23.7654 9.62692C20.3478 11.7457 16.3167 12.9689 12 12.9689ZM12 19.5279C9.34904 19.5279 6.87372 20.2801 4.77583 21.5827C6.78552 23.1001 9.2877 24 12 24C16.6468 24 20.6767 21.3588 22.6704 17.4957C19.3688 18.8071 15.7686 19.5279 12 19.5279Z" fill="#29CCC4"/>
</svg>
