<svg width="24" height="24" viewBox="0 0 24 24" fill="none" xmlns="http://www.w3.org/2000/svg">
<circle cx="12" cy="12" r="12" fill="white"/>
<path d="M12 0C9.62663 0 7.30655 0.703788 5.33316 2.02236C3.35977 3.34094 1.8217 5.21508 0.913451 7.4078C0.00519941 9.60051 -0.232441 12.0133 0.230582 14.3411C0.693605 16.6689 1.83649 18.807 3.51472 20.4853C5.19295 22.1635 7.33115 23.3064 9.65892 23.7694C11.9867 24.2324 14.3995 23.9948 16.5922 23.0865C18.7849 22.1783 20.6591 20.6402 21.9776 18.6668C23.2962 16.6935 24 14.3734 24 12C24 10.4241 23.6896 8.8637 23.0866 7.4078C22.4835 5.95189 21.5996 4.62902 20.4853 3.51472C19.371 2.40042 18.0481 1.5165 16.5922 0.913446C15.1363 0.310389 13.5759 0 12 0ZM12.3462 12.5862C10.1604 5.4816 3.16261 6.015 3.00721 12.1446C3.00721 12.096 3.00001 12.0492 3.00001 12.0006C3.00001 9.61365 3.94822 7.32446 5.63604 5.63664C7.32387 3.94881 9.61306 3.0006 12 3.0006C14.387 3.0006 16.6761 3.94881 18.364 5.63664C20.0518 7.32446 21 9.61365 21 12.0006C21 17.466 14.346 19.0854 12.3462 12.5862Z" fill="#00223E"/>
<path d="M12.4998 12.4998C10.314 5.39584 2.73841 5.79664 3.00721 12.144C3.16921 6.12004 10.9998 7.00024 10.9998 14.5002C10.9998 21.3792 19.9062 20.2872 20.922 12.9228C20.184 17.2212 14.3718 18.5862 12.4998 12.4998Z" fill="#BD926C"/>
</svg>
