<svg width="24" height="24" viewBox="0 0 24 24" fill="none" xmlns="http://www.w3.org/2000/svg">
<circle cx="12" cy="12" r="12" fill="url(#paint0_linear_780_4928)"/>
<circle cx="11.9996" cy="11.9998" r="10.2857" fill="url(#paint1_linear_780_4928)"/>
<path d="M12.1671 17.3262C11.0009 17.3262 10.0456 17.0844 9.30133 16.6009C8.55704 16.1173 8.12326 15.3872 8 14.4107L9.80622 14.3467C9.93422 14.8681 10.2044 15.2616 10.6169 15.5271C11.0341 15.7878 11.5484 15.9182 12.16 15.9182C12.525 15.9182 12.8593 15.8566 13.1627 15.7333C13.4661 15.6101 13.7079 15.4394 13.888 15.2213C14.0681 15.0032 14.1582 14.752 14.1582 14.4675C14.1582 14.0551 14.0302 13.7375 13.7742 13.5147C13.523 13.2871 13.1271 13.1093 12.5867 12.9813L10.8587 12.5689C10.0907 12.3935 9.47674 12.0853 9.01689 11.6444C8.55704 11.1988 8.32237 10.6015 8.31289 9.85244C8.30815 9.2314 8.4717 8.69095 8.80356 8.2311C9.14015 7.76651 9.60237 7.40858 10.1902 7.15732C10.7781 6.90132 11.4441 6.77332 12.1884 6.77332C12.9327 6.77332 13.5751 6.9108 14.1156 7.18577C14.656 7.45599 15.0732 7.81866 15.3671 8.27377C15.661 8.72888 15.8104 9.22903 15.8151 9.77421L14.0587 9.8311C13.9781 9.30488 13.7956 8.89955 13.5111 8.6151C13.2267 8.32592 12.7905 8.18132 12.2027 8.18132C11.9182 8.18132 11.6527 8.21451 11.4062 8.28088C11.1597 8.34725 10.944 8.44443 10.7591 8.57243C10.5742 8.70043 10.4296 8.85688 10.3253 9.04177C10.221 9.22192 10.1689 9.42814 10.1689 9.66043C10.1689 9.99229 10.2827 10.2554 10.5102 10.4498C10.7425 10.6394 11.1644 10.8219 11.776 10.9973L13.4542 11.4382C14.3597 11.6705 15.0092 12.0498 15.4027 12.576C15.8009 13.1022 16 13.728 16 14.4533C16 15.027 15.8412 15.5295 15.5236 15.9609C15.2059 16.3875 14.7579 16.7218 14.1796 16.9635C13.6059 17.2053 12.9351 17.3262 12.1671 17.3262ZM11.4276 5.40088H12.9636V7.24266H11.4276V5.40088ZM11.3707 16.7573H12.8996V18.5991H11.3707V16.7573Z" fill="white"/>
<defs>
<linearGradient id="paint0_linear_780_4928" x1="24" y1="12" x2="3.15777e-07" y2="12" gradientUnits="userSpaceOnUse">
<stop stop-color="#482BFF"/>
<stop offset="1" stop-color="#007AFF"/>
</linearGradient>
<linearGradient id="paint1_linear_780_4928" x1="22.2853" y1="11.9998" x2="1.71387" y2="11.9998" gradientUnits="userSpaceOnUse">
<stop stop-color="#007AFF"/>
<stop offset="1" stop-color="#00B2FF"/>
</linearGradient>
</defs>
</svg>
