<svg width="24" height="24" viewBox="0 0 24 24" fill="none" xmlns="http://www.w3.org/2000/svg">
<circle cx="12" cy="12" r="12" fill="#121212"/>
<path d="M12.2089 4.00781H12.8293C16.4503 4.19645 19.3271 6.69379 20.1349 10.2073C20.1437 10.2456 20.1992 10.4453 20.3098 10.3646C20.9016 9.76906 21.3642 9.25344 21.6976 8.81773C21.8919 8.56393 21.9155 8.3415 21.7685 8.15043C21.5193 7.82645 20.6862 7.63008 20.2874 7.55574C19.7009 7.44703 19.413 7.51965 19.0452 6.96879C18.8945 6.74306 18.7282 6.5255 18.5463 6.31609C18.5436 6.31286 18.5419 6.30889 18.5414 6.30469C18.541 6.3005 18.5417 6.29625 18.5437 6.29249C18.5456 6.28873 18.5486 6.28562 18.5523 6.28355C18.5559 6.28148 18.5602 6.28055 18.5644 6.28086C19.0955 6.32211 19.6313 6.36164 20.1718 6.39945C21.2542 6.47551 22.9562 7.00402 22.9798 8.37258C22.9953 9.28695 22.2532 10.1128 21.616 10.6813C20.5212 11.6584 19.3051 12.3596 17.9533 13.0003C15.5047 14.1613 12.9826 15.0353 10.387 15.6223C10.3341 15.447 10.2877 15.2566 10.2177 15.0972C9.71366 13.9443 8.69315 13.1937 7.39808 13.1443C7.31558 12.7372 7.27017 12.4813 7.26186 12.3764C7.01823 9.32434 9.11597 6.74277 12.2041 6.55156C12.2932 6.54583 12.4753 6.59281 12.7503 6.6925C12.2914 7.21328 12.04 7.83934 12.0671 8.53414C12.1354 10.3019 13.9594 11.4595 15.5845 10.7715C16.1866 10.5171 16.6328 10.079 16.923 9.45711C17.4876 9.66336 17.7673 10.7604 17.8313 11.2945C17.8489 11.4397 17.8317 11.5957 17.833 11.7546C17.833 11.7756 17.8422 11.7809 17.8605 11.7705C18.0914 11.6393 18.3269 11.5165 18.5669 11.4019C18.9283 11.23 19.1242 11.0633 19.0533 10.643C18.4604 7.12047 15.2085 4.80789 11.716 5.20578C10.2095 5.37723 8.73913 6.12102 7.69671 7.2193C6.17776 8.81988 5.47565 11.2386 6.04671 13.3995C5.67546 13.5665 5.34775 13.7907 5.06358 14.072C4.44655 11.8114 4.66311 9.63414 5.93886 7.63781C7.36886 5.39971 9.45886 4.18971 12.2089 4.00781ZM13.4111 11.8088C13.4111 11.568 13.3155 11.3371 13.1452 11.1668C12.9749 10.9965 12.744 10.9009 12.5032 10.9009C12.2624 10.9009 12.0315 10.9965 11.8612 11.1668C11.6909 11.3371 11.5953 11.568 11.5953 11.8088C11.5953 12.0496 11.6909 12.2805 11.8612 12.4508C12.0315 12.6211 12.2624 12.7167 12.5032 12.7167C12.744 12.7167 12.9749 12.6211 13.1452 12.4508C13.3155 12.2805 13.4111 12.0496 13.4111 11.8088ZM15.6708 12.003C15.6681 12.003 15.6654 12.0022 15.6631 12.0006C15.6609 11.9989 15.6592 11.9966 15.6584 11.994L15.4564 11.3546C15.4557 11.3519 15.4541 11.3494 15.4518 11.3477C15.4496 11.346 15.4468 11.345 15.444 11.345C15.4411 11.345 15.4384 11.346 15.4361 11.3477C15.4339 11.3494 15.4322 11.3519 15.4315 11.3546L15.2296 11.994C15.2287 11.9966 15.2271 11.9989 15.2248 12.0006C15.2226 12.0022 15.2199 12.003 15.2171 12.003L14.5468 11.9979C14.5441 11.9979 14.5415 11.9989 14.5394 12.0005C14.5373 12.0021 14.5357 12.0043 14.5349 12.0069C14.5341 12.0094 14.5341 12.0121 14.5349 12.0147C14.5358 12.0172 14.5373 12.0195 14.5395 12.0211L15.0848 12.4108C15.087 12.4124 15.0887 12.4147 15.0895 12.4173C15.0904 12.4199 15.0904 12.4228 15.0895 12.4254L14.8772 13.0613C14.8765 13.0639 14.8765 13.0666 14.8774 13.0691C14.8783 13.0717 14.8799 13.0739 14.8821 13.0754C14.8842 13.077 14.8868 13.0778 14.8895 13.0778C14.8922 13.0779 14.8948 13.077 14.897 13.0755L15.4362 12.6772C15.4385 12.6755 15.4412 12.6746 15.444 12.6746C15.4468 12.6746 15.4495 12.6755 15.4517 12.6772L15.991 13.0755C15.9932 13.077 15.9958 13.0779 15.9984 13.0778C16.0011 13.0778 16.0037 13.077 16.0059 13.0754C16.008 13.0739 16.0097 13.0717 16.0105 13.0691C16.0114 13.0666 16.0115 13.0639 16.0107 13.0613L15.7985 12.4254C15.7976 12.4228 15.7976 12.4199 15.7984 12.4173C15.7993 12.4147 15.8009 12.4124 15.8032 12.4108L16.3485 12.0211C16.3506 12.0195 16.3522 12.0172 16.353 12.0147C16.3538 12.0121 16.3538 12.0094 16.353 12.0069C16.3522 12.0043 16.3507 12.0021 16.3485 12.0005C16.3464 11.9989 16.3438 11.9979 16.3412 11.9979L15.6708 12.003ZM11.8849 13.3376C11.8818 13.3377 11.8788 13.3367 11.8764 13.335C11.8739 13.3332 11.872 13.3306 11.8711 13.3277L11.8161 13.1541C11.8152 13.1513 11.8134 13.1487 11.811 13.1469C11.8086 13.1452 11.8056 13.1442 11.8026 13.1442C11.7996 13.1442 11.7966 13.1452 11.7942 13.1469C11.7918 13.1487 11.79 13.1513 11.7891 13.1541L11.7319 13.3269C11.731 13.3297 11.7292 13.3322 11.7268 13.334C11.7244 13.3357 11.7216 13.3367 11.7186 13.3368L11.5364 13.3355C11.5333 13.3354 11.5303 13.3363 11.5278 13.338C11.5253 13.3398 11.5235 13.3423 11.5225 13.3452C11.5215 13.3481 11.5215 13.3512 11.5225 13.3541C11.5234 13.357 11.5253 13.3595 11.5278 13.3613L11.6748 13.4687C11.6772 13.4704 11.679 13.4729 11.6799 13.4758C11.6809 13.4786 11.6808 13.4817 11.6799 13.4846L11.6228 13.6577C11.6219 13.6605 11.6219 13.6635 11.6229 13.6663C11.6238 13.6691 11.6255 13.6715 11.6279 13.6733C11.6302 13.675 11.6331 13.676 11.636 13.676C11.6389 13.6761 11.6418 13.6753 11.6442 13.6736L11.7921 13.5671C11.7945 13.5653 11.7974 13.5643 11.8004 13.5643C11.8035 13.5643 11.8064 13.5653 11.8088 13.5671L11.9553 13.6749C11.9577 13.6767 11.9606 13.6776 11.9636 13.6776C11.9665 13.6776 11.9694 13.6767 11.9718 13.675C11.9742 13.6733 11.9761 13.6709 11.977 13.6681C11.978 13.6653 11.9781 13.6623 11.9773 13.6595L11.9218 13.4859C11.9209 13.483 11.9209 13.4799 11.9218 13.4771C11.9227 13.4742 11.9245 13.4717 11.927 13.47L12.0748 13.3643C12.0773 13.3625 12.0791 13.3601 12.0801 13.3572C12.081 13.3543 12.0811 13.3512 12.0802 13.3484C12.0792 13.3455 12.0774 13.343 12.075 13.3412C12.0726 13.3394 12.0696 13.3385 12.0666 13.3385L11.8849 13.3376ZM13.8876 13.5714C13.8849 13.5714 13.8822 13.5705 13.8799 13.5689C13.8777 13.5673 13.876 13.565 13.8752 13.5623L13.7553 13.1795C13.7546 13.1767 13.753 13.1743 13.7507 13.1726C13.7485 13.1708 13.7457 13.1699 13.7428 13.1699C13.74 13.1699 13.7372 13.1708 13.735 13.1726C13.7327 13.1743 13.7311 13.1767 13.7304 13.1795L13.6105 13.5623C13.6097 13.565 13.608 13.5673 13.6058 13.5689C13.6035 13.5705 13.6008 13.5714 13.598 13.5714L13.1971 13.5671C13.1943 13.5669 13.1915 13.5677 13.1892 13.5693C13.1869 13.5709 13.1851 13.5733 13.1843 13.5759C13.1834 13.5786 13.1834 13.5815 13.1843 13.5842C13.1853 13.5869 13.187 13.5891 13.1894 13.5907L13.5164 13.8227C13.5186 13.8243 13.5203 13.8266 13.5212 13.8293C13.522 13.8319 13.522 13.8347 13.5211 13.8373L13.3931 14.2176C13.3921 14.2203 13.3919 14.2232 13.3927 14.2259C13.3936 14.2286 13.3952 14.231 13.3975 14.2327C13.3999 14.2344 13.4026 14.2352 13.4055 14.2351C13.4083 14.2351 13.4111 14.234 13.4133 14.2322L13.7351 13.9929C13.7373 13.9912 13.7401 13.9903 13.7428 13.9903C13.7456 13.9903 13.7483 13.9912 13.7506 13.9929L14.0724 14.2322C14.0746 14.234 14.0773 14.2351 14.0802 14.2351C14.083 14.2352 14.0858 14.2344 14.0881 14.2327C14.0904 14.231 14.0921 14.2286 14.0929 14.2259C14.0937 14.2232 14.0936 14.2203 14.0926 14.2176L13.9646 13.8373C13.9637 13.8347 13.9637 13.8319 13.9645 13.8293C13.9654 13.8266 13.967 13.8243 13.9693 13.8227L14.2963 13.5907C14.2986 13.5891 14.3004 13.5869 14.3013 13.5842C14.3023 13.5815 14.3023 13.5786 14.3014 13.5759C14.3005 13.5733 14.2988 13.5709 14.2965 13.5693C14.2942 13.5677 14.2914 13.5669 14.2885 13.5671L13.8876 13.5714Z" fill="#27A9E1"/>
<path d="M16.9229 9.45707C16.6328 10.079 16.1866 10.5171 15.5845 10.7715C13.9594 11.4594 12.1354 10.3018 12.067 8.5341C12.04 7.83929 12.2913 7.21324 12.7502 6.69246C14.7565 4.67121 17.9886 6.81105 16.9229 9.45707ZM13.8004 7.27812C14.2881 8.34031 15.3254 9.0132 16.5061 8.94746C16.523 8.9466 16.5309 8.93772 16.5298 8.92082L16.5208 8.76656C16.7893 7.10625 15.0388 5.91601 13.5894 6.76293C13.5844 6.76587 13.5805 6.77039 13.5783 6.77577C13.5761 6.78114 13.5758 6.78705 13.5774 6.79258C13.6301 6.96731 13.7044 7.12916 13.8004 7.27812ZM13.189 7.06543C12.8481 7.46675 12.6679 7.90189 12.6484 8.37082C12.6029 9.4605 13.4811 10.3659 14.5631 10.3882C15.3786 10.405 16.1177 9.90781 16.4168 9.14941C16.4271 9.12306 16.4183 9.11188 16.3906 9.1159C14.891 9.33031 13.711 8.49285 13.2513 7.07746C13.2493 7.07132 13.2457 7.06583 13.2409 7.06156C13.2361 7.05729 13.2302 7.05439 13.2239 7.05317C13.2175 7.05194 13.2109 7.05243 13.2048 7.05458C13.1987 7.05674 13.1932 7.06048 13.189 7.06543Z" fill="white"/>
<path d="M16.5207 8.76659C15.416 8.77303 14.3981 8.17104 13.8004 7.27815C13.7044 7.12919 13.6301 6.96734 13.5774 6.7926C13.5758 6.78708 13.5761 6.78116 13.5783 6.77579C13.5804 6.77042 13.5844 6.7659 13.5894 6.76295C15.0387 5.91604 16.7893 7.10627 16.5207 8.76659Z" fill="#F7CB3D"/>
<path d="M13.189 7.06541C13.1932 7.06047 13.1987 7.05672 13.2048 7.05457C13.2109 7.05241 13.2175 7.05192 13.2239 7.05315C13.2302 7.05438 13.2361 7.05728 13.2409 7.06155C13.2458 7.06582 13.2493 7.07131 13.2513 7.07744C13.711 8.49283 14.891 9.33029 16.3906 9.11588C16.4184 9.11187 16.4271 9.12304 16.4168 9.1494C16.1177 9.90779 15.3787 10.4049 14.5631 10.3882C13.4812 10.3658 12.6029 9.46049 12.6484 8.3708C12.6679 7.90187 12.8481 7.46674 13.189 7.06541Z" fill="#F7CB3D"/>
<path d="M13.8004 7.2782C14.3981 8.17109 15.416 8.77308 16.5208 8.76664L16.5298 8.92089C16.5309 8.93779 16.5231 8.94667 16.5062 8.94753C15.3254 9.01328 14.2881 8.34039 13.8004 7.2782Z" fill="#EF7A32"/>
<path d="M4.38937 15.0937C4.24128 15.4747 4.16379 15.8628 4.15691 16.2582C2.98687 16.0837 1.14953 15.8237 1 14.3069V14.0474C1.22816 12.4322 3.11664 11.2123 4.39023 10.4453C4.40656 10.4356 4.41473 10.4403 4.41473 10.4595C4.4143 11.1689 4.43449 11.8676 3.7573 12.2719C3.17508 12.62 2.75398 13.075 2.33676 13.6083C1.88301 14.1875 2.18121 14.6296 2.80598 14.7878C3.32332 14.919 3.85112 15.0209 4.38937 15.0937Z" fill="#27A9E1"/>
<path d="M15.6708 12.003L16.3411 11.9978C16.3438 11.9979 16.3464 11.9988 16.3485 12.0004C16.3506 12.002 16.3522 12.0043 16.353 12.0068C16.3538 12.0094 16.3538 12.0121 16.353 12.0146C16.3522 12.0172 16.3506 12.0194 16.3485 12.021L15.8032 12.4107C15.8009 12.4123 15.7993 12.4146 15.7984 12.4173C15.7976 12.4199 15.7976 12.4227 15.7985 12.4253L16.0107 13.0613C16.0115 13.0638 16.0114 13.0666 16.0105 13.0691C16.0097 13.0716 16.008 13.0738 16.0059 13.0754C16.0037 13.0769 16.0011 13.0778 15.9984 13.0778C15.9957 13.0778 15.9931 13.077 15.991 13.0755L15.4517 12.6771C15.4495 12.6755 15.4467 12.6746 15.444 12.6746C15.4412 12.6746 15.4385 12.6755 15.4362 12.6771L14.897 13.0755C14.8948 13.077 14.8922 13.0778 14.8895 13.0778C14.8868 13.0778 14.8842 13.0769 14.8821 13.0754C14.8799 13.0738 14.8783 13.0716 14.8774 13.0691C14.8765 13.0666 14.8765 13.0638 14.8772 13.0613L15.0895 12.4253C15.0904 12.4227 15.0904 12.4199 15.0895 12.4173C15.0887 12.4146 15.087 12.4123 15.0847 12.4107L14.5395 12.021C14.5373 12.0194 14.5357 12.0172 14.5349 12.0146C14.5341 12.0121 14.5341 12.0094 14.5349 12.0068C14.5357 12.0043 14.5373 12.002 14.5394 12.0004C14.5415 11.9988 14.5441 11.9979 14.5468 11.9978L15.2171 12.003C15.2199 12.003 15.2226 12.0021 15.2248 12.0005C15.2271 11.9989 15.2287 11.9966 15.2295 11.9939L15.4315 11.3546C15.4322 11.3518 15.4338 11.3494 15.4361 11.3476C15.4384 11.3459 15.4411 11.345 15.444 11.345C15.4468 11.345 15.4496 11.3459 15.4518 11.3476C15.4541 11.3494 15.4557 11.3518 15.4564 11.3546L15.6584 11.9939C15.6592 11.9966 15.6609 11.9989 15.6631 12.0005C15.6654 12.0021 15.6681 12.003 15.6708 12.003Z" fill="white"/>
<path d="M9.1731 18.8457C9.18255 18.8228 9.19315 18.8068 9.20489 18.7976C9.5051 18.5593 9.76177 18.2771 9.97489 17.9511C10.1734 18.0216 10.3668 18.0862 10.555 18.1449C12.1124 18.6299 13.6229 18.5665 15.0865 17.9546C17.0261 17.1438 18.4939 15.321 18.9919 13.2886C19.0518 13.0448 19.1728 12.8622 19.355 12.7407C19.6357 12.5537 19.9214 12.3795 20.2122 12.2182C20.2148 12.2168 20.2177 12.2161 20.2207 12.2162C20.2237 12.2163 20.2266 12.2171 20.2291 12.2186C20.2317 12.2201 20.2338 12.2223 20.2353 12.2248C20.2368 12.2274 20.2375 12.2303 20.2375 12.2333C20.2122 13.9439 19.5118 15.5827 18.4105 16.8748C16.1306 19.5509 12.37 20.3724 9.1731 18.8457Z" fill="#27A9E1"/>
<path d="M7.39805 13.1443C8.69313 13.1937 9.71364 13.9444 10.2177 15.0972C10.2877 15.2567 10.3341 15.447 10.387 15.6223L10.4518 16.1375L10.4291 16.6892C10.3586 17.1493 10.2072 17.57 9.97489 17.9512C9.76177 18.2772 9.5051 18.5594 9.20489 18.7977C9.19315 18.8069 9.18255 18.8229 9.17309 18.8458L9.15848 18.8433C9.14817 18.8415 9.13872 18.8437 9.13012 18.8497C6.97137 20.3356 4.1986 18.8261 4.15692 16.2583C4.1638 15.8629 4.24128 15.4748 4.38938 15.0938C4.54579 14.7211 4.77052 14.3805 5.06356 14.072C5.34773 13.7907 5.67544 13.5666 6.04669 13.3995C6.47695 13.2154 6.9274 13.1303 7.39805 13.1443ZM6.3552 14.7346C6.717 15.4083 7.16932 16.037 7.71216 16.6205C8.11692 17.0553 8.56781 17.4018 9.06481 17.6599C9.07095 17.6631 9.07806 17.664 9.08478 17.6623C9.09151 17.6607 9.0974 17.6566 9.10134 17.6509L9.37676 17.2629C9.49994 17.0251 9.57585 16.7894 9.6045 16.5556C9.84598 14.5842 7.79766 13.2522 6.09653 14.2439C6.09222 14.2464 6.08897 14.2504 6.08739 14.2552C6.08581 14.2599 6.086 14.2651 6.08794 14.2697C6.16385 14.4456 6.25294 14.6005 6.3552 14.7346ZM5.24489 15.1484C4.15993 17.2616 6.54126 19.4521 8.5479 18.1906C8.56193 18.1817 8.56136 18.1738 8.54618 18.1669C7.1454 17.5258 6.06216 16.4701 5.28399 15.1471C5.28195 15.1437 5.27902 15.1408 5.27551 15.1389C5.27201 15.137 5.26805 15.1361 5.26406 15.1362C5.26007 15.1363 5.25618 15.1375 5.25281 15.1397C5.24944 15.1418 5.2467 15.1448 5.24489 15.1484Z" fill="white"/>
<path d="M11.8848 13.3376L12.0666 13.3385C12.0696 13.3385 12.0725 13.3394 12.075 13.3412C12.0774 13.343 12.0792 13.3455 12.0801 13.3484C12.081 13.3512 12.081 13.3543 12.08 13.3572C12.0791 13.36 12.0772 13.3625 12.0748 13.3642L11.9269 13.4699C11.9245 13.4717 11.9227 13.4742 11.9218 13.477C11.9208 13.4799 11.9209 13.483 11.9218 13.4858L11.9772 13.6594C11.978 13.6623 11.978 13.6653 11.977 13.6681C11.976 13.6709 11.9742 13.6733 11.9718 13.675C11.9694 13.6767 11.9665 13.6776 11.9635 13.6776C11.9606 13.6776 11.9577 13.6766 11.9553 13.6749L11.8088 13.567C11.8064 13.5653 11.8034 13.5643 11.8004 13.5643C11.7974 13.5643 11.7945 13.5653 11.792 13.567L11.6442 13.6736C11.6418 13.6752 11.6389 13.6761 11.636 13.676C11.633 13.676 11.6302 13.675 11.6279 13.6732C11.6255 13.6715 11.6237 13.6691 11.6228 13.6663C11.6219 13.6635 11.6219 13.6605 11.6227 13.6577L11.6799 13.4845C11.6808 13.4817 11.6808 13.4786 11.6799 13.4758C11.679 13.4729 11.6772 13.4704 11.6747 13.4686L11.5278 13.3612C11.5253 13.3595 11.5234 13.357 11.5224 13.3541C11.5215 13.3512 11.5215 13.348 11.5225 13.3451C11.5234 13.3422 11.5253 13.3397 11.5278 13.338C11.5303 13.3362 11.5333 13.3353 11.5364 13.3354L11.7185 13.3367C11.7215 13.3367 11.7244 13.3357 11.7268 13.3339C11.7292 13.3322 11.731 13.3297 11.7319 13.3269L11.789 13.1541C11.7899 13.1512 11.7917 13.1487 11.7942 13.1469C11.7966 13.1451 11.7995 13.1442 11.8026 13.1442C11.8056 13.1442 11.8085 13.1451 11.811 13.1469C11.8134 13.1487 11.8152 13.1512 11.8161 13.1541L11.8711 13.3277C11.872 13.3306 11.8738 13.3332 11.8763 13.3349C11.8788 13.3367 11.8818 13.3376 11.8848 13.3376Z" fill="white"/>
<path d="M13.8876 13.5714L14.2885 13.5671C14.2913 13.567 14.2941 13.5677 14.2965 13.5693C14.2988 13.5709 14.3005 13.5733 14.3014 13.576C14.3023 13.5786 14.3023 13.5815 14.3013 13.5842C14.3004 13.5869 14.2986 13.5892 14.2963 13.5907L13.9693 13.8228C13.967 13.8244 13.9653 13.8266 13.9645 13.8293C13.9636 13.8319 13.9637 13.8347 13.9645 13.8374L14.0926 14.2176C14.0936 14.2203 14.0937 14.2232 14.0929 14.2259C14.0921 14.2287 14.0904 14.2311 14.0881 14.2327C14.0858 14.2344 14.083 14.2352 14.0802 14.2352C14.0773 14.2351 14.0746 14.234 14.0724 14.2322L13.7506 13.9929C13.7483 13.9912 13.7456 13.9903 13.7428 13.9903C13.74 13.9903 13.7373 13.9912 13.7351 13.9929L13.4132 14.2322C13.411 14.234 13.4083 14.2351 13.4055 14.2352C13.4026 14.2352 13.3998 14.2344 13.3975 14.2327C13.3952 14.2311 13.3935 14.2287 13.3927 14.2259C13.3919 14.2232 13.392 14.2203 13.3931 14.2176L13.5211 13.8374C13.522 13.8347 13.522 13.8319 13.5212 13.8293C13.5203 13.8266 13.5186 13.8244 13.5164 13.8228L13.1894 13.5907C13.187 13.5892 13.1852 13.5869 13.1843 13.5842C13.1834 13.5815 13.1834 13.5786 13.1842 13.576C13.1851 13.5733 13.1868 13.5709 13.1892 13.5693C13.1915 13.5677 13.1943 13.567 13.1971 13.5671L13.598 13.5714C13.6008 13.5714 13.6035 13.5706 13.6057 13.5689C13.608 13.5673 13.6096 13.565 13.6105 13.5624L13.7304 13.1795C13.7311 13.1768 13.7327 13.1743 13.735 13.1726C13.7372 13.1709 13.74 13.1699 13.7428 13.1699C13.7457 13.1699 13.7484 13.1709 13.7507 13.1726C13.7529 13.1743 13.7546 13.1768 13.7553 13.1795L13.8752 13.5624C13.876 13.565 13.8777 13.5673 13.8799 13.5689C13.8821 13.5706 13.8849 13.5714 13.8876 13.5714Z" fill="white"/>
<path d="M9.37674 17.2628C8.17104 16.6761 7.16385 15.8333 6.35518 14.7345C6.25291 14.6004 6.16382 14.4454 6.08791 14.2696C6.08598 14.2649 6.08578 14.2598 6.08736 14.255C6.08894 14.2503 6.09219 14.2463 6.09651 14.2438C7.79764 13.2521 9.84596 14.5841 9.60447 16.5555C9.57583 16.7892 9.49992 17.025 9.37674 17.2628Z" fill="#3B6EB6"/>
<path d="M10.4291 16.6892L10.4519 16.1375L17.292 13.9366C17.2952 13.9356 17.2986 13.9355 17.3018 13.9364C17.305 13.9372 17.3078 13.939 17.3101 13.9414C17.3123 13.9439 17.3138 13.9469 17.3143 13.9502C17.3148 13.9534 17.3144 13.9568 17.3131 13.9598C16.1409 16.6342 13.0931 17.7557 10.4291 16.6892Z" fill="#27A9E1"/>
<path d="M6.35522 14.7345C7.1639 15.8334 8.17108 16.6761 9.37679 17.2628L9.10136 17.6508C9.09742 17.6565 9.09154 17.6606 9.08481 17.6622C9.07808 17.6639 9.07097 17.663 9.06483 17.6598C8.56783 17.4017 8.11694 17.0552 7.71218 16.6204C7.16934 16.0369 6.71702 15.4082 6.35522 14.7345Z" fill="#192F59"/>
<path d="M8.54791 18.1905C6.54127 19.4521 4.15994 17.2615 5.2449 15.1483C5.24671 15.1447 5.24945 15.1417 5.25282 15.1396C5.25619 15.1375 5.26008 15.1363 5.26407 15.1361C5.26806 15.136 5.27202 15.1369 5.27552 15.1388C5.27903 15.1408 5.28196 15.1436 5.284 15.147C6.06216 16.47 7.14541 17.5258 8.54619 18.1669C8.56137 18.1737 8.56194 18.1816 8.54791 18.1905Z" fill="#3B6EB6"/>
</svg>
