<svg width="24" height="24" viewBox="0 0 24 24" fill="none" xmlns="http://www.w3.org/2000/svg">
<circle cx="12" cy="12" r="12" fill="#FDFEFF"/>
<path d="M14.5746 6.10327C16.1779 6.10327 17.7836 6.10327 19.3869 6.10327C19.4238 6.10327 19.4607 6.10327 19.4975 6.10327C19.6623 6.11065 19.7164 6.20409 19.6402 6.34671C19.4582 6.68114 19.2762 7.01311 19.0943 7.34753C18.8287 7.83442 18.5607 8.3213 18.3 8.81311C18.2434 8.9213 18.1697 8.96311 18.0467 8.96311C15.7353 8.96065 13.4238 8.96065 11.1123 8.96311C10.9869 8.96311 10.9107 8.92376 10.8516 8.80819C10.4164 7.99917 9.97623 7.19262 9.53607 6.3836C9.43033 6.18934 9.48197 6.10327 9.70328 6.10327C11.3262 6.10327 12.9492 6.10327 14.5746 6.10327Z" fill="#1B6BB5"/>
<path d="M17.1246 10.8442C17.1271 10.8861 17.1 10.9229 17.0779 10.9598C15.4697 13.8 13.8615 16.6402 12.2557 19.4803C12.2189 19.5467 12.1795 19.6057 12.091 19.6057C12.0049 19.6057 11.9877 19.5344 11.9582 19.4803C11.5279 18.7328 11.1 17.9852 10.6672 17.2401C10.6082 17.1393 10.6057 17.0582 10.6648 16.9574C11.8107 14.9385 12.9541 12.9197 14.0951 10.9008C14.1516 10.8 14.218 10.7557 14.3361 10.7533C15.2115 10.741 16.0869 10.7238 16.9623 10.7065C17.0557 10.7065 17.1221 10.7262 17.1246 10.8442Z" fill="#196BB5"/>
<path d="M5.79345 6.18688C6.22624 6.18688 6.66148 6.18934 7.09427 6.18442C7.20738 6.18196 7.27132 6.22623 7.32787 6.32213C8.50328 8.32376 9.68115 10.3229 10.8615 12.3221C10.9205 12.4229 10.918 12.5065 10.8639 12.6074C10.4459 13.3574 10.0328 14.1098 9.61722 14.8598C9.58525 14.9164 9.5705 15 9.48197 15C9.38853 15.0024 9.35164 14.9311 9.30984 14.8623C8.40984 13.3328 7.50984 11.8057 6.60738 10.2787C5.86476 9.0172 5.12214 7.75819 4.37951 6.49672C4.35984 6.46475 4.34017 6.43278 4.32542 6.40082C4.25902 6.27049 4.3082 6.18442 4.45328 6.18442C4.89837 6.18442 5.34591 6.18442 5.79099 6.18442C5.79345 6.18442 5.79345 6.18688 5.79345 6.18688Z" fill="#196BB5"/>
</svg>
