<svg width="24" height="24" viewBox="0 0 24 24" fill="none" xmlns="http://www.w3.org/2000/svg">
<circle cx="12" cy="12" r="12" fill="#121212"/>
<path d="M11.9987 4.9423C11.9987 4.9423 11.9634 4.9386 11.9473 4.93124C10.809 4.41288 9.66445 4.02265 8.39687 3.99843C7.34492 3.9789 6.32968 4.18788 5.4789 4.80117C5.44739 4.82382 5.45091 4.83736 5.48945 4.84179C7.04531 5.02265 8.5496 5.47773 9.95937 6.15507C9.97291 6.16184 9.97356 6.16966 9.96132 6.17851C9.79075 6.30533 9.6207 6.43307 9.45117 6.56171C7.48242 8.05546 5.7957 10.0875 4.80351 12.3617C4.25429 13.6211 3.89179 15.1223 4.03164 16.4922C4.13671 17.523 4.6707 18.5801 5.5246 19.2094C5.53193 19.2147 5.54244 19.2148 5.5499 19.2097C5.55737 19.2045 5.56097 19.1947 5.55859 19.1859C5.22304 17.9793 5.43476 16.7101 5.87226 15.5316C6.57773 13.6297 7.65507 11.9066 8.82773 10.3719C9.70937 9.21718 10.7769 8.20351 11.9625 7.36953C11.9721 7.36276 11.9853 7.36234 11.9987 7.36384C12.0117 7.36528 12.0249 7.3685 12.0352 7.36953C13.2208 8.20351 14.2884 9.21718 15.17 10.3719C16.3427 11.9066 17.42 13.6297 18.1255 15.5316C18.563 16.7101 18.7747 17.9793 18.4391 19.1859C18.4368 19.1947 18.4404 19.2045 18.4478 19.2097C18.4553 19.2148 18.4658 19.2147 18.4731 19.2094C19.327 18.5801 19.861 17.523 19.9661 16.4922C20.1059 15.1223 19.7434 13.6211 19.1942 12.3617C18.202 10.0875 16.5153 8.05546 14.5466 6.56171C14.377 6.43307 14.207 6.30533 14.0364 6.17851C14.0242 6.16966 14.0248 6.16184 14.0384 6.15507C15.4481 5.47773 16.9524 5.02265 18.5083 4.84179C18.5468 4.83736 18.5503 4.82382 18.5188 4.80117C17.668 4.18788 16.6528 3.9789 15.6009 3.99843C14.3333 4.02265 13.1888 4.41288 12.0505 4.93124C12.0343 4.9386 11.9987 4.9423 11.9987 4.9423Z" fill="#0899D5"/>
<path d="M17.8308 9.23675C18.3722 7.97347 18.7789 6.51644 18.5195 5.1555C18.5172 5.14326 18.5207 5.13336 18.5301 5.12581C18.6756 5.0068 18.8081 5.01852 18.9273 5.16097C20.4742 7.00511 20.1547 9.54964 19.2168 11.5821C19.2139 11.5883 19.2094 11.5937 19.2036 11.5976C19.1979 11.6014 19.1912 11.6036 19.1843 11.6038C19.1774 11.604 19.1706 11.6024 19.1646 11.5989C19.1586 11.5955 19.1537 11.5905 19.1504 11.5844C18.7845 10.9128 18.375 10.2629 17.9219 9.6348C17.823 9.4973 17.7508 9.42386 17.8308 9.23675Z" fill="#FED134"/>
<path d="M5.38322 5.1125C5.40387 5.11865 5.42161 5.13201 5.43323 5.15015C5.44485 5.16829 5.44956 5.19 5.44651 5.21132C5.24416 6.63984 5.60822 8.09882 6.17111 9.4082C6.17567 9.41833 6.17663 9.42976 6.17385 9.44062C6.16486 9.48007 6.15783 9.51679 6.13322 9.54921C5.65588 10.1862 5.23036 10.8729 4.85666 11.6094C4.85478 11.6131 4.85187 11.6163 4.84827 11.6185C4.84466 11.6207 4.84051 11.6218 4.8363 11.6217C4.83208 11.6216 4.82798 11.6204 4.82446 11.618C4.82094 11.6157 4.81816 11.6124 4.81643 11.6086C3.90197 9.65468 3.50744 7.04531 4.99299 5.22773C5.09429 5.10377 5.22437 5.06536 5.38322 5.1125Z" fill="#21438F"/>
<path d="M6.1113 19.041C10.1808 18.3984 13.8488 15.8211 16.0504 12.3734C16.0633 12.3531 16.0871 12.334 16.1039 12.3148C16.1127 12.3047 16.1238 12.2991 16.1371 12.298C16.1743 12.2944 16.2061 12.3144 16.2324 12.3582C16.6189 13.0009 16.9825 13.6564 17.3234 14.3246C17.3539 14.384 17.3742 14.4461 17.3843 14.5109C17.3853 14.5176 17.385 14.5244 17.3833 14.531C17.3816 14.5376 17.3787 14.5438 17.3746 14.5492C17.3389 14.5956 17.2785 14.6696 17.1933 14.7715C15.4144 16.8976 13.3047 18.5683 10.6808 19.5293C9.1656 20.084 7.43552 20.15 5.95857 19.4476C5.81521 19.3797 5.7324 19.2828 5.78591 19.1246C5.78816 19.1178 5.7921 19.1117 5.79736 19.1068C5.80263 19.102 5.80904 19.0985 5.81599 19.0969C5.87901 19.0807 5.97745 19.0621 6.1113 19.041Z" fill="#FED134"/>
<path d="M9.48554 17.4274C8.51483 16.6656 7.52812 15.7707 6.7578 14.7809C6.57577 14.5473 6.63124 14.4332 6.74726 14.2C7.06028 13.5729 7.40741 12.9603 7.78866 12.3621C7.82095 12.3113 7.85741 12.3082 7.89804 12.3527C7.92773 12.3856 7.9621 12.432 8.00116 12.4922C8.98593 14.0098 10.1918 15.3711 11.6664 16.427C11.6706 16.4299 11.674 16.4338 11.6764 16.4384C11.6787 16.4429 11.68 16.448 11.68 16.4531C11.68 16.4583 11.6787 16.4633 11.6764 16.4679C11.674 16.4724 11.6706 16.4763 11.6664 16.4793C11.1469 16.8468 10.6005 17.172 10.0273 17.4551C9.88697 17.5244 9.80937 17.5608 9.79452 17.5645C9.64452 17.6012 9.59062 17.5098 9.48554 17.4274Z" fill="#21438F"/>
<path d="M12.3492 19.171C12.3325 19.1635 12.3293 19.1519 12.3394 19.1363C12.3508 19.1195 12.3555 19.1066 12.3762 19.0956C12.9644 18.7777 13.5344 18.4291 14.0859 18.0499C14.1844 17.9823 14.2715 17.9613 14.3883 18.0152C15.5855 18.5663 16.8023 18.9398 18.1125 19.1046C18.1247 19.1062 18.1353 19.1111 18.1441 19.1195C18.3523 19.3124 17.7894 19.5984 17.6254 19.6648C16.4223 20.1511 14.9012 20.073 13.6871 19.6906C13.2371 19.5489 12.7911 19.3757 12.3492 19.171Z" fill="#21438F"/>
</svg>
