<svg width="24" height="24" viewBox="0 0 24 24" fill="none" xmlns="http://www.w3.org/2000/svg">
<g clip-path="url(#clip0_2625_7020)">
<path d="M12.0002 24C18.6276 24 24.0002 18.6274 24.0002 12C24.0002 5.37259 18.6276 0 12.0002 0C5.37278 0 0.000183105 5.37259 0.000183105 12C0.000183105 18.6274 5.37278 24 12.0002 24Z" fill="#17438C"/>
<path d="M7.0665 9.04016C8.17231 9.04016 9.06876 8.14372 9.06876 7.0379C9.06876 5.93209 8.17231 5.03564 7.0665 5.03564C5.96068 5.03564 5.06424 5.93209 5.06424 7.0379C5.06424 8.14372 5.96068 9.04016 7.0665 9.04016Z" fill="#3682FF"/>
<path d="M7.0665 18.9648C8.17231 18.9648 9.06876 18.0684 9.06876 16.9626C9.06876 15.8568 8.17231 14.9603 7.0665 14.9603C5.96068 14.9603 5.06424 15.8568 5.06424 16.9626C5.06424 18.0684 5.96068 18.9648 7.0665 18.9648Z" fill="#3682FF"/>
<path d="M18.9359 16.9626C18.9359 18.0684 18.0395 18.9648 16.9337 18.9648C15.8279 18.9648 14.9314 18.0684 14.9314 16.9626C14.9314 15.8568 15.8279 14.9603 16.9337 14.9603C18.0395 14.9603 18.9359 15.8568 18.9359 16.9626Z" fill="#3682FF"/>
<path d="M16.9337 9.04016C18.0395 9.04016 18.9359 8.14372 18.9359 7.0379C18.9359 5.93209 18.0395 5.03564 16.9337 5.03564C15.8279 5.03564 14.9314 5.93209 14.9314 7.0379C14.9314 8.14372 15.8279 9.04016 16.9337 9.04016Z" fill="#3682FF"/>
<path d="M14.0024 7.0379C14.0024 8.14372 13.106 9.04016 12.0002 9.04016C10.8944 9.04016 9.99792 8.14372 9.99792 7.0379C9.99792 5.93209 10.8944 5.03564 12.0002 5.03564C13.106 5.03564 14.0024 5.93209 14.0024 7.0379Z" fill="#FFBF60"/>
<path d="M7.0665 14.0023C7.9633 14.0023 8.7224 13.4127 8.97732 12.6H10.0894C10.3443 13.4127 11.1034 14.0023 12.0002 14.0023C12.897 14.0023 13.6561 13.4127 13.911 12.6H15.0229C15.2778 13.4127 16.0369 14.0023 16.9337 14.0023C18.0395 14.0023 18.9359 13.1059 18.9359 12.0001C18.9359 10.8942 18.0395 9.9978 16.9337 9.9978C16.0369 9.9978 15.2778 10.5874 15.0229 11.4H13.911C13.656 10.5874 12.897 9.9978 12.0002 9.9978C11.1034 9.9978 10.3443 10.5874 10.0894 11.4H8.97729C8.72235 10.5874 7.96327 9.9978 7.0665 9.9978C5.96068 9.9978 5.06424 10.8942 5.06424 12.0001C5.06424 13.1059 5.96068 14.0023 7.0665 14.0023Z" fill="#FFBF60"/>
<path d="M14.0024 16.9626C14.0024 18.0684 13.106 18.9648 12.0002 18.9648C10.8944 18.9648 9.99792 18.0684 9.99792 16.9626C9.99792 15.8568 10.8944 14.9603 12.0002 14.9603C13.106 14.9603 14.0024 15.8568 14.0024 16.9626Z" fill="#FFBF60"/>
</g>
<defs>
<clipPath id="clip0_2625_7020">
<rect width="24" height="24" fill="white"/>
</clipPath>
</defs>
</svg>
